
<svg xmlns="http://www.w3.org/2000/svg" version="1.1" xmlns:xlink="http://www.w3.org/1999/xlink" preserveAspectRatio="none" x="0px" y="0px" width="28px" height="37px" viewBox="0 0 28 37">
<defs>
<g id="Sprites_Sprite_812_0_Layer1_0_FILL">
<path fill="#000000" stroke="none" d="
M -3.45 5.25
L -4.25 5.55 -4.7 5.9 -5.05 6.35 -5.25 6.85 -5.35 7.4 -5.35 7.7 -5.25 8 -5.2 8.25 -4.75 8.95 -4.55 9.15 -4.05 9.45 -3.75 9.55 -3.5 9.6 -2.95 9.6 -2.4 9.5 -2.1 9.35 -1.65 9.05 -1.3 8.6 -1.15 8.35 -1.05 8.1 -1 7.8 -1 7.5 -0.95 7.45 -1.05 6.9 -1.25 6.35 -1.45 6.15 -1.6 5.9 -1.85 5.75 -2.05 5.55 -2.6 5.35 -3.15 5.25 -3.45 5.25
M 1 12.4
L 0.9 11.85 0.7 11.35 0.55 11.15 0.15 10.75 -0.3 10.5 -0.6 10.4 -0.85 10.35 -1.95 10.35 -2.05 10.5 -2.15 10.7 -2.35 10.85 -2.75 11.05 -2.95 11.05 -3.15 11.1 -3.55 11 -3.75 10.9 -3.95 10.75 -4.25 10.45 -4.3 10.35 -5.25 10.35 -5.55 10.4 -6.05 10.6 -6.5 10.9 -6.7 11.1 -7 11.6 -7.1 11.85 -7.2 12.45 -7.2 13.35 0.95 13.35 1 12.4
M 4.5 -16
Q 4.050390625 -16.36640625 3.55 -16.7
L 3.2 -16.35
Q 3.3322265625 -16.1736328125 3.45 -16 6.1361328125 -12.2287109375 4.75 -9.6 3.7 -8.1 2.65 -7.55
L 0.15 -10.05 0.15 -0.3 10.1 -0.3 7.9 -2.5
Q 11.75 -7.1 7.95 -12.45 6.4630859375 -14.499609375 4.5 -16 Z"/>
</g>

<path id="Sprites_Sprite_812_0_Layer1_0_1_STROKES" stroke="#000000" stroke-width="3" stroke-linejoin="round" stroke-linecap="round" fill="none" d="
M 3.75 9.85
Q 3.75 12.7 1.7 14.7 -0.3 16.75 -3.2 16.75 -6.05 16.75 -8.1 14.7 -10.1 12.7 -10.1 9.85 -10.1 6.95 -8.1 4.9 -6.05 2.9 -3.2 2.9 -0.3 2.9 1.7 4.9 3.75 6.95 3.75 9.85 Z"/>
</defs>

<g transform="matrix( 1, 0, 0, 1, 15.7,18.4) ">
<g transform="matrix( 1, 0, 0, 1, 0,0) ">
<use xlink:href="#Sprites_Sprite_812_0_Layer1_0_FILL"/>

<use xlink:href="#Sprites_Sprite_812_0_Layer1_0_1_STROKES"/>
</g>
</g>
</svg>
