<?xml version="1.0" encoding="UTF-8" standalone="no"?>
<svg xmlns:ffdec="https://www.free-decompiler.com/flash" xmlns:xlink="http://www.w3.org/1999/xlink" ffdec:objectType="frame" height="157.75px" width="178.0px" xmlns="http://www.w3.org/2000/svg">
  <g transform="matrix(1.0, 0.0, 0.0, 1.0, 82.3, 138.3)">
    <use ffdec:characterId="173" height="18.85" id="mc311300" transform="matrix(0.9946, 0.101, -0.101, 0.9946, -13.1134, -16.2983)" width="10.9" xlink:href="#sprite0"/>
    <use ffdec:characterId="173" height="18.85" id="mc301300" transform="matrix(0.9946, 0.101, -0.101, 0.9946, 2.2866, -16.2483)" width="10.9" xlink:href="#sprite0"/>
    <use ffdec:characterId="178" height="18.55" id="mc291300" transform="matrix(-0.9539, -0.2894, -0.2894, 0.9539, 23.1845, -31.5727)" width="15.75" xlink:href="#sprite1"/>
    <use ffdec:characterId="178" height="18.55" id="mc281300" transform="matrix(0.809, -0.5848, 0.5848, 0.809, -24.0964, -23.9283)" width="15.75" xlink:href="#sprite1"/>
    <use ffdec:characterId="181" height="20.65" id="mc271300" transform="matrix(1.0, 0.0, 0.0, 1.0, -11.7, -37.5)" width="21.15" xlink:href="#sprite4"/>
    <use ffdec:characterId="185" height="22.9" id="mc261300" transform="matrix(1.0, 0.0, 0.0, 1.0, -12.55, -39.75)" width="23.0" xlink:href="#sprite7"/>
    <use ffdec:characterId="186" height="21.35" id="mc251300" transform="matrix(0.9915, -0.1269, 0.1269, 0.9915, -14.2, -29.25)" width="23.6" xlink:href="#sprite10"/>
    <use ffdec:characterId="189" height="10.05" id="mc231300" transform="matrix(0.9631, 0.263, -0.263, 0.9631, -14.1301, -39.1535)" width="12.85" xlink:href="#sprite11"/>
    <use ffdec:characterId="190" height="10.05" id="mc221300" transform="matrix(0.9915, -0.1269, 0.1269, 0.9915, -1.3566, -33.6281)" width="12.85" xlink:href="#sprite14"/>
    <use ffdec:characterId="1135" height="51.35" id="mc211300" transform="matrix(-1.0, 0.0, 0.0, 1.0, 26.05, -80.6)" width="42.8" xlink:href="#sprite15"/>
    <use ffdec:characterId="1136" height="5.65" transform="matrix(-1.0, 0.0, 0.0, 1.0, 10.8, -59.45)" width="11.95" xlink:href="#shape14"/>
    <use ffdec:characterId="1137" height="5.9" transform="matrix(-1.1, 0.0, 0.0, 1.1, 22.21, -54.11)" width="6.5" xlink:href="#shape15"/>
    <use ffdec:characterId="1138" height="12.3" transform="matrix(1.0, 0.0, 0.0, 1.0, -3.15, -63.8)" width="27.45" xlink:href="#shape16"/>
    <use ffdec:characterId="1142" height="9.0" id="mc121300" transform="matrix(-1.0, 0.0, 0.0, 1.0, 33.3, -80.0)" width="15.75" xlink:href="#sprite17"/>
    <use ffdec:characterId="1146" height="59.4" id="mc111300" transform="matrix(-1.0, 0.0, 0.0, 1.0, 30.4, -96.85)" width="70.45" xlink:href="#sprite19"/>
    <use ffdec:characterId="206" height="18.5" id="mc91300" transform="matrix(1.0, 0.0, 0.0, 1.0, -14.95, -19.6)" width="27.7" xlink:href="#sprite21"/>
    <use ffdec:characterId="211" height="20.15" id="hide_hat8" transform="matrix(0.9562, -0.2795, 0.2795, 0.9562, -9.0768, -82.8075)" width="38.05" xlink:href="#sprite24"/>
    <use ffdec:characterId="1057" height="0.0" id="hat" transform="matrix(1.0, 0.0, 0.0, 1.0, 0.0, 0.0)" width="0.0" xlink:href="#sprite28"/>
    <use ffdec:characterId="172" height="79.3" id="mc61300" transform="matrix(0.1273, 0.9753, 0.9753, -0.1273, -2.7424, -77.8632)" width="74.0" xlink:href="#sprite29"/>
    <use ffdec:characterId="539" height="9.9" id="mc51300" transform="matrix(-0.0344, -0.9875, -0.9875, 0.0344, 21.5197, -7.6422)" width="9.9" xlink:href="#sprite35"/>
    <use ffdec:characterId="1148" height="8.5" transform="matrix(1.0, 0.0, 0.0, 1.0, 4.35, -46.55)" width="10.85" xlink:href="#morphshape0"/>
    <use ffdec:characterId="1125" height="12.1" id="mc0660" transform="matrix(1.6267, 2.3829, -2.3829, 1.6267, 11.674, -52.0757)" width="17.55" xlink:href="#sprite37"/>
  </g>
  <defs>
    <g id="sprite0" transform="matrix(1.0, 0.0, 0.0, 1.0, 4.95, 9.5)">
      <use ffdec:characterId="18" height="18.85" transform="matrix(1.0, 0.0, 0.0, 1.0, -4.95, -9.5)" width="10.9" xlink:href="#shape0"/>
    </g>
    <g id="shape0" transform="matrix(1.0, 0.0, 0.0, 1.0, 4.95, 9.5)">
      <path d="M5.05 5.55 L5.05 5.7 Q5.15 6.65 3.9 7.45 2.7 8.25 0.95 8.4 -0.8 8.55 -2.15 7.95 -3.45 7.45 -3.55 6.5 L-3.55 6.35 -3.5 6.35 4.7 5.5 5.05 5.55" fill="#000000" fill-rule="evenodd" stroke="none"/>
      <path d="M-3.55 6.1 L-3.65 3.85 -4.05 -6.3 Q-4.1 -7.15 -3.15 -7.75 -2.1 -8.4 -0.55 -8.55 L2.1 -8.25 Q3.15 -7.75 3.3 -7.0 L3.35 -6.85 3.35 -6.65 4.7 3.05 5.05 5.45 4.7 5.5 -3.5 6.35 -3.55 6.1 M4.7 3.05 L-3.65 3.85 4.7 3.05" fill="#ffffff" fill-rule="evenodd" stroke="none"/>
      <path d="M-3.55 6.1 L-3.65 3.85 -4.05 -6.3 Q-4.1 -7.15 -3.15 -7.75 -2.1 -8.4 -0.55 -8.55 L2.1 -8.25 Q3.15 -7.75 3.3 -7.0 L3.35 -6.85 3.35 -6.65 4.7 3.05 5.05 5.45 5.05 5.55 5.05 5.7 Q5.15 6.65 3.9 7.45 2.7 8.25 0.95 8.4 -0.8 8.55 -2.15 7.95 -3.45 7.45 -3.55 6.5 L-3.55 6.35 -3.55 6.1 M-3.5 6.35 L4.7 5.5 M-3.55 6.35 L-3.5 6.35 M-3.65 3.85 L4.7 3.05" fill="none" stroke="#000000" stroke-linecap="round" stroke-linejoin="round" stroke-width="1.8"/>
    </g>
    <g id="sprite1" transform="matrix(1.0, 0.0, 0.0, 1.0, 7.85, 8.8)">
      <use ffdec:characterId="174" height="6.5" id="mc400" transform="matrix(1.0, 0.0, 0.0, 1.0, -5.35, 2.35)" width="7.55" xlink:href="#sprite2"/>
      <use ffdec:characterId="175" height="16.1" transform="matrix(1.0, 0.0, 0.0, 1.0, -6.25, -6.35)" width="14.15" xlink:href="#shape2"/>
      <use ffdec:characterId="176" height="15.5" id="mc200" transform="matrix(1.0, 0.0, 0.0, 1.0, -6.95, -7.9)" width="13.95" xlink:href="#sprite3"/>
      <use ffdec:characterId="177" height="17.3" transform="matrix(1.0, 0.0, 0.0, 1.0, -7.85, -8.8)" width="15.75" xlink:href="#shape4"/>
    </g>
    <g id="sprite2" transform="matrix(1.0, 0.0, 0.0, 1.0, 0.0, 0.0)">
      <use ffdec:characterId="12" height="6.5" transform="matrix(1.0, 0.0, 0.0, 1.0, 0.0, 0.0)" width="7.55" xlink:href="#shape1"/>
    </g>
    <g id="shape1" transform="matrix(1.0, 0.0, 0.0, 1.0, 0.0, 0.0)">
      <path d="M6.45 2.8 L7.55 2.7 7.1 3.95 Q6.5 5.65 5.2 6.2 3.75 6.8 2.3 6.2 0.8 5.55 0.2 4.15 -0.3 2.8 0.5 1.2 L1.1 0.0 Q2.7 2.0 4.75 2.55 L6.3 2.9 6.45 2.8" fill="#b59155" fill-rule="evenodd" stroke="none"/>
    </g>
    <g id="shape2" transform="matrix(1.0, 0.0, 0.0, 1.0, 6.25, 6.35)">
      <path d="M6.8 -4.7 L6.7 -4.4 7.0 -5.45 6.8 -4.7" fill="#ffffff" fill-rule="evenodd" stroke="none"/>
      <path d="M6.8 -4.7 L7.0 -5.45 6.7 -4.4 6.8 -4.7 3.75 2.45 2.2 5.05 1.75 6.3 Q1.15 8.0 -0.15 8.55 -1.6 9.15 -3.05 8.55 -4.55 7.9 -5.15 6.5 -5.65 5.15 -4.85 3.55 L-4.25 2.35 -4.1 1.95 M2.2 5.05 L1.1 5.15 M-2.55 -1.8 L-2.7 -1.55 M-0.6 4.9 Q-2.65 4.35 -4.25 2.35" fill="none" stroke="#000000" stroke-linecap="round" stroke-linejoin="round" stroke-width="1.8"/>
    </g>
    <g id="sprite3" transform="matrix(1.0, 0.0, 0.0, 1.0, 0.0, 0.0)">
      <use ffdec:characterId="14" height="15.5" transform="matrix(1.0, 0.0, 0.0, 1.0, 0.0, 0.0)" width="13.95" xlink:href="#shape3"/>
    </g>
    <g id="shape3" transform="matrix(1.0, 0.0, 0.0, 1.0, 0.0, 0.0)">
      <path d="M10.4 10.55 L10.7 10.75 8.8 15.5 8.75 15.5 8.5 15.4 7.2 13.05 4.05 14.4 3.95 14.15 3.6 10.9 3.35 10.55 0.0 10.55 4.3 6.05 4.4 6.15 5.05 5.25 Q10.05 0.45 11.25 0.15 12.45 -0.25 13.25 0.4 14.1 1.05 13.95 2.25 L13.95 2.45 13.65 3.5 10.4 10.55" fill="#ffffff" fill-rule="evenodd" stroke="none"/>
    </g>
    <g id="shape4" transform="matrix(1.0, 0.0, 0.0, 1.0, 7.85, 8.8)">
      <path d="M-2.65 -1.85 L-6.95 2.65 -3.4 2.65 -3.0 6.25 M1.85 7.6 L3.75 2.85 M-2.9 6.5 L0.25 5.15 1.55 7.5 M3.35 2.6 L-2.45 -1.7" fill="none" stroke="#000000" stroke-linecap="round" stroke-linejoin="round" stroke-width="1.8"/>
      <path d="M7.0 -5.65 Q7.15 -6.85 6.3 -7.5 5.5 -8.15 4.3 -7.75 3.1 -7.45 -1.9 -2.65 M6.7 -4.4 L3.5 2.9" fill="none" stroke="#000000" stroke-linecap="round" stroke-linejoin="round" stroke-width="1.8"/>
    </g>
    <g id="sprite4" transform="matrix(1.0, 0.0, 0.0, 1.0, 0.05, 5.35)">
      <use ffdec:characterId="81" height="20.65" transform="matrix(1.0, 0.0, 0.0, 1.0, -0.05, -5.35)" width="21.15" xlink:href="#shape5"/>
      <use ffdec:characterId="180" height="18.85" id="mc001" transform="matrix(1.0, 0.0, 0.0, 1.0, 0.85, -4.45)" width="19.35" xlink:href="#sprite5"/>
    </g>
    <g id="shape5" transform="matrix(1.0, 0.0, 0.0, 1.0, 0.05, 5.35)">
      <path d="M18.55 -4.45 L20.2 13.7 14.15 14.2 8.6 14.4 0.85 14.15 1.7 -3.95 18.55 -4.45 Z" fill="none" stroke="#000000" stroke-linecap="round" stroke-linejoin="round" stroke-width="1.8"/>
    </g>
    <g id="sprite5" transform="matrix(1.0, 0.0, 0.0, 1.0, 0.0, 0.0)">
      <use ffdec:characterId="179" height="18.85" id="mc000" transform="matrix(1.0, 0.0, 0.0, 1.0, 0.0, 0.0)" width="19.35" xlink:href="#sprite6"/>
    </g>
    <g id="sprite6" transform="matrix(1.0, 0.0, 0.0, 1.0, 0.0, 0.0)">
      <use ffdec:characterId="82" height="18.85" transform="matrix(1.0, 0.0, 0.0, 1.0, 0.0, 0.0)" width="19.35" xlink:href="#shape6"/>
    </g>
    <g id="shape6" transform="matrix(1.0, 0.0, 0.0, 1.0, 0.0, 0.0)">
      <path d="M19.35 18.15 L13.3 18.65 7.75 18.85 0.0 18.6 0.85 0.5 17.7 0.0 19.35 18.15" fill="#b59155" fill-rule="evenodd" stroke="none"/>
    </g>
    <g id="sprite7" transform="matrix(1.0, 0.0, 0.0, 1.0, 0.9, 7.6)">
      <use ffdec:characterId="183" height="21.1" id="mc100" transform="matrix(1.0, 0.0, 0.0, 1.0, 0.0, -6.7)" width="21.2" xlink:href="#sprite8"/>
      <use ffdec:characterId="184" height="22.9" transform="matrix(1.0, 0.0, 0.0, 1.0, -0.9, -7.6)" width="23.0" xlink:href="#shape8"/>
    </g>
    <g id="sprite8" transform="matrix(1.0, 0.0, 0.0, 1.0, 0.0, 0.0)">
      <use ffdec:characterId="182" height="21.1" id="mc000" transform="matrix(1.0, 0.0, 0.0, 1.0, 0.0, 0.0)" width="21.2" xlink:href="#sprite9"/>
    </g>
    <g id="sprite9" transform="matrix(1.0, 0.0, 0.0, 1.0, 0.0, 0.0)">
      <use ffdec:characterId="86" height="21.1" transform="matrix(1.0, 0.0, 0.0, 1.0, 0.0, 0.0)" width="21.2" xlink:href="#shape7"/>
    </g>
    <g id="shape7" transform="matrix(1.0, 0.0, 0.0, 1.0, 0.0, 0.0)">
      <path d="M21.2 20.3 L14.55 20.9 13.7 0.2 19.35 0.0 21.2 20.3 M8.5 21.1 L0.0 20.8 0.95 0.6 8.1 0.6 8.5 21.1" fill="#ffffff" fill-rule="evenodd" stroke="none"/>
    </g>
    <g id="shape8" transform="matrix(1.0, 0.0, 0.0, 1.0, 0.9, 7.6)">
      <path d="M19.35 -6.7 L21.2 13.6 14.55 14.2 13.7 -6.5 19.35 -6.7 M8.5 14.4 L0.0 14.1 0.95 -6.1 8.1 -6.1 8.5 13.65" fill="none" stroke="#000000" stroke-linecap="round" stroke-linejoin="round" stroke-width="1.8"/>
    </g>
    <g id="sprite10" transform="matrix(1.0, 0.0, 0.0, 1.0, 0.0, 0.0)">
      <use ffdec:characterId="33" height="21.35" transform="matrix(1.0, 0.0, 0.0, 1.0, 0.0, 0.0)" width="23.6" xlink:href="#shape9"/>
    </g>
    <g id="shape9" transform="matrix(1.0, 0.0, 0.0, 1.0, 0.0, 0.0)">
      <path d="M22.2 0.0 L23.6 1.6 23.3 2.05 Q11.6 13.1 0.3 21.35 L0.0 21.3 0.7 18.35 22.2 0.0" fill="#000000" fill-rule="evenodd" stroke="none"/>
    </g>
    <g id="sprite11" transform="matrix(1.0, 0.0, 0.0, 1.0, 0.9, 0.9)">
      <use ffdec:characterId="188" height="10.05" id="mc000" transform="matrix(1.0, 0.0, 0.0, 1.0, -0.9, -0.9)" width="12.85" xlink:href="#sprite12"/>
    </g>
    <g id="sprite12" transform="matrix(1.0, 0.0, 0.0, 1.0, 0.9, 0.9)">
      <use ffdec:characterId="187" height="8.25" id="mc100" transform="matrix(1.0, 0.0, 0.0, 1.0, 0.0, 0.0)" width="11.05" xlink:href="#sprite13"/>
      <use ffdec:characterId="36" height="10.05" transform="matrix(1.0, 0.0, 0.0, 1.0, -0.9, -0.9)" width="12.85" xlink:href="#shape11"/>
    </g>
    <g id="sprite13" transform="matrix(1.0, 0.0, 0.0, 1.0, 0.0, 0.0)">
      <use ffdec:characterId="34" height="8.25" transform="matrix(1.0, 0.0, 0.0, 1.0, 0.0, 0.0)" width="11.05" xlink:href="#shape10"/>
    </g>
    <g id="shape10" transform="matrix(1.0, 0.0, 0.0, 1.0, 0.0, 0.0)">
      <path d="M7.5 5.75 L3.6 8.25 3.2 4.7 0.0 4.7 3.35 0.0 10.1 1.1 11.05 8.25 7.5 5.75" fill="#ffffff" fill-rule="evenodd" stroke="none"/>
    </g>
    <g id="shape11" transform="matrix(1.0, 0.0, 0.0, 1.0, 0.9, 0.9)">
      <path d="M10.1 1.1 L11.05 8.25 7.5 5.75 3.6 8.25 3.2 4.7 0.0 4.7 3.35 0.0 10.1 1.1 Z" fill="none" stroke="#000000" stroke-linecap="round" stroke-linejoin="round" stroke-width="1.8"/>
    </g>
    <g id="sprite14" transform="matrix(1.0, 0.0, 0.0, 1.0, 0.9, 0.9)">
      <use ffdec:characterId="188" height="10.05" id="mc000" transform="matrix(-1.0, 0.0, 0.0, 1.0, 11.95, -0.9)" width="12.85" xlink:href="#sprite12"/>
    </g>
    <g id="sprite15" transform="matrix(1.0, 0.0, 0.0, 1.0, 0.9, 0.9)">
      <use ffdec:characterId="1133" height="49.55" id="mc100" transform="matrix(1.0, 0.0, 0.0, 1.0, 0.0, 0.0)" width="41.0" xlink:href="#sprite16"/>
      <use ffdec:characterId="1134" height="51.35" transform="matrix(1.0, 0.0, 0.0, 1.0, -0.9, -0.9)" width="42.8" xlink:href="#shape13"/>
    </g>
    <g id="sprite16" transform="matrix(1.0, 0.0, 0.0, 1.0, 0.05, 0.0)">
      <use ffdec:characterId="1132" height="49.55" transform="matrix(1.0, 0.0, 0.0, 1.0, -0.05, 0.0)" width="41.0" xlink:href="#shape12"/>
    </g>
    <g id="shape12" transform="matrix(1.0, 0.0, 0.0, 1.0, 0.05, 0.0)">
      <path d="M1.55 10.25 L24.0 0.0 40.95 5.3 38.15 39.05 37.55 39.6 Q28.1 49.25 13.45 49.55 L12.9 49.25 Q1.55 45.65 4.2 31.25 -1.65 24.45 0.6 16.9 L1.55 10.25" fill="#c4a44a" fill-rule="evenodd" stroke="none"/>
    </g>
    <g id="shape13" transform="matrix(1.0, 0.0, 0.0, 1.0, 0.9, 0.9)">
      <path d="M12.95 49.25 Q1.6 45.65 4.25 31.25 -1.6 24.45 0.65 16.9 L1.6 10.25 1.85 8.65 M1.6 10.25 Q12.85 5.15 24.05 0.0 L41.0 5.3 38.2 39.05 M37.6 39.6 Q28.15 49.25 13.5 49.55" fill="none" stroke="#000000" stroke-linecap="round" stroke-linejoin="round" stroke-width="1.8"/>
    </g>
    <g id="shape14" transform="matrix(1.0, 0.0, 0.0, 1.0, 0.6, 0.6)">
      <path d="M10.75 0.0 Q7.45 6.3 0.0 3.7 5.35 0.3 10.75 0.0" fill="#ffffff" fill-rule="evenodd" stroke="none"/>
      <path d="M9.25 0.75 Q9.75 1.25 9.75 1.95 9.75 2.65 9.25 3.15 8.75 3.65 8.05 3.65 7.35 3.65 6.85 3.15 6.35 2.65 6.35 1.95 6.35 1.25 6.85 0.75 7.35 0.25 8.05 0.25 8.75 0.25 9.25 0.75" fill="#000000" fill-rule="evenodd" stroke="none"/>
      <path d="M0.0 3.7 Q5.35 0.3 10.75 0.0 7.45 6.3 0.0 3.7 Z" fill="none" stroke="#000000" stroke-linecap="round" stroke-linejoin="round" stroke-width="1.2000000000000002"/>
    </g>
    <g id="shape15" transform="matrix(1.0, 0.0, 0.0, 1.0, 0.6, 0.6)">
      <path d="M0.0 2.95 L5.1 0.0 Q6.3 3.3 0.4 4.7 L0.0 2.95" fill="#ffffff" fill-rule="evenodd" stroke="none"/>
      <path d="M3.95 0.85 L4.7 1.15 5.0 1.9 4.7 2.6 3.95 2.9 Q3.55 2.9 3.25 2.6 2.95 2.3 2.95 1.9 2.95 1.45 3.25 1.15 3.55 0.85 3.95 0.85" fill="#000000" fill-rule="evenodd" stroke="none"/>
      <path d="M0.0 2.95 L5.1 0.0 Q6.3 3.3 0.4 4.7 L0.0 2.95 Z" fill="none" stroke="#000000" stroke-linecap="round" stroke-linejoin="round" stroke-width="1.2000000000000002"/>
    </g>
    <g id="shape16" transform="matrix(1.0, 0.0, 0.0, 1.0, 3.15, 63.8)">
      <path d="M21.0 -59.65 Q21.05 -54.75 23.55 -52.25" fill="none" stroke="#000000" stroke-linecap="round" stroke-linejoin="round" stroke-width="1.5"/>
      <path d="M-2.25 -62.9 Q3.3 -59.9 13.95 -61.45" fill="none" stroke="#000000" stroke-linecap="round" stroke-linejoin="round" stroke-width="1.8"/>
    </g>
    <g id="sprite17" transform="matrix(1.0, 0.0, 0.0, 1.0, 0.65, -15.95)">
      <use ffdec:characterId="1140" height="6.7" id="mc100" transform="matrix(1.0, 0.0, 0.0, 1.0, 0.25, 17.15)" width="13.95" xlink:href="#sprite18"/>
      <use ffdec:characterId="1141" height="9.0" transform="matrix(1.0, 0.0, 0.0, 1.0, -0.65, 15.95)" width="15.75" xlink:href="#shape18"/>
    </g>
    <g id="sprite18" transform="matrix(1.0, 0.0, 0.0, 1.0, 0.0, -16.95)">
      <use ffdec:characterId="1139" height="6.7" transform="matrix(1.0, 0.0, 0.0, 1.0, 0.0, 16.95)" width="13.95" xlink:href="#shape17"/>
    </g>
    <g id="shape17" transform="matrix(1.0, 0.0, 0.0, 1.0, 0.0, -16.95)">
      <path d="M6.3 23.65 L0.0 22.1 8.55 17.4 Q12.95 16.1 13.95 18.6 14.4 23.6 6.3 23.65" fill="#ff6600" fill-rule="evenodd" stroke="none"/>
    </g>
    <g id="shape18" transform="matrix(1.0, 0.0, 0.0, 1.0, 0.65, -15.95)">
      <path d="M12.25 23.0 Q11.1 24.45 7.2 23.85 M6.55 23.85 L0.25 22.3 8.8 17.6 Q11.2 16.4 14.2 17.15" fill="none" stroke="#000000" stroke-linecap="round" stroke-linejoin="round" stroke-width="1.8"/>
    </g>
    <g id="sprite19" transform="matrix(1.0, 0.0, 0.0, 1.0, -2.25, 0.9)">
      <use ffdec:characterId="1144" height="57.4" id="mc100" transform="matrix(1.0, 0.0, 0.0, 1.0, 3.15, 0.2)" width="68.65" xlink:href="#sprite20"/>
      <use ffdec:characterId="1145" height="59.4" transform="matrix(1.0, 0.0, 0.0, 1.0, 2.25, -0.9)" width="70.45" xlink:href="#shape20"/>
    </g>
    <g id="sprite20" transform="matrix(1.0, 0.0, 0.0, 1.0, -2.9, 0.0)">
      <use ffdec:characterId="1143" height="57.4" transform="matrix(1.0, 0.0, 0.0, 1.0, 2.9, 0.0)" width="68.65" xlink:href="#shape19"/>
    </g>
    <g id="shape19" transform="matrix(1.0, 0.0, 0.0, 1.0, -2.9, 0.0)">
      <path d="M42.25 3.3 L42.4 3.25 42.95 0.0 57.65 7.75 57.9 7.65 Q64.35 18.2 65.6 28.75 L71.55 27.05 61.6 41.8 66.45 41.8 44.6 57.4 41.05 49.2 37.85 55.05 28.15 26.45 29.0 41.25 16.5 25.35 16.8 38.65 11.1 27.6 2.9 43.2 6.3 23.65 8.55 17.4 Q17.3 2.2 42.25 3.3" fill="#ff6600" fill-rule="evenodd" stroke="none"/>
    </g>
    <g id="shape20" transform="matrix(1.0, 0.0, 0.0, 1.0, -2.25, 0.9)">
      <path d="M8.8 17.6 Q17.55 2.4 42.5 3.5 L42.65 3.45 43.2 0.2 42.85 0.0 M42.65 3.45 L43.45 3.1 M60.7 23.0 L62.4 32.35 55.9 22.15 41.3 49.4 44.85 57.6 66.7 42.0 61.85 42.0 71.8 27.25 65.85 28.95 Q64.6 18.4 58.15 7.85 L57.85 7.75 57.7 7.85 43.2 0.2 M37.75 55.9 L38.1 55.25 28.4 26.65 29.25 41.45 16.75 25.55 17.05 38.85 11.35 27.8 3.15 43.4 6.55 23.85 M38.1 55.25 L41.3 49.4" fill="none" stroke="#000000" stroke-linecap="round" stroke-linejoin="round" stroke-width="1.8"/>
    </g>
    <g id="sprite21" transform="matrix(1.0, 0.0, 0.0, 1.0, 1.8, 0.9)">
      <use ffdec:characterId="205" height="18.5" id="mc000" transform="matrix(1.0, 0.0, 0.0, 1.0, -1.8, -0.9)" width="27.7" xlink:href="#sprite22"/>
    </g>
    <g id="sprite22" transform="matrix(1.0, 0.0, 0.0, 1.0, 1.8, 0.9)">
      <use ffdec:characterId="203" height="16.7" id="mc100" transform="matrix(1.0, 0.0, 0.0, 1.0, -0.9, 0.0)" width="25.9" xlink:href="#sprite23"/>
      <use ffdec:characterId="204" height="18.5" transform="matrix(1.0, 0.0, 0.0, 1.0, -1.8, -0.9)" width="27.7" xlink:href="#shape22"/>
    </g>
    <g id="sprite23" transform="matrix(1.0, 0.0, 0.0, 1.0, 0.0, 0.0)">
      <use ffdec:characterId="107" height="16.7" transform="matrix(1.0, 0.0, 0.0, 1.0, 0.0, 0.0)" width="25.9" xlink:href="#shape21"/>
    </g>
    <g id="shape21" transform="matrix(1.0, 0.0, 0.0, 1.0, 0.0, 0.0)">
      <path d="M24.65 6.0 L25.9 9.9 Q20.35 14.65 13.2 16.7 L13.05 12.65 10.1 12.65 9.75 14.7 Q3.7 14.5 0.0 9.25 L1.7 6.0 2.3 0.0 Q13.05 1.35 23.8 0.5 L24.65 6.0" fill="#ffcc00" fill-rule="evenodd" stroke="none"/>
    </g>
    <g id="shape22" transform="matrix(1.0, 0.0, 0.0, 1.0, 1.8, 0.9)">
      <path d="M23.3 3.25 L23.75 6.0 25.0 9.9 Q19.45 14.65 12.3 16.7 L12.15 12.65 9.2 12.65 8.85 14.7 Q2.8 14.5 -0.9 9.25 L0.8 6.0 1.1 3.0 1.4 0.0 Q12.15 1.35 22.9 0.5 L23.3 3.25 Q12.0 3.6 1.1 3.0 M12.15 12.65 L12.15 6.0 0.8 6.0 M23.75 6.0 L12.15 6.0" fill="none" stroke="#000000" stroke-linecap="round" stroke-linejoin="round" stroke-width="1.8"/>
    </g>
    <g id="sprite24" transform="matrix(1.0, 0.0, 0.0, 1.0, 0.75, 0.75)">
      <use ffdec:characterId="56" height="10.4" transform="matrix(1.0, 0.0, 0.0, 1.0, 8.5, 2.8)" width="26.2" xlink:href="#shape23"/>
      <use ffdec:characterId="207" height="16.75" id="mc201" transform="matrix(1.0, 0.0, 0.0, 1.0, 5.65, 0.15)" width="30.75" xlink:href="#sprite25"/>
      <use ffdec:characterId="208" height="16.35" id="mc202" transform="matrix(1.0, 0.0, 0.0, 1.0, 2.5, 0.0)" width="25.3" xlink:href="#sprite26"/>
      <use ffdec:characterId="209" height="16.0" id="mc203" transform="matrix(1.0, 0.0, 0.0, 1.0, 0.0, 2.65)" width="34.45" xlink:href="#sprite27"/>
      <use ffdec:characterId="210" height="20.15" transform="matrix(1.0, 0.0, 0.0, 1.0, -0.75, -0.75)" width="38.05" xlink:href="#shape27"/>
    </g>
    <g id="shape23" transform="matrix(1.0, 0.0, 0.0, 1.0, -8.5, -2.8)">
      <path d="M33.45 4.55 Q34.35 4.7 34.6 5.35 L34.7 5.8 34.7 9.5 Q34.45 10.6 33.25 10.95 L30.1 11.45 Q28.9 11.6 28.7 10.35 L28.75 3.65 33.45 4.55 M15.05 4.05 Q16.4 4.35 16.45 5.7 L16.45 10.6 Q16.15 12.05 14.55 12.55 L10.35 13.2 Q8.75 13.4 8.5 11.75 L8.55 2.8 14.8 4.0 15.05 4.05" fill="#ccffff" fill-rule="evenodd" stroke="none"/>
    </g>
    <g id="sprite25" transform="matrix(1.0, 0.0, 0.0, 1.0, 0.0, 0.0)">
      <use ffdec:characterId="57" height="16.75" transform="matrix(1.0, 0.0, 0.0, 1.0, 0.0, 0.0)" width="30.75" xlink:href="#shape24"/>
    </g>
    <g id="shape24" transform="matrix(1.0, 0.0, 0.0, 1.0, 0.0, 0.0)">
      <path d="M30.55 10.45 Q30.5 11.6 29.5 12.2 L29.3 12.25 24.25 13.9 Q22.2 14.35 21.5 13.6 21.05 13.1 21.1 12.15 L21.1 11.9 20.95 3.45 Q20.8 2.0 22.15 1.6 L22.2 1.6 22.3 1.6 Q23.15 1.4 24.5 1.6 30.95 2.35 30.75 5.35 L30.55 10.15 30.55 10.45 M10.8 10.45 L10.8 5.55 Q10.75 4.2 9.4 3.9 L9.15 3.85 2.9 2.65 2.85 11.6 Q3.1 13.25 4.7 13.05 L8.9 12.4 Q10.5 11.9 10.8 10.45 M12.95 3.9 L13.1 5.15 13.0 7.75 13.05 6.9 16.8 6.9 16.95 10.6 13.25 11.35 12.8 11.35 12.8 11.55 12.8 11.9 Q12.75 13.45 11.4 14.25 L11.15 14.35 4.4 16.5 Q1.7 17.15 0.75 16.1 0.15 15.45 0.25 14.2 L0.25 13.85 0.0 2.6 Q-0.2 0.65 1.6 0.15 L1.85 0.1 4.75 0.15 Q11.95 0.95 12.95 3.9 M29.05 5.65 L28.95 5.2 Q28.7 4.55 27.8 4.4 L23.1 3.5 23.05 10.2 Q23.25 11.45 24.45 11.3 L27.6 10.8 Q28.8 10.45 29.05 9.35 L29.05 5.65" fill="#999999" fill-rule="evenodd" stroke="none"/>
    </g>
    <g id="sprite26" transform="matrix(1.0, 0.0, 0.0, 1.0, 0.0, 0.0)">
      <use ffdec:characterId="59" height="16.35" transform="matrix(1.0, 0.0, 0.0, 1.0, 0.0, 0.0)" width="25.3" xlink:href="#shape25"/>
    </g>
    <g id="shape25" transform="matrix(1.0, 0.0, 0.0, 1.0, 0.0, 0.0)">
      <path d="M23.65 1.55 L24.45 1.6 25.3 1.75 Q23.95 2.15 24.1 3.6 L24.25 12.05 24.25 12.3 Q24.2 13.25 24.65 13.75 22.45 14.1 21.9 12.55 L21.75 3.7 21.75 3.55 Q21.55 1.75 23.2 1.55 L23.65 1.55 M3.15 2.75 L3.4 14.0 3.4 14.35 Q3.3 15.6 3.9 16.25 1.0 16.75 0.25 14.7 L0.05 2.85 0.05 2.65 Q-0.35 -0.9 4.75 0.3 2.95 0.8 3.15 2.75" fill="#666666" fill-rule="evenodd" stroke="none"/>
    </g>
    <g id="sprite27" transform="matrix(1.0, 0.0, 0.0, 1.0, 0.0, 0.0)">
      <use ffdec:characterId="61" height="16.0" transform="matrix(1.0, 0.0, 0.0, 1.0, 0.0, 0.0)" width="34.45" xlink:href="#shape26"/>
    </g>
    <g id="shape26" transform="matrix(1.0, 0.0, 0.0, 1.0, 0.0, 0.0)">
      <path d="M34.45 10.2 Q34.35 12.45 29.35 13.1 24.8 13.75 22.95 11.2 L22.7 10.8 22.35 2.35 23.9 0.9 24.25 0.9 24.25 1.05 24.4 9.9 Q24.95 11.45 27.15 11.1 27.85 11.85 29.9 11.4 L34.4 9.95 34.45 10.2 M0.0 1.95 L2.05 0.0 2.55 0.0 2.55 0.2 2.75 12.05 Q3.5 14.1 6.4 13.6 7.35 14.65 10.05 14.0 L16.05 12.1 16.15 12.4 Q16.0 15.0 11.2 16.0 L3.95 16.0 Q1.95 15.35 0.8 13.75 L0.5 13.25 0.0 1.95" fill="#333333" fill-rule="evenodd" stroke="none"/>
    </g>
    <g id="shape27" transform="matrix(1.0, 0.0, 0.0, 1.0, 0.75, 0.75)">
      <path d="M23.9 3.55 L24.25 3.55 M34.4 12.6 L34.45 12.85 M2.05 2.65 L2.55 2.65 M16.8 14.5 L16.05 14.75 16.15 15.05" fill="none" stroke="#000000" stroke-linecap="round" stroke-linejoin="round" stroke-width="1.5"/>
      <path d="M25.7 1.55 L26.15 1.55" fill="none" stroke="#000000" stroke-linecap="round" stroke-linejoin="round" stroke-width="1.8"/>
      <path d="M26.15 1.55 L26.95 1.6 27.85 1.75 27.95 1.75 Q28.8 1.55 30.15 1.75 36.6 2.5 36.4 5.5 L36.2 10.3 36.2 10.6 Q36.15 11.75 35.15 12.35 L34.95 12.4 34.4 12.6 M24.25 3.55 Q24.05 1.75 25.7 1.55 M33.25 10.95 L30.1 11.45 Q28.9 11.6 28.7 10.35 L28.75 3.65 33.45 4.55 Q34.35 4.7 34.6 5.35 L34.7 5.8 34.7 9.5 Q34.45 10.6 33.25 10.95 M27.15 13.75 Q26.7 13.25 26.75 12.3 L26.75 12.05 26.6 3.6 Q26.45 2.15 27.8 1.75 L27.85 1.75 M22.6 10.8 L19.05 11.5 M15.05 4.05 Q16.4 4.35 16.45 5.7 L16.45 10.6 Q16.15 12.05 14.55 12.55 L10.35 13.2 Q8.75 13.4 8.5 11.75 L8.55 2.8 14.8 4.0 15.05 4.05 M18.7 7.05 L21.7 7.05 M22.25 8.9 L19.25 9.25" fill="none" stroke="#000000" stroke-linecap="round" stroke-linejoin="round" stroke-width="1.8"/>
      <path d="M34.4 12.6 L29.9 14.05 Q27.85 14.5 27.15 13.75 24.95 14.1 24.4 12.55 L24.25 3.55 M22.6 10.8 L22.35 5.0 23.9 3.55 M34.45 12.85 Q34.35 15.1 29.35 15.75 24.8 16.4 22.95 13.85 L22.7 13.45 22.6 10.8 M16.05 14.75 L10.05 16.65 Q7.35 17.3 6.4 16.25 3.5 16.75 2.75 14.7 L2.55 2.85 Q2.15 -0.9 7.25 0.3 L7.5 0.25 10.4 0.3 Q17.6 1.1 18.6 4.05 L18.75 5.3 18.7 7.05 18.45 11.7 18.45 12.05 Q18.4 13.6 17.05 14.4 L16.8 14.5 M6.4 16.25 Q5.8 15.6 5.9 14.35 L5.9 14.0 5.65 2.75 Q5.45 0.8 7.25 0.3 M16.15 15.05 Q16.0 17.65 11.2 18.65 L3.95 18.65 Q1.95 18.0 0.8 16.4 L0.5 15.9 0.0 4.6 2.05 2.65" fill="none" stroke="#000000" stroke-linecap="round" stroke-linejoin="round" stroke-width="1.5"/>
    </g>
    <g id="sprite29" transform="matrix(1.0, 0.0, 0.0, 1.0, 0.9, 0.9)">
      <use ffdec:characterId="169" height="66.3" id="mc200" transform="matrix(1.0, 0.0, 0.0, 1.0, 6.8, 9.25)" width="63.0" xlink:href="#sprite30"/>
      <use ffdec:characterId="171" height="53.85" id="mc100" transform="matrix(1.0, 0.0, 0.0, 1.0, 16.75, 18.6)" width="50.35" xlink:href="#sprite33"/>
      <use ffdec:characterId="9" height="79.3" transform="matrix(1.0, 0.0, 0.0, 1.0, -0.9, -0.9)" width="74.0" xlink:href="#shape30"/>
    </g>
    <g id="sprite30" transform="matrix(1.0, 0.0, 0.0, 1.0, 0.0, 0.0)">
      <use ffdec:characterId="168" height="66.3" id="mc000" transform="matrix(1.0, 0.0, 0.0, 1.0, 0.0, 0.0)" width="63.0" xlink:href="#sprite31"/>
    </g>
    <g id="sprite31" transform="matrix(1.0, 0.0, 0.0, 1.0, 0.0, 0.0)">
      <use ffdec:characterId="167" height="66.3" id="mc000" transform="matrix(1.0, 0.0, 0.0, 1.0, 0.0, 0.0)" width="63.0" xlink:href="#sprite32"/>
    </g>
    <g id="sprite32" transform="matrix(1.0, 0.0, 0.0, 1.0, 0.0, 0.0)">
      <use ffdec:characterId="1" height="66.3" transform="matrix(1.0, 0.0, 0.0, 1.0, 0.0, 0.0)" width="63.0" xlink:href="#shape28"/>
    </g>
    <g id="shape28" transform="matrix(1.0, 0.0, 0.0, 1.0, 0.0, 0.0)">
      <path d="M60.3 9.35 L48.15 9.55 51.45 0.8 63.0 0.0 60.3 9.35 M11.2 50.8 L9.95 63.2 0.0 66.3 2.35 55.3 11.2 50.8" fill="#00cc99" fill-rule="evenodd" stroke="none"/>
    </g>
    <g id="sprite33" transform="matrix(1.0, 0.0, 0.0, 1.0, 0.0, 0.0)">
      <use ffdec:characterId="170" height="53.85" id="mc000" transform="matrix(1.0, 0.0, 0.0, 1.0, 0.0, 0.0)" width="50.35" xlink:href="#sprite34"/>
    </g>
    <g id="sprite34" transform="matrix(1.0, 0.0, 0.0, 1.0, 0.0, 0.0)">
      <use ffdec:characterId="6" height="53.85" transform="matrix(1.0, 0.0, 0.0, 1.0, 0.0, 0.0)" width="50.35" xlink:href="#shape29"/>
    </g>
    <g id="shape29" transform="matrix(1.0, 0.0, 0.0, 1.0, 0.0, 0.0)">
      <path d="M38.2 0.2 L50.35 0.0 Q44.35 19.8 36.1 40.2 18.3 47.9 0.0 53.85 L1.25 41.45 Q12.7 35.7 24.15 29.9 32.25 15.3 38.2 0.2" fill="#006666" fill-rule="evenodd" stroke="none"/>
    </g>
    <g id="shape30" transform="matrix(1.0, 0.0, 0.0, 1.0, 0.9, 0.9)">
      <path d="M58.25 10.05 L59.4 6.6 Q63.9 -0.95 72.2 0.15 L69.8 9.25 58.25 10.05 M9.15 64.55 L6.8 75.55 0.0 77.5 5.15 66.55 9.15 64.55" fill="#fafff5" fill-rule="evenodd" stroke="none"/>
      <path d="M54.95 18.8 Q49.0 33.9 40.9 48.5 L18.0 60.05 16.75 72.45 Q35.05 66.5 52.85 58.8 61.1 38.4 67.1 18.6 L54.95 18.8 58.25 10.05 59.4 6.6 Q63.9 -0.95 72.2 0.15 L69.8 9.25 67.1 18.6 M58.25 10.05 L69.8 9.25 M9.15 64.55 L6.8 75.55 16.75 72.45 M6.8 75.55 L0.0 77.5 5.15 66.55 9.15 64.55 18.0 60.05" fill="none" stroke="#000000" stroke-linecap="round" stroke-linejoin="round" stroke-width="1.8"/>
    </g>
    <g id="sprite35" transform="matrix(1.0, 0.0, 0.0, 1.0, 0.9, 0.9)">
      <use ffdec:characterId="537" height="8.1" id="mc100" transform="matrix(1.0, 0.0, 0.0, 1.0, 0.0, 0.0)" width="8.1" xlink:href="#sprite36"/>
      <use ffdec:characterId="538" height="9.9" transform="matrix(1.0, 0.0, 0.0, 1.0, -0.9, -0.9)" width="9.9" xlink:href="#shape32"/>
    </g>
    <g id="sprite36" transform="matrix(1.0, 0.0, 0.0, 1.0, 0.0, 0.0)">
      <use ffdec:characterId="536" height="8.1" transform="matrix(1.0, 0.0, 0.0, 1.0, 0.0, 0.0)" width="8.1" xlink:href="#shape31"/>
    </g>
    <g id="shape31" transform="matrix(1.0, 0.0, 0.0, 1.0, 0.0, 0.0)">
      <path d="M1.15 6.9 Q0.0 5.75 0.0 4.05 0.0 2.35 1.15 1.15 2.35 0.0 4.05 0.0 5.75 0.0 6.9 1.15 8.1 2.35 8.1 4.05 8.1 5.75 6.9 6.9 5.75 8.1 4.05 8.1 2.35 8.1 1.15 6.9" fill="#c4a44a" fill-rule="evenodd" stroke="none"/>
    </g>
    <g id="shape32" transform="matrix(1.0, 0.0, 0.0, 1.0, 0.9, 0.9)">
      <path d="M1.15 6.9 Q0.0 5.75 0.0 4.05 0.0 2.35 1.15 1.15 2.35 0.0 4.05 0.0 5.75 0.0 6.9 1.15 8.1 2.35 8.1 4.05 8.1 5.75 6.9 6.9 5.75 8.1 4.05 8.1 2.35 8.1 1.15 6.9 Z" fill="none" stroke="#000000" stroke-linecap="round" stroke-linejoin="round" stroke-width="1.8"/>
    </g>
    <g id="morphshape0" transform="matrix(1.0, 0.0, 0.0, 1.0, -4.35, 46.55)">
      <path d="M10.3 -40.95 Q11.6 -37.95 14.3 -39.5" fill="none" stroke="#000000" stroke-linecap="round" stroke-linejoin="round" stroke-width="1.8"/>
    </g>
    <g id="sprite37" transform="matrix(1.0, 0.0, 0.0, 1.0, 7.6, 5.45)">
      <use ffdec:characterId="1124" height="12.1" transform="matrix(1.0, 0.0, 0.0, 1.0, -7.6, -5.45)" width="17.55" xlink:href="#shape33"/>
    </g>
    <g id="shape33" transform="matrix(1.0, 0.0, 0.0, 1.0, 7.6, 5.45)">
      <path d="M4.55 -3.05 Q5.15 -2.7 5.35 -2.0 L5.45 -1.45 6.2 -1.15 Q7.0 -0.65 7.3 0.25 7.5 -0.1 7.95 -0.25 L8.85 -0.1 9.45 0.6 9.3 1.5 8.6 2.1 8.45 2.1 8.9 2.85 Q9.0 3.5 8.7 4.1 L7.7 4.85 6.9 4.9 6.7 5.25 Q6.15 6.15 5.25 6.4 L3.35 6.15 2.5 5.35 1.4 6.15 -0.25 5.95 Q-0.95 5.55 -1.15 4.8 L-1.6 5.0 -2.85 4.85 -3.4 4.3 -3.6 3.8 Q-3.8 3.25 -3.55 2.7 L-3.5 2.55 Q-3.15 1.95 -2.45 1.8 L-2.25 1.75 -3.85 1.0 Q-5.15 0.25 -5.5 -1.15 -5.85 -2.55 -5.1 -3.7 -4.45 -5.0 -3.05 -5.35 -1.7 -5.7 -0.4 -4.95 L0.55 -4.15 Q0.85 -4.6 1.45 -4.75 L2.8 -4.55 Q3.35 -4.25 3.55 -3.55 L3.6 -3.3 4.55 -3.05" fill="#8d4900" fill-opacity="0.0" fill-rule="evenodd" stroke="none"/>
      <path d="M7.0 -1.75 Q7.65 -1.75 8.15 -1.25 L8.55 -0.55 8.85 -0.6 Q9.3 -0.6 9.65 -0.25 L9.95 0.5 9.65 1.25 Q9.3 1.6 8.85 1.6 L8.55 1.55 8.55 1.7 8.4 2.2 7.8 2.45 7.3 2.2 7.05 1.7 7.05 1.5 7.0 1.5 Q6.35 1.5 5.85 1.05 5.35 0.6 5.4 -0.1 5.35 -0.75 5.85 -1.25 6.35 -1.75 7.0 -1.75 M6.85 4.45 Q7.15 4.45 7.4 4.7 L7.65 5.25 7.4 5.8 6.85 6.05 6.65 6.0 6.65 6.1 6.5 6.5 6.1 6.65 5.7 6.5 5.55 6.1 5.55 6.0 5.5 6.0 Q5.05 6.0 4.7 5.65 4.3 5.35 4.35 4.8 4.3 4.35 4.7 4.0 5.05 3.6 5.5 3.65 5.95 3.6 6.35 4.0 L6.6 4.5 6.85 4.45 M-4.55 2.45 L-5.1 2.7 -5.3 2.65 -5.3 2.75 Q-5.3 3.0 -5.45 3.15 L-5.85 3.3 -6.25 3.15 -6.4 2.75 -6.4 2.65 -6.45 2.65 Q-6.9 2.65 -7.25 2.3 L-7.6 1.45 Q-7.65 1.0 -7.25 0.65 -6.9 0.25 -6.45 0.3 -6.0 0.25 -5.6 0.65 -5.4 0.85 -5.35 1.15 L-5.1 1.1 -4.55 1.35 Q-4.3 1.6 -4.3 1.9 -4.3 2.25 -4.55 2.45" fill="#893900" fill-opacity="0.0" fill-rule="evenodd" stroke="none"/>
    </g>
  </defs>
</svg>
