<?xml version="1.0" encoding="UTF-8" standalone="no"?>
<svg xmlns:ffdec="https://www.free-decompiler.com/flash" xmlns:xlink="http://www.w3.org/1999/xlink" ffdec:objectType="frame" height="157.75px" width="178.0px" xmlns="http://www.w3.org/2000/svg">
  <g transform="matrix(1.0, 0.0, 0.0, 1.0, 82.3, 138.3)">
    <use ffdec:characterId="173" height="18.85" id="mc31280" transform="matrix(0.9697, 0.2386, -0.2386, 0.9697, -10.0837, -19.7433)" width="10.9" xlink:href="#sprite0"/>
    <use ffdec:characterId="173" height="18.85" id="mc30280" transform="matrix(0.9943, 0.1004, -0.1004, 0.9943, 3.8817, -18.0428)" width="10.9" xlink:href="#sprite0"/>
    <use ffdec:characterId="178" height="18.55" id="mc29280" transform="matrix(0.9716, 0.1944, -0.1944, 0.9716, -17.4168, -34.126)" width="15.75" xlink:href="#sprite1"/>
    <use ffdec:characterId="178" height="18.55" id="mc28280" transform="matrix(-0.9916, 0.009, 0.009, 0.9916, 27.3543, -29.0969)" width="15.75" xlink:href="#sprite1"/>
    <use ffdec:characterId="181" height="20.65" id="mc27280" transform="matrix(0.9964, 0.0788, -0.0788, 0.9964, -7.428, -40.3847)" width="21.15" xlink:href="#sprite4"/>
    <use ffdec:characterId="185" height="22.9" id="mc26280" transform="matrix(0.9989, -0.0271, 0.0271, 0.9989, -8.4048, -41.9675)" width="23.0" xlink:href="#sprite7"/>
    <use ffdec:characterId="186" height="21.35" id="mc25280" transform="matrix(0.9993, -0.0045, 0.0045, 0.9993, -10.25, -34.25)" width="23.6" xlink:href="#sprite10"/>
    <use ffdec:characterId="189" height="10.05" id="mc24280" transform="matrix(0.9989, -0.0271, 0.0271, 0.9989, -10.6734, -33.7247)" width="12.85" xlink:href="#sprite11"/>
    <use ffdec:characterId="190" height="10.05" id="mc23280" transform="matrix(0.9989, -0.0271, 0.0271, 0.9989, 4.1266, -34.5247)" width="12.85" xlink:href="#sprite14"/>
    <use ffdec:characterId="148" height="53.05" id="mc21280" transform="matrix(-0.891, -0.4453, -0.4453, 0.891, 35.8431, -70.8799)" width="39.85" xlink:href="#sprite15"/>
    <use ffdec:characterId="1081" height="6.35" transform="matrix(0.9993, 0.0305, -0.0305, 0.9993, -11.5766, -60.9724)" width="10.05" xlink:href="#shape14"/>
    <use ffdec:characterId="154" height="69.75" id="mc12280" transform="matrix(-0.891, -0.4453, -0.4453, 0.891, 61.3027, -75.3011)" width="70.95" xlink:href="#sprite17"/>
    <use ffdec:characterId="154" height="69.75" id="mc11280" transform="matrix(-0.891, -0.4453, -0.4453, 0.891, 61.3027, -75.3011)" width="70.95" xlink:href="#sprite17"/>
    <use ffdec:characterId="206" height="18.5" id="mc9280" transform="matrix(0.9967, 0.0748, -0.0748, 0.9967, -12.0268, -22.9818)" width="27.7" xlink:href="#sprite19"/>
    <use ffdec:characterId="163" height="21.9" id="hide_hat8" transform="matrix(-0.891, -0.4453, -0.4453, 0.891, 23.95, -81.8029)" width="26.7" xlink:href="#sprite22"/>
    <use ffdec:characterId="1057" height="0.0" id="hat" transform="matrix(1.0, 0.0, 0.0, 1.0, 0.0, 0.0)" width="0.0" xlink:href="#sprite26"/>
    <use ffdec:characterId="172" height="79.3" id="mc6280" transform="matrix(-0.9026, 0.4084, -0.4084, -0.9026, 80.9299, -31.4052)" width="74.0" xlink:href="#sprite27"/>
    <use ffdec:characterId="539" height="9.9" id="mc5280" transform="matrix(0.9584, -0.2668, 0.2668, 0.9584, 16.7473, -18.5224)" width="9.9" xlink:href="#sprite33"/>
  </g>
  <defs>
    <g id="sprite0" transform="matrix(1.0, 0.0, 0.0, 1.0, 4.95, 9.5)">
      <use ffdec:characterId="18" height="18.85" transform="matrix(1.0, 0.0, 0.0, 1.0, -4.95, -9.5)" width="10.9" xlink:href="#shape0"/>
    </g>
    <g id="shape0" transform="matrix(1.0, 0.0, 0.0, 1.0, 4.95, 9.5)">
      <path d="M5.05 5.55 L5.05 5.7 Q5.15 6.65 3.9 7.45 2.7 8.25 0.95 8.4 -0.8 8.55 -2.15 7.95 -3.45 7.45 -3.55 6.5 L-3.55 6.35 -3.5 6.35 4.7 5.5 5.05 5.55" fill="#000000" fill-rule="evenodd" stroke="none"/>
      <path d="M-3.55 6.1 L-3.65 3.85 -4.05 -6.3 Q-4.1 -7.15 -3.15 -7.75 -2.1 -8.4 -0.55 -8.55 L2.1 -8.25 Q3.15 -7.75 3.3 -7.0 L3.35 -6.85 3.35 -6.65 4.7 3.05 5.05 5.45 4.7 5.5 -3.5 6.35 -3.55 6.1 M4.7 3.05 L-3.65 3.85 4.7 3.05" fill="#ffffff" fill-rule="evenodd" stroke="none"/>
      <path d="M-3.55 6.1 L-3.65 3.85 -4.05 -6.3 Q-4.1 -7.15 -3.15 -7.75 -2.1 -8.4 -0.55 -8.55 L2.1 -8.25 Q3.15 -7.75 3.3 -7.0 L3.35 -6.85 3.35 -6.65 4.7 3.05 5.05 5.45 5.05 5.55 5.05 5.7 Q5.15 6.65 3.9 7.45 2.7 8.25 0.95 8.4 -0.8 8.55 -2.15 7.95 -3.45 7.45 -3.55 6.5 L-3.55 6.35 -3.55 6.1 M-3.5 6.35 L4.7 5.5 M-3.55 6.35 L-3.5 6.35 M-3.65 3.85 L4.7 3.05" fill="none" stroke="#000000" stroke-linecap="round" stroke-linejoin="round" stroke-width="1.8"/>
    </g>
    <g id="sprite1" transform="matrix(1.0, 0.0, 0.0, 1.0, 7.85, 8.8)">
      <use ffdec:characterId="174" height="6.5" id="mc400" transform="matrix(1.0, 0.0, 0.0, 1.0, -5.35, 2.35)" width="7.55" xlink:href="#sprite2"/>
      <use ffdec:characterId="175" height="16.1" transform="matrix(1.0, 0.0, 0.0, 1.0, -6.25, -6.35)" width="14.15" xlink:href="#shape2"/>
      <use ffdec:characterId="176" height="15.5" id="mc200" transform="matrix(1.0, 0.0, 0.0, 1.0, -6.95, -7.9)" width="13.95" xlink:href="#sprite3"/>
      <use ffdec:characterId="177" height="17.3" transform="matrix(1.0, 0.0, 0.0, 1.0, -7.85, -8.8)" width="15.75" xlink:href="#shape4"/>
    </g>
    <g id="sprite2" transform="matrix(1.0, 0.0, 0.0, 1.0, 0.0, 0.0)">
      <use ffdec:characterId="12" height="6.5" transform="matrix(1.0, 0.0, 0.0, 1.0, 0.0, 0.0)" width="7.55" xlink:href="#shape1"/>
    </g>
    <g id="shape1" transform="matrix(1.0, 0.0, 0.0, 1.0, 0.0, 0.0)">
      <path d="M6.45 2.8 L7.55 2.7 7.1 3.95 Q6.5 5.65 5.2 6.2 3.75 6.8 2.3 6.2 0.8 5.55 0.2 4.15 -0.3 2.8 0.5 1.2 L1.1 0.0 Q2.7 2.0 4.75 2.55 L6.3 2.9 6.45 2.8" fill="#b59155" fill-rule="evenodd" stroke="none"/>
    </g>
    <g id="shape2" transform="matrix(1.0, 0.0, 0.0, 1.0, 6.25, 6.35)">
      <path d="M6.8 -4.7 L6.7 -4.4 7.0 -5.45 6.8 -4.7" fill="#ffffff" fill-rule="evenodd" stroke="none"/>
      <path d="M6.8 -4.7 L7.0 -5.45 6.7 -4.4 6.8 -4.7 3.75 2.45 2.2 5.05 1.75 6.3 Q1.15 8.0 -0.15 8.55 -1.6 9.15 -3.05 8.55 -4.55 7.9 -5.15 6.5 -5.65 5.15 -4.85 3.55 L-4.25 2.35 -4.1 1.95 M2.2 5.05 L1.1 5.15 M-2.55 -1.8 L-2.7 -1.55 M-0.6 4.9 Q-2.65 4.35 -4.25 2.35" fill="none" stroke="#000000" stroke-linecap="round" stroke-linejoin="round" stroke-width="1.8"/>
    </g>
    <g id="sprite3" transform="matrix(1.0, 0.0, 0.0, 1.0, 0.0, 0.0)">
      <use ffdec:characterId="14" height="15.5" transform="matrix(1.0, 0.0, 0.0, 1.0, 0.0, 0.0)" width="13.95" xlink:href="#shape3"/>
    </g>
    <g id="shape3" transform="matrix(1.0, 0.0, 0.0, 1.0, 0.0, 0.0)">
      <path d="M10.4 10.55 L10.7 10.75 8.8 15.5 8.75 15.5 8.5 15.4 7.2 13.05 4.05 14.4 3.95 14.15 3.6 10.9 3.35 10.55 0.0 10.55 4.3 6.05 4.4 6.15 5.05 5.25 Q10.05 0.45 11.25 0.15 12.45 -0.25 13.25 0.4 14.1 1.05 13.95 2.25 L13.95 2.45 13.65 3.5 10.4 10.55" fill="#ffffff" fill-rule="evenodd" stroke="none"/>
    </g>
    <g id="shape4" transform="matrix(1.0, 0.0, 0.0, 1.0, 7.85, 8.8)">
      <path d="M-2.65 -1.85 L-6.95 2.65 -3.4 2.65 -3.0 6.25 M1.85 7.6 L3.75 2.85 M-2.9 6.5 L0.25 5.15 1.55 7.5 M3.35 2.6 L-2.45 -1.7" fill="none" stroke="#000000" stroke-linecap="round" stroke-linejoin="round" stroke-width="1.8"/>
      <path d="M7.0 -5.65 Q7.15 -6.85 6.3 -7.5 5.5 -8.15 4.3 -7.75 3.1 -7.45 -1.9 -2.65 M6.7 -4.4 L3.5 2.9" fill="none" stroke="#000000" stroke-linecap="round" stroke-linejoin="round" stroke-width="1.8"/>
    </g>
    <g id="sprite4" transform="matrix(1.0, 0.0, 0.0, 1.0, 0.05, 5.35)">
      <use ffdec:characterId="81" height="20.65" transform="matrix(1.0, 0.0, 0.0, 1.0, -0.05, -5.35)" width="21.15" xlink:href="#shape5"/>
      <use ffdec:characterId="180" height="18.85" id="mc001" transform="matrix(1.0, 0.0, 0.0, 1.0, 0.85, -4.45)" width="19.35" xlink:href="#sprite5"/>
    </g>
    <g id="shape5" transform="matrix(1.0, 0.0, 0.0, 1.0, 0.05, 5.35)">
      <path d="M18.55 -4.45 L20.2 13.7 14.15 14.2 8.6 14.4 0.85 14.15 1.7 -3.95 18.55 -4.45 Z" fill="none" stroke="#000000" stroke-linecap="round" stroke-linejoin="round" stroke-width="1.8"/>
    </g>
    <g id="sprite5" transform="matrix(1.0, 0.0, 0.0, 1.0, 0.0, 0.0)">
      <use ffdec:characterId="179" height="18.85" id="mc000" transform="matrix(1.0, 0.0, 0.0, 1.0, 0.0, 0.0)" width="19.35" xlink:href="#sprite6"/>
    </g>
    <g id="sprite6" transform="matrix(1.0, 0.0, 0.0, 1.0, 0.0, 0.0)">
      <use ffdec:characterId="82" height="18.85" transform="matrix(1.0, 0.0, 0.0, 1.0, 0.0, 0.0)" width="19.35" xlink:href="#shape6"/>
    </g>
    <g id="shape6" transform="matrix(1.0, 0.0, 0.0, 1.0, 0.0, 0.0)">
      <path d="M19.35 18.15 L13.3 18.65 7.75 18.85 0.0 18.6 0.85 0.5 17.7 0.0 19.35 18.15" fill="#b59155" fill-rule="evenodd" stroke="none"/>
    </g>
    <g id="sprite7" transform="matrix(1.0, 0.0, 0.0, 1.0, 0.9, 7.6)">
      <use ffdec:characterId="183" height="21.1" id="mc100" transform="matrix(1.0, 0.0, 0.0, 1.0, 0.0, -6.7)" width="21.2" xlink:href="#sprite8"/>
      <use ffdec:characterId="184" height="22.9" transform="matrix(1.0, 0.0, 0.0, 1.0, -0.9, -7.6)" width="23.0" xlink:href="#shape8"/>
    </g>
    <g id="sprite8" transform="matrix(1.0, 0.0, 0.0, 1.0, 0.0, 0.0)">
      <use ffdec:characterId="182" height="21.1" id="mc000" transform="matrix(1.0, 0.0, 0.0, 1.0, 0.0, 0.0)" width="21.2" xlink:href="#sprite9"/>
    </g>
    <g id="sprite9" transform="matrix(1.0, 0.0, 0.0, 1.0, 0.0, 0.0)">
      <use ffdec:characterId="86" height="21.1" transform="matrix(1.0, 0.0, 0.0, 1.0, 0.0, 0.0)" width="21.2" xlink:href="#shape7"/>
    </g>
    <g id="shape7" transform="matrix(1.0, 0.0, 0.0, 1.0, 0.0, 0.0)">
      <path d="M21.2 20.3 L14.55 20.9 13.7 0.2 19.35 0.0 21.2 20.3 M8.5 21.1 L0.0 20.8 0.95 0.6 8.1 0.6 8.5 21.1" fill="#ffffff" fill-rule="evenodd" stroke="none"/>
    </g>
    <g id="shape8" transform="matrix(1.0, 0.0, 0.0, 1.0, 0.9, 7.6)">
      <path d="M19.35 -6.7 L21.2 13.6 14.55 14.2 13.7 -6.5 19.35 -6.7 M8.5 14.4 L0.0 14.1 0.95 -6.1 8.1 -6.1 8.5 13.65" fill="none" stroke="#000000" stroke-linecap="round" stroke-linejoin="round" stroke-width="1.8"/>
    </g>
    <g id="sprite10" transform="matrix(1.0, 0.0, 0.0, 1.0, 0.0, 0.0)">
      <use ffdec:characterId="33" height="21.35" transform="matrix(1.0, 0.0, 0.0, 1.0, 0.0, 0.0)" width="23.6" xlink:href="#shape9"/>
    </g>
    <g id="shape9" transform="matrix(1.0, 0.0, 0.0, 1.0, 0.0, 0.0)">
      <path d="M22.2 0.0 L23.6 1.6 23.3 2.05 Q11.6 13.1 0.3 21.35 L0.0 21.3 0.7 18.35 22.2 0.0" fill="#000000" fill-rule="evenodd" stroke="none"/>
    </g>
    <g id="sprite11" transform="matrix(1.0, 0.0, 0.0, 1.0, 0.9, 0.9)">
      <use ffdec:characterId="188" height="10.05" id="mc000" transform="matrix(1.0, 0.0, 0.0, 1.0, -0.9, -0.9)" width="12.85" xlink:href="#sprite12"/>
    </g>
    <g id="sprite12" transform="matrix(1.0, 0.0, 0.0, 1.0, 0.9, 0.9)">
      <use ffdec:characterId="187" height="8.25" id="mc100" transform="matrix(1.0, 0.0, 0.0, 1.0, 0.0, 0.0)" width="11.05" xlink:href="#sprite13"/>
      <use ffdec:characterId="36" height="10.05" transform="matrix(1.0, 0.0, 0.0, 1.0, -0.9, -0.9)" width="12.85" xlink:href="#shape11"/>
    </g>
    <g id="sprite13" transform="matrix(1.0, 0.0, 0.0, 1.0, 0.0, 0.0)">
      <use ffdec:characterId="34" height="8.25" transform="matrix(1.0, 0.0, 0.0, 1.0, 0.0, 0.0)" width="11.05" xlink:href="#shape10"/>
    </g>
    <g id="shape10" transform="matrix(1.0, 0.0, 0.0, 1.0, 0.0, 0.0)">
      <path d="M7.5 5.75 L3.6 8.25 3.2 4.7 0.0 4.7 3.35 0.0 10.1 1.1 11.05 8.25 7.5 5.75" fill="#ffffff" fill-rule="evenodd" stroke="none"/>
    </g>
    <g id="shape11" transform="matrix(1.0, 0.0, 0.0, 1.0, 0.9, 0.9)">
      <path d="M10.1 1.1 L11.05 8.25 7.5 5.75 3.6 8.25 3.2 4.7 0.0 4.7 3.35 0.0 10.1 1.1 Z" fill="none" stroke="#000000" stroke-linecap="round" stroke-linejoin="round" stroke-width="1.8"/>
    </g>
    <g id="sprite14" transform="matrix(1.0, 0.0, 0.0, 1.0, 0.9, 0.9)">
      <use ffdec:characterId="188" height="10.05" id="mc000" transform="matrix(-1.0, 0.0, 0.0, 1.0, 11.95, -0.9)" width="12.85" xlink:href="#sprite12"/>
    </g>
    <g id="sprite15" transform="matrix(1.0, 0.0, 0.0, 1.0, 1.35, 1.55)">
      <use ffdec:characterId="146" height="51.25" id="mc100" transform="matrix(1.0, 0.0, 0.0, 1.0, -0.45, -0.65)" width="38.05" xlink:href="#sprite16"/>
      <use ffdec:characterId="147" height="53.05" transform="matrix(1.0, 0.0, 0.0, 1.0, -1.35, -1.55)" width="39.85" xlink:href="#shape13"/>
    </g>
    <g id="sprite16" transform="matrix(1.0, 0.0, 0.0, 1.0, 0.0, 0.0)">
      <use ffdec:characterId="145" height="51.25" transform="matrix(1.0, 0.0, 0.0, 1.0, 0.0, 0.0)" width="38.05" xlink:href="#shape12"/>
    </g>
    <g id="shape12" transform="matrix(1.0, 0.0, 0.0, 1.0, 0.0, 0.0)">
      <path d="M35.9 36.15 Q38.25 39.75 36.85 42.7 L32.85 45.65 32.7 48.15 Q26.0 53.2 17.05 50.0 1.15 42.75 0.0 24.95 L19.5 0.0 37.35 15.2 Q39.3 26.15 35.9 36.15" fill="#c4a44a" fill-rule="evenodd" stroke="none"/>
    </g>
    <g id="shape13" transform="matrix(1.0, 0.0, 0.0, 1.0, 0.9, 0.9)">
      <path d="M32.85 45.65 L36.85 42.7 Q38.25 39.75 35.9 36.15 39.3 26.15 37.35 15.2 L19.5 0.0 0.0 24.95 Q1.15 42.75 17.05 50.0 26.0 53.2 32.7 48.15 L32.85 45.65 Z" fill="none" stroke="#000000" stroke-linecap="round" stroke-linejoin="round" stroke-width="1.8"/>
    </g>
    <g id="shape14" transform="matrix(1.0, 0.0, 0.0, 1.0, 0.75, 0.75)">
      <path d="M8.55 0.0 L0.0 3.2 Q4.1 2.85 7.6 4.85" fill="none" stroke="#000000" stroke-linecap="round" stroke-linejoin="round" stroke-width="1.5"/>
    </g>
    <g id="sprite17" transform="matrix(1.0, 0.0, 0.0, 1.0, 0.9, 0.9)">
      <use ffdec:characterId="152" height="66.7" id="mc100" transform="matrix(1.0, 0.0, 0.0, 1.0, 0.0, 0.0)" width="69.15" xlink:href="#sprite18"/>
      <use ffdec:characterId="153" height="69.75" transform="matrix(1.0, 0.0, 0.0, 1.0, -0.9, -0.9)" width="70.95" xlink:href="#shape16"/>
    </g>
    <g id="sprite18" transform="matrix(1.0, 0.0, 0.0, 1.0, 0.0, 0.0)">
      <use ffdec:characterId="151" height="66.7" transform="matrix(1.0, 0.0, 0.0, 1.0, 0.0, 0.0)" width="69.15" xlink:href="#shape15"/>
    </g>
    <g id="shape15" transform="matrix(1.0, 0.0, 0.0, 1.0, 0.0, 0.0)">
      <path d="M69.15 34.4 L63.1 32.15 65.5 40.95 Q59.85 38.7 55.1 31.1 L54.3 43.1 47.75 31.4 42.25 66.7 41.55 66.55 Q21.2 64.2 5.75 51.85 L9.85 49.95 Q3.8 48.2 0.0 41.5 L5.45 41.5 Q1.7 31.75 3.1 17.85 10.05 9.65 17.5 7.4 L24.3 0.0 23.75 3.95 30.3 0.3 29.5 4.15 Q48.4 6.85 57.05 16.15 L59.0 20.5 69.15 34.4" fill="#ff6600" fill-rule="evenodd" stroke="none"/>
    </g>
    <g id="shape16" transform="matrix(1.0, 0.0, 0.0, 1.0, 0.9, 0.9)">
      <path d="M24.3 39.0 L29.2 52.4 31.65 40.1 41.55 66.55 42.05 67.95 47.75 31.4 54.3 43.1 55.1 31.1 Q59.85 38.7 65.5 40.95 L63.1 32.15 Q61.2 25.85 59.0 20.5 L57.05 16.15 Q48.4 6.85 29.5 4.15 L28.1 3.95 M59.0 20.5 L69.15 34.4 63.1 32.15 M29.5 4.15 L30.3 0.3 23.75 3.95 24.3 0.0 17.5 7.4 Q10.0 10.25 3.55 17.95 1.7 31.75 5.45 41.5 L0.0 41.5 Q3.8 48.2 9.85 49.95 L5.75 51.85 Q21.2 64.2 41.55 66.55" fill="none" stroke="#000000" stroke-linecap="round" stroke-linejoin="round" stroke-width="1.8"/>
    </g>
    <g id="sprite19" transform="matrix(1.0, 0.0, 0.0, 1.0, 1.8, 0.9)">
      <use ffdec:characterId="205" height="18.5" id="mc000" transform="matrix(1.0, 0.0, 0.0, 1.0, -1.8, -0.9)" width="27.7" xlink:href="#sprite20"/>
    </g>
    <g id="sprite20" transform="matrix(1.0, 0.0, 0.0, 1.0, 1.8, 0.9)">
      <use ffdec:characterId="203" height="16.7" id="mc100" transform="matrix(1.0, 0.0, 0.0, 1.0, -0.9, 0.0)" width="25.9" xlink:href="#sprite21"/>
      <use ffdec:characterId="204" height="18.5" transform="matrix(1.0, 0.0, 0.0, 1.0, -1.8, -0.9)" width="27.7" xlink:href="#shape18"/>
    </g>
    <g id="sprite21" transform="matrix(1.0, 0.0, 0.0, 1.0, 0.0, 0.0)">
      <use ffdec:characterId="107" height="16.7" transform="matrix(1.0, 0.0, 0.0, 1.0, 0.0, 0.0)" width="25.9" xlink:href="#shape17"/>
    </g>
    <g id="shape17" transform="matrix(1.0, 0.0, 0.0, 1.0, 0.0, 0.0)">
      <path d="M24.65 6.0 L25.9 9.9 Q20.35 14.65 13.2 16.7 L13.05 12.65 10.1 12.65 9.75 14.7 Q3.7 14.5 0.0 9.25 L1.7 6.0 2.3 0.0 Q13.05 1.35 23.8 0.5 L24.65 6.0" fill="#ffcc00" fill-rule="evenodd" stroke="none"/>
    </g>
    <g id="shape18" transform="matrix(1.0, 0.0, 0.0, 1.0, 1.8, 0.9)">
      <path d="M23.3 3.25 L23.75 6.0 25.0 9.9 Q19.45 14.65 12.3 16.7 L12.15 12.65 9.2 12.65 8.85 14.7 Q2.8 14.5 -0.9 9.25 L0.8 6.0 1.1 3.0 1.4 0.0 Q12.15 1.35 22.9 0.5 L23.3 3.25 Q12.0 3.6 1.1 3.0 M12.15 12.65 L12.15 6.0 0.8 6.0 M23.75 6.0 L12.15 6.0" fill="none" stroke="#000000" stroke-linecap="round" stroke-linejoin="round" stroke-width="1.8"/>
    </g>
    <g id="sprite22" transform="matrix(1.0, 0.0, 0.0, 1.0, -8.15, 0.7)">
      <use ffdec:characterId="155" height="11.4" transform="matrix(1.0, 0.0, 0.0, 1.0, 15.3, 3.1)" width="17.6" xlink:href="#shape19"/>
      <use ffdec:characterId="157" height="18.35" id="mc201" transform="matrix(1.0, 0.0, 0.0, 1.0, 13.15, 0.2)" width="20.8" xlink:href="#sprite23"/>
      <use ffdec:characterId="159" height="17.9" id="mc202" transform="matrix(1.0, 0.0, 0.0, 1.0, 10.8, 0.05)" width="18.0" xlink:href="#sprite24"/>
      <use ffdec:characterId="161" height="17.5" id="mc203" transform="matrix(1.0, 0.0, 0.0, 1.0, 8.9, 2.95)" width="23.9" xlink:href="#sprite25"/>
      <use ffdec:characterId="162" height="21.9" transform="matrix(1.0, 0.0, 0.0, 1.0, 8.15, -0.7)" width="26.7" xlink:href="#shape23"/>
    </g>
    <g id="shape19" transform="matrix(1.0, 0.0, 0.0, 1.0, -15.3, -3.1)">
      <path d="M32.9 6.4 L32.9 10.45 Q32.8 11.65 32.05 12.05 L30.2 12.6 Q29.5 12.75 29.35 11.4 L29.35 4.05 32.15 5.05 Q32.7 5.2 32.85 5.9 L32.9 6.4 M21.35 11.65 Q21.1 13.25 19.9 13.8 L16.7 14.5 Q15.5 14.7 15.3 12.9 L15.35 3.1 20.1 4.45 20.25 4.5 Q21.3 4.8 21.35 6.3 L21.35 11.65" fill="#ccffff" fill-rule="evenodd" stroke="none"/>
    </g>
    <g id="sprite23" transform="matrix(1.0, 0.0, 0.0, 1.0, 0.0, 0.0)">
      <use ffdec:characterId="156" height="18.35" transform="matrix(1.0, 0.0, 0.0, 1.0, 0.0, 0.0)" width="20.8" xlink:href="#shape20"/>
    </g>
    <g id="shape20" transform="matrix(1.0, 0.0, 0.0, 1.0, 0.0, 0.0)">
      <path d="M20.65 11.45 Q20.6 12.7 20.05 13.35 L19.9 13.4 19.6 13.65 16.95 15.2 Q15.7 15.7 15.3 14.9 15.0 14.35 15.05 13.3 L15.05 13.05 14.95 3.8 Q14.9 2.2 15.65 1.75 L15.75 1.75 Q16.25 1.55 17.1 1.75 20.9 2.6 20.8 5.85 L20.65 11.1 20.65 11.45 M19.7 5.7 Q19.55 5.0 19.0 4.85 L16.2 3.85 16.2 11.2 Q16.35 12.55 17.05 12.4 L18.9 11.85 Q19.65 11.45 19.75 10.25 L19.75 6.2 19.7 5.7 M12.45 11.65 L10.15 12.45 9.7 12.45 9.7 12.65 9.7 13.05 Q9.65 14.75 8.65 15.6 L8.45 15.7 7.9 16.0 3.35 18.05 Q1.3 18.8 0.6 17.65 0.15 16.9 0.2 15.55 L0.2 15.15 0.0 2.85 Q-0.15 0.75 1.25 0.2 1.3 0.1 1.4 0.1 L3.6 0.2 Q9.05 1.05 9.8 4.3 L9.9 5.65 9.85 8.5 9.9 7.55 12.5 7.55 12.55 11.6 12.45 11.65 M8.2 6.1 Q8.15 4.6 7.1 4.3 L6.95 4.25 2.2 2.9 2.15 12.7 Q2.35 14.5 3.55 14.3 L6.75 13.6 Q7.95 13.05 8.2 11.45 L8.2 6.1" fill="#999999" fill-rule="evenodd" stroke="none"/>
    </g>
    <g id="sprite24" transform="matrix(1.0, 0.0, 0.0, 1.0, 0.0, 0.0)">
      <use ffdec:characterId="158" height="17.9" transform="matrix(1.0, 0.0, 0.0, 1.0, 0.0, 0.0)" width="18.0" xlink:href="#shape21"/>
    </g>
    <g id="shape21" transform="matrix(1.0, 0.0, 0.0, 1.0, 0.0, 0.0)">
      <path d="M17.5 1.75 L17.75 1.8 17.8 1.8 18.0 1.9 Q17.25 2.35 17.3 3.95 L17.4 13.2 17.4 13.45 Q17.35 14.5 17.65 15.05 16.35 15.45 16.0 13.75 L15.9 4.05 15.9 3.9 Q15.8 1.9 16.75 1.7 L17.05 1.7 17.5 1.75 M0.05 2.9 Q-0.3 -1.0 3.6 0.35 2.2 0.9 2.35 3.0 L2.55 15.3 2.55 15.7 Q2.5 17.05 2.95 17.8 0.75 18.35 0.2 16.1 L0.05 3.1 0.05 2.9" fill="#666666" fill-rule="evenodd" stroke="none"/>
    </g>
    <g id="sprite25" transform="matrix(1.0, 0.0, 0.0, 1.0, 0.0, 0.0)">
      <use ffdec:characterId="160" height="17.5" transform="matrix(1.0, 0.0, 0.0, 1.0, 0.0, 0.0)" width="23.9" xlink:href="#shape22"/>
    </g>
    <g id="shape22" transform="matrix(1.0, 0.0, 0.0, 1.0, 0.0, 0.0)">
      <path d="M23.9 11.15 Q23.8 13.6 20.85 14.35 18.15 15.05 17.05 12.25 L16.9 11.8 16.7 2.55 17.6 1.0 17.8 1.0 17.8 1.15 17.9 10.85 Q18.25 12.55 19.55 12.15 19.95 12.95 21.2 12.45 L23.85 10.9 23.9 11.15 M1.55 0.0 L1.95 0.0 1.95 0.2 2.1 13.2 Q2.65 15.45 4.85 14.9 5.55 16.05 7.6 15.3 L12.15 13.25 12.2 13.55 Q12.1 16.4 8.45 17.5 L3.0 17.5 Q1.45 16.8 0.6 15.05 L0.4 14.5 0.0 2.15 1.55 0.0" fill="#333333" fill-rule="evenodd" stroke="none"/>
    </g>
    <g id="shape23" transform="matrix(1.0, 0.0, 0.0, 1.0, -8.15, 0.7)">
      <path d="M25.6 5.5 L26.5 3.95 M21.6 15.9 L21.05 16.2 21.1 16.5 M32.75 13.85 L32.8 14.1 M10.45 2.95 L10.85 2.95" fill="none" stroke="#000000" stroke-linecap="round" stroke-linejoin="round" stroke-width="1.5"/>
      <path d="M27.55 1.75 L27.85 1.75 28.3 1.8 28.55 1.85 28.85 1.95 M33.05 13.6 L32.75 13.85" fill="none" stroke="#000000" stroke-linecap="round" stroke-linejoin="round" stroke-width="1.8"/>
      <path d="M28.45 15.1 Q28.15 14.55 28.2 13.5 L28.2 13.25 28.1 4.0 Q28.05 2.4 28.8 1.95 L28.85 1.95 Q29.4 1.75 30.25 1.95 34.05 2.8 33.95 6.05 L33.8 11.3 33.8 11.65 Q33.75 12.9 33.2 13.55 M32.05 12.05 L30.2 12.6 Q29.5 12.75 29.35 11.4 L29.35 4.05 32.15 5.05 Q32.7 5.2 32.85 5.9 L32.9 6.4 32.9 10.45 Q32.8 11.65 32.05 12.05 M26.7 3.95 Q26.6 1.95 27.55 1.75 M23.0 7.75 L25.2 7.75 M21.35 11.65 Q21.1 13.25 19.9 13.8 L16.7 14.5 Q15.5 14.7 15.3 12.9 L15.35 3.1 20.1 4.45 20.25 4.5 Q21.3 4.8 21.35 6.3 L21.35 11.65 M25.7 9.8 L23.45 10.15 M25.7 11.85 L23.3 12.65" fill="none" stroke="#000000" stroke-linecap="round" stroke-linejoin="round" stroke-width="1.8"/>
      <path d="M21.05 16.2 L16.5 18.25 Q14.45 19.0 13.75 17.85 11.55 18.4 11.0 16.15 L10.85 2.95 Q10.5 -0.95 14.4 0.4 L14.55 0.3 16.75 0.4 Q22.2 1.25 22.95 4.5 L23.05 5.85 23.0 7.75 22.85 12.85 22.85 13.25 Q22.8 14.95 21.8 15.8 M25.7 11.85 L25.7 9.8 25.6 5.5 M28.45 15.1 Q28.85 15.9 30.1 15.4 L32.7 13.9 Q32.7 16.55 29.75 17.3 27.05 18.0 25.95 15.2 L25.8 14.75 25.7 11.85 M26.7 3.95 L26.8 13.8 Q27.15 15.5 28.45 15.1 M13.75 17.85 Q13.3 17.1 13.35 15.75 L13.35 15.35 13.15 3.05 Q13.0 0.95 14.4 0.4 M21.1 16.5 Q21.0 19.35 17.35 20.45 L11.9 20.45 Q10.35 19.75 9.5 18.0 L9.3 17.45 8.9 5.1 10.45 2.95" fill="none" stroke="#000000" stroke-linecap="round" stroke-linejoin="round" stroke-width="1.5"/>
    </g>
    <g id="sprite27" transform="matrix(1.0, 0.0, 0.0, 1.0, 0.9, 0.9)">
      <use ffdec:characterId="169" height="66.3" id="mc200" transform="matrix(1.0, 0.0, 0.0, 1.0, 6.8, 9.25)" width="63.0" xlink:href="#sprite28"/>
      <use ffdec:characterId="171" height="53.85" id="mc100" transform="matrix(1.0, 0.0, 0.0, 1.0, 16.75, 18.6)" width="50.35" xlink:href="#sprite31"/>
      <use ffdec:characterId="9" height="79.3" transform="matrix(1.0, 0.0, 0.0, 1.0, -0.9, -0.9)" width="74.0" xlink:href="#shape26"/>
    </g>
    <g id="sprite28" transform="matrix(1.0, 0.0, 0.0, 1.0, 0.0, 0.0)">
      <use ffdec:characterId="168" height="66.3" id="mc000" transform="matrix(1.0, 0.0, 0.0, 1.0, 0.0, 0.0)" width="63.0" xlink:href="#sprite29"/>
    </g>
    <g id="sprite29" transform="matrix(1.0, 0.0, 0.0, 1.0, 0.0, 0.0)">
      <use ffdec:characterId="167" height="66.3" id="mc000" transform="matrix(1.0, 0.0, 0.0, 1.0, 0.0, 0.0)" width="63.0" xlink:href="#sprite30"/>
    </g>
    <g id="sprite30" transform="matrix(1.0, 0.0, 0.0, 1.0, 0.0, 0.0)">
      <use ffdec:characterId="1" height="66.3" transform="matrix(1.0, 0.0, 0.0, 1.0, 0.0, 0.0)" width="63.0" xlink:href="#shape24"/>
    </g>
    <g id="shape24" transform="matrix(1.0, 0.0, 0.0, 1.0, 0.0, 0.0)">
      <path d="M60.3 9.35 L48.15 9.55 51.45 0.8 63.0 0.0 60.3 9.35 M11.2 50.8 L9.95 63.2 0.0 66.3 2.35 55.3 11.2 50.8" fill="#00cc99" fill-rule="evenodd" stroke="none"/>
    </g>
    <g id="sprite31" transform="matrix(1.0, 0.0, 0.0, 1.0, 0.0, 0.0)">
      <use ffdec:characterId="170" height="53.85" id="mc000" transform="matrix(1.0, 0.0, 0.0, 1.0, 0.0, 0.0)" width="50.35" xlink:href="#sprite32"/>
    </g>
    <g id="sprite32" transform="matrix(1.0, 0.0, 0.0, 1.0, 0.0, 0.0)">
      <use ffdec:characterId="6" height="53.85" transform="matrix(1.0, 0.0, 0.0, 1.0, 0.0, 0.0)" width="50.35" xlink:href="#shape25"/>
    </g>
    <g id="shape25" transform="matrix(1.0, 0.0, 0.0, 1.0, 0.0, 0.0)">
      <path d="M38.2 0.2 L50.35 0.0 Q44.35 19.8 36.1 40.2 18.3 47.9 0.0 53.85 L1.25 41.45 Q12.7 35.7 24.15 29.9 32.25 15.3 38.2 0.2" fill="#006666" fill-rule="evenodd" stroke="none"/>
    </g>
    <g id="shape26" transform="matrix(1.0, 0.0, 0.0, 1.0, 0.9, 0.9)">
      <path d="M58.25 10.05 L59.4 6.6 Q63.9 -0.95 72.2 0.15 L69.8 9.25 58.25 10.05 M9.15 64.55 L6.8 75.55 0.0 77.5 5.15 66.55 9.15 64.55" fill="#fafff5" fill-rule="evenodd" stroke="none"/>
      <path d="M54.95 18.8 Q49.0 33.9 40.9 48.5 L18.0 60.05 16.75 72.45 Q35.05 66.5 52.85 58.8 61.1 38.4 67.1 18.6 L54.95 18.8 58.25 10.05 59.4 6.6 Q63.9 -0.95 72.2 0.15 L69.8 9.25 67.1 18.6 M58.25 10.05 L69.8 9.25 M9.15 64.55 L6.8 75.55 16.75 72.45 M6.8 75.55 L0.0 77.5 5.15 66.55 9.15 64.55 18.0 60.05" fill="none" stroke="#000000" stroke-linecap="round" stroke-linejoin="round" stroke-width="1.8"/>
    </g>
    <g id="sprite33" transform="matrix(1.0, 0.0, 0.0, 1.0, 0.9, 0.9)">
      <use ffdec:characterId="537" height="8.1" id="mc100" transform="matrix(1.0, 0.0, 0.0, 1.0, 0.0, 0.0)" width="8.1" xlink:href="#sprite34"/>
      <use ffdec:characterId="538" height="9.9" transform="matrix(1.0, 0.0, 0.0, 1.0, -0.9, -0.9)" width="9.9" xlink:href="#shape28"/>
    </g>
    <g id="sprite34" transform="matrix(1.0, 0.0, 0.0, 1.0, 0.0, 0.0)">
      <use ffdec:characterId="536" height="8.1" transform="matrix(1.0, 0.0, 0.0, 1.0, 0.0, 0.0)" width="8.1" xlink:href="#shape27"/>
    </g>
    <g id="shape27" transform="matrix(1.0, 0.0, 0.0, 1.0, 0.0, 0.0)">
      <path d="M1.15 6.9 Q0.0 5.75 0.0 4.05 0.0 2.35 1.15 1.15 2.35 0.0 4.05 0.0 5.75 0.0 6.9 1.15 8.1 2.35 8.1 4.05 8.1 5.75 6.9 6.9 5.75 8.1 4.05 8.1 2.35 8.1 1.15 6.9" fill="#c4a44a" fill-rule="evenodd" stroke="none"/>
    </g>
    <g id="shape28" transform="matrix(1.0, 0.0, 0.0, 1.0, 0.9, 0.9)">
      <path d="M1.15 6.9 Q0.0 5.75 0.0 4.05 0.0 2.35 1.15 1.15 2.35 0.0 4.05 0.0 5.75 0.0 6.9 1.15 8.1 2.35 8.1 4.05 8.1 5.75 6.9 6.9 5.75 8.1 4.05 8.1 2.35 8.1 1.15 6.9 Z" fill="none" stroke="#000000" stroke-linecap="round" stroke-linejoin="round" stroke-width="1.8"/>
    </g>
  </defs>
</svg>
