<?xml version="1.0" encoding="UTF-8" standalone="no"?>
<svg xmlns:ffdec="https://www.free-decompiler.com/flash" xmlns:xlink="http://www.w3.org/1999/xlink" ffdec:objectType="frame" height="157.75px" width="178.0px" xmlns="http://www.w3.org/2000/svg">
  <g transform="matrix(1.0, 0.0, 0.0, 1.0, 82.3, 138.3)">
    <use ffdec:characterId="1102" height="19.35" id="mc10430" transform="matrix(0.9895, -0.1179, -0.1151, 1.0173, -50.0836, -30.3742)" width="75.55" xlink:href="#sprite0"/>
    <use ffdec:characterId="173" height="18.85" id="mc10431" transform="matrix(0.9766, 0.2043, -0.2043, 0.9766, -10.3439, -19.439)" width="10.9" xlink:href="#sprite3"/>
    <use ffdec:characterId="173" height="18.85" id="mc10432" transform="matrix(0.9946, 0.101, -0.101, 0.9946, -3.8134, -24.9983)" width="10.9" xlink:href="#sprite3"/>
    <use ffdec:characterId="178" height="18.55" id="mc10433" transform="matrix(-0.3116, 0.947, 0.947, 0.3116, 9.0123, -43.9258)" width="15.75" xlink:href="#sprite4"/>
    <use ffdec:characterId="178" height="18.55" id="mc10434" transform="matrix(0.8615, -0.497, 0.497, 0.8615, -19.7865, -31.2298)" width="15.75" xlink:href="#sprite4"/>
    <use ffdec:characterId="206" height="18.5" id="mc10435" transform="matrix(-1.0, 0.0, 0.0, 1.0, 10.65, -24.85)" width="27.7" xlink:href="#sprite7"/>
    <use ffdec:characterId="1104" height="22.8" id="mc10436" transform="matrix(1.0, 0.0, 0.0, 0.5683, -14.8, -36.1694)" width="23.0" xlink:href="#sprite10"/>
    <use ffdec:characterId="1108" height="11.6" id="mc10437" transform="matrix(0.8504, -0.5233, 0.5233, 0.8504, 14.8137, -36.1945)" width="11.6" xlink:href="#sprite12"/>
    <use ffdec:characterId="304" height="43.45" id="mc9430" transform="matrix(1.0, 0.0, 0.0, 1.0, -32.8, -74.05)" width="65.0" xlink:href="#sprite14"/>
    <use ffdec:characterId="308" height="46.1" id="hide_hat" transform="matrix(1.0, 0.0, 0.0, 1.0, -39.85, -101.45)" width="79.9" xlink:href="#sprite16"/>
    <use ffdec:characterId="1057" height="0.0" id="hat" transform="matrix(1.0, 0.0, 0.0, 1.0, 0.0, 0.0)" width="0.0" xlink:href="#sprite18"/>
  </g>
  <defs>
    <g id="sprite0" transform="matrix(1.0, 0.0, 0.0, 1.0, 0.3, 0.55)">
      <use ffdec:characterId="1098" height="10.3" id="mc200" transform="matrix(1.0, 0.0, 0.0, 1.0, 10.6, 5.75)" width="23.65" xlink:href="#sprite1"/>
      <use ffdec:characterId="1100" height="10.2" id="mc100" transform="matrix(1.0, 0.0, 0.0, 1.0, 20.45, 0.35)" width="53.45" xlink:href="#sprite2"/>
      <use ffdec:characterId="1101" height="19.35" transform="matrix(1.0, 0.0, 0.0, 1.0, -0.3, -0.55)" width="75.55" xlink:href="#shape2"/>
    </g>
    <g id="sprite1" transform="matrix(1.0, 0.0, 0.0, 1.0, 0.0, 0.0)">
      <use ffdec:characterId="1097" height="10.3" transform="matrix(1.0, 0.0, 0.0, 1.0, 0.0, 0.0)" width="23.65" xlink:href="#shape0"/>
    </g>
    <g id="shape0" transform="matrix(1.0, 0.0, 0.0, 1.0, 0.0, 0.0)">
      <path d="M23.65 4.45 L23.65 7.4 17.65 10.3 17.35 9.7 17.35 7.0 17.9 6.8 14.5 5.55 0.0 1.65 9.85 0.0 9.9 0.25 23.5 4.0 23.65 4.45" fill="#00cc99" fill-rule="evenodd" stroke="none"/>
    </g>
    <g id="sprite2" transform="matrix(1.0, 0.0, 0.0, 1.0, 0.0, 0.0)">
      <use ffdec:characterId="1099" height="10.2" transform="matrix(1.0, 0.0, 0.0, 1.0, 0.0, 0.0)" width="53.45" xlink:href="#shape1"/>
    </g>
    <g id="shape1" transform="matrix(1.0, 0.0, 0.0, 1.0, 0.0, 0.0)">
      <path d="M53.25 0.0 L53.45 2.9 31.9 4.2 30.45 4.7 30.35 4.75 14.05 10.2 13.65 9.4 0.05 5.65 0.0 5.4 27.0 0.75 53.25 0.0" fill="#006666" fill-rule="evenodd" stroke="none"/>
    </g>
    <g id="shape2" transform="matrix(1.0, 0.0, 0.0, 1.0, 0.3, 0.55)">
      <path d="M50.8 5.1 L50.9 5.25 34.25 13.15 34.25 10.65 34.4 10.6 34.5 10.55 50.8 5.1 M28.25 16.05 L24.25 17.9 23.75 17.9 22.65 17.75 Q11.15 15.7 1.9 11.7 L3.05 8.7 10.6 7.4 25.1 11.3 28.5 12.55 27.95 12.75 27.95 15.45 28.25 16.05 M3.05 8.7 Q12.25 12.5 23.4 14.0 L23.9 14.1 23.35 14.25 23.75 17.9 23.35 14.25 23.9 14.1 23.4 14.0 Q12.25 12.5 3.05 8.7 M23.9 14.1 L27.95 12.75 23.9 14.1" fill="#ffffff" fill-rule="evenodd" stroke="none"/>
      <path d="M34.25 10.2 L34.4 10.6 34.25 10.65 34.25 10.2" fill="#00cc99" fill-rule="evenodd" stroke="none"/>
      <path d="M50.8 5.1 L50.9 5.05 52.05 4.7 52.35 4.55 74.35 3.2 73.7 0.35 47.95 1.1 M50.9 5.25 Q51.45 4.95 52.05 4.7 M50.45 4.05 L47.7 1.8 M50.9 5.25 L34.25 13.15 28.25 16.05 24.25 17.9 M23.75 17.9 L22.65 17.75 Q11.15 15.7 1.9 11.7 L1.85 11.7 0.65 11.2 0.6 11.15 1.1 8.95 3.05 8.7 10.6 7.4 47.45 1.1 M34.25 10.2 L34.25 10.1 34.1 9.75 20.5 6.0 M34.25 10.2 L34.25 10.65 34.4 10.6 34.5 10.55 50.8 5.1 M28.5 12.55 L27.95 12.75 27.95 15.45 M23.75 17.9 L23.35 14.25 23.9 14.1 23.4 14.0 Q12.25 12.5 3.05 8.7 M27.95 12.75 L23.9 14.1 M34.25 10.65 L28.5 12.55 25.1 11.3 10.6 7.4 M34.25 13.15 L34.25 10.65" fill="none" stroke="#000000" stroke-linecap="round" stroke-linejoin="round" stroke-width="1.8"/>
    </g>
    <g id="sprite3" transform="matrix(1.0, 0.0, 0.0, 1.0, 4.95, 9.5)">
      <use ffdec:characterId="18" height="18.85" transform="matrix(1.0, 0.0, 0.0, 1.0, -4.95, -9.5)" width="10.9" xlink:href="#shape3"/>
    </g>
    <g id="shape3" transform="matrix(1.0, 0.0, 0.0, 1.0, 4.95, 9.5)">
      <path d="M5.05 5.55 L5.05 5.7 Q5.15 6.65 3.9 7.45 2.7 8.25 0.95 8.4 -0.8 8.55 -2.15 7.95 -3.45 7.45 -3.55 6.5 L-3.55 6.35 -3.5 6.35 4.7 5.5 5.05 5.55" fill="#000000" fill-rule="evenodd" stroke="none"/>
      <path d="M-3.55 6.1 L-3.65 3.85 -4.05 -6.3 Q-4.1 -7.15 -3.15 -7.75 -2.1 -8.4 -0.55 -8.55 L2.1 -8.25 Q3.15 -7.75 3.3 -7.0 L3.35 -6.85 3.35 -6.65 4.7 3.05 5.05 5.45 4.7 5.5 -3.5 6.35 -3.55 6.1 M4.7 3.05 L-3.65 3.85 4.7 3.05" fill="#ffffff" fill-rule="evenodd" stroke="none"/>
      <path d="M-3.55 6.1 L-3.65 3.85 -4.05 -6.3 Q-4.1 -7.15 -3.15 -7.75 -2.1 -8.4 -0.55 -8.55 L2.1 -8.25 Q3.15 -7.75 3.3 -7.0 L3.35 -6.85 3.35 -6.65 4.7 3.05 5.05 5.45 5.05 5.55 5.05 5.7 Q5.15 6.65 3.9 7.45 2.7 8.25 0.95 8.4 -0.8 8.55 -2.15 7.95 -3.45 7.45 -3.55 6.5 L-3.55 6.35 -3.55 6.1 M-3.5 6.35 L4.7 5.5 M-3.55 6.35 L-3.5 6.35 M-3.65 3.85 L4.7 3.05" fill="none" stroke="#000000" stroke-linecap="round" stroke-linejoin="round" stroke-width="1.8"/>
    </g>
    <g id="sprite4" transform="matrix(1.0, 0.0, 0.0, 1.0, 7.85, 8.8)">
      <use ffdec:characterId="174" height="6.5" id="mc400" transform="matrix(1.0, 0.0, 0.0, 1.0, -5.35, 2.35)" width="7.55" xlink:href="#sprite5"/>
      <use ffdec:characterId="175" height="16.1" transform="matrix(1.0, 0.0, 0.0, 1.0, -6.25, -6.35)" width="14.15" xlink:href="#shape5"/>
      <use ffdec:characterId="176" height="15.5" id="mc200" transform="matrix(1.0, 0.0, 0.0, 1.0, -6.95, -7.9)" width="13.95" xlink:href="#sprite6"/>
      <use ffdec:characterId="177" height="17.3" transform="matrix(1.0, 0.0, 0.0, 1.0, -7.85, -8.8)" width="15.75" xlink:href="#shape7"/>
    </g>
    <g id="sprite5" transform="matrix(1.0, 0.0, 0.0, 1.0, 0.0, 0.0)">
      <use ffdec:characterId="12" height="6.5" transform="matrix(1.0, 0.0, 0.0, 1.0, 0.0, 0.0)" width="7.55" xlink:href="#shape4"/>
    </g>
    <g id="shape4" transform="matrix(1.0, 0.0, 0.0, 1.0, 0.0, 0.0)">
      <path d="M6.45 2.8 L7.55 2.7 7.1 3.95 Q6.5 5.65 5.2 6.2 3.75 6.8 2.3 6.2 0.8 5.55 0.2 4.15 -0.3 2.8 0.5 1.2 L1.1 0.0 Q2.7 2.0 4.75 2.55 L6.3 2.9 6.45 2.8" fill="#b59155" fill-rule="evenodd" stroke="none"/>
    </g>
    <g id="shape5" transform="matrix(1.0, 0.0, 0.0, 1.0, 6.25, 6.35)">
      <path d="M6.8 -4.7 L6.7 -4.4 7.0 -5.45 6.8 -4.7" fill="#ffffff" fill-rule="evenodd" stroke="none"/>
      <path d="M6.8 -4.7 L7.0 -5.45 6.7 -4.4 6.8 -4.7 3.75 2.45 2.2 5.05 1.75 6.3 Q1.15 8.0 -0.15 8.55 -1.6 9.15 -3.05 8.55 -4.55 7.9 -5.15 6.5 -5.65 5.15 -4.85 3.55 L-4.25 2.35 -4.1 1.95 M2.2 5.05 L1.1 5.15 M-2.55 -1.8 L-2.7 -1.55 M-0.6 4.9 Q-2.65 4.35 -4.25 2.35" fill="none" stroke="#000000" stroke-linecap="round" stroke-linejoin="round" stroke-width="1.8"/>
    </g>
    <g id="sprite6" transform="matrix(1.0, 0.0, 0.0, 1.0, 0.0, 0.0)">
      <use ffdec:characterId="14" height="15.5" transform="matrix(1.0, 0.0, 0.0, 1.0, 0.0, 0.0)" width="13.95" xlink:href="#shape6"/>
    </g>
    <g id="shape6" transform="matrix(1.0, 0.0, 0.0, 1.0, 0.0, 0.0)">
      <path d="M10.4 10.55 L10.7 10.75 8.8 15.5 8.75 15.5 8.5 15.4 7.2 13.05 4.05 14.4 3.95 14.15 3.6 10.9 3.35 10.55 0.0 10.55 4.3 6.05 4.4 6.15 5.05 5.25 Q10.05 0.45 11.25 0.15 12.45 -0.25 13.25 0.4 14.1 1.05 13.95 2.25 L13.95 2.45 13.65 3.5 10.4 10.55" fill="#ffffff" fill-rule="evenodd" stroke="none"/>
    </g>
    <g id="shape7" transform="matrix(1.0, 0.0, 0.0, 1.0, 7.85, 8.8)">
      <path d="M-2.65 -1.85 L-6.95 2.65 -3.4 2.65 -3.0 6.25 M1.85 7.6 L3.75 2.85 M-2.9 6.5 L0.25 5.15 1.55 7.5 M3.35 2.6 L-2.45 -1.7" fill="none" stroke="#000000" stroke-linecap="round" stroke-linejoin="round" stroke-width="1.8"/>
      <path d="M7.0 -5.65 Q7.15 -6.85 6.3 -7.5 5.5 -8.15 4.3 -7.75 3.1 -7.45 -1.9 -2.65 M6.7 -4.4 L3.5 2.9" fill="none" stroke="#000000" stroke-linecap="round" stroke-linejoin="round" stroke-width="1.8"/>
    </g>
    <g id="sprite7" transform="matrix(1.0, 0.0, 0.0, 1.0, 1.8, 0.9)">
      <use ffdec:characterId="205" height="18.5" id="mc000" transform="matrix(1.0, 0.0, 0.0, 1.0, -1.8, -0.9)" width="27.7" xlink:href="#sprite8"/>
    </g>
    <g id="sprite8" transform="matrix(1.0, 0.0, 0.0, 1.0, 1.8, 0.9)">
      <use ffdec:characterId="203" height="16.7" id="mc100" transform="matrix(1.0, 0.0, 0.0, 1.0, -0.9, 0.0)" width="25.9" xlink:href="#sprite9"/>
      <use ffdec:characterId="204" height="18.5" transform="matrix(1.0, 0.0, 0.0, 1.0, -1.8, -0.9)" width="27.7" xlink:href="#shape9"/>
    </g>
    <g id="sprite9" transform="matrix(1.0, 0.0, 0.0, 1.0, 0.0, 0.0)">
      <use ffdec:characterId="107" height="16.7" transform="matrix(1.0, 0.0, 0.0, 1.0, 0.0, 0.0)" width="25.9" xlink:href="#shape8"/>
    </g>
    <g id="shape8" transform="matrix(1.0, 0.0, 0.0, 1.0, 0.0, 0.0)">
      <path d="M24.65 6.0 L25.9 9.9 Q20.35 14.65 13.2 16.7 L13.05 12.65 10.1 12.65 9.75 14.7 Q3.7 14.5 0.0 9.25 L1.7 6.0 2.3 0.0 Q13.05 1.35 23.8 0.5 L24.65 6.0" fill="#ffcc00" fill-rule="evenodd" stroke="none"/>
    </g>
    <g id="shape9" transform="matrix(1.0, 0.0, 0.0, 1.0, 1.8, 0.9)">
      <path d="M23.3 3.25 L23.75 6.0 25.0 9.9 Q19.45 14.65 12.3 16.7 L12.15 12.65 9.2 12.65 8.85 14.7 Q2.8 14.5 -0.9 9.25 L0.8 6.0 1.1 3.0 1.4 0.0 Q12.15 1.35 22.9 0.5 L23.3 3.25 Q12.0 3.6 1.1 3.0 M12.15 12.65 L12.15 6.0 0.8 6.0 M23.75 6.0 L12.15 6.0" fill="none" stroke="#000000" stroke-linecap="round" stroke-linejoin="round" stroke-width="1.8"/>
    </g>
    <g id="sprite10" transform="matrix(1.0, 0.0, 0.0, 1.0, 0.9, 7.6)">
      <use ffdec:characterId="1103" height="21.0" id="mc100" transform="matrix(1.0, 0.0, 0.0, 1.0, 0.0, -6.7)" width="21.2" xlink:href="#sprite11"/>
      <use ffdec:characterId="299" height="22.8" transform="matrix(1.0, 0.0, 0.0, 1.0, -0.9, -7.6)" width="23.0" xlink:href="#shape11"/>
    </g>
    <g id="sprite11" transform="matrix(1.0, 0.0, 0.0, 1.0, 0.0, 0.0)">
      <use ffdec:characterId="297" height="21.0" transform="matrix(1.0, 0.0, 0.0, 1.0, 0.0, 0.0)" width="21.2" xlink:href="#shape10"/>
    </g>
    <g id="shape10" transform="matrix(1.0, 0.0, 0.0, 1.0, 10.6, 10.5)">
      <path d="M3.95 10.4 Q-6.45 10.65 -10.6 10.3 L-9.65 -9.9 8.75 -10.5 10.6 9.8 3.95 10.4" fill="#ffffff" fill-rule="evenodd" stroke="none"/>
    </g>
    <g id="shape11" transform="matrix(1.0, 0.0, 0.0, 1.0, 0.9, 7.6)">
      <path d="M19.35 -6.7 L21.2 13.6 14.55 14.2 Q4.15 14.45 0.0 14.1 L0.95 -6.1 19.35 -6.7 Z" fill="none" stroke="#000000" stroke-linecap="round" stroke-linejoin="round" stroke-width="1.8"/>
    </g>
    <g id="sprite12" transform="matrix(1.0, 0.0, 0.0, 1.0, 0.9, 0.9)">
      <use ffdec:characterId="1106" height="9.8" id="mc100" transform="matrix(1.0, 0.0, 0.0, 1.0, 0.0, 0.0)" width="9.8" xlink:href="#sprite13"/>
      <use ffdec:characterId="1107" height="11.6" transform="matrix(1.0, 0.0, 0.0, 1.0, -0.9, -0.9)" width="11.6" xlink:href="#shape13"/>
    </g>
    <g id="sprite13" transform="matrix(1.0, 0.0, 0.0, 1.0, 0.0, 0.0)">
      <use ffdec:characterId="1105" height="9.8" transform="matrix(1.0, 0.0, 0.0, 1.0, 0.0, 0.0)" width="9.8" xlink:href="#shape12"/>
    </g>
    <g id="shape12" transform="matrix(1.0, 0.0, 0.0, 1.0, 0.0, 0.0)">
      <path d="M9.6 6.35 Q8.95 8.3 7.1 9.25 L3.4 9.5 Q1.5 8.95 0.55 7.1 -0.35 5.3 0.2 3.35 0.85 1.55 2.65 0.6 4.5 -0.35 6.4 0.2 8.3 0.85 9.2 2.65 10.15 4.5 9.6 6.35" fill="#c4a44a" fill-rule="evenodd" stroke="none"/>
    </g>
    <g id="shape13" transform="matrix(1.0, 0.0, 0.0, 1.0, 0.9, 0.9)">
      <path d="M9.6 6.35 Q10.15 4.5 9.2 2.65 8.3 0.85 6.4 0.2 4.5 -0.35 2.65 0.6 0.85 1.55 0.2 3.35 -0.35 5.3 0.55 7.1 1.5 8.95 3.4 9.5 L7.1 9.25 Q8.95 8.3 9.6 6.35 Z" fill="none" stroke="#000000" stroke-linecap="round" stroke-linejoin="round" stroke-width="1.8"/>
    </g>
    <g id="sprite14" transform="matrix(1.0, 0.0, 0.0, 1.0, -6.15, -26.5)">
      <use ffdec:characterId="302" height="42.35" id="mc100" transform="matrix(1.0, 0.0, 0.0, 1.0, 7.05, 26.7)" width="63.2" xlink:href="#sprite15"/>
      <use ffdec:characterId="303" height="43.45" transform="matrix(1.0, 0.0, 0.0, 1.0, 6.15, 26.5)" width="65.0" xlink:href="#shape15"/>
    </g>
    <g id="sprite15" transform="matrix(1.0, 0.0, 0.0, 1.0, 32.0, 7.8)">
      <use ffdec:characterId="301" height="42.35" transform="matrix(1.0, 0.0, 0.0, 1.0, -32.0, -7.8)" width="63.2" xlink:href="#shape14"/>
    </g>
    <g id="shape14" transform="matrix(1.0, 0.0, 0.0, 1.0, 32.0, 7.8)">
      <path d="M-24.15 -7.8 L17.6 -6.7 Q24.85 -5.6 28.2 3.25 L31.2 21.5 25.7 16.1 Q5.3 45.5 -21.7 28.05 -33.35 20.25 -31.8 -0.8 -29.75 -7.6 -24.15 -7.8" fill="#ff6600" fill-rule="evenodd" stroke="none"/>
    </g>
    <g id="shape15" transform="matrix(1.0, 0.0, 0.0, 1.0, -6.15, -26.5)">
      <path d="M64.95 49.6 L64.75 50.6 70.25 56.0 67.25 37.75 Q65.95 30.75 59.5 29.6 M14.2 27.4 Q7.95 27.8 7.25 33.7 5.7 54.75 17.35 62.55 44.35 80.0 64.75 50.6" fill="none" stroke="#000000" stroke-linecap="round" stroke-linejoin="round" stroke-width="1.8"/>
    </g>
    <g id="sprite16" transform="matrix(1.0, 0.0, 0.0, 1.0, 0.9, 0.9)">
      <use ffdec:characterId="306" height="44.3" id="mc100" transform="matrix(1.0, 0.0, 0.0, 1.0, 0.0, 0.0)" width="78.1" xlink:href="#sprite17"/>
      <use ffdec:characterId="307" height="46.1" transform="matrix(1.0, 0.0, 0.0, 1.0, -0.9, -0.9)" width="79.9" xlink:href="#shape17"/>
    </g>
    <g id="sprite17" transform="matrix(1.0, 0.0, 0.0, 1.0, 39.05, 34.5)">
      <use ffdec:characterId="305" height="44.3" transform="matrix(1.0, 0.0, 0.0, 1.0, -39.05, -34.5)" width="78.1" xlink:href="#shape16"/>
    </g>
    <g id="shape16" transform="matrix(1.0, 0.0, 0.0, 1.0, 39.05, 34.5)">
      <path d="M16.55 -27.95 L14.05 -24.95 21.2 -22.0 Q31.5 -7.15 39.05 9.8 33.25 9.2 28.2 3.25 -1.25 9.45 -31.8 -0.8 -35.85 1.4 -39.05 0.9 L-25.05 -22.45 Q-15.25 -27.9 -2.55 -28.15 0.9 -33.55 8.1 -34.5 5.3 -31.2 4.9 -27.95 9.95 -30.35 16.55 -27.95" fill="#ff6600" fill-rule="evenodd" stroke="none"/>
    </g>
    <g id="shape17" transform="matrix(1.0, 0.0, 0.0, 1.0, 0.9, 0.9)">
      <path d="M7.25 33.7 Q3.2 35.9 0.0 35.4 L14.0 12.05 Q23.8 6.6 36.5 6.35 39.95 0.95 47.15 0.0 44.35 3.3 43.95 6.55 49.0 4.15 55.6 6.55 L53.1 9.55 60.25 12.5 Q70.55 27.35 78.1 44.3 72.3 43.7 67.25 37.75" fill="none" stroke="#000000" stroke-linecap="round" stroke-linejoin="round" stroke-width="1.8"/>
    </g>
  </defs>
</svg>
