<?xml version="1.0" encoding="UTF-8" standalone="no"?>
<svg xmlns:ffdec="https://www.free-decompiler.com/flash" xmlns:xlink="http://www.w3.org/1999/xlink" ffdec:objectType="frame" height="157.75px" width="178.0px" xmlns="http://www.w3.org/2000/svg">
  <g transform="matrix(1.0, 0.0, 0.0, 1.0, 82.3, 138.3)">
    <use ffdec:characterId="1096" height="104.4" id="mc8480" transform="matrix(1.0, 0.0, 0.0, 1.0, -41.1, -103.05)" width="69.4" xlink:href="#sprite0"/>
    <use ffdec:characterId="1057" height="0.0" id="hat" transform="matrix(1.0, 0.0, 0.0, 1.0, 0.0, 0.0)" width="0.0" xlink:href="#sprite21"/>
    <use ffdec:characterId="1124" height="12.1" transform="matrix(0.2018, 1.0108, -1.0108, 0.2018, 2.5252, -19.1814)" width="17.55" xlink:href="#shape20"/>
    <use ffdec:characterId="1124" height="12.1" transform="matrix(0.3042, 1.1111, -1.2543, 0.2669, 11.874, -21.1492)" width="17.55" xlink:href="#shape20"/>
  </g>
  <defs>
    <g id="sprite0" transform="matrix(1.0, 0.0, 0.0, 1.0, 0.9, 0.9)">
      <use ffdec:characterId="173" height="18.85" id="mc000" transform="matrix(-0.995, -0.0472, -0.0472, 0.995, 33.7235, 84.2313)" width="10.9" xlink:href="#sprite1"/>
      <use ffdec:characterId="173" height="18.85" id="mc001" transform="matrix(-0.5834, 0.809, 0.809, 0.5834, 31.5019, 83.7034)" width="10.9" xlink:href="#sprite1"/>
      <use ffdec:characterId="1083" height="19.75" id="mc002" transform="matrix(0.9734, -0.2258, 0.2258, 0.9734, 17.4176, 80.9857)" width="23.2" xlink:href="#sprite2"/>
      <use ffdec:characterId="178" height="18.55" id="mc003" transform="matrix(-0.897, 0.4353, 0.4353, 0.897, 43.5608, 56.3392)" width="15.75" xlink:href="#sprite4"/>
      <use ffdec:characterId="1085" height="20.1" id="mc004" transform="matrix(-0.9734, 0.2258, 0.2258, 0.9734, 36.169, 58.3425)" width="21.95" xlink:href="#sprite7"/>
      <use ffdec:characterId="412" height="13.0" id="mc005" transform="matrix(-0.9938, 0.1007, 0.1007, 0.9938, 24.1323, 64.296)" width="15.0" xlink:href="#sprite9"/>
      <use ffdec:characterId="1087" height="41.0" id="mc006" transform="matrix(-1.0, 0.0, 0.0, 1.0, 47.05, 26.95)" width="41.45" xlink:href="#sprite12"/>
      <use ffdec:characterId="1089" height="69.3" id="mc007" transform="matrix(-1.0, 0.0, 0.0, 1.0, 68.5, -0.9)" width="69.4" xlink:href="#sprite14"/>
      <use ffdec:characterId="539" height="9.9" id="mc008" transform="matrix(1.1791, 0.6039, -0.6039, 1.1791, 21.9823, 61.6953)" width="9.9" xlink:href="#sprite16"/>
      <use ffdec:characterId="1095" height="22.5" id="mc009" transform="matrix(1.0, 0.0, 0.0, 1.0, 12.35, 69.85)" width="31.45" xlink:href="#sprite18"/>
    </g>
    <g id="sprite1" transform="matrix(1.0, 0.0, 0.0, 1.0, 4.95, 9.5)">
      <use ffdec:characterId="18" height="18.85" transform="matrix(1.0, 0.0, 0.0, 1.0, -4.95, -9.5)" width="10.9" xlink:href="#shape0"/>
    </g>
    <g id="shape0" transform="matrix(1.0, 0.0, 0.0, 1.0, 4.95, 9.5)">
      <path d="M5.05 5.55 L5.05 5.7 Q5.15 6.65 3.9 7.45 2.7 8.25 0.95 8.4 -0.8 8.55 -2.15 7.95 -3.45 7.45 -3.55 6.5 L-3.55 6.35 -3.5 6.35 4.7 5.5 5.05 5.55" fill="#000000" fill-rule="evenodd" stroke="none"/>
      <path d="M-3.55 6.1 L-3.65 3.85 -4.05 -6.3 Q-4.1 -7.15 -3.15 -7.75 -2.1 -8.4 -0.55 -8.55 L2.1 -8.25 Q3.15 -7.75 3.3 -7.0 L3.35 -6.85 3.35 -6.65 4.7 3.05 5.05 5.45 4.7 5.5 -3.5 6.35 -3.55 6.1 M4.7 3.05 L-3.65 3.85 4.7 3.05" fill="#ffffff" fill-rule="evenodd" stroke="none"/>
      <path d="M-3.55 6.1 L-3.65 3.85 -4.05 -6.3 Q-4.1 -7.15 -3.15 -7.75 -2.1 -8.4 -0.55 -8.55 L2.1 -8.25 Q3.15 -7.75 3.3 -7.0 L3.35 -6.85 3.35 -6.65 4.7 3.05 5.05 5.45 5.05 5.55 5.05 5.7 Q5.15 6.65 3.9 7.45 2.7 8.25 0.95 8.4 -0.8 8.55 -2.15 7.95 -3.45 7.45 -3.55 6.5 L-3.55 6.35 -3.55 6.1 M-3.5 6.35 L4.7 5.5 M-3.55 6.35 L-3.5 6.35 M-3.65 3.85 L4.7 3.05" fill="none" stroke="#000000" stroke-linecap="round" stroke-linejoin="round" stroke-width="1.8"/>
    </g>
    <g id="sprite2" transform="matrix(1.0, 0.0, 0.0, 1.0, -2.25, 1.65)">
      <use ffdec:characterId="1082" height="17.95" id="mc100" transform="matrix(1.0, 0.0, 0.0, 1.0, 3.15, -0.75)" width="21.4" xlink:href="#sprite3"/>
      <use ffdec:characterId="329" height="19.75" transform="matrix(1.0, 0.0, 0.0, 1.0, 2.25, -1.65)" width="23.2" xlink:href="#shape2"/>
    </g>
    <g id="sprite3" transform="matrix(1.0, 0.0, 0.0, 1.0, 0.0, 0.0)">
      <use ffdec:characterId="327" height="17.95" transform="matrix(1.0, 0.0, 0.0, 1.0, 0.0, 0.0)" width="21.4" xlink:href="#shape1"/>
    </g>
    <g id="shape1" transform="matrix(1.0, 0.0, 0.0, 1.0, 10.7, 8.95)">
      <path d="M-8.7 -8.75 Q0.45 -8.2 9.95 -8.95 L10.7 3.4 4.5 9.0 4.5 3.5 Q-3.5 5.05 -10.7 2.05 L-8.7 -8.75" fill="#ffcc00" fill-rule="evenodd" stroke="none"/>
    </g>
    <g id="shape2" transform="matrix(1.0, 0.0, 0.0, 1.0, -2.25, 1.65)">
      <path d="M5.15 -0.55 L4.7 1.7 Q14.15 2.6 23.95 1.7 L23.8 -0.75 Q14.3 0.0 5.15 -0.55 M23.95 1.7 L24.1 4.45 24.55 11.6 18.35 17.2 18.35 11.7 Q10.35 13.25 3.15 10.25 L4.7 1.7 M18.35 11.7 L18.35 4.5 Q10.95 4.75 4.95 3.35 M18.35 4.5 L24.1 4.45" fill="none" stroke="#000000" stroke-linecap="round" stroke-linejoin="round" stroke-width="1.8"/>
    </g>
    <g id="sprite4" transform="matrix(1.0, 0.0, 0.0, 1.0, 7.85, 8.8)">
      <use ffdec:characterId="174" height="6.5" id="mc400" transform="matrix(1.0, 0.0, 0.0, 1.0, -5.35, 2.35)" width="7.55" xlink:href="#sprite5"/>
      <use ffdec:characterId="175" height="16.1" transform="matrix(1.0, 0.0, 0.0, 1.0, -6.25, -6.35)" width="14.15" xlink:href="#shape4"/>
      <use ffdec:characterId="176" height="15.5" id="mc200" transform="matrix(1.0, 0.0, 0.0, 1.0, -6.95, -7.9)" width="13.95" xlink:href="#sprite6"/>
      <use ffdec:characterId="177" height="17.3" transform="matrix(1.0, 0.0, 0.0, 1.0, -7.85, -8.8)" width="15.75" xlink:href="#shape6"/>
    </g>
    <g id="sprite5" transform="matrix(1.0, 0.0, 0.0, 1.0, 0.0, 0.0)">
      <use ffdec:characterId="12" height="6.5" transform="matrix(1.0, 0.0, 0.0, 1.0, 0.0, 0.0)" width="7.55" xlink:href="#shape3"/>
    </g>
    <g id="shape3" transform="matrix(1.0, 0.0, 0.0, 1.0, 0.0, 0.0)">
      <path d="M6.45 2.8 L7.55 2.7 7.1 3.95 Q6.5 5.65 5.2 6.2 3.75 6.8 2.3 6.2 0.8 5.55 0.2 4.15 -0.3 2.8 0.5 1.2 L1.1 0.0 Q2.7 2.0 4.75 2.55 L6.3 2.9 6.45 2.8" fill="#b59155" fill-rule="evenodd" stroke="none"/>
    </g>
    <g id="shape4" transform="matrix(1.0, 0.0, 0.0, 1.0, 6.25, 6.35)">
      <path d="M6.8 -4.7 L6.7 -4.4 7.0 -5.45 6.8 -4.7" fill="#ffffff" fill-rule="evenodd" stroke="none"/>
      <path d="M6.8 -4.7 L7.0 -5.45 6.7 -4.4 6.8 -4.7 3.75 2.45 2.2 5.05 1.75 6.3 Q1.15 8.0 -0.15 8.55 -1.6 9.15 -3.05 8.55 -4.55 7.9 -5.15 6.5 -5.65 5.15 -4.85 3.55 L-4.25 2.35 -4.1 1.95 M2.2 5.05 L1.1 5.15 M-2.55 -1.8 L-2.7 -1.55 M-0.6 4.9 Q-2.65 4.35 -4.25 2.35" fill="none" stroke="#000000" stroke-linecap="round" stroke-linejoin="round" stroke-width="1.8"/>
    </g>
    <g id="sprite6" transform="matrix(1.0, 0.0, 0.0, 1.0, 0.0, 0.0)">
      <use ffdec:characterId="14" height="15.5" transform="matrix(1.0, 0.0, 0.0, 1.0, 0.0, 0.0)" width="13.95" xlink:href="#shape5"/>
    </g>
    <g id="shape5" transform="matrix(1.0, 0.0, 0.0, 1.0, 0.0, 0.0)">
      <path d="M10.4 10.55 L10.7 10.75 8.8 15.5 8.75 15.5 8.5 15.4 7.2 13.05 4.05 14.4 3.95 14.15 3.6 10.9 3.35 10.55 0.0 10.55 4.3 6.05 4.4 6.15 5.05 5.25 Q10.05 0.45 11.25 0.15 12.45 -0.25 13.25 0.4 14.1 1.05 13.95 2.25 L13.95 2.45 13.65 3.5 10.4 10.55" fill="#ffffff" fill-rule="evenodd" stroke="none"/>
    </g>
    <g id="shape6" transform="matrix(1.0, 0.0, 0.0, 1.0, 7.85, 8.8)">
      <path d="M-2.65 -1.85 L-6.95 2.65 -3.4 2.65 -3.0 6.25 M1.85 7.6 L3.75 2.85 M-2.9 6.5 L0.25 5.15 1.55 7.5 M3.35 2.6 L-2.45 -1.7" fill="none" stroke="#000000" stroke-linecap="round" stroke-linejoin="round" stroke-width="1.8"/>
      <path d="M7.0 -5.65 Q7.15 -6.85 6.3 -7.5 5.5 -8.15 4.3 -7.75 3.1 -7.45 -1.9 -2.65 M6.7 -4.4 L3.5 2.9" fill="none" stroke="#000000" stroke-linecap="round" stroke-linejoin="round" stroke-width="1.8"/>
    </g>
    <g id="sprite7" transform="matrix(1.0, 0.0, 0.0, 1.0, 1.95, 5.0)">
      <use ffdec:characterId="1084" height="18.3" id="mc100" transform="matrix(1.0, 0.0, 0.0, 1.0, -1.05, -4.1)" width="20.15" xlink:href="#sprite8"/>
      <use ffdec:characterId="325" height="20.1" transform="matrix(1.0, 0.0, 0.0, 1.0, -1.95, -5.0)" width="21.95" xlink:href="#shape8"/>
    </g>
    <g id="sprite8" transform="matrix(1.0, 0.0, 0.0, 1.0, 0.0, 0.0)">
      <use ffdec:characterId="323" height="18.3" transform="matrix(1.0, 0.0, 0.0, 1.0, 0.0, 0.0)" width="20.15" xlink:href="#shape7"/>
    </g>
    <g id="shape7" transform="matrix(1.0, 0.0, 0.0, 1.0, 10.05, 9.15)">
      <path d="M9.15 -9.15 L10.1 9.15 Q-0.25 9.2 -10.05 8.85 L-7.75 -9.15 9.15 -9.15" fill="#ffffff" fill-rule="evenodd" stroke="none"/>
    </g>
    <g id="shape8" transform="matrix(1.0, 0.0, 0.0, 1.0, 1.95, 5.0)">
      <path d="M19.1 14.2 Q8.75 14.25 -1.05 13.9 L1.25 -4.1 18.15 -4.1 19.1 13.55" fill="none" stroke="#000000" stroke-linecap="round" stroke-linejoin="round" stroke-width="1.8"/>
    </g>
    <g id="sprite9" transform="matrix(1.0, 0.0, 0.0, 1.0, 1.1, 1.1)">
      <use ffdec:characterId="188" height="10.05" id="mc000" transform="matrix(-0.9659, -0.2588, -0.2588, 0.9659, 13.9023, 2.2136)" width="12.85" xlink:href="#sprite10"/>
    </g>
    <g id="sprite10" transform="matrix(1.0, 0.0, 0.0, 1.0, 0.9, 0.9)">
      <use ffdec:characterId="187" height="8.25" id="mc100" transform="matrix(1.0, 0.0, 0.0, 1.0, 0.0, 0.0)" width="11.05" xlink:href="#sprite11"/>
      <use ffdec:characterId="36" height="10.05" transform="matrix(1.0, 0.0, 0.0, 1.0, -0.9, -0.9)" width="12.85" xlink:href="#shape10"/>
    </g>
    <g id="sprite11" transform="matrix(1.0, 0.0, 0.0, 1.0, 0.0, 0.0)">
      <use ffdec:characterId="34" height="8.25" transform="matrix(1.0, 0.0, 0.0, 1.0, 0.0, 0.0)" width="11.05" xlink:href="#shape9"/>
    </g>
    <g id="shape9" transform="matrix(1.0, 0.0, 0.0, 1.0, 0.0, 0.0)">
      <path d="M7.5 5.75 L3.6 8.25 3.2 4.7 0.0 4.7 3.35 0.0 10.1 1.1 11.05 8.25 7.5 5.75" fill="#ffffff" fill-rule="evenodd" stroke="none"/>
    </g>
    <g id="shape10" transform="matrix(1.0, 0.0, 0.0, 1.0, 0.9, 0.9)">
      <path d="M10.1 1.1 L11.05 8.25 7.5 5.75 3.6 8.25 3.2 4.7 0.0 4.7 3.35 0.0 10.1 1.1 Z" fill="none" stroke="#000000" stroke-linecap="round" stroke-linejoin="round" stroke-width="1.8"/>
    </g>
    <g id="sprite12" transform="matrix(1.0, 0.0, 0.0, 1.0, 0.9, 0.9)">
      <use ffdec:characterId="1086" height="39.2" id="mc100" transform="matrix(1.0, 0.0, 0.0, 1.0, 0.0, 0.0)" width="39.65" xlink:href="#sprite13"/>
      <use ffdec:characterId="333" height="41.0" transform="matrix(1.0, 0.0, 0.0, 1.0, -0.9, -0.9)" width="41.45" xlink:href="#shape12"/>
    </g>
    <g id="sprite13" transform="matrix(1.0, 0.0, 0.0, 1.0, 0.0, 0.0)">
      <use ffdec:characterId="331" height="39.2" transform="matrix(1.0, 0.0, 0.0, 1.0, 0.0, 0.0)" width="39.65" xlink:href="#shape11"/>
    </g>
    <g id="shape11" transform="matrix(1.0, 0.0, 0.0, 1.0, 19.8, 19.6)">
      <path d="M17.2 -19.6 Q19.95 -16.2 19.75 -12.05 20.35 -2.85 17.95 4.85 19.8 13.75 15.8 17.35 8.85 20.4 2.45 19.35 L-19.8 -0.95 -5.5 -19.2 17.2 -19.6" fill="#c0a149" fill-rule="evenodd" stroke="none"/>
    </g>
    <g id="shape12" transform="matrix(1.0, 0.0, 0.0, 1.0, 0.9, 0.9)">
      <path d="M39.55 7.55 Q40.15 16.75 37.75 24.45 39.6 33.35 35.6 36.95 28.65 40.0 22.25 38.95 L0.0 18.65 14.3 0.4 37.0 0.0 Q39.75 3.4 39.55 7.55 Z" fill="none" stroke="#000000" stroke-linecap="round" stroke-linejoin="round" stroke-width="1.8"/>
    </g>
    <g id="sprite14" transform="matrix(1.0, 0.0, 0.0, 1.0, 0.9, 0.9)">
      <use ffdec:characterId="1088" height="65.85" id="mc100" transform="matrix(1.0, 0.0, 0.0, 1.0, 0.0, 1.65)" width="67.6" xlink:href="#sprite15"/>
      <use ffdec:characterId="340" height="69.3" transform="matrix(1.0, 0.0, 0.0, 1.0, -0.9, -0.9)" width="69.4" xlink:href="#shape14"/>
    </g>
    <g id="sprite15" transform="matrix(1.0, 0.0, 0.0, 1.0, 0.0, 0.0)">
      <use ffdec:characterId="338" height="65.85" transform="matrix(1.0, 0.0, 0.0, 1.0, 0.0, 0.0)" width="67.6" xlink:href="#shape13"/>
    </g>
    <g id="shape13" transform="matrix(1.0, 0.0, 0.0, 1.0, 33.8, 32.9)">
      <path d="M22.05 -0.45 L17.35 30.15 18.55 32.25 Q-5.95 35.7 -26.05 22.1 L-20.5 21.7 -33.8 8.55 -27.05 9.35 Q-29.75 -4.4 -26.85 -19.85 -19.2 -25.0 -10.95 -27.6 L-8.2 -32.9 -7.55 -32.55 -5.95 -29.8 3.0 -32.5 2.8 -29.6 Q16.6 -26.7 25.65 -19.25 32.5 -9.7 33.8 3.0 L28.8 -0.2 31.0 10.15 22.05 -0.45" fill="#ff6600" fill-rule="evenodd" stroke="none"/>
    </g>
    <g id="shape14" transform="matrix(1.0, 0.0, 0.0, 1.0, 0.9, 0.9)">
      <path d="M26.25 2.0 L27.85 4.75 36.8 2.05 36.6 4.95 Q50.4 7.85 59.45 15.3 66.3 24.85 67.6 37.55 L62.6 34.35 64.8 44.7 55.85 34.1 51.15 64.7 52.35 66.8 Q27.85 70.25 7.75 56.65 L13.3 56.25 0.0 43.1 6.75 43.9 Q4.05 30.15 6.95 14.7 14.6 9.55 22.85 6.95 L26.45 0.0 M55.85 34.1 L55.9 33.5 M43.8 49.45 L43.1 50.6 51.15 64.7 M39.2 37.05 L39.2 56.9 43.1 50.6" fill="none" stroke="#000000" stroke-linecap="round" stroke-linejoin="round" stroke-width="1.8"/>
    </g>
    <g id="sprite16" transform="matrix(1.0, 0.0, 0.0, 1.0, 0.9, 0.9)">
      <use ffdec:characterId="537" height="8.1" id="mc100" transform="matrix(1.0, 0.0, 0.0, 1.0, 0.0, 0.0)" width="8.1" xlink:href="#sprite17"/>
      <use ffdec:characterId="538" height="9.9" transform="matrix(1.0, 0.0, 0.0, 1.0, -0.9, -0.9)" width="9.9" xlink:href="#shape16"/>
    </g>
    <g id="sprite17" transform="matrix(1.0, 0.0, 0.0, 1.0, 0.0, 0.0)">
      <use ffdec:characterId="536" height="8.1" transform="matrix(1.0, 0.0, 0.0, 1.0, 0.0, 0.0)" width="8.1" xlink:href="#shape15"/>
    </g>
    <g id="shape15" transform="matrix(1.0, 0.0, 0.0, 1.0, 0.0, 0.0)">
      <path d="M1.15 6.9 Q0.0 5.75 0.0 4.05 0.0 2.35 1.15 1.15 2.35 0.0 4.05 0.0 5.75 0.0 6.9 1.15 8.1 2.35 8.1 4.05 8.1 5.75 6.9 6.9 5.75 8.1 4.05 8.1 2.35 8.1 1.15 6.9" fill="#c4a44a" fill-rule="evenodd" stroke="none"/>
    </g>
    <g id="shape16" transform="matrix(1.0, 0.0, 0.0, 1.0, 0.9, 0.9)">
      <path d="M1.15 6.9 Q0.0 5.75 0.0 4.05 0.0 2.35 1.15 1.15 2.35 0.0 4.05 0.0 5.75 0.0 6.9 1.15 8.1 2.35 8.1 4.05 8.1 5.75 6.9 6.9 5.75 8.1 4.05 8.1 2.35 8.1 1.15 6.9 Z" fill="none" stroke="#000000" stroke-linecap="round" stroke-linejoin="round" stroke-width="1.8"/>
    </g>
    <g id="sprite18" transform="matrix(1.0, 0.0, 0.0, 1.0, 0.9, 0.9)">
      <use ffdec:characterId="1091" height="5.45" id="mc200" transform="matrix(1.0, 0.0, 0.0, 1.0, 1.25, 6.1)" width="16.05" xlink:href="#sprite19"/>
      <use ffdec:characterId="1093" height="6.85" id="mc100" transform="matrix(1.0, 0.0, 0.0, 1.0, 3.7, 0.0)" width="8.3" xlink:href="#sprite20"/>
      <use ffdec:characterId="1094" height="22.5" transform="matrix(1.0, 0.0, 0.0, 1.0, -0.9, -0.9)" width="31.45" xlink:href="#shape19"/>
    </g>
    <g id="sprite19" transform="matrix(1.0, 0.0, 0.0, 1.0, 0.0, 0.0)">
      <use ffdec:characterId="1090" height="5.45" transform="matrix(1.0, 0.0, 0.0, 1.0, 0.0, 0.0)" width="16.05" xlink:href="#shape17"/>
    </g>
    <g id="shape17" transform="matrix(1.0, 0.0, 0.0, 1.0, 0.0, 0.0)">
      <path d="M2.45 0.75 L10.15 0.0 12.2 1.45 16.05 3.65 0.0 5.45 Q0.9 2.85 2.45 0.75" fill="#00cc99" fill-rule="evenodd" stroke="none"/>
    </g>
    <g id="sprite20" transform="matrix(1.0, 0.0, 0.0, 1.0, 0.0, 0.0)">
      <use ffdec:characterId="1092" height="6.85" transform="matrix(1.0, 0.0, 0.0, 1.0, 0.0, 0.0)" width="8.3" xlink:href="#shape18"/>
    </g>
    <g id="shape18" transform="matrix(1.0, 0.0, 0.0, 1.0, 0.0, 0.0)">
      <path d="M8.3 0.35 L7.7 6.1 0.0 6.85 Q3.0 2.6 8.3 0.0 L8.3 0.35" fill="#006666" fill-rule="evenodd" stroke="none"/>
    </g>
    <g id="shape19" transform="matrix(1.0, 0.0, 0.0, 1.0, 0.9, 0.9)">
      <path d="M17.3 9.75 Q21.55 11.85 29.05 12.8 L29.65 16.55 0.65 20.7 Q-0.2 18.25 0.1 16.3 0.45 13.75 1.25 11.55 L17.3 9.75 M0.1 16.3 L29.05 12.8 0.1 16.3" fill="#ffffff" fill-rule="evenodd" stroke="none"/>
      <path d="M12.0 0.35 L13.7 7.05 13.45 7.55 11.4 6.1 12.0 0.35" fill="#006666" fill-rule="evenodd" stroke="none"/>
      <path d="M17.3 9.75 Q21.55 11.85 29.05 12.8 L29.65 16.55 0.65 20.7 Q-0.2 18.25 0.1 16.3 0.45 13.75 1.25 11.55 2.15 8.95 3.7 6.85 6.7 2.6 12.0 0.0 L12.0 0.35 13.7 7.05 M13.45 7.55 Q15.35 8.75 17.3 9.75 L1.25 11.55 M11.4 6.1 L12.0 0.35 M13.45 7.55 L11.4 6.1 3.7 6.85 M29.05 12.8 L0.1 16.3" fill="none" stroke="#000000" stroke-linecap="round" stroke-linejoin="round" stroke-width="1.8"/>
    </g>
    <g id="shape20" transform="matrix(1.0, 0.0, 0.0, 1.0, 7.6, 5.45)">
      <path d="M4.55 -3.05 Q5.15 -2.7 5.35 -2.0 L5.45 -1.45 6.2 -1.15 Q7.0 -0.65 7.3 0.25 7.5 -0.1 7.95 -0.25 L8.85 -0.1 9.45 0.6 9.3 1.5 8.6 2.1 8.45 2.1 8.9 2.85 Q9.0 3.5 8.7 4.1 L7.7 4.85 6.9 4.9 6.7 5.25 Q6.15 6.15 5.25 6.4 L3.35 6.15 2.5 5.35 1.4 6.15 -0.25 5.95 Q-0.95 5.55 -1.15 4.8 L-1.6 5.0 -2.85 4.85 -3.4 4.3 -3.6 3.8 Q-3.8 3.25 -3.55 2.7 L-3.5 2.55 Q-3.15 1.95 -2.45 1.8 L-2.25 1.75 -3.85 1.0 Q-5.15 0.25 -5.5 -1.15 -5.85 -2.55 -5.1 -3.7 -4.45 -5.0 -3.05 -5.35 -1.7 -5.7 -0.4 -4.95 L0.55 -4.15 Q0.85 -4.6 1.45 -4.75 L2.8 -4.55 Q3.35 -4.25 3.55 -3.55 L3.6 -3.3 4.55 -3.05" fill="#8d4900" fill-opacity="0.5803922" fill-rule="evenodd" stroke="none"/>
      <path d="M7.0 -1.75 Q7.65 -1.75 8.15 -1.25 L8.55 -0.55 8.85 -0.6 Q9.3 -0.6 9.65 -0.25 L9.95 0.5 9.65 1.25 Q9.3 1.6 8.85 1.6 L8.55 1.55 8.55 1.7 8.4 2.2 7.8 2.45 7.3 2.2 7.05 1.7 7.05 1.5 7.0 1.5 Q6.35 1.5 5.85 1.05 5.35 0.6 5.4 -0.1 5.35 -0.75 5.85 -1.25 6.35 -1.75 7.0 -1.75 M6.85 4.45 Q7.15 4.45 7.4 4.7 L7.65 5.25 7.4 5.8 6.85 6.05 6.65 6.0 6.65 6.1 6.5 6.5 6.1 6.65 5.7 6.5 5.55 6.1 5.55 6.0 5.5 6.0 Q5.05 6.0 4.7 5.65 4.3 5.35 4.35 4.8 4.3 4.35 4.7 4.0 5.05 3.6 5.5 3.65 5.95 3.6 6.35 4.0 L6.6 4.5 6.85 4.45 M-4.55 2.45 L-5.1 2.7 -5.3 2.65 -5.3 2.75 Q-5.3 3.0 -5.45 3.15 L-5.85 3.3 -6.25 3.15 -6.4 2.75 -6.4 2.65 -6.45 2.65 Q-6.9 2.65 -7.25 2.3 L-7.6 1.45 Q-7.65 1.0 -7.25 0.65 -6.9 0.25 -6.45 0.3 -6.0 0.25 -5.6 0.65 -5.4 0.85 -5.35 1.15 L-5.1 1.1 -4.55 1.35 Q-4.3 1.6 -4.3 1.9 -4.3 2.25 -4.55 2.45" fill="#893900" fill-opacity="0.5803922" fill-rule="evenodd" stroke="none"/>
    </g>
  </defs>
</svg>
