<?xml version="1.0" encoding="UTF-8" standalone="no"?>
<svg xmlns:ffdec="https://www.free-decompiler.com/flash" xmlns:xlink="http://www.w3.org/1999/xlink" ffdec:objectType="frame" height="157.75px" width="178.0px" xmlns="http://www.w3.org/2000/svg">
  <g transform="matrix(1.0, 0.0, 0.0, 1.0, 82.3, 138.3)">
    <use ffdec:characterId="173" height="18.85" id="mc31520" transform="matrix(-0.8451, -0.5236, -0.5236, 0.8451, 12.1074, -16.5864)" width="10.9" xlink:href="#sprite0"/>
    <use ffdec:characterId="173" height="18.85" id="mc30520" transform="matrix(-0.9946, 0.101, 0.101, 0.9946, -4.8866, -18.0483)" width="10.9" xlink:href="#sprite0"/>
    <use ffdec:characterId="178" height="18.55" id="mc28520" transform="matrix(0.5126, 0.8403, -0.8403, 0.5126, -19.8793, -48.2078)" width="15.75" xlink:href="#sprite1"/>
    <use ffdec:characterId="181" height="20.65" id="mc27520" transform="matrix(-0.9793, 0.1909, 0.1909, 0.9793, 3.6774, -43.3989)" width="21.15" xlink:href="#sprite4"/>
    <use ffdec:characterId="185" height="22.9" id="mc26520" transform="matrix(-0.994, 0.0823, 0.0823, 0.994, 4.4191, -45.0785)" width="23.0" xlink:href="#sprite7"/>
    <use ffdec:characterId="186" height="21.35" id="mc25520" transform="matrix(-0.9653, 0.2501, 0.2501, 0.9653, 5.8, -39.7)" width="23.6" xlink:href="#sprite10"/>
    <use ffdec:characterId="189" height="10.05" id="mc24520" transform="matrix(-0.994, 0.0823, 0.0823, 0.994, 5.6205, -39.5687)" width="12.85" xlink:href="#sprite11"/>
    <use ffdec:characterId="178" height="18.55" id="mc24521" transform="matrix(-0.8827, 0.4389, 0.4389, 0.8827, 14.0668, -45.1628)" width="15.75" xlink:href="#sprite1"/>
    <use ffdec:characterId="190" height="10.05" id="mc23520" transform="matrix(-0.994, 0.0823, 0.0823, 0.994, -8.4795, -38.5187)" width="12.85" xlink:href="#sprite14"/>
    <use ffdec:characterId="1123" height="82.75" id="mc18520" transform="matrix(1.0, 0.0, 0.0, 1.0, -45.35, -113.5)" width="89.55" xlink:href="#sprite15"/>
    <use ffdec:characterId="142" height="22.15" id="hide_hat" transform="matrix(0.9308, 0.3585, -0.3585, 0.9308, -23.2928, -91.317)" width="51.0" xlink:href="#sprite20"/>
    <use ffdec:characterId="206" height="18.5" id="mc9520" transform="matrix(-0.9826, 0.1736, 0.1736, 0.9826, 10.0124, -26.9468)" width="27.7" xlink:href="#sprite24"/>
    <use ffdec:characterId="1057" height="0.0" id="hat" transform="matrix(1.0, 0.0, 0.0, 1.0, 0.0, 0.0)" width="0.0" xlink:href="#sprite27"/>
    <use ffdec:characterId="1117" height="77.2" id="mc6520" transform="matrix(-0.6575, 0.7332, 0.7332, 0.6575, -15.6161, -76.5203)" width="58.45" xlink:href="#sprite28"/>
    <use ffdec:characterId="539" height="9.9" id="mc6521" transform="matrix(0.97, 0.1927, 0.1927, -0.97, 11.6036, -24.3505)" width="9.9" xlink:href="#sprite33"/>
    <use ffdec:characterId="1124" height="12.1" transform="matrix(0.3805, 1.1035, -1.1035, 0.3805, 0.522, -21.5603)" width="17.55" xlink:href="#shape30"/>
    <use ffdec:characterId="1124" height="12.1" transform="matrix(0.791, 1.311, -1.7964, 0.6831, 7.8292, -27.337)" width="17.55" xlink:href="#shape30"/>
  </g>
  <defs>
    <g id="sprite0" transform="matrix(1.0, 0.0, 0.0, 1.0, 4.95, 9.5)">
      <use ffdec:characterId="18" height="18.85" transform="matrix(1.0, 0.0, 0.0, 1.0, -4.95, -9.5)" width="10.9" xlink:href="#shape0"/>
    </g>
    <g id="shape0" transform="matrix(1.0, 0.0, 0.0, 1.0, 4.95, 9.5)">
      <path d="M5.05 5.55 L5.05 5.7 Q5.15 6.65 3.9 7.45 2.7 8.25 0.95 8.4 -0.8 8.55 -2.15 7.95 -3.45 7.45 -3.55 6.5 L-3.55 6.35 -3.5 6.35 4.7 5.5 5.05 5.55" fill="#000000" fill-rule="evenodd" stroke="none"/>
      <path d="M-3.55 6.1 L-3.65 3.85 -4.05 -6.3 Q-4.1 -7.15 -3.15 -7.75 -2.1 -8.4 -0.55 -8.55 L2.1 -8.25 Q3.15 -7.75 3.3 -7.0 L3.35 -6.85 3.35 -6.65 4.7 3.05 5.05 5.45 4.7 5.5 -3.5 6.35 -3.55 6.1 M4.7 3.05 L-3.65 3.85 4.7 3.05" fill="#ffffff" fill-rule="evenodd" stroke="none"/>
      <path d="M-3.55 6.1 L-3.65 3.85 -4.05 -6.3 Q-4.1 -7.15 -3.15 -7.75 -2.1 -8.4 -0.55 -8.55 L2.1 -8.25 Q3.15 -7.75 3.3 -7.0 L3.35 -6.85 3.35 -6.65 4.7 3.05 5.05 5.45 5.05 5.55 5.05 5.7 Q5.15 6.65 3.9 7.45 2.7 8.25 0.95 8.4 -0.8 8.55 -2.15 7.95 -3.45 7.45 -3.55 6.5 L-3.55 6.35 -3.55 6.1 M-3.5 6.35 L4.7 5.5 M-3.55 6.35 L-3.5 6.35 M-3.65 3.85 L4.7 3.05" fill="none" stroke="#000000" stroke-linecap="round" stroke-linejoin="round" stroke-width="1.8"/>
    </g>
    <g id="sprite1" transform="matrix(1.0, 0.0, 0.0, 1.0, 7.85, 8.8)">
      <use ffdec:characterId="174" height="6.5" id="mc400" transform="matrix(1.0, 0.0, 0.0, 1.0, -5.35, 2.35)" width="7.55" xlink:href="#sprite2"/>
      <use ffdec:characterId="175" height="16.1" transform="matrix(1.0, 0.0, 0.0, 1.0, -6.25, -6.35)" width="14.15" xlink:href="#shape2"/>
      <use ffdec:characterId="176" height="15.5" id="mc200" transform="matrix(1.0, 0.0, 0.0, 1.0, -6.95, -7.9)" width="13.95" xlink:href="#sprite3"/>
      <use ffdec:characterId="177" height="17.3" transform="matrix(1.0, 0.0, 0.0, 1.0, -7.85, -8.8)" width="15.75" xlink:href="#shape4"/>
    </g>
    <g id="sprite2" transform="matrix(1.0, 0.0, 0.0, 1.0, 0.0, 0.0)">
      <use ffdec:characterId="12" height="6.5" transform="matrix(1.0, 0.0, 0.0, 1.0, 0.0, 0.0)" width="7.55" xlink:href="#shape1"/>
    </g>
    <g id="shape1" transform="matrix(1.0, 0.0, 0.0, 1.0, 0.0, 0.0)">
      <path d="M6.45 2.8 L7.55 2.7 7.1 3.95 Q6.5 5.65 5.2 6.2 3.75 6.8 2.3 6.2 0.8 5.55 0.2 4.15 -0.3 2.8 0.5 1.2 L1.1 0.0 Q2.7 2.0 4.75 2.55 L6.3 2.9 6.45 2.8" fill="#b59155" fill-rule="evenodd" stroke="none"/>
    </g>
    <g id="shape2" transform="matrix(1.0, 0.0, 0.0, 1.0, 6.25, 6.35)">
      <path d="M6.8 -4.7 L6.7 -4.4 7.0 -5.45 6.8 -4.7" fill="#ffffff" fill-rule="evenodd" stroke="none"/>
      <path d="M6.8 -4.7 L7.0 -5.45 6.7 -4.4 6.8 -4.7 3.75 2.45 2.2 5.05 1.75 6.3 Q1.15 8.0 -0.15 8.55 -1.6 9.15 -3.05 8.55 -4.55 7.9 -5.15 6.5 -5.65 5.15 -4.85 3.55 L-4.25 2.35 -4.1 1.95 M2.2 5.05 L1.1 5.15 M-2.55 -1.8 L-2.7 -1.55 M-0.6 4.9 Q-2.65 4.35 -4.25 2.35" fill="none" stroke="#000000" stroke-linecap="round" stroke-linejoin="round" stroke-width="1.8"/>
    </g>
    <g id="sprite3" transform="matrix(1.0, 0.0, 0.0, 1.0, 0.0, 0.0)">
      <use ffdec:characterId="14" height="15.5" transform="matrix(1.0, 0.0, 0.0, 1.0, 0.0, 0.0)" width="13.95" xlink:href="#shape3"/>
    </g>
    <g id="shape3" transform="matrix(1.0, 0.0, 0.0, 1.0, 0.0, 0.0)">
      <path d="M10.4 10.55 L10.7 10.75 8.8 15.5 8.75 15.5 8.5 15.4 7.2 13.05 4.05 14.4 3.95 14.15 3.6 10.9 3.35 10.55 0.0 10.55 4.3 6.05 4.4 6.15 5.05 5.25 Q10.05 0.45 11.25 0.15 12.45 -0.25 13.25 0.4 14.1 1.05 13.95 2.25 L13.95 2.45 13.65 3.5 10.4 10.55" fill="#ffffff" fill-rule="evenodd" stroke="none"/>
    </g>
    <g id="shape4" transform="matrix(1.0, 0.0, 0.0, 1.0, 7.85, 8.8)">
      <path d="M-2.65 -1.85 L-6.95 2.65 -3.4 2.65 -3.0 6.25 M1.85 7.6 L3.75 2.85 M-2.9 6.5 L0.25 5.15 1.55 7.5 M3.35 2.6 L-2.45 -1.7" fill="none" stroke="#000000" stroke-linecap="round" stroke-linejoin="round" stroke-width="1.8"/>
      <path d="M7.0 -5.65 Q7.15 -6.85 6.3 -7.5 5.5 -8.15 4.3 -7.75 3.1 -7.45 -1.9 -2.65 M6.7 -4.4 L3.5 2.9" fill="none" stroke="#000000" stroke-linecap="round" stroke-linejoin="round" stroke-width="1.8"/>
    </g>
    <g id="sprite4" transform="matrix(1.0, 0.0, 0.0, 1.0, 0.05, 5.35)">
      <use ffdec:characterId="81" height="20.65" transform="matrix(1.0, 0.0, 0.0, 1.0, -0.05, -5.35)" width="21.15" xlink:href="#shape5"/>
      <use ffdec:characterId="180" height="18.85" id="mc001" transform="matrix(1.0, 0.0, 0.0, 1.0, 0.85, -4.45)" width="19.35" xlink:href="#sprite5"/>
    </g>
    <g id="shape5" transform="matrix(1.0, 0.0, 0.0, 1.0, 0.05, 5.35)">
      <path d="M18.55 -4.45 L20.2 13.7 14.15 14.2 8.6 14.4 0.85 14.15 1.7 -3.95 18.55 -4.45 Z" fill="none" stroke="#000000" stroke-linecap="round" stroke-linejoin="round" stroke-width="1.8"/>
    </g>
    <g id="sprite5" transform="matrix(1.0, 0.0, 0.0, 1.0, 0.0, 0.0)">
      <use ffdec:characterId="179" height="18.85" id="mc000" transform="matrix(1.0, 0.0, 0.0, 1.0, 0.0, 0.0)" width="19.35" xlink:href="#sprite6"/>
    </g>
    <g id="sprite6" transform="matrix(1.0, 0.0, 0.0, 1.0, 0.0, 0.0)">
      <use ffdec:characterId="82" height="18.85" transform="matrix(1.0, 0.0, 0.0, 1.0, 0.0, 0.0)" width="19.35" xlink:href="#shape6"/>
    </g>
    <g id="shape6" transform="matrix(1.0, 0.0, 0.0, 1.0, 0.0, 0.0)">
      <path d="M19.35 18.15 L13.3 18.65 7.75 18.85 0.0 18.6 0.85 0.5 17.7 0.0 19.35 18.15" fill="#b59155" fill-rule="evenodd" stroke="none"/>
    </g>
    <g id="sprite7" transform="matrix(1.0, 0.0, 0.0, 1.0, 0.9, 7.6)">
      <use ffdec:characterId="183" height="21.1" id="mc100" transform="matrix(1.0, 0.0, 0.0, 1.0, 0.0, -6.7)" width="21.2" xlink:href="#sprite8"/>
      <use ffdec:characterId="184" height="22.9" transform="matrix(1.0, 0.0, 0.0, 1.0, -0.9, -7.6)" width="23.0" xlink:href="#shape8"/>
    </g>
    <g id="sprite8" transform="matrix(1.0, 0.0, 0.0, 1.0, 0.0, 0.0)">
      <use ffdec:characterId="182" height="21.1" id="mc000" transform="matrix(1.0, 0.0, 0.0, 1.0, 0.0, 0.0)" width="21.2" xlink:href="#sprite9"/>
    </g>
    <g id="sprite9" transform="matrix(1.0, 0.0, 0.0, 1.0, 0.0, 0.0)">
      <use ffdec:characterId="86" height="21.1" transform="matrix(1.0, 0.0, 0.0, 1.0, 0.0, 0.0)" width="21.2" xlink:href="#shape7"/>
    </g>
    <g id="shape7" transform="matrix(1.0, 0.0, 0.0, 1.0, 0.0, 0.0)">
      <path d="M21.2 20.3 L14.55 20.9 13.7 0.2 19.35 0.0 21.2 20.3 M8.5 21.1 L0.0 20.8 0.95 0.6 8.1 0.6 8.5 21.1" fill="#ffffff" fill-rule="evenodd" stroke="none"/>
    </g>
    <g id="shape8" transform="matrix(1.0, 0.0, 0.0, 1.0, 0.9, 7.6)">
      <path d="M19.35 -6.7 L21.2 13.6 14.55 14.2 13.7 -6.5 19.35 -6.7 M8.5 14.4 L0.0 14.1 0.95 -6.1 8.1 -6.1 8.5 13.65" fill="none" stroke="#000000" stroke-linecap="round" stroke-linejoin="round" stroke-width="1.8"/>
    </g>
    <g id="sprite10" transform="matrix(1.0, 0.0, 0.0, 1.0, 0.0, 0.0)">
      <use ffdec:characterId="33" height="21.35" transform="matrix(1.0, 0.0, 0.0, 1.0, 0.0, 0.0)" width="23.6" xlink:href="#shape9"/>
    </g>
    <g id="shape9" transform="matrix(1.0, 0.0, 0.0, 1.0, 0.0, 0.0)">
      <path d="M22.2 0.0 L23.6 1.6 23.3 2.05 Q11.6 13.1 0.3 21.35 L0.0 21.3 0.7 18.35 22.2 0.0" fill="#000000" fill-rule="evenodd" stroke="none"/>
    </g>
    <g id="sprite11" transform="matrix(1.0, 0.0, 0.0, 1.0, 0.9, 0.9)">
      <use ffdec:characterId="188" height="10.05" id="mc000" transform="matrix(1.0, 0.0, 0.0, 1.0, -0.9, -0.9)" width="12.85" xlink:href="#sprite12"/>
    </g>
    <g id="sprite12" transform="matrix(1.0, 0.0, 0.0, 1.0, 0.9, 0.9)">
      <use ffdec:characterId="187" height="8.25" id="mc100" transform="matrix(1.0, 0.0, 0.0, 1.0, 0.0, 0.0)" width="11.05" xlink:href="#sprite13"/>
      <use ffdec:characterId="36" height="10.05" transform="matrix(1.0, 0.0, 0.0, 1.0, -0.9, -0.9)" width="12.85" xlink:href="#shape11"/>
    </g>
    <g id="sprite13" transform="matrix(1.0, 0.0, 0.0, 1.0, 0.0, 0.0)">
      <use ffdec:characterId="34" height="8.25" transform="matrix(1.0, 0.0, 0.0, 1.0, 0.0, 0.0)" width="11.05" xlink:href="#shape10"/>
    </g>
    <g id="shape10" transform="matrix(1.0, 0.0, 0.0, 1.0, 0.0, 0.0)">
      <path d="M7.5 5.75 L3.6 8.25 3.2 4.7 0.0 4.7 3.35 0.0 10.1 1.1 11.05 8.25 7.5 5.75" fill="#ffffff" fill-rule="evenodd" stroke="none"/>
    </g>
    <g id="shape11" transform="matrix(1.0, 0.0, 0.0, 1.0, 0.9, 0.9)">
      <path d="M10.1 1.1 L11.05 8.25 7.5 5.75 3.6 8.25 3.2 4.7 0.0 4.7 3.35 0.0 10.1 1.1 Z" fill="none" stroke="#000000" stroke-linecap="round" stroke-linejoin="round" stroke-width="1.8"/>
    </g>
    <g id="sprite14" transform="matrix(1.0, 0.0, 0.0, 1.0, 0.9, 0.9)">
      <use ffdec:characterId="188" height="10.05" id="mc000" transform="matrix(-1.0, 0.0, 0.0, 1.0, 11.95, -0.9)" width="12.85" xlink:href="#sprite12"/>
    </g>
    <g id="sprite15" transform="matrix(1.0, 0.0, 0.0, 1.0, 0.85, 0.85)">
      <use ffdec:characterId="821" height="44.25" id="mc100" transform="matrix(0.9926, 0.1179, -0.1179, 0.9926, 16.3939, 31.9171)" width="51.3" xlink:href="#sprite16"/>
      <use ffdec:characterId="1118" height="19.15" transform="matrix(1.0, 0.0, 0.0, 1.0, 23.35, 47.95)" width="32.35" xlink:href="#shape14"/>
      <use ffdec:characterId="388" height="6.0" transform="matrix(1.0, 0.0, 0.0, 1.0, 32.65, 70.05)" width="3.35" xlink:href="#shape15"/>
      <use ffdec:characterId="1122" height="68.7" id="mc002" transform="matrix(0.9926, 0.1179, -0.1179, 0.9926, 7.2439, -0.8329)" width="82.05" xlink:href="#sprite18"/>
    </g>
    <g id="sprite16" transform="matrix(1.0, 0.0, 0.0, 1.0, 0.75, 0.75)">
      <use ffdec:characterId="819" height="42.75" id="mc100" transform="matrix(1.0, 0.0, 0.0, 1.0, 0.0, 0.0)" width="49.8" xlink:href="#sprite17"/>
      <use ffdec:characterId="820" height="44.25" transform="matrix(1.0, 0.0, 0.0, 1.0, -0.75, -0.75)" width="51.3" xlink:href="#shape13"/>
    </g>
    <g id="sprite17" transform="matrix(1.0, 0.0, 0.0, 1.0, 0.0, 0.0)">
      <use ffdec:characterId="818" height="42.75" transform="matrix(1.0, 0.0, 0.0, 1.0, 0.0, 0.0)" width="49.8" xlink:href="#shape12"/>
    </g>
    <g id="shape12" transform="matrix(1.0, 0.0, 0.0, 1.0, 0.0, 0.0)">
      <path d="M21.95 42.75 Q5.55 38.3 1.65 25.2 L0.0 5.5 37.4 0.0 49.8 20.15 Q46.35 29.8 39.85 36.7 39.2 37.3 34.95 39.45 30.7 41.55 21.95 42.75" fill="#c4a44a" fill-rule="evenodd" stroke="none"/>
    </g>
    <g id="shape13" transform="matrix(1.0, 0.0, 0.0, 1.0, 0.75, 0.75)">
      <path d="M34.95 39.45 Q30.7 41.55 21.95 42.75 5.55 38.3 1.65 25.2 L0.0 5.5 37.4 0.0 49.8 20.15 Q46.35 29.8 39.85 36.7 39.2 37.3 34.95 39.45 Z" fill="none" stroke="#000000" stroke-linecap="round" stroke-linejoin="round" stroke-width="1.5"/>
    </g>
    <g id="shape14" transform="matrix(1.0, 0.0, 0.0, 1.0, -23.35, -47.95)">
      <path d="M32.35 58.4 L24.1 56.5 M54.95 57.8 Q48.7 58.6 42.55 61.6 50.8 62.15 54.0 66.35 M41.45 62.15 L42.55 61.6 M32.9 58.6 Q29.3 53.05 24.55 48.7" fill="none" stroke="#000000" stroke-linecap="round" stroke-linejoin="round" stroke-width="1.5"/>
    </g>
    <g id="shape15" transform="matrix(1.0, 0.0, 0.0, 1.0, 0.0, 0.0)">
      <path d="M1.2 0.6 Q1.85 -0.15 2.45 0.0 3.1 0.15 3.3 1.15 L3.15 3.4 Q2.8 4.65 2.15 5.35 1.55 6.15 0.95 6.0 0.3 5.85 0.1 4.8 -0.15 3.85 0.2 2.65 0.5 1.4 1.2 0.6" fill="#000000" fill-rule="evenodd" stroke="none"/>
    </g>
    <g id="sprite18" transform="matrix(1.0, 0.0, 0.0, 1.0, 0.75, 0.75)">
      <use ffdec:characterId="1120" height="67.2" id="mc100" transform="matrix(1.0, 0.0, 0.0, 1.0, 0.0, 0.0)" width="80.55" xlink:href="#sprite19"/>
      <use ffdec:characterId="1121" height="68.7" transform="matrix(1.0, 0.0, 0.0, 1.0, -0.75, -0.75)" width="82.05" xlink:href="#shape17"/>
    </g>
    <g id="sprite19" transform="matrix(1.0, 0.0, 0.0, 1.0, 0.0, 0.0)">
      <use ffdec:characterId="1119" height="67.2" transform="matrix(1.0, 0.0, 0.0, 1.0, 0.0, 0.0)" width="80.55" xlink:href="#shape16"/>
    </g>
    <g id="shape16" transform="matrix(1.0, 0.0, 0.0, 1.0, 0.0, 0.0)">
      <path d="M44.8 8.3 Q57.9 9.85 67.45 16.85 70.75 30.1 80.55 37.6 74.65 40.85 69.1 40.05 L69.2 64.35 Q56.35 57.6 46.8 42.4 L50.55 54.35 37.4 41.7 40.2 52.4 30.35 39.25 32.2 48.6 19.6 40.1 Q19.65 55.4 26.05 67.2 18.5 64.35 11.3 55.35 L8.6 62.65 Q6.3 52.3 6.7 40.4 2.75 43.4 0.0 48.6 3.7 25.5 19.45 10.75 L28.55 7.15 35.15 0.0 35.7 0.15 35.4 5.8 Q42.4 1.95 50.3 2.2 47.1 4.8 44.8 8.3" fill="#ff6600" fill-rule="evenodd" stroke="none"/>
    </g>
    <g id="shape17" transform="matrix(1.0, 0.0, 0.0, 1.0, 0.75, 0.75)">
      <path d="M35.7 0.15 L35.4 5.8 Q42.4 1.95 50.3 2.2 47.1 4.8 44.8 8.3 57.9 9.85 67.45 16.85 70.75 30.1 80.55 37.6 74.65 40.85 69.1 40.05 L69.2 64.35 Q56.35 57.6 46.8 42.4 L50.55 54.35 37.4 41.7 40.2 52.4 30.35 39.25 32.2 48.6 19.6 40.1 Q19.65 55.4 26.05 67.2 18.5 64.35 11.3 55.35 L8.6 62.65 Q6.3 52.3 6.7 40.4 2.75 43.4 0.0 48.6 3.7 25.5 19.45 10.75 L28.55 7.15 35.15 0.0 M46.8 42.4 L46.25 41.55 M7.05 33.9 Q6.8 37.05 6.7 40.1 L6.7 40.4 M19.6 40.1 L19.25 39.9 M29.75 38.45 L30.35 39.25 M36.6 40.9 L37.4 41.7 37.1 40.5" fill="none" stroke="#000000" stroke-linecap="round" stroke-linejoin="round" stroke-width="1.5"/>
    </g>
    <g id="sprite20" transform="matrix(1.0, 0.0, 0.0, 1.0, 0.5, 0.9)">
      <use ffdec:characterId="112" height="11.7" transform="matrix(1.0, 0.0, 0.0, 1.0, 5.45, 3.1)" width="39.1" xlink:href="#shape18"/>
      <use ffdec:characterId="138" height="18.55" id="mc101" transform="matrix(1.0, 0.0, 0.0, 1.0, 1.8, 0.0)" width="46.4" xlink:href="#sprite21"/>
      <use ffdec:characterId="139" height="17.4" id="mc102" transform="matrix(1.0, 0.0, 0.0, 1.0, 0.0, 3.35)" width="50.0" xlink:href="#sprite22"/>
      <use ffdec:characterId="140" height="4.6" id="mc103" transform="matrix(1.0, 0.0, 0.0, 1.0, 22.75, 6.5)" width="4.6" xlink:href="#sprite23"/>
      <use ffdec:characterId="141" height="22.15" transform="matrix(1.0, 0.0, 0.0, 1.0, -0.5, -0.9)" width="51.0" xlink:href="#shape22"/>
    </g>
    <g id="shape18" transform="matrix(1.0, 0.0, 0.0, 1.0, -5.45, -3.1)">
      <path d="M43.25 14.4 Q38.1 13.75 33.25 11.5 32.1 7.6 34.1 3.65 39.25 2.4 44.3 4.1 45.15 8.6 43.25 14.4 M15.9 4.0 Q17.9 7.95 16.75 11.9 11.95 14.1 6.75 14.8 4.85 8.95 5.7 4.5 10.8 2.75 15.9 4.0" fill="#ccffff" fill-rule="evenodd" stroke="none"/>
    </g>
    <g id="sprite21" transform="matrix(1.0, 0.0, 0.0, 1.0, 0.0, 0.0)">
      <use ffdec:characterId="113" height="18.55" transform="matrix(1.0, 0.0, 0.0, 1.0, 0.0, 0.0)" width="46.4" xlink:href="#shape19"/>
    </g>
    <g id="shape19" transform="matrix(1.0, 0.0, 0.0, 1.0, 0.0, 0.0)">
      <path d="M41.45 14.4 Q43.35 8.6 42.5 4.1 37.45 2.4 32.3 3.65 30.3 7.6 31.45 11.5 36.3 13.75 41.45 14.4 M46.4 4.7 Q46.2 9.4 45.15 14.25 44.15 19.05 39.95 18.0 L33.05 15.35 Q26.2 13.2 27.5 6.2 L27.65 5.5 Q27.8 4.3 28.3 3.4 29.65 1.05 33.35 0.45 38.0 -0.45 43.0 0.4 45.85 1.3 46.3 4.0 L46.4 4.7 M14.1 4.0 Q9.0 2.75 3.9 4.5 3.05 8.95 4.95 14.8 10.15 14.1 14.95 11.9 16.1 7.95 14.1 4.0 M13.05 0.8 Q16.75 1.45 18.1 3.75 18.6 4.65 18.75 5.85 L18.9 6.6 Q20.2 13.55 13.35 15.7 L6.45 18.35 Q2.25 19.4 1.25 14.6 0.2 9.8 0.0 5.05 L0.1 4.4 Q0.6 1.65 3.4 0.75 8.4 -0.1 13.05 0.8" fill="#999999" fill-rule="evenodd" stroke="none"/>
    </g>
    <g id="sprite22" transform="matrix(1.0, 0.0, 0.0, 1.0, 0.0, 0.0)">
      <use ffdec:characterId="115" height="17.4" transform="matrix(1.0, 0.0, 0.0, 1.0, 0.0, 0.0)" width="50.0" xlink:href="#shape20"/>
    </g>
    <g id="shape20" transform="matrix(1.0, 0.0, 0.0, 1.0, 0.0, 0.0)">
      <path d="M49.35 10.4 Q48.65 13.65 46.9 16.05 44.1 18.25 36.7 15.45 29.3 12.7 28.1 9.95 27.65 8.85 27.35 7.75 27.0 6.4 27.0 5.0 26.95 4.1 27.05 3.15 27.1 2.35 27.3 1.5 28.4 -0.3 30.1 0.05 29.6 0.95 29.45 2.15 L29.3 2.85 Q28.0 9.85 34.85 12.0 L41.75 14.65 Q45.95 15.7 46.95 10.9 48.0 6.05 48.2 1.35 L48.1 0.65 Q49.9 0.25 50.0 3.75 50.15 7.3 49.35 10.4 M22.95 3.15 L23.05 5.0 22.75 7.75 21.9 10.3 Q20.7 13.05 13.3 15.85 5.9 18.6 3.1 16.4 1.4 14.0 0.65 10.75 -0.15 7.65 0.0 4.15 0.1 0.6 1.9 1.05 L1.8 1.7 Q2.0 6.45 3.05 11.25 4.05 16.05 8.25 15.0 L15.15 12.35 Q22.0 10.2 20.7 3.25 L20.55 2.5 Q20.4 1.3 19.9 0.4 21.6 0.1 22.7 1.85 L22.95 3.15" fill="#333333" fill-rule="evenodd" stroke="none"/>
    </g>
    <g id="sprite23" transform="matrix(1.0, 0.0, 0.0, 1.0, 0.0, 0.0)">
      <use ffdec:characterId="117" height="4.6" transform="matrix(1.0, 0.0, 0.0, 1.0, 0.0, 0.0)" width="4.6" xlink:href="#shape21"/>
    </g>
    <g id="shape21" transform="matrix(1.0, 0.0, 0.0, 1.0, 0.0, 0.0)">
      <path d="M0.3 1.85 L0.2 0.0 4.3 0.0 Q4.2 0.95 4.25 1.85 4.25 3.25 4.6 4.6 L0.0 4.6 0.3 1.85" fill="#999999" fill-rule="evenodd" stroke="none"/>
    </g>
    <g id="shape22" transform="matrix(1.0, 0.0, 0.0, 1.0, 0.5, 0.9)">
      <path d="M43.25 14.4 Q38.1 13.75 33.25 11.5 32.1 7.6 34.1 3.65 39.25 2.4 44.3 4.1 45.15 8.6 43.25 14.4 M48.1 4.0 L48.2 4.7 Q48.0 9.4 46.95 14.25 45.95 19.05 41.75 18.0 L34.85 15.35 Q28.0 13.2 29.3 6.2 L29.45 5.5 Q29.6 4.3 30.1 3.4 31.45 1.05 35.15 0.45 39.8 -0.45 44.8 0.4 47.65 1.3 48.1 4.0 M19.9 3.75 Q20.4 4.65 20.55 5.85 L20.7 6.6 Q22.0 13.55 15.15 15.7 L8.25 18.35 Q4.05 19.4 3.05 14.6 2.0 9.8 1.8 5.05 L1.9 4.4 Q2.4 1.65 5.2 0.75 10.2 -0.1 14.85 0.8 18.55 1.45 19.9 3.75 M15.9 4.0 Q10.8 2.75 5.7 4.5 4.85 8.95 6.75 14.8 11.95 14.1 16.75 11.9 17.9 7.95 15.9 4.0" fill="none" stroke="#000000" stroke-linecap="round" stroke-linejoin="round" stroke-width="1.8"/>
      <path d="M30.1 3.4 Q28.4 3.05 27.3 4.85 27.1 5.7 27.05 6.5 26.95 7.45 27.0 8.35 27.0 9.75 27.35 11.1 27.65 12.2 28.1 13.3 29.3 16.05 36.7 18.8 44.1 21.6 46.9 19.4 48.65 17.0 49.35 13.75 50.15 10.65 50.0 7.1 49.9 3.6 48.1 4.0 M1.9 4.4 Q0.1 3.95 0.0 7.5 -0.15 11.0 0.65 14.1 1.4 17.35 3.1 19.75 5.9 21.95 13.3 19.2 20.7 16.4 21.9 13.65 L22.75 11.1 23.05 8.35 22.95 6.5 22.7 5.2 Q21.6 3.45 19.9 3.75 M23.05 8.35 L27.0 8.35 M22.95 6.5 L27.05 6.5 M27.35 11.1 L22.75 11.1" fill="none" stroke="#000000" stroke-linecap="round" stroke-linejoin="round" stroke-width="1.0"/>
    </g>
    <g id="sprite24" transform="matrix(1.0, 0.0, 0.0, 1.0, 1.8, 0.9)">
      <use ffdec:characterId="205" height="18.5" id="mc000" transform="matrix(1.0, 0.0, 0.0, 1.0, -1.8, -0.9)" width="27.7" xlink:href="#sprite25"/>
    </g>
    <g id="sprite25" transform="matrix(1.0, 0.0, 0.0, 1.0, 1.8, 0.9)">
      <use ffdec:characterId="203" height="16.7" id="mc100" transform="matrix(1.0, 0.0, 0.0, 1.0, -0.9, 0.0)" width="25.9" xlink:href="#sprite26"/>
      <use ffdec:characterId="204" height="18.5" transform="matrix(1.0, 0.0, 0.0, 1.0, -1.8, -0.9)" width="27.7" xlink:href="#shape24"/>
    </g>
    <g id="sprite26" transform="matrix(1.0, 0.0, 0.0, 1.0, 0.0, 0.0)">
      <use ffdec:characterId="107" height="16.7" transform="matrix(1.0, 0.0, 0.0, 1.0, 0.0, 0.0)" width="25.9" xlink:href="#shape23"/>
    </g>
    <g id="shape23" transform="matrix(1.0, 0.0, 0.0, 1.0, 0.0, 0.0)">
      <path d="M24.65 6.0 L25.9 9.9 Q20.35 14.65 13.2 16.7 L13.05 12.65 10.1 12.65 9.75 14.7 Q3.7 14.5 0.0 9.25 L1.7 6.0 2.3 0.0 Q13.05 1.35 23.8 0.5 L24.65 6.0" fill="#ffcc00" fill-rule="evenodd" stroke="none"/>
    </g>
    <g id="shape24" transform="matrix(1.0, 0.0, 0.0, 1.0, 1.8, 0.9)">
      <path d="M23.3 3.25 L23.75 6.0 25.0 9.9 Q19.45 14.65 12.3 16.7 L12.15 12.65 9.2 12.65 8.85 14.7 Q2.8 14.5 -0.9 9.25 L0.8 6.0 1.1 3.0 1.4 0.0 Q12.15 1.35 22.9 0.5 L23.3 3.25 Q12.0 3.6 1.1 3.0 M12.15 12.65 L12.15 6.0 0.8 6.0 M23.75 6.0 L12.15 6.0" fill="none" stroke="#000000" stroke-linecap="round" stroke-linejoin="round" stroke-width="1.8"/>
    </g>
    <g id="sprite28" transform="matrix(1.0, 0.0, 0.0, 1.0, 0.25, -4.05)">
      <use ffdec:characterId="1112" height="64.15" id="mc200" transform="matrix(1.0, 0.0, 0.0, 1.0, 5.85, 11.8)" width="49.35" xlink:href="#sprite29"/>
      <use ffdec:characterId="1115" height="52.35" id="mc100" transform="matrix(1.0, 0.0, 0.0, 1.0, 13.5, 18.5)" width="39.5" xlink:href="#sprite31"/>
      <use ffdec:characterId="1116" height="77.2" transform="matrix(1.0, 0.0, 0.0, 1.0, -0.25, 4.05)" width="58.45" xlink:href="#shape27"/>
    </g>
    <g id="sprite29" transform="matrix(1.0, 0.0, 0.0, 1.0, 0.0, 0.0)">
      <use ffdec:characterId="1111" height="64.15" id="mc000" transform="matrix(1.0, 0.0, 0.0, 1.0, 0.0, 0.0)" width="49.35" xlink:href="#sprite30"/>
    </g>
    <g id="sprite30" transform="matrix(1.0, 0.0, 0.0, 1.0, 0.0, 0.0)">
      <use ffdec:characterId="1110" height="64.15" transform="matrix(1.0, 0.0, 0.0, 1.0, 0.0, 0.0)" width="49.35" xlink:href="#shape25"/>
    </g>
    <g id="shape25" transform="matrix(1.0, 0.0, 0.0, 1.0, 0.0, 0.0)">
      <path d="M47.65 0.15 L47.9 0.2 49.35 1.65 47.5 7.3 46.45 7.0 47.5 7.35 47.15 8.4 45.5 7.1 45.6 6.7 36.4 11.0 38.9 4.4 47.65 0.0 47.65 0.15 M0.8 62.2 L0.0 62.75 1.75 55.1 8.45 49.3 7.55 57.45 8.05 57.1 9.7 59.05 2.8 64.15 0.85 62.15 0.8 62.2" fill="#00cc99" fill-rule="evenodd" stroke="none"/>
    </g>
    <g id="sprite31" transform="matrix(1.0, 0.0, 0.0, 1.0, 0.0, 0.0)">
      <use ffdec:characterId="1114" height="52.35" id="mc000" transform="matrix(1.0, 0.0, 0.0, 1.0, 0.0, 0.0)" width="39.5" xlink:href="#sprite32"/>
    </g>
    <g id="sprite32" transform="matrix(1.0, 0.0, 0.0, 1.0, 0.0, 0.0)">
      <use ffdec:characterId="1113" height="52.35" transform="matrix(1.0, 0.0, 0.0, 1.0, 0.0, 0.0)" width="39.5" xlink:href="#shape26"/>
    </g>
    <g id="shape26" transform="matrix(1.0, 0.0, 0.0, 1.0, 0.0, 0.0)">
      <path d="M37.85 0.4 L37.65 1.05 39.5 1.7 29.55 31.9 2.05 52.35 0.0 49.95 0.8 42.6 18.15 27.65 18.55 26.8 19.2 25.5 Q24.65 14.75 28.75 4.3 L37.95 0.0 37.85 0.4" fill="#006666" fill-rule="evenodd" stroke="none"/>
    </g>
    <g id="shape27" transform="matrix(1.0, 0.0, 0.0, 1.0, 0.25, -4.05)">
      <path d="M53.5 11.8 L44.75 16.2 45.6 13.65 Q49.05 7.4 55.3 5.3 L53.5 11.8 M0.7 78.1 L4.55 69.5 7.6 66.9 5.85 74.55 0.7 78.1" fill="#fafff5" fill-rule="evenodd" stroke="none"/>
      <path d="M13.4 69.25 L13.5 68.45 13.9 68.9 13.4 69.25" fill="#006666" fill-rule="evenodd" stroke="none"/>
      <path d="M53.35 19.15 L52.3 18.8 53.35 19.1 53.35 19.15" fill="#666600" fill-rule="evenodd" stroke="none"/>
      <path d="M53.5 11.95 L53.5 11.8 55.3 5.3 55.8 4.8 57.45 6.5 55.2 13.45 53.75 12.0 53.5 11.95 M8.65 75.95 L2.5 80.5 0.5 78.4 0.7 78.1 5.85 74.55 6.65 74.0 6.7 73.95 8.65 75.95 M51.35 18.9 L53.0 20.2 51.15 19.55 51.35 18.9" fill="#ffffff" fill-rule="evenodd" stroke="none"/>
      <path d="M53.5 11.95 L53.5 11.8 44.75 16.2 42.25 22.8 51.45 18.5 53.5 11.95 M55.3 5.3 L53.5 11.8 M55.3 5.3 Q49.05 7.4 45.6 13.65 L44.75 16.2 M0.7 78.1 L4.55 69.5 7.6 66.9 14.3 61.1 31.65 46.15 32.05 45.3 32.7 44.0 Q38.15 33.25 42.25 22.8 M51.35 18.9 L51.15 19.55 Q46.75 33.35 40.8 48.15 M51.35 18.9 L51.45 18.5 M40.75 48.3 L40.65 48.5 38.8 49.95 37.75 50.85 Q25.95 60.25 13.9 68.9 L13.4 69.25 13.5 68.45 14.3 61.1 M6.7 73.95 L13.4 69.25 M0.7 78.1 L5.85 74.55 7.6 66.9 M5.85 74.55 L6.65 74.0" fill="none" stroke="#000000" stroke-linecap="round" stroke-linejoin="round" stroke-width="1.8"/>
      <path d="M53.75 12.0 L55.2 13.45 57.45 6.5 55.8 4.8 M53.35 19.15 L53.35 19.1 55.2 13.45 M53.35 19.15 L53.0 20.2 43.05 50.4 42.95 50.5 15.55 70.85 8.65 75.95 2.5 80.5 0.5 78.4 M53.0 20.2 L51.35 18.9 M40.8 48.15 L40.75 48.3 42.95 50.5 M13.9 68.9 L15.55 70.85 M6.65 74.0 L6.7 73.95 8.65 75.95 M13.9 68.9 L13.5 68.45" fill="none" stroke="#000000" stroke-linecap="round" stroke-linejoin="round" stroke-width="1.5"/>
    </g>
    <g id="sprite33" transform="matrix(1.0, 0.0, 0.0, 1.0, 0.9, 0.9)">
      <use ffdec:characterId="537" height="8.1" id="mc100" transform="matrix(1.0, 0.0, 0.0, 1.0, 0.0, 0.0)" width="8.1" xlink:href="#sprite34"/>
      <use ffdec:characterId="538" height="9.9" transform="matrix(1.0, 0.0, 0.0, 1.0, -0.9, -0.9)" width="9.9" xlink:href="#shape29"/>
    </g>
    <g id="sprite34" transform="matrix(1.0, 0.0, 0.0, 1.0, 0.0, 0.0)">
      <use ffdec:characterId="536" height="8.1" transform="matrix(1.0, 0.0, 0.0, 1.0, 0.0, 0.0)" width="8.1" xlink:href="#shape28"/>
    </g>
    <g id="shape28" transform="matrix(1.0, 0.0, 0.0, 1.0, 0.0, 0.0)">
      <path d="M1.15 6.9 Q0.0 5.75 0.0 4.05 0.0 2.35 1.15 1.15 2.35 0.0 4.05 0.0 5.75 0.0 6.9 1.15 8.1 2.35 8.1 4.05 8.1 5.75 6.9 6.9 5.75 8.1 4.05 8.1 2.35 8.1 1.15 6.9" fill="#c4a44a" fill-rule="evenodd" stroke="none"/>
    </g>
    <g id="shape29" transform="matrix(1.0, 0.0, 0.0, 1.0, 0.9, 0.9)">
      <path d="M1.15 6.9 Q0.0 5.75 0.0 4.05 0.0 2.35 1.15 1.15 2.35 0.0 4.05 0.0 5.75 0.0 6.9 1.15 8.1 2.35 8.1 4.05 8.1 5.75 6.9 6.9 5.75 8.1 4.05 8.1 2.35 8.1 1.15 6.9 Z" fill="none" stroke="#000000" stroke-linecap="round" stroke-linejoin="round" stroke-width="1.8"/>
    </g>
    <g id="shape30" transform="matrix(1.0, 0.0, 0.0, 1.0, 7.6, 5.45)">
      <path d="M4.55 -3.05 Q5.15 -2.7 5.35 -2.0 L5.45 -1.45 6.2 -1.15 Q7.0 -0.65 7.3 0.25 7.5 -0.1 7.95 -0.25 L8.85 -0.1 9.45 0.6 9.3 1.5 8.6 2.1 8.45 2.1 8.9 2.85 Q9.0 3.5 8.7 4.1 L7.7 4.85 6.9 4.9 6.7 5.25 Q6.15 6.15 5.25 6.4 L3.35 6.15 2.5 5.35 1.4 6.15 -0.25 5.95 Q-0.95 5.55 -1.15 4.8 L-1.6 5.0 -2.85 4.85 -3.4 4.3 -3.6 3.8 Q-3.8 3.25 -3.55 2.7 L-3.5 2.55 Q-3.15 1.95 -2.45 1.8 L-2.25 1.75 -3.85 1.0 Q-5.15 0.25 -5.5 -1.15 -5.85 -2.55 -5.1 -3.7 -4.45 -5.0 -3.05 -5.35 -1.7 -5.7 -0.4 -4.95 L0.55 -4.15 Q0.85 -4.6 1.45 -4.75 L2.8 -4.55 Q3.35 -4.25 3.55 -3.55 L3.6 -3.3 4.55 -3.05" fill="#8d4900" fill-opacity="0.49803922" fill-rule="evenodd" stroke="none"/>
      <path d="M7.0 -1.75 Q7.65 -1.75 8.15 -1.25 L8.55 -0.55 8.85 -0.6 Q9.3 -0.6 9.65 -0.25 L9.95 0.5 9.65 1.25 Q9.3 1.6 8.85 1.6 L8.55 1.55 8.55 1.7 8.4 2.2 7.8 2.45 7.3 2.2 7.05 1.7 7.05 1.5 7.0 1.5 Q6.35 1.5 5.85 1.05 5.35 0.6 5.4 -0.1 5.35 -0.75 5.85 -1.25 6.35 -1.75 7.0 -1.75 M6.85 4.45 Q7.15 4.45 7.4 4.7 L7.65 5.25 7.4 5.8 6.85 6.05 6.65 6.0 6.65 6.1 6.5 6.5 6.1 6.65 5.7 6.5 5.55 6.1 5.55 6.0 5.5 6.0 Q5.05 6.0 4.7 5.65 4.3 5.35 4.35 4.8 4.3 4.35 4.7 4.0 5.05 3.6 5.5 3.65 5.95 3.6 6.35 4.0 L6.6 4.5 6.85 4.45 M-4.55 2.45 L-5.1 2.7 -5.3 2.65 -5.3 2.75 Q-5.3 3.0 -5.45 3.15 L-5.85 3.3 -6.25 3.15 -6.4 2.75 -6.4 2.65 -6.45 2.65 Q-6.9 2.65 -7.25 2.3 L-7.6 1.45 Q-7.65 1.0 -7.25 0.65 -6.9 0.25 -6.45 0.3 -6.0 0.25 -5.6 0.65 -5.4 0.85 -5.35 1.15 L-5.1 1.1 -4.55 1.35 Q-4.3 1.6 -4.3 1.9 -4.3 2.25 -4.55 2.45" fill="#893900" fill-opacity="0.49803922" fill-rule="evenodd" stroke="none"/>
    </g>
  </defs>
</svg>
