<?xml version="1.0" encoding="UTF-8" standalone="no"?>
<svg xmlns:ffdec="https://www.free-decompiler.com/flash" xmlns:xlink="http://www.w3.org/1999/xlink" ffdec:objectType="frame" height="114.95px" width="137.2px" xmlns="http://www.w3.org/2000/svg">
  <g transform="matrix(1.0, 0.0, 0.0, 1.0, 64.15, 110.35)">
    <use ffdec:characterId="172" height="79.3" id="mc23220" transform="matrix(0.909, 0.4104, -0.4104, 0.909, 5.6513, -98.8375)" width="74.0" xlink:href="#sprite0"/>
    <use ffdec:characterId="173" height="18.85" id="mc22220" transform="matrix(0.68, 0.726, -0.726, 0.68, -4.1693, -24.6031)" width="10.9" xlink:href="#sprite6"/>
    <use ffdec:characterId="173" height="18.85" id="mc21220" transform="matrix(0.9943, 0.1004, -0.1004, 0.9943, 3.8817, -18.0428)" width="10.9" xlink:href="#sprite6"/>
    <use ffdec:characterId="178" height="18.55" id="mc20220" transform="matrix(0.7546, 0.6471, -0.6471, 0.7546, -7.6291, -46.7204)" width="15.75" xlink:href="#sprite7"/>
    <use ffdec:characterId="178" height="18.55" id="mc19220" transform="matrix(-0.9813, -0.1688, -0.1688, 0.9813, 30.4387, -29.6102)" width="15.75" xlink:href="#sprite7"/>
    <use ffdec:characterId="181" height="20.65" id="mc18220" transform="matrix(0.918, 0.3905, -0.3905, 0.918, 1.5433, -40.2311)" width="21.15" xlink:href="#sprite10"/>
    <use ffdec:characterId="185" height="22.9" id="mc17220" transform="matrix(0.909, 0.4104, -0.4104, 0.909, 3.1513, -46.528)" width="23.0" xlink:href="#sprite13"/>
    <use ffdec:characterId="186" height="21.35" id="mc16220" transform="matrix(0.898, 0.4341, -0.4341, 0.898, 1.4, -41.55)" width="23.6" xlink:href="#sprite16"/>
    <use ffdec:characterId="189" height="10.05" id="mc15220" transform="matrix(0.909, 0.4104, -0.4104, 0.909, -1.5987, -41.1875)" width="12.85" xlink:href="#sprite17"/>
    <use ffdec:characterId="190" height="10.05" id="mc14220" transform="matrix(0.909, 0.4104, -0.4104, 0.909, 12.2513, -35.3875)" width="12.85" xlink:href="#sprite20"/>
    <use ffdec:characterId="1220" height="44.0" id="mc13220" transform="matrix(0.8517, 0.5184, -0.5184, 0.8517, 9.6999, -80.6831)" width="53.45" xlink:href="#sprite21"/>
    <use ffdec:characterId="1237" height="15.9" id="mc12220" transform="matrix(1.0, 0.0, 0.0, 1.0, -4.95, -50.1)" width="15.9" xlink:href="#sprite23"/>
    <use ffdec:characterId="1241" height="14.6" id="mc11220" transform="matrix(1.0, 0.0, 0.0, 1.0, 13.65, -37.75)" width="15.9" xlink:href="#sprite25"/>
    <use ffdec:characterId="1248" height="7.3" transform="matrix(1.0, 0.0, 0.0, 1.0, 20.15, -45.95)" width="13.7" xlink:href="#morphshape0"/>
    <use ffdec:characterId="1249" height="12.95" transform="matrix(1.0, 0.0, 0.0, 1.0, 9.05, -59.1)" width="4.55" xlink:href="#morphshape1"/>
    <use ffdec:characterId="1250" height="6.25" transform="matrix(1.0, 0.0, 0.0, 1.0, 8.6, -37.6)" width="3.45" xlink:href="#morphshape2"/>
    <use ffdec:characterId="1251" height="7.1" transform="matrix(1.0, 0.0, 0.0, 1.0, 20.4, -42.95)" width="12.55" xlink:href="#morphshape3"/>
    <use ffdec:characterId="1252" height="8.2" transform="matrix(1.0, 0.0, 0.0, 1.0, 1.5, -54.2)" width="12.0" xlink:href="#morphshape4"/>
    <use ffdec:characterId="1229" height="45.9" id="hide_hat" transform="matrix(1.0, 0.0, 0.0, 1.0, -8.55, -93.25)" width="75.1" xlink:href="#sprite27"/>
    <use ffdec:characterId="1233" height="54.45" id="mc4220" transform="matrix(1.0, 0.0, 0.0, 1.0, -15.65, -77.35)" width="69.75" xlink:href="#sprite29"/>
    <use ffdec:characterId="1124" height="12.1" transform="matrix(1.9264, 0.0, 0.0, 1.9264, -57.5406, -65.4488)" width="17.55" xlink:href="#shape25"/>
    <use ffdec:characterId="206" height="18.5" id="mc2220" transform="matrix(0.909, 0.4104, -0.4104, 0.909, -7.1668, -29.2069)" width="27.7" xlink:href="#sprite31"/>
    <use ffdec:characterId="142" height="22.15" id="hide_hat8" transform="matrix(0.8517, 0.5184, -0.5184, 0.8517, 15.8406, -90.2757)" width="51.0" xlink:href="#sprite34"/>
    <use ffdec:characterId="1210" height="0.0" id="hat" transform="matrix(1.0, 0.0, 0.0, 1.0, 0.0, 0.0)" width="0.0" xlink:href="#sprite38"/>
  </g>
  <defs>
    <g id="sprite0" transform="matrix(1.0, 0.0, 0.0, 1.0, 0.9, 0.9)">
      <use ffdec:characterId="169" height="66.3" id="mc200" transform="matrix(1.0, 0.0, 0.0, 1.0, 6.8, 9.25)" width="63.0" xlink:href="#sprite1"/>
      <use ffdec:characterId="171" height="53.85" id="mc100" transform="matrix(1.0, 0.0, 0.0, 1.0, 16.75, 18.6)" width="50.35" xlink:href="#sprite4"/>
      <use ffdec:characterId="9" height="79.3" transform="matrix(1.0, 0.0, 0.0, 1.0, -0.9, -0.9)" width="74.0" xlink:href="#shape2"/>
    </g>
    <g id="sprite1" transform="matrix(1.0, 0.0, 0.0, 1.0, 0.0, 0.0)">
      <use ffdec:characterId="168" height="66.3" id="mc000" transform="matrix(1.0, 0.0, 0.0, 1.0, 0.0, 0.0)" width="63.0" xlink:href="#sprite2"/>
    </g>
    <g id="sprite2" transform="matrix(1.0, 0.0, 0.0, 1.0, 0.0, 0.0)">
      <use ffdec:characterId="167" height="66.3" id="mc000" transform="matrix(1.0, 0.0, 0.0, 1.0, 0.0, 0.0)" width="63.0" xlink:href="#sprite3"/>
    </g>
    <g id="sprite3" transform="matrix(1.0, 0.0, 0.0, 1.0, 0.0, 0.0)">
      <use ffdec:characterId="1" height="66.3" transform="matrix(1.0, 0.0, 0.0, 1.0, 0.0, 0.0)" width="63.0" xlink:href="#shape0"/>
    </g>
    <g id="shape0" transform="matrix(1.0, 0.0, 0.0, 1.0, 0.0, 0.0)">
      <path d="M60.3 9.35 L48.15 9.55 51.45 0.8 63.0 0.0 60.3 9.35 M11.2 50.8 L9.95 63.2 0.0 66.3 2.35 55.3 11.2 50.8" fill="#00cc99" fill-rule="evenodd" stroke="none"/>
    </g>
    <g id="sprite4" transform="matrix(1.0, 0.0, 0.0, 1.0, 0.0, 0.0)">
      <use ffdec:characterId="170" height="53.85" id="mc000" transform="matrix(1.0, 0.0, 0.0, 1.0, 0.0, 0.0)" width="50.35" xlink:href="#sprite5"/>
    </g>
    <g id="sprite5" transform="matrix(1.0, 0.0, 0.0, 1.0, 0.0, 0.0)">
      <use ffdec:characterId="6" height="53.85" transform="matrix(1.0, 0.0, 0.0, 1.0, 0.0, 0.0)" width="50.35" xlink:href="#shape1"/>
    </g>
    <g id="shape1" transform="matrix(1.0, 0.0, 0.0, 1.0, 0.0, 0.0)">
      <path d="M38.2 0.2 L50.35 0.0 Q44.35 19.8 36.1 40.2 18.3 47.9 0.0 53.85 L1.25 41.45 Q12.7 35.7 24.15 29.9 32.25 15.3 38.2 0.2" fill="#006666" fill-rule="evenodd" stroke="none"/>
    </g>
    <g id="shape2" transform="matrix(1.0, 0.0, 0.0, 1.0, 0.9, 0.9)">
      <path d="M58.25 10.05 L59.4 6.6 Q63.9 -0.95 72.2 0.15 L69.8 9.25 58.25 10.05 M9.15 64.55 L6.8 75.55 0.0 77.5 5.15 66.55 9.15 64.55" fill="#fafff5" fill-rule="evenodd" stroke="none"/>
      <path d="M54.95 18.8 Q49.0 33.9 40.9 48.5 L18.0 60.05 16.75 72.45 Q35.05 66.5 52.85 58.8 61.1 38.4 67.1 18.6 L54.95 18.8 58.25 10.05 59.4 6.6 Q63.9 -0.95 72.2 0.15 L69.8 9.25 67.1 18.6 M58.25 10.05 L69.8 9.25 M9.15 64.55 L6.8 75.55 16.75 72.45 M6.8 75.55 L0.0 77.5 5.15 66.55 9.15 64.55 18.0 60.05" fill="none" stroke="#000000" stroke-linecap="round" stroke-linejoin="round" stroke-width="1.8"/>
    </g>
    <g id="sprite6" transform="matrix(1.0, 0.0, 0.0, 1.0, 4.95, 9.5)">
      <use ffdec:characterId="18" height="18.85" transform="matrix(1.0, 0.0, 0.0, 1.0, -4.95, -9.5)" width="10.9" xlink:href="#shape3"/>
    </g>
    <g id="shape3" transform="matrix(1.0, 0.0, 0.0, 1.0, 4.95, 9.5)">
      <path d="M5.05 5.55 L5.05 5.7 Q5.15 6.65 3.9 7.45 2.7 8.25 0.95 8.4 -0.8 8.55 -2.15 7.95 -3.45 7.45 -3.55 6.5 L-3.55 6.35 -3.5 6.35 4.7 5.5 5.05 5.55" fill="#000000" fill-rule="evenodd" stroke="none"/>
      <path d="M-3.55 6.1 L-3.65 3.85 -4.05 -6.3 Q-4.1 -7.15 -3.15 -7.75 -2.1 -8.4 -0.55 -8.55 L2.1 -8.25 Q3.15 -7.75 3.3 -7.0 L3.35 -6.85 3.35 -6.65 4.7 3.05 5.05 5.45 4.7 5.5 -3.5 6.35 -3.55 6.1 M4.7 3.05 L-3.65 3.85 4.7 3.05" fill="#ffffff" fill-rule="evenodd" stroke="none"/>
      <path d="M-3.55 6.1 L-3.65 3.85 -4.05 -6.3 Q-4.1 -7.15 -3.15 -7.75 -2.1 -8.4 -0.55 -8.55 L2.1 -8.25 Q3.15 -7.75 3.3 -7.0 L3.35 -6.85 3.35 -6.65 4.7 3.05 5.05 5.45 5.05 5.55 5.05 5.7 Q5.15 6.65 3.9 7.45 2.7 8.25 0.95 8.4 -0.8 8.55 -2.15 7.95 -3.45 7.45 -3.55 6.5 L-3.55 6.35 -3.55 6.1 M-3.5 6.35 L4.7 5.5 M-3.55 6.35 L-3.5 6.35 M-3.65 3.85 L4.7 3.05" fill="none" stroke="#000000" stroke-linecap="round" stroke-linejoin="round" stroke-width="1.8"/>
    </g>
    <g id="sprite7" transform="matrix(1.0, 0.0, 0.0, 1.0, 7.85, 8.8)">
      <use ffdec:characterId="174" height="6.5" id="mc400" transform="matrix(1.0, 0.0, 0.0, 1.0, -5.35, 2.35)" width="7.55" xlink:href="#sprite8"/>
      <use ffdec:characterId="175" height="16.1" transform="matrix(1.0, 0.0, 0.0, 1.0, -6.25, -6.35)" width="14.15" xlink:href="#shape5"/>
      <use ffdec:characterId="176" height="15.5" id="mc200" transform="matrix(1.0, 0.0, 0.0, 1.0, -6.95, -7.9)" width="13.95" xlink:href="#sprite9"/>
      <use ffdec:characterId="177" height="17.3" transform="matrix(1.0, 0.0, 0.0, 1.0, -7.85, -8.8)" width="15.75" xlink:href="#shape7"/>
    </g>
    <g id="sprite8" transform="matrix(1.0, 0.0, 0.0, 1.0, 0.0, 0.0)">
      <use ffdec:characterId="12" height="6.5" transform="matrix(1.0, 0.0, 0.0, 1.0, 0.0, 0.0)" width="7.55" xlink:href="#shape4"/>
    </g>
    <g id="shape4" transform="matrix(1.0, 0.0, 0.0, 1.0, 0.0, 0.0)">
      <path d="M6.45 2.8 L7.55 2.7 7.1 3.95 Q6.5 5.65 5.2 6.2 3.75 6.8 2.3 6.2 0.8 5.55 0.2 4.15 -0.3 2.8 0.5 1.2 L1.1 0.0 Q2.7 2.0 4.75 2.55 L6.3 2.9 6.45 2.8" fill="#b59155" fill-rule="evenodd" stroke="none"/>
    </g>
    <g id="shape5" transform="matrix(1.0, 0.0, 0.0, 1.0, 6.25, 6.35)">
      <path d="M6.8 -4.7 L6.7 -4.4 7.0 -5.45 6.8 -4.7" fill="#ffffff" fill-rule="evenodd" stroke="none"/>
      <path d="M6.8 -4.7 L7.0 -5.45 6.7 -4.4 6.8 -4.7 3.75 2.45 2.2 5.05 1.75 6.3 Q1.15 8.0 -0.15 8.55 -1.6 9.15 -3.05 8.55 -4.55 7.9 -5.15 6.5 -5.65 5.15 -4.85 3.55 L-4.25 2.35 -4.1 1.95 M2.2 5.05 L1.1 5.15 M-2.55 -1.8 L-2.7 -1.55 M-0.6 4.9 Q-2.65 4.35 -4.25 2.35" fill="none" stroke="#000000" stroke-linecap="round" stroke-linejoin="round" stroke-width="1.8"/>
    </g>
    <g id="sprite9" transform="matrix(1.0, 0.0, 0.0, 1.0, 0.0, 0.0)">
      <use ffdec:characterId="14" height="15.5" transform="matrix(1.0, 0.0, 0.0, 1.0, 0.0, 0.0)" width="13.95" xlink:href="#shape6"/>
    </g>
    <g id="shape6" transform="matrix(1.0, 0.0, 0.0, 1.0, 0.0, 0.0)">
      <path d="M10.4 10.55 L10.7 10.75 8.8 15.5 8.75 15.5 8.5 15.4 7.2 13.05 4.05 14.4 3.95 14.15 3.6 10.9 3.35 10.55 0.0 10.55 4.3 6.05 4.4 6.15 5.05 5.25 Q10.05 0.45 11.25 0.15 12.45 -0.25 13.25 0.4 14.1 1.05 13.95 2.25 L13.95 2.45 13.65 3.5 10.4 10.55" fill="#ffffff" fill-rule="evenodd" stroke="none"/>
    </g>
    <g id="shape7" transform="matrix(1.0, 0.0, 0.0, 1.0, 7.85, 8.8)">
      <path d="M-2.65 -1.85 L-6.95 2.65 -3.4 2.65 -3.0 6.25 M1.85 7.6 L3.75 2.85 M-2.9 6.5 L0.25 5.15 1.55 7.5 M3.35 2.6 L-2.45 -1.7" fill="none" stroke="#000000" stroke-linecap="round" stroke-linejoin="round" stroke-width="1.8"/>
      <path d="M7.0 -5.65 Q7.15 -6.85 6.3 -7.5 5.5 -8.15 4.3 -7.75 3.1 -7.45 -1.9 -2.65 M6.7 -4.4 L3.5 2.9" fill="none" stroke="#000000" stroke-linecap="round" stroke-linejoin="round" stroke-width="1.8"/>
    </g>
    <g id="sprite10" transform="matrix(1.0, 0.0, 0.0, 1.0, 0.05, 5.35)">
      <use ffdec:characterId="81" height="20.65" transform="matrix(1.0, 0.0, 0.0, 1.0, -0.05, -5.35)" width="21.15" xlink:href="#shape8"/>
      <use ffdec:characterId="180" height="18.85" id="mc001" transform="matrix(1.0, 0.0, 0.0, 1.0, 0.85, -4.45)" width="19.35" xlink:href="#sprite11"/>
    </g>
    <g id="shape8" transform="matrix(1.0, 0.0, 0.0, 1.0, 0.05, 5.35)">
      <path d="M18.55 -4.45 L20.2 13.7 14.15 14.2 8.6 14.4 0.85 14.15 1.7 -3.95 18.55 -4.45 Z" fill="none" stroke="#000000" stroke-linecap="round" stroke-linejoin="round" stroke-width="1.8"/>
    </g>
    <g id="sprite11" transform="matrix(1.0, 0.0, 0.0, 1.0, 0.0, 0.0)">
      <use ffdec:characterId="179" height="18.85" id="mc000" transform="matrix(1.0, 0.0, 0.0, 1.0, 0.0, 0.0)" width="19.35" xlink:href="#sprite12"/>
    </g>
    <g id="sprite12" transform="matrix(1.0, 0.0, 0.0, 1.0, 0.0, 0.0)">
      <use ffdec:characterId="82" height="18.85" transform="matrix(1.0, 0.0, 0.0, 1.0, 0.0, 0.0)" width="19.35" xlink:href="#shape9"/>
    </g>
    <g id="shape9" transform="matrix(1.0, 0.0, 0.0, 1.0, 0.0, 0.0)">
      <path d="M19.35 18.15 L13.3 18.65 7.75 18.85 0.0 18.6 0.85 0.5 17.7 0.0 19.35 18.15" fill="#b59155" fill-rule="evenodd" stroke="none"/>
    </g>
    <g id="sprite13" transform="matrix(1.0, 0.0, 0.0, 1.0, 0.9, 7.6)">
      <use ffdec:characterId="183" height="21.1" id="mc100" transform="matrix(1.0, 0.0, 0.0, 1.0, 0.0, -6.7)" width="21.2" xlink:href="#sprite14"/>
      <use ffdec:characterId="184" height="22.9" transform="matrix(1.0, 0.0, 0.0, 1.0, -0.9, -7.6)" width="23.0" xlink:href="#shape11"/>
    </g>
    <g id="sprite14" transform="matrix(1.0, 0.0, 0.0, 1.0, 0.0, 0.0)">
      <use ffdec:characterId="182" height="21.1" id="mc000" transform="matrix(1.0, 0.0, 0.0, 1.0, 0.0, 0.0)" width="21.2" xlink:href="#sprite15"/>
    </g>
    <g id="sprite15" transform="matrix(1.0, 0.0, 0.0, 1.0, 0.0, 0.0)">
      <use ffdec:characterId="86" height="21.1" transform="matrix(1.0, 0.0, 0.0, 1.0, 0.0, 0.0)" width="21.2" xlink:href="#shape10"/>
    </g>
    <g id="shape10" transform="matrix(1.0, 0.0, 0.0, 1.0, 0.0, 0.0)">
      <path d="M21.2 20.3 L14.55 20.9 13.7 0.2 19.35 0.0 21.2 20.3 M8.5 21.1 L0.0 20.8 0.95 0.6 8.1 0.6 8.5 21.1" fill="#ffffff" fill-rule="evenodd" stroke="none"/>
    </g>
    <g id="shape11" transform="matrix(1.0, 0.0, 0.0, 1.0, 0.9, 7.6)">
      <path d="M19.35 -6.7 L21.2 13.6 14.55 14.2 13.7 -6.5 19.35 -6.7 M8.5 14.4 L0.0 14.1 0.95 -6.1 8.1 -6.1 8.5 13.65" fill="none" stroke="#000000" stroke-linecap="round" stroke-linejoin="round" stroke-width="1.8"/>
    </g>
    <g id="sprite16" transform="matrix(1.0, 0.0, 0.0, 1.0, 0.0, 0.0)">
      <use ffdec:characterId="33" height="21.35" transform="matrix(1.0, 0.0, 0.0, 1.0, 0.0, 0.0)" width="23.6" xlink:href="#shape12"/>
    </g>
    <g id="shape12" transform="matrix(1.0, 0.0, 0.0, 1.0, 0.0, 0.0)">
      <path d="M22.2 0.0 L23.6 1.6 23.3 2.05 Q11.6 13.1 0.3 21.35 L0.0 21.3 0.7 18.35 22.2 0.0" fill="#000000" fill-rule="evenodd" stroke="none"/>
    </g>
    <g id="sprite17" transform="matrix(1.0, 0.0, 0.0, 1.0, 0.9, 0.9)">
      <use ffdec:characterId="188" height="10.05" id="mc000" transform="matrix(1.0, 0.0, 0.0, 1.0, -0.9, -0.9)" width="12.85" xlink:href="#sprite18"/>
    </g>
    <g id="sprite18" transform="matrix(1.0, 0.0, 0.0, 1.0, 0.9, 0.9)">
      <use ffdec:characterId="187" height="8.25" id="mc100" transform="matrix(1.0, 0.0, 0.0, 1.0, 0.0, 0.0)" width="11.05" xlink:href="#sprite19"/>
      <use ffdec:characterId="36" height="10.05" transform="matrix(1.0, 0.0, 0.0, 1.0, -0.9, -0.9)" width="12.85" xlink:href="#shape14"/>
    </g>
    <g id="sprite19" transform="matrix(1.0, 0.0, 0.0, 1.0, 0.0, 0.0)">
      <use ffdec:characterId="34" height="8.25" transform="matrix(1.0, 0.0, 0.0, 1.0, 0.0, 0.0)" width="11.05" xlink:href="#shape13"/>
    </g>
    <g id="shape13" transform="matrix(1.0, 0.0, 0.0, 1.0, 0.0, 0.0)">
      <path d="M7.5 5.75 L3.6 8.25 3.2 4.7 0.0 4.7 3.35 0.0 10.1 1.1 11.05 8.25 7.5 5.75" fill="#ffffff" fill-rule="evenodd" stroke="none"/>
    </g>
    <g id="shape14" transform="matrix(1.0, 0.0, 0.0, 1.0, 0.9, 0.9)">
      <path d="M10.1 1.1 L11.05 8.25 7.5 5.75 3.6 8.25 3.2 4.7 0.0 4.7 3.35 0.0 10.1 1.1 Z" fill="none" stroke="#000000" stroke-linecap="round" stroke-linejoin="round" stroke-width="1.8"/>
    </g>
    <g id="sprite20" transform="matrix(1.0, 0.0, 0.0, 1.0, 0.9, 0.9)">
      <use ffdec:characterId="188" height="10.05" id="mc000" transform="matrix(-1.0, 0.0, 0.0, 1.0, 11.95, -0.9)" width="12.85" xlink:href="#sprite18"/>
    </g>
    <g id="sprite21" transform="matrix(1.0, 0.0, 0.0, 1.0, 0.9, 0.9)">
      <use ffdec:characterId="1218" height="42.2" id="mc100" transform="matrix(1.0, 0.0, 0.0, 1.0, 0.0, 0.0)" width="51.65" xlink:href="#sprite22"/>
      <use ffdec:characterId="1219" height="44.0" transform="matrix(1.0, 0.0, 0.0, 1.0, -0.9, -0.9)" width="53.45" xlink:href="#shape16"/>
    </g>
    <g id="sprite22" transform="matrix(1.0, 0.0, 0.0, 1.0, 0.0, 0.0)">
      <use ffdec:characterId="1217" height="42.2" transform="matrix(1.0, 0.0, 0.0, 1.0, 0.0, 0.0)" width="51.65" xlink:href="#shape15"/>
    </g>
    <g id="shape15" transform="matrix(1.0, 0.0, 0.0, 1.0, 0.0, 0.0)">
      <path d="M51.2 0.0 Q53.25 15.4 45.75 29.2 41.5 35.55 32.8 39.6 23.6 44.8 14.35 39.6 4.9 35.15 2.9 25.25 L0.0 0.0 51.2 0.0" fill="#c4a44a" fill-rule="evenodd" stroke="none"/>
    </g>
    <g id="shape16" transform="matrix(1.0, 0.0, 0.0, 1.0, 0.9, 0.9)">
      <path d="M51.2 0.0 L0.0 0.0 2.9 25.25 Q4.9 35.15 14.35 39.6 23.6 44.8 32.8 39.6 41.5 35.55 45.75 29.2 53.25 15.4 51.2 0.0 Z" fill="none" stroke="#000000" stroke-linecap="round" stroke-linejoin="round" stroke-width="1.8"/>
    </g>
    <g id="sprite23" transform="matrix(1.0, 0.0, 0.0, 1.0, 0.9, 0.9)">
      <use ffdec:characterId="1235" height="14.1" id="mc100" transform="matrix(1.0, 0.0, 0.0, 1.0, 0.0, 0.0)" width="14.1" xlink:href="#sprite24"/>
      <use ffdec:characterId="1236" height="15.9" transform="matrix(1.0, 0.0, 0.0, 1.0, -0.9, -0.9)" width="15.9" xlink:href="#shape18"/>
    </g>
    <g id="sprite24" transform="matrix(1.0, 0.0, 0.0, 1.0, 0.0, 0.0)">
      <use ffdec:characterId="1234" height="14.1" transform="matrix(1.0, 0.0, 0.0, 1.0, 0.0, 0.0)" width="14.1" xlink:href="#shape17"/>
    </g>
    <g id="shape17" transform="matrix(1.0, 0.0, 0.0, 1.0, 0.0, 0.0)">
      <path d="M12.25 7.5 L14.1 7.5 Q13.95 10.1 12.0 12.0 10.0 14.1 7.05 14.1 4.1 14.1 2.05 12.0 0.0 9.95 0.0 7.05 0.0 4.1 2.05 2.0 4.1 0.0 7.05 0.0 L7.55 0.05 7.55 1.65 10.15 1.65 10.15 5.8 12.25 5.8 12.25 7.5" fill="#c4a44a" fill-rule="evenodd" stroke="none"/>
    </g>
    <g id="shape18" transform="matrix(1.0, 0.0, 0.0, 1.0, 0.9, 0.9)">
      <path d="M7.55 0.05 L7.05 0.0 Q4.1 0.0 2.05 2.0 0.0 4.1 0.0 7.05 0.0 9.95 2.05 12.0 4.1 14.1 7.05 14.1 10.0 14.1 12.0 12.0 13.95 10.1 14.1 7.5" fill="none" stroke="#000000" stroke-linecap="round" stroke-linejoin="round" stroke-width="1.8"/>
    </g>
    <g id="sprite25" transform="matrix(1.0, 0.0, 0.0, 1.0, 0.9, 0.15)">
      <use ffdec:characterId="1239" height="12.8" id="mc100" transform="matrix(1.0, 0.0, 0.0, 1.0, 0.0, 0.75)" width="14.1" xlink:href="#sprite26"/>
      <use ffdec:characterId="1240" height="14.6" transform="matrix(1.0, 0.0, 0.0, 1.0, -0.9, -0.15)" width="15.9" xlink:href="#shape20"/>
    </g>
    <g id="sprite26" transform="matrix(1.0, 0.0, 0.0, 1.0, 0.0, 0.0)">
      <use ffdec:characterId="1238" height="12.8" transform="matrix(1.0, 0.0, 0.0, 1.0, 0.0, 0.0)" width="14.1" xlink:href="#shape19"/>
    </g>
    <g id="shape19" transform="matrix(1.0, 0.0, 0.0, 1.0, 0.0, 0.0)">
      <path d="M12.65 1.4 Q14.1 3.3 14.1 5.75 14.1 8.65 12.0 10.7 10.0 12.8 7.05 12.8 4.1 12.8 2.05 10.7 0.0 8.65 0.0 5.75 0.0 2.8 2.05 0.7 2.45 0.3 2.9 0.0 L3.75 0.0 3.75 2.45 9.8 2.45 9.8 1.4 12.65 1.4" fill="#c4a44a" fill-rule="evenodd" stroke="none"/>
    </g>
    <g id="shape20" transform="matrix(1.0, 0.0, 0.0, 1.0, 0.9, 0.15)">
      <path d="M2.9 0.75 Q2.45 1.05 2.05 1.45 0.0 3.55 0.0 6.5 0.0 9.4 2.05 11.45 4.1 13.55 7.05 13.55 10.0 13.55 12.0 11.45 14.1 9.4 14.1 6.5 14.1 4.05 12.65 2.15" fill="none" stroke="#000000" stroke-linecap="round" stroke-linejoin="round" stroke-width="1.8"/>
    </g>
    <g id="morphshape0" transform="matrix(1.0, 0.0, 0.0, 1.0, -20.15, 45.95)">
      <path d="M21.05 -40.5 L32.95 -43.55" fill="none" stroke="#000000" stroke-linecap="round" stroke-linejoin="round" stroke-width="1.8"/>
    </g>
    <g id="morphshape1" transform="matrix(1.0, 0.0, 0.0, 1.0, -9.05, 59.1)">
      <path d="M9.95 -56.7 L12.7 -48.0" fill="none" stroke="#000000" stroke-linecap="round" stroke-linejoin="round" stroke-width="1.8"/>
    </g>
    <g id="morphshape2" transform="matrix(1.0, 0.0, 0.0, 1.0, -8.6, 37.6)">
      <path d="M8.6 -33.7 L10.75 -32.3 11.35 -33.1 Q11.9 -33.95 12.05 -34.75 12.05 -35.6 11.55 -35.9 11.05 -36.25 10.4 -35.9 9.6 -35.5 9.05 -34.65 L8.6 -33.7" fill="#000000" fill-rule="evenodd" stroke="none"/>
      <path d="M8.6 -33.7 L9.05 -34.65 Q9.6 -35.5 10.4 -35.9 11.05 -36.25 11.55 -35.9 12.05 -35.6 12.05 -34.75 11.9 -33.95 11.35 -33.1 L10.75 -32.3 8.6 -33.7 Z" fill="none" stroke="#000000" stroke-linecap="round" stroke-linejoin="round" stroke-opacity="0.0" stroke-width="0.0"/>
    </g>
    <g id="morphshape3" transform="matrix(1.0, 0.0, 0.0, 1.0, -20.4, 42.95)">
      <path d="M21.3 -40.55 Q27.35 -40.1 32.05 -37.7" fill="none" stroke="#000000" stroke-linecap="round" stroke-linejoin="round" stroke-width="1.8"/>
    </g>
    <g id="morphshape4" transform="matrix(1.0, 0.0, 0.0, 1.0, -1.5, 54.2)">
      <path d="M2.4 -51.8 Q8.35 -50.95 12.6 -47.85" fill="none" stroke="#000000" stroke-linecap="round" stroke-linejoin="round" stroke-width="1.8"/>
    </g>
    <g id="sprite27" transform="matrix(1.0, 0.0, 0.0, 1.0, -6.2, 0.9)">
      <use ffdec:characterId="1227" height="44.1" id="mc100" transform="matrix(1.0, 0.0, 0.0, 1.0, 7.1, 0.0)" width="73.3" xlink:href="#sprite28"/>
      <use ffdec:characterId="1228" height="45.9" transform="matrix(1.0, 0.0, 0.0, 1.0, 6.2, -0.9)" width="75.1" xlink:href="#shape22"/>
    </g>
    <g id="sprite28" transform="matrix(1.0, 0.0, 0.0, 1.0, -7.1, 0.0)">
      <use ffdec:characterId="1226" height="44.1" transform="matrix(1.0, 0.0, 0.0, 1.0, 7.1, 0.0)" width="73.3" xlink:href="#shape21"/>
    </g>
    <g id="shape21" transform="matrix(1.0, 0.0, 0.0, 1.0, -7.1, 0.0)">
      <path d="M51.7 7.4 Q54.05 4.65 53.7 0.0 57.5 5.0 56.6 9.95 L56.65 10.15 Q65.75 16.1 70.45 24.7 L70.9 25.55 Q73.45 36.8 80.4 43.7 73.7 44.75 70.85 42.95 67.95 41.15 55.45 39.9 42.95 38.55 30.55 28.3 L18.15 18.0 18.5 18.0 7.1 1.85 Q15.05 8.3 24.05 6.6 L24.7 6.45 Q37.0 1.0 41.8 5.6 L41.7 0.6 Q48.55 2.6 51.7 7.4" fill="#ff6600" fill-rule="evenodd" stroke="none"/>
    </g>
    <g id="shape22" transform="matrix(1.0, 0.0, 0.0, 1.0, -6.2, 0.9)">
      <path d="M42.35 6.2 L41.95 5.75 41.8 5.6 Q37.0 1.0 24.7 6.45 L24.05 6.6 Q15.05 8.3 7.1 1.85 L18.15 17.45 18.1 17.45 21.65 21.7 M41.8 5.6 L41.7 0.6 Q48.55 2.6 51.7 7.4 54.05 4.65 53.7 0.0 57.5 5.0 56.6 9.95 L56.65 10.15 Q65.75 16.1 70.45 24.7 L70.9 25.55 Q73.45 36.8 80.4 43.7 74.95 45.2 67.45 41.1" fill="none" stroke="#000000" stroke-linecap="round" stroke-linejoin="round" stroke-width="1.8"/>
    </g>
    <g id="sprite29" transform="matrix(1.0, 0.0, 0.0, 1.0, 0.9, -15.0)">
      <use ffdec:characterId="1231" height="52.65" id="mc100" transform="matrix(1.0, 0.0, 0.0, 1.0, 0.0, 15.9)" width="67.95" xlink:href="#sprite30"/>
      <use ffdec:characterId="1232" height="54.45" transform="matrix(1.0, 0.0, 0.0, 1.0, -0.9, 15.0)" width="69.75" xlink:href="#shape24"/>
    </g>
    <g id="sprite30" transform="matrix(1.0, 0.0, 0.0, 1.0, 0.0, -15.9)">
      <use ffdec:characterId="1230" height="52.65" transform="matrix(1.0, 0.0, 0.0, 1.0, 0.0, 15.9)" width="67.95" xlink:href="#shape23"/>
    </g>
    <g id="shape23" transform="matrix(1.0, 0.0, 0.0, 1.0, 0.0, -15.9)">
      <path d="M18.1 18.05 Q49.2 22.55 67.95 40.8 64.65 56.4 57.85 68.55 54.35 53.25 46.2 39.9 L46.4 52.75 36.45 34.55 32.35 41.95 31.85 31.3 22.2 37.55 22.95 29.9 Q10.5 35.45 0.0 34.15 7.7 30.5 11.8 24.35 L0.1 15.9 Q9.6 19.9 18.1 18.05" fill="#ff6600" fill-rule="evenodd" stroke="none"/>
    </g>
    <g id="shape24" transform="matrix(1.0, 0.0, 0.0, 1.0, 0.9, -15.0)">
      <path d="M36.15 34.0 L36.45 34.55 46.4 52.75 46.2 39.9 45.85 39.1 M18.15 17.45 Q9.25 19.85 0.1 15.9 L11.8 24.35 12.45 24.8 M23.5 29.65 L22.95 29.9 22.2 37.55 31.85 31.3 32.35 41.95 36.45 34.55 M11.8 24.35 Q7.7 30.5 0.0 34.15 10.5 35.45 22.95 29.9 M67.95 40.75 Q64.65 56.4 57.85 68.55 54.35 53.25 46.2 39.9" fill="none" stroke="#000000" stroke-linecap="round" stroke-linejoin="round" stroke-width="1.8"/>
    </g>
    <g id="shape25" transform="matrix(1.0, 0.0, 0.0, 1.0, 7.6, 5.45)">
      <path d="M4.55 -3.05 Q5.15 -2.7 5.35 -2.0 L5.45 -1.45 6.2 -1.15 Q7.0 -0.65 7.3 0.25 7.5 -0.1 7.95 -0.25 L8.85 -0.1 9.45 0.6 9.3 1.5 8.6 2.1 8.45 2.1 8.9 2.85 Q9.0 3.5 8.7 4.1 L7.7 4.85 6.9 4.9 6.7 5.25 Q6.15 6.15 5.25 6.4 L3.35 6.15 2.5 5.35 1.4 6.15 -0.25 5.95 Q-0.95 5.55 -1.15 4.8 L-1.6 5.0 -2.85 4.85 -3.4 4.3 -3.6 3.8 Q-3.8 3.25 -3.55 2.7 L-3.5 2.55 Q-3.15 1.95 -2.45 1.8 L-2.25 1.75 -3.85 1.0 Q-5.15 0.25 -5.5 -1.15 -5.85 -2.55 -5.1 -3.7 -4.45 -5.0 -3.05 -5.35 -1.7 -5.7 -0.4 -4.95 L0.55 -4.15 Q0.85 -4.6 1.45 -4.75 L2.8 -4.55 Q3.35 -4.25 3.55 -3.55 L3.6 -3.3 4.55 -3.05" fill="#94d6ff" fill-opacity="0.6862745" fill-rule="evenodd" stroke="none"/>
      <path d="M7.0 -1.75 Q7.65 -1.75 8.15 -1.25 L8.55 -0.55 8.85 -0.6 Q9.3 -0.6 9.65 -0.25 L9.95 0.5 9.65 1.25 Q9.3 1.6 8.85 1.6 L8.55 1.55 8.55 1.7 8.4 2.2 7.8 2.45 7.3 2.2 7.05 1.7 7.05 1.5 7.0 1.5 Q6.35 1.5 5.85 1.05 5.35 0.6 5.4 -0.1 5.35 -0.75 5.85 -1.25 6.35 -1.75 7.0 -1.75 M6.85 4.45 Q7.15 4.45 7.4 4.7 L7.65 5.25 7.4 5.8 6.85 6.05 6.65 6.0 6.65 6.1 6.5 6.5 6.1 6.65 5.7 6.5 5.55 6.1 5.55 6.0 5.5 6.0 Q5.05 6.0 4.7 5.65 4.3 5.35 4.35 4.8 4.3 4.35 4.7 4.0 5.05 3.6 5.5 3.65 5.95 3.6 6.35 4.0 L6.6 4.5 6.85 4.45 M-4.55 2.45 L-5.1 2.7 -5.3 2.65 -5.3 2.75 Q-5.3 3.0 -5.45 3.15 L-5.85 3.3 -6.25 3.15 -6.4 2.75 -6.4 2.65 -6.45 2.65 Q-6.9 2.65 -7.25 2.3 L-7.6 1.45 Q-7.65 1.0 -7.25 0.65 -6.9 0.25 -6.45 0.3 -6.0 0.25 -5.6 0.65 -5.4 0.85 -5.35 1.15 L-5.1 1.1 -4.55 1.35 Q-4.3 1.6 -4.3 1.9 -4.3 2.25 -4.55 2.45" fill="#81bade" fill-opacity="0.6862745" fill-rule="evenodd" stroke="none"/>
    </g>
    <g id="sprite31" transform="matrix(1.0, 0.0, 0.0, 1.0, 1.8, 0.9)">
      <use ffdec:characterId="205" height="18.5" id="mc000" transform="matrix(1.0, 0.0, 0.0, 1.0, -1.8, -0.9)" width="27.7" xlink:href="#sprite32"/>
    </g>
    <g id="sprite32" transform="matrix(1.0, 0.0, 0.0, 1.0, 1.8, 0.9)">
      <use ffdec:characterId="203" height="16.7" id="mc100" transform="matrix(1.0, 0.0, 0.0, 1.0, -0.9, 0.0)" width="25.9" xlink:href="#sprite33"/>
      <use ffdec:characterId="204" height="18.5" transform="matrix(1.0, 0.0, 0.0, 1.0, -1.8, -0.9)" width="27.7" xlink:href="#shape27"/>
    </g>
    <g id="sprite33" transform="matrix(1.0, 0.0, 0.0, 1.0, 0.0, 0.0)">
      <use ffdec:characterId="107" height="16.7" transform="matrix(1.0, 0.0, 0.0, 1.0, 0.0, 0.0)" width="25.9" xlink:href="#shape26"/>
    </g>
    <g id="shape26" transform="matrix(1.0, 0.0, 0.0, 1.0, 0.0, 0.0)">
      <path d="M24.65 6.0 L25.9 9.9 Q20.35 14.65 13.2 16.7 L13.05 12.65 10.1 12.65 9.75 14.7 Q3.7 14.5 0.0 9.25 L1.7 6.0 2.3 0.0 Q13.05 1.35 23.8 0.5 L24.65 6.0" fill="#ffcc00" fill-rule="evenodd" stroke="none"/>
    </g>
    <g id="shape27" transform="matrix(1.0, 0.0, 0.0, 1.0, 1.8, 0.9)">
      <path d="M23.3 3.25 L23.75 6.0 25.0 9.9 Q19.45 14.65 12.3 16.7 L12.15 12.65 9.2 12.65 8.85 14.7 Q2.8 14.5 -0.9 9.25 L0.8 6.0 1.1 3.0 1.4 0.0 Q12.15 1.35 22.9 0.5 L23.3 3.25 Q12.0 3.6 1.1 3.0 M12.15 12.65 L12.15 6.0 0.8 6.0 M23.75 6.0 L12.15 6.0" fill="none" stroke="#000000" stroke-linecap="round" stroke-linejoin="round" stroke-width="1.8"/>
    </g>
    <g id="sprite34" transform="matrix(1.0, 0.0, 0.0, 1.0, 0.5, 0.9)">
      <use ffdec:characterId="112" height="11.7" transform="matrix(1.0, 0.0, 0.0, 1.0, 5.45, 3.1)" width="39.1" xlink:href="#shape28"/>
      <use ffdec:characterId="138" height="18.55" id="mc101" transform="matrix(1.0, 0.0, 0.0, 1.0, 1.8, 0.0)" width="46.4" xlink:href="#sprite35"/>
      <use ffdec:characterId="139" height="17.4" id="mc102" transform="matrix(1.0, 0.0, 0.0, 1.0, 0.0, 3.35)" width="50.0" xlink:href="#sprite36"/>
      <use ffdec:characterId="140" height="4.6" id="mc103" transform="matrix(1.0, 0.0, 0.0, 1.0, 22.75, 6.5)" width="4.6" xlink:href="#sprite37"/>
      <use ffdec:characterId="141" height="22.15" transform="matrix(1.0, 0.0, 0.0, 1.0, -0.5, -0.9)" width="51.0" xlink:href="#shape32"/>
    </g>
    <g id="shape28" transform="matrix(1.0, 0.0, 0.0, 1.0, -5.45, -3.1)">
      <path d="M43.25 14.4 Q38.1 13.75 33.25 11.5 32.1 7.6 34.1 3.65 39.25 2.4 44.3 4.1 45.15 8.6 43.25 14.4 M15.9 4.0 Q17.9 7.95 16.75 11.9 11.95 14.1 6.75 14.8 4.85 8.95 5.7 4.5 10.8 2.75 15.9 4.0" fill="#ccffff" fill-rule="evenodd" stroke="none"/>
    </g>
    <g id="sprite35" transform="matrix(1.0, 0.0, 0.0, 1.0, 0.0, 0.0)">
      <use ffdec:characterId="113" height="18.55" transform="matrix(1.0, 0.0, 0.0, 1.0, 0.0, 0.0)" width="46.4" xlink:href="#shape29"/>
    </g>
    <g id="shape29" transform="matrix(1.0, 0.0, 0.0, 1.0, 0.0, 0.0)">
      <path d="M41.45 14.4 Q43.35 8.6 42.5 4.1 37.45 2.4 32.3 3.65 30.3 7.6 31.45 11.5 36.3 13.75 41.45 14.4 M46.4 4.7 Q46.2 9.4 45.15 14.25 44.15 19.05 39.95 18.0 L33.05 15.35 Q26.2 13.2 27.5 6.2 L27.65 5.5 Q27.8 4.3 28.3 3.4 29.65 1.05 33.35 0.45 38.0 -0.45 43.0 0.4 45.85 1.3 46.3 4.0 L46.4 4.7 M14.1 4.0 Q9.0 2.75 3.9 4.5 3.05 8.95 4.95 14.8 10.15 14.1 14.95 11.9 16.1 7.95 14.1 4.0 M13.05 0.8 Q16.75 1.45 18.1 3.75 18.6 4.65 18.75 5.85 L18.9 6.6 Q20.2 13.55 13.35 15.7 L6.45 18.35 Q2.25 19.4 1.25 14.6 0.2 9.8 0.0 5.05 L0.1 4.4 Q0.6 1.65 3.4 0.75 8.4 -0.1 13.05 0.8" fill="#999999" fill-rule="evenodd" stroke="none"/>
    </g>
    <g id="sprite36" transform="matrix(1.0, 0.0, 0.0, 1.0, 0.0, 0.0)">
      <use ffdec:characterId="115" height="17.4" transform="matrix(1.0, 0.0, 0.0, 1.0, 0.0, 0.0)" width="50.0" xlink:href="#shape30"/>
    </g>
    <g id="shape30" transform="matrix(1.0, 0.0, 0.0, 1.0, 0.0, 0.0)">
      <path d="M49.35 10.4 Q48.65 13.65 46.9 16.05 44.1 18.25 36.7 15.45 29.3 12.7 28.1 9.95 27.65 8.85 27.35 7.75 27.0 6.4 27.0 5.0 26.95 4.1 27.05 3.15 27.1 2.35 27.3 1.5 28.4 -0.3 30.1 0.05 29.6 0.95 29.45 2.15 L29.3 2.85 Q28.0 9.85 34.85 12.0 L41.75 14.65 Q45.95 15.7 46.95 10.9 48.0 6.05 48.2 1.35 L48.1 0.65 Q49.9 0.25 50.0 3.75 50.15 7.3 49.35 10.4 M22.95 3.15 L23.05 5.0 22.75 7.75 21.9 10.3 Q20.7 13.05 13.3 15.85 5.9 18.6 3.1 16.4 1.4 14.0 0.65 10.75 -0.15 7.65 0.0 4.15 0.1 0.6 1.9 1.05 L1.8 1.7 Q2.0 6.45 3.05 11.25 4.05 16.05 8.25 15.0 L15.15 12.35 Q22.0 10.2 20.7 3.25 L20.55 2.5 Q20.4 1.3 19.9 0.4 21.6 0.1 22.7 1.85 L22.95 3.15" fill="#333333" fill-rule="evenodd" stroke="none"/>
    </g>
    <g id="sprite37" transform="matrix(1.0, 0.0, 0.0, 1.0, 0.0, 0.0)">
      <use ffdec:characterId="117" height="4.6" transform="matrix(1.0, 0.0, 0.0, 1.0, 0.0, 0.0)" width="4.6" xlink:href="#shape31"/>
    </g>
    <g id="shape31" transform="matrix(1.0, 0.0, 0.0, 1.0, 0.0, 0.0)">
      <path d="M0.3 1.85 L0.2 0.0 4.3 0.0 Q4.2 0.95 4.25 1.85 4.25 3.25 4.6 4.6 L0.0 4.6 0.3 1.85" fill="#999999" fill-rule="evenodd" stroke="none"/>
    </g>
    <g id="shape32" transform="matrix(1.0, 0.0, 0.0, 1.0, 0.5, 0.9)">
      <path d="M43.25 14.4 Q38.1 13.75 33.25 11.5 32.1 7.6 34.1 3.65 39.25 2.4 44.3 4.1 45.15 8.6 43.25 14.4 M48.1 4.0 L48.2 4.7 Q48.0 9.4 46.95 14.25 45.95 19.05 41.75 18.0 L34.85 15.35 Q28.0 13.2 29.3 6.2 L29.45 5.5 Q29.6 4.3 30.1 3.4 31.45 1.05 35.15 0.45 39.8 -0.45 44.8 0.4 47.65 1.3 48.1 4.0 M19.9 3.75 Q20.4 4.65 20.55 5.85 L20.7 6.6 Q22.0 13.55 15.15 15.7 L8.25 18.35 Q4.05 19.4 3.05 14.6 2.0 9.8 1.8 5.05 L1.9 4.4 Q2.4 1.65 5.2 0.75 10.2 -0.1 14.85 0.8 18.55 1.45 19.9 3.75 M15.9 4.0 Q10.8 2.75 5.7 4.5 4.85 8.95 6.75 14.8 11.95 14.1 16.75 11.9 17.9 7.95 15.9 4.0" fill="none" stroke="#000000" stroke-linecap="round" stroke-linejoin="round" stroke-width="1.8"/>
      <path d="M30.1 3.4 Q28.4 3.05 27.3 4.85 27.1 5.7 27.05 6.5 26.95 7.45 27.0 8.35 27.0 9.75 27.35 11.1 27.65 12.2 28.1 13.3 29.3 16.05 36.7 18.8 44.1 21.6 46.9 19.4 48.65 17.0 49.35 13.75 50.15 10.65 50.0 7.1 49.9 3.6 48.1 4.0 M1.9 4.4 Q0.1 3.95 0.0 7.5 -0.15 11.0 0.65 14.1 1.4 17.35 3.1 19.75 5.9 21.95 13.3 19.2 20.7 16.4 21.9 13.65 L22.75 11.1 23.05 8.35 22.95 6.5 22.7 5.2 Q21.6 3.45 19.9 3.75 M23.05 8.35 L27.0 8.35 M22.95 6.5 L27.05 6.5 M27.35 11.1 L22.75 11.1" fill="none" stroke="#000000" stroke-linecap="round" stroke-linejoin="round" stroke-width="1.0"/>
    </g>
  </defs>
</svg>
