<?xml version="1.0" encoding="UTF-8" standalone="no"?>
<svg xmlns:ffdec="https://www.free-decompiler.com/flash" xmlns:xlink="http://www.w3.org/1999/xlink" ffdec:objectType="frame" height="1577.55px" width="159.65px" xmlns="http://www.w3.org/2000/svg">
  <g transform="matrix(1.0, 0.0, 0.0, 1.0, 77.35, 1570.5)">
    <use ffdec:characterId="861" height="940.4" transform="matrix(1.0, 0.0, 0.0, 1.0, -16.2, -1570.5)" width="3.0" xlink:href="#shape0"/>
    <use ffdec:characterId="931" height="510.9" transform="matrix(1.0, 0.0, 0.0, 1.0, -30.2, -641.35)" width="16.7" xlink:href="#shape1"/>
    <use ffdec:characterId="867" height="79.3" id="mc23100" transform="matrix(-0.7604, 0.6448, -0.6448, -0.7604, 41.9147, -64.9959)" width="74.0" xlink:href="#sprite0"/>
    <use ffdec:characterId="869" height="18.85" id="mc22100" transform="matrix(-0.9914, -0.1118, 0.1118, -0.9914, -25.2549, -117.9284)" width="10.9" xlink:href="#sprite5"/>
    <use ffdec:characterId="869" height="18.85" id="mc21100" transform="matrix(0.3988, 0.9145, -0.9145, 0.3988, -39.0864, -123.5654)" width="10.9" xlink:href="#sprite5"/>
    <use ffdec:characterId="874" height="18.55" id="mc20100" transform="matrix(-0.3362, 0.9386, -0.9386, -0.3362, -10.6514, -118.9597)" width="15.75" xlink:href="#sprite6"/>
    <use ffdec:characterId="874" height="18.55" id="mc19100" transform="matrix(-0.6448, -0.7604, -0.7604, 0.6448, -22.5469, -87.4548)" width="15.75" xlink:href="#sprite6"/>
    <use ffdec:characterId="878" height="20.65" id="mc18100" transform="matrix(-0.7604, 0.6448, -0.6448, -0.7604, -10.3124, -103.7641)" width="21.15" xlink:href="#sprite10"/>
    <use ffdec:characterId="881" height="22.9" id="mc17100" transform="matrix(-0.7604, 0.6448, -0.6448, -0.7604, -8.2153, -102.6012)" width="23.0" xlink:href="#sprite13"/>
    <use ffdec:characterId="882" height="21.35" id="mc16100" transform="matrix(-0.7604, 0.6448, -0.6448, -0.7604, -13.85, -110.05)" width="23.6" xlink:href="#sprite16"/>
    <use ffdec:characterId="885" height="10.05" id="mc15100" transform="matrix(-0.7604, 0.6448, -0.6448, -0.7604, -11.0853, -107.2459)" width="12.85" xlink:href="#sprite17"/>
    <use ffdec:characterId="886" height="10.05" id="mc14100" transform="matrix(-0.7604, 0.6448, -0.6448, -0.7604, -22.2353, -99.3959)" width="12.85" xlink:href="#sprite20"/>
    <use ffdec:characterId="909" height="47.15" id="mc13100" transform="matrix(0.9913, -0.1059, -0.1059, -0.9913, -22.9468, -58.9125)" width="39.4" xlink:href="#sprite21"/>
    <use ffdec:characterId="932" height="15.6" transform="matrix(1.0, 0.0, 0.0, 1.0, -13.15, -91.75)" width="24.95" xlink:href="#shape19"/>
    <use ffdec:characterId="933" height="15.1" transform="matrix(0.0955, 0.9949, -0.9949, 0.0955, 6.7017, -105.9149)" width="2.3" xlink:href="#shape20"/>
    <use ffdec:characterId="912" height="32.3" transform="matrix(0.0842, 0.9939, -0.9939, 0.0842, 13.0823, -100.1086)" width="17.7" xlink:href="#shape21"/>
    <use ffdec:characterId="916" height="74.95" id="mc7100" transform="matrix(0.0842, 0.9939, -0.9939, 0.0842, 25.2881, -107.7321)" width="53.1" xlink:href="#sprite23"/>
    <use ffdec:characterId="920" height="72.75" id="hide_hat" transform="matrix(0.0842, 0.9939, -0.9939, 0.0842, 22.4797, -75.3099)" width="37.4" xlink:href="#sprite25"/>
    <use ffdec:characterId="893" height="18.5" id="mc4100" transform="matrix(-0.7604, 0.6448, -0.6448, -0.7604, -19.401, -119.5262)" width="27.7" xlink:href="#sprite27"/>
    <use ffdec:characterId="925" height="20.15" id="hide_hat8" transform="matrix(0.9913, -0.1059, -0.1059, -0.9913, -17.864, -50.8771)" width="38.05" xlink:href="#sprite30"/>
    <use ffdec:characterId="898" height="0.0" id="hat" transform="matrix(1.0, 0.0, 0.0, 1.0, 0.0, 0.0)" width="0.0" xlink:href="#sprite34"/>
  </g>
  <defs>
    <g id="shape0" transform="matrix(1.0, 0.0, 0.0, 1.0, 16.2, 1570.5)">
      <path d="M-14.7 -1569.0 L-14.7 -631.6" fill="none" stroke="#543822" stroke-linecap="round" stroke-linejoin="round" stroke-width="3.0"/>
    </g>
    <g id="shape1" transform="matrix(1.0, 0.0, 0.0, 1.0, 30.2, 641.35)">
      <path d="M-28.7 -131.95 L-15.0 -639.85" fill="none" stroke="#543822" stroke-linecap="round" stroke-linejoin="round" stroke-width="3.0"/>
    </g>
    <g id="sprite0" transform="matrix(1.0, 0.0, 0.0, 1.0, 0.9, 0.9)">
      <use ffdec:characterId="864" height="53.85" id="mc200" transform="matrix(1.0, 0.0, 0.0, 1.0, 16.75, 18.6)" width="50.35" xlink:href="#sprite1"/>
      <use ffdec:characterId="866" height="66.3" id="mc100" transform="matrix(1.0, 0.0, 0.0, 1.0, 6.8, 9.25)" width="63.0" xlink:href="#sprite3"/>
      <use ffdec:characterId="9" height="79.3" transform="matrix(1.0, 0.0, 0.0, 1.0, -0.9, -0.9)" width="74.0" xlink:href="#shape4"/>
    </g>
    <g id="sprite1" transform="matrix(1.0, 0.0, 0.0, 1.0, 0.0, 0.0)">
      <use ffdec:characterId="863" height="53.85" id="mc000" transform="matrix(1.0, 0.0, 0.0, 1.0, 0.0, 0.0)" width="50.35" xlink:href="#sprite2"/>
    </g>
    <g id="sprite2" transform="matrix(1.0, 0.0, 0.0, 1.0, 0.0, 0.0)">
      <use ffdec:characterId="6" height="53.85" transform="matrix(1.0, 0.0, 0.0, 1.0, 0.0, 0.0)" width="50.35" xlink:href="#shape2"/>
    </g>
    <g id="shape2" transform="matrix(1.0, 0.0, 0.0, 1.0, 0.0, 0.0)">
      <path d="M38.2 0.2 L50.35 0.0 Q44.35 19.8 36.1 40.2 18.3 47.9 0.0 53.85 L1.25 41.45 Q12.7 35.7 24.15 29.9 32.25 15.3 38.2 0.2" fill="#006666" fill-rule="evenodd" stroke="none"/>
    </g>
    <g id="sprite3" transform="matrix(1.0, 0.0, 0.0, 1.0, 0.0, 0.0)">
      <use ffdec:characterId="865" height="66.3" id="mc000" transform="matrix(1.0, 0.0, 0.0, 1.0, 0.0, 0.0)" width="63.0" xlink:href="#sprite4"/>
    </g>
    <g id="sprite4" transform="matrix(1.0, 0.0, 0.0, 1.0, 0.0, 0.0)">
      <use ffdec:characterId="1" height="66.3" transform="matrix(1.0, 0.0, 0.0, 1.0, 0.0, 0.0)" width="63.0" xlink:href="#shape3"/>
    </g>
    <g id="shape3" transform="matrix(1.0, 0.0, 0.0, 1.0, 0.0, 0.0)">
      <path d="M60.3 9.35 L48.15 9.55 51.45 0.8 63.0 0.0 60.3 9.35 M11.2 50.8 L9.95 63.2 0.0 66.3 2.35 55.3 11.2 50.8" fill="#00cc99" fill-rule="evenodd" stroke="none"/>
    </g>
    <g id="shape4" transform="matrix(1.0, 0.0, 0.0, 1.0, 0.9, 0.9)">
      <path d="M58.25 10.05 L59.4 6.6 Q63.9 -0.95 72.2 0.15 L69.8 9.25 58.25 10.05 M9.15 64.55 L6.8 75.55 0.0 77.5 5.15 66.55 9.15 64.55" fill="#fafff5" fill-rule="evenodd" stroke="none"/>
      <path d="M54.95 18.8 Q49.0 33.9 40.9 48.5 L18.0 60.05 16.75 72.45 Q35.05 66.5 52.85 58.8 61.1 38.4 67.1 18.6 L54.95 18.8 58.25 10.05 59.4 6.6 Q63.9 -0.95 72.2 0.15 L69.8 9.25 67.1 18.6 M58.25 10.05 L69.8 9.25 M9.15 64.55 L6.8 75.55 16.75 72.45 M6.8 75.55 L0.0 77.5 5.15 66.55 9.15 64.55 18.0 60.05" fill="none" stroke="#000000" stroke-linecap="round" stroke-linejoin="round" stroke-width="1.8"/>
    </g>
    <g id="sprite5" transform="matrix(1.0, 0.0, 0.0, 1.0, 4.95, 9.5)">
      <use ffdec:characterId="868" height="18.85" transform="matrix(1.0, 0.0, 0.0, 1.0, -4.95, -9.5)" width="10.9" xlink:href="#shape5"/>
    </g>
    <g id="shape5" transform="matrix(1.0, 0.0, 0.0, 1.0, 4.95, 9.5)">
      <path d="M5.05 5.55 L5.05 5.7 Q5.15 6.65 3.9 7.45 2.7 8.25 0.95 8.4 -0.8 8.55 -2.15 7.95 -3.45 7.45 -3.55 6.5 L-3.55 6.35 -3.5 6.35 4.7 5.5 5.05 5.55" fill="#000000" fill-rule="evenodd" stroke="none"/>
      <path d="M-3.55 6.1 L-3.65 3.85 -4.05 -6.3 Q-4.1 -7.15 -3.15 -7.75 -2.1 -8.4 -0.55 -8.55 L2.1 -8.25 Q3.15 -7.75 3.3 -7.0 L3.35 -6.85 3.35 -6.65 4.7 3.05 5.05 5.45 4.7 5.5 -3.5 6.35 -3.55 6.1 M4.7 3.05 L-3.65 3.85 4.7 3.05" fill="#ffffff" fill-rule="evenodd" stroke="none"/>
      <path d="M-3.55 6.1 L-3.65 3.85 -4.05 -6.3 Q-4.1 -7.15 -3.15 -7.75 -2.1 -8.4 -0.55 -8.55 L2.1 -8.25 Q3.15 -7.75 3.3 -7.0 L3.35 -6.85 3.35 -6.65 4.7 3.05 5.05 5.45 5.05 5.55 5.05 5.7 Q5.15 6.65 3.9 7.45 2.7 8.25 0.95 8.4 -0.8 8.55 -2.15 7.95 -3.45 7.45 -3.55 6.5 L-3.55 6.35 -3.55 6.1 M-3.5 6.35 L4.7 5.5 M-3.5 6.35 L-3.55 6.35 M-3.65 3.85 L4.7 3.05" fill="none" stroke="#000000" stroke-linecap="round" stroke-linejoin="round" stroke-width="1.8"/>
    </g>
    <g id="sprite6" transform="matrix(1.0, 0.0, 0.0, 1.0, 7.85, 8.8)">
      <use ffdec:characterId="871" height="6.5" id="mc300" transform="matrix(1.0, 0.0, 0.0, 1.0, -5.35, 2.35)" width="7.55" xlink:href="#sprite7"/>
      <use ffdec:characterId="872" height="18.55" transform="matrix(1.0, 0.0, 0.0, 1.0, -6.25, -8.8)" width="14.15" xlink:href="#shape7"/>
      <use ffdec:characterId="873" height="15.5" id="mc100" transform="matrix(1.0, 0.0, 0.0, 1.0, -6.95, -7.9)" width="13.95" xlink:href="#sprite9"/>
      <use ffdec:characterId="16" height="11.25" transform="matrix(1.0, 0.0, 0.0, 1.0, -7.85, -2.75)" width="12.5" xlink:href="#shape9"/>
    </g>
    <g id="sprite7" transform="matrix(1.0, 0.0, 0.0, 1.0, 0.0, 0.0)">
      <use ffdec:characterId="870" height="6.5" id="mc000" transform="matrix(1.0, 0.0, 0.0, 1.0, 0.0, 0.0)" width="7.55" xlink:href="#sprite8"/>
    </g>
    <g id="sprite8" transform="matrix(1.0, 0.0, 0.0, 1.0, 0.0, 0.0)">
      <use ffdec:characterId="12" height="6.5" transform="matrix(1.0, 0.0, 0.0, 1.0, 0.0, 0.0)" width="7.55" xlink:href="#shape6"/>
    </g>
    <g id="shape6" transform="matrix(1.0, 0.0, 0.0, 1.0, 0.0, 0.0)">
      <path d="M6.45 2.8 L7.55 2.7 7.1 3.95 Q6.5 5.65 5.2 6.2 3.75 6.8 2.3 6.2 0.8 5.55 0.2 4.15 -0.3 2.8 0.5 1.2 L1.1 0.0 Q2.7 2.0 4.75 2.55 L6.3 2.9 6.45 2.8" fill="#b59155" fill-rule="evenodd" stroke="none"/>
    </g>
    <g id="shape7" transform="matrix(1.0, 0.0, 0.0, 1.0, 6.25, 8.8)">
      <path d="M1.1 5.15 L2.2 5.05 3.35 3.3 Q6.95 -4.4 7.0 -5.65 7.15 -6.85 6.3 -7.5 5.5 -8.15 4.3 -7.75 3.1 -7.45 -1.9 -2.65 M3.85 2.5 L3.35 3.3 M-0.6 4.9 Q-2.65 4.35 -4.25 2.35 L-4.85 3.55 Q-5.65 5.15 -5.15 6.5 -4.55 7.9 -3.05 8.55 -1.6 9.15 -0.15 8.55 1.15 8.0 1.75 6.3 L2.2 5.05 M-2.55 -1.8 L-2.7 -1.55 M-4.1 1.95 L-4.25 2.35" fill="none" stroke="#000000" stroke-linecap="round" stroke-linejoin="round" stroke-width="1.8"/>
    </g>
    <g id="sprite9" transform="matrix(1.0, 0.0, 0.0, 1.0, 0.0, 0.0)">
      <use ffdec:characterId="290" height="15.5" transform="matrix(1.0, 0.0, 0.0, 1.0, 0.0, 0.0)" width="13.95" xlink:href="#shape8"/>
    </g>
    <g id="shape8" transform="matrix(1.0, 0.0, 0.0, 1.0, 6.95, 7.75)">
      <path d="M4.3 -7.6 Q5.5 -8.0 6.3 -7.35 7.15 -6.7 7.0 -5.5 6.95 -4.3 3.45 2.8 L3.75 3.0 1.85 7.75 1.8 7.75 1.55 7.65 0.25 5.3 -2.9 6.65 -3.0 6.4 -3.4 3.1 -3.6 2.8 -6.95 2.8 -2.65 -1.7 -2.55 -1.6 -1.9 -2.5 Q3.1 -7.3 4.3 -7.6" fill="#ffffff" fill-rule="evenodd" stroke="none"/>
    </g>
    <g id="shape9" transform="matrix(1.0, 0.0, 0.0, 1.0, 7.85, 2.75)">
      <path d="M-2.65 -1.85 L-6.95 2.65 -3.4 2.65 -3.0 6.25 M1.85 7.6 L3.75 2.85 M-2.9 6.5 L0.25 5.15 1.55 7.5 M3.35 2.6 L-2.45 -1.7" fill="none" stroke="#000000" stroke-linecap="round" stroke-linejoin="round" stroke-width="1.8"/>
    </g>
    <g id="sprite10" transform="matrix(1.0, 0.0, 0.0, 1.0, 0.05, 5.35)">
      <use ffdec:characterId="877" height="18.85" id="mc100" transform="matrix(1.0, 0.0, 0.0, 1.0, 0.85, -4.45)" width="19.35" xlink:href="#sprite11"/>
      <use ffdec:characterId="81" height="20.65" transform="matrix(1.0, 0.0, 0.0, 1.0, -0.05, -5.35)" width="21.15" xlink:href="#shape11"/>
    </g>
    <g id="sprite11" transform="matrix(1.0, 0.0, 0.0, 1.0, 0.0, 0.0)">
      <use ffdec:characterId="876" height="18.85" id="mc000" transform="matrix(1.0, 0.0, 0.0, 1.0, 0.0, 0.0)" width="19.35" xlink:href="#sprite12"/>
    </g>
    <g id="sprite12" transform="matrix(1.0, 0.0, 0.0, 1.0, 0.0, 0.0)">
      <use ffdec:characterId="82" height="18.85" transform="matrix(1.0, 0.0, 0.0, 1.0, 0.0, 0.0)" width="19.35" xlink:href="#shape10"/>
    </g>
    <g id="shape10" transform="matrix(1.0, 0.0, 0.0, 1.0, 0.0, 0.0)">
      <path d="M19.35 18.15 L13.3 18.65 7.75 18.85 0.0 18.6 0.85 0.5 17.7 0.0 19.35 18.15" fill="#b59155" fill-rule="evenodd" stroke="none"/>
    </g>
    <g id="shape11" transform="matrix(1.0, 0.0, 0.0, 1.0, 0.05, 5.35)">
      <path d="M18.55 -4.45 L20.2 13.7 14.15 14.2 8.6 14.4 0.85 14.15 1.7 -3.95 18.55 -4.45 Z" fill="none" stroke="#000000" stroke-linecap="round" stroke-linejoin="round" stroke-width="1.8"/>
    </g>
    <g id="sprite13" transform="matrix(1.0, 0.0, 0.0, 1.0, 0.9, 7.6)">
      <use ffdec:characterId="880" height="21.1" id="mc100" transform="matrix(1.0, 0.0, 0.0, 1.0, 0.0, -6.7)" width="21.2" xlink:href="#sprite14"/>
      <use ffdec:characterId="184" height="22.9" transform="matrix(1.0, 0.0, 0.0, 1.0, -0.9, -7.6)" width="23.0" xlink:href="#shape13"/>
    </g>
    <g id="sprite14" transform="matrix(1.0, 0.0, 0.0, 1.0, 0.0, 0.0)">
      <use ffdec:characterId="879" height="21.1" id="mc000" transform="matrix(1.0, 0.0, 0.0, 1.0, 0.0, 0.0)" width="21.2" xlink:href="#sprite15"/>
    </g>
    <g id="sprite15" transform="matrix(1.0, 0.0, 0.0, 1.0, 0.0, 0.0)">
      <use ffdec:characterId="86" height="21.1" transform="matrix(1.0, 0.0, 0.0, 1.0, 0.0, 0.0)" width="21.2" xlink:href="#shape12"/>
    </g>
    <g id="shape12" transform="matrix(1.0, 0.0, 0.0, 1.0, 0.0, 0.0)">
      <path d="M21.2 20.3 L14.55 20.9 13.7 0.2 19.35 0.0 21.2 20.3 M8.5 21.1 L0.0 20.8 0.95 0.6 8.1 0.6 8.5 21.1" fill="#ffffff" fill-rule="evenodd" stroke="none"/>
    </g>
    <g id="shape13" transform="matrix(1.0, 0.0, 0.0, 1.0, 0.9, 7.6)">
      <path d="M19.35 -6.7 L21.2 13.6 14.55 14.2 13.7 -6.5 19.35 -6.7 M8.5 14.4 L0.0 14.1 0.95 -6.1 8.1 -6.1 8.5 13.65" fill="none" stroke="#000000" stroke-linecap="round" stroke-linejoin="round" stroke-width="1.8"/>
    </g>
    <g id="sprite16" transform="matrix(1.0, 0.0, 0.0, 1.0, 0.0, 0.0)">
      <use ffdec:characterId="33" height="21.35" transform="matrix(1.0, 0.0, 0.0, 1.0, 0.0, 0.0)" width="23.6" xlink:href="#shape14"/>
    </g>
    <g id="shape14" transform="matrix(1.0, 0.0, 0.0, 1.0, 0.0, 0.0)">
      <path d="M22.2 0.0 L23.6 1.6 23.3 2.05 Q11.6 13.1 0.3 21.35 L0.0 21.3 0.7 18.35 22.2 0.0" fill="#000000" fill-rule="evenodd" stroke="none"/>
    </g>
    <g id="sprite17" transform="matrix(1.0, 0.0, 0.0, 1.0, 0.9, 0.9)">
      <use ffdec:characterId="884" height="10.05" id="mc000" transform="matrix(1.0, 0.0, 0.0, 1.0, -0.9, -0.9)" width="12.85" xlink:href="#sprite18"/>
    </g>
    <g id="sprite18" transform="matrix(1.0, 0.0, 0.0, 1.0, 0.9, 0.9)">
      <use ffdec:characterId="883" height="8.25" id="mc100" transform="matrix(1.0, 0.0, 0.0, 1.0, 0.0, 0.0)" width="11.05" xlink:href="#sprite19"/>
      <use ffdec:characterId="36" height="10.05" transform="matrix(1.0, 0.0, 0.0, 1.0, -0.9, -0.9)" width="12.85" xlink:href="#shape16"/>
    </g>
    <g id="sprite19" transform="matrix(1.0, 0.0, 0.0, 1.0, 0.0, 0.0)">
      <use ffdec:characterId="34" height="8.25" transform="matrix(1.0, 0.0, 0.0, 1.0, 0.0, 0.0)" width="11.05" xlink:href="#shape15"/>
    </g>
    <g id="shape15" transform="matrix(1.0, 0.0, 0.0, 1.0, 0.0, 0.0)">
      <path d="M7.5 5.75 L3.6 8.25 3.2 4.7 0.0 4.7 3.35 0.0 10.1 1.1 11.05 8.25 7.5 5.75" fill="#ffffff" fill-rule="evenodd" stroke="none"/>
    </g>
    <g id="shape16" transform="matrix(1.0, 0.0, 0.0, 1.0, 0.9, 0.9)">
      <path d="M10.1 1.1 L11.05 8.25 7.5 5.75 3.6 8.25 3.2 4.7 0.0 4.7 3.35 0.0 10.1 1.1 Z" fill="none" stroke="#000000" stroke-linecap="round" stroke-linejoin="round" stroke-width="1.8"/>
    </g>
    <g id="sprite20" transform="matrix(1.0, 0.0, 0.0, 1.0, 0.9, 0.9)">
      <use ffdec:characterId="884" height="10.05" id="mc000" transform="matrix(-1.0, 0.0, 0.0, 1.0, 11.95, -0.9)" width="12.85" xlink:href="#sprite18"/>
    </g>
    <g id="sprite21" transform="matrix(1.0, 0.0, 0.0, 1.0, 0.9, 0.9)">
      <use ffdec:characterId="908" height="45.35" id="mc100" transform="matrix(1.0, 0.0, 0.0, 1.0, 0.0, 0.0)" width="37.6" xlink:href="#sprite22"/>
      <use ffdec:characterId="46" height="47.15" transform="matrix(1.0, 0.0, 0.0, 1.0, -0.9, -0.9)" width="39.4" xlink:href="#shape18"/>
    </g>
    <g id="sprite22" transform="matrix(1.0, 0.0, 0.0, 1.0, 0.0, 0.0)">
      <use ffdec:characterId="44" height="45.35" transform="matrix(1.0, 0.0, 0.0, 1.0, 0.0, 0.0)" width="37.6" xlink:href="#shape17"/>
    </g>
    <g id="shape17" transform="matrix(1.0, 0.0, 0.0, 1.0, 0.0, 0.0)">
      <path d="M37.6 21.6 L36.35 34.15 Q35.0 44.5 23.9 45.35 L23.4 45.35 Q14.05 45.65 6.25 41.2 L0.0 11.9 21.15 0.5 21.5 0.0 37.15 10.4 37.6 21.6" fill="#c4a44a" fill-rule="evenodd" stroke="none"/>
    </g>
    <g id="shape18" transform="matrix(1.0, 0.0, 0.0, 1.0, 0.9, 0.9)">
      <path d="M21.5 0.0 L37.15 10.4 37.6 21.6 36.35 34.15 Q35.0 44.5 23.9 45.35 L23.4 45.35 Q14.05 45.65 6.25 41.2 L0.0 11.9 21.15 0.5" fill="none" stroke="#000000" stroke-linecap="round" stroke-linejoin="round" stroke-width="1.8"/>
    </g>
    <g id="shape19" transform="matrix(1.0, 0.0, 0.0, 1.0, 13.15, 91.75)">
      <path d="M-12.25 -77.05 Q-8.5 -80.55 -1.45 -80.7" fill="none" stroke="#000000" stroke-linecap="round" stroke-linejoin="round" stroke-width="1.8"/>
      <path d="M4.85 -82.75 Q9.85 -85.9 10.9 -90.85" fill="none" stroke="#000000" stroke-linecap="round" stroke-linejoin="round" stroke-width="1.8"/>
    </g>
    <g id="shape20" transform="matrix(1.0, 0.0, 0.0, 1.0, 1.15, 7.55)">
      <path d="M-0.55 6.95 Q1.45 0.45 -0.15 -6.95" fill="none" stroke="#000000" stroke-linecap="round" stroke-linejoin="round" stroke-width="1.2000000000000002"/>
    </g>
    <g id="shape21" transform="matrix(1.0, 0.0, 0.0, 1.0, 0.75, 0.75)">
      <path d="M14.0 5.8 Q14.0 8.2 12.05 9.9 10.15 11.6 7.4 11.6 4.65 11.6 2.7 9.9 0.8 8.2 0.8 5.8 0.8 3.4 2.7 1.7 4.65 0.0 7.4 0.0 10.15 0.0 12.05 1.7 14.0 3.4 14.0 5.8 M8.1 15.8 Q11.45 15.8 13.8 18.0 16.2 20.2 16.2 23.3 16.2 26.4 13.8 28.6 11.45 30.8 8.1 30.8 4.75 30.8 2.35 28.6 0.0 26.4 0.0 23.3 0.0 20.2 2.35 18.0 4.75 15.8 8.1 15.8" fill="#ffffff" fill-rule="evenodd" stroke="none"/>
      <path d="M8.55 4.75 Q8.25 5.05 7.8 5.05 7.35 5.05 7.05 4.75 6.75 4.45 6.75 4.0 6.75 3.55 7.05 3.25 7.35 2.95 7.8 2.95 8.25 2.95 8.55 3.25 L8.85 4.0 8.55 4.75 M8.65 21.1 L7.9 21.4 Q7.45 21.4 7.15 21.1 6.85 20.8 6.85 20.35 6.85 19.9 7.15 19.6 7.45 19.3 7.9 19.3 8.35 19.3 8.65 19.6 L8.95 20.35 8.65 21.1" fill="#000000" fill-rule="evenodd" stroke="none"/>
      <path d="M12.05 9.9 Q10.15 11.6 7.4 11.6 4.65 11.6 2.7 9.9 0.8 8.2 0.8 5.8 0.8 3.4 2.7 1.7 4.65 0.0 7.4 0.0 10.15 0.0 12.05 1.7 14.0 3.4 14.0 5.8 14.0 8.2 12.05 9.9 M2.35 18.0 Q4.75 15.8 8.1 15.8 11.45 15.8 13.8 18.0 16.2 20.2 16.2 23.3 16.2 26.4 13.8 28.6 11.45 30.8 8.1 30.8 4.75 30.8 2.35 28.6 0.0 26.4 0.0 23.3 0.0 20.2 2.35 18.0 Z" fill="none" stroke="#000000" stroke-linecap="round" stroke-linejoin="round" stroke-width="1.5"/>
    </g>
    <g id="sprite23" transform="matrix(1.0, 0.0, 0.0, 1.0, 7.2, 0.9)">
      <use ffdec:characterId="914" height="73.15" id="mc100" transform="matrix(1.0, 0.0, 0.0, 1.0, -6.3, 0.0)" width="52.2" xlink:href="#sprite24"/>
      <use ffdec:characterId="915" height="74.95" transform="matrix(1.0, 0.0, 0.0, 1.0, -7.2, -0.9)" width="47.25" xlink:href="#shape23"/>
    </g>
    <g id="sprite24" transform="matrix(1.0, 0.0, 0.0, 1.0, 0.0, 0.0)">
      <use ffdec:characterId="913" height="73.15" transform="matrix(1.0, 0.0, 0.0, 1.0, 0.0, 0.0)" width="52.2" xlink:href="#shape22"/>
    </g>
    <g id="shape22" transform="matrix(1.0, 0.0, 0.0, 1.0, 0.0, 0.0)">
      <path d="M51.25 27.5 Q54.7 38.15 45.55 57.6 43.35 63.85 36.0 67.25 31.65 67.65 27.25 65.35 L26.05 73.15 15.3 59.65 13.25 67.85 9.7 60.75 9.65 60.25 6.3 60.75 8.2 58.2 Q2.55 51.4 0.0 43.05 7.5 46.8 16.8 46.4 L31.4 26.4 22.25 31.05 31.55 15.8 21.65 23.5 28.25 11.95 19.1 16.0 18.75 15.45 Q23.9 10.5 29.1 7.15 L29.1 7.1 27.8 0.35 28.35 0.0 40.35 5.5 Q44.55 10.3 46.2 13.55 47.8 16.8 51.25 27.5 M15.25 59.35 L15.1 59.35 15.3 59.65 15.25 59.35" fill="#ff6600" fill-rule="evenodd" stroke="none"/>
    </g>
    <g id="shape23" transform="matrix(1.0, 0.0, 0.0, 1.0, 7.2, 0.9)">
      <path d="M22.55 10.85 L21.95 11.95 15.35 23.5 25.25 15.8 26.1 14.4 M21.5 0.35 L22.8 7.1 22.8 7.15 22.85 7.1 27.35 4.45 M22.05 0.0 L34.1 5.55 Q37.4 7.7 39.15 13.35 M25.4 25.95 L25.1 26.4 10.5 46.4 1.9 58.2 0.0 60.75 8.8 59.35 8.95 59.35 25.8 56.7 M25.1 26.4 L15.95 31.05 25.25 15.8 M21.95 11.95 L12.8 16.0 M22.8 7.15 Q17.6 10.5 12.45 15.45 M8.8 59.35 L9.0 59.65 19.75 73.15 20.95 65.35 Q25.35 67.65 29.75 67.25 36.4 65.95 38.3 60.25 M9.0 59.65 L6.95 67.85 3.4 60.75 M10.5 46.4 Q1.2 46.8 -6.3 43.05 -3.75 51.4 1.9 58.2" fill="none" stroke="#000000" stroke-linecap="round" stroke-linejoin="round" stroke-width="1.8"/>
    </g>
    <g id="sprite25" transform="matrix(1.0, 0.0, 0.0, 1.0, -24.95, -4.65)">
      <use ffdec:characterId="918" height="71.0" id="mc100" transform="matrix(1.0, 0.0, 0.0, 1.0, 25.85, 5.5)" width="35.6" xlink:href="#sprite26"/>
      <use ffdec:characterId="919" height="72.75" transform="matrix(1.0, 0.0, 0.0, 1.0, 24.95, 4.65)" width="37.4" xlink:href="#shape25"/>
    </g>
    <g id="sprite26" transform="matrix(1.0, 0.0, 0.0, 1.0, -32.15, -5.5)">
      <use ffdec:characterId="917" height="71.0" transform="matrix(1.0, 0.0, 0.0, 1.0, 32.15, 5.5)" width="35.6" xlink:href="#shape24"/>
    </g>
    <g id="shape24" transform="matrix(1.0, 0.0, 0.0, 1.0, -32.15, -5.5)">
      <path d="M67.75 34.8 Q66.85 39.35 64.45 42.75 68.0 46.9 67.4 51.0 L62.0 49.25 Q61.45 54.55 64.05 59.9 61.45 60.4 58.85 57.8 53.4 67.55 45.0 67.3 L44.7 67.15 39.5 76.5 36.05 67.25 36.0 67.25 32.15 56.1 40.35 5.5 Q61.7 11.45 62.8 34.45 L67.75 34.8" fill="#ff6600" fill-rule="evenodd" stroke="none"/>
    </g>
    <g id="shape25" transform="matrix(1.0, 0.0, 0.0, 1.0, -24.95, -4.65)">
      <path d="M51.85 57.0 L52.55 57.8 Q55.15 60.4 57.75 59.9 55.15 54.55 55.7 49.25 L61.1 51.0 Q61.7 46.9 58.15 42.75 60.55 39.35 61.45 34.8 L56.5 34.45 Q55.4 11.5 34.1 5.55 M25.85 56.7 L33.2 76.5 41.05 62.35 M38.7 67.3 Q47.1 67.55 52.55 57.8" fill="none" stroke="#000000" stroke-linecap="round" stroke-linejoin="round" stroke-width="1.8"/>
    </g>
    <g id="sprite27" transform="matrix(1.0, 0.0, 0.0, 1.0, 1.8, 0.9)">
      <use ffdec:characterId="892" height="18.5" id="mc000" transform="matrix(1.0, 0.0, 0.0, 1.0, -1.8, -0.9)" width="27.7" xlink:href="#sprite28"/>
    </g>
    <g id="sprite28" transform="matrix(1.0, 0.0, 0.0, 1.0, 1.8, 0.9)">
      <use ffdec:characterId="891" height="16.7" id="mc100" transform="matrix(1.0, 0.0, 0.0, 1.0, -0.9, 0.0)" width="25.9" xlink:href="#sprite29"/>
      <use ffdec:characterId="204" height="18.5" transform="matrix(1.0, 0.0, 0.0, 1.0, -1.8, -0.9)" width="27.7" xlink:href="#shape27"/>
    </g>
    <g id="sprite29" transform="matrix(1.0, 0.0, 0.0, 1.0, 0.0, 0.0)">
      <use ffdec:characterId="107" height="16.7" transform="matrix(1.0, 0.0, 0.0, 1.0, 0.0, 0.0)" width="25.9" xlink:href="#shape26"/>
    </g>
    <g id="shape26" transform="matrix(1.0, 0.0, 0.0, 1.0, 0.0, 0.0)">
      <path d="M24.65 6.0 L25.9 9.9 Q20.35 14.65 13.2 16.7 L13.05 12.65 10.1 12.65 9.75 14.7 Q3.7 14.5 0.0 9.25 L1.7 6.0 2.3 0.0 Q13.05 1.35 23.8 0.5 L24.65 6.0" fill="#ffcc00" fill-rule="evenodd" stroke="none"/>
    </g>
    <g id="shape27" transform="matrix(1.0, 0.0, 0.0, 1.0, 1.8, 0.9)">
      <path d="M23.3 3.25 L23.75 6.0 25.0 9.9 Q19.45 14.65 12.3 16.7 L12.15 12.65 9.2 12.65 8.85 14.7 Q2.8 14.5 -0.9 9.25 L0.8 6.0 1.1 3.0 1.4 0.0 Q12.15 1.35 22.9 0.5 L23.3 3.25 Q12.0 3.6 1.1 3.0 M12.15 12.65 L12.15 6.0 0.8 6.0 M23.75 6.0 L12.15 6.0" fill="none" stroke="#000000" stroke-linecap="round" stroke-linejoin="round" stroke-width="1.8"/>
    </g>
    <g id="sprite30" transform="matrix(1.0, 0.0, 0.0, 1.0, 0.75, 0.75)">
      <use ffdec:characterId="56" height="10.4" transform="matrix(1.0, 0.0, 0.0, 1.0, 8.5, 2.8)" width="26.2" xlink:href="#shape28"/>
      <use ffdec:characterId="921" height="16.75" id="mc101" transform="matrix(1.0, 0.0, 0.0, 1.0, 5.65, 0.15)" width="30.75" xlink:href="#sprite31"/>
      <use ffdec:characterId="922" height="16.35" id="mc102" transform="matrix(1.0, 0.0, 0.0, 1.0, 2.5, 0.0)" width="25.3" xlink:href="#sprite32"/>
      <use ffdec:characterId="923" height="16.0" id="mc103" transform="matrix(1.0, 0.0, 0.0, 1.0, 0.0, 2.65)" width="34.45" xlink:href="#sprite33"/>
      <use ffdec:characterId="924" height="20.15" transform="matrix(1.0, 0.0, 0.0, 1.0, -0.75, -0.75)" width="38.05" xlink:href="#shape32"/>
    </g>
    <g id="shape28" transform="matrix(1.0, 0.0, 0.0, 1.0, -8.5, -2.8)">
      <path d="M33.45 4.55 Q34.35 4.7 34.6 5.35 L34.7 5.8 34.7 9.5 Q34.45 10.6 33.25 10.95 L30.1 11.45 Q28.9 11.6 28.7 10.35 L28.75 3.65 33.45 4.55 M15.05 4.05 Q16.4 4.35 16.45 5.7 L16.45 10.6 Q16.15 12.05 14.55 12.55 L10.35 13.2 Q8.75 13.4 8.5 11.75 L8.55 2.8 14.8 4.0 15.05 4.05" fill="#ccffff" fill-rule="evenodd" stroke="none"/>
    </g>
    <g id="sprite31" transform="matrix(1.0, 0.0, 0.0, 1.0, 0.0, 0.0)">
      <use ffdec:characterId="57" height="16.75" transform="matrix(1.0, 0.0, 0.0, 1.0, 0.0, 0.0)" width="30.75" xlink:href="#shape29"/>
    </g>
    <g id="shape29" transform="matrix(1.0, 0.0, 0.0, 1.0, 0.0, 0.0)">
      <path d="M30.55 10.45 Q30.5 11.6 29.5 12.2 L29.3 12.25 24.25 13.9 Q22.2 14.35 21.5 13.6 21.05 13.1 21.1 12.15 L21.1 11.9 20.95 3.45 Q20.8 2.0 22.15 1.6 L22.2 1.6 22.3 1.6 Q23.15 1.4 24.5 1.6 30.95 2.35 30.75 5.35 L30.55 10.15 30.55 10.45 M10.8 10.45 L10.8 5.55 Q10.75 4.2 9.4 3.9 L9.15 3.85 2.9 2.65 2.85 11.6 Q3.1 13.25 4.7 13.05 L8.9 12.4 Q10.5 11.9 10.8 10.45 M12.95 3.9 L13.1 5.15 13.0 7.75 13.05 6.9 16.8 6.9 16.95 10.6 13.25 11.35 12.8 11.35 12.8 11.55 12.8 11.9 Q12.75 13.45 11.4 14.25 L11.15 14.35 4.4 16.5 Q1.7 17.15 0.75 16.1 0.15 15.45 0.25 14.2 L0.25 13.85 0.0 2.6 Q-0.2 0.65 1.6 0.15 L1.85 0.1 4.75 0.15 Q11.95 0.95 12.95 3.9 M29.05 5.65 L28.95 5.2 Q28.7 4.55 27.8 4.4 L23.1 3.5 23.05 10.2 Q23.25 11.45 24.45 11.3 L27.6 10.8 Q28.8 10.45 29.05 9.35 L29.05 5.65" fill="#999999" fill-rule="evenodd" stroke="none"/>
    </g>
    <g id="sprite32" transform="matrix(1.0, 0.0, 0.0, 1.0, 0.0, 0.0)">
      <use ffdec:characterId="59" height="16.35" transform="matrix(1.0, 0.0, 0.0, 1.0, 0.0, 0.0)" width="25.3" xlink:href="#shape30"/>
    </g>
    <g id="shape30" transform="matrix(1.0, 0.0, 0.0, 1.0, 0.0, 0.0)">
      <path d="M23.65 1.55 L24.45 1.6 25.3 1.75 Q23.95 2.15 24.1 3.6 L24.25 12.05 24.25 12.3 Q24.2 13.25 24.65 13.75 22.45 14.1 21.9 12.55 L21.75 3.7 21.75 3.55 Q21.55 1.75 23.2 1.55 L23.65 1.55 M3.15 2.75 L3.4 14.0 3.4 14.35 Q3.3 15.6 3.9 16.25 1.0 16.75 0.25 14.7 L0.05 2.85 0.05 2.65 Q-0.35 -0.9 4.75 0.3 2.95 0.8 3.15 2.75" fill="#666666" fill-rule="evenodd" stroke="none"/>
    </g>
    <g id="sprite33" transform="matrix(1.0, 0.0, 0.0, 1.0, 0.0, 0.0)">
      <use ffdec:characterId="61" height="16.0" transform="matrix(1.0, 0.0, 0.0, 1.0, 0.0, 0.0)" width="34.45" xlink:href="#shape31"/>
    </g>
    <g id="shape31" transform="matrix(1.0, 0.0, 0.0, 1.0, 0.0, 0.0)">
      <path d="M34.45 10.2 Q34.35 12.45 29.35 13.1 24.8 13.75 22.95 11.2 L22.7 10.8 22.35 2.35 23.9 0.9 24.25 0.9 24.25 1.05 24.4 9.9 Q24.95 11.45 27.15 11.1 27.85 11.85 29.9 11.4 L34.4 9.95 34.45 10.2 M0.0 1.95 L2.05 0.0 2.55 0.0 2.55 0.2 2.75 12.05 Q3.5 14.1 6.4 13.6 7.35 14.65 10.05 14.0 L16.05 12.1 16.15 12.4 Q16.0 15.0 11.2 16.0 L3.95 16.0 Q1.95 15.35 0.8 13.75 L0.5 13.25 0.0 1.95" fill="#333333" fill-rule="evenodd" stroke="none"/>
    </g>
    <g id="shape32" transform="matrix(1.0, 0.0, 0.0, 1.0, 0.75, 0.75)">
      <path d="M24.25 3.55 Q24.05 1.75 25.7 1.55 L26.15 1.55 26.95 1.6 27.8 1.75 27.85 1.75 27.95 1.75 Q28.8 1.55 30.15 1.75 36.6 2.5 36.4 5.5 L36.2 10.3 36.2 10.6 Q36.15 11.75 34.95 12.4 L34.4 12.6 M22.6 10.8 L19.05 11.5 M34.7 9.5 Q34.45 10.6 33.25 10.95 L30.1 11.45 Q28.9 11.6 28.7 10.35 L28.75 3.65 33.45 4.55 Q34.35 4.7 34.6 5.35 L34.7 5.8 34.7 9.5 M27.15 13.75 Q26.7 13.25 26.75 12.3 L26.75 12.05 26.6 3.6 Q26.45 2.15 27.8 1.75 M18.7 7.05 L21.7 7.05 M16.45 5.7 L16.45 10.6 Q16.15 12.05 14.55 12.55 L10.35 13.2 Q8.75 13.4 8.5 11.75 L8.55 2.8 14.8 4.0 15.05 4.05 Q16.4 4.35 16.45 5.7 M22.25 8.9 L19.25 9.25" fill="none" stroke="#000000" stroke-linecap="round" stroke-linejoin="round" stroke-width="1.8"/>
      <path d="M34.4 12.6 L34.45 12.85 Q34.35 15.1 29.35 15.75 24.8 16.4 22.95 13.85 L22.7 13.45 22.6 10.8 22.35 5.0 23.9 3.55 24.25 3.55 24.4 12.55 Q24.95 14.1 27.15 13.75 27.85 14.5 29.9 14.05 L34.4 12.6 M18.7 7.05 L18.45 11.7 18.45 12.05 Q18.4 13.6 17.05 14.4 L16.8 14.5 16.05 14.75 16.15 15.05 Q16.0 17.65 11.2 18.65 L3.95 18.65 Q1.95 18.0 0.8 16.4 L0.5 15.9 0.0 4.6 2.05 2.65 2.55 2.65 Q2.15 -0.9 7.25 0.3 L7.5 0.25 10.4 0.3 Q17.6 1.1 18.6 4.05 L18.75 5.3 18.7 7.05 M2.55 2.65 L2.75 14.7 Q3.5 16.75 6.4 16.25 5.8 15.6 5.9 14.35 L5.9 14.0 5.65 2.75 Q5.45 0.8 7.25 0.3 M16.05 14.75 L10.05 16.65 Q7.35 17.3 6.4 16.25" fill="none" stroke="#000000" stroke-linecap="round" stroke-linejoin="round" stroke-width="1.5"/>
    </g>
  </defs>
</svg>
