<?xml version="1.0" encoding="UTF-8" standalone="no"?>
<svg xmlns:ffdec="https://www.free-decompiler.com/flash" xmlns:xlink="http://www.w3.org/1999/xlink" ffdec:objectType="frame" height="1577.55px" width="159.65px" xmlns="http://www.w3.org/2000/svg">
  <g transform="matrix(1.0, 0.0, 0.0, 1.0, 77.35, 1570.5)">
    <use ffdec:characterId="861" height="940.4" transform="matrix(1.0, 0.0, 0.0, 1.0, -16.2, -1570.5)" width="3.0" xlink:href="#shape0"/>
    <use ffdec:characterId="941" height="515.0" transform="matrix(1.0, 0.0, 0.0, 1.0, -18.9, -639.35)" width="5.7" xlink:href="#morphshape0"/>
    <use ffdec:characterId="867" height="79.3" id="mc23130" transform="matrix(-1.0, 0.0, 0.0, -1.0, 5.0, -54.85)" width="74.0" xlink:href="#sprite0"/>
    <use ffdec:characterId="869" height="18.85" id="mc22130" transform="matrix(-0.9942, -0.1003, 0.1003, -0.9942, -13.7316, -120.1091)" width="10.9" xlink:href="#sprite5"/>
    <use ffdec:characterId="869" height="18.85" id="mc21130" transform="matrix(-0.9942, -0.1003, 0.1003, -0.9942, -29.0816, -120.1591)" width="10.9" xlink:href="#sprite5"/>
    <use ffdec:characterId="874" height="18.55" id="mc20130" transform="matrix(-0.0219, -0.9996, 0.9996, -0.0219, -18.5244, -100.2107)" width="15.75" xlink:href="#sprite6"/>
    <use ffdec:characterId="874" height="18.55" id="mc19130" transform="matrix(-0.1951, -0.9792, -0.9792, 0.1951, -31.3518, -101.4804)" width="15.75" xlink:href="#sprite6"/>
    <use ffdec:characterId="878" height="20.65" id="mc18130" transform="matrix(-1.0, 0.0, 0.0, -1.0, -15.2, -98.85)" width="21.15" xlink:href="#sprite10"/>
    <use ffdec:characterId="881" height="22.9" id="mc17130" transform="matrix(-1.0, 0.0, 0.0, -1.0, -14.35, -96.6)" width="23.0" xlink:href="#sprite13"/>
    <use ffdec:characterId="882" height="21.35" id="mc16130" transform="matrix(-1.0, 0.0, 0.0, -1.0, -13.85, -105.85)" width="23.6" xlink:href="#sprite16"/>
    <use ffdec:characterId="885" height="10.05" id="mc15130" transform="matrix(-1.0, 0.0, 0.0, -1.0, -12.15, -103.6)" width="12.85" xlink:href="#sprite17"/>
    <use ffdec:characterId="886" height="10.05" id="mc14130" transform="matrix(-1.0, 0.0, 0.0, -1.0, -27.2, -103.15)" width="12.85" xlink:href="#sprite20"/>
    <use ffdec:characterId="888" height="44.0" id="mc13130" transform="matrix(-1.0, 0.0, 0.0, -1.0, 0.45, -66.65)" width="53.0" xlink:href="#sprite21"/>
    <use ffdec:characterId="935" height="4.9" transform="matrix(0.85, 0.0, 0.0, 0.85, -30.21, -109.61)" width="14.6" xlink:href="#shape18"/>
    <use ffdec:characterId="936" height="10.65" transform="matrix(1.0, 0.0, 0.0, 1.0, -38.1, -104.2)" width="30.35" xlink:href="#shape19"/>
    <use ffdec:characterId="940" height="65.05" id="mc7130" transform="matrix(1.0, 0.0, 0.0, 1.0, -68.65, -107.5)" width="90.95" xlink:href="#sprite23"/>
    <use ffdec:characterId="940" height="65.05" id="mc6130" transform="matrix(1.0, 0.0, 0.0, 1.0, -68.65, -107.5)" width="90.95" xlink:href="#sprite23"/>
    <use ffdec:characterId="893" height="18.5" id="mc4130" transform="matrix(-1.0, 0.0, 0.0, -1.0, -11.95, -116.75)" width="27.7" xlink:href="#sprite25"/>
    <use ffdec:characterId="897" height="22.15" id="hide_hat8" transform="matrix(-1.0, 0.0, 0.0, -1.0, 3.1, -70.65)" width="51.0" xlink:href="#sprite28"/>
    <use ffdec:characterId="898" height="0.0" id="hat" transform="matrix(1.0, 0.0, 0.0, 1.0, 0.0, 0.0)" width="0.0" xlink:href="#sprite32"/>
  </g>
  <defs>
    <g id="shape0" transform="matrix(1.0, 0.0, 0.0, 1.0, 16.2, 1570.5)">
      <path d="M-14.7 -1569.0 L-14.7 -631.6" fill="none" stroke="#543822" stroke-linecap="round" stroke-linejoin="round" stroke-width="3.0"/>
    </g>
    <g id="morphshape0" transform="matrix(1.0, 0.0, 0.0, 1.0, 18.9, 639.35)">
      <path d="M-16.05 -131.25 L-14.7 -637.85" fill="none" stroke="#543822" stroke-linecap="round" stroke-linejoin="round" stroke-width="3.0"/>
    </g>
    <g id="sprite0" transform="matrix(1.0, 0.0, 0.0, 1.0, 0.9, 0.9)">
      <use ffdec:characterId="864" height="53.85" id="mc200" transform="matrix(1.0, 0.0, 0.0, 1.0, 16.75, 18.6)" width="50.35" xlink:href="#sprite1"/>
      <use ffdec:characterId="866" height="66.3" id="mc100" transform="matrix(1.0, 0.0, 0.0, 1.0, 6.8, 9.25)" width="63.0" xlink:href="#sprite3"/>
      <use ffdec:characterId="9" height="79.3" transform="matrix(1.0, 0.0, 0.0, 1.0, -0.9, -0.9)" width="74.0" xlink:href="#shape3"/>
    </g>
    <g id="sprite1" transform="matrix(1.0, 0.0, 0.0, 1.0, 0.0, 0.0)">
      <use ffdec:characterId="863" height="53.85" id="mc000" transform="matrix(1.0, 0.0, 0.0, 1.0, 0.0, 0.0)" width="50.35" xlink:href="#sprite2"/>
    </g>
    <g id="sprite2" transform="matrix(1.0, 0.0, 0.0, 1.0, 0.0, 0.0)">
      <use ffdec:characterId="6" height="53.85" transform="matrix(1.0, 0.0, 0.0, 1.0, 0.0, 0.0)" width="50.35" xlink:href="#shape1"/>
    </g>
    <g id="shape1" transform="matrix(1.0, 0.0, 0.0, 1.0, 0.0, 0.0)">
      <path d="M38.2 0.2 L50.35 0.0 Q44.35 19.8 36.1 40.2 18.3 47.9 0.0 53.85 L1.25 41.45 Q12.7 35.7 24.15 29.9 32.25 15.3 38.2 0.2" fill="#006666" fill-rule="evenodd" stroke="none"/>
    </g>
    <g id="sprite3" transform="matrix(1.0, 0.0, 0.0, 1.0, 0.0, 0.0)">
      <use ffdec:characterId="865" height="66.3" id="mc000" transform="matrix(1.0, 0.0, 0.0, 1.0, 0.0, 0.0)" width="63.0" xlink:href="#sprite4"/>
    </g>
    <g id="sprite4" transform="matrix(1.0, 0.0, 0.0, 1.0, 0.0, 0.0)">
      <use ffdec:characterId="1" height="66.3" transform="matrix(1.0, 0.0, 0.0, 1.0, 0.0, 0.0)" width="63.0" xlink:href="#shape2"/>
    </g>
    <g id="shape2" transform="matrix(1.0, 0.0, 0.0, 1.0, 0.0, 0.0)">
      <path d="M60.3 9.35 L48.15 9.55 51.45 0.8 63.0 0.0 60.3 9.35 M11.2 50.8 L9.95 63.2 0.0 66.3 2.35 55.3 11.2 50.8" fill="#00cc99" fill-rule="evenodd" stroke="none"/>
    </g>
    <g id="shape3" transform="matrix(1.0, 0.0, 0.0, 1.0, 0.9, 0.9)">
      <path d="M58.25 10.05 L59.4 6.6 Q63.9 -0.95 72.2 0.15 L69.8 9.25 58.25 10.05 M9.15 64.55 L6.8 75.55 0.0 77.5 5.15 66.55 9.15 64.55" fill="#fafff5" fill-rule="evenodd" stroke="none"/>
      <path d="M54.95 18.8 Q49.0 33.9 40.9 48.5 L18.0 60.05 16.75 72.45 Q35.05 66.5 52.85 58.8 61.1 38.4 67.1 18.6 L54.95 18.8 58.25 10.05 59.4 6.6 Q63.9 -0.95 72.2 0.15 L69.8 9.25 67.1 18.6 M58.25 10.05 L69.8 9.25 M9.15 64.55 L6.8 75.55 16.75 72.45 M6.8 75.55 L0.0 77.5 5.15 66.55 9.15 64.55 18.0 60.05" fill="none" stroke="#000000" stroke-linecap="round" stroke-linejoin="round" stroke-width="1.8"/>
    </g>
    <g id="sprite5" transform="matrix(1.0, 0.0, 0.0, 1.0, 4.95, 9.5)">
      <use ffdec:characterId="868" height="18.85" transform="matrix(1.0, 0.0, 0.0, 1.0, -4.95, -9.5)" width="10.9" xlink:href="#shape4"/>
    </g>
    <g id="shape4" transform="matrix(1.0, 0.0, 0.0, 1.0, 4.95, 9.5)">
      <path d="M5.05 5.55 L5.05 5.7 Q5.15 6.65 3.9 7.45 2.7 8.25 0.95 8.4 -0.8 8.55 -2.15 7.95 -3.45 7.45 -3.55 6.5 L-3.55 6.35 -3.5 6.35 4.7 5.5 5.05 5.55" fill="#000000" fill-rule="evenodd" stroke="none"/>
      <path d="M-3.55 6.1 L-3.65 3.85 -4.05 -6.3 Q-4.1 -7.15 -3.15 -7.75 -2.1 -8.4 -0.55 -8.55 L2.1 -8.25 Q3.15 -7.75 3.3 -7.0 L3.35 -6.85 3.35 -6.65 4.7 3.05 5.05 5.45 4.7 5.5 -3.5 6.35 -3.55 6.1 M4.7 3.05 L-3.65 3.85 4.7 3.05" fill="#ffffff" fill-rule="evenodd" stroke="none"/>
      <path d="M-3.55 6.1 L-3.65 3.85 -4.05 -6.3 Q-4.1 -7.15 -3.15 -7.75 -2.1 -8.4 -0.55 -8.55 L2.1 -8.25 Q3.15 -7.75 3.3 -7.0 L3.35 -6.85 3.35 -6.65 4.7 3.05 5.05 5.45 5.05 5.55 5.05 5.7 Q5.15 6.65 3.9 7.45 2.7 8.25 0.95 8.4 -0.8 8.55 -2.15 7.95 -3.45 7.45 -3.55 6.5 L-3.55 6.35 -3.55 6.1 M-3.5 6.35 L4.7 5.5 M-3.5 6.35 L-3.55 6.35 M-3.65 3.85 L4.7 3.05" fill="none" stroke="#000000" stroke-linecap="round" stroke-linejoin="round" stroke-width="1.8"/>
    </g>
    <g id="sprite6" transform="matrix(1.0, 0.0, 0.0, 1.0, 7.85, 8.8)">
      <use ffdec:characterId="871" height="6.5" id="mc300" transform="matrix(1.0, 0.0, 0.0, 1.0, -5.35, 2.35)" width="7.55" xlink:href="#sprite7"/>
      <use ffdec:characterId="872" height="18.55" transform="matrix(1.0, 0.0, 0.0, 1.0, -6.25, -8.8)" width="14.15" xlink:href="#shape6"/>
      <use ffdec:characterId="873" height="15.5" id="mc100" transform="matrix(1.0, 0.0, 0.0, 1.0, -6.95, -7.9)" width="13.95" xlink:href="#sprite9"/>
      <use ffdec:characterId="16" height="11.25" transform="matrix(1.0, 0.0, 0.0, 1.0, -7.85, -2.75)" width="12.5" xlink:href="#shape8"/>
    </g>
    <g id="sprite7" transform="matrix(1.0, 0.0, 0.0, 1.0, 0.0, 0.0)">
      <use ffdec:characterId="870" height="6.5" id="mc000" transform="matrix(1.0, 0.0, 0.0, 1.0, 0.0, 0.0)" width="7.55" xlink:href="#sprite8"/>
    </g>
    <g id="sprite8" transform="matrix(1.0, 0.0, 0.0, 1.0, 0.0, 0.0)">
      <use ffdec:characterId="12" height="6.5" transform="matrix(1.0, 0.0, 0.0, 1.0, 0.0, 0.0)" width="7.55" xlink:href="#shape5"/>
    </g>
    <g id="shape5" transform="matrix(1.0, 0.0, 0.0, 1.0, 0.0, 0.0)">
      <path d="M6.45 2.8 L7.55 2.7 7.1 3.95 Q6.5 5.65 5.2 6.2 3.75 6.8 2.3 6.2 0.8 5.55 0.2 4.15 -0.3 2.8 0.5 1.2 L1.1 0.0 Q2.7 2.0 4.75 2.55 L6.3 2.9 6.45 2.8" fill="#b59155" fill-rule="evenodd" stroke="none"/>
    </g>
    <g id="shape6" transform="matrix(1.0, 0.0, 0.0, 1.0, 6.25, 8.8)">
      <path d="M1.1 5.15 L2.2 5.05 3.35 3.3 Q6.95 -4.4 7.0 -5.65 7.15 -6.85 6.3 -7.5 5.5 -8.15 4.3 -7.75 3.1 -7.45 -1.9 -2.65 M3.85 2.5 L3.35 3.3 M-0.6 4.9 Q-2.65 4.35 -4.25 2.35 L-4.85 3.55 Q-5.65 5.15 -5.15 6.5 -4.55 7.9 -3.05 8.55 -1.6 9.15 -0.15 8.55 1.15 8.0 1.75 6.3 L2.2 5.05 M-2.55 -1.8 L-2.7 -1.55 M-4.1 1.95 L-4.25 2.35" fill="none" stroke="#000000" stroke-linecap="round" stroke-linejoin="round" stroke-width="1.8"/>
    </g>
    <g id="sprite9" transform="matrix(1.0, 0.0, 0.0, 1.0, 0.0, 0.0)">
      <use ffdec:characterId="290" height="15.5" transform="matrix(1.0, 0.0, 0.0, 1.0, 0.0, 0.0)" width="13.95" xlink:href="#shape7"/>
    </g>
    <g id="shape7" transform="matrix(1.0, 0.0, 0.0, 1.0, 6.95, 7.75)">
      <path d="M4.3 -7.6 Q5.5 -8.0 6.3 -7.35 7.15 -6.7 7.0 -5.5 6.95 -4.3 3.45 2.8 L3.75 3.0 1.85 7.75 1.8 7.75 1.55 7.65 0.25 5.3 -2.9 6.65 -3.0 6.4 -3.4 3.1 -3.6 2.8 -6.95 2.8 -2.65 -1.7 -2.55 -1.6 -1.9 -2.5 Q3.1 -7.3 4.3 -7.6" fill="#ffffff" fill-rule="evenodd" stroke="none"/>
    </g>
    <g id="shape8" transform="matrix(1.0, 0.0, 0.0, 1.0, 7.85, 2.75)">
      <path d="M-2.65 -1.85 L-6.95 2.65 -3.4 2.65 -3.0 6.25 M1.85 7.6 L3.75 2.85 M-2.9 6.5 L0.25 5.15 1.55 7.5 M3.35 2.6 L-2.45 -1.7" fill="none" stroke="#000000" stroke-linecap="round" stroke-linejoin="round" stroke-width="1.8"/>
    </g>
    <g id="sprite10" transform="matrix(1.0, 0.0, 0.0, 1.0, 0.05, 5.35)">
      <use ffdec:characterId="877" height="18.85" id="mc100" transform="matrix(1.0, 0.0, 0.0, 1.0, 0.85, -4.45)" width="19.35" xlink:href="#sprite11"/>
      <use ffdec:characterId="81" height="20.65" transform="matrix(1.0, 0.0, 0.0, 1.0, -0.05, -5.35)" width="21.15" xlink:href="#shape10"/>
    </g>
    <g id="sprite11" transform="matrix(1.0, 0.0, 0.0, 1.0, 0.0, 0.0)">
      <use ffdec:characterId="876" height="18.85" id="mc000" transform="matrix(1.0, 0.0, 0.0, 1.0, 0.0, 0.0)" width="19.35" xlink:href="#sprite12"/>
    </g>
    <g id="sprite12" transform="matrix(1.0, 0.0, 0.0, 1.0, 0.0, 0.0)">
      <use ffdec:characterId="82" height="18.85" transform="matrix(1.0, 0.0, 0.0, 1.0, 0.0, 0.0)" width="19.35" xlink:href="#shape9"/>
    </g>
    <g id="shape9" transform="matrix(1.0, 0.0, 0.0, 1.0, 0.0, 0.0)">
      <path d="M19.35 18.15 L13.3 18.65 7.75 18.85 0.0 18.6 0.85 0.5 17.7 0.0 19.35 18.15" fill="#b59155" fill-rule="evenodd" stroke="none"/>
    </g>
    <g id="shape10" transform="matrix(1.0, 0.0, 0.0, 1.0, 0.05, 5.35)">
      <path d="M18.55 -4.45 L20.2 13.7 14.15 14.2 8.6 14.4 0.85 14.15 1.7 -3.95 18.55 -4.45 Z" fill="none" stroke="#000000" stroke-linecap="round" stroke-linejoin="round" stroke-width="1.8"/>
    </g>
    <g id="sprite13" transform="matrix(1.0, 0.0, 0.0, 1.0, 0.9, 7.6)">
      <use ffdec:characterId="880" height="21.1" id="mc100" transform="matrix(1.0, 0.0, 0.0, 1.0, 0.0, -6.7)" width="21.2" xlink:href="#sprite14"/>
      <use ffdec:characterId="184" height="22.9" transform="matrix(1.0, 0.0, 0.0, 1.0, -0.9, -7.6)" width="23.0" xlink:href="#shape12"/>
    </g>
    <g id="sprite14" transform="matrix(1.0, 0.0, 0.0, 1.0, 0.0, 0.0)">
      <use ffdec:characterId="879" height="21.1" id="mc000" transform="matrix(1.0, 0.0, 0.0, 1.0, 0.0, 0.0)" width="21.2" xlink:href="#sprite15"/>
    </g>
    <g id="sprite15" transform="matrix(1.0, 0.0, 0.0, 1.0, 0.0, 0.0)">
      <use ffdec:characterId="86" height="21.1" transform="matrix(1.0, 0.0, 0.0, 1.0, 0.0, 0.0)" width="21.2" xlink:href="#shape11"/>
    </g>
    <g id="shape11" transform="matrix(1.0, 0.0, 0.0, 1.0, 0.0, 0.0)">
      <path d="M21.2 20.3 L14.55 20.9 13.7 0.2 19.35 0.0 21.2 20.3 M8.5 21.1 L0.0 20.8 0.95 0.6 8.1 0.6 8.5 21.1" fill="#ffffff" fill-rule="evenodd" stroke="none"/>
    </g>
    <g id="shape12" transform="matrix(1.0, 0.0, 0.0, 1.0, 0.9, 7.6)">
      <path d="M19.35 -6.7 L21.2 13.6 14.55 14.2 13.7 -6.5 19.35 -6.7 M8.5 14.4 L0.0 14.1 0.95 -6.1 8.1 -6.1 8.5 13.65" fill="none" stroke="#000000" stroke-linecap="round" stroke-linejoin="round" stroke-width="1.8"/>
    </g>
    <g id="sprite16" transform="matrix(1.0, 0.0, 0.0, 1.0, 0.0, 0.0)">
      <use ffdec:characterId="33" height="21.35" transform="matrix(1.0, 0.0, 0.0, 1.0, 0.0, 0.0)" width="23.6" xlink:href="#shape13"/>
    </g>
    <g id="shape13" transform="matrix(1.0, 0.0, 0.0, 1.0, 0.0, 0.0)">
      <path d="M22.2 0.0 L23.6 1.6 23.3 2.05 Q11.6 13.1 0.3 21.35 L0.0 21.3 0.7 18.35 22.2 0.0" fill="#000000" fill-rule="evenodd" stroke="none"/>
    </g>
    <g id="sprite17" transform="matrix(1.0, 0.0, 0.0, 1.0, 0.9, 0.9)">
      <use ffdec:characterId="884" height="10.05" id="mc000" transform="matrix(1.0, 0.0, 0.0, 1.0, -0.9, -0.9)" width="12.85" xlink:href="#sprite18"/>
    </g>
    <g id="sprite18" transform="matrix(1.0, 0.0, 0.0, 1.0, 0.9, 0.9)">
      <use ffdec:characterId="883" height="8.25" id="mc100" transform="matrix(1.0, 0.0, 0.0, 1.0, 0.0, 0.0)" width="11.05" xlink:href="#sprite19"/>
      <use ffdec:characterId="36" height="10.05" transform="matrix(1.0, 0.0, 0.0, 1.0, -0.9, -0.9)" width="12.85" xlink:href="#shape15"/>
    </g>
    <g id="sprite19" transform="matrix(1.0, 0.0, 0.0, 1.0, 0.0, 0.0)">
      <use ffdec:characterId="34" height="8.25" transform="matrix(1.0, 0.0, 0.0, 1.0, 0.0, 0.0)" width="11.05" xlink:href="#shape14"/>
    </g>
    <g id="shape14" transform="matrix(1.0, 0.0, 0.0, 1.0, 0.0, 0.0)">
      <path d="M7.5 5.75 L3.6 8.25 3.2 4.7 0.0 4.7 3.35 0.0 10.1 1.1 11.05 8.25 7.5 5.75" fill="#ffffff" fill-rule="evenodd" stroke="none"/>
    </g>
    <g id="shape15" transform="matrix(1.0, 0.0, 0.0, 1.0, 0.9, 0.9)">
      <path d="M10.1 1.1 L11.05 8.25 7.5 5.75 3.6 8.25 3.2 4.7 0.0 4.7 3.35 0.0 10.1 1.1 Z" fill="none" stroke="#000000" stroke-linecap="round" stroke-linejoin="round" stroke-width="1.8"/>
    </g>
    <g id="sprite20" transform="matrix(1.0, 0.0, 0.0, 1.0, 0.9, 0.9)">
      <use ffdec:characterId="884" height="10.05" id="mc000" transform="matrix(-1.0, 0.0, 0.0, 1.0, 11.95, -0.9)" width="12.85" xlink:href="#sprite18"/>
    </g>
    <g id="sprite21" transform="matrix(1.0, 0.0, 0.0, 1.0, 0.9, 0.9)">
      <use ffdec:characterId="887" height="42.2" id="mc100" transform="matrix(1.0, 0.0, 0.0, 1.0, 0.0, 0.0)" width="51.2" xlink:href="#sprite22"/>
      <use ffdec:characterId="126" height="44.0" transform="matrix(1.0, 0.0, 0.0, 1.0, -0.9, -0.9)" width="53.0" xlink:href="#shape17"/>
    </g>
    <g id="sprite22" transform="matrix(1.0, 0.0, 0.0, 1.0, 0.0, 0.0)">
      <use ffdec:characterId="97" height="42.2" transform="matrix(1.0, 0.0, 0.0, 1.0, 0.0, 0.0)" width="51.2" xlink:href="#shape16"/>
    </g>
    <g id="shape16" transform="matrix(1.0, 0.0, 0.0, 1.0, 0.0, 0.0)">
      <path d="M51.2 0.0 L47.4 29.4 Q41.5 35.55 32.8 39.6 23.6 44.8 14.35 39.6 4.9 35.15 1.5 26.95 L0.0 0.0 51.2 0.0" fill="#c4a44a" fill-rule="evenodd" stroke="none"/>
    </g>
    <g id="shape17" transform="matrix(1.0, 0.0, 0.0, 1.0, 0.9, 0.9)">
      <path d="M51.2 0.0 L0.0 0.0 1.5 26.95 Q4.9 35.15 14.35 39.6 23.6 44.8 32.8 39.6 41.5 35.55 47.4 29.4 L51.2 0.0 Z" fill="none" stroke="#000000" stroke-linecap="round" stroke-linejoin="round" stroke-width="1.8"/>
    </g>
    <g id="shape18" transform="matrix(1.0, 0.0, 0.0, 1.0, 0.6, 0.6)">
      <path d="M0.4 1.25 Q3.0 -0.25 7.0 0.05 10.4 -0.3 13.4 1.65 11.85 5.1 7.15 2.25 0.15 5.55 0.0 1.4 L0.4 1.25" fill="#000000" fill-rule="evenodd" stroke="none"/>
      <path d="M0.0 1.4 Q0.15 5.55 7.15 2.25 11.85 5.1 13.4 1.65 10.4 -0.3 7.0 0.05 3.0 -0.25 0.4 1.25" fill="none" stroke="#000000" stroke-linecap="round" stroke-linejoin="round" stroke-width="1.2000000000000002"/>
    </g>
    <g id="shape19" transform="matrix(1.0, 0.0, 0.0, 1.0, 0.6, 0.55)">
      <path d="M16.4 0.15 Q23.8 -0.55 29.15 3.3 21.75 4.65 16.4 0.75 L16.4 0.15 M10.95 1.6 Q4.75 4.5 0.0 3.0 4.25 -0.55 10.95 1.05 L11.2 1.35 10.95 1.6" fill="#ffffff" fill-rule="evenodd" stroke="none"/>
      <path d="M24.4 2.0 L23.95 3.05 Q23.5 3.5 22.9 3.5 22.3 3.5 21.85 3.05 21.4 2.6 21.4 2.0 21.4 1.4 21.85 0.95 22.3 0.5 22.9 0.5 23.5 0.5 23.95 0.95 24.4 1.4 24.4 2.0 M6.75 2.1 L6.3 3.15 5.25 3.6 Q4.65 3.6 4.2 3.15 3.75 2.7 3.75 2.1 3.75 1.5 4.2 1.05 4.65 0.6 5.25 0.6 5.85 0.6 6.3 1.05 6.75 1.5 6.75 2.1" fill="#000000" fill-rule="evenodd" stroke="none"/>
      <path d="M27.95 8.0 Q21.95 5.15 16.4 0.75 21.75 4.65 29.15 3.3 23.8 -0.55 16.4 0.15 M1.6 9.5 L10.95 1.6 Q4.75 4.5 0.0 3.0 4.25 -0.55 10.95 1.05 M11.2 1.35 L10.95 1.6" fill="none" stroke="#000000" stroke-linecap="round" stroke-linejoin="round" stroke-width="1.2000000000000002"/>
    </g>
    <g id="sprite23" transform="matrix(1.0, 0.0, 0.0, 1.0, 0.9, 0.9)">
      <use ffdec:characterId="938" height="63.25" id="mc100" transform="matrix(1.0, 0.0, 0.0, 1.0, 0.0, 0.0)" width="89.15" xlink:href="#sprite24"/>
      <use ffdec:characterId="939" height="65.05" transform="matrix(1.0, 0.0, 0.0, 1.0, -0.9, -0.9)" width="90.95" xlink:href="#shape21"/>
    </g>
    <g id="sprite24" transform="matrix(1.0, 0.0, 0.0, 1.0, 0.0, 0.0)">
      <use ffdec:characterId="937" height="63.25" transform="matrix(1.0, 0.0, 0.0, 1.0, 0.0, 0.0)" width="89.15" xlink:href="#shape20"/>
    </g>
    <g id="shape20" transform="matrix(1.0, 0.0, 0.0, 1.0, 0.0, 0.0)">
      <path d="M75.95 3.45 L69.05 12.9 Q78.6 18.5 84.9 25.2 L73.25 24.9 Q81.8 30.75 89.15 39.05 78.45 40.0 71.2 46.6 L70.95 46.7 Q63.65 60.5 48.8 63.0 21.65 65.45 13.8 45.5 L13.6 45.05 13.35 44.9 Q8.5 42.25 3.65 43.3 5.75 37.5 10.85 33.7 L0.0 29.1 Q4.8 22.05 14.35 20.9 L5.6 0.0 Q15.5 2.8 26.35 8.85 L25.25 2.35 26.2 2.2 33.65 17.2 42.1 16.0 42.55 16.9 Q43.9 16.2 45.3 15.65 L45.45 15.4 50.35 17.8 52.0 11.4 57.3 17.4 57.75 17.75 Q62.55 9.75 75.7 3.25 L75.95 3.45" fill="#ff6600" fill-rule="evenodd" stroke="none"/>
    </g>
    <g id="shape21" transform="matrix(1.0, 0.0, 0.0, 1.0, 0.9, 0.9)">
      <path d="M75.95 3.45 L69.05 12.9 Q78.6 18.5 84.9 25.2 L73.25 24.9 Q81.8 30.75 89.15 39.05 78.45 40.0 71.2 46.6 L70.95 46.7 Q63.65 60.5 48.8 63.0 21.65 65.45 13.8 45.5 L13.6 45.05 13.35 44.9 Q8.5 42.25 3.65 43.3 5.75 37.5 10.85 33.7 L0.0 29.1 Q4.8 22.05 14.35 20.9 L5.6 0.0 Q15.5 2.8 26.35 8.85 L25.25 2.35 M69.05 12.9 L68.6 13.5 M26.2 32.6 Q29.6 27.0 33.95 22.95 37.85 19.25 42.55 16.9 43.9 16.2 45.3 15.65 M56.95 19.2 L57.75 17.75 Q62.55 9.75 75.7 3.25 M45.45 15.4 L50.35 17.8 52.0 11.4 57.3 17.4 M73.25 24.9 L71.8 24.85 M72.15 24.15 L73.25 24.9 M26.35 8.85 L27.9 17.95 33.65 17.2 26.2 2.2 M11.35 32.95 L10.85 33.7 11.7 34.05 M32.9 22.0 L19.1 19.15 27.9 17.95 M42.1 16.0 L33.65 17.2" fill="none" stroke="#000000" stroke-linecap="round" stroke-linejoin="round" stroke-width="1.8"/>
    </g>
    <g id="sprite25" transform="matrix(1.0, 0.0, 0.0, 1.0, 1.8, 0.9)">
      <use ffdec:characterId="892" height="18.5" id="mc000" transform="matrix(1.0, 0.0, 0.0, 1.0, -1.8, -0.9)" width="27.7" xlink:href="#sprite26"/>
    </g>
    <g id="sprite26" transform="matrix(1.0, 0.0, 0.0, 1.0, 1.8, 0.9)">
      <use ffdec:characterId="891" height="16.7" id="mc100" transform="matrix(1.0, 0.0, 0.0, 1.0, -0.9, 0.0)" width="25.9" xlink:href="#sprite27"/>
      <use ffdec:characterId="204" height="18.5" transform="matrix(1.0, 0.0, 0.0, 1.0, -1.8, -0.9)" width="27.7" xlink:href="#shape23"/>
    </g>
    <g id="sprite27" transform="matrix(1.0, 0.0, 0.0, 1.0, 0.0, 0.0)">
      <use ffdec:characterId="107" height="16.7" transform="matrix(1.0, 0.0, 0.0, 1.0, 0.0, 0.0)" width="25.9" xlink:href="#shape22"/>
    </g>
    <g id="shape22" transform="matrix(1.0, 0.0, 0.0, 1.0, 0.0, 0.0)">
      <path d="M24.65 6.0 L25.9 9.9 Q20.35 14.65 13.2 16.7 L13.05 12.65 10.1 12.65 9.75 14.7 Q3.7 14.5 0.0 9.25 L1.7 6.0 2.3 0.0 Q13.05 1.35 23.8 0.5 L24.65 6.0" fill="#ffcc00" fill-rule="evenodd" stroke="none"/>
    </g>
    <g id="shape23" transform="matrix(1.0, 0.0, 0.0, 1.0, 1.8, 0.9)">
      <path d="M23.3 3.25 L23.75 6.0 25.0 9.9 Q19.45 14.65 12.3 16.7 L12.15 12.65 9.2 12.65 8.85 14.7 Q2.8 14.5 -0.9 9.25 L0.8 6.0 1.1 3.0 1.4 0.0 Q12.15 1.35 22.9 0.5 L23.3 3.25 Q12.0 3.6 1.1 3.0 M12.15 12.65 L12.15 6.0 0.8 6.0 M23.75 6.0 L12.15 6.0" fill="none" stroke="#000000" stroke-linecap="round" stroke-linejoin="round" stroke-width="1.8"/>
    </g>
    <g id="sprite28" transform="matrix(1.0, 0.0, 0.0, 1.0, 0.5, 0.9)">
      <use ffdec:characterId="112" height="11.7" transform="matrix(1.0, 0.0, 0.0, 1.0, 5.45, 3.1)" width="39.1" xlink:href="#shape24"/>
      <use ffdec:characterId="894" height="18.55" id="mc101" transform="matrix(1.0, 0.0, 0.0, 1.0, 1.8, 0.0)" width="46.4" xlink:href="#sprite29"/>
      <use ffdec:characterId="895" height="17.4" id="mc102" transform="matrix(1.0, 0.0, 0.0, 1.0, 0.0, 3.35)" width="50.0" xlink:href="#sprite30"/>
      <use ffdec:characterId="896" height="4.6" id="mc103" transform="matrix(1.0, 0.0, 0.0, 1.0, 22.75, 6.5)" width="4.6" xlink:href="#sprite31"/>
      <use ffdec:characterId="141" height="22.15" transform="matrix(1.0, 0.0, 0.0, 1.0, -0.5, -0.9)" width="51.0" xlink:href="#shape28"/>
    </g>
    <g id="shape24" transform="matrix(1.0, 0.0, 0.0, 1.0, -5.45, -3.1)">
      <path d="M43.25 14.4 Q38.1 13.75 33.25 11.5 32.1 7.6 34.1 3.65 39.25 2.4 44.3 4.1 45.15 8.6 43.25 14.4 M15.9 4.0 Q17.9 7.95 16.75 11.9 11.95 14.1 6.75 14.8 4.85 8.95 5.7 4.5 10.8 2.75 15.9 4.0" fill="#ccffff" fill-rule="evenodd" stroke="none"/>
    </g>
    <g id="sprite29" transform="matrix(1.0, 0.0, 0.0, 1.0, 0.0, 0.0)">
      <use ffdec:characterId="113" height="18.55" transform="matrix(1.0, 0.0, 0.0, 1.0, 0.0, 0.0)" width="46.4" xlink:href="#shape25"/>
    </g>
    <g id="shape25" transform="matrix(1.0, 0.0, 0.0, 1.0, 0.0, 0.0)">
      <path d="M41.45 14.4 Q43.35 8.6 42.5 4.1 37.45 2.4 32.3 3.65 30.3 7.6 31.45 11.5 36.3 13.75 41.45 14.4 M46.4 4.7 Q46.2 9.4 45.15 14.25 44.15 19.05 39.95 18.0 L33.05 15.35 Q26.2 13.2 27.5 6.2 L27.65 5.5 Q27.8 4.3 28.3 3.4 29.65 1.05 33.35 0.45 38.0 -0.45 43.0 0.4 45.85 1.3 46.3 4.0 L46.4 4.7 M14.1 4.0 Q9.0 2.75 3.9 4.5 3.05 8.95 4.95 14.8 10.15 14.1 14.95 11.9 16.1 7.95 14.1 4.0 M13.05 0.8 Q16.75 1.45 18.1 3.75 18.6 4.65 18.75 5.85 L18.9 6.6 Q20.2 13.55 13.35 15.7 L6.45 18.35 Q2.25 19.4 1.25 14.6 0.2 9.8 0.0 5.05 L0.1 4.4 Q0.6 1.65 3.4 0.75 8.4 -0.1 13.05 0.8" fill="#999999" fill-rule="evenodd" stroke="none"/>
    </g>
    <g id="sprite30" transform="matrix(1.0, 0.0, 0.0, 1.0, 0.0, 0.0)">
      <use ffdec:characterId="115" height="17.4" transform="matrix(1.0, 0.0, 0.0, 1.0, 0.0, 0.0)" width="50.0" xlink:href="#shape26"/>
    </g>
    <g id="shape26" transform="matrix(1.0, 0.0, 0.0, 1.0, 0.0, 0.0)">
      <path d="M49.35 10.4 Q48.65 13.65 46.9 16.05 44.1 18.25 36.7 15.45 29.3 12.7 28.1 9.95 27.65 8.85 27.35 7.75 27.0 6.4 27.0 5.0 26.95 4.1 27.05 3.15 27.1 2.35 27.3 1.5 28.4 -0.3 30.1 0.05 29.6 0.95 29.45 2.15 L29.3 2.85 Q28.0 9.85 34.85 12.0 L41.75 14.65 Q45.95 15.7 46.95 10.9 48.0 6.05 48.2 1.35 L48.1 0.65 Q49.9 0.25 50.0 3.75 50.15 7.3 49.35 10.4 M22.95 3.15 L23.05 5.0 22.75 7.75 21.9 10.3 Q20.7 13.05 13.3 15.85 5.9 18.6 3.1 16.4 1.4 14.0 0.65 10.75 -0.15 7.65 0.0 4.15 0.1 0.6 1.9 1.05 L1.8 1.7 Q2.0 6.45 3.05 11.25 4.05 16.05 8.25 15.0 L15.15 12.35 Q22.0 10.2 20.7 3.25 L20.55 2.5 Q20.4 1.3 19.9 0.4 21.6 0.1 22.7 1.85 L22.95 3.15" fill="#333333" fill-rule="evenodd" stroke="none"/>
    </g>
    <g id="sprite31" transform="matrix(1.0, 0.0, 0.0, 1.0, 0.0, 0.0)">
      <use ffdec:characterId="117" height="4.6" transform="matrix(1.0, 0.0, 0.0, 1.0, 0.0, 0.0)" width="4.6" xlink:href="#shape27"/>
    </g>
    <g id="shape27" transform="matrix(1.0, 0.0, 0.0, 1.0, 0.0, 0.0)">
      <path d="M0.3 1.85 L0.2 0.0 4.3 0.0 Q4.2 0.95 4.25 1.85 4.25 3.25 4.6 4.6 L0.0 4.6 0.3 1.85" fill="#999999" fill-rule="evenodd" stroke="none"/>
    </g>
    <g id="shape28" transform="matrix(1.0, 0.0, 0.0, 1.0, 0.5, 0.9)">
      <path d="M43.25 14.4 Q38.1 13.75 33.25 11.5 32.1 7.6 34.1 3.65 39.25 2.4 44.3 4.1 45.15 8.6 43.25 14.4 M48.1 4.0 L48.2 4.7 Q48.0 9.4 46.95 14.25 45.95 19.05 41.75 18.0 L34.85 15.35 Q28.0 13.2 29.3 6.2 L29.45 5.5 Q29.6 4.3 30.1 3.4 31.45 1.05 35.15 0.45 39.8 -0.45 44.8 0.4 47.65 1.3 48.1 4.0 M19.9 3.75 Q20.4 4.65 20.55 5.85 L20.7 6.6 Q22.0 13.55 15.15 15.7 L8.25 18.35 Q4.05 19.4 3.05 14.6 2.0 9.8 1.8 5.05 L1.9 4.4 Q2.4 1.65 5.2 0.75 10.2 -0.1 14.85 0.8 18.55 1.45 19.9 3.75 M15.9 4.0 Q10.8 2.75 5.7 4.5 4.85 8.95 6.75 14.8 11.95 14.1 16.75 11.9 17.9 7.95 15.9 4.0" fill="none" stroke="#000000" stroke-linecap="round" stroke-linejoin="round" stroke-width="1.8"/>
      <path d="M30.1 3.4 Q28.4 3.05 27.3 4.85 27.1 5.7 27.05 6.5 26.95 7.45 27.0 8.35 27.0 9.75 27.35 11.1 27.65 12.2 28.1 13.3 29.3 16.05 36.7 18.8 44.1 21.6 46.9 19.4 48.65 17.0 49.35 13.75 50.15 10.65 50.0 7.1 49.9 3.6 48.1 4.0 M1.9 4.4 Q0.1 3.95 0.0 7.5 -0.15 11.0 0.65 14.1 1.4 17.35 3.1 19.75 5.9 21.95 13.3 19.2 20.7 16.4 21.9 13.65 L22.75 11.1 23.05 8.35 22.95 6.5 22.7 5.2 Q21.6 3.45 19.9 3.75 M23.05 8.35 L27.0 8.35 M22.95 6.5 L27.05 6.5 M27.35 11.1 L22.75 11.1" fill="none" stroke="#000000" stroke-linecap="round" stroke-linejoin="round" stroke-width="1.0"/>
    </g>
  </defs>
</svg>
