<?xml version="1.0" encoding="UTF-8" standalone="no"?>
<svg xmlns:ffdec="https://www.free-decompiler.com/flash" xmlns:xlink="http://www.w3.org/1999/xlink" ffdec:objectType="frame" height="22.35px" width="19.85px" xmlns="http://www.w3.org/2000/svg">
  <g transform="matrix(1.0, 0.0, 0.0, 1.0, -0.35, 4.2)">
    <use ffdec:characterId="673" height="15.55" id="mc100" transform="matrix(1.0, 0.0, 0.0, 1.0, 0.35, 2.6)" width="18.55" xlink:href="#sprite0"/>
    <use ffdec:characterId="674" height="0.0" id="hat" transform="matrix(-0.2482, 0.0, 0.0, 0.2482, 20.2, -4.2)" width="0.0" xlink:href="#sprite12"/>
  </g>
  <defs>
    <g id="sprite0" transform="matrix(1.0, 0.0, 0.0, 1.0, 0.15, 0.2)">
      <use ffdec:characterId="662" height="10.3" id="mc400" transform="matrix(1.0, 0.0, 0.0, 1.0033, 5.1, 4.183)" width="13.0" xlink:href="#sprite1"/>
      <use ffdec:characterId="666" height="10.5" id="mc300" transform="matrix(1.0, 0.0, 0.0, 1.0033, 5.1, 4.0493)" width="13.2" xlink:href="#sprite3"/>
      <use ffdec:characterId="668" height="15.1" id="mc200" transform="matrix(1.0, 0.0, 0.0, 1.0033, 0.0, 0.0751)" width="18.1" xlink:href="#sprite6"/>
      <use ffdec:characterId="670" height="1.5" id="mc100" transform="matrix(1.0, 0.0, 0.0, 1.0033, 14.8, 9.3975)" width="0.8" xlink:href="#sprite8"/>
      <use ffdec:characterId="672" height="15.5" id="mc000" transform="matrix(1.0, 0.0, 0.0, 1.0033, -0.15, -0.2007)" width="18.55" xlink:href="#sprite10"/>
    </g>
    <g id="sprite1" transform="matrix(1.0, 0.0, 0.0, 1.0, 6.5, 5.15)">
      <use ffdec:characterId="661" height="46.35" id="mc000" transform="matrix(-0.2214, 0.0, 0.0, 0.2214, 6.477, -5.1262)" width="58.5" xlink:href="#sprite2"/>
    </g>
    <g id="sprite2" transform="matrix(1.0, 0.0, 0.0, 1.0, 29.25, 23.15)">
      <use ffdec:characterId="52" height="46.35" transform="matrix(1.0, 0.0, 0.0, 1.0, -29.25, -23.15)" width="58.5" xlink:href="#shape0"/>
    </g>
    <g id="shape0" transform="matrix(1.0, 0.0, 0.0, 1.0, 29.25, 23.15)">
      <path d="M28.4 -5.7 Q29.25 -2.95 29.25 0.15 29.25 3.15 28.4 5.95 26.45 11.9 20.2 16.6 13.1 21.9 3.75 23.1 -2.55 23.4 -7.6 22.85 -11.0 22.45 -13.85 21.65 L-14.2 21.55 Q-25.15 18.3 -26.45 15.7 -26.95 14.7 -26.95 13.7 L-26.8 12.6 Q-26.5 11.3 -25.5 9.95 L-25.4 9.8 Q-27.3 5.3 -28.25 0.6 -29.4 -4.85 -29.25 -10.65 -27.1 -13.7 -23.6 -16.3 -15.5 -22.45 -4.3 -23.1 L-1.7 -23.15 Q11.15 -23.15 20.2 -16.3 26.45 -11.65 28.4 -5.7" fill="#666666" fill-rule="evenodd" stroke="none"/>
    </g>
    <g id="sprite3" transform="matrix(1.0, 0.0, 0.0, 1.0, 0.2, 0.2)">
      <use ffdec:characterId="664" height="48.15" id="mc000" transform="matrix(0.2185, 0.0, 0.0, 0.2179, -0.1966, -0.1961)" width="60.3" xlink:href="#sprite4"/>
      <use ffdec:characterId="665" height="15.0" id="mc001" transform="matrix(-0.2477, 0.0, 0.0, 0.2467, 11.7729, 4.0143)" width="15.2" xlink:href="#sprite5"/>
    </g>
    <g id="sprite4" transform="matrix(1.0, 0.0, 0.0, 1.0, 0.9, 0.9)">
      <use ffdec:characterId="663" height="48.15" transform="matrix(1.0, 0.0, 0.0, 1.0, -0.9, -0.9)" width="60.3" xlink:href="#shape1"/>
    </g>
    <g id="shape1" transform="matrix(1.0, 0.0, 0.0, 1.0, 0.9, 0.9)">
      <path d="M0.85 29.1 Q2.8 35.05 9.05 39.75 16.15 45.05 25.5 46.25 31.8 46.55 36.85 46.0 L43.1 44.8 43.45 44.7 Q54.4 41.45 55.7 38.85 56.2 37.85 56.2 36.85 L56.05 35.75 Q55.75 34.45 54.75 33.1 L54.65 32.95 Q56.55 28.45 57.5 23.75 58.65 18.3 58.5 12.5 56.35 9.45 52.85 6.85 44.75 0.7 33.55 0.05 L30.95 0.0 Q18.1 0.0 9.05 6.85 2.8 11.5 0.85 17.45 0.0 20.2 0.0 23.3 0.0 26.3 0.85 29.1 Z" fill="none" stroke="#000000" stroke-linecap="round" stroke-linejoin="round" stroke-width="1.8"/>
    </g>
    <g id="sprite5" transform="matrix(1.0, 0.0, 0.0, 1.0, 0.9, 0.55)">
      <use ffdec:characterId="629" height="15.0" transform="matrix(1.0, 0.0, 0.0, 1.0, -0.9, -0.55)" width="15.2" xlink:href="#shape2"/>
    </g>
    <g id="shape2" transform="matrix(1.0, 0.0, 0.0, 1.0, 0.9, 0.55)">
      <path d="M13.15 0.35 Q14.75 12.25 5.7 13.55 L1.5 10.55 Q2.2 1.8 13.15 0.35" fill="#ffffff" fill-rule="evenodd" stroke="none"/>
      <path d="M1.5 10.55 L5.7 13.55 Q14.75 12.25 13.15 0.35 2.2 1.8 1.5 10.55 L0.0 10.9" fill="none" stroke="#000000" stroke-linecap="round" stroke-linejoin="round" stroke-width="1.8"/>
    </g>
    <g id="sprite6" transform="matrix(1.0, 0.0, 0.0, 1.0, 9.05, 7.55)">
      <use ffdec:characterId="667" height="61.65" id="mc000" transform="matrix(-0.2454, 0.0, 0.0, 0.2446, 9.0416, -7.5341)" width="73.75" xlink:href="#sprite7"/>
    </g>
    <g id="sprite7" transform="matrix(1.0, 0.0, 0.0, 1.0, 36.85, 30.8)">
      <use ffdec:characterId="198" height="61.65" transform="matrix(1.0, 0.0, 0.0, 1.0, -36.85, -30.8)" width="73.75" xlink:href="#shape3"/>
    </g>
    <g id="shape3" transform="matrix(1.0, 0.0, 0.0, 1.0, 36.85, 30.8)">
      <path d="M36.6 6.15 Q35.4 26.9 9.0 29.4 L8.75 29.45 Q-5.5 31.55 -15.2 30.45 L-21.8 29.15 Q-32.75 25.9 -34.05 23.3 -34.8 21.8 -34.4 20.2 L-33.65 20.4 Q-23.65 20.55 -14.2 15.3 L-13.75 8.8 Q-24.4 9.2 -35.85 8.2 -37.5 0.3 -36.45 -8.3 -28.05 -38.2 16.7 -28.4 38.75 -19.4 36.75 6.0 L36.6 6.15" fill="#666666" fill-rule="evenodd" stroke="none"/>
    </g>
    <g id="sprite8" transform="matrix(1.0, 0.0, 0.0, 1.0, 0.4, 0.75)">
      <use ffdec:characterId="669" height="7.75" id="mc000" transform="matrix(0.1924, 0.0, 0.0, 0.1937, -0.4041, -0.7456)" width="4.2" xlink:href="#sprite9"/>
    </g>
    <g id="sprite9" transform="matrix(1.0, 0.0, 0.0, 1.0, 2.1, 3.85)">
      <use ffdec:characterId="194" height="7.75" transform="matrix(1.0, 0.0, 0.0, 1.0, -2.1, -3.85)" width="4.2" xlink:href="#shape4"/>
    </g>
    <g id="shape4" transform="matrix(1.0, 0.0, 0.0, 1.0, 2.1, 3.85)">
      <path d="M0.55 -2.05 L0.55 -3.85 1.45 -2.85 Q2.1 -1.7 2.1 -0.05 2.1 1.6 1.45 2.75 0.85 3.9 0.0 3.9 -0.85 3.9 -1.5 2.75 -2.1 1.6 -2.1 -0.05 L-1.8 -2.05 0.55 -2.05" fill="#666666" fill-rule="evenodd" stroke="none"/>
    </g>
    <g id="sprite10" transform="matrix(1.0, 0.0, 0.0, 1.0, 0.25, 0.2)">
      <use ffdec:characterId="671" height="63.45" id="mc000" transform="matrix(0.2456, 0.0, 0.0, 0.2446, -0.2333, -0.2201)" width="75.55" xlink:href="#sprite11"/>
    </g>
    <g id="sprite11" transform="matrix(1.0, 0.0, 0.0, 1.0, 0.95, 0.9)">
      <use ffdec:characterId="636" height="63.45" transform="matrix(1.0, 0.0, 0.0, 1.0, -0.95, -0.9)" width="75.55" xlink:href="#shape5"/>
    </g>
    <g id="shape5" transform="matrix(1.0, 0.0, 0.0, 1.0, 0.95, 0.9)">
      <path d="M57.35 22.55 Q49.15 21.45 49.95 29.35 L49.95 29.7 50.6 39.6 Q61.25 40.0 72.7 39.0 74.35 31.1 73.3 22.5 64.9 -7.4 20.15 2.4 -1.9 11.4 0.1 36.8 L0.25 36.95 Q1.45 57.7 27.85 60.2 L28.1 60.25 Q42.35 62.35 52.05 61.25 L51.05 46.1 50.6 39.6 M52.05 61.25 Q55.7 60.8 58.65 59.95 69.6 56.7 70.9 54.1 71.65 52.6 71.25 51.0 M70.5 51.2 Q60.5 51.35 51.05 46.1" fill="none" stroke="#000000" stroke-linecap="round" stroke-linejoin="round" stroke-width="1.8"/>
    </g>
  </defs>
</svg>
