<?xml version="1.0" encoding="UTF-8" standalone="no"?>
<svg xmlns:ffdec="https://www.free-decompiler.com/flash" xmlns:xlink="http://www.w3.org/1999/xlink" ffdec:objectType="frame" height="109.15px" width="90.65px" xmlns="http://www.w3.org/2000/svg">
  <g transform="matrix(1.0, 0.0, 0.0, 1.0, -0.1, 17.6)">
    <clipPath id="clipPath0" transform="matrix(1.0, 0.0, 0.0, 1.0, 0.0, 0.0)">
      <path d="M77.5 13.45 Q90.75 26.75 90.75 45.55 90.75 64.35 77.5 77.6 64.2 90.85 45.4 90.85 26.6 90.85 13.35 77.6 0.1 64.35 0.1 45.55 0.1 26.75 13.35 13.45 26.6 0.2 45.4 0.2 64.2 0.2 77.5 13.45" fill="#ff0000" fill-rule="evenodd" stroke="none"/>
    </clipPath>
    <g clip-path="url(#clipPath0)">
      <use ffdec:characterId="658" height="85.55" id="mc200" transform="matrix(1.0, 0.0, 0.0, 1.0, 7.0, 6.0)" width="77.35" xlink:href="#sprite0"/>
      <use ffdec:characterId="659" height="0.0" id="hat" transform="matrix(1.0, 0.0, 0.0, 1.0, 5.05, -17.6)" width="0.0" xlink:href="#sprite9"/>
    </g>
  </g>
  <defs>
    <g id="sprite0" transform="matrix(1.0, 0.0, 0.0, 1.0, 0.85, 0.65)">
      <use ffdec:characterId="644" height="20.9" id="mc700" transform="matrix(1.0, 0.0, 0.0, 1.0006, 12.4, 57.8438)" width="47.65" xlink:href="#sprite1"/>
      <use ffdec:characterId="646" height="55.0" id="mc600" transform="matrix(1.0, 0.0, 0.0, 1.0006, 7.4, 15.2861)" width="61.9" xlink:href="#sprite2"/>
      <use ffdec:characterId="648" height="84.45" id="mc500" transform="matrix(1.0, 0.0, 0.0, 1.0006, 0.0, 0.0112)" width="75.55" xlink:href="#sprite3"/>
      <use ffdec:characterId="649" height="9.05" id="mc400" transform="matrix(-1.0, 0.0, 0.0, 1.0006, 35.05, 44.1999)" width="20.95" xlink:href="#sprite4"/>
      <use ffdec:characterId="649" height="9.05" id="mc401" transform="matrix(1.0, 0.0, 0.0, 1.0006, 40.6, 43.9999)" width="20.95" xlink:href="#sprite4"/>
      <use ffdec:characterId="651" height="18.65" id="mc300" transform="matrix(0.2514, -0.9676, 0.967, 0.2516, 45.9928, 68.7359)" width="10.95" xlink:href="#sprite5"/>
      <use ffdec:characterId="651" height="18.65" id="mc301" transform="matrix(-0.2477, -0.9686, -0.968, 0.2478, 26.851, 68.6369)" width="10.95" xlink:href="#sprite5"/>
      <use ffdec:characterId="653" height="7.55" id="mc200" transform="matrix(-1.0, 0.0, 0.0, 1.0006, 38.3, 77.3004)" width="17.1" xlink:href="#sprite6"/>
      <use ffdec:characterId="653" height="7.55" id="mc201" transform="matrix(1.0, 0.0, 0.0, 1.0006, 35.85, 77.3504)" width="17.1" xlink:href="#sprite6"/>
      <use ffdec:characterId="655" height="19.65" id="mc100" transform="matrix(1.0, 0.0, 0.0, 1.0006, 21.65, 60.3013)" width="29.95" xlink:href="#sprite7"/>
      <use ffdec:characterId="657" height="63.85" id="mc000" transform="matrix(1.0, 0.0, 0.0, 1.0006, -0.85, -0.6511)" width="77.35" xlink:href="#sprite8"/>
    </g>
    <g id="sprite1" transform="matrix(1.0, 0.0, 0.0, 1.0, 24.35, 10.45)">
      <use ffdec:characterId="643" height="20.9" transform="matrix(1.0, 0.0, 0.0, 1.0, -24.35, -10.45)" width="47.65" xlink:href="#shape1"/>
    </g>
    <g id="shape1" transform="matrix(1.0, 0.0, 0.0, 1.0, 24.35, 10.45)">
      <path d="M16.8 -5.5 L22.0 -6.15 Q24.35 -2.9 22.45 1.45 L21.45 1.4 20.5 1.35 17.25 1.35 16.6 0.95 16.25 -5.45 16.8 -5.5 M7.9 -10.45 L9.95 -10.45 10.05 -9.9 10.05 -9.8 10.25 -8.4 -1.05 3.8 12.05 3.8 13.05 10.45 -13.1 10.45 -12.2 3.8 -4.85 3.8 -2.1 0.75 -10.55 -8.4 -10.3 -10.45 -8.75 -10.45 -0.3 -1.25 7.9 -10.45 M-17.85 -5.75 L-17.3 -5.7 -17.65 0.7 -18.3 1.1 -21.55 1.1 -22.5 1.15 -23.5 1.2 Q-25.4 -3.15 -23.05 -6.4 L-17.85 -5.75" fill="#cc0000" fill-rule="evenodd" stroke="none"/>
    </g>
    <g id="sprite2" transform="matrix(1.0, 0.0, 0.0, 1.0, 30.95, 23.3)">
      <use ffdec:characterId="645" height="55.0" transform="matrix(1.0, 0.0, 0.0, 1.0, -30.95, -23.3)" width="61.9" xlink:href="#shape2"/>
    </g>
    <g id="shape2" transform="matrix(1.0, 0.0, 0.0, 1.0, 30.95, 23.3)">
      <path d="M21.9 -16.45 Q28.15 -11.8 30.1 -5.85 30.95 -3.1 30.95 0.0 30.95 3.0 30.1 5.8 28.15 11.75 21.9 16.45 12.85 23.25 0.0 23.3 -12.85 23.25 -21.9 16.45 -30.95 9.6 -30.95 0.0 -31.05 -5.55 -28.0 -10.15 -25.8 -13.55 -21.9 -16.45 -13.8 -22.6 -2.6 -23.25 L0.0 -23.3 Q12.85 -23.3 21.9 -16.45 M21.25 23.8 L22.6 23.85 Q24.7 23.85 25.7 25.1 26.7 26.4 26.65 28.05 26.45 29.85 25.15 30.95 23.95 31.95 22.05 31.65 L21.25 31.5 20.55 31.4 Q23.1 27.4 21.25 23.8 M-25.35 23.25 Q-27.2 26.85 -24.65 30.85 L-25.35 30.95 -26.15 31.1 Q-28.05 31.4 -29.25 30.4 -30.55 29.3 -30.75 27.5 -30.8 25.85 -29.8 24.55 -28.8 23.3 -26.7 23.3 L-25.35 23.25" fill="#a17850" fill-rule="evenodd" stroke="none"/>
    </g>
    <g id="sprite3" transform="matrix(1.0, 0.0, 0.0, 1.0, 36.55, 65.2)">
      <use ffdec:characterId="647" height="84.45" transform="matrix(1.0, 0.0, 0.0, 1.0, -36.55, -65.2)" width="75.55" xlink:href="#shape3"/>
    </g>
    <g id="shape3" transform="matrix(1.0, 0.0, 0.0, 1.0, 36.55, 65.2)">
      <path d="M36.25 -45.65 Q41.05 -33.25 37.5 -20.1 L37.4 -19.75 Q33.7 -10.75 26.05 -7.05 22.9 -5.6 19.15 -4.95 L18.6 -4.9 14.35 -4.25 13.2 -2.4 17.0 -2.7 16.85 3.7 17.0 3.85 17.0 4.1 16.7 4.05 11.55 3.1 12.15 7.15 -0.95 7.15 9.1 -3.65 4.65 -3.35 -0.2 2.1 -5.05 -3.2 -8.9 -3.35 -2.0 4.1 -4.75 7.15 -12.1 7.15 -11.45 2.6 -16.55 3.5 -17.3 3.6 -16.7 3.15 -17.05 -3.25 -13.5 -2.95 -14.25 -4.25 Q-19.75 -5.45 -23.8 -7.35 -32.35 -11.35 -34.55 -18.65 L-34.75 -19.25 Q-38.05 -29.35 -35.35 -41.25 -32.9 -56.3 -10.25 -63.25 2.85 -67.25 14.35 -62.95 30.15 -58.95 36.25 -45.9 L36.25 -45.65 M27.8 -19.3 L28.45 -24.9 Q0.45 -23.0 -26.2 -24.5 L-25.55 -19.25 Q-12.9 -11.25 1.45 -11.35 16.25 -11.85 27.8 -19.3 M14.45 12.65 Q16.3 14.4 15.6 16.95 -0.15 21.75 -14.45 16.5 -15.0 14.4 -13.1 12.65 L14.45 12.65" fill="#1d1d1d" fill-rule="evenodd" stroke="none"/>
    </g>
    <g id="sprite4" transform="matrix(1.0, 0.0, 0.0, 1.0, 0.1, 0.1)">
      <use ffdec:characterId="216" height="9.05" transform="matrix(1.0, 0.0, 0.0, 1.0, -0.1, -0.1)" width="20.95" xlink:href="#shape4"/>
    </g>
    <g id="shape4" transform="matrix(1.0, 0.0, 0.0, 1.0, 0.1, 0.1)">
      <path d="M8.35 1.85 L7.85 2.2 8.05 2.0 8.35 1.85" fill="#1d1d1d" fill-rule="evenodd" stroke="none"/>
      <path d="M7.85 2.2 L8.35 1.85 Q15.6 -2.5 20.75 3.35 L19.15 5.15 Q11.25 -0.25 2.2 8.85 L0.0 8.3 1.6 8.2 1.75 8.0 Q3.95 4.7 7.85 2.2" fill="#000000" fill-rule="evenodd" stroke="none"/>
      <path d="M8.35 1.85 L8.05 2.0 7.85 2.2 Q3.95 4.7 1.75 8.0 L1.6 8.2 0.0 8.3 2.2 8.85 Q11.25 -0.25 19.15 5.15 L20.75 3.35 Q15.6 -2.5 8.35 1.85 Z" fill="none" stroke="#000000" stroke-linecap="round" stroke-linejoin="round" stroke-width="0.25"/>
    </g>
    <g id="sprite5" transform="matrix(1.0, 0.0, 0.0, 1.0, 1.6, -0.15)">
      <use ffdec:characterId="650" height="18.65" transform="matrix(1.0, 0.0, 0.0, 1.0, -1.6, 0.15)" width="10.95" xlink:href="#shape5"/>
    </g>
    <g id="shape5" transform="matrix(1.0, 0.0, 0.0, 1.0, 1.6, -0.15)">
      <path d="M6.2 5.75 L6.4 6.45 7.1 8.8 7.3 9.6 7.55 10.5 7.85 11.4 8.05 12.15 8.25 12.9 Q8.8 14.75 7.95 16.05 7.0 17.45 5.25 17.85 3.55 18.15 2.15 17.25 0.8 16.4 0.6 14.35 L0.35 13.0 -0.3 7.8 -0.35 7.25 -0.7 3.3 -0.45 2.2 Q-0.2 1.6 2.0 1.25 L4.65 1.3 Q5.0 1.65 5.15 2.15 L6.2 5.75 M0.35 13.0 L0.4 13.0 Q4.2 14.4 7.85 11.45 L7.85 11.4 M7.1 8.8 L0.65 10.2 M5.9 5.9 L-0.35 7.25" fill="none" stroke="#000000" stroke-linecap="round" stroke-linejoin="round" stroke-width="1.8"/>
    </g>
    <g id="sprite6" transform="matrix(1.0, 0.0, 0.0, 1.0, 0.9, -0.75)">
      <use ffdec:characterId="652" height="7.55" transform="matrix(1.0, 0.0, 0.0, 1.0, -0.9, 0.75)" width="17.1" xlink:href="#shape6"/>
    </g>
    <g id="shape6" transform="matrix(1.0, 0.0, 0.0, 1.0, 0.9, -0.75)">
      <path d="M13.85 1.65 Q14.8 2.15 15.15 3.25 15.45 4.15 15.2 4.9 M0.0 7.4 L0.2 2.6" fill="none" stroke="#000000" stroke-linecap="round" stroke-linejoin="round" stroke-width="1.8"/>
    </g>
    <g id="sprite7" transform="matrix(1.0, 0.0, 0.0, 1.0, -0.9, -2.15)">
      <use ffdec:characterId="654" height="19.65" transform="matrix(1.0, 0.0, 0.0, 1.0, 0.9, 2.15)" width="29.95" xlink:href="#shape7"/>
    </g>
    <g id="shape7" transform="matrix(1.0, 0.0, 0.0, 1.0, -0.9, -2.15)">
      <path d="M24.8 3.95 L14.8 14.25 27.9 14.25 26.95 7.9 26.45 4.2 24.8 3.95 M29.95 3.05 L26.95 7.9 M27.9 14.25 L28.4 17.4 28.9 20.9 2.75 20.9 3.2 17.4 3.65 14.25 5.1 4.3 6.95 4.3 13.75 11.2 15.55 9.2 11.4 4.2 M15.55 9.2 L20.05 4.1 M1.8 3.35 L4.25 7.55 M14.8 14.25 L11.0 14.25 3.65 14.25 M11.0 14.25 L13.75 11.2 M28.4 17.4 L3.2 17.4" fill="none" stroke="#000000" stroke-linecap="round" stroke-linejoin="round" stroke-width="1.8"/>
    </g>
    <g id="sprite8" transform="matrix(1.0, 0.0, 0.0, 1.0, 0.9, 1.9)">
      <use ffdec:characterId="656" height="63.85" transform="matrix(1.0, 0.0, 0.0, 1.0, -0.9, -1.9)" width="77.35" xlink:href="#shape8"/>
    </g>
    <g id="shape8" transform="matrix(1.0, 0.0, 0.0, 1.0, 0.9, 1.9)">
      <path d="M73.95 44.45 Q70.25 53.45 62.6 57.15 59.45 58.6 55.7 59.25 L55.15 59.3 Q40.8 61.7 27.15 60.8 L26.85 60.75 Q18.4 59.5 12.75 56.85 4.2 52.85 2.0 45.55 L1.8 44.95 Q-1.5 34.85 1.2 22.95 3.65 7.9 26.3 0.95 39.4 -3.05 50.9 1.25 66.7 5.25 72.8 18.3 L72.8 18.55 Q77.6 30.95 74.05 44.1 L73.95 44.45 M65.0 39.3 Q37.0 41.2 10.35 39.7 L11.0 44.95 Q23.65 52.95 38.0 52.85 52.8 52.35 64.35 44.9 L65.0 39.3 65.7 31.75 Q65.65 21.45 58.45 23.15 M16.85 22.95 Q9.65 21.25 9.6 31.55 L10.35 39.7 M11.0 44.95 Q11.75 50.9 12.75 56.85 M62.6 57.15 L64.35 44.9" fill="none" stroke="#000000" stroke-linecap="round" stroke-linejoin="round" stroke-width="1.8"/>
    </g>
  </defs>
</svg>
