<?xml version="1.0" encoding="UTF-8" standalone="no"?>
<svg xmlns:ffdec="https://www.free-decompiler.com/flash" xmlns:xlink="http://www.w3.org/1999/xlink" ffdec:objectType="frame" height="118.3px" width="97.35px" xmlns="http://www.w3.org/2000/svg">
  <g transform="matrix(1.0, 0.0, 0.0, 1.0, 48.4, 114.3)">
    <use ffdec:characterId="272" height="18.85" id="mc13120" transform="matrix(0.9943, 0.1004, -0.1004, 0.9943, -9.6183, -20.1428)" width="10.9" xlink:href="#sprite0"/>
    <use ffdec:characterId="272" height="18.85" id="mc12120" transform="matrix(0.9943, 0.1004, -0.1004, 0.9943, 0.9817, -18.1428)" width="10.9" xlink:href="#sprite0"/>
    <use ffdec:characterId="275" height="20.35" id="mc11120" transform="matrix(0.9862, 0.1478, -0.1478, 0.9862, -18.1592, -35.2278)" width="13.05" xlink:href="#sprite2"/>
    <use ffdec:characterId="275" height="20.35" id="mc10120" transform="matrix(-0.9965, -0.0441, -0.0441, 0.9965, 20.6243, -33.5753)" width="13.05" xlink:href="#sprite2"/>
    <use ffdec:characterId="277" height="18.8" id="mc9120" transform="matrix(0.9999, 0.0047, -0.0047, 0.9999, -12.7464, -33.9035)" width="25.85" xlink:href="#sprite5"/>
    <use ffdec:characterId="279" height="11.25" id="mc8120" transform="matrix(0.9999, 0.0047, -0.0047, 0.9999, -18.4964, -17.2035)" width="37.6" xlink:href="#sprite7"/>
    <use ffdec:characterId="281" height="22.3" id="mc7120" transform="matrix(0.9999, 0.0047, -0.0047, 0.9999, -12.7957, -44.0042)" width="26.9" xlink:href="#sprite9"/>
    <use ffdec:characterId="285" height="29.9" id="mc6120" transform="matrix(0.9998, 0.0135, -0.0135, 0.9998, -30.1877, -59.662)" width="64.45" xlink:href="#sprite11"/>
    <use ffdec:characterId="287" height="27.9" id="mc5120" transform="matrix(0.9978, 0.0578, -0.0578, 0.9978, -25.5461, -46.2)" width="6.1" xlink:href="#sprite13"/>
    <use ffdec:characterId="289" height="27.0" id="mc4120" transform="matrix(0.9978, 0.0578, -0.0578, 0.9978, -44.8961, -49.25)" width="23.95" xlink:href="#sprite15"/>
    <use ffdec:characterId="287" height="27.9" id="mc3120" transform="matrix(-0.9985, -0.0484, -0.0484, 0.9985, 27.0922, -45.605)" width="6.1" xlink:href="#sprite13"/>
    <use ffdec:characterId="289" height="27.0" id="mc2120" transform="matrix(-0.9985, -0.0484, -0.0484, 0.9985, 46.8922, -44.505)" width="23.95" xlink:href="#sprite15"/>
    <use ffdec:characterId="295" height="62.1" id="hide_hat" transform="matrix(-0.9998, -0.0135, -0.0135, 0.9998, 46.762, -111.8377)" width="86.1" xlink:href="#sprite17"/>
    <use ffdec:characterId="296" height="0.0" id="hat" transform="matrix(1.0, 0.0, 0.0, 1.0, -33.95, -104.4)" width="0.0" xlink:href="#sprite20"/>
  </g>
  <defs>
    <g id="sprite0" transform="matrix(1.0, 0.0, 0.0, 1.0, 4.95, 9.5)">
      <use ffdec:characterId="271" height="3.3" id="mc100" transform="matrix(1.0, 0.0, 0.0, 1.0, -3.65, 3.05)" width="8.7" xlink:href="#sprite1"/>
      <use ffdec:characterId="102" height="18.85" transform="matrix(1.0, 0.0, 0.0, 1.0, -4.95, -9.5)" width="10.9" xlink:href="#shape1"/>
    </g>
    <g id="sprite1" transform="matrix(1.0, 0.0, 0.0, 1.0, 4.35, 1.65)">
      <use ffdec:characterId="1" height="3.3" transform="matrix(1.0, 0.0, 0.0, 1.0, -4.35, -1.65)" width="8.7" xlink:href="#shape0"/>
    </g>
    <g id="shape0" transform="matrix(1.0, 0.0, 0.0, 1.0, 4.35, 1.65)">
      <path d="M-4.35 -0.85 L4.0 -1.65 4.35 0.75 -4.2 1.65 -4.35 -0.85" fill="#00ffff" fill-rule="evenodd" stroke="none"/>
    </g>
    <g id="shape1" transform="matrix(1.0, 0.0, 0.0, 1.0, 4.95, 9.5)">
      <path d="M-3.65 3.85 L-4.05 -6.3 Q-4.1 -7.15 -3.15 -7.75 -2.1 -8.4 -0.55 -8.55 L2.1 -8.25 Q3.15 -7.75 3.3 -7.0 L3.35 -6.85 3.35 -6.65 4.7 3.05 -3.65 3.85 M5.05 5.55 L5.05 5.7 Q5.15 6.65 3.9 7.45 2.7 8.25 0.95 8.4 -0.8 8.55 -2.15 7.95 -3.45 7.45 -3.55 6.5 L-3.55 6.35 -3.5 6.35 4.7 5.5 5.05 5.55" fill="#000000" fill-rule="evenodd" stroke="none"/>
      <path d="M-3.65 3.85 L-4.05 -6.3 Q-4.1 -7.15 -3.15 -7.75 -2.1 -8.4 -0.55 -8.55 L2.1 -8.25 Q3.15 -7.75 3.3 -7.0 L3.35 -6.85 3.35 -6.65 4.7 3.05 5.05 5.45 5.05 5.55 5.05 5.7 Q5.15 6.65 3.9 7.45 2.7 8.25 0.95 8.4 -0.8 8.55 -2.15 7.95 -3.45 7.45 -3.55 6.5 L-3.55 6.35 -3.55 6.1 -3.65 3.85 4.7 3.05 M-3.55 6.35 L-3.5 6.35 4.7 5.5" fill="none" stroke="#000000" stroke-linecap="round" stroke-linejoin="round" stroke-width="1.8"/>
    </g>
    <g id="sprite2" transform="matrix(1.0, 0.0, 0.0, 1.0, 6.55, 10.15)">
      <use ffdec:characterId="273" height="4.9" id="mc200" transform="matrix(1.0, 0.0, 0.0, 1.0, -5.65, 4.4)" width="6.65" xlink:href="#sprite3"/>
      <use ffdec:characterId="274" height="13.2" id="mc100" transform="matrix(1.0, 0.0, 0.0, 1.0, -5.35, -5.05)" width="10.15" xlink:href="#sprite4"/>
      <use ffdec:characterId="64" height="20.35" transform="matrix(1.0, 0.0, 0.0, 1.0, -6.55, -10.15)" width="13.05" xlink:href="#shape4"/>
    </g>
    <g id="sprite3" transform="matrix(1.0, 0.0, 0.0, 1.0, 3.35, 2.45)">
      <use ffdec:characterId="5" height="4.9" transform="matrix(1.0, 0.0, 0.0, 1.0, -3.35, -2.45)" width="6.65" xlink:href="#shape2"/>
    </g>
    <g id="shape2" transform="matrix(1.0, 0.0, 0.0, 1.0, 3.35, 2.45)">
      <path d="M-3.05 -2.45 L-2.8 -2.35 3.3 1.3 3.2 1.4 2.15 2.15 Q0.6 2.75 -0.9 2.15 -2.5 1.45 -3.1 -0.05 -3.55 -1.15 -3.1 -2.4 L-3.05 -2.45" fill="#ffcc66" fill-rule="evenodd" stroke="none"/>
    </g>
    <g id="sprite4" transform="matrix(1.0, 0.0, 0.0, 1.0, 5.1, 6.6)">
      <use ffdec:characterId="7" height="13.2" transform="matrix(1.0, 0.0, 0.0, 1.0, -5.1, -6.6)" width="10.15" xlink:href="#shape3"/>
    </g>
    <g id="shape3" transform="matrix(1.0, 0.0, 0.0, 1.0, 5.1, 6.6)">
      <path d="M-4.85 2.95 L-5.1 2.85 -4.85 2.2 -4.1 0.7 -3.7 0.9 2.25 4.7 2.1 5.05 1.25 6.6 -4.85 2.95 M5.05 -4.25 L4.1 -0.95 3.75 0.15 -2.25 -2.9 -1.95 -3.5 -0.2 -6.6 5.05 -4.25" fill="#00ff00" fill-rule="evenodd" stroke="none"/>
    </g>
    <g id="shape4" transform="matrix(1.0, 0.0, 0.0, 1.0, 6.55, 10.15)">
      <path d="M-0.45 -5.05 Q1.4 -8.35 2.2 -8.8 3.05 -9.35 3.85 -9.2 L4.3 -9.1 Q5.3 -8.65 5.55 -7.4 5.75 -6.5 4.8 -2.7 L-0.45 -5.05 M3.5 1.7 L2.0 6.25 -3.95 2.45 -4.35 2.25 -2.5 -1.35 3.5 1.7" fill="#ffffff" fill-rule="evenodd" stroke="none"/>
      <path d="M4.8 -2.7 Q5.75 -6.5 5.55 -7.4 5.3 -8.65 4.3 -9.1 L3.85 -9.2 Q3.05 -9.35 2.2 -8.8 1.4 -8.35 -0.45 -5.05 L-2.2 -1.95 -2.5 -1.35 -4.35 2.25 -5.1 3.75 -5.35 4.4 -5.4 4.45 Q-5.85 5.7 -5.4 6.8 -4.8 8.3 -3.2 9.0 -1.7 9.6 -0.15 9.0 L0.9 8.25 1.0 8.15 1.85 6.6 2.0 6.25 3.5 1.7 3.85 0.6 4.8 -2.7" fill="none" stroke="#000000" stroke-linecap="round" stroke-linejoin="round" stroke-width="1.8"/>
      <path d="M-0.45 -5.05 L4.8 -2.7 M-5.1 4.5 L0.7 7.95 M-2.5 -1.35 L3.5 1.7 M2.0 6.25 L-3.95 2.45" fill="none" stroke="#000000" stroke-linecap="round" stroke-linejoin="round" stroke-width="1.5"/>
    </g>
    <g id="sprite5" transform="matrix(1.0, 0.0, 0.0, 1.0, 0.75, 0.75)">
      <use ffdec:characterId="276" height="14.75" id="mc100" transform="matrix(1.0, 0.0, 0.0, 1.0, 0.0, 2.55)" width="24.35" xlink:href="#sprite6"/>
      <use ffdec:characterId="67" height="18.8" transform="matrix(1.0, 0.0, 0.0, 1.0, -0.75, -0.75)" width="25.85" xlink:href="#shape6"/>
    </g>
    <g id="sprite6" transform="matrix(1.0, 0.0, 0.0, 1.0, 12.15, 7.35)">
      <use ffdec:characterId="15" height="14.75" transform="matrix(1.0, 0.0, 0.0, 1.0, -12.15, -7.35)" width="24.35" xlink:href="#shape5"/>
    </g>
    <g id="shape5" transform="matrix(1.0, 0.0, 0.0, 1.0, 12.15, 7.35)">
      <path d="M12.15 -5.15 L12.15 -4.6 -12.1 -4.6 -12.05 -5.15 -11.95 -7.35 12.05 -7.35 12.15 -5.15 M11.85 7.4 L-11.75 7.4 -11.95 4.65 12.05 4.65 11.85 7.4 M12.2 1.25 L-12.1 1.35 -12.15 -1.8 12.2 -1.85 12.2 1.25" fill="#00ff00" fill-rule="evenodd" stroke="none"/>
    </g>
    <g id="shape6" transform="matrix(1.0, 0.0, 0.0, 1.0, 0.75, 0.75)">
      <path d="M24.2 14.55 L0.2 14.55 0.05 11.25 24.35 11.15 24.2 14.55 M0.0 8.1 L0.05 5.3 24.3 5.3 24.35 8.05 0.0 8.1 M0.2 2.55 L0.4 0.0 24.0 0.0 24.2 2.55 0.2 2.55" fill="#ffffff" fill-rule="evenodd" stroke="none"/>
      <path d="M0.2 14.55 L0.4 17.3 24.0 17.3 24.2 14.55 0.2 14.55 0.05 11.25 0.0 8.1 0.05 5.3 0.1 4.75 0.2 2.55 0.4 0.0 24.0 0.0 24.2 2.55 24.3 4.75 24.3 5.3 24.35 8.05 24.35 11.15 24.2 14.55 M24.35 11.15 L0.05 11.25 M24.2 2.55 L0.2 2.55 M24.3 5.3 L0.05 5.3 M0.0 8.1 L24.35 8.05" fill="none" stroke="#000000" stroke-linecap="round" stroke-linejoin="round" stroke-width="1.5"/>
    </g>
    <g id="sprite7" transform="matrix(1.0, 0.0, 0.0, 1.0, 0.75, 0.75)">
      <use ffdec:characterId="278" height="9.75" id="mc100" transform="matrix(1.0, 0.0, 0.0, 1.0, 0.0, 0.0)" width="36.1" xlink:href="#sprite8"/>
      <use ffdec:characterId="225" height="11.25" transform="matrix(1.0, 0.0, 0.0, 1.0, -0.75, -0.75)" width="37.6" xlink:href="#shape8"/>
    </g>
    <g id="sprite8" transform="matrix(1.0, 0.0, 0.0, 1.0, 18.05, 4.85)">
      <use ffdec:characterId="11" height="9.75" transform="matrix(1.0, 0.0, 0.0, 1.0, -18.05, -4.85)" width="36.1" xlink:href="#shape7"/>
    </g>
    <g id="shape7" transform="matrix(1.0, 0.0, 0.0, 1.0, 18.05, 4.85)">
      <path d="M11.55 -4.75 L18.05 0.55 14.55 4.7 11.45 1.8 8.7 4.65 6.2 1.5 3.35 4.45 -0.25 1.4 -4.05 4.9 -7.4 2.3 -9.95 4.8 -12.95 1.5 -15.7 4.25 -18.05 0.2 -11.2 -4.85 11.55 -4.75" fill="#996666" fill-rule="evenodd" stroke="none"/>
    </g>
    <g id="shape8" transform="matrix(1.0, 0.0, 0.0, 1.0, 0.75, 0.75)">
      <path d="M35.95 5.6 L32.6 9.55 29.5 6.65 26.75 9.5 24.25 6.35 21.4 9.3 21.05 9.0 17.8 6.25 14.0 9.75 10.65 7.15 8.1 9.65 5.1 6.35 2.35 9.1 0.0 5.05 6.85 0.0 29.6 0.1 36.1 5.4 M22.9 4.7 L24.25 6.35 M29.5 6.65 L26.9 4.2 M15.8 4.4 L14.0 9.75 M10.65 7.15 L12.75 5.05 M7.05 4.35 L5.1 6.35 M21.05 9.0 L20.05 5.0" fill="none" stroke="#000000" stroke-linecap="round" stroke-linejoin="round" stroke-width="1.5"/>
    </g>
    <g id="sprite9" transform="matrix(1.0, 0.0, 0.0, 1.0, 0.9, 0.9)">
      <use ffdec:characterId="280" height="20.5" id="mc100" transform="matrix(1.0, 0.0, 0.0, 1.0, 0.0, 0.0)" width="25.1" xlink:href="#sprite10"/>
      <use ffdec:characterId="70" height="22.3" transform="matrix(1.0, 0.0, 0.0, 1.0, -0.9, -0.9)" width="26.9" xlink:href="#shape10"/>
    </g>
    <g id="sprite10" transform="matrix(1.0, 0.0, 0.0, 1.0, 12.55, 10.25)">
      <use ffdec:characterId="23" height="20.5" transform="matrix(1.0, 0.0, 0.0, 1.0, -12.55, -10.25)" width="25.1" xlink:href="#shape9"/>
    </g>
    <g id="shape9" transform="matrix(1.0, 0.0, 0.0, 1.0, 12.55, 10.25)">
      <path d="M3.3 -9.9 Q2.3 0.0 3.35 9.9 L0.0 10.25 -3.55 9.9 -3.2 -9.9 0.0 -10.25 3.3 -9.9 M9.75 6.5 Q8.6 0.05 9.65 -6.55 12.55 -3.75 12.55 0.0 12.55 3.7 9.75 6.5 M-8.7 -6.95 Q-9.65 0.35 -8.8 7.25 L-8.9 7.25 Q-12.55 4.25 -12.55 0.0 -12.55 -4.2 -8.95 -7.2 L-8.7 -6.95" fill="#00ffff" fill-rule="evenodd" stroke="none"/>
    </g>
    <g id="shape10" transform="matrix(1.0, 0.0, 0.0, 1.0, 0.9, 0.9)">
      <path d="M15.85 0.35 Q18.95 1.0 21.4 3.0 L21.95 3.5 22.2 3.7 Q21.15 10.3 22.3 16.75 L21.4 17.5 Q19.0 19.5 15.9 20.15 14.85 10.25 15.85 0.35 M9.0 20.15 Q6.05 19.45 3.75 17.55 L3.75 17.5 Q2.9 10.6 3.85 3.3 L3.65 3.0 Q6.15 1.0 9.35 0.35 L9.0 20.15" fill="#ffffff" fill-rule="evenodd" stroke="none"/>
      <path d="M15.85 0.35 Q18.95 1.0 21.4 3.0 L21.95 3.5 22.2 3.7 Q25.1 6.5 25.1 10.25 25.1 13.95 22.3 16.75 L21.4 17.5 Q19.0 19.5 15.9 20.15 L12.55 20.5 9.0 20.15 Q6.05 19.45 3.75 17.55 L3.65 17.5 Q0.0 14.5 0.0 10.25 0.0 6.05 3.6 3.05 L3.65 3.0 Q6.15 1.0 9.35 0.35 L12.55 0.0 15.85 0.35 Q14.85 10.25 15.9 20.15 M22.2 3.7 Q21.15 10.3 22.3 16.75 M3.75 17.55 L3.75 17.5 Q2.9 10.6 3.85 3.3 M9.35 0.35 L9.0 20.15" fill="none" stroke="#000000" stroke-linecap="round" stroke-linejoin="round" stroke-width="1.8"/>
    </g>
    <g id="sprite11" transform="matrix(1.0, 0.0, 0.0, 1.0, 0.9, 0.9)">
      <use ffdec:characterId="283" height="27.9" id="mc100" transform="matrix(1.0, 0.0, 0.0, 1.0, 0.6, 0.2)" width="62.05" xlink:href="#sprite12"/>
      <use ffdec:characterId="284" height="29.9" transform="matrix(1.0, 0.0, 0.0, 1.0, -0.9, -0.9)" width="64.45" xlink:href="#shape12"/>
    </g>
    <g id="sprite12" transform="matrix(1.0, 0.0, 0.0, 1.0, 31.0, 13.95)">
      <use ffdec:characterId="282" height="27.9" transform="matrix(1.0, 0.0, 0.0, 1.0, -31.0, -13.95)" width="62.05" xlink:href="#shape11"/>
    </g>
    <g id="shape11" transform="matrix(1.0, 0.0, 0.0, 1.0, 31.0, 13.95)">
      <path d="M25.1 -13.9 L31.05 -13.9 Q30.7 -3.8 20.0 4.05 L19.5 3.6 17.05 5.9 Q10.95 10.9 0.45 13.95 L0.15 13.9 0.2 13.4 0.0 13.9 Q-16.85 12.4 -22.65 3.1 L-22.25 2.45 -22.5 2.3 -23.45 1.65 -23.25 2.95 Q-29.85 4.8 -31.0 -13.85 L-24.8 -13.35 25.1 -13.95 25.1 -13.9 M0.4 5.0 L0.3 4.9 0.3 5.25 0.45 5.0 0.4 5.0" fill="#993300" fill-rule="evenodd" stroke="none"/>
    </g>
    <g id="shape12" transform="matrix(1.0, 0.0, 0.0, 1.0, 0.9, 0.9)">
      <path d="M32.0 0.0 L32.0 0.5 56.7 0.2 56.7 0.25 62.65 0.25 Q62.3 10.35 51.6 18.2 M56.7 0.25 Q57.15 5.35 55.8 9.65 54.4 14.15 51.1 17.75 L48.65 20.05 Q42.55 25.05 32.05 28.1 L31.75 28.05 31.6 28.05 Q14.75 26.55 8.95 17.25 L8.75 16.95 8.35 17.1 Q1.75 18.95 0.6 0.3 L0.0 0.25 M48.65 20.05 Q39.55 24.05 32.05 19.15 L32.0 19.15 31.9 19.05 31.9 19.4 31.8 27.55 M31.9 19.05 L31.95 10.85 31.55 10.85 Q17.55 14.8 5.9 7.1 6.2 12.05 8.15 15.8 L9.1 16.45 9.35 16.6 Q21.65 24.15 31.9 19.4 M31.95 10.85 L32.0 0.5 6.8 0.8 6.1 0.8 6.1 0.85 Q5.7 4.15 5.9 7.1 M0.6 0.3 L6.8 0.8 M8.15 15.8 L8.75 16.95 M31.95 10.85 Q43.05 15.9 55.8 9.65" fill="none" stroke="#000000" stroke-linecap="round" stroke-linejoin="round" stroke-width="1.8"/>
    </g>
    <g id="sprite13" transform="matrix(1.0, 0.0, 0.0, 1.0, 0.9, 0.9)">
      <use ffdec:characterId="286" height="26.1" id="mc100" transform="matrix(1.0, 0.0, 0.0, 1.0, 0.0, 0.0)" width="4.3" xlink:href="#sprite14"/>
      <use ffdec:characterId="73" height="27.9" transform="matrix(1.0, 0.0, 0.0, 1.0, -0.9, -0.9)" width="6.1" xlink:href="#shape14"/>
    </g>
    <g id="sprite14" transform="matrix(1.0, 0.0, 0.0, 1.0, 2.15, 13.05)">
      <use ffdec:characterId="27" height="26.1" transform="matrix(1.0, 0.0, 0.0, 1.0, -2.15, -13.05)" width="4.3" xlink:href="#shape13"/>
    </g>
    <g id="shape13" transform="matrix(1.0, 0.0, 0.0, 1.0, 2.15, 13.05)">
      <path d="M1.95 -7.15 Q2.2 4.15 -2.15 13.05 L-1.85 -12.9 -1.6 -13.05 2.15 -7.45 1.95 -7.15" fill="#993300" fill-rule="evenodd" stroke="none"/>
    </g>
    <g id="shape14" transform="matrix(1.0, 0.0, 0.0, 1.0, 0.9, 0.9)">
      <path d="M4.1 5.9 Q4.35 17.2 0.0 26.1 L0.3 0.15 M0.55 0.0 L4.3 5.6" fill="none" stroke="#000000" stroke-linecap="round" stroke-linejoin="round" stroke-width="1.8"/>
    </g>
    <g id="sprite15" transform="matrix(1.0, 0.0, 0.0, 1.0, 0.9, 0.9)">
      <use ffdec:characterId="288" height="25.2" id="mc100" transform="matrix(1.0, 0.0, 0.0, 1.0, 0.0, 0.0)" width="22.15" xlink:href="#sprite16"/>
      <use ffdec:characterId="76" height="27.0" transform="matrix(1.0, 0.0, 0.0, 1.0, -0.9, -0.9)" width="23.95" xlink:href="#shape16"/>
    </g>
    <g id="sprite16" transform="matrix(1.0, 0.0, 0.0, 1.0, 11.05, 12.6)">
      <use ffdec:characterId="31" height="25.2" transform="matrix(1.0, 0.0, 0.0, 1.0, -11.05, -12.6)" width="22.15" xlink:href="#shape15"/>
    </g>
    <g id="shape15" transform="matrix(1.0, 0.0, 0.0, 1.0, 11.05, 12.6)">
      <path d="M11.1 -11.1 L11.05 -11.0 Q6.65 0.2 4.55 12.6 1.4 12.55 -1.2 11.5 -5.15 9.95 -7.95 6.3 -9.7 3.95 -11.0 0.75 L-11.05 0.6 Q-3.25 -11.3 8.75 -12.35 L8.95 -12.6 11.1 -11.1" fill="#993300" fill-rule="evenodd" stroke="none"/>
    </g>
    <g id="shape16" transform="matrix(1.0, 0.0, 0.0, 1.0, 0.9, 0.9)">
      <path d="M20.0 0.0 L22.15 1.5 22.1 1.6 Q17.7 12.8 15.6 25.2 12.45 25.15 9.85 24.1 5.9 22.55 3.1 18.9 1.35 16.55 0.05 13.35 L0.0 13.2 Q7.8 1.3 19.8 0.25 M3.1 18.9 Q7.85 8.9 15.9 3.05 M9.85 24.1 Q12.35 13.75 18.25 4.0" fill="none" stroke="#000000" stroke-linecap="round" stroke-linejoin="round" stroke-width="1.8"/>
    </g>
    <g id="sprite17" transform="matrix(1.0, 0.0, 0.0, 1.0, 0.9, 0.9)">
      <use ffdec:characterId="291" height="60.3" id="mc400" transform="matrix(1.0, 0.0, 0.0, 1.0, 0.0, 0.0)" width="84.3" xlink:href="#sprite18"/>
      <use ffdec:characterId="293" height="15.5" id="mc300" transform="matrix(1.0, 0.0, 0.0, 1.0, 14.25, 32.3)" width="56.1" xlink:href="#sprite19"/>
      <use ffdec:characterId="294" height="62.1" transform="matrix(1.0, 0.0, 0.0, 1.0, -0.9, -0.9)" width="86.1" xlink:href="#shape19"/>
    </g>
    <g id="sprite18" transform="matrix(1.0, 0.0, 0.0, 1.0, 42.15, 30.15)">
      <use ffdec:characterId="290" height="60.3" transform="matrix(1.0, 0.0, 0.0, 1.0, -42.15, -30.15)" width="84.3" xlink:href="#shape17"/>
    </g>
    <g id="shape17" transform="matrix(1.0, 0.0, 0.0, 1.0, 42.15, 30.15)">
      <path d="M4.2 -29.65 L15.7 -29.25 18.0 -28.4 Q27.65 -24.7 34.25 -17.9 37.9 -12.85 32.2 -12.45 L31.8 -12.45 18.9 -12.65 Q23.05 -4.9 25.4 2.55 0.3 4.7 -24.0 2.15 -15.25 -23.0 3.3 -29.45 L4.2 -29.65 M29.2 17.1 Q37.4 22.15 42.15 27.8 -1.2 32.45 -42.15 27.95 -38.1 23.0 -32.0 19.1 -30.15 17.85 -28.15 16.8 L-28.0 16.7 -27.9 16.45 -27.9 16.4 Q-0.25 18.8 28.2 16.55 L28.3 16.55 29.2 17.1" fill="#1a0000" fill-rule="evenodd" stroke="none"/>
    </g>
    <g id="sprite19" transform="matrix(1.0, 0.0, 0.0, 1.0, 28.05, 7.75)">
      <use ffdec:characterId="292" height="15.5" transform="matrix(1.0, 0.0, 0.0, 1.0, -28.05, -7.75)" width="56.1" xlink:href="#shape18"/>
    </g>
    <g id="shape18" transform="matrix(1.0, 0.0, 0.0, 1.0, 28.05, 7.75)">
      <path d="M25.25 -7.35 Q27.45 -0.3 28.05 6.45 L28.05 6.6 28.05 6.65 Q-0.4 8.9 -28.05 6.5 -26.4 -1.25 -24.15 -7.75 0.15 -5.2 25.25 -7.35" fill="#ff0000" fill-rule="evenodd" stroke="none"/>
    </g>
    <g id="shape19" transform="matrix(1.0, 0.0, 0.0, 1.0, 0.9, 0.9)">
      <path d="M60.15 1.75 L57.85 0.9 59.45 1.45 60.15 1.75" fill="#000000" fill-rule="evenodd" stroke="none"/>
      <path d="M48.0 17.3 L61.05 17.5 73.95 17.7 74.35 17.7 Q80.05 17.3 76.4 12.25 69.8 5.45 60.15 1.75 L59.45 1.45 57.85 0.9 Q52.7 -0.7 46.35 0.5 L45.45 0.7 Q26.9 7.15 18.15 32.3 42.45 34.85 67.55 32.7 65.2 25.25 61.05 17.5 M18.15 32.3 Q15.9 38.8 14.25 46.55 41.9 48.95 70.35 46.7 L70.45 46.7 70.35 46.65 70.35 46.5 Q69.75 39.75 67.55 32.7 M14.25 46.55 L14.25 46.6 14.15 46.85 14.0 46.95 10.15 49.25 Q4.05 53.15 0.0 58.1 40.95 62.6 84.3 57.95 79.55 52.3 71.35 47.25 L70.45 46.7 M14.25 46.6 L14.0 46.95" fill="none" stroke="#000000" stroke-linecap="round" stroke-linejoin="round" stroke-width="1.8"/>
    </g>
  </defs>
</svg>
