<?xml version="1.0" encoding="UTF-8" standalone="no"?>
<svg xmlns:ffdec="https://www.free-decompiler.com/flash" xmlns:xlink="http://www.w3.org/1999/xlink" ffdec:objectType="frame" height="27.5px" width="18.45px" xmlns="http://www.w3.org/2000/svg">
  <g transform="matrix(1.0, 0.0, 0.0, 1.0, -0.5, 4.6)">
    <use ffdec:characterId="26" height="12.7" id="mc900" transform="matrix(-0.328, -0.0605, -0.0605, 0.328, 15.0673, 11.4517)" width="12.7" xlink:href="#sprite0"/>
    <use ffdec:characterId="168" height="55.5" id="mc800" transform="matrix(-0.3325, 0.0264, 0.0264, 0.3325, 17.2849, 0.6423)" width="49.15" xlink:href="#sprite2"/>
    <use ffdec:characterId="170" height="3.1" id="mc700" transform="matrix(-0.3336, 0.0, 0.0, 0.3336, 16.4683, 8.7329)" width="11.75" xlink:href="#sprite4"/>
    <use ffdec:characterId="174" height="46.65" id="mc600" transform="matrix(-0.3325, 0.0264, 0.0264, 0.3325, 16.332, 0.5781)" width="47.65" xlink:href="#sprite5"/>
    <use ffdec:characterId="26" height="12.7" id="mc500" transform="matrix(-0.328, -0.0605, -0.0605, 0.328, 8.3173, 11.4517)" width="12.7" xlink:href="#sprite0"/>
    <use ffdec:characterId="178" height="31.1" id="mc400" transform="matrix(0.3332, 0.0131, -0.0131, 0.3332, 4.4912, 12.4334)" width="6.9" xlink:href="#sprite7"/>
    <use ffdec:characterId="184" height="9.7" id="mc300" transform="matrix(-0.3325, 0.0264, 0.0264, 0.3325, 16.0454, 10.4272)" width="10.45" xlink:href="#sprite9"/>
    <use ffdec:characterId="224" height="1.85" transform="matrix(1.0, 0.0, 0.0, 1.0, 11.8, 16.2)" width="4.8" xlink:href="#shape12"/>
    <use ffdec:characterId="187" height="13.8" id="mc100" transform="matrix(-0.3325, 0.0264, 0.0264, 0.3325, 17.4994, 3.6557)" width="17.15" xlink:href="#sprite12"/>
    <use ffdec:characterId="225" height="0.0" id="hat" transform="matrix(-0.3336, 0.0, 0.0, 0.3336, 18.95, -4.6)" width="0.0" xlink:href="#sprite13"/>
  </g>
  <defs>
    <g id="sprite0" transform="matrix(1.0, 0.0, 0.0, 1.0, 6.35, 6.35)">
      <use ffdec:characterId="24" height="11.2" id="mc100" transform="matrix(1.0, 0.0, 0.0, 1.0, -5.6, -5.6)" width="11.2" xlink:href="#sprite1"/>
      <use ffdec:characterId="25" height="12.7" transform="matrix(1.0, 0.0, 0.0, 1.0, -6.35, -6.35)" width="12.7" xlink:href="#shape1"/>
    </g>
    <g id="sprite1" transform="matrix(1.0, 0.0, 0.0, 1.0, 5.6, 5.6)">
      <use ffdec:characterId="23" height="11.2" transform="matrix(1.0, 0.0, 0.0, 1.0, -5.6, -5.6)" width="11.2" xlink:href="#shape0"/>
    </g>
    <g id="shape0" transform="matrix(1.0, 0.0, 0.0, 1.0, 5.6, 5.6)">
      <path d="M3.95 -3.95 Q5.6 -2.3 5.6 0.0 5.6 2.3 3.95 3.95 2.3 5.6 0.0 5.6 -2.3 5.6 -3.95 3.95 -5.6 2.3 -5.6 0.0 -5.6 -2.3 -3.95 -3.95 -2.3 -5.6 0.0 -5.6 2.3 -5.6 3.95 -3.95" fill="#009999" fill-rule="evenodd" stroke="none"/>
    </g>
    <g id="shape1" transform="matrix(1.0, 0.0, 0.0, 1.0, 6.35, 6.35)">
      <path d="M3.95 -3.95 Q5.6 -2.3 5.6 0.0 5.6 2.3 3.95 3.95 2.3 5.6 0.0 5.6 -2.3 5.6 -3.95 3.95 -5.6 2.3 -5.6 0.0 -5.6 -2.3 -3.95 -3.95 -2.3 -5.6 0.0 -5.6 2.3 -5.6 3.95 -3.95 Z" fill="none" stroke="#000000" stroke-linecap="round" stroke-linejoin="round" stroke-width="1.5"/>
    </g>
    <g id="sprite2" transform="matrix(1.0, 0.0, 0.0, 1.0, 26.35, 25.6)">
      <use ffdec:characterId="166" height="53.7" id="mc100" transform="matrix(1.0, 0.0, 0.0, 1.0, -25.45, -24.7)" width="47.35" xlink:href="#sprite3"/>
      <use ffdec:characterId="167" height="55.5" transform="matrix(1.0, 0.0, 0.0, 1.0, -26.35, -25.6)" width="49.15" xlink:href="#shape3"/>
    </g>
    <g id="sprite3" transform="matrix(1.0, 0.0, 0.0, 1.0, 23.7, 26.85)">
      <use ffdec:characterId="165" height="53.7" transform="matrix(1.0, 0.0, 0.0, 1.0, -23.7, -26.85)" width="47.35" xlink:href="#shape2"/>
    </g>
    <g id="shape2" transform="matrix(1.0, 0.0, 0.0, 1.0, 23.7, 26.85)">
      <path d="M23.65 -2.6 Q23.6 6.4 21.55 8.7 6.2 28.9 -9.35 26.6 L-9.7 26.55 Q-14.4 25.9 -16.7 23.85 -21.5 19.2 -18.95 13.85 -23.05 6.85 -23.65 -2.6 -24.25 -12.1 -18.05 -19.55 -11.8 -27.1 -1.0 -26.85 9.8 -26.6 16.75 -19.1 23.65 -11.65 23.65 -2.6" fill="#a17850" fill-rule="evenodd" stroke="none"/>
    </g>
    <g id="shape3" transform="matrix(1.0, 0.0, 0.0, 1.0, 26.35, 25.6)">
      <path d="M21.9 -0.45 Q21.85 8.55 19.8 10.85 4.45 31.05 -11.1 28.75 L-11.45 28.7 Q-16.15 28.05 -18.45 26.0 -23.25 21.35 -20.7 16.0 -24.8 9.0 -25.4 -0.45 -26.0 -9.95 -19.8 -17.4 -13.55 -24.95 -2.75 -24.7 8.05 -24.45 15.0 -16.95 21.9 -9.5 21.9 -0.45 Z" fill="none" stroke="#000000" stroke-linecap="round" stroke-linejoin="round" stroke-width="1.8"/>
    </g>
    <g id="sprite4" transform="matrix(1.0, 0.0, 0.0, 1.0, 5.9, 1.55)">
      <use ffdec:characterId="169" height="3.1" transform="matrix(1.0, 0.0, 0.0, 1.0, -5.9, -1.55)" width="11.75" xlink:href="#shape4"/>
    </g>
    <g id="shape4" transform="matrix(1.0, 0.0, 0.0, 1.0, 5.9, 1.55)">
      <path d="M5.1 -0.8 Q-0.9 -0.9 -5.15 0.8" fill="none" stroke="#000000" stroke-linecap="round" stroke-linejoin="round" stroke-width="1.5"/>
    </g>
    <g id="sprite5" transform="matrix(1.0, 0.0, 0.0, 1.0, 24.9, 22.6)">
      <use ffdec:characterId="172" height="44.85" id="mc100" transform="matrix(1.0, 0.0, 0.0, 1.0, -24.0, -21.7)" width="45.85" xlink:href="#sprite6"/>
      <use ffdec:characterId="173" height="46.65" transform="matrix(1.0, 0.0, 0.0, 1.0, -24.9, -22.6)" width="47.65" xlink:href="#shape6"/>
    </g>
    <g id="sprite6" transform="matrix(1.0, 0.0, 0.0, 1.0, 22.95, 22.4)">
      <use ffdec:characterId="171" height="44.85" transform="matrix(1.0, 0.0, 0.0, 1.0, -22.95, -22.4)" width="45.85" xlink:href="#shape5"/>
    </g>
    <g id="shape5" transform="matrix(1.0, 0.0, 0.0, 1.0, 22.95, 22.4)">
      <path d="M-2.45 -22.4 Q8.65 -22.15 15.75 -15.05 22.85 -7.95 22.9 2.1 22.85 12.15 14.5 21.75 L12.95 22.45 Q0.25 1.35 -22.95 -11.3 -21.75 -13.5 -19.95 -15.5 -13.55 -22.65 -2.45 -22.4" fill="#000000" fill-rule="evenodd" stroke="none"/>
    </g>
    <g id="shape6" transform="matrix(1.0, 0.0, 0.0, 1.0, 24.9, 22.6)">
      <path d="M-21.0 -14.8 Q-14.6 -21.95 -3.5 -21.7 7.6 -21.45 14.7 -14.35 21.8 -7.25 21.85 2.8 21.8 12.85 13.45 22.45 L11.9 23.15 Q-0.8 2.05 -24.0 -10.6 -22.8 -12.8 -21.0 -14.8 Z" fill="none" stroke="#000000" stroke-linecap="round" stroke-linejoin="round" stroke-width="1.8"/>
    </g>
    <g id="sprite7" transform="matrix(1.0, 0.0, 0.0, 1.0, 4.05, 18.35)">
      <use ffdec:characterId="176" height="29.85" id="mc100" transform="matrix(1.0, 0.0, 0.0, 1.0, -3.3, -17.6)" width="5.4" xlink:href="#sprite8"/>
      <use ffdec:characterId="177" height="31.1" transform="matrix(1.0, 0.0, 0.0, 1.0, -4.05, -18.35)" width="6.9" xlink:href="#shape8"/>
    </g>
    <g id="sprite8" transform="matrix(1.0, 0.0, 0.0, 1.0, 2.7, 21.2)">
      <use ffdec:characterId="175" height="29.85" transform="matrix(1.0, 0.0, 0.0, 1.0, -2.7, -21.2)" width="5.4" xlink:href="#shape7"/>
    </g>
    <g id="shape7" transform="matrix(1.0, 0.0, 0.0, 1.0, 2.7, 21.2)">
      <path d="M2.7 -17.75 Q2.65 -16.3 2.2 -15.3 L2.15 -15.2 2.2 -15.15 Q2.65 -14.15 2.7 -12.65 2.65 -11.2 2.2 -10.2 L2.15 -10.15 2.2 -10.05 Q2.65 -9.0 2.7 -7.55 2.65 -6.1 2.2 -5.1 L2.15 -5.0 2.2 -4.95 Q2.65 -3.95 2.7 -2.45 L2.6 -1.3 2.7 -0.15 Q2.65 1.3 2.2 2.3 L2.15 2.4 2.2 2.45 Q2.65 3.5 2.7 4.95 2.65 6.35 2.2 7.35 L2.2 7.4 Q0.0 10.75 -2.15 4.95 L-2.15 4.9 -2.2 4.85 Q-2.7 3.85 -2.7 2.45 L-2.6 1.3 -2.7 0.15 Q-2.7 -1.35 -2.15 -2.35 L-2.15 -2.45 -2.15 -2.55 Q-2.7 -3.55 -2.7 -5.0 -2.7 -6.45 -2.15 -7.45 L-2.15 -7.55 -2.15 -7.65 Q-2.7 -8.65 -2.7 -10.1 -2.7 -11.55 -2.15 -12.55 L-2.15 -12.65 -2.15 -12.75 Q-2.7 -13.75 -2.7 -15.15 -2.7 -16.65 -2.15 -17.65 -1.7 -18.65 -1.0 -18.65 L-0.7 -18.6 -0.2 -20.25 Q0.25 -21.25 1.0 -21.2 1.65 -21.25 2.2 -20.25 2.65 -19.25 2.7 -17.75" fill="#000000" fill-rule="evenodd" stroke="none"/>
    </g>
    <g id="shape8" transform="matrix(1.0, 0.0, 0.0, 1.0, 4.05, 18.35)">
      <path d="M0.4 -17.6 Q-0.35 -17.65 -0.8 -16.65 L-1.3 -15.0 -1.6 -15.05 Q-2.3 -15.05 -2.75 -14.05 -3.3 -13.05 -3.3 -11.55 -3.3 -10.15 -2.75 -9.15 L-2.75 -9.05 -2.75 -8.95 Q-3.3 -7.95 -3.3 -6.5 -3.3 -5.05 -2.75 -4.05 L-2.75 -3.95 -2.75 -3.85 Q-3.3 -2.85 -3.3 -1.4 -3.3 0.05 -2.75 1.05 L-2.75 1.15 -2.75 1.25 Q-3.3 2.25 -3.3 3.75 L-3.2 4.9 -3.3 6.05 Q-3.3 7.5 -2.75 8.5 L-2.75 8.55 Q-0.6 13.7 1.55 11.15 L1.55 11.1 1.6 11.0 Q2.05 10.0 2.1 8.55 2.05 7.1 1.6 6.05 L1.55 6.0 1.6 5.9 Q2.05 4.9 2.1 3.45 L2.0 2.3 2.1 1.15 Q2.05 -0.35 1.6 -1.35 L1.55 -1.4 1.6 -1.5 Q2.05 -2.5 2.1 -3.95 2.05 -5.4 1.6 -6.45 L1.55 -6.55 1.6 -6.6 Q2.05 -7.6 2.1 -9.05 2.05 -10.55 1.6 -11.55 L1.55 -11.6 1.6 -11.7 Q2.05 -12.7 2.1 -14.15 2.05 -15.65 1.6 -16.65 1.05 -17.65 0.4 -17.6 Z" fill="none" stroke="#000000" stroke-linecap="round" stroke-linejoin="round" stroke-width="1.5"/>
    </g>
    <g id="sprite9" transform="matrix(1.0, 0.0, 0.0, 1.0, 2.9, 4.5)">
      <use ffdec:characterId="182" height="4.55" id="mc300" transform="matrix(1.0, 0.0, 0.0, 1.0, -2.9, -4.5)" width="10.1" xlink:href="#sprite10"/>
      <use ffdec:characterId="183" height="7.4" transform="matrix(1.0, 0.0, 0.0, 1.0, -2.05, -2.2)" width="9.6" xlink:href="#shape11"/>
    </g>
    <g id="sprite10" transform="matrix(1.0, 0.0, 0.0, 1.0, 5.05, 2.25)">
      <use ffdec:characterId="180" height="4.55" id="mc100" transform="matrix(1.0, 0.0, 0.0, 1.0, -5.05, -2.25)" width="10.1" xlink:href="#sprite11"/>
      <use ffdec:characterId="181" height="4.55" transform="matrix(1.0, 0.0, 0.0, 1.0, -5.05, -2.25)" width="10.1" xlink:href="#shape10"/>
    </g>
    <g id="sprite11" transform="matrix(1.0, 0.0, 0.0, 1.0, 5.05, 2.25)">
      <use ffdec:characterId="179" height="4.55" transform="matrix(1.0, 0.0, 0.0, 1.0, -5.05, -2.25)" width="10.1" xlink:href="#shape9"/>
    </g>
    <g id="shape9" transform="matrix(1.0, 0.0, 0.0, 1.0, 5.05, 2.25)">
      <path d="M-4.45 -1.3 L-1.75 -2.05 3.05 -1.8 Q4.95 -1.1 5.05 0.3 L-3.35 2.2 -3.25 2.2 -3.7 2.3 Q-6.0 0.7 -4.45 -1.3" fill="#a17850" fill-rule="evenodd" stroke="none"/>
    </g>
    <g id="shape10" transform="matrix(1.0, 0.0, 0.0, 1.0, 5.05, 2.25)">
      <path d="M-4.45 -1.3 L-1.75 -2.05 3.05 -1.8 Q4.95 -1.1 5.05 0.3 L-3.35 2.2 -3.25 2.2 -3.7 2.3 Q-6.0 0.7 -4.45 -1.3" fill="#ffffff" fill-opacity="0.3529412" fill-rule="evenodd" stroke="none"/>
    </g>
    <g id="shape11" transform="matrix(1.0, 0.0, 0.0, 1.0, 2.05, 2.2)">
      <path d="M-1.1 -0.05 L-1.2 -0.05 6.65 -1.45 Q7.2 0.35 5.95 2.0 4.6 3.75 2.1 4.3 L-0.15 4.45 -0.15 4.4 -0.2 4.1 -0.25 4.1 -1.25 0.2 -0.4 0.0 -0.3 -0.1 -1.1 -0.05" fill="#ffffff" fill-rule="evenodd" stroke="none"/>
      <path d="M1.3 3.55 L0.5 4.2 Q-0.05 4.2 -0.35 3.55 -0.7 2.95 -0.7 2.05 -0.7 1.15 -0.35 0.5 -0.05 -0.1 0.5 -0.1 L1.3 0.5 Q1.65 1.15 1.65 2.05 1.65 2.95 1.3 3.55" fill="#000000" fill-rule="evenodd" stroke="none"/>
      <path d="M-1.3 0.0 L-0.95 -0.1 6.65 -1.45 Q7.2 0.35 5.95 2.0 4.6 3.75 2.1 4.3 L-0.15 4.45 -1.3 0.0 Z" fill="none" stroke="#000000" stroke-linecap="round" stroke-linejoin="round" stroke-width="1.5"/>
    </g>
    <g id="shape12" transform="matrix(1.0, 0.0, 0.0, 1.0, -11.8, -16.2)">
      <path d="M12.05 16.45 Q13.8 18.0 16.35 17.75" fill="none" stroke="#000000" stroke-linecap="round" stroke-linejoin="round" stroke-width="0.5"/>
    </g>
    <g id="sprite12" transform="matrix(1.0, 0.0, 0.0, 1.0, 8.2, 6.7)">
      <use ffdec:characterId="186" height="13.8" transform="matrix(1.0, 0.0, 0.0, 1.0, -8.2, -6.7)" width="17.15" xlink:href="#shape13"/>
    </g>
    <g id="shape13" transform="matrix(1.0, 0.0, 0.0, 1.0, 8.2, 6.7)">
      <path d="M-6.8 3.15 Q-10.9 -3.0 -3.1 -6.7 -6.6 3.6 8.95 5.9 -2.75 9.25 -6.8 3.15" fill="#000000" fill-rule="evenodd" stroke="none"/>
    </g>
  </defs>
</svg>
