<?xml version="1.0" encoding="UTF-8" standalone="no"?>
<svg xmlns:ffdec="https://www.free-decompiler.com/flash" xmlns:xlink="http://www.w3.org/1999/xlink" ffdec:objectType="frame" height="13.55px" width="39.8px" xmlns="http://www.w3.org/2000/svg">
  <g transform="matrix(1.0, 0.0, 0.0, 1.0, 0.0, 0.0)">
    <use ffdec:characterId="583" height="13.55" transform="matrix(1.0, 0.0, 0.0, 1.0, 0.0, 0.0)" width="39.8" xlink:href="#shape0"/>
  </g>
  <defs>
    <g id="shape0" transform="matrix(1.0, 0.0, 0.0, 1.0, 0.0, 0.0)">
      <path d="M38.7 10.35 Q37.85 13.9 34.25 13.15 L28.35 11.2 Q22.45 9.6 23.55 4.5 L23.7 4.0 Q23.85 3.15 24.25 2.45 25.4 0.75 28.6 0.35 32.55 -0.35 36.85 0.3 39.3 0.95 39.7 2.95 L39.8 3.45 Q39.6 6.85 38.7 10.35 M35.55 10.5 Q37.15 6.25 36.45 2.95 L27.7 2.65 Q25.95 5.5 26.95 8.35 31.1 10.05 35.55 10.5 M21.7 8.0 L17.75 8.0 18.0 6.0 17.95 4.65 21.45 4.65 21.4 6.0 Q21.4 7.05 21.7 8.0 M12.1 2.95 L3.35 3.25 Q2.6 6.5 4.25 10.8 8.7 10.3 12.8 8.65 13.8 5.8 12.1 2.95 M16.2 4.8 Q17.3 9.85 11.45 11.45 L5.5 13.4 Q1.9 14.15 1.05 10.6 0.15 7.15 0.0 3.7 L0.1 3.2 Q0.5 1.2 2.9 0.55 7.2 -0.1 11.2 0.6 14.35 1.05 15.5 2.7 15.95 3.4 16.05 4.25 L16.2 4.8" fill="#999999" fill-rule="evenodd" stroke="none"/>
    </g>
  </defs>
</svg>
