<?xml version="1.0" encoding="UTF-8" standalone="no"?>
<svg xmlns:ffdec="https://www.free-decompiler.com/flash" xmlns:xlink="http://www.w3.org/1999/xlink" ffdec:objectType="frame" height="148.45px" width="108.5px" xmlns="http://www.w3.org/2000/svg">
  <g transform="matrix(1.0, 0.0, 0.0, 1.0, 52.25, 140.45)">
    <use ffdec:characterId="272" height="18.85" id="mc371190" transform="matrix(0.9946, 0.101, -0.101, 0.9946, -9.5134, -18.1483)" width="10.9" xlink:href="#sprite0"/>
    <use ffdec:characterId="272" height="18.85" id="mc351190" transform="matrix(0.9946, 0.101, -0.101, 0.9946, 1.4866, -17.9483)" width="10.9" xlink:href="#sprite0"/>
    <use ffdec:characterId="275" height="20.35" id="mc331190" transform="matrix(-0.9951, -0.0494, -0.0494, 0.9951, 21.0694, -32.2769)" width="13.05" xlink:href="#sprite2"/>
    <use ffdec:characterId="279" height="11.25" id="mc311190" transform="matrix(1.0, 0.0, 0.0, 1.0, -19.1, -17.35)" width="37.6" xlink:href="#sprite5"/>
    <use ffdec:characterId="277" height="18.8" id="mc301190" transform="matrix(1.0, 0.0, 0.0, 1.0, -13.45, -32.25)" width="25.85" xlink:href="#sprite7"/>
    <use ffdec:characterId="324" height="20.95" id="mc291190" transform="matrix(1.0, 0.0, 0.0, 1.0, -14.85, -31.8)" width="10.0" xlink:href="#sprite9"/>
    <use ffdec:characterId="275" height="20.35" id="mc281190" transform="matrix(0.8397, -0.5206, 0.5206, 0.8397, -22.634, -30.3125)" width="13.05" xlink:href="#sprite2"/>
    <use ffdec:characterId="281" height="22.3" id="mc271190" transform="matrix(1.0, 0.0, 0.0, 1.0, -13.55, -43.2)" width="26.9" xlink:href="#sprite11"/>
    <use ffdec:characterId="287" height="27.9" id="mc261190" transform="matrix(-0.9908, -0.1307, -0.1307, 0.9908, 26.8093, -41.0741)" width="6.1" xlink:href="#sprite13"/>
    <use ffdec:characterId="289" height="27.0" id="mc251190" transform="matrix(-0.9908, -0.1307, -0.1307, 0.9908, 46.0593, -38.4241)" width="23.95" xlink:href="#sprite15"/>
    <use ffdec:characterId="289" height="27.0" id="mc241190" transform="matrix(0.9908, 0.1307, -0.1307, 0.9908, -44.2241, -50.5593)" width="23.95" xlink:href="#sprite15"/>
    <use ffdec:characterId="287" height="27.9" id="mc231190" transform="matrix(0.9908, 0.1307, -0.1307, 0.9908, -24.8741, -48.1093)" width="6.1" xlink:href="#sprite13"/>
    <use ffdec:characterId="419" height="36.55" id="mc221190" transform="matrix(0.9908, 0.1307, -0.1307, 0.9908, -21.0741, -66.4593)" width="50.2" xlink:href="#sprite17"/>
    <use ffdec:characterId="869" height="6.7" transform="matrix(1.0, 0.0, 0.0, 1.0, -2.75, -35.95)" width="7.15" xlink:href="#morphshape0"/>
    <use ffdec:characterId="422" height="37.5" id="mc171190" transform="matrix(0.9908, 0.1307, -0.1307, 0.9908, -24.2241, -83.2093)" width="60.25" xlink:href="#sprite19"/>
    <use ffdec:characterId="498" height="6.6" transform="matrix(0.9611, 0.2728, 0.2728, -0.9611, -22.1, -43.0)" width="15.25" xlink:href="#shape21"/>
    <use ffdec:characterId="498" height="6.6" transform="matrix(-0.9979, -0.0488, 0.0488, -0.9979, 20.45, -36.05)" width="15.25" xlink:href="#shape21"/>
    <use ffdec:characterId="862" height="25.55" id="mc141190" transform="matrix(1.0, 0.0, 0.0, 1.0, -18.75, -20.4)" width="36.8" xlink:href="#sprite21"/>
    <use ffdec:characterId="427" height="62.1" id="hide_hat" transform="matrix(0.9908, 0.1307, -0.1307, 0.9908, -33.6741, -116.5093)" width="86.1" xlink:href="#sprite22"/>
    <use ffdec:characterId="856" height="0.0" id="hat" transform="matrix(1.0, 0.0, 0.0, 1.0, -37.05, -125.45)" width="0.0" xlink:href="#sprite26"/>
    <use ffdec:characterId="863" height="14.3" transform="matrix(0.986, -0.1608, 0.1608, 0.986, -6.2592, -30.5728)" width="7.85" xlink:href="#shape29"/>
    <use ffdec:characterId="868" height="18.2" id="mc51190" transform="matrix(0.6223, 0.7794, -0.7794, 0.6223, -6.2367, -46.4578)" width="18.1" xlink:href="#sprite27"/>
    <use ffdec:characterId="482" height="10.95" id="mc41190" transform="matrix(0.6849, 0.7209, -0.7209, 0.6849, -13.351, -43.7158)" width="11.05" xlink:href="#sprite28"/>
    <use ffdec:characterId="556" height="12.1" transform="matrix(1.7191, 0.0, 0.0, 1.7191, -16.6648, -125.7189)" width="17.55" xlink:href="#shape33"/>
    <use ffdec:characterId="556" height="12.1" transform="matrix(1.7191, 0.0, 0.0, 1.7191, -16.6648, -96.1689)" width="17.55" xlink:href="#shape33"/>
    <use ffdec:characterId="556" height="12.1" transform="matrix(1.7191, 0.0, 0.0, 1.7191, -16.6648, -107.4689)" width="17.55" xlink:href="#shape33"/>
  </g>
  <defs>
    <g id="sprite0" transform="matrix(1.0, 0.0, 0.0, 1.0, 4.95, 9.5)">
      <use ffdec:characterId="271" height="3.3" id="mc100" transform="matrix(1.0, 0.0, 0.0, 1.0, -3.65, 3.05)" width="8.7" xlink:href="#sprite1"/>
      <use ffdec:characterId="102" height="18.85" transform="matrix(1.0, 0.0, 0.0, 1.0, -4.95, -9.5)" width="10.9" xlink:href="#shape1"/>
    </g>
    <g id="sprite1" transform="matrix(1.0, 0.0, 0.0, 1.0, 4.35, 1.65)">
      <use ffdec:characterId="1" height="3.3" transform="matrix(1.0, 0.0, 0.0, 1.0, -4.35, -1.65)" width="8.7" xlink:href="#shape0"/>
    </g>
    <g id="shape0" transform="matrix(1.0, 0.0, 0.0, 1.0, 4.35, 1.65)">
      <path d="M-4.35 -0.85 L4.0 -1.65 4.35 0.75 -4.2 1.65 -4.35 -0.85" fill="#00ffff" fill-rule="evenodd" stroke="none"/>
    </g>
    <g id="shape1" transform="matrix(1.0, 0.0, 0.0, 1.0, 4.95, 9.5)">
      <path d="M-3.65 3.85 L-4.05 -6.3 Q-4.1 -7.15 -3.15 -7.75 -2.1 -8.4 -0.55 -8.55 L2.1 -8.25 Q3.15 -7.75 3.3 -7.0 L3.35 -6.85 3.35 -6.65 4.7 3.05 -3.65 3.85 M5.05 5.55 L5.05 5.7 Q5.15 6.65 3.9 7.45 2.7 8.25 0.95 8.4 -0.8 8.55 -2.15 7.95 -3.45 7.45 -3.55 6.5 L-3.55 6.35 -3.5 6.35 4.7 5.5 5.05 5.55" fill="#000000" fill-rule="evenodd" stroke="none"/>
      <path d="M-3.65 3.85 L-4.05 -6.3 Q-4.1 -7.15 -3.15 -7.75 -2.1 -8.4 -0.55 -8.55 L2.1 -8.25 Q3.15 -7.75 3.3 -7.0 L3.35 -6.85 3.35 -6.65 4.7 3.05 5.05 5.45 5.05 5.55 5.05 5.7 Q5.15 6.65 3.9 7.45 2.7 8.25 0.95 8.4 -0.8 8.55 -2.15 7.95 -3.45 7.45 -3.55 6.5 L-3.55 6.35 -3.55 6.1 -3.65 3.85 4.7 3.05 M-3.55 6.35 L-3.5 6.35 4.7 5.5" fill="none" stroke="#000000" stroke-linecap="round" stroke-linejoin="round" stroke-width="1.8"/>
    </g>
    <g id="sprite2" transform="matrix(1.0, 0.0, 0.0, 1.0, 6.55, 10.15)">
      <use ffdec:characterId="273" height="4.9" id="mc200" transform="matrix(1.0, 0.0, 0.0, 1.0, -5.65, 4.4)" width="6.65" xlink:href="#sprite3"/>
      <use ffdec:characterId="274" height="13.2" id="mc100" transform="matrix(1.0, 0.0, 0.0, 1.0, -5.35, -5.05)" width="10.15" xlink:href="#sprite4"/>
      <use ffdec:characterId="64" height="20.35" transform="matrix(1.0, 0.0, 0.0, 1.0, -6.55, -10.15)" width="13.05" xlink:href="#shape4"/>
    </g>
    <g id="sprite3" transform="matrix(1.0, 0.0, 0.0, 1.0, 3.35, 2.45)">
      <use ffdec:characterId="5" height="4.9" transform="matrix(1.0, 0.0, 0.0, 1.0, -3.35, -2.45)" width="6.65" xlink:href="#shape2"/>
    </g>
    <g id="shape2" transform="matrix(1.0, 0.0, 0.0, 1.0, 3.35, 2.45)">
      <path d="M-3.05 -2.45 L-2.8 -2.35 3.3 1.3 3.2 1.4 2.15 2.15 Q0.6 2.75 -0.9 2.15 -2.5 1.45 -3.1 -0.05 -3.55 -1.15 -3.1 -2.4 L-3.05 -2.45" fill="#ffcc66" fill-rule="evenodd" stroke="none"/>
    </g>
    <g id="sprite4" transform="matrix(1.0, 0.0, 0.0, 1.0, 5.1, 6.6)">
      <use ffdec:characterId="7" height="13.2" transform="matrix(1.0, 0.0, 0.0, 1.0, -5.1, -6.6)" width="10.15" xlink:href="#shape3"/>
    </g>
    <g id="shape3" transform="matrix(1.0, 0.0, 0.0, 1.0, 5.1, 6.6)">
      <path d="M-4.85 2.95 L-5.1 2.85 -4.85 2.2 -4.1 0.7 -3.7 0.9 2.25 4.7 2.1 5.05 1.25 6.6 -4.85 2.95 M5.05 -4.25 L4.1 -0.95 3.75 0.15 -2.25 -2.9 -1.95 -3.5 -0.2 -6.6 5.05 -4.25" fill="#00ff00" fill-rule="evenodd" stroke="none"/>
    </g>
    <g id="shape4" transform="matrix(1.0, 0.0, 0.0, 1.0, 6.55, 10.15)">
      <path d="M-0.45 -5.05 Q1.4 -8.35 2.2 -8.8 3.05 -9.35 3.85 -9.2 L4.3 -9.1 Q5.3 -8.65 5.55 -7.4 5.75 -6.5 4.8 -2.7 L-0.45 -5.05 M3.5 1.7 L2.0 6.25 -3.95 2.45 -4.35 2.25 -2.5 -1.35 3.5 1.7" fill="#ffffff" fill-rule="evenodd" stroke="none"/>
      <path d="M4.8 -2.7 Q5.75 -6.5 5.55 -7.4 5.3 -8.65 4.3 -9.1 L3.85 -9.2 Q3.05 -9.35 2.2 -8.8 1.4 -8.35 -0.45 -5.05 L-2.2 -1.95 -2.5 -1.35 -4.35 2.25 -5.1 3.75 -5.35 4.4 -5.4 4.45 Q-5.85 5.7 -5.4 6.8 -4.8 8.3 -3.2 9.0 -1.7 9.6 -0.15 9.0 L0.9 8.25 1.0 8.15 1.85 6.6 2.0 6.25 3.5 1.7 3.85 0.6 4.8 -2.7" fill="none" stroke="#000000" stroke-linecap="round" stroke-linejoin="round" stroke-width="1.8"/>
      <path d="M-0.45 -5.05 L4.8 -2.7 M-5.1 4.5 L0.7 7.95 M-2.5 -1.35 L3.5 1.7 M2.0 6.25 L-3.95 2.45" fill="none" stroke="#000000" stroke-linecap="round" stroke-linejoin="round" stroke-width="1.5"/>
    </g>
    <g id="sprite5" transform="matrix(1.0, 0.0, 0.0, 1.0, 0.75, 0.75)">
      <use ffdec:characterId="278" height="9.75" id="mc100" transform="matrix(1.0, 0.0, 0.0, 1.0, 0.0, 0.0)" width="36.1" xlink:href="#sprite6"/>
      <use ffdec:characterId="225" height="11.25" transform="matrix(1.0, 0.0, 0.0, 1.0, -0.75, -0.75)" width="37.6" xlink:href="#shape6"/>
    </g>
    <g id="sprite6" transform="matrix(1.0, 0.0, 0.0, 1.0, 18.05, 4.85)">
      <use ffdec:characterId="11" height="9.75" transform="matrix(1.0, 0.0, 0.0, 1.0, -18.05, -4.85)" width="36.1" xlink:href="#shape5"/>
    </g>
    <g id="shape5" transform="matrix(1.0, 0.0, 0.0, 1.0, 18.05, 4.85)">
      <path d="M11.55 -4.75 L18.05 0.55 14.55 4.7 11.45 1.8 8.7 4.65 6.2 1.5 3.35 4.45 -0.25 1.4 -4.05 4.9 -7.4 2.3 -9.95 4.8 -12.95 1.5 -15.7 4.25 -18.05 0.2 -11.2 -4.85 11.55 -4.75" fill="#996666" fill-rule="evenodd" stroke="none"/>
    </g>
    <g id="shape6" transform="matrix(1.0, 0.0, 0.0, 1.0, 0.75, 0.75)">
      <path d="M35.95 5.6 L32.6 9.55 29.5 6.65 26.75 9.5 24.25 6.35 21.4 9.3 21.05 9.0 17.8 6.25 14.0 9.75 10.65 7.15 8.1 9.65 5.1 6.35 2.35 9.1 0.0 5.05 6.85 0.0 29.6 0.1 36.1 5.4 M22.9 4.7 L24.25 6.35 M29.5 6.65 L26.9 4.2 M15.8 4.4 L14.0 9.75 M10.65 7.15 L12.75 5.05 M7.05 4.35 L5.1 6.35 M21.05 9.0 L20.05 5.0" fill="none" stroke="#000000" stroke-linecap="round" stroke-linejoin="round" stroke-width="1.5"/>
    </g>
    <g id="sprite7" transform="matrix(1.0, 0.0, 0.0, 1.0, 0.75, 0.75)">
      <use ffdec:characterId="276" height="14.75" id="mc100" transform="matrix(1.0, 0.0, 0.0, 1.0, 0.0, 2.55)" width="24.35" xlink:href="#sprite8"/>
      <use ffdec:characterId="67" height="18.8" transform="matrix(1.0, 0.0, 0.0, 1.0, -0.75, -0.75)" width="25.85" xlink:href="#shape8"/>
    </g>
    <g id="sprite8" transform="matrix(1.0, 0.0, 0.0, 1.0, 12.15, 7.35)">
      <use ffdec:characterId="15" height="14.75" transform="matrix(1.0, 0.0, 0.0, 1.0, -12.15, -7.35)" width="24.35" xlink:href="#shape7"/>
    </g>
    <g id="shape7" transform="matrix(1.0, 0.0, 0.0, 1.0, 12.15, 7.35)">
      <path d="M12.15 -5.15 L12.15 -4.6 -12.1 -4.6 -12.05 -5.15 -11.95 -7.35 12.05 -7.35 12.15 -5.15 M11.85 7.4 L-11.75 7.4 -11.95 4.65 12.05 4.65 11.85 7.4 M12.2 1.25 L-12.1 1.35 -12.15 -1.8 12.2 -1.85 12.2 1.25" fill="#00ff00" fill-rule="evenodd" stroke="none"/>
    </g>
    <g id="shape8" transform="matrix(1.0, 0.0, 0.0, 1.0, 0.75, 0.75)">
      <path d="M24.2 14.55 L0.2 14.55 0.05 11.25 24.35 11.15 24.2 14.55 M0.0 8.1 L0.05 5.3 24.3 5.3 24.35 8.05 0.0 8.1 M0.2 2.55 L0.4 0.0 24.0 0.0 24.2 2.55 0.2 2.55" fill="#ffffff" fill-rule="evenodd" stroke="none"/>
      <path d="M0.2 14.55 L0.4 17.3 24.0 17.3 24.2 14.55 0.2 14.55 0.05 11.25 0.0 8.1 0.05 5.3 0.1 4.75 0.2 2.55 0.4 0.0 24.0 0.0 24.2 2.55 24.3 4.75 24.3 5.3 24.35 8.05 24.35 11.15 24.2 14.55 M24.35 11.15 L0.05 11.25 M24.2 2.55 L0.2 2.55 M24.3 5.3 L0.05 5.3 M0.0 8.1 L24.35 8.05" fill="none" stroke="#000000" stroke-linecap="round" stroke-linejoin="round" stroke-width="1.5"/>
    </g>
    <g id="sprite9" transform="matrix(1.0, 0.0, 0.0, 1.0, 0.75, 0.75)">
      <use ffdec:characterId="323" height="19.45" id="mc100" transform="matrix(1.0, 0.0, 0.0, 1.0, 1.65, 0.0)" width="6.75" xlink:href="#sprite10"/>
      <use ffdec:characterId="116" height="20.95" transform="matrix(1.0, 0.0, 0.0, 1.0, -0.75, -0.75)" width="10.0" xlink:href="#shape10"/>
    </g>
    <g id="sprite10" transform="matrix(1.0, 0.0, 0.0, 1.0, 3.35, 9.7)">
      <use ffdec:characterId="19" height="19.45" transform="matrix(1.0, 0.0, 0.0, 1.0, -3.35, -9.7)" width="6.75" xlink:href="#shape9"/>
    </g>
    <g id="shape9" transform="matrix(1.0, 0.0, 0.0, 1.0, 3.35, 9.7)">
      <path d="M3.05 0.15 L2.9 4.95 0.45 4.7 0.95 9.15 0.95 9.75 0.9 9.75 -2.55 9.3 -1.9 4.45 -3.35 4.3 -3.2 -0.6 3.05 0.15 M3.35 -6.95 L3.25 -4.2 -3.05 -4.95 -2.9 -9.4 -2.75 -9.7 3.4 -7.2 3.35 -6.95" fill="#00ffff" fill-rule="evenodd" stroke="none"/>
    </g>
    <g id="shape10" transform="matrix(1.0, 0.0, 0.0, 1.0, 0.75, 0.75)">
      <path d="M1.95 4.75 L8.25 5.5 8.05 9.85 1.8 9.1 1.95 4.75 M7.9 14.65 L7.85 14.95 Q8.45 16.8 8.5 19.2 L6.0 19.45 5.95 19.45 5.95 18.85 5.45 14.4 7.4 14.6 7.9 14.65 M2.45 19.0 L0.0 18.3 Q0.15 16.25 1.6 14.4 L1.65 14.0 3.1 14.15 2.45 19.0" fill="#ffffff" fill-rule="evenodd" stroke="none"/>
      <path d="M2.1 0.3 L1.95 4.75 8.25 5.5 8.35 2.75 M8.4 2.5 L2.25 0.0 M1.95 4.75 L1.8 9.1 8.05 9.85 8.25 5.5 M5.95 19.45 L6.0 19.45 8.5 19.2 Q8.45 16.8 7.85 14.95 L7.9 14.65 8.05 9.85 M7.4 14.6 L5.45 14.4 5.95 18.85 M5.95 19.45 L5.9 19.45 2.45 19.0 0.0 18.3 Q0.15 16.25 1.6 14.4 L1.65 14.0 1.8 9.1 M2.45 19.0 L3.1 14.15 1.65 14.0 M5.45 14.4 L3.1 14.15" fill="none" stroke="#000000" stroke-linecap="round" stroke-linejoin="round" stroke-width="1.5"/>
    </g>
    <g id="sprite11" transform="matrix(1.0, 0.0, 0.0, 1.0, 0.9, 0.9)">
      <use ffdec:characterId="280" height="20.5" id="mc100" transform="matrix(1.0, 0.0, 0.0, 1.0, 0.0, 0.0)" width="25.1" xlink:href="#sprite12"/>
      <use ffdec:characterId="70" height="22.3" transform="matrix(1.0, 0.0, 0.0, 1.0, -0.9, -0.9)" width="26.9" xlink:href="#shape12"/>
    </g>
    <g id="sprite12" transform="matrix(1.0, 0.0, 0.0, 1.0, 12.55, 10.25)">
      <use ffdec:characterId="23" height="20.5" transform="matrix(1.0, 0.0, 0.0, 1.0, -12.55, -10.25)" width="25.1" xlink:href="#shape11"/>
    </g>
    <g id="shape11" transform="matrix(1.0, 0.0, 0.0, 1.0, 12.55, 10.25)">
      <path d="M3.3 -9.9 Q2.3 0.0 3.35 9.9 L0.0 10.25 -3.55 9.9 -3.2 -9.9 0.0 -10.25 3.3 -9.9 M9.75 6.5 Q8.6 0.05 9.65 -6.55 12.55 -3.75 12.55 0.0 12.55 3.7 9.75 6.5 M-8.7 -6.95 Q-9.65 0.35 -8.8 7.25 L-8.9 7.25 Q-12.55 4.25 -12.55 0.0 -12.55 -4.2 -8.95 -7.2 L-8.7 -6.95" fill="#00ffff" fill-rule="evenodd" stroke="none"/>
    </g>
    <g id="shape12" transform="matrix(1.0, 0.0, 0.0, 1.0, 0.9, 0.9)">
      <path d="M15.85 0.35 Q18.95 1.0 21.4 3.0 L21.95 3.5 22.2 3.7 Q21.15 10.3 22.3 16.75 L21.4 17.5 Q19.0 19.5 15.9 20.15 14.85 10.25 15.85 0.35 M9.0 20.15 Q6.05 19.45 3.75 17.55 L3.75 17.5 Q2.9 10.6 3.85 3.3 L3.65 3.0 Q6.15 1.0 9.35 0.35 L9.0 20.15" fill="#ffffff" fill-rule="evenodd" stroke="none"/>
      <path d="M15.85 0.35 Q18.95 1.0 21.4 3.0 L21.95 3.5 22.2 3.7 Q25.1 6.5 25.1 10.25 25.1 13.95 22.3 16.75 L21.4 17.5 Q19.0 19.5 15.9 20.15 L12.55 20.5 9.0 20.15 Q6.05 19.45 3.75 17.55 L3.65 17.5 Q0.0 14.5 0.0 10.25 0.0 6.05 3.6 3.05 L3.65 3.0 Q6.15 1.0 9.35 0.35 L12.55 0.0 15.85 0.35 Q14.85 10.25 15.9 20.15 M22.2 3.7 Q21.15 10.3 22.3 16.75 M3.75 17.55 L3.75 17.5 Q2.9 10.6 3.85 3.3 M9.35 0.35 L9.0 20.15" fill="none" stroke="#000000" stroke-linecap="round" stroke-linejoin="round" stroke-width="1.8"/>
    </g>
    <g id="sprite13" transform="matrix(1.0, 0.0, 0.0, 1.0, 0.9, 0.9)">
      <use ffdec:characterId="286" height="26.1" id="mc100" transform="matrix(1.0, 0.0, 0.0, 1.0, 0.0, 0.0)" width="4.3" xlink:href="#sprite14"/>
      <use ffdec:characterId="73" height="27.9" transform="matrix(1.0, 0.0, 0.0, 1.0, -0.9, -0.9)" width="6.1" xlink:href="#shape14"/>
    </g>
    <g id="sprite14" transform="matrix(1.0, 0.0, 0.0, 1.0, 2.15, 13.05)">
      <use ffdec:characterId="27" height="26.1" transform="matrix(1.0, 0.0, 0.0, 1.0, -2.15, -13.05)" width="4.3" xlink:href="#shape13"/>
    </g>
    <g id="shape13" transform="matrix(1.0, 0.0, 0.0, 1.0, 2.15, 13.05)">
      <path d="M1.95 -7.15 Q2.2 4.15 -2.15 13.05 L-1.85 -12.9 -1.6 -13.05 2.15 -7.45 1.95 -7.15" fill="#993300" fill-rule="evenodd" stroke="none"/>
    </g>
    <g id="shape14" transform="matrix(1.0, 0.0, 0.0, 1.0, 0.9, 0.9)">
      <path d="M4.1 5.9 Q4.35 17.2 0.0 26.1 L0.3 0.15 M0.55 0.0 L4.3 5.6" fill="none" stroke="#000000" stroke-linecap="round" stroke-linejoin="round" stroke-width="1.8"/>
    </g>
    <g id="sprite15" transform="matrix(1.0, 0.0, 0.0, 1.0, 0.9, 0.9)">
      <use ffdec:characterId="288" height="25.2" id="mc100" transform="matrix(1.0, 0.0, 0.0, 1.0, 0.0, 0.0)" width="22.15" xlink:href="#sprite16"/>
      <use ffdec:characterId="76" height="27.0" transform="matrix(1.0, 0.0, 0.0, 1.0, -0.9, -0.9)" width="23.95" xlink:href="#shape16"/>
    </g>
    <g id="sprite16" transform="matrix(1.0, 0.0, 0.0, 1.0, 11.05, 12.6)">
      <use ffdec:characterId="31" height="25.2" transform="matrix(1.0, 0.0, 0.0, 1.0, -11.05, -12.6)" width="22.15" xlink:href="#shape15"/>
    </g>
    <g id="shape15" transform="matrix(1.0, 0.0, 0.0, 1.0, 11.05, 12.6)">
      <path d="M11.1 -11.1 L11.05 -11.0 Q6.65 0.2 4.55 12.6 1.4 12.55 -1.2 11.5 -5.15 9.95 -7.95 6.3 -9.7 3.95 -11.0 0.75 L-11.05 0.6 Q-3.25 -11.3 8.75 -12.35 L8.95 -12.6 11.1 -11.1" fill="#993300" fill-rule="evenodd" stroke="none"/>
    </g>
    <g id="shape16" transform="matrix(1.0, 0.0, 0.0, 1.0, 0.9, 0.9)">
      <path d="M20.0 0.0 L22.15 1.5 22.1 1.6 Q17.7 12.8 15.6 25.2 12.45 25.15 9.85 24.1 5.9 22.55 3.1 18.9 1.35 16.55 0.05 13.35 L0.0 13.2 Q7.8 1.3 19.8 0.25 M3.1 18.9 Q7.85 8.9 15.9 3.05 M9.85 24.1 Q12.35 13.75 18.25 4.0" fill="none" stroke="#000000" stroke-linecap="round" stroke-linejoin="round" stroke-width="1.8"/>
    </g>
    <g id="sprite17" transform="matrix(1.0, 0.0, 0.0, 1.0, 0.9, 0.9)">
      <use ffdec:characterId="418" height="34.75" id="mc100" transform="matrix(1.0, 0.0, 0.0, 1.0, 0.0, 0.0)" width="48.4" xlink:href="#sprite18"/>
      <use ffdec:characterId="79" height="36.55" transform="matrix(1.0, 0.0, 0.0, 1.0, -0.9, -0.9)" width="50.2" xlink:href="#shape18"/>
    </g>
    <g id="sprite18" transform="matrix(1.0, 0.0, 0.0, 1.0, 24.2, 17.35)">
      <use ffdec:characterId="35" height="34.75" transform="matrix(1.0, 0.0, 0.0, 1.0, -24.2, -17.35)" width="48.4" xlink:href="#shape17"/>
    </g>
    <g id="shape17" transform="matrix(1.0, 0.0, 0.0, 1.0, 24.2, 17.35)">
      <path d="M21.85 -17.2 Q25.25 -9.15 23.75 1.05 20.25 12.6 3.55 17.0 L-2.85 17.3 Q-22.6 13.35 -24.2 -0.75 L-24.2 -1.05 -22.65 -17.15 21.8 -17.35 21.85 -17.2" fill="#ffcc66" fill-rule="evenodd" stroke="none"/>
    </g>
    <g id="shape18" transform="matrix(1.0, 0.0, 0.0, 1.0, 0.9, 0.9)">
      <path d="M46.05 0.15 Q49.45 8.2 47.95 18.4 44.45 29.95 27.75 34.35 L21.35 34.65 Q1.6 30.7 0.0 16.6 L0.0 16.3 1.55 0.2 46.0 0.0 46.05 0.15 Z" fill="none" stroke="#000000" stroke-linecap="round" stroke-linejoin="round" stroke-width="1.8"/>
    </g>
    <g id="morphshape0" transform="matrix(1.0, 0.0, 0.0, 1.0, 2.75, 35.95)">
      <path d="M-2.3 -32.6 Q-2.3 -31.2 -1.35 -30.25 -0.35 -29.25 1.05 -29.25 2.45 -29.25 3.4 -30.25 4.4 -31.2 4.4 -32.6 4.4 -34.0 3.4 -35.0 2.45 -35.95 1.05 -35.95 -0.35 -35.95 -1.35 -35.0 -2.3 -34.0 -2.3 -32.6" fill="#000000" fill-rule="evenodd" stroke="none"/>
      <path d="M-2.3 -32.6 Q-2.3 -34.0 -1.35 -35.0 -0.35 -35.95 1.05 -35.95 2.45 -35.95 3.4 -35.0 4.4 -34.0 4.4 -32.6 4.4 -31.2 3.4 -30.25 2.45 -29.25 1.05 -29.25 -0.35 -29.25 -1.35 -30.25 -2.3 -31.2 -2.3 -32.6 Z" fill="none" stroke="#000000" stroke-linecap="round" stroke-linejoin="round" stroke-opacity="0.0" stroke-width="0.0"/>
    </g>
    <g id="sprite19" transform="matrix(1.0, 0.0, 0.0, 1.0, 0.9, 0.9)">
      <use ffdec:characterId="421" height="35.7" id="mc100" transform="matrix(1.0, 0.0, 0.0, 1.0, 0.0, 0.0)" width="58.45" xlink:href="#sprite20"/>
      <use ffdec:characterId="83" height="37.5" transform="matrix(1.0, 0.0, 0.0, 1.0, -0.9, -0.9)" width="60.25" xlink:href="#shape20"/>
    </g>
    <g id="sprite20" transform="matrix(1.0, 0.0, 0.0, 1.0, 29.2, 17.85)">
      <use ffdec:characterId="40" height="35.7" transform="matrix(1.0, 0.0, 0.0, 1.0, -29.2, -17.85)" width="58.45" xlink:href="#shape19"/>
    </g>
    <g id="shape19" transform="matrix(1.0, 0.0, 0.0, 1.0, 29.2, 17.85)">
      <path d="M0.55 -17.85 Q12.3 -17.65 20.65 -9.25 29.25 -0.65 29.25 11.55 29.25 14.7 26.95 17.2 L26.95 17.85 5.05 17.0 4.95 16.7 4.75 5.6 4.4 5.55 3.3 16.05 0.8 16.05 0.7 6.75 -1.0 16.05 -3.45 16.05 -3.75 3.5 -4.15 4.25 -5.1 16.8 -12.3 16.45 -13.65 16.45 -17.8 16.55 -24.15 17.0 -26.9 17.3 Q-29.2 14.8 -29.2 11.65 -29.2 -0.55 -20.6 -9.15 -12.25 -17.55 0.55 -17.85" fill="#993300" fill-rule="evenodd" stroke="none"/>
    </g>
    <g id="shape20" transform="matrix(1.0, 0.0, 0.0, 1.0, 0.9, 0.9)">
      <path d="M56.15 35.05 Q58.45 32.55 58.45 29.4 58.45 17.2 49.85 8.6 41.5 0.2 29.75 0.0 16.95 0.3 8.6 8.7 0.0 17.3 0.0 29.5 0.0 32.65 2.3 35.15 L5.05 34.85 11.4 34.4 15.55 34.3 16.9 34.3 24.1 34.65 25.25 19.0 M40.95 22.45 Q41.85 28.6 41.2 35.15 L42.7 35.2 Q44.45 28.4 43.9 21.6 M42.7 35.2 L47.45 35.35 Q48.95 28.6 48.45 22.15 M47.45 35.35 L56.15 35.7 M53.2 35.05 Q55.5 30.05 55.35 24.7 M4.95 34.45 Q3.8 30.4 4.75 25.95 M25.45 21.35 L25.75 33.9 28.2 33.9 29.9 24.6 30.0 33.9 32.5 33.9 33.6 23.4 M11.35 33.95 Q10.15 26.6 10.95 18.9 M15.5 34.05 Q14.7 26.75 15.3 18.8 M33.95 23.45 L34.15 34.55 M16.85 34.05 L18.5 17.9 M34.25 34.85 L41.2 35.15" fill="none" stroke="#000000" stroke-linecap="round" stroke-linejoin="round" stroke-width="1.8"/>
    </g>
    <g id="shape21" transform="matrix(1.0, 0.0, 0.0, 1.0, 0.0, 0.0)">
      <path d="M15.25 1.5 Q13.75 4.6 10.6 5.25 L7.0 6.1 Q5.75 6.8 4.8 6.5 5.65 5.8 5.55 5.15 3.5 5.9 1.3 4.75 3.05 4.75 3.25 3.1 1.45 3.9 0.0 2.75 2.45 2.05 3.3 0.0 4.6 6.85 15.25 1.5" fill="#000000" fill-rule="evenodd" stroke="none"/>
    </g>
    <g id="sprite21" transform="matrix(1.0, 0.0, 0.0, 1.0, 0.9, -2.3)">
      <use ffdec:characterId="861" height="25.55" transform="matrix(1.0, 0.0, 0.0, 1.0, -0.9, 2.3)" width="36.8" xlink:href="#shape22"/>
    </g>
    <g id="shape22" transform="matrix(1.0, 0.0, 0.0, 1.0, 0.9, -2.3)">
      <path d="M33.6 12.1 L33.6 12.2 Q33.35 16.15 29.95 16.8 25.05 18.15 21.55 13.55 L21.3 12.45 Q21.9 12.3 22.4 11.85 23.15 11.25 23.15 10.35 L22.95 9.45 23.15 10.35 Q23.15 11.25 22.4 11.85 21.9 12.3 21.3 12.45 L21.55 13.55 Q25.05 18.15 29.95 16.8 33.35 16.15 33.6 12.2 L33.6 12.1 Q33.75 10.45 32.6 8.9 L33.65 8.1 Q36.1 10.45 34.95 13.95 L34.6 15.0 Q35.35 18.85 33.1 22.1 28.6 26.5 18.8 26.9 8.95 27.3 2.7 22.2 -1.8 17.2 1.7 10.85 3.3 9.45 1.7 7.6 0.45 7.3 0.05 6.15 -0.65 3.4 17.0 3.2 35.25 3.3 34.2 6.65 L33.05 7.85 Q31.85 9.3 32.65 10.3 L33.6 12.1 M22.95 9.45 Q27.95 9.05 33.05 7.85 27.95 9.05 22.95 9.45 L22.4 8.8 Q21.7 8.2 20.7 8.2 19.7 8.2 18.95 8.8 18.55 9.2 18.4 9.65 L18.25 10.35 Q18.25 11.25 18.95 11.85 19.35 12.2 19.8 12.35 L20.0 11.25 19.8 12.35 Q19.35 12.2 18.95 11.85 18.25 11.25 18.25 10.35 L18.4 9.65 Q18.55 9.2 18.95 8.8 19.7 8.2 20.7 8.2 21.7 8.2 22.4 8.8 L22.95 9.45 M21.35 11.4 L21.7 11.15 Q22.1 10.85 22.1 10.35 22.1 9.85 21.75 9.55 L21.7 9.5 Q21.35 9.2 20.8 9.2 20.25 9.2 19.85 9.5 L19.75 9.65 Q19.5 9.95 19.5 10.35 19.5 10.85 19.85 11.15 L20.0 11.25 20.8 11.5 21.35 11.4 Q21.25 11.95 21.3 12.45 21.25 11.95 21.35 11.4 M31.7 6.25 L31.6 6.1 28.05 5.65 17.55 5.3 7.05 5.65 Q2.7 6.0 2.7 6.5 L2.8 6.7 2.85 6.7 6.35 7.15 11.15 7.4 16.85 7.5 27.35 7.15 Q31.7 6.8 31.7 6.25 M34.6 15.0 Q33.95 16.2 32.65 17.15 29.9 18.8 26.8 18.3 23.1 17.9 20.75 14.95 19.65 13.85 19.8 12.35 19.65 13.85 20.75 14.95 23.1 17.9 26.8 18.3 29.9 18.8 32.65 17.15 33.95 16.2 34.6 15.0 M18.4 9.65 Q9.9 9.75 1.7 7.6 9.9 9.75 18.4 9.65" fill="#cc3300" fill-rule="evenodd" stroke="none"/>
      <path d="M20.0 11.25 L19.85 11.15 Q19.5 10.85 19.5 10.35 19.5 9.95 19.75 9.65 L19.85 9.5 Q20.25 9.2 20.8 9.2 21.35 9.2 21.7 9.5 L21.75 9.55 Q22.1 9.85 22.1 10.35 22.1 10.85 21.7 11.15 L21.35 11.4 20.8 11.5 20.0 11.25 M21.65 10.3 L21.55 10.7 21.35 10.85 Q21.1 11.15 20.7 11.15 20.4 11.15 20.15 10.95 L20.0 10.85 19.75 10.3 Q19.75 9.95 20.0 9.75 L20.2 9.6 20.7 9.5 21.1 9.6 21.35 9.75 21.65 10.3 21.35 9.75 21.1 9.6 20.7 9.5 20.2 9.6 20.0 9.75 Q19.75 9.95 19.75 10.3 L20.0 10.85 20.15 10.95 Q20.4 11.15 20.7 11.15 21.1 11.15 21.35 10.85 L21.55 10.7 21.65 10.3 M21.55 10.7 L21.35 11.4 21.55 10.7" fill="#ffffff" fill-rule="evenodd" stroke="none"/>
      <path d="M31.7 6.25 Q31.7 6.8 27.35 7.15 L16.85 7.5 11.15 7.4 6.35 7.15 2.85 6.7 2.8 6.7 2.7 6.5 Q2.7 6.0 7.05 5.65 L17.55 5.3 28.05 5.65 31.6 6.1 31.7 6.25" fill="#000000" fill-rule="evenodd" stroke="none"/>
      <path d="M33.6 12.1 L32.65 10.3 Q31.85 9.3 33.05 7.85 27.95 9.05 22.95 9.45 M34.6 15.0 Q35.35 18.85 33.1 22.1 28.6 26.5 18.8 26.9 8.95 27.3 2.7 22.2 -1.8 17.2 1.7 10.85 3.3 9.45 1.7 7.6 0.45 7.3 0.05 6.15 -0.65 3.4 17.0 3.2 35.25 3.3 34.2 6.65 L33.05 7.85 M1.7 7.6 Q9.9 9.75 18.4 9.65" fill="none" stroke="#000000" stroke-linecap="round" stroke-linejoin="round" stroke-width="1.8"/>
      <path d="M22.95 9.45 L23.15 10.35 Q23.15 11.25 22.4 11.85 21.9 12.3 21.3 12.45 L21.55 13.55 Q25.05 18.15 29.95 16.8 33.35 16.15 33.6 12.2 L33.6 12.1 Q33.75 10.45 32.6 8.9 L33.65 8.1 Q36.1 10.45 34.95 13.95 L34.6 15.0 Q33.95 16.2 32.65 17.15 29.9 18.8 26.8 18.3 23.1 17.9 20.75 14.95 19.65 13.85 19.8 12.35 L20.0 11.25 M22.95 9.45 L22.4 8.8 Q21.7 8.2 20.7 8.2 19.7 8.2 18.95 8.8 18.55 9.2 18.4 9.65 L18.25 10.35 Q18.25 11.25 18.95 11.85 19.35 12.2 19.8 12.35 M21.35 11.4 Q21.25 11.95 21.3 12.45 M21.35 11.4 L21.55 10.7" fill="none" stroke="#000000" stroke-linecap="round" stroke-linejoin="round" stroke-width="1.2000000000000002"/>
      <path d="M21.65 10.3 L21.35 9.75 21.1 9.6 20.7 9.5 20.2 9.6 20.0 9.75 Q19.75 9.95 19.75 10.3 L20.0 10.85 20.15 10.95 Q20.4 11.15 20.7 11.15 21.1 11.15 21.35 10.85 L21.55 10.7 21.65 10.3 Z" fill="none" stroke="#000000" stroke-linecap="round" stroke-linejoin="round" stroke-width="1.0"/>
    </g>
    <g id="sprite22" transform="matrix(1.0, 0.0, 0.0, 1.0, 0.9, 0.9)">
      <use ffdec:characterId="424" height="60.3" id="mc500" transform="matrix(1.0, 0.0, 0.0, 1.0, 0.0, 0.0)" width="84.3" xlink:href="#sprite23"/>
      <use ffdec:characterId="89" height="62.1" transform="matrix(1.0, 0.0, 0.0, 1.0, -0.9, -0.9)" width="86.1" xlink:href="#shape24"/>
      <use ffdec:characterId="425" height="21.85" id="mc300" transform="matrix(1.0, 0.0, 0.0, 1.0, 14.25, 24.75)" width="55.65" xlink:href="#sprite24"/>
      <use ffdec:characterId="91" height="23.75" transform="matrix(1.0, 0.0, 0.0, 1.0, 13.35, 23.85)" width="58.05" xlink:href="#shape26"/>
      <use ffdec:characterId="426" height="25.45" id="mc100" transform="matrix(1.0, 0.0, 0.0, 1.0, 31.65, 21.2)" width="23.15" xlink:href="#sprite25"/>
      <use ffdec:characterId="93" height="27.25" transform="matrix(1.0, 0.0, 0.0, 1.0, 30.75, 20.3)" width="24.95" xlink:href="#shape28"/>
    </g>
    <g id="sprite23" transform="matrix(1.0, 0.0, 0.0, 1.0, 42.15, 30.15)">
      <use ffdec:characterId="49" height="60.3" transform="matrix(1.0, 0.0, 0.0, 1.0, -42.15, -30.15)" width="84.3" xlink:href="#shape23"/>
    </g>
    <g id="shape23" transform="matrix(1.0, 0.0, 0.0, 1.0, 42.15, 30.15)">
      <path d="M4.2 -29.65 L15.7 -29.25 18.0 -28.4 Q27.65 -24.7 34.25 -17.9 37.9 -12.85 32.2 -12.45 L31.8 -12.45 18.9 -12.65 Q27.0 2.45 28.2 16.35 L28.2 16.5 29.2 17.1 Q37.4 22.15 42.15 27.8 -1.2 32.45 -42.15 27.95 -38.1 23.0 -32.0 19.1 -30.15 17.85 -28.15 16.8 L-28.0 16.7 -27.9 16.45 Q-20.05 -21.35 3.3 -29.45 L4.2 -29.65" fill="#1a0000" fill-rule="evenodd" stroke="none"/>
    </g>
    <g id="shape24" transform="matrix(1.0, 0.0, 0.0, 1.0, 0.9, 0.9)">
      <path d="M60.15 1.75 L57.85 0.9 59.45 1.45 60.15 1.75" fill="#000000" fill-rule="evenodd" stroke="none"/>
      <path d="M48.0 17.3 L61.05 17.5 73.95 17.7 74.35 17.7 Q80.05 17.3 76.4 12.25 69.8 5.45 60.15 1.75 L59.45 1.45 57.85 0.9 Q52.7 -0.7 46.35 0.5 L45.45 0.7 Q22.1 8.8 14.25 46.6 L14.15 46.85 14.0 46.95 10.15 49.25 Q4.05 53.15 0.0 58.1 40.95 62.6 84.3 57.95 79.55 52.3 71.35 47.25 L70.35 46.65 70.35 46.5 Q69.15 32.6 61.05 17.5 M14.25 46.6 L14.0 46.95" fill="none" stroke="#000000" stroke-linecap="round" stroke-linejoin="round" stroke-width="1.8"/>
    </g>
    <g id="sprite24" transform="matrix(1.0, 0.0, 0.0, 1.0, 27.8, 10.9)">
      <use ffdec:characterId="52" height="21.85" transform="matrix(1.0, 0.0, 0.0, 1.0, -27.8, -10.9)" width="55.65" xlink:href="#shape25"/>
    </g>
    <g id="shape25" transform="matrix(1.0, 0.0, 0.0, 1.0, 27.8, 10.9)">
      <path d="M-11.05 -0.4 Q-11.05 -1.25 -11.65 -1.85 -12.25 -2.45 -13.1 -2.45 -13.95 -2.45 -14.55 -1.85 -15.15 -1.25 -15.15 -0.4 -15.15 0.45 -14.55 1.05 -13.95 1.65 -13.1 1.65 -12.25 1.65 -11.65 1.05 -11.05 0.45 -11.05 -0.4 M4.5 -3.2 Q3.9 -3.8 3.05 -3.8 2.2 -3.8 1.6 -3.2 1.0 -2.6 1.0 -1.75 1.0 -0.9 1.6 -0.3 2.2 0.3 3.05 0.3 3.9 0.3 4.5 -0.3 5.1 -0.9 5.1 -1.75 5.1 -2.6 4.5 -3.2 M11.6 -9.4 Q14.9 -9.7 17.0 -7.55 21.1 -5.8 25.1 -3.1 L25.3 -2.7 Q27.6 3.3 27.85 10.95 19.6 9.35 11.2 8.75 L11.1 8.75 10.85 8.75 Q-8.0 7.4 -27.8 10.85 L-24.65 -1.6 Q-12.0 -11.4 0.4 -10.85 6.1 -10.9 11.6 -9.4" fill="#ff0000" fill-rule="evenodd" stroke="none"/>
    </g>
    <g id="shape26" transform="matrix(1.0, 0.0, 0.0, 1.0, -13.35, -23.85)">
      <path d="M53.65 26.25 Q48.15 24.75 42.45 24.8 30.05 24.25 17.4 34.05 L14.25 46.5 Q34.05 43.05 52.9 44.4 L53.15 44.4 53.25 44.4 Q59.9 44.7 61.3 35.5 61.2 30.4 59.05 28.1 56.95 25.95 53.65 26.25 M46.55 35.35 Q45.95 35.95 45.1 35.95 44.25 35.95 43.65 35.35 43.05 34.75 43.05 33.9 43.05 33.05 43.65 32.45 44.25 31.85 45.1 31.85 45.95 31.85 46.55 32.45 47.15 33.05 47.15 33.9 47.15 34.75 46.55 35.35 M52.25 45.0 L52.9 44.4 M53.25 44.4 Q61.65 45.0 69.9 46.6 69.65 38.95 67.35 32.95 L67.15 32.55 Q63.15 29.85 59.05 28.1 M70.5 46.7 L69.9 46.6 M17.4 34.05 L17.65 33.05 M31.0 35.25 Q31.0 36.1 30.4 36.7 29.8 37.3 28.95 37.3 28.1 37.3 27.5 36.7 26.9 36.1 26.9 35.25 26.9 34.4 27.5 33.8 28.1 33.2 28.95 33.2 29.8 33.2 30.4 33.8 31.0 34.4 31.0 35.25 Z" fill="none" stroke="#000000" stroke-linecap="round" stroke-linejoin="round" stroke-width="1.8"/>
    </g>
    <g id="sprite25" transform="matrix(1.0, 0.0, 0.0, 1.0, 11.55, 12.7)">
      <use ffdec:characterId="55" height="25.45" transform="matrix(1.0, 0.0, 0.0, 1.0, -11.55, -12.7)" width="23.15" xlink:href="#shape27"/>
    </g>
    <g id="shape27" transform="matrix(1.0, 0.0, 0.0, 1.0, 11.55, 12.7)">
      <path d="M-7.35 -9.3 L-7.4 -7.95 Q-7.9 1.15 -6.85 9.45 L-6.75 10.2 -9.45 10.95 Q-13.0 0.45 -10.55 -10.0 L-7.25 -10.25 -7.3 -9.7 -7.35 -9.3 -6.9 -9.65 Q-3.6 -12.25 3.45 -12.7 L3.65 -12.6 Q7.65 -13.25 9.45 -9.7 14.0 1.5 8.85 11.45 L8.65 12.05 Q-0.3 14.15 -6.15 10.1 L-6.15 9.35 4.3 8.6 Q5.7 1.55 5.15 -4.7 4.4 -8.0 1.55 -8.7 -1.35 -9.75 -7.0 -8.05 L-7.35 -9.3" fill="#333333" fill-rule="evenodd" stroke="none"/>
    </g>
    <g id="shape28" transform="matrix(1.0, 0.0, 0.0, 1.0, -30.75, -20.3)">
      <path d="M33.75 44.85 L36.45 44.1 36.7 45.75 36.3 46.15 33.95 45.4 33.75 44.85" fill="#000000" fill-rule="evenodd" stroke="none"/>
      <path d="M52.05 45.35 Q57.2 35.4 52.65 24.2 50.85 20.65 46.85 21.3 L46.65 21.2 Q39.6 21.65 36.3 24.25 L35.85 24.6 35.8 25.95 36.2 25.85 Q41.85 24.15 44.75 25.2 47.6 25.9 48.35 29.2 48.9 35.45 47.5 42.5 L37.05 43.25 M35.85 24.6 L35.9 24.2 35.95 23.65 32.65 23.9 Q30.2 34.35 33.75 44.85 L33.95 45.4 36.3 46.15 M36.45 44.1 L36.35 43.35 Q35.3 35.05 35.8 25.95 M36.45 44.1 L36.7 45.75 M37.05 44.0 Q42.9 48.05 51.85 45.95" fill="none" stroke="#000000" stroke-linecap="round" stroke-linejoin="round" stroke-width="1.8"/>
    </g>
    <g id="shape29" transform="matrix(1.0, 0.0, 0.0, 1.0, 1.25, -1.7)">
      <path d="M-0.5 15.15 L3.25 2.45 5.85 2.95 1.9 15.25 -0.2 15.25 -0.5 15.15" fill="#cc9933" fill-rule="evenodd" stroke="none"/>
      <path d="M-0.5 15.15 L3.25 2.45 5.85 2.95 1.9 15.25" fill="none" stroke="#000000" stroke-linecap="round" stroke-linejoin="round" stroke-width="1.5"/>
    </g>
    <g id="sprite27" transform="matrix(1.0, 0.0, 0.0, 1.0, 1.4, 0.75)">
      <use ffdec:characterId="867" height="18.2" transform="matrix(1.0, 0.0, 0.0, 1.0, -1.4, -0.75)" width="18.1" xlink:href="#shape30"/>
    </g>
    <g id="shape30" transform="matrix(1.0, 0.0, 0.0, 1.0, 1.4, 0.75)">
      <path d="M15.45 5.3 Q14.75 6.05 13.45 5.95 L12.75 5.8 12.65 5.75 11.5 6.95 Q12.95 8.9 13.15 11.1 13.45 13.9 11.8 15.45 10.1 17.0 7.0 16.65 3.9 16.3 1.5 14.1 -0.95 11.85 -0.6 8.85 -0.25 5.8 1.45 4.3 3.1 2.7 5.9 3.15 L8.05 3.95 8.75 4.35 10.1 3.2 9.95 2.65 Q9.75 1.4 10.4 0.65 11.1 -0.15 12.3 0.0 13.6 0.15 14.6 1.15 15.65 2.1 15.9 3.35 16.15 4.6 15.45 5.3 M11.5 6.95 L11.1 6.45 10.75 6.05 8.75 4.35 10.75 6.05 11.1 6.45 11.5 6.95 M10.1 3.2 L11.7 2.0 Q13.85 2.4 13.85 4.45 L12.65 5.75 13.85 4.45 Q13.85 2.4 11.7 2.0 L10.1 3.2" fill="#cccccc" fill-rule="evenodd" stroke="none"/>
      <path d="M15.45 5.3 Q14.75 6.05 13.45 5.95 L12.75 5.8 12.65 5.75 11.5 6.95 Q12.95 8.9 13.15 11.1 13.45 13.9 11.8 15.45 10.1 17.0 7.0 16.65 3.9 16.3 1.5 14.1 -0.95 11.85 -0.6 8.85 -0.25 5.8 1.45 4.3 3.1 2.7 5.9 3.15 L8.05 3.95 8.75 4.35 10.1 3.2 9.95 2.65 Q9.75 1.4 10.4 0.65 11.1 -0.15 12.3 0.0 13.6 0.15 14.6 1.15 15.65 2.1 15.9 3.35 16.15 4.6 15.45 5.3 M12.65 5.75 L13.85 4.45 Q13.85 2.4 11.7 2.0 L10.1 3.2 M8.75 4.35 L10.75 6.05 11.1 6.45 11.5 6.95" fill="none" stroke="#000000" stroke-linecap="round" stroke-linejoin="round" stroke-width="1.5"/>
    </g>
    <g id="sprite28" transform="matrix(1.0, 0.0, 0.0, 1.0, 2.75, 2.75)">
      <use ffdec:characterId="480" height="9.45" id="mc100" transform="matrix(1.0, 0.0, 0.0, 1.0, -2.0, -2.0)" width="9.55" xlink:href="#sprite29"/>
      <use ffdec:characterId="481" height="10.95" transform="matrix(1.0, 0.0, 0.0, 1.0, -2.75, -2.75)" width="11.05" xlink:href="#shape32"/>
    </g>
    <g id="sprite29" transform="matrix(1.0, 0.0, 0.0, 1.0, 4.75, 4.7)">
      <use ffdec:characterId="479" height="9.45" transform="matrix(1.0, 0.0, 0.0, 1.0, -4.75, -4.7)" width="9.55" xlink:href="#shape31"/>
    </g>
    <g id="shape31" transform="matrix(1.0, 0.0, 0.0, 1.0, 4.75, 4.7)">
      <path d="M3.35 -3.35 Q4.8 -2.0 4.8 0.05 4.8 2.0 3.35 3.4 2.0 4.75 0.0 4.75 -1.95 4.75 -3.3 3.4 -4.75 2.0 -4.75 0.05 -4.75 -2.0 -3.3 -3.35 -1.95 -4.7 0.0 -4.7 2.0 -4.7 3.35 -3.35" fill="#ffcc66" fill-rule="evenodd" stroke="none"/>
    </g>
    <g id="shape32" transform="matrix(1.0, 0.0, 0.0, 1.0, 2.75, 2.75)">
      <path d="M6.1 -0.65 Q7.55 0.7 7.55 2.75 7.55 4.7 6.1 6.1 4.75 7.45 2.75 7.45 0.8 7.45 -0.55 6.1 -2.0 4.7 -2.0 2.75 -2.0 0.7 -0.55 -0.65 0.8 -2.0 2.75 -2.0 4.75 -2.0 6.1 -0.65 Z" fill="none" stroke="#000000" stroke-linecap="round" stroke-linejoin="round" stroke-width="1.5"/>
    </g>
    <g id="shape33" transform="matrix(1.0, 0.0, 0.0, 1.0, 7.6, 5.45)">
      <path d="M3.55 -3.55 L3.6 -3.3 4.55 -3.05 Q5.15 -2.7 5.35 -2.0 L5.45 -1.45 6.2 -1.15 Q7.0 -0.65 7.3 0.25 7.5 -0.1 7.95 -0.25 L8.85 -0.1 9.45 0.6 9.3 1.5 8.6 2.1 8.45 2.1 8.9 2.85 Q9.0 3.5 8.7 4.1 L7.7 4.85 6.9 4.9 6.7 5.25 Q6.15 6.15 5.25 6.4 L3.35 6.15 2.5 5.35 1.4 6.15 -0.25 5.95 Q-0.95 5.55 -1.15 4.8 L-1.6 5.0 -2.85 4.85 -3.4 4.3 -3.6 3.8 Q-3.8 3.25 -3.55 2.7 L-3.5 2.55 Q-3.15 1.95 -2.45 1.8 L-2.25 1.75 -3.85 1.0 Q-5.15 0.25 -5.5 -1.15 -5.85 -2.55 -5.1 -3.7 -4.45 -5.0 -3.05 -5.35 -1.7 -5.7 -0.4 -4.95 L0.55 -4.15 Q0.85 -4.6 1.45 -4.75 L2.8 -4.55 Q3.35 -4.25 3.55 -3.55" fill="#94d3f6" fill-opacity="0.03529412" fill-rule="evenodd" stroke="none"/>
      <path d="M7.0 -1.75 Q7.65 -1.75 8.15 -1.25 L8.55 -0.55 8.85 -0.6 Q9.3 -0.6 9.65 -0.25 L9.95 0.5 9.65 1.25 Q9.3 1.6 8.85 1.6 L8.55 1.55 8.55 1.7 8.4 2.2 7.8 2.45 7.3 2.2 7.05 1.7 7.05 1.5 7.0 1.5 Q6.35 1.5 5.85 1.05 5.35 0.6 5.4 -0.1 5.35 -0.75 5.85 -1.25 6.35 -1.75 7.0 -1.75 M6.85 4.45 Q7.15 4.45 7.4 4.7 L7.65 5.25 7.4 5.8 6.85 6.05 6.65 6.0 6.65 6.1 6.5 6.5 6.1 6.65 5.7 6.5 5.55 6.1 5.55 6.0 5.5 6.0 Q5.05 6.0 4.7 5.65 4.3 5.35 4.35 4.8 4.3 4.35 4.7 4.0 5.05 3.6 5.5 3.65 5.95 3.6 6.35 4.0 L6.6 4.5 6.85 4.45 M-4.55 2.45 L-5.1 2.7 -5.3 2.65 -5.3 2.75 Q-5.3 3.0 -5.45 3.15 L-5.85 3.3 -6.25 3.15 -6.4 2.75 -6.4 2.65 -6.45 2.65 Q-6.9 2.65 -7.25 2.3 L-7.6 1.45 Q-7.65 1.0 -7.25 0.65 -6.9 0.25 -6.45 0.3 -6.0 0.25 -5.6 0.65 -5.4 0.85 -5.35 1.15 L-5.1 1.1 -4.55 1.35 Q-4.3 1.6 -4.3 1.9 -4.3 2.25 -4.55 2.45" fill="#81b7d6" fill-opacity="0.03529412" fill-rule="evenodd" stroke="none"/>
    </g>
  </defs>
</svg>
