<?xml version="1.0" encoding="UTF-8" standalone="no"?>
<svg xmlns:ffdec="https://www.free-decompiler.com/flash" xmlns:xlink="http://www.w3.org/1999/xlink" ffdec:objectType="frame" height="148.45px" width="108.5px" xmlns="http://www.w3.org/2000/svg">
  <g transform="matrix(1.0, 0.0, 0.0, 1.0, 52.25, 140.45)">
    <use ffdec:characterId="876" height="30.6" id="mc332130" transform="matrix(1.0, 0.0, 0.0, 1.0, -32.8, -26.3)" width="69.3" xlink:href="#sprite0"/>
    <use ffdec:characterId="287" height="27.9" id="mc262130" transform="matrix(-0.689, 0.7225, 0.7225, 0.689, 23.2698, -31.2203)" width="6.1" xlink:href="#sprite1"/>
    <use ffdec:characterId="289" height="27.0" id="mc252130" transform="matrix(-0.689, 0.7225, 0.7225, 0.689, 36.7198, -45.2703)" width="23.95" xlink:href="#sprite3"/>
    <use ffdec:characterId="289" height="27.0" id="mc242130" transform="matrix(0.8197, 0.57, -0.57, 0.8197, -36.8247, -45.3008)" width="23.95" xlink:href="#sprite3"/>
    <use ffdec:characterId="287" height="27.9" id="mc232130" transform="matrix(0.8197, 0.57, -0.57, 0.8197, -20.8247, -34.3508)" width="6.1" xlink:href="#sprite1"/>
    <use ffdec:characterId="878" height="40.75" id="mc222130" transform="matrix(1.0, 0.0, 0.0, 1.0, -26.4, -38.15)" width="56.15" xlink:href="#sprite5"/>
    <use ffdec:characterId="880" height="17.5" id="mc212130" transform="matrix(0.9816, -0.1876, 0.1876, 0.9816, -20.0523, -12.0646)" width="17.55" xlink:href="#sprite6"/>
    <use ffdec:characterId="427" height="62.1" id="hide_hat" transform="matrix(0.9926, 0.1179, -0.1179, 0.9926, -36.3372, -94.9495)" width="86.1" xlink:href="#sprite7"/>
    <use ffdec:characterId="856" height="0.0" id="hat" transform="matrix(1.0, 0.0, 0.0, 1.0, -37.05, -125.45)" width="0.0" xlink:href="#sprite11"/>
    <use ffdec:characterId="880" height="17.5" id="mc52130" transform="matrix(-0.9763, -0.2132, -0.2132, 0.9763, 24.9705, -11.7868)" width="17.55" xlink:href="#sprite6"/>
    <use ffdec:characterId="885" height="18.2" id="mc32130" transform="matrix(1.0, 0.0, 0.0, 1.0, -20.4, -40.25)" width="18.2" xlink:href="#sprite12"/>
    <use ffdec:characterId="885" height="18.2" id="mc22130" transform="matrix(1.0, 0.0, 0.0, 1.0, 5.6, -40.25)" width="18.2" xlink:href="#sprite12"/>
  </g>
  <defs>
    <g id="sprite0" transform="matrix(1.0, 0.0, 0.0, 1.0, 0.85, 0.9)">
      <use ffdec:characterId="875" height="30.6" transform="matrix(1.0, 0.0, 0.0, 1.0, -0.85, -0.9)" width="69.3" xlink:href="#shape0"/>
    </g>
    <g id="shape0" transform="matrix(1.0, 0.0, 0.0, 1.0, 0.85, 0.9)">
      <path d="M66.55 4.45 L66.6 4.5 Q71.1 15.1 54.15 22.45 L56.85 23.05 57.45 23.1 Q65.0 24.05 61.25 25.15 L56.65 25.5 52.9 25.25 Q56.05 27.7 55.1 28.65 52.35 28.9 50.85 27.4 L50.5 27.3 Q46.15 25.15 41.05 25.05 32.55 28.35 24.35 25.5 L15.5 28.3 Q10.8 29.6 12.65 27.35 L14.35 25.35 7.05 25.3 Q4.85 23.95 7.5 23.55 9.95 23.55 13.65 22.05 L5.9 18.55 Q1.4 16.05 0.25 10.9 -1.3 0.2 8.1 0.0 L8.35 0.0 59.15 0.15 Q64.25 -0.25 66.55 4.45" fill="#006600" fill-rule="evenodd" stroke="none"/>
      <path d="M66.55 4.45 Q64.25 -0.25 59.15 0.15 L8.35 0.0 8.1 0.0 Q-1.3 0.2 0.25 10.9 1.4 16.05 5.9 18.55 L13.65 22.05 Q9.95 23.55 7.5 23.55 4.85 23.95 7.05 25.3 L14.35 25.35 12.65 27.35 Q10.8 29.6 15.5 28.3 L24.35 25.5 Q32.55 28.35 41.05 25.05 46.15 25.15 50.5 27.3 L50.85 27.4 Q52.35 28.9 55.1 28.65 56.05 27.7 52.9 25.25 L56.65 25.5 61.25 25.15 Q65.0 24.05 57.45 23.1 L56.85 23.05 54.15 22.45 Q71.1 15.1 66.6 4.5 L66.55 4.45 Z" fill="none" stroke="#000000" stroke-linecap="round" stroke-linejoin="round" stroke-width="1.8"/>
    </g>
    <g id="sprite1" transform="matrix(1.0, 0.0, 0.0, 1.0, 0.9, 0.9)">
      <use ffdec:characterId="286" height="26.1" id="mc100" transform="matrix(1.0, 0.0, 0.0, 1.0, 0.0, 0.0)" width="4.3" xlink:href="#sprite2"/>
      <use ffdec:characterId="73" height="27.9" transform="matrix(1.0, 0.0, 0.0, 1.0, -0.9, -0.9)" width="6.1" xlink:href="#shape2"/>
    </g>
    <g id="sprite2" transform="matrix(1.0, 0.0, 0.0, 1.0, 2.15, 13.05)">
      <use ffdec:characterId="27" height="26.1" transform="matrix(1.0, 0.0, 0.0, 1.0, -2.15, -13.05)" width="4.3" xlink:href="#shape1"/>
    </g>
    <g id="shape1" transform="matrix(1.0, 0.0, 0.0, 1.0, 2.15, 13.05)">
      <path d="M1.95 -7.15 Q2.2 4.15 -2.15 13.05 L-1.85 -12.9 -1.6 -13.05 2.15 -7.45 1.95 -7.15" fill="#993300" fill-rule="evenodd" stroke="none"/>
    </g>
    <g id="shape2" transform="matrix(1.0, 0.0, 0.0, 1.0, 0.9, 0.9)">
      <path d="M4.1 5.9 Q4.35 17.2 0.0 26.1 L0.3 0.15 M0.55 0.0 L4.3 5.6" fill="none" stroke="#000000" stroke-linecap="round" stroke-linejoin="round" stroke-width="1.8"/>
    </g>
    <g id="sprite3" transform="matrix(1.0, 0.0, 0.0, 1.0, 0.9, 0.9)">
      <use ffdec:characterId="288" height="25.2" id="mc100" transform="matrix(1.0, 0.0, 0.0, 1.0, 0.0, 0.0)" width="22.15" xlink:href="#sprite4"/>
      <use ffdec:characterId="76" height="27.0" transform="matrix(1.0, 0.0, 0.0, 1.0, -0.9, -0.9)" width="23.95" xlink:href="#shape4"/>
    </g>
    <g id="sprite4" transform="matrix(1.0, 0.0, 0.0, 1.0, 11.05, 12.6)">
      <use ffdec:characterId="31" height="25.2" transform="matrix(1.0, 0.0, 0.0, 1.0, -11.05, -12.6)" width="22.15" xlink:href="#shape3"/>
    </g>
    <g id="shape3" transform="matrix(1.0, 0.0, 0.0, 1.0, 11.05, 12.6)">
      <path d="M11.1 -11.1 L11.05 -11.0 Q6.65 0.2 4.55 12.6 1.4 12.55 -1.2 11.5 -5.15 9.95 -7.95 6.3 -9.7 3.95 -11.0 0.75 L-11.05 0.6 Q-3.25 -11.3 8.75 -12.35 L8.95 -12.6 11.1 -11.1" fill="#993300" fill-rule="evenodd" stroke="none"/>
    </g>
    <g id="shape4" transform="matrix(1.0, 0.0, 0.0, 1.0, 0.9, 0.9)">
      <path d="M20.0 0.0 L22.15 1.5 22.1 1.6 Q17.7 12.8 15.6 25.2 12.45 25.15 9.85 24.1 5.9 22.55 3.1 18.9 1.35 16.55 0.05 13.35 L0.0 13.2 Q7.8 1.3 19.8 0.25 M3.1 18.9 Q7.85 8.9 15.9 3.05 M9.85 24.1 Q12.35 13.75 18.25 4.0" fill="none" stroke="#000000" stroke-linecap="round" stroke-linejoin="round" stroke-width="1.8"/>
    </g>
    <g id="sprite5" transform="matrix(1.0, 0.0, 0.0, 1.0, 0.9, 0.85)">
      <use ffdec:characterId="877" height="40.75" transform="matrix(1.0, 0.0, 0.0, 1.0, -0.9, -0.85)" width="56.15" xlink:href="#shape5"/>
    </g>
    <g id="shape5" transform="matrix(1.0, 0.0, 0.0, 1.0, 0.9, 0.85)">
      <path d="M49.3 29.5 L48.25 30.0 Q39.65 35.8 27.6 39.0 16.55 35.75 7.6 29.85 -12.45 20.4 20.5 2.65 L20.75 2.7 Q28.15 -3.0 37.8 3.45 L38.25 3.8 Q46.85 9.2 52.85 15.25 57.05 24.95 49.3 29.5" fill="#009900" fill-rule="evenodd" stroke="none"/>
      <path d="M49.3 29.5 Q57.05 24.95 52.85 15.25 46.85 9.2 38.25 3.8 L37.8 3.45 Q28.15 -3.0 20.75 2.7 L20.5 2.65 Q-12.45 20.4 7.6 29.85 16.55 35.75 27.6 39.0 39.65 35.8 48.25 30.0 L49.3 29.5 Z" fill="none" stroke="#000000" stroke-linecap="round" stroke-linejoin="round" stroke-width="1.8"/>
      <path d="M48.6 17.35 Q48.6 16.7 49.1 16.2 49.65 15.75 50.35 15.75 51.05 15.75 51.55 16.2 52.1 16.7 52.1 17.35 52.1 18.0 51.55 18.45 51.05 18.95 50.35 18.95 49.65 18.95 49.1 18.45 48.6 18.0 48.6 17.35 M47.15 14.95 Q47.65 15.25 47.65 15.65 L47.15 16.35 46.0 16.65 44.8 16.35 Q44.35 16.05 44.35 15.65 44.35 15.25 44.8 14.95 45.3 14.65 46.0 14.65 L47.15 14.95 M43.7 17.65 L44.5 17.45 45.25 17.65 45.6 18.2 45.25 18.7 44.5 18.95 43.7 18.7 43.4 18.2 Q43.4 17.9 43.7 17.65 M9.9 17.75 L10.55 17.55 11.15 17.75 11.45 18.3 11.15 18.8 10.55 19.05 9.9 18.8 9.65 18.3 Q9.65 18.0 9.9 17.75 M9.35 14.6 L10.3 14.85 Q10.7 15.1 10.7 15.45 10.7 15.8 10.3 16.05 L9.35 16.3 8.4 16.05 8.0 15.45 Q8.0 15.1 8.4 14.85 L9.35 14.6 M6.1 18.05 Q5.6 18.45 4.9 18.45 4.2 18.45 3.65 18.05 3.15 17.7 3.15 17.15 3.15 16.6 3.65 16.2 4.2 15.85 4.9 15.85 5.6 15.85 6.1 16.2 6.65 16.6 6.65 17.15 6.65 17.7 6.1 18.05" fill="#003300" fill-rule="evenodd" stroke="none"/>
      <path d="M22.45 21.95 Q27.4 17.35 32.3 21.95 M21.45 27.95 Q27.2 33.45 33.9 27.95" fill="none" stroke="#000000" stroke-linecap="round" stroke-linejoin="round" stroke-width="1.8"/>
    </g>
    <g id="sprite6" transform="matrix(1.0, 0.0, 0.0, 1.0, 0.9, 0.9)">
      <use ffdec:characterId="879" height="17.5" transform="matrix(1.0, 0.0, 0.0, 1.0, -0.9, -0.9)" width="17.55" xlink:href="#shape6"/>
    </g>
    <g id="shape6" transform="matrix(1.0, 0.0, 0.0, 1.0, 0.9, 0.9)">
      <path d="M12.0 10.65 L14.0 11.4 Q15.75 12.15 15.75 13.0 15.75 14.15 13.9 14.15 13.05 13.95 12.95 14.3 L13.2 14.85 12.8 15.45 11.9 15.7 Q10.95 15.7 10.4 15.35 L9.15 14.4 Q8.35 15.25 7.8 15.25 5.8 15.25 5.8 12.65 L5.85 11.9 6.15 11.4 Q-2.75 8.2 1.25 0.1 L1.3 0.0 9.9 1.3 9.1 2.0 Q15.65 6.4 12.0 10.65 L11.15 11.5 12.0 10.65" fill="#009900" fill-rule="evenodd" stroke="none"/>
      <path d="M1.3 0.0 L1.25 0.1 Q-2.75 8.2 6.15 11.4 L5.85 11.9 5.8 12.65 Q5.8 15.25 7.8 15.25 8.35 15.25 9.15 14.4 L10.4 15.35 Q10.95 15.7 11.9 15.7 L12.8 15.45 13.2 14.85 12.95 14.3 Q13.05 13.95 13.9 14.15 15.75 14.15 15.75 13.0 15.75 12.15 14.0 11.4 L12.0 10.65 11.15 11.5 M12.0 10.65 Q15.65 6.4 9.1 2.0 L9.9 1.3" fill="none" stroke="#000000" stroke-linecap="round" stroke-linejoin="round" stroke-width="1.8"/>
    </g>
    <g id="sprite7" transform="matrix(1.0, 0.0, 0.0, 1.0, 0.9, 0.9)">
      <use ffdec:characterId="424" height="60.3" id="mc500" transform="matrix(1.0, 0.0, 0.0, 1.0, 0.0, 0.0)" width="84.3" xlink:href="#sprite8"/>
      <use ffdec:characterId="89" height="62.1" transform="matrix(1.0, 0.0, 0.0, 1.0, -0.9, -0.9)" width="86.1" xlink:href="#shape8"/>
      <use ffdec:characterId="425" height="21.85" id="mc300" transform="matrix(1.0, 0.0, 0.0, 1.0, 14.25, 24.75)" width="55.65" xlink:href="#sprite9"/>
      <use ffdec:characterId="91" height="23.75" transform="matrix(1.0, 0.0, 0.0, 1.0, 13.35, 23.85)" width="58.05" xlink:href="#shape10"/>
      <use ffdec:characterId="426" height="25.45" id="mc100" transform="matrix(1.0, 0.0, 0.0, 1.0, 31.65, 21.2)" width="23.15" xlink:href="#sprite10"/>
      <use ffdec:characterId="93" height="27.25" transform="matrix(1.0, 0.0, 0.0, 1.0, 30.75, 20.3)" width="24.95" xlink:href="#shape12"/>
    </g>
    <g id="sprite8" transform="matrix(1.0, 0.0, 0.0, 1.0, 42.15, 30.15)">
      <use ffdec:characterId="49" height="60.3" transform="matrix(1.0, 0.0, 0.0, 1.0, -42.15, -30.15)" width="84.3" xlink:href="#shape7"/>
    </g>
    <g id="shape7" transform="matrix(1.0, 0.0, 0.0, 1.0, 42.15, 30.15)">
      <path d="M4.2 -29.65 L15.7 -29.25 18.0 -28.4 Q27.65 -24.7 34.25 -17.9 37.9 -12.85 32.2 -12.45 L31.8 -12.45 18.9 -12.65 Q27.0 2.45 28.2 16.35 L28.2 16.5 29.2 17.1 Q37.4 22.15 42.15 27.8 -1.2 32.45 -42.15 27.95 -38.1 23.0 -32.0 19.1 -30.15 17.85 -28.15 16.8 L-28.0 16.7 -27.9 16.45 Q-20.05 -21.35 3.3 -29.45 L4.2 -29.65" fill="#1a0000" fill-rule="evenodd" stroke="none"/>
    </g>
    <g id="shape8" transform="matrix(1.0, 0.0, 0.0, 1.0, 0.9, 0.9)">
      <path d="M60.15 1.75 L57.85 0.9 59.45 1.45 60.15 1.75" fill="#000000" fill-rule="evenodd" stroke="none"/>
      <path d="M48.0 17.3 L61.05 17.5 73.95 17.7 74.35 17.7 Q80.05 17.3 76.4 12.25 69.8 5.45 60.15 1.75 L59.45 1.45 57.85 0.9 Q52.7 -0.7 46.35 0.5 L45.45 0.7 Q22.1 8.8 14.25 46.6 L14.15 46.85 14.0 46.95 10.15 49.25 Q4.05 53.15 0.0 58.1 40.95 62.6 84.3 57.95 79.55 52.3 71.35 47.25 L70.35 46.65 70.35 46.5 Q69.15 32.6 61.05 17.5 M14.25 46.6 L14.0 46.95" fill="none" stroke="#000000" stroke-linecap="round" stroke-linejoin="round" stroke-width="1.8"/>
    </g>
    <g id="sprite9" transform="matrix(1.0, 0.0, 0.0, 1.0, 27.8, 10.9)">
      <use ffdec:characterId="52" height="21.85" transform="matrix(1.0, 0.0, 0.0, 1.0, -27.8, -10.9)" width="55.65" xlink:href="#shape9"/>
    </g>
    <g id="shape9" transform="matrix(1.0, 0.0, 0.0, 1.0, 27.8, 10.9)">
      <path d="M-11.05 -0.4 Q-11.05 -1.25 -11.65 -1.85 -12.25 -2.45 -13.1 -2.45 -13.95 -2.45 -14.55 -1.85 -15.15 -1.25 -15.15 -0.4 -15.15 0.45 -14.55 1.05 -13.95 1.65 -13.1 1.65 -12.25 1.65 -11.65 1.05 -11.05 0.45 -11.05 -0.4 M4.5 -3.2 Q3.9 -3.8 3.05 -3.8 2.2 -3.8 1.6 -3.2 1.0 -2.6 1.0 -1.75 1.0 -0.9 1.6 -0.3 2.2 0.3 3.05 0.3 3.9 0.3 4.5 -0.3 5.1 -0.9 5.1 -1.75 5.1 -2.6 4.5 -3.2 M11.6 -9.4 Q14.9 -9.7 17.0 -7.55 21.1 -5.8 25.1 -3.1 L25.3 -2.7 Q27.6 3.3 27.85 10.95 19.6 9.35 11.2 8.75 L11.1 8.75 10.85 8.75 Q-8.0 7.4 -27.8 10.85 L-24.65 -1.6 Q-12.0 -11.4 0.4 -10.85 6.1 -10.9 11.6 -9.4" fill="#ff0000" fill-rule="evenodd" stroke="none"/>
    </g>
    <g id="shape10" transform="matrix(1.0, 0.0, 0.0, 1.0, -13.35, -23.85)">
      <path d="M53.65 26.25 Q48.15 24.75 42.45 24.8 30.05 24.25 17.4 34.05 L14.25 46.5 Q34.05 43.05 52.9 44.4 L53.15 44.4 53.25 44.4 Q59.9 44.7 61.3 35.5 61.2 30.4 59.05 28.1 56.95 25.95 53.65 26.25 M46.55 35.35 Q45.95 35.95 45.1 35.95 44.25 35.95 43.65 35.35 43.05 34.75 43.05 33.9 43.05 33.05 43.65 32.45 44.25 31.85 45.1 31.85 45.95 31.85 46.55 32.45 47.15 33.05 47.15 33.9 47.15 34.75 46.55 35.35 M52.25 45.0 L52.9 44.4 M53.25 44.4 Q61.65 45.0 69.9 46.6 69.65 38.95 67.35 32.95 L67.15 32.55 Q63.15 29.85 59.05 28.1 M70.5 46.7 L69.9 46.6 M17.4 34.05 L17.65 33.05 M31.0 35.25 Q31.0 36.1 30.4 36.7 29.8 37.3 28.95 37.3 28.1 37.3 27.5 36.7 26.9 36.1 26.9 35.25 26.9 34.4 27.5 33.8 28.1 33.2 28.95 33.2 29.8 33.2 30.4 33.8 31.0 34.4 31.0 35.25 Z" fill="none" stroke="#000000" stroke-linecap="round" stroke-linejoin="round" stroke-width="1.8"/>
    </g>
    <g id="sprite10" transform="matrix(1.0, 0.0, 0.0, 1.0, 11.55, 12.7)">
      <use ffdec:characterId="55" height="25.45" transform="matrix(1.0, 0.0, 0.0, 1.0, -11.55, -12.7)" width="23.15" xlink:href="#shape11"/>
    </g>
    <g id="shape11" transform="matrix(1.0, 0.0, 0.0, 1.0, 11.55, 12.7)">
      <path d="M-7.35 -9.3 L-7.4 -7.95 Q-7.9 1.15 -6.85 9.45 L-6.75 10.2 -9.45 10.95 Q-13.0 0.45 -10.55 -10.0 L-7.25 -10.25 -7.3 -9.7 -7.35 -9.3 -6.9 -9.65 Q-3.6 -12.25 3.45 -12.7 L3.65 -12.6 Q7.65 -13.25 9.45 -9.7 14.0 1.5 8.85 11.45 L8.65 12.05 Q-0.3 14.15 -6.15 10.1 L-6.15 9.35 4.3 8.6 Q5.7 1.55 5.15 -4.7 4.4 -8.0 1.55 -8.7 -1.35 -9.75 -7.0 -8.05 L-7.35 -9.3" fill="#333333" fill-rule="evenodd" stroke="none"/>
    </g>
    <g id="shape12" transform="matrix(1.0, 0.0, 0.0, 1.0, -30.75, -20.3)">
      <path d="M33.75 44.85 L36.45 44.1 36.7 45.75 36.3 46.15 33.95 45.4 33.75 44.85" fill="#000000" fill-rule="evenodd" stroke="none"/>
      <path d="M52.05 45.35 Q57.2 35.4 52.65 24.2 50.85 20.65 46.85 21.3 L46.65 21.2 Q39.6 21.65 36.3 24.25 L35.85 24.6 35.8 25.95 36.2 25.85 Q41.85 24.15 44.75 25.2 47.6 25.9 48.35 29.2 48.9 35.45 47.5 42.5 L37.05 43.25 M35.85 24.6 L35.9 24.2 35.95 23.65 32.65 23.9 Q30.2 34.35 33.75 44.85 L33.95 45.4 36.3 46.15 M36.45 44.1 L36.35 43.35 Q35.3 35.05 35.8 25.95 M36.45 44.1 L36.7 45.75 M37.05 44.0 Q42.9 48.05 51.85 45.95" fill="none" stroke="#000000" stroke-linecap="round" stroke-linejoin="round" stroke-width="1.8"/>
    </g>
    <g id="sprite12" transform="matrix(1.0, 0.0, 0.0, 1.0, 0.9, 0.9)">
      <use ffdec:characterId="881" height="16.4" transform="matrix(1.0, 0.0, 0.0, 1.0, 0.0, 0.0)" width="16.4" xlink:href="#shape13"/>
      <use ffdec:characterId="883" height="4.2" id="mc200" transform="matrix(1.0, 0.0, 0.0, 1.0, 4.35, 9.55)" width="7.6" xlink:href="#sprite13"/>
      <use ffdec:characterId="884" height="18.2" transform="matrix(1.0, 0.0, 0.0, 1.0, -0.9, -0.9)" width="18.2" xlink:href="#shape15"/>
    </g>
    <g id="shape13" transform="matrix(1.0, 0.0, 0.0, 1.0, 0.0, 0.0)">
      <path d="M14.0 14.0 Q11.6 16.4 8.2 16.4 4.8 16.4 2.4 14.0 0.0 11.6 0.0 8.2 0.0 4.8 2.4 2.4 4.8 0.0 8.2 0.0 11.6 0.0 14.0 2.4 16.4 4.8 16.4 8.2 16.4 11.6 14.0 14.0" fill="#ffffff" fill-rule="evenodd" stroke="none"/>
    </g>
    <g id="sprite13" transform="matrix(1.0, 0.0, 0.0, 1.0, 3.8, 2.1)">
      <use ffdec:characterId="882" height="4.2" transform="matrix(1.0, 0.0, 0.0, 1.0, -3.8, -2.1)" width="7.6" xlink:href="#shape14"/>
    </g>
    <g id="shape14" transform="matrix(1.0, 0.0, 0.0, 1.0, 3.8, 2.1)">
      <path d="M3.8 -2.1 L3.8 -1.7 Q3.8 -0.1 2.7 1.0 1.6 2.1 0.0 2.1 -1.6 2.1 -2.7 1.0 -3.8 -0.1 -3.8 -1.7 L-3.75 -2.1 -1.95 -2.1 -2.05 -1.4 Q-2.05 -0.6 -1.45 -0.05 -0.95 0.5 -0.1 0.5 0.75 0.5 1.3 -0.05 1.85 -0.6 1.85 -1.4 L1.75 -2.1 3.8 -2.1" fill="#009999" fill-rule="evenodd" stroke="none"/>
    </g>
    <g id="shape15" transform="matrix(1.0, 0.0, 0.0, 1.0, 0.9, 0.9)">
      <path d="M9.9 9.55 L10.0 10.25 Q10.0 11.05 9.45 11.6 8.9 12.15 8.05 12.15 7.2 12.15 6.7 11.6 6.1 11.05 6.1 10.25 L6.2 9.55 9.9 9.55" fill="#000000" fill-rule="evenodd" stroke="none"/>
      <path d="M0.1 9.55 L0.0 8.2 Q0.0 4.8 2.4 2.4 4.8 0.0 8.2 0.0 11.6 0.0 14.0 2.4 16.4 4.8 16.4 8.2 L16.3 9.6 0.1 9.55" fill="#009900" fill-rule="evenodd" stroke="none"/>
      <path d="M0.1 9.55 L0.0 8.2 Q0.0 4.8 2.4 2.4 4.8 0.0 8.2 0.0 11.6 0.0 14.0 2.4 16.4 4.8 16.4 8.2 L16.3 9.6 Q15.9 12.1 14.0 14.0 11.6 16.4 8.2 16.4 4.8 16.4 2.4 14.0 0.5 12.1 0.1 9.55 L16.3 9.6" fill="none" stroke="#000000" stroke-linecap="round" stroke-linejoin="round" stroke-width="1.8"/>
    </g>
  </defs>
</svg>
