<?xml version="1.0" encoding="UTF-8" standalone="no"?>
<svg xmlns:ffdec="https://www.free-decompiler.com/flash" xmlns:xlink="http://www.w3.org/1999/xlink" ffdec:objectType="frame" height="124.75px" width="67.9px" xmlns="http://www.w3.org/2000/svg">
  <g transform="matrix(1.0, 0.0, 0.0, 1.0, 39.15, 121.7)">
    <use ffdec:characterId="67" height="102.2" id="mc100" transform="matrix(1.0, 0.0, 0.0, 1.0, -39.15, -99.15)" width="67.9" xlink:href="#sprite0"/>
    <use ffdec:characterId="68" height="0.0" id="hat" transform="matrix(-1.0, 0.0, 0.0, 1.0, 27.35, -121.7)" width="0.0" xlink:href="#sprite33"/>
  </g>
  <defs>
    <g id="sprite0" transform="matrix(1.0, 0.0, 0.0, 1.0, 39.15, 99.15)">
      <use ffdec:characterId="66" ffdec:characterName="modern_fla.mcl_leftdown_idlecopy_453" height="102.2" id="mc100" transform="matrix(-1.0, 0.0, 0.0, 1.0, 28.75, -99.15)" width="67.9" xlink:href="#sprite1"/>
    </g>
    <g id="sprite1" transform="matrix(1.0, 0.0, 0.0, 1.0, 35.25, 52.55)">
      <use ffdec:characterId="2" height="18.85" id="mc1700" transform="matrix(0.9946, 0.101, -0.101, 0.9946, -14.9134, 27.6517)" width="10.9" xlink:href="#sprite2"/>
      <use ffdec:characterId="6" height="15.35" id="mc1600" transform="matrix(1.0, 0.0, 0.0, 1.0, -16.45, 30.8)" width="10.2" xlink:href="#sprite3"/>
      <use ffdec:characterId="2" height="18.85" id="mc1500" transform="matrix(0.9946, 0.101, -0.101, 0.9946, -6.4134, 29.8017)" width="10.9" xlink:href="#sprite2"/>
      <use ffdec:characterId="10" height="16.1" id="mc1400" transform="matrix(1.0, 0.0, 0.0, 1.0, -11.4, 31.3)" width="15.25" xlink:href="#sprite5"/>
      <use ffdec:characterId="11" height="8.35" transform="matrix(1.0, 0.0, 0.0, 1.0, -6.85, 33.5)" width="10.9" xlink:href="#shape5"/>
      <use ffdec:characterId="17" height="21.3" id="mc1200" transform="matrix(-0.8968, -0.4378, -0.4378, 0.8968, -6.7208, 16.6221)" width="9.75" xlink:href="#sprite7"/>
      <use ffdec:characterId="23" height="24.0" id="mc1100" transform="matrix(1.0, 0.0, 0.0, 1.0, -17.1, 11.9)" width="25.3" xlink:href="#sprite10"/>
      <use ffdec:characterId="30" height="21.3" id="mc1000" transform="matrix(-0.9955, 0.0693, 0.0693, 0.9955, 7.7438, 13.3738)" width="9.75" xlink:href="#sprite13"/>
      <use ffdec:characterId="34" height="16.1" id="mc900" transform="matrix(1.0, 0.0, 0.0, 1.0, 6.25, -0.85)" width="18.55" xlink:href="#sprite17"/>
      <use ffdec:characterId="38" height="52.8" id="mc800" transform="matrix(1.0, 0.0, 0.0, 1.0, -33.75, -36.8)" width="54.6" xlink:href="#sprite19"/>
      <use ffdec:characterId="39" height="3.45" transform="matrix(1.0, 0.0, 0.0, 1.0, -21.6, 8.25)" width="3.85" xlink:href="#shape19"/>
      <use ffdec:characterId="44" height="9.8" id="mc600" transform="matrix(1.0, 0.0, 0.0, 1.0, -28.8, -4.25)" width="6.05" xlink:href="#sprite21"/>
      <use ffdec:characterId="49" height="9.7" id="mc500" transform="matrix(1.0, 0.0, 0.0, 1.0, -12.7, -2.65)" width="12.95" xlink:href="#sprite23"/>
      <use ffdec:characterId="53" height="6.7" id="mc400" transform="matrix(1.0, 0.0, 0.0, 1.0, -30.05, -10.4)" width="7.9" xlink:href="#sprite25"/>
      <use ffdec:characterId="57" height="6.75" id="mc300" transform="matrix(1.0, 0.0, 0.0, 1.0, -13.05, -9.7)" width="14.3" xlink:href="#sprite27"/>
      <use ffdec:characterId="61" height="66.8" id="mc200" transform="matrix(1.0, 0.0, 0.0, 1.0, -35.25, -52.55)" width="67.55" xlink:href="#sprite29"/>
      <use ffdec:characterId="65" height="58.0" id="mc100" transform="matrix(1.0, 0.0, 0.0, 1.0, -9.6, -49.1)" width="42.25" xlink:href="#sprite31"/>
    </g>
    <g id="sprite2" transform="matrix(1.0, 0.0, 0.0, 1.0, 4.95, 9.5)">
      <use ffdec:characterId="1" height="18.85" transform="matrix(1.0, 0.0, 0.0, 1.0, -4.95, -9.5)" width="10.9" xlink:href="#shape0"/>
    </g>
    <g id="shape0" transform="matrix(1.0, 0.0, 0.0, 1.0, 4.95, 9.5)">
      <path d="M5.05 5.55 L5.05 5.7 Q5.15 6.65 3.9 7.45 2.7 8.25 0.95 8.4 -0.8 8.55 -2.15 7.95 -3.45 7.45 -3.55 6.5 L-3.55 6.35 -3.5 6.35 4.7 5.5 5.05 5.55" fill="#000000" fill-rule="evenodd" stroke="none"/>
      <path d="M-3.55 6.1 L-3.65 3.85 -4.05 -6.3 Q-4.1 -7.15 -3.15 -7.75 -2.1 -8.4 -0.55 -8.55 L2.1 -8.25 Q3.15 -7.75 3.3 -7.0 L3.35 -6.85 3.35 -6.65 4.7 3.05 5.05 5.45 4.7 5.5 -3.5 6.35 -3.55 6.1 M-3.65 3.85 L4.7 3.05 -3.65 3.85" fill="#ffffff" fill-rule="evenodd" stroke="none"/>
      <path d="M-3.55 6.1 L-3.65 3.85 -4.05 -6.3 Q-4.1 -7.15 -3.15 -7.75 -2.1 -8.4 -0.55 -8.55 L2.1 -8.25 Q3.15 -7.75 3.3 -7.0 L3.35 -6.85 3.35 -6.65 4.7 3.05 5.05 5.45 5.05 5.55 5.05 5.7 Q5.15 6.65 3.9 7.45 2.7 8.25 0.95 8.4 -0.8 8.55 -2.15 7.95 -3.45 7.45 -3.55 6.5 L-3.55 6.35 -3.55 6.1 M-3.5 6.35 L4.7 5.5 M-3.55 6.35 L-3.5 6.35 M4.7 3.05 L-3.65 3.85" fill="none" stroke="#000000" stroke-linecap="round" stroke-linejoin="round" stroke-width="1.8"/>
    </g>
    <g id="sprite3" transform="matrix(1.0, 0.0, 0.0, 1.0, 1.35, 1.2)">
      <use ffdec:characterId="4" height="13.55" id="mc100" transform="matrix(1.0, 0.0, 0.0, 1.0, -0.45, -0.3)" width="8.4" xlink:href="#sprite4"/>
      <use ffdec:characterId="5" height="15.35" transform="matrix(1.0, 0.0, 0.0, 1.0, -1.35, -1.2)" width="10.2" xlink:href="#shape2"/>
    </g>
    <g id="sprite4" transform="matrix(1.0, 0.0, 0.0, 1.0, 0.0, 0.0)">
      <use ffdec:characterId="3" height="13.55" transform="matrix(1.0, 0.0, 0.0, 1.0, 0.0, 0.0)" width="8.4" xlink:href="#shape1"/>
    </g>
    <g id="shape1" transform="matrix(1.0, 0.0, 0.0, 1.0, 0.0, 0.0)">
      <path d="M0.45 0.0 L8.4 0.1 8.4 13.55 0.45 11.8 Q-0.45 6.0 0.45 0.0" fill="#333333" fill-rule="evenodd" stroke="none"/>
    </g>
    <g id="shape2" transform="matrix(1.0, 0.0, 0.0, 1.0, 1.35, 1.2)">
      <path d="M7.95 -0.2 L7.95 13.25 0.0 11.5 Q-0.9 5.7 0.0 -0.3 L7.95 -0.2 Z" fill="none" stroke="#000000" stroke-linecap="round" stroke-linejoin="round" stroke-width="1.8"/>
    </g>
    <g id="sprite5" transform="matrix(1.0, 0.0, 0.0, 1.0, 0.9, 1.1)">
      <use ffdec:characterId="8" height="14.3" id="mc200" transform="matrix(1.0, 0.0, 0.0, 1.0, 0.0, -0.2)" width="13.45" xlink:href="#sprite6"/>
      <use ffdec:characterId="9" height="16.1" transform="matrix(1.0, 0.0, 0.0, 1.0, -0.9, -1.1)" width="15.25" xlink:href="#shape4"/>
    </g>
    <g id="sprite6" transform="matrix(1.0, 0.0, 0.0, 1.0, 0.0, 0.0)">
      <use ffdec:characterId="7" height="14.3" transform="matrix(1.0, 0.0, 0.0, 1.0, 0.0, 0.0)" width="13.45" xlink:href="#shape3"/>
    </g>
    <g id="shape3" transform="matrix(1.0, 0.0, 0.0, 1.0, 0.0, 0.0)">
      <path d="M13.45 14.3 L3.3 13.2 3.3 9.3 0.0 7.95 0.0 0.0 13.45 0.0 13.45 14.3" fill="#333333" fill-rule="evenodd" stroke="none"/>
    </g>
    <g id="shape4" transform="matrix(1.0, 0.0, 0.0, 1.0, 0.9, 1.1)">
      <path d="M13.45 -0.2 L13.45 14.1 10.45 13.8 10.75 -0.2 13.45 -0.2" fill="#595959" fill-opacity="0.49803922" fill-rule="evenodd" stroke="none"/>
      <path d="M13.45 -0.2 L13.45 14.1 3.3 13.0 3.3 9.1 0.0 7.75 0.0 -0.2 13.45 -0.2 Z" fill="none" stroke="#000000" stroke-linecap="round" stroke-linejoin="round" stroke-width="1.8"/>
    </g>
    <g id="shape5" transform="matrix(1.0, 0.0, 0.0, 1.0, 0.9, 0.9)">
      <path d="M9.1 5.8 Q1.3 8.75 0.0 0.0" fill="none" stroke="#000000" stroke-linecap="round" stroke-linejoin="round" stroke-width="1.8"/>
    </g>
    <g id="sprite7" transform="matrix(1.0, 0.0, 0.0, 1.0, 4.05, 12.1)">
      <use ffdec:characterId="13" height="3.9" id="mc200" transform="matrix(1.0, 0.0, 0.0, 1.0, -3.15, 4.4)" width="7.1" xlink:href="#sprite8"/>
      <use ffdec:characterId="15" height="15.5" id="mc100" transform="matrix(1.0, 0.0, 0.0, 1.0, -2.7, -11.2)" width="7.5" xlink:href="#sprite9"/>
      <use ffdec:characterId="16" height="21.3" transform="matrix(1.0, 0.0, 0.0, 1.0, -4.05, -12.1)" width="9.75" xlink:href="#shape8"/>
    </g>
    <g id="sprite8" transform="matrix(1.0, 0.0, 0.0, 1.0, 0.0, 0.0)">
      <use ffdec:characterId="12" height="3.9" transform="matrix(1.0, 0.0, 0.0, 1.0, 0.0, 0.0)" width="7.1" xlink:href="#shape6"/>
    </g>
    <g id="shape6" transform="matrix(1.0, 0.0, 0.0, 1.0, 0.0, 0.0)">
      <path d="M0.25 0.0 L7.1 1.95 7.05 2.05 6.25 3.1 Q4.9 4.05 3.3 3.9 1.55 3.6 0.6 2.3 -0.1 1.35 0.0 0.05 L0.05 0.0 0.25 0.0" fill="#996633" fill-rule="evenodd" stroke="none"/>
    </g>
    <g id="sprite9" transform="matrix(1.0, 0.0, 0.0, 1.0, 0.0, 0.0)">
      <use ffdec:characterId="14" height="15.5" transform="matrix(1.0, 0.0, 0.0, 1.0, 0.0, 0.0)" width="7.5" xlink:href="#shape7"/>
    </g>
    <g id="shape7" transform="matrix(1.0, 0.0, 0.0, 1.0, 0.0, 0.0)">
      <path d="M0.95 8.6 Q2.55 1.8 3.45 0.9 L4.15 0.3 4.7 0.1 4.9 0.05 5.4 0.05 Q5.95 0.15 6.4 0.55 L7.05 1.35 Q7.65 2.5 7.45 9.55 L7.15 15.5 0.45 13.3 0.0 13.2 0.95 8.6" fill="#ff3300" fill-rule="evenodd" stroke="none"/>
    </g>
    <g id="shape8" transform="matrix(1.0, 0.0, 0.0, 1.0, 4.05, 12.1)">
      <path d="M-2.7 2.05 L-2.25 2.1 4.45 4.3 4.4 4.65 3.95 6.35 3.65 6.25 -2.9 4.4 -3.1 4.4 -3.1 3.65 -2.7 2.05" fill="#000000" fill-rule="evenodd" stroke="none"/>
      <path d="M4.45 4.3 L4.75 -1.65 Q4.95 -8.7 4.35 -9.85 L3.7 -10.65 2.7 -11.15 2.2 -11.15 2.0 -11.1 1.45 -10.9 0.75 -10.3 Q-0.15 -9.4 -1.75 -2.6 L-2.7 2.0 -2.7 2.05 -3.1 3.65 -3.1 4.4 -3.15 4.45 Q-3.25 5.75 -2.55 6.7 -1.6 8.0 0.15 8.3 1.75 8.45 3.1 7.5 L3.9 6.45 3.95 6.35 4.4 4.65 4.45 4.3" fill="none" stroke="#000000" stroke-linecap="round" stroke-linejoin="round" stroke-width="1.8"/>
      <path d="M-2.25 2.1 L4.45 4.3 M-2.9 4.4 L3.65 6.25" fill="none" stroke="#000000" stroke-linecap="round" stroke-linejoin="round" stroke-width="1.5"/>
    </g>
    <g id="sprite10" transform="matrix(1.0, 0.0, 0.0, 1.0, 0.9, 0.9)">
      <use ffdec:characterId="19" height="5.15" id="mc200" transform="matrix(1.0, 0.0, 0.0, 1.0, 2.35, 0.0)" width="16.9" xlink:href="#sprite11"/>
      <use ffdec:characterId="21" height="18.95" id="mc100" transform="matrix(1.0, 0.0, 0.0, 1.0, 0.3, 1.25)" width="22.85" xlink:href="#sprite12"/>
      <use ffdec:characterId="22" height="24.0" transform="matrix(1.0, 0.0, 0.0, 1.0, -0.9, -0.9)" width="25.3" xlink:href="#shape11"/>
    </g>
    <g id="sprite11" transform="matrix(1.0, 0.0, 0.0, 1.0, 0.0, 0.0)">
      <use ffdec:characterId="18" height="5.15" transform="matrix(1.0, 0.0, 0.0, 1.0, 0.0, 0.0)" width="16.9" xlink:href="#shape9"/>
    </g>
    <g id="shape9" transform="matrix(1.0, 0.0, 0.0, 1.0, 0.0, 0.0)">
      <path d="M16.9 1.25 Q13.8 4.85 9.1 5.15 L6.4 5.1 5.5 5.0 5.35 4.95 4.2 4.75 Q2.05 4.3 0.0 3.3 L0.45 0.0 16.55 0.0 16.9 1.25" fill="#666600" fill-rule="evenodd" stroke="none"/>
    </g>
    <g id="sprite12" transform="matrix(1.0, 0.0, 0.0, 1.0, 0.0, 0.0)">
      <use ffdec:characterId="20" height="18.95" transform="matrix(1.0, 0.0, 0.0, 1.0, 0.0, 0.0)" width="22.85" xlink:href="#shape10"/>
    </g>
    <g id="shape10" transform="matrix(1.0, 0.0, 0.0, 1.0, 0.0, 0.0)">
      <path d="M18.95 0.0 L22.85 15.25 Q15.15 19.8 7.0 18.75 L5.85 18.6 4.7 18.35 0.0 17.0 2.05 2.05 Q4.1 3.05 6.25 3.5 L7.4 3.7 7.55 3.75 8.45 3.85 11.15 3.9 Q15.85 3.6 18.95 0.0" fill="#ff3300" fill-rule="evenodd" stroke="none"/>
    </g>
    <g id="shape11" transform="matrix(1.0, 0.0, 0.0, 1.0, 0.9, 0.9)">
      <path d="M23.15 16.5 L23.5 17.95 Q17.0 25.05 0.0 20.3 L0.3 18.25 Q2.55 19.1 5.0 19.6 L6.15 19.85 7.3 20.0 Q15.45 21.05 23.15 16.5" fill="#000000" fill-rule="evenodd" stroke="none"/>
      <path d="M23.15 16.5 L23.5 17.95 Q17.0 25.05 0.0 20.3 L0.3 18.25 2.35 3.3 2.8 0.0 18.9 0.0 19.25 1.25 23.15 16.5 Q15.45 21.05 7.3 20.0 L6.15 19.85 5.0 19.6 Q2.55 19.1 0.3 18.25 M2.35 3.3 Q4.4 4.3 6.55 4.75 L7.7 4.95 7.85 5.0 8.75 5.1 11.45 5.15 Q16.15 4.85 19.25 1.25 M6.15 19.85 Q6.2 12.3 7.7 4.95" fill="none" stroke="#000000" stroke-linecap="round" stroke-linejoin="round" stroke-width="1.8"/>
    </g>
    <g id="sprite13" transform="matrix(1.0, 0.0, 0.0, 1.0, 4.05, 12.1)">
      <use ffdec:characterId="25" height="14.55" id="mc300" transform="matrix(1.0, 0.0, 0.0, 1.0, -0.1, -11.15)" width="3.8" xlink:href="#sprite14"/>
      <use ffdec:characterId="26" height="3.9" id="mc200" transform="matrix(1.0, 0.0, 0.0, 1.0, -3.15, 4.4)" width="7.1" xlink:href="#sprite15"/>
      <use ffdec:characterId="28" height="15.2" id="mc100" transform="matrix(1.0, 0.0, 0.0, 1.0, -2.7, -10.9)" width="7.5" xlink:href="#sprite16"/>
      <use ffdec:characterId="29" height="21.3" transform="matrix(1.0, 0.0, 0.0, 1.0, -4.05, -12.1)" width="9.75" xlink:href="#shape14"/>
    </g>
    <g id="sprite14" transform="matrix(1.0, 0.0, 0.0, 1.0, 0.0, 0.0)">
      <use ffdec:characterId="24" height="14.55" transform="matrix(1.0, 0.0, 0.0, 1.0, 0.0, 0.0)" width="3.8" xlink:href="#shape12"/>
    </g>
    <g id="shape12" transform="matrix(1.0, 0.0, 0.0, 1.0, 0.0, 0.0)">
      <path d="M0.0 13.95 L1.8 0.75 1.55 0.25 2.1 0.05 2.35 0.55 2.8 0.0 Q3.35 0.1 3.8 0.5 L1.7 14.55 0.0 13.95" fill="#666600" fill-rule="evenodd" stroke="none"/>
    </g>
    <g id="sprite15" transform="matrix(1.0, 0.0, 0.0, 1.0, 0.0, 0.0)">
      <use ffdec:characterId="12" height="3.9" transform="matrix(1.0, 0.0, 0.0, 1.0, 0.0, 0.0)" width="7.1" xlink:href="#shape6"/>
    </g>
    <g id="sprite16" transform="matrix(1.0, 0.0, 0.0, 1.0, 0.0, 0.0)">
      <use ffdec:characterId="27" height="15.2" transform="matrix(1.0, 0.0, 0.0, 1.0, 0.0, 0.0)" width="7.5" xlink:href="#shape13"/>
    </g>
    <g id="shape13" transform="matrix(1.0, 0.0, 0.0, 1.0, 0.0, 0.0)">
      <path d="M0.95 8.3 Q2.55 1.5 3.45 0.6 L4.15 0.0 4.4 0.5 2.6 13.7 0.45 13.0 0.0 12.9 0.95 8.3 M6.4 0.25 L7.05 1.05 Q7.65 2.2 7.45 9.25 L7.15 15.2 4.3 14.3 6.4 0.25" fill="#ff3300" fill-rule="evenodd" stroke="none"/>
    </g>
    <g id="shape14" transform="matrix(1.0, 0.0, 0.0, 1.0, 4.05, 12.1)">
      <path d="M-2.7 2.05 L-2.25 2.1 4.45 4.3 4.4 4.65 3.95 6.35 3.65 6.25 -2.9 4.4 -3.1 4.4 -3.1 3.65 -2.7 2.05" fill="#000000" fill-rule="evenodd" stroke="none"/>
      <path d="M4.45 4.3 L4.75 -1.65 Q4.95 -8.7 4.35 -9.85 L3.7 -10.65 2.7 -11.15 2.2 -11.15 2.0 -11.1 1.45 -10.9 0.75 -10.3 Q-0.15 -9.4 -1.75 -2.6 L-2.7 2.0 -2.7 2.05 -3.1 3.65 -3.1 4.4 -3.15 4.45 Q-3.25 5.75 -2.55 6.7 -1.6 8.0 0.15 8.3 1.75 8.45 3.1 7.5 L3.9 6.45 3.95 6.35 4.4 4.65 4.45 4.3" fill="none" stroke="#000000" stroke-linecap="round" stroke-linejoin="round" stroke-width="1.8"/>
      <path d="M-2.25 2.1 L4.45 4.3 M-2.9 4.4 L3.65 6.25" fill="none" stroke="#000000" stroke-linecap="round" stroke-linejoin="round" stroke-width="1.5"/>
    </g>
    <g id="sprite17" transform="matrix(1.0, 0.0, 0.0, 1.0, 0.9, 0.9)">
      <use ffdec:characterId="32" height="14.3" id="mc100" transform="matrix(1.0, 0.0, 0.0, 1.0, 0.0, 0.0)" width="16.75" xlink:href="#sprite18"/>
      <use ffdec:characterId="33" height="16.1" transform="matrix(1.0, 0.0, 0.0, 1.0, -0.9, -0.9)" width="18.55" xlink:href="#shape16"/>
    </g>
    <g id="sprite18" transform="matrix(1.0, 0.0, 0.0, 1.0, 0.0, 0.0)">
      <use ffdec:characterId="31" height="14.3" transform="matrix(1.0, 0.0, 0.0, 1.0, 0.0, 0.0)" width="16.75" xlink:href="#shape15"/>
    </g>
    <g id="shape15" transform="matrix(1.0, 0.0, 0.0, 1.0, 0.0, 0.0)">
      <path d="M4.65 0.0 L16.75 9.55 10.5 9.55 7.95 14.3 0.0 10.4 4.65 0.0" fill="#663300" fill-rule="evenodd" stroke="none"/>
    </g>
    <g id="shape16" transform="matrix(1.0, 0.0, 0.0, 1.0, 0.9, 0.9)">
      <path d="M16.75 9.55 L10.5 9.55 7.95 14.3 0.0 10.4 4.65 0.0 16.75 9.55 Z" fill="none" stroke="#000000" stroke-linecap="round" stroke-linejoin="round" stroke-width="1.8"/>
    </g>
    <g id="sprite19" transform="matrix(1.0, 0.0, 0.0, 1.0, 0.9, 0.9)">
      <use ffdec:characterId="36" height="51.0" id="mc100" transform="matrix(1.0, 0.0, 0.0, 1.0, 0.0, 0.0)" width="52.8" xlink:href="#sprite20"/>
      <use ffdec:characterId="37" height="52.8" transform="matrix(1.0, 0.0, 0.0, 1.0, -0.9, -0.9)" width="54.6" xlink:href="#shape18"/>
    </g>
    <g id="sprite20" transform="matrix(1.0, 0.0, 0.0, 1.0, 0.0, 0.0)">
      <use ffdec:characterId="35" height="51.0" transform="matrix(1.0, 0.0, 0.0, 1.0, 0.0, 0.0)" width="52.8" xlink:href="#shape17"/>
    </g>
    <g id="shape17" transform="matrix(1.0, 0.0, 0.0, 1.0, 0.0, 0.0)">
      <path d="M47.3 43.3 Q23.35 58.3 3.4 44.05 L5.0 41.2 Q3.55 32.75 0.0 24.9 L0.35 15.2 17.7 0.0 52.8 16.65 47.3 43.3" fill="#996633" fill-rule="evenodd" stroke="none"/>
    </g>
    <g id="shape18" transform="matrix(1.0, 0.0, 0.0, 1.0, 0.9, 0.9)">
      <path d="M47.3 43.3 Q23.35 58.3 3.4 44.05 L5.0 41.2 Q3.55 32.75 0.0 24.9 L0.35 15.2 17.7 0.0 52.8 16.65 47.3 43.3 Z" fill="none" stroke="#000000" stroke-linecap="round" stroke-linejoin="round" stroke-width="1.8"/>
    </g>
    <g id="shape19" transform="matrix(1.0, 0.0, 0.0, 1.0, 21.6, -8.25)">
      <path d="M-19.85 11.65 Q-21.8 10.7 -21.55 8.25 L-17.75 8.9 Q-18.35 11.95 -19.85 11.65" fill="#000000" fill-rule="evenodd" stroke="none"/>
    </g>
    <g id="sprite21" transform="matrix(1.0, 0.0, 0.0, 1.0, 0.75, 0.75)">
      <use ffdec:characterId="40" height="8.3" transform="matrix(1.0, 0.0, 0.0, 1.0, 0.0, 0.0)" width="4.55" xlink:href="#shape20"/>
      <use ffdec:characterId="42" height="3.95" id="mc100" transform="matrix(1.0, 0.0, 0.0, 1.0, 1.3, 0.65)" width="3.6" xlink:href="#sprite22"/>
      <use ffdec:characterId="43" height="9.8" transform="matrix(1.0, 0.0, 0.0, 1.0, -0.75, -0.75)" width="6.05" xlink:href="#shape22"/>
    </g>
    <g id="shape20" transform="matrix(1.0, 0.0, 0.0, 1.0, 0.0, 0.0)">
      <path d="M3.05 8.3 Q0.4 8.0 0.0 0.0 L4.55 1.05 Q4.7 5.65 3.05 8.3" fill="#ffffff" fill-rule="evenodd" stroke="none"/>
    </g>
    <g id="sprite22" transform="matrix(1.0, 0.0, 0.0, 1.0, 0.0, 0.0)">
      <use ffdec:characterId="41" height="3.95" transform="matrix(1.0, 0.0, 0.0, 1.0, 0.0, 0.0)" width="3.6" xlink:href="#shape21"/>
    </g>
    <g id="shape21" transform="matrix(1.0, 0.0, 0.0, 1.0, 0.0, 0.0)">
      <path d="M1.8 3.95 Q1.05 3.95 0.5 3.2 0.0 2.5 0.0 1.4 0.0 0.6 0.3 0.0 L3.3 0.0 3.6 1.4 Q3.6 2.5 3.05 3.2 2.55 3.95 1.8 3.95" fill="#009933" fill-rule="evenodd" stroke="none"/>
    </g>
    <g id="shape22" transform="matrix(1.0, 0.0, 0.0, 1.0, 0.75, 0.75)">
      <path d="M3.05 8.3 Q0.4 8.0 0.0 0.0 L4.55 1.05 Q4.7 5.65 3.05 8.3 Z" fill="none" stroke="#000000" stroke-linecap="round" stroke-linejoin="round" stroke-width="1.5"/>
    </g>
    <g id="sprite23" transform="matrix(1.0, 0.0, 0.0, 1.0, 0.7, 0.75)">
      <use ffdec:characterId="45" height="8.2" transform="matrix(1.0, 0.0, 0.0, 1.0, 0.05, 0.0)" width="11.45" xlink:href="#shape23"/>
      <use ffdec:characterId="47" height="4.95" id="mc100" transform="matrix(1.0, 0.0, 0.0, 1.0, 3.0, -0.15)" width="5.0" xlink:href="#sprite24"/>
      <use ffdec:characterId="48" height="9.7" transform="matrix(1.0, 0.0, 0.0, 1.0, -0.7, -0.75)" width="12.95" xlink:href="#shape25"/>
    </g>
    <g id="shape23" transform="matrix(1.0, 0.0, 0.0, 1.0, -0.05, 0.0)">
      <path d="M0.1 0.0 L11.45 0.3 Q11.9 6.15 5.55 8.2 -0.6 7.25 0.1 0.0" fill="#ffffff" fill-rule="evenodd" stroke="none"/>
    </g>
    <g id="sprite24" transform="matrix(1.0, 0.0, 0.0, 1.0, 0.0, 0.0)">
      <use ffdec:characterId="46" height="4.95" transform="matrix(1.0, 0.0, 0.0, 1.0, 0.0, 0.0)" width="5.0" xlink:href="#shape24"/>
    </g>
    <g id="shape24" transform="matrix(1.0, 0.0, 0.0, 1.0, 0.0, 0.0)">
      <path d="M4.35 0.0 Q5.0 0.8 5.0 1.95 5.0 3.2 4.25 4.05 3.5 4.95 2.5 4.95 1.45 4.95 0.7 4.05 0.0 3.2 0.0 1.95 0.0 1.05 0.4 0.35 L4.35 0.35 4.35 0.0" fill="#009933" fill-rule="evenodd" stroke="none"/>
    </g>
    <g id="shape25" transform="matrix(1.0, 0.0, 0.0, 1.0, 0.7, 0.75)">
      <path d="M5.55 8.2 Q11.9 6.15 11.45 0.3 L0.1 0.0 Q-0.6 7.25 5.55 8.2 Z" fill="none" stroke="#000000" stroke-linecap="round" stroke-linejoin="round" stroke-width="1.5"/>
    </g>
    <g id="sprite25" transform="matrix(1.0, 0.0, 0.0, 1.0, 0.75, 0.75)">
      <use ffdec:characterId="51" height="5.2" id="mc100" transform="matrix(1.0, 0.0, 0.0, 1.0, 0.0, 0.0)" width="6.4" xlink:href="#sprite26"/>
      <use ffdec:characterId="52" height="6.7" transform="matrix(1.0, 0.0, 0.0, 1.0, -0.75, -0.75)" width="7.9" xlink:href="#shape27"/>
    </g>
    <g id="sprite26" transform="matrix(1.0, 0.0, 0.0, 1.0, 0.0, 0.0)">
      <use ffdec:characterId="50" height="5.2" transform="matrix(1.0, 0.0, 0.0, 1.0, 0.0, 0.0)" width="6.4" xlink:href="#shape26"/>
    </g>
    <g id="shape26" transform="matrix(1.0, 0.0, 0.0, 1.0, 0.0, 0.0)">
      <path d="M3.15 0.0 Q6.35 1.5 6.4 5.2 L0.2 4.05 Q-0.85 -0.3 3.15 0.0" fill="#663300" fill-rule="evenodd" stroke="none"/>
    </g>
    <g id="shape27" transform="matrix(1.0, 0.0, 0.0, 1.0, 0.75, 0.75)">
      <path d="M3.15 0.0 Q-0.85 -0.3 0.2 4.05 L6.4 5.2 Q6.35 1.5 3.15 0.0 Z" fill="none" stroke="#000000" stroke-linecap="round" stroke-linejoin="round" stroke-width="1.5"/>
    </g>
    <g id="sprite27" transform="matrix(1.0, 0.0, 0.0, 1.0, 0.75, 0.75)">
      <use ffdec:characterId="55" height="5.25" id="mc100" transform="matrix(1.0, 0.0, 0.0, 1.0, 0.0, 0.0)" width="12.8" xlink:href="#sprite28"/>
      <use ffdec:characterId="56" height="6.75" transform="matrix(1.0, 0.0, 0.0, 1.0, -0.75, -0.75)" width="14.3" xlink:href="#shape29"/>
    </g>
    <g id="sprite28" transform="matrix(1.0, 0.0, 0.0, 1.0, 0.0, 0.0)">
      <use ffdec:characterId="54" height="5.25" transform="matrix(1.0, 0.0, 0.0, 1.0, 0.0, 0.0)" width="12.8" xlink:href="#shape28"/>
    </g>
    <g id="shape28" transform="matrix(1.0, 0.0, 0.0, 1.0, 0.0, 0.0)">
      <path d="M7.2 0.0 Q13.3 0.85 12.75 5.25 L0.0 5.25 Q0.1 0.05 7.2 0.0" fill="#663300" fill-rule="evenodd" stroke="none"/>
    </g>
    <g id="shape29" transform="matrix(1.0, 0.0, 0.0, 1.0, 0.75, 0.75)">
      <path d="M7.2 0.0 Q0.1 0.05 0.0 5.25 L12.75 5.25 Q13.3 0.85 7.2 0.0 Z" fill="none" stroke="#000000" stroke-linecap="round" stroke-linejoin="round" stroke-width="1.5"/>
    </g>
    <g id="sprite29" transform="matrix(1.0, 0.0, 0.0, 1.0, 0.9, 0.9)">
      <use ffdec:characterId="59" height="65.0" id="mc100" transform="matrix(1.0, 0.0, 0.0, 1.0, 0.0, 0.0)" width="65.75" xlink:href="#sprite30"/>
      <use ffdec:characterId="60" height="66.8" transform="matrix(1.0, 0.0, 0.0, 1.0, -0.9, -0.9)" width="67.55" xlink:href="#shape31"/>
    </g>
    <g id="sprite30" transform="matrix(1.0, 0.0, 0.0, 1.0, 0.0, 0.0)">
      <use ffdec:characterId="58" height="65.0" transform="matrix(1.0, 0.0, 0.0, 1.0, 0.0, 0.0)" width="65.75" xlink:href="#shape30"/>
    </g>
    <g id="shape30" transform="matrix(1.0, 0.0, 0.0, 1.0, 0.0, 0.0)">
      <path d="M49.3 6.6 Q61.05 11.2 64.15 21.45 66.5 29.45 65.4 38.65 57.4 58.35 37.45 65.0 L34.8 58.35 Q45.15 55.05 47.3 44.75 L38.2 49.6 40.7 39.55 34.4 46.0 34.4 35.8 Q32.6 41.9 28.85 46.0 L19.9 34.9 Q18.1 42.0 19.2 48.5 13.05 41.85 8.65 34.0 L8.25 41.35 3.6 33.3 2.2 43.15 Q-1.05 37.55 0.55 29.55 4.8 9.8 27.8 5.55 33.4 3.85 37.25 4.65 L35.3 0.0 43.4 3.75 46.05 0.15 Q49.35 2.7 49.3 6.6" fill="#663300" fill-rule="evenodd" stroke="none"/>
    </g>
    <g id="shape31" transform="matrix(1.0, 0.0, 0.0, 1.0, 0.9, 0.9)">
      <path d="M49.3 6.6 Q49.35 2.7 46.05 0.15 L43.4 3.75 35.3 0.0 37.25 4.65 Q33.4 3.85 27.8 5.55 4.8 9.8 0.55 29.55 -1.05 37.55 2.2 43.15 L3.6 33.3 8.25 41.35 8.65 34.0 Q13.05 41.85 19.2 48.5 18.1 42.0 19.9 34.9 L28.85 46.0 Q32.6 41.9 34.4 35.8 L34.4 46.0 40.7 39.55 38.2 49.6 47.3 44.75 Q45.15 55.05 34.8 58.35 L37.45 65.0 Q57.4 58.35 65.4 38.65 66.5 29.45 64.15 21.45 61.05 11.2 49.3 6.6 Z" fill="none" stroke="#000000" stroke-linecap="round" stroke-linejoin="round" stroke-width="1.8"/>
    </g>
    <g id="sprite31" transform="matrix(1.0, 0.0, 0.0, 1.0, 0.9, 0.9)">
      <use ffdec:characterId="63" height="52.5" id="mc100" transform="matrix(1.0, 0.0, 0.0, 1.0, 0.0, 0.0)" width="40.45" xlink:href="#sprite32"/>
      <use ffdec:characterId="64" height="58.0" transform="matrix(1.0, 0.0, 0.0, 1.0, -0.9, -0.9)" width="42.25" xlink:href="#shape33"/>
    </g>
    <g id="sprite32" transform="matrix(1.0, 0.0, 0.0, 1.0, 0.0, 0.0)">
      <use ffdec:characterId="62" height="52.5" transform="matrix(1.0, 0.0, 0.0, 1.0, 0.0, 0.0)" width="40.45" xlink:href="#shape32"/>
    </g>
    <g id="shape32" transform="matrix(1.0, 0.0, 0.0, 1.0, 0.0, 0.0)">
      <path d="M23.65 23.05 L31.65 22.75 31.65 26.2 Q29.45 25.15 26.85 25.15 L24.15 25.45 24.0 25.0 23.65 23.05 M23.1 20.65 Q18.0 1.0 0.0 2.45 1.4 -0.85 10.55 0.3 16.45 0.75 19.7 3.35 29.55 10.35 31.35 20.35 L23.1 20.65 M38.8 34.4 Q40.45 37.2 40.45 40.8 40.45 44.65 38.55 47.6 L37.4 49.05 Q34.35 52.5 30.0 52.5 25.7 52.5 22.65 49.05 19.6 45.65 19.6 40.8 19.6 35.95 22.65 32.5 25.7 29.1 30.0 29.1 34.35 29.1 37.4 32.5 L38.8 34.4 M38.35 35.15 Q36.3 32.7 33.4 32.7 30.5 32.7 28.45 35.15 26.4 37.65 26.4 41.15 26.4 44.65 28.45 47.1 30.5 49.6 33.4 49.6 36.3 49.6 38.35 47.1 40.4 44.65 40.4 41.15 40.4 37.65 38.35 35.15" fill="#003333" fill-rule="evenodd" stroke="none"/>
    </g>
    <g id="shape33" transform="matrix(1.0, 0.0, 0.0, 1.0, 0.9, 0.9)">
      <path d="M31.35 20.35 L31.65 22.75 23.65 23.05 23.1 20.65 31.35 20.35 M13.8 40.7 Q13.8 34.25 17.65 29.65 20.45 26.3 24.15 25.45 L26.85 25.15 Q29.45 25.15 31.65 26.2 34.05 27.3 36.05 29.65 37.85 31.8 38.8 34.4 L37.4 32.5 Q34.35 29.1 30.0 29.1 25.7 29.1 22.65 32.5 19.6 35.95 19.6 40.8 19.6 45.65 22.65 49.05 25.7 52.5 30.0 52.5 34.35 52.5 37.4 49.05 L38.55 47.6 Q37.6 49.75 36.05 51.6 32.25 56.2 26.85 56.2 21.45 56.2 17.65 51.6 13.8 47.1 13.8 40.7" fill="#333333" fill-rule="evenodd" stroke="none"/>
      <path d="M38.35 35.15 Q40.4 37.65 40.4 41.15 40.4 44.65 38.35 47.1 36.3 49.6 33.4 49.6 30.5 49.6 28.45 47.1 26.4 44.65 26.4 41.15 26.4 37.65 28.45 35.15 30.5 32.7 33.4 32.7 36.3 32.7 38.35 35.15" fill="#000000" fill-rule="evenodd" stroke="none"/>
      <path d="M31.35 20.35 L23.1 20.65 23.65 23.05 31.65 22.75 31.35 20.35 Q29.55 10.35 19.7 3.35 16.45 0.75 10.55 0.3 1.4 -0.85 0.0 2.45 18.0 1.0 23.1 20.65 M13.8 40.7 Q13.8 47.1 17.65 51.6 21.45 56.2 26.85 56.2 32.25 56.2 36.05 51.6 37.6 49.75 38.55 47.6 L37.4 49.05 Q34.35 52.5 30.0 52.5 25.7 52.5 22.65 49.05 19.6 45.65 19.6 40.8 19.6 35.95 22.65 32.5 25.7 29.1 30.0 29.1 34.35 29.1 37.4 32.5 L38.8 34.4 Q37.85 31.8 36.05 29.65 34.05 27.3 31.65 26.2 29.45 25.15 26.85 25.15 L24.15 25.45 Q20.45 26.3 17.65 29.65 13.8 34.25 13.8 40.7 M38.35 35.15 Q40.4 37.65 40.4 41.15 40.4 44.65 38.35 47.1 36.3 49.6 33.4 49.6 30.5 49.6 28.45 47.1 26.4 44.65 26.4 41.15 26.4 37.65 28.45 35.15 30.5 32.7 33.4 32.7 36.3 32.7 38.35 35.15 M38.55 47.6 Q40.45 44.65 40.45 40.8 40.45 37.2 38.8 34.4 M31.65 22.75 L31.65 26.2 M23.65 23.05 L24.0 25.0" fill="none" stroke="#000000" stroke-linecap="round" stroke-linejoin="round" stroke-width="1.8"/>
    </g>
  </defs>
</svg>
