<?xml version="1.0" encoding="UTF-8" standalone="no"?>
<svg xmlns:ffdec="https://www.free-decompiler.com/flash" xmlns:xlink="http://www.w3.org/1999/xlink" ffdec:objectType="frame" height="124.1px" width="77.85px" xmlns="http://www.w3.org/2000/svg">
  <g transform="matrix(1.0, 0.0, 0.0, 1.0, 42.25, 123.15)">
    <use ffdec:characterId="557" height="97.05" id="mc100" transform="matrix(1.0, 0.0, 0.0, 1.0, -42.25, -96.1)" width="72.55" xlink:href="#sprite0"/>
    <use ffdec:characterId="558" height="0.0" id="hat" transform="matrix(-1.0, 0.0, 0.0, 1.0, 35.6, -123.15)" width="0.0" xlink:href="#sprite28"/>
  </g>
  <defs>
    <g id="sprite0" transform="matrix(1.0, 0.0, 0.0, 1.0, 42.25, 96.1)">
      <use ffdec:characterId="556" height="97.05" id="mc100" transform="matrix(1.0, 0.0, 0.0, 1.0, -42.25, -96.1)" width="72.55" xlink:href="#sprite1"/>
    </g>
    <g id="sprite1" transform="matrix(1.0, 0.0, 0.0, 1.0, 41.8, 96.5)">
      <use ffdec:characterId="533" height="21.95" id="mc1300" transform="matrix(1.0, 0.0, 0.0, 1.0, 5.7, -34.6)" width="10.95" xlink:href="#sprite2"/>
      <use ffdec:characterId="535" height="29.85" id="mc1200" transform="matrix(-1.0, 0.0, 0.0, 1.0, -9.2, -50.1)" width="14.15" xlink:href="#sprite7"/>
      <use ffdec:characterId="538" height="18.85" id="mc1100" transform="matrix(-0.9946, 0.101, 0.101, 0.9946, 8.0634, -20.4983)" width="10.9" xlink:href="#sprite9"/>
      <use ffdec:characterId="538" height="18.85" id="mc1000" transform="matrix(-0.9946, 0.101, 0.101, 0.9946, -1.3866, -19.2983)" width="10.9" xlink:href="#sprite9"/>
      <use ffdec:characterId="541" height="11.4" id="mc900" transform="matrix(-1.0, 0.0, 0.0, 1.0, 11.8, -17.7)" width="15.25" xlink:href="#sprite12"/>
      <use ffdec:characterId="541" height="11.4" id="mc800" transform="matrix(1.0, 0.0, 0.0, 1.0, -12.55, -17.7)" width="15.25" xlink:href="#sprite12"/>
      <use ffdec:characterId="545" height="24.1" id="mc700" transform="matrix(-1.0, 0.0, 0.0, 1.0, 14.4, -38.6)" width="31.9" xlink:href="#sprite15"/>
      <use ffdec:characterId="533" height="21.95" id="mc600" transform="matrix(-1.0, 0.0, 0.0, 1.0, -8.7, -34.35)" width="10.95" xlink:href="#sprite2"/>
      <use ffdec:characterId="547" height="8.35" id="mc500" transform="matrix(-1.0, 0.0, 0.0, 1.0, -6.4, -35.5)" width="12.8" xlink:href="#sprite18"/>
      <use ffdec:characterId="549" height="48.4" id="mc400" transform="matrix(-1.0, 0.0, 0.0, 1.0, 29.7, -83.4)" width="63.7" xlink:href="#sprite20"/>
      <use ffdec:characterId="551" height="12.4" id="mc300" transform="matrix(-1.0, 0.0, 0.0, 1.0, 27.9, -58.5)" width="12.4" xlink:href="#sprite22"/>
      <use ffdec:characterId="553" height="13.4" id="mc200" transform="matrix(1.0, 0.0, 0.0, 1.0, -12.5, -57.0)" width="21.05" xlink:href="#sprite24"/>
      <use ffdec:characterId="555" height="63.2" id="mc100" transform="matrix(-1.0, 0.0, 0.0, 1.0, 30.75, -96.5)" width="72.55" xlink:href="#sprite26"/>
    </g>
    <g id="sprite2" transform="matrix(1.0, 0.0, 0.0, 1.0, 1.6, 3.15)">
      <use ffdec:characterId="529" height="9.5" id="mc300" transform="matrix(1.0, 0.0, 0.0, 1.0, -0.7, -2.25)" width="7.1" xlink:href="#sprite3"/>
      <use ffdec:characterId="530" height="6.45" id="mc200" transform="matrix(1.0, 0.0, 0.0, 1.0, 0.4, 11.45)" width="8.05" xlink:href="#sprite4"/>
      <use ffdec:characterId="531" height="7.55" id="mc100" transform="matrix(1.0, 0.0, 0.0, 1.0, -0.35, 5.9)" width="8.2" xlink:href="#sprite5"/>
      <use ffdec:characterId="532" height="21.95" id="mc000" transform="matrix(1.0, 0.0, 0.0, 1.0, -1.6, -3.15)" width="10.95" xlink:href="#sprite6"/>
    </g>
    <g id="sprite3" transform="matrix(1.0, 0.0, 0.0, 1.0, 3.55, 4.75)">
      <use ffdec:characterId="528" height="9.5" transform="matrix(1.0, 0.0, 0.0, 1.0, -3.55, -4.75)" width="7.1" xlink:href="#shape0"/>
    </g>
    <g id="shape0" transform="matrix(1.0, 0.0, 0.0, 1.0, 3.55, 4.75)">
      <path d="M-1.65 -4.7 Q-0.55 -4.9 0.45 -4.05 1.35 -3.15 3.35 3.25 L3.55 3.95 3.05 3.4 -3.2 4.75 Q-3.85 -2.05 -3.3 -3.2 -2.8 -4.45 -1.65 -4.7" fill="#666666" fill-rule="evenodd" stroke="none"/>
    </g>
    <g id="sprite4" transform="matrix(1.0, 0.0, 0.0, 1.0, 4.0, 3.25)">
      <use ffdec:characterId="13" height="6.45" transform="matrix(1.0, 0.0, 0.0, 1.0, -4.0, -3.25)" width="8.05" xlink:href="#shape1"/>
    </g>
    <g id="shape1" transform="matrix(1.0, 0.0, 0.0, 1.0, 4.0, 3.25)">
      <path d="M3.85 -1.8 Q4.4 0.05 3.55 1.35 2.6 2.75 0.85 3.15 -0.85 3.45 -2.25 2.55 -3.6 1.7 -3.8 -0.35 L-4.0 -1.7 Q-0.2 -0.3 3.45 -3.25 L3.65 -2.55 3.85 -1.8" fill="#666666" fill-rule="evenodd" stroke="none"/>
    </g>
    <g id="sprite5" transform="matrix(1.0, 0.0, 0.0, 1.0, 4.1, 3.75)">
      <use ffdec:characterId="15" height="7.55" transform="matrix(1.0, 0.0, 0.0, 1.0, -4.1, -3.75)" width="8.2" xlink:href="#shape2"/>
    </g>
    <g id="shape2" transform="matrix(1.0, 0.0, 0.0, 1.0, 4.1, 3.75)">
      <path d="M2.65 -3.2 L3.55 -0.05 3.8 0.85 4.1 1.8 Q0.45 4.75 -3.35 3.35 L-4.05 -1.85 -4.1 -2.4 2.15 -3.75 2.65 -3.2" fill="#666666" fill-rule="evenodd" stroke="none"/>
    </g>
    <g id="sprite6" transform="matrix(1.0, 0.0, 0.0, 1.0, 5.45, 11.0)">
      <use ffdec:characterId="17" height="21.95" transform="matrix(1.0, 0.0, 0.0, 1.0, -5.45, -11.0)" width="10.95" xlink:href="#shape3"/>
    </g>
    <g id="shape3" transform="matrix(1.0, 0.0, 0.0, 1.0, 5.45, 11.0)">
      <path d="M-0.55 -9.4 Q0.35 -8.5 2.35 -2.1 L2.55 -1.4 3.25 0.95 3.45 1.75 3.7 2.65 4.0 3.55 4.2 4.3 4.4 5.05 Q4.95 6.9 4.1 8.2 3.15 9.6 1.4 10.0 -0.3 10.3 -1.7 9.4 -3.05 8.55 -3.25 6.5 L-3.5 5.15 -4.15 -0.05 -4.2 -0.6 Q-4.85 -7.4 -4.3 -8.55 -3.8 -9.8 -2.65 -10.05 -1.55 -10.25 -0.55 -9.4 M3.25 0.95 L-3.2 2.35 M-3.5 5.15 L-3.45 5.15 Q0.35 6.55 4.0 3.6 L4.0 3.55 M2.05 -1.95 L-4.2 -0.6" fill="none" stroke="#000000" stroke-linecap="round" stroke-linejoin="round" stroke-width="1.8"/>
    </g>
    <g id="sprite7" transform="matrix(1.0, 0.0, 0.0, 1.0, 0.9, 0.9)">
      <use ffdec:characterId="534" height="28.05" id="mc100" transform="matrix(1.0, 0.0, 0.0, 1.0, 0.0, 0.0)" width="12.35" xlink:href="#sprite8"/>
      <use ffdec:characterId="28" height="29.85" transform="matrix(1.0, 0.0, 0.0, 1.0, -0.9, -0.9)" width="14.15" xlink:href="#shape5"/>
    </g>
    <g id="sprite8" transform="matrix(1.0, 0.0, 0.0, 1.0, 6.15, 14.0)">
      <use ffdec:characterId="26" height="28.05" transform="matrix(1.0, 0.0, 0.0, 1.0, -6.15, -14.0)" width="12.35" xlink:href="#shape4"/>
    </g>
    <g id="shape4" transform="matrix(1.0, 0.0, 0.0, 1.0, 6.15, 14.0)">
      <path d="M-2.4 -14.0 L6.2 10.45 -3.0 14.05 -6.15 -12.9 -2.4 -14.0" fill="#666666" fill-rule="evenodd" stroke="none"/>
    </g>
    <g id="shape5" transform="matrix(1.0, 0.0, 0.0, 1.0, 0.9, 0.9)">
      <path d="M12.35 24.45 L3.15 28.05 0.0 1.1 3.75 0.0 12.35 24.45 Z" fill="none" stroke="#000000" stroke-linecap="round" stroke-linejoin="round" stroke-width="1.8"/>
    </g>
    <g id="sprite9" transform="matrix(1.0, 0.0, 0.0, 1.0, 4.95, 9.5)">
      <use ffdec:characterId="536" height="14.95" id="mc100" transform="matrix(1.0, 0.0, 0.0, 1.0, -4.05, -8.6)" width="9.1" xlink:href="#sprite10"/>
      <use ffdec:characterId="537" height="18.85" id="mc000" transform="matrix(1.0, 0.0, 0.0, 1.0, -4.95, -9.5)" width="10.9" xlink:href="#sprite11"/>
    </g>
    <g id="sprite10" transform="matrix(1.0, 0.0, 0.0, 1.0, 4.55, 7.5)">
      <use ffdec:characterId="1" height="14.95" transform="matrix(1.0, 0.0, 0.0, 1.0, -4.55, -7.5)" width="9.1" xlink:href="#shape6"/>
    </g>
    <g id="shape6" transform="matrix(1.0, 0.0, 0.0, 1.0, 4.55, 7.5)">
      <path d="M2.8 -5.9 L2.85 -5.75 2.85 -5.55 4.55 6.55 -4.0 7.45 -4.55 -5.2 Q-4.6 -6.05 -3.65 -6.65 -2.6 -7.3 -1.05 -7.45 L1.6 -7.15 Q2.65 -6.65 2.8 -5.9" fill="#666666" fill-rule="evenodd" stroke="none"/>
    </g>
    <g id="sprite11" transform="matrix(1.0, 0.0, 0.0, 1.0, 5.45, 9.45)">
      <use ffdec:characterId="3" height="18.85" transform="matrix(1.0, 0.0, 0.0, 1.0, -5.45, -9.45)" width="10.9" xlink:href="#shape7"/>
    </g>
    <g id="shape7" transform="matrix(1.0, 0.0, 0.0, 1.0, 5.45, 9.45)">
      <path d="M4.55 5.6 L4.55 5.75 Q4.65 6.7 3.4 7.5 2.2 8.3 0.45 8.45 -1.3 8.6 -2.65 8.0 -3.95 7.5 -4.05 6.55 L-4.05 6.4 -4.0 6.4 4.2 5.55 4.55 5.6" fill="#000000" fill-rule="evenodd" stroke="none"/>
      <path d="M-4.05 6.4 L-4.05 6.15 -4.55 -6.25 Q-4.6 -7.1 -3.65 -7.7 -2.6 -8.35 -1.05 -8.5 L1.6 -8.2 Q2.65 -7.7 2.8 -6.95 L2.85 -6.8 2.85 -6.6 4.55 5.5 4.55 5.6 4.55 5.75 Q4.65 6.7 3.4 7.5 2.2 8.3 0.45 8.45 -1.3 8.6 -2.65 8.0 -3.95 7.5 -4.05 6.55 L-4.05 6.4 -4.0 6.4 4.2 5.55" fill="none" stroke="#000000" stroke-linecap="round" stroke-linejoin="round" stroke-width="1.8"/>
    </g>
    <g id="sprite12" transform="matrix(1.0, 0.0, 0.0, 1.0, 0.95, 1.9)">
      <use ffdec:characterId="539" height="9.6" id="mc100" transform="matrix(1.0, 0.0, 0.0, 1.0, -0.05, -1.0)" width="13.45" xlink:href="#sprite13"/>
      <use ffdec:characterId="540" height="11.4" id="mc000" transform="matrix(1.0, 0.0, 0.0, 1.0, -0.95, -1.9)" width="15.25" xlink:href="#sprite14"/>
    </g>
    <g id="sprite13" transform="matrix(1.0, 0.0, 0.0, 1.0, 6.7, 4.8)">
      <use ffdec:characterId="6" height="9.6" transform="matrix(1.0, 0.0, 0.0, 1.0, -6.7, -4.8)" width="13.45" xlink:href="#shape8"/>
    </g>
    <g id="shape8" transform="matrix(1.0, 0.0, 0.0, 1.0, 6.7, 4.8)">
      <path d="M3.4 2.6 L3.4 4.8 -6.3 4.5 Q-7.0 1.0 -6.4 -4.8 L6.75 -4.8 6.75 2.6 3.4 2.6" fill="#666666" fill-rule="evenodd" stroke="none"/>
    </g>
    <g id="sprite14" transform="matrix(1.0, 0.0, 0.0, 1.0, 7.6, 5.7)">
      <use ffdec:characterId="8" height="11.4" transform="matrix(1.0, 0.0, 0.0, 1.0, -7.6, -5.7)" width="15.25" xlink:href="#shape9"/>
    </g>
    <g id="shape9" transform="matrix(1.0, 0.0, 0.0, 1.0, 7.6, 5.7)">
      <path d="M-6.4 -4.8 Q-7.0 1.0 -6.3 4.5 L3.4 4.8 3.4 2.6 6.75 2.6 6.75 -4.8 -6.4 -4.8 Z" fill="none" stroke="#000000" stroke-linecap="round" stroke-linejoin="round" stroke-width="1.8"/>
    </g>
    <g id="sprite15" transform="matrix(1.0, 0.0, 0.0, 1.0, 0.9, 0.9)">
      <use ffdec:characterId="542" height="22.15" id="mc200" transform="matrix(1.0, 0.0, 0.0, 1.0, 0.45, 0.15)" width="26.9" xlink:href="#sprite16"/>
      <use ffdec:characterId="543" height="15.5" id="mc100" transform="matrix(1.0, 0.0, 0.0, 1.0, 0.0, 0.0)" width="30.1" xlink:href="#sprite17"/>
      <use ffdec:characterId="544" height="24.1" transform="matrix(1.0, 0.0, 0.0, 1.0, -0.9, -0.9)" width="31.9" xlink:href="#shape12"/>
    </g>
    <g id="sprite16" transform="matrix(1.0, 0.0, 0.0, 1.0, 13.45, 11.05)">
      <use ffdec:characterId="42" height="22.15" transform="matrix(1.0, 0.0, 0.0, 1.0, -13.45, -11.05)" width="26.9" xlink:href="#shape10"/>
    </g>
    <g id="shape10" transform="matrix(1.0, 0.0, 0.0, 1.0, 13.45, 11.05)">
      <path d="M7.7 -11.0 Q3.05 -2.5 -2.45 4.2 L12.4 3.5 13.45 8.1 Q3.15 13.55 -13.45 9.15 L-13.05 5.7 -12.6 2.95 -5.0 4.05 -4.95 3.5 -3.2 1.35 -3.15 1.25 Q-7.1 -1.4 -9.6 -6.45 L-8.2 -9.05 Q-6.45 -4.85 -2.7 -1.6 L-1.6 -0.85 -1.55 -0.9 Q1.8 -5.75 4.15 -11.05 L7.7 -11.0" fill="#666666" fill-rule="evenodd" stroke="none"/>
    </g>
    <g id="sprite17" transform="matrix(1.0, 0.0, 0.0, 1.0, 15.05, 7.75)">
      <use ffdec:characterId="44" height="15.5" transform="matrix(1.0, 0.0, 0.0, 1.0, -15.05, -7.75)" width="30.1" xlink:href="#shape11"/>
    </g>
    <g id="shape11" transform="matrix(1.0, 0.0, 0.0, 1.0, 15.05, 7.75)">
      <path d="M15.05 -4.8 L10.05 0.95 9.65 1.1 11.25 6.95 -3.6 7.65 Q1.9 0.95 6.55 -7.55 L7.2 -7.75 7.25 -7.5 15.05 -4.8 M-11.4 -1.5 L-12.1 -1.75 -15.05 -3.5 -10.95 -7.35 -7.0 -7.7 3.0 -7.6 Q0.65 -2.3 -2.7 2.55 L-3.85 1.85 Q-7.6 -1.4 -9.35 -5.6 L-10.75 -3.0 Q-8.25 2.05 -4.3 4.7 L-4.35 4.8 -6.1 6.95 -6.15 7.5 -13.75 6.4 Q-12.95 2.1 -11.4 -1.5" fill="#666666" fill-rule="evenodd" stroke="none"/>
    </g>
    <g id="shape12" transform="matrix(1.0, 0.0, 0.0, 1.0, 0.9, 0.9)">
      <path d="M8.05 0.05 L7.0 0.15 7.1 0.0 8.05 0.05" fill="#1d1d1d" fill-rule="evenodd" stroke="none"/>
      <path d="M22.25 0.0 L22.3 0.25 30.1 2.95 25.1 8.7 M22.3 0.25 L26.3 14.7 26.9 17.2 27.35 19.3 Q17.05 24.75 0.45 20.35 L0.85 16.9 Q1.0 15.5 1.3 14.15 2.1 9.85 3.65 6.25 L4.3 4.75 5.7 2.15 5.75 2.1 7.0 0.15 4.1 0.4 0.0 4.25 2.95 6.0 M4.3 4.75 Q6.8 9.8 10.75 12.45 L12.3 10.35 12.35 10.3 Q15.7 5.45 18.05 0.15 L8.05 0.05 7.0 0.15 7.1 0.0 8.05 0.05 M1.3 14.15 L8.9 15.25 11.45 15.4 Q16.95 8.7 21.6 0.2 L18.05 0.15 M8.95 14.7 L10.7 12.55 10.75 12.45 M11.2 9.6 Q7.45 6.35 5.7 2.15 M26.3 14.7 L11.45 15.4 M26.9 17.2 Q11.8 20.7 0.85 16.9" fill="none" stroke="#000000" stroke-linecap="round" stroke-linejoin="round" stroke-width="1.8"/>
    </g>
    <g id="sprite18" transform="matrix(1.0, 0.0, 0.0, 1.0, 0.9, 0.9)">
      <use ffdec:characterId="546" height="6.55" id="mc100" transform="matrix(1.0, 0.0, 0.0, 1.0, 0.0, 0.0)" width="11.0" xlink:href="#sprite19"/>
      <use ffdec:characterId="50" height="8.35" transform="matrix(1.0, 0.0, 0.0, 1.0, -0.9, -0.9)" width="12.8" xlink:href="#shape14"/>
    </g>
    <g id="sprite19" transform="matrix(1.0, 0.0, 0.0, 1.0, 5.5, 3.25)">
      <use ffdec:characterId="48" height="6.55" transform="matrix(1.0, 0.0, 0.0, 1.0, -5.5, -3.25)" width="11.0" xlink:href="#shape13"/>
    </g>
    <g id="shape13" transform="matrix(1.0, 0.0, 0.0, 1.0, 5.5, 3.25)">
      <path d="M0.95 -3.2 Q5.9 -1.75 5.45 2.15 0.7 -0.75 -5.3 3.3 -6.25 -0.2 -2.25 -2.7 -0.85 -3.45 0.95 -3.2" fill="#666666" fill-rule="evenodd" stroke="none"/>
    </g>
    <g id="shape14" transform="matrix(1.0, 0.0, 0.0, 1.0, 0.9, 0.9)">
      <path d="M0.2 6.55 Q6.2 2.5 10.95 5.4 11.4 1.5 6.45 0.05 4.65 -0.2 3.25 0.55 -0.75 3.05 0.2 6.55 Z" fill="none" stroke="#000000" stroke-linecap="round" stroke-linejoin="round" stroke-width="1.8"/>
    </g>
    <g id="sprite20" transform="matrix(1.0, 0.0, 0.0, 1.0, 31.1, 25.1)">
      <use ffdec:characterId="548" height="46.6" id="mc100" transform="matrix(1.0, 0.0, 0.0, 1.0, -30.2, -24.2)" width="61.9" xlink:href="#sprite21"/>
      <use ffdec:characterId="118" height="48.4" transform="matrix(1.0, 0.0, 0.0, 1.0, -31.1, -25.1)" width="63.7" xlink:href="#shape16"/>
    </g>
    <g id="sprite21" transform="matrix(1.0, 0.0, 0.0, 1.0, 30.95, 23.3)">
      <use ffdec:characterId="116" height="46.6" transform="matrix(1.0, 0.0, 0.0, 1.0, -30.95, -23.3)" width="61.9" xlink:href="#shape15"/>
    </g>
    <g id="shape15" transform="matrix(1.0, 0.0, 0.0, 1.0, 30.95, 23.3)">
      <path d="M21.9 -16.45 Q28.15 -11.8 30.1 -5.85 30.95 -3.1 30.95 0.0 30.95 3.0 30.1 5.8 28.15 11.75 21.9 16.45 12.85 23.25 0.0 23.3 -12.85 23.25 -21.9 16.45 -30.95 9.6 -30.95 0.0 -31.05 -5.55 -28.0 -10.15 -25.8 -13.55 -21.9 -16.45 -13.8 -22.6 -2.6 -23.25 L0.0 -23.3 Q12.85 -23.3 21.9 -16.45" fill="#666666" fill-rule="evenodd" stroke="none"/>
    </g>
    <g id="shape16" transform="matrix(1.0, 0.0, 0.0, 1.0, 31.1, 25.1)">
      <path d="M22.65 -17.35 Q28.9 -12.7 30.85 -6.75 31.7 -4.0 31.7 -0.9 31.7 2.1 30.85 4.9 28.9 10.85 22.65 15.55 13.6 22.35 0.75 22.4 -12.1 22.35 -21.15 15.55 -30.2 8.7 -30.2 -0.9 -30.3 -6.45 -27.25 -11.05 -25.05 -14.45 -21.15 -17.35 -13.05 -23.5 -1.85 -24.15 L0.75 -24.2 Q13.6 -24.2 22.65 -17.35 Z" fill="none" stroke="#000000" stroke-linecap="round" stroke-linejoin="round" stroke-width="1.8"/>
    </g>
    <g id="sprite22" transform="matrix(1.0, 0.0, 0.0, 1.0, 0.9, 0.45)">
      <use ffdec:characterId="152" height="10.6" transform="matrix(1.0, 0.0, 0.0, 1.0, 0.0, 0.45)" width="8.5" xlink:href="#shape17"/>
      <use ffdec:characterId="550" height="6.0" id="mc100" transform="matrix(1.0, 0.0, 0.0, 1.0, 1.85, 1.75)" width="6.2" xlink:href="#sprite23"/>
      <use ffdec:characterId="155" height="12.4" transform="matrix(1.0, 0.0, 0.0, 1.0, -0.9, -0.45)" width="12.4" xlink:href="#shape19"/>
    </g>
    <g id="shape17" transform="matrix(1.0, 0.0, 0.0, 1.0, 0.0, -0.45)">
      <path d="M8.5 9.85 Q5.4 12.3 2.3 9.75 -1.7 5.95 1.2 0.45 7.95 1.25 8.35 9.65 L8.5 9.85" fill="#ffffff" fill-rule="evenodd" stroke="none"/>
    </g>
    <g id="sprite23" transform="matrix(1.0, 0.0, 0.0, 1.0, 3.1, 3.0)">
      <use ffdec:characterId="153" height="6.0" transform="matrix(1.0, 0.0, 0.0, 1.0, -3.1, -3.0)" width="6.2" xlink:href="#shape18"/>
    </g>
    <g id="shape18" transform="matrix(1.0, 0.0, 0.0, 1.0, 3.1, 3.0)">
      <path d="M-1.6 -2.85 L-1.3 -3.0 Q1.4 -1.65 3.1 0.75 2.8 1.9 1.7 2.5 0.6 3.2 -0.7 2.9 -1.95 2.6 -2.6 1.5 -3.3 0.4 -3.0 -0.85 -2.7 -2.15 -1.6 -2.85" fill="#666666" fill-rule="evenodd" stroke="none"/>
    </g>
    <g id="shape19" transform="matrix(1.0, 0.0, 0.0, 1.0, 0.9, 0.45)">
      <path d="M10.6 10.55 L8.6 9.75 8.5 9.85 Q5.4 12.3 2.3 9.75 -1.7 5.95 1.2 0.45 7.95 1.25 8.35 9.65 L8.6 9.75" fill="none" stroke="#000000" stroke-linecap="round" stroke-linejoin="round" stroke-width="1.8"/>
    </g>
    <g id="sprite24" transform="matrix(1.0, 0.0, 0.0, 1.0, 0.9, 1.05)">
      <use ffdec:characterId="147" height="13.25" transform="matrix(1.0, 0.0, 0.0, 1.0, -0.9, -0.9)" width="21.05" xlink:href="#shape20"/>
      <use ffdec:characterId="552" height="6.6" id="mc100" transform="matrix(1.0, 0.0, 0.0, 1.0, 5.5, 1.1)" width="7.4" xlink:href="#sprite25"/>
      <use ffdec:characterId="150" height="12.85" transform="matrix(1.0, 0.0, 0.0, 1.0, -0.9, -1.05)" width="21.05" xlink:href="#shape22"/>
    </g>
    <g id="shape20" transform="matrix(1.0, 0.0, 0.0, 1.0, 0.9, 0.9)">
      <path d="M16.5 8.9 Q12.6 12.0 6.1 10.35 -1.5 7.05 0.35 0.0 L0.35 -0.1 Q12.15 -0.75 16.45 8.85 L16.5 8.9" fill="#ffffff" fill-rule="evenodd" stroke="none"/>
      <path d="M16.0 9.25 Q12.85 13.0 6.1 10.35 -1.5 7.05 0.4 0.15 L0.4 0.05 6.4 0.4 6.65 0.45 Q10.15 1.25 12.7 3.55 15.05 5.65 16.55 9.05 18.1 9.8 19.25 9.4" fill="none" stroke="#000000" stroke-linecap="round" stroke-linejoin="round" stroke-width="1.8"/>
    </g>
    <g id="sprite25" transform="matrix(1.0, 0.0, 0.0, 1.0, 3.7, 3.3)">
      <use ffdec:characterId="148" height="6.6" transform="matrix(1.0, 0.0, 0.0, 1.0, -3.7, -3.3)" width="7.4" xlink:href="#shape21"/>
    </g>
    <g id="shape21" transform="matrix(1.0, 0.0, 0.0, 1.0, 3.7, 3.3)">
      <path d="M-2.65 -3.05 L-2.35 -3.3 Q1.15 -2.5 3.7 -0.2 3.65 1.2 2.6 2.2 1.55 3.3 0.0 3.3 -1.55 3.3 -2.65 2.2 -3.7 1.15 -3.7 -0.4 -3.7 -1.95 -2.65 -3.05" fill="#666666" fill-rule="evenodd" stroke="none"/>
    </g>
    <g id="shape22" transform="matrix(1.0, 0.0, 0.0, 1.0, 0.9, 1.05)">
      <path d="M19.25 9.4 Q18.1 9.8 16.55 9.05 L16.5 8.9 Q12.6 12.0 6.1 10.35 -1.5 7.05 0.35 0.0 L0.25 -0.1 0.35 -0.1 Q12.15 -0.75 16.45 8.85 L16.5 8.9" fill="none" stroke="#000000" stroke-linecap="round" stroke-linejoin="round" stroke-width="1.8"/>
    </g>
    <g id="sprite26" transform="matrix(1.0, 0.0, 0.0, 1.0, 0.9, 0.9)">
      <use ffdec:characterId="554" height="61.4" id="mc100" transform="matrix(1.0, 0.0, 0.0, 1.0, 0.0, 0.0)" width="70.75" xlink:href="#sprite27"/>
      <use ffdec:characterId="174" height="63.2" transform="matrix(1.0, 0.0, 0.0, 1.0, -0.9, -0.9)" width="72.55" xlink:href="#shape24"/>
    </g>
    <g id="sprite27" transform="matrix(1.0, 0.0, 0.0, 1.0, 35.4, 30.7)">
      <use ffdec:characterId="172" height="61.4" transform="matrix(1.0, 0.0, 0.0, 1.0, -35.4, -30.7)" width="70.75" xlink:href="#shape23"/>
    </g>
    <g id="shape23" transform="matrix(1.0, 0.0, 0.0, 1.0, 35.4, 30.7)">
      <path d="M31.8 15.75 Q23.95 26.95 11.9 29.5 L11.25 29.65 9.1 29.9 Q-8.2 31.9 -23.15 28.8 L-23.7 28.65 Q-29.6 27.05 -33.85 23.65 -36.25 20.5 -32.45 15.5 L-32.45 15.55 Q-20.05 25.45 10.55 17.2 L11.45 9.7 10.95 9.65 Q-23.6 11.25 -34.95 5.65 -38.2 -20.0 -16.6 -28.1 L-16.35 -28.2 Q10.3 -36.15 27.65 -18.85 40.6 -3.15 31.8 15.75" fill="#666666" fill-rule="evenodd" stroke="none"/>
    </g>
    <g id="shape24" transform="matrix(1.0, 0.0, 0.0, 1.0, 0.9, 0.9)">
      <path d="M44.5 60.3 L45.95 47.9 Q15.35 56.15 2.95 46.25 L2.95 46.2 Q-0.85 51.2 1.55 54.35 5.8 57.75 11.7 59.35 L12.25 59.5 Q27.2 62.6 44.5 60.6 L46.65 60.35 47.3 60.2 Q59.35 57.65 67.2 46.45 76.0 27.55 63.05 11.85 45.7 -5.45 19.05 2.5 L18.8 2.6 Q-2.8 10.7 0.45 36.35 11.8 41.95 46.35 40.35 M45.95 47.9 L47.45 35.05 Q47.65 22.25 40.15 24.85 M0.45 36.35 L0.65 38.0 Q1.4 42.1 3.05 46.05 L2.95 46.2" fill="none" stroke="#000000" stroke-linecap="round" stroke-linejoin="round" stroke-width="1.8"/>
    </g>
  </defs>
</svg>
