<?xml version="1.0" encoding="UTF-8" standalone="no"?>
<svg xmlns:ffdec="https://www.free-decompiler.com/flash" xmlns:xlink="http://www.w3.org/1999/xlink" ffdec:objectType="frame" height="103.0px" width="77.15px" xmlns="http://www.w3.org/2000/svg">
  <g transform="matrix(1.0, 0.0, 0.0, 1.0, 43.25, 99.1)">
    <use ffdec:characterId="1333" height="22.4" id="mc2100" transform="matrix(-0.9908, -0.1304, -0.1304, 0.9908, 14.9509, -21.8062)" width="12.95" xlink:href="#sprite0"/>
    <use ffdec:characterId="1333" height="22.4" id="mc2000" transform="matrix(-0.9659, -0.2588, -0.2588, 0.9659, 3.479, -17.749)" width="12.95" xlink:href="#sprite0"/>
    <use ffdec:characterId="1335" height="20.65" id="mc1900" transform="matrix(-1.0, 0.0, 0.0, 1.0, 17.05, -33.85)" width="13.2" xlink:href="#sprite2"/>
    <use ffdec:characterId="1344" height="34.5" id="mc1800" transform="matrix(-1.0, 0.0, 0.0, 1.0, 13.75, -38.7)" width="27.45" xlink:href="#sprite4"/>
    <use ffdec:characterId="142" height="10.0" transform="matrix(1.0, 0.0, 0.0, 1.0, 1.7, -15.55)" width="7.4" xlink:href="#shape12"/>
    <use ffdec:characterId="1345" height="17.25" id="mc1600" transform="matrix(-0.1257, -0.8212, -0.6884, -0.2207, 7.4296, -21.4677)" width="18.75" xlink:href="#sprite11"/>
    <use ffdec:characterId="1335" height="20.65" id="mc1500" transform="matrix(0.9764, -0.2128, 0.2128, 0.9764, -19.45, -28.0919)" width="13.2" xlink:href="#sprite2"/>
    <use ffdec:characterId="1347" height="15.45" id="hide_hat3" transform="matrix(-0.9996, 0.0233, 0.0233, 0.9996, 20.8303, -95.1392)" width="25.4" xlink:href="#sprite12"/>
    <use ffdec:characterId="1349" height="16.85" id="hide_hat2" transform="matrix(-0.9996, 0.0233, 0.0233, 0.9996, 33.5053, -86.147)" width="33.55" xlink:href="#sprite14"/>
    <use ffdec:characterId="1351" height="39.8" id="hide_hat" transform="matrix(-0.9996, 0.0233, 0.0233, 0.9996, 29.4842, -80.9858)" width="29.45" xlink:href="#sprite16"/>
    <use ffdec:characterId="1353" height="51.25" id="mc1100" transform="matrix(-0.9953, 0.0931, 0.0931, 0.9953, 17.069, -81.6437)" width="41.1" xlink:href="#sprite18"/>
    <use ffdec:characterId="1354" height="24.45" transform="matrix(1.0, 0.0, 0.0, 1.0, -1.65, -58.8)" width="20.8" xlink:href="#shape22"/>
    <use ffdec:characterId="328" height="4.5" transform="matrix(1.0, 0.0, 0.0, 1.0, -10.65, -54.15)" width="16.2" xlink:href="#shape23"/>
    <use ffdec:characterId="1357" height="11.55" id="mc700" transform="matrix(-0.9996, 0.0233, 0.0233, 0.9996, 17.6786, -52.5249)" width="28.1" xlink:href="#sprite20"/>
    <use ffdec:characterId="1359" height="26.95" id="mc600" transform="matrix(-0.9973, 0.07, 0.07, 0.9973, 17.5062, -81.0854)" width="39.25" xlink:href="#sprite23"/>
    <use ffdec:characterId="1361" height="43.25" id="mc500" transform="matrix(-0.9996, 0.0233, 0.0233, 0.9996, -10.8561, -73.9316)" width="20.9" xlink:href="#sprite25"/>
    <use ffdec:characterId="1363" height="17.85" id="hide_hat4" transform="matrix(-0.9996, 0.0233, 0.0233, 0.9996, 3.2789, -92.4768)" width="46.05" xlink:href="#sprite27"/>
    <use ffdec:characterId="1365" height="37.45" id="hide_hat5" transform="matrix(-0.9996, 0.0233, 0.0233, 0.9996, -1.799, -85.3721)" width="41.45" xlink:href="#sprite29"/>
    <use ffdec:characterId="1367" height="51.2" id="mc200" transform="matrix(-0.9996, 0.0233, 0.0233, 0.9996, 3.1475, -84.7999)" width="39.7" xlink:href="#sprite31"/>
    <use ffdec:characterId="5" height="2.5" transform="matrix(0.9996, -0.0233, 0.0233, 0.9996, 2.6209, -39.753)" width="2.5" xlink:href="#shape37"/>
    <use ffdec:characterId="1368" height="0.0" id="hat" transform="matrix(-1.0, 0.0, 0.0, 1.0, 21.65, -99.1)" width="0.0" xlink:href="#sprite33"/>
  </g>
  <defs>
    <g id="sprite0" transform="matrix(1.0, 0.0, 0.0, 1.0, 6.45, 11.2)">
      <use ffdec:characterId="1332" height="20.6" id="mc100" transform="matrix(1.0, 0.0, 0.0, 1.0, -5.55, -10.3)" width="11.15" xlink:href="#sprite1"/>
      <use ffdec:characterId="54" height="22.4" transform="matrix(1.0, 0.0, 0.0, 1.0, -6.45, -11.2)" width="12.95" xlink:href="#shape1"/>
    </g>
    <g id="sprite1" transform="matrix(1.0, 0.0, 0.0, 1.0, 5.55, 10.3)">
      <use ffdec:characterId="6" height="20.6" transform="matrix(1.0, 0.0, 0.0, 1.0, -5.55, -10.3)" width="11.15" xlink:href="#shape0"/>
    </g>
    <g id="shape0" transform="matrix(1.0, 0.0, 0.0, 1.0, 5.55, 10.3)">
      <path d="M5.4 -5.05 L3.15 7.4 Q2.65 9.0 0.9 9.85 -0.85 10.65 -2.5 10.1 -4.2 9.6 -5.0 8.1 -5.85 6.55 -5.35 4.9 L-1.7 -7.25 Q-1.2 -8.9 0.05 -9.7 1.4 -10.6 3.05 -10.1 4.6 -9.65 5.25 -8.15 5.85 -6.75 5.4 -5.05" fill="#b88a5c" fill-rule="evenodd" stroke="none"/>
    </g>
    <g id="shape1" transform="matrix(1.0, 0.0, 0.0, 1.0, 6.45, 11.2)">
      <path d="M3.05 -10.1 Q4.6 -9.65 5.25 -8.15 5.85 -6.75 5.4 -5.05 L3.15 7.4 Q2.65 9.0 0.9 9.85 -0.85 10.65 -2.5 10.1 -4.2 9.6 -5.0 8.1 -5.85 6.55 -5.35 4.9 L-1.7 -7.25 Q-1.2 -8.9 0.05 -9.7 1.4 -10.6 3.05 -10.1 Z" fill="none" stroke="#000000" stroke-linecap="round" stroke-linejoin="round" stroke-width="1.8"/>
    </g>
    <g id="sprite2" transform="matrix(1.0, 0.0, 0.0, 1.0, 6.95, 9.7)">
      <use ffdec:characterId="1334" height="17.65" id="mc100" transform="matrix(1.068, 0.0, 0.0, 1.068, -6.0638, -8.7983)" width="10.7" xlink:href="#sprite3"/>
      <use ffdec:characterId="57" height="20.65" transform="matrix(1.0, 0.0, 0.0, 1.0, -6.95, -9.7)" width="13.2" xlink:href="#shape3"/>
    </g>
    <g id="sprite3" transform="matrix(1.0, 0.0, 0.0, 1.0, 5.35, 8.8)">
      <use ffdec:characterId="10" height="17.65" transform="matrix(1.0, 0.0, 0.0, 1.0, -5.35, -8.8)" width="10.7" xlink:href="#shape2"/>
    </g>
    <g id="shape2" transform="matrix(1.0, 0.0, 0.0, 1.0, 5.35, 8.8)">
      <path d="M4.1 -8.65 Q5.05 -8.25 5.3 -7.05 5.55 -5.85 3.65 0.55 L1.75 6.3 Q1.15 8.0 -0.1 8.55 -1.55 9.15 -3.05 8.55 -4.55 7.9 -5.15 6.5 -5.65 5.15 -4.85 3.55 L-2.1 -1.85 Q1.05 -7.75 2.1 -8.4 3.15 -9.05 4.1 -8.65" fill="#b88a5c" fill-rule="evenodd" stroke="none"/>
    </g>
    <g id="shape3" transform="matrix(1.0, 0.0, 0.0, 1.0, 6.95, 9.7)">
      <path d="M1.9 -8.35 Q0.8 -7.65 -2.6 -1.35 L-4.9 3.1 Q-2.1 5.7 2.0 6.0 L3.55 1.2 Q5.6 -5.65 5.3 -6.95 5.05 -8.25 4.05 -8.65 3.0 -9.1 1.9 -8.35 M-4.9 3.1 L-5.55 4.4 Q-6.4 6.15 -5.85 7.55 -5.2 9.05 -3.6 9.7 L-0.45 9.75 Q0.9 9.15 1.55 7.35 L2.0 6.0" fill="none" stroke="#000000" stroke-linecap="round" stroke-linejoin="round" stroke-width="1.8"/>
    </g>
    <g id="sprite4" transform="matrix(1.0, 0.0, 0.0, 1.0, 14.7, 16.75)">
      <use ffdec:characterId="1336" height="14.95" id="mc500" transform="matrix(1.0, 0.0, 0.0, 1.0, -13.8, 1.9)" width="25.65" xlink:href="#sprite5"/>
      <use ffdec:characterId="1337" height="20.0" id="mc400" transform="matrix(1.0, 0.0, 0.0, 1.0, -11.15, -15.85)" width="21.1" xlink:href="#sprite6"/>
      <use ffdec:characterId="1339" height="11.25" id="mc200" transform="matrix(0.9941, 0.1051, -0.1051, 0.9941, -13.1861, 2.3879)" width="25.6" xlink:href="#sprite7"/>
      <use ffdec:characterId="1340" height="8.4" id="mc201" transform="matrix(0.9941, 0.1051, -0.1051, 0.9941, -12.1903, 4.2557)" width="23.15" xlink:href="#sprite8"/>
      <use ffdec:characterId="1341" height="5.9" transform="matrix(1.0, 0.0, 0.0, 1.0, -4.0, 10.45)" width="6.15" xlink:href="#shape8"/>
      <use ffdec:characterId="1342" height="1.8" transform="matrix(1.0, 0.0, 0.0, 1.0, -2.05, 12.45)" width="2.0" xlink:href="#sprite9"/>
      <use ffdec:characterId="240" height="34.5" transform="matrix(1.0, 0.0, 0.0, 1.0, -14.7, -16.75)" width="27.45" xlink:href="#shape10"/>
      <use ffdec:characterId="1343" height="2.5" id="mc000" transform="matrix(1.0, 0.0, 0.0, 1.0, -1.3, -3.1)" width="2.5" xlink:href="#sprite10"/>
      <use ffdec:characterId="1343" height="2.5" id="mc001" transform="matrix(1.0, 0.0, 0.0, 1.0, -7.85, -4.85)" width="2.5" xlink:href="#sprite10"/>
    </g>
    <g id="sprite5" transform="matrix(1.0, 0.0, 0.0, 1.0, 12.85, 7.45)">
      <use ffdec:characterId="233" height="14.95" transform="matrix(1.0, 0.0, 0.0, 1.0, -12.85, -7.45)" width="25.65" xlink:href="#shape4"/>
    </g>
    <g id="shape4" transform="matrix(1.0, 0.0, 0.0, 1.0, 12.85, 7.45)">
      <path d="M11.65 -6.1 L11.75 -6.15 11.75 -6.1 12.8 4.95 Q-0.65 11.1 -12.85 2.45 L-10.7 -6.3 -9.9 -7.35 Q-9.35 -7.85 -4.2 -6.15 0.9 -4.45 9.8 -5.8 L11.65 -6.1" fill="#e31709" fill-rule="evenodd" stroke="none"/>
    </g>
    <g id="sprite6" transform="matrix(1.0, 0.0, 0.0, 1.0, 10.55, 10.0)">
      <use ffdec:characterId="235" height="20.0" transform="matrix(1.0, 0.0, 0.0, 1.0, -10.55, -10.0)" width="21.1" xlink:href="#shape5"/>
    </g>
    <g id="shape5" transform="matrix(1.0, 0.0, 0.0, 1.0, 10.55, 10.0)">
      <path d="M6.8 9.75 Q-0.35 10.5 -5.3 9.15 L-7.2 8.65 -10.55 7.0 -10.55 6.9 -6.35 -10.0 7.3 -10.0 10.55 9.0 6.8 9.75" fill="#b88a5c" fill-rule="evenodd" stroke="none"/>
    </g>
    <g id="sprite7" transform="matrix(1.0, 0.0, 0.0, 1.0, 12.8, 5.6)">
      <use ffdec:characterId="1338" height="11.25" transform="matrix(1.0, 0.0, 0.0, 1.0, -12.8, -5.6)" width="25.6" xlink:href="#shape6"/>
    </g>
    <g id="shape6" transform="matrix(1.0, 0.0, 0.0, 1.0, 12.8, 5.6)">
      <path d="M9.85 -3.4 L9.55 -3.45 9.7 -2.8 Q9.7 -2.4 9.5 -2.15 L10.15 -2.3 11.05 -2.0 11.05 -2.15 Q11.05 -2.65 11.45 -3.05 L11.55 -3.15 Q11.2 -3.2 11.0 -3.5 L10.75 -3.8 Q10.4 -3.4 9.85 -3.4 M3.75 -2.05 Q3.4 -1.65 2.85 -1.65 L2.55 -1.7 2.7 -1.05 Q2.7 -0.65 2.5 -0.4 L3.15 -0.55 4.05 -0.25 4.05 -0.4 Q4.05 -0.9 4.45 -1.3 L4.55 -1.4 Q4.2 -1.45 4.0 -1.75 L3.75 -2.05 M3.95 -3.4 L4.0 -3.45 4.8 -3.75 5.7 -3.45 6.0 -2.55 5.7 -1.75 5.5 -1.6 6.15 -1.3 6.45 -0.4 6.15 0.45 5.25 0.8 Q4.75 0.8 4.45 0.45 L4.3 0.35 4.35 0.65 4.3 1.1 4.05 1.5 Q3.7 1.85 3.15 1.85 2.65 1.85 2.35 1.5 L2.05 1.1 1.95 0.65 2.2 -0.05 1.5 0.15 Q1.0 0.15 0.7 -0.25 0.3 -0.55 0.3 -1.05 0.3 -1.6 0.7 -1.95 L1.5 -2.25 1.85 -2.2 1.65 -2.85 Q1.65 -3.4 2.05 -3.75 L2.85 -4.05 3.75 -3.75 3.95 -3.4 M8.85 -5.25 L10.7 -5.55 10.75 -5.5 10.95 -5.15 11.0 -5.2 Q11.25 -5.5 11.65 -5.5 L12.8 -1.05 12.25 -0.95 Q11.75 -0.95 11.45 -1.3 L11.3 -1.4 11.35 -1.1 Q11.35 -0.55 11.05 -0.25 10.7 0.1 10.15 0.1 9.65 0.1 9.35 -0.25 8.95 -0.55 8.95 -1.1 L9.2 -1.8 8.5 -1.6 Q8.0 -1.6 7.7 -2.0 7.3 -2.3 7.3 -2.8 7.3 -3.35 7.7 -3.7 L8.5 -4.0 8.85 -3.95 8.65 -4.6 8.85 -5.25 M10.65 3.2 L11.3 3.5 11.6 4.15 9.65 4.9 7.1 5.6 7.1 5.45 Q7.1 5.05 7.35 4.75 L6.65 4.95 Q6.15 4.95 5.85 4.55 5.45 4.25 5.45 3.75 5.45 3.2 5.85 2.85 6.15 2.55 6.65 2.55 L7.0 2.6 6.8 1.95 Q6.8 1.45 7.1 1.1 L7.2 1.05 Q7.5 0.75 8.0 0.75 8.55 0.75 8.9 1.05 L8.95 1.1 9.1 1.4 9.15 1.35 9.5 1.1 9.95 1.05 10.45 1.1 10.85 1.35 11.15 2.25 10.85 3.05 10.65 3.2 M9.15 3.05 L8.9 2.75 Q8.55 3.15 8.0 3.15 L7.7 3.1 7.85 3.75 7.65 4.4 8.3 4.25 Q8.85 4.25 9.2 4.55 L9.2 4.4 Q9.2 3.9 9.6 3.5 L9.7 3.4 9.15 3.05 M-11.0 -5.2 L-10.85 -5.55 -10.8 -5.6 -8.9 -5.25 -8.75 -4.65 -8.9 -4.0 -8.6 -4.05 Q-8.05 -4.05 -7.75 -3.75 -7.4 -3.4 -7.4 -2.85 -7.4 -2.35 -7.75 -2.05 -8.05 -1.65 -8.6 -1.65 L-9.25 -1.85 -9.05 -1.15 Q-9.05 -0.6 -9.4 -0.3 -9.7 0.05 -10.25 0.05 -10.75 0.05 -11.15 -0.3 L-11.45 -1.15 -11.4 -1.45 -11.5 -1.35 Q-11.8 -1.0 -12.35 -1.0 L-12.8 -1.05 -11.7 -5.55 Q-11.3 -5.5 -11.05 -5.25 L-11.0 -5.2 M-11.05 -3.55 Q-11.3 -3.25 -11.6 -3.2 L-11.5 -3.1 Q-11.15 -2.7 -11.15 -2.2 L-11.15 -2.05 -10.25 -2.35 -9.6 -2.2 -9.8 -2.85 -9.65 -3.5 -9.95 -3.45 Q-10.45 -3.45 -10.85 -3.85 L-11.05 -3.55 M-6.1 -2.6 L-5.8 -3.5 -4.9 -3.8 Q-4.35 -3.8 -4.05 -3.5 L-4.0 -3.45 -3.85 -3.8 -2.95 -4.1 Q-2.4 -4.1 -2.1 -3.8 -1.75 -3.45 -1.75 -2.9 -1.75 -2.55 -1.9 -2.25 L-1.6 -2.3 -0.75 -2.0 Q-0.4 -1.65 -0.4 -1.1 -0.4 -0.6 -0.75 -0.3 -1.05 0.1 -1.6 0.1 L-2.25 -0.1 -2.05 0.6 -2.15 1.1 -2.4 1.45 Q-2.7 1.8 -3.25 1.8 -3.75 1.8 -4.15 1.45 L-4.35 1.1 -4.45 0.6 -4.4 0.3 -4.5 0.4 Q-4.8 0.75 -5.35 0.75 L-6.25 0.4 -6.55 -0.45 -6.25 -1.35 -5.6 -1.65 -5.8 -1.8 -6.1 -2.6 M-2.95 -1.7 Q-3.45 -1.7 -3.85 -2.1 L-4.05 -1.8 Q-4.3 -1.5 -4.6 -1.45 L-4.5 -1.35 Q-4.15 -0.95 -4.15 -0.45 L-4.15 -0.3 -3.25 -0.6 -2.6 -0.45 -2.8 -1.1 -2.65 -1.75 -2.95 -1.7 M-5.9 2.8 Q-5.55 3.15 -5.55 3.7 -5.55 4.2 -5.9 4.5 -6.2 4.9 -6.75 4.9 L-7.4 4.7 -7.2 5.4 -7.2 5.65 -9.65 5.0 -11.7 4.25 -11.4 3.45 -10.75 3.15 -10.95 3.0 -11.25 2.2 -10.95 1.3 -10.65 1.1 -10.05 1.0 -9.45 1.1 -9.2 1.3 -9.15 1.35 -9.05 1.1 -9.0 1.0 Q-8.6 0.7 -8.1 0.7 -7.55 0.7 -7.25 1.0 L-7.15 1.1 Q-6.9 1.45 -6.9 1.9 L-7.05 2.55 -6.75 2.5 Q-6.2 2.5 -5.9 2.8 M-9.2 3.0 L-9.75 3.35 -9.65 3.45 Q-9.3 3.85 -9.3 4.35 L-9.3 4.5 Q-8.9 4.2 -8.4 4.2 L-7.75 4.35 -7.95 3.7 -7.8 3.05 -8.1 3.1 Q-8.6 3.1 -9.0 2.7 L-9.2 3.0" fill="#ffffff" fill-rule="evenodd" stroke="none"/>
    </g>
    <g id="sprite8" transform="matrix(1.0, 0.0, 0.0, 1.0, 11.6, 4.2)">
      <use ffdec:characterId="20" height="8.4" transform="matrix(1.0, 0.0, 0.0, 1.0, -11.6, -4.2)" width="23.15" xlink:href="#shape7"/>
    </g>
    <g id="shape7" transform="matrix(1.0, 0.0, 0.0, 1.0, 11.6, 4.2)">
      <path d="M4.55 -1.75 L4.45 -1.65 Q4.05 -1.25 4.05 -0.75 L4.05 -0.6 3.15 -0.9 2.5 -0.75 Q2.7 -1.0 2.7 -1.4 L2.55 -2.05 2.85 -2.0 Q3.4 -2.0 3.75 -2.4 L4.0 -2.1 Q4.2 -1.8 4.55 -1.75 M9.7 -3.15 L9.55 -3.8 9.85 -3.75 Q10.4 -3.75 10.75 -4.15 L11.0 -3.85 Q11.2 -3.55 11.55 -3.5 L11.45 -3.4 Q11.05 -3.0 11.05 -2.5 L11.05 -2.35 10.15 -2.65 9.5 -2.5 Q9.7 -2.75 9.7 -3.15 M9.15 2.7 L9.7 3.05 9.6 3.15 Q9.2 3.55 9.2 4.05 L9.2 4.2 Q8.85 3.9 8.3 3.9 L7.65 4.05 7.85 3.4 7.7 2.75 8.0 2.8 Q8.55 2.8 8.9 2.4 L9.15 2.7 M-9.2 2.65 L-9.0 2.35 Q-8.6 2.75 -8.1 2.75 L-7.8 2.7 -7.95 3.35 -7.75 4.0 -8.4 3.85 Q-8.9 3.85 -9.3 4.15 L-9.3 4.0 Q-9.3 3.5 -9.65 3.1 L-9.75 3.0 -9.2 2.65 M-2.95 -2.05 L-2.65 -2.1 -2.8 -1.45 -2.6 -0.8 -3.25 -0.95 -4.15 -0.65 -4.15 -0.8 Q-4.15 -1.3 -4.5 -1.7 L-4.6 -1.8 Q-4.3 -1.85 -4.05 -2.15 L-3.85 -2.45 Q-3.45 -2.05 -2.95 -2.05 M-11.05 -3.9 L-10.85 -4.2 Q-10.45 -3.8 -9.95 -3.8 L-9.65 -3.85 -9.8 -3.2 -9.6 -2.55 -10.25 -2.7 -11.15 -2.4 -11.15 -2.55 Q-11.15 -3.05 -11.5 -3.45 L-11.6 -3.55 Q-11.3 -3.6 -11.05 -3.9" fill="#0099cc" fill-rule="evenodd" stroke="none"/>
    </g>
    <g id="shape8" transform="matrix(1.0, 0.0, 0.0, 1.0, 3.1, 2.95)">
      <path d="M0.5 -0.55 Q0.0 -0.55 -0.4 -0.95 L-0.6 -0.65 -1.15 -0.3 -1.05 -0.2 Q-0.7 0.2 -0.7 0.7 L-0.7 0.85 0.2 0.55 0.85 0.7 0.65 0.05 0.8 -0.6 0.5 -0.55 M1.7 -1.75 L1.55 -1.1 1.85 -1.15 2.7 -0.85 2.75 -0.8 3.05 0.05 2.75 0.8 2.7 0.85 Q2.4 1.25 1.85 1.25 L1.2 1.05 1.4 1.75 1.3 2.25 1.05 2.6 0.2 2.95 Q-0.3 2.95 -0.7 2.6 L-0.9 2.25 -1.0 1.75 -0.95 1.45 -1.05 1.55 Q-1.35 1.9 -1.9 1.9 L-2.8 1.55 -3.1 0.7 -2.8 -0.2 -2.15 -0.5 -2.35 -0.65 -2.65 -1.45 -2.35 -2.35 -1.45 -2.65 -0.6 -2.35 -0.55 -2.3 -0.4 -2.65 0.5 -2.95 1.35 -2.65 Q1.7 -2.3 1.7 -1.75" fill="#ffffff" fill-rule="evenodd" stroke="none"/>
    </g>
    <g id="sprite9" transform="matrix(1.0, 0.0, 0.0, 1.0, 0.0, 0.0)">
      <use ffdec:characterId="238" height="1.8" transform="matrix(1.0, 0.0, 0.0, 1.0, 0.0, 0.0)" width="2.0" xlink:href="#shape9"/>
    </g>
    <g id="shape9" transform="matrix(1.0, 0.0, 0.0, 1.0, 0.0, 0.0)">
      <path d="M1.65 0.4 L1.95 0.35 1.8 1.0 2.0 1.65 1.35 1.5 Q0.85 1.5 0.45 1.8 L0.45 1.65 Q0.45 1.15 0.1 0.75 L0.0 0.65 0.55 0.3 0.75 0.0 Q1.15 0.4 1.65 0.4" fill="#0099cc" fill-rule="evenodd" stroke="none"/>
    </g>
    <g id="shape10" transform="matrix(1.0, 0.0, 0.0, 1.0, 14.7, 16.75)">
      <path d="M-11.25 1.4 L-11.15 1.15 -7.8 2.8 Q-10.5 2.1 -11.25 2.15 L-11.25 1.4 M6.2 3.9 L9.95 3.15 8.85 3.55 6.2 3.9" fill="#b88a5c" fill-rule="evenodd" stroke="none"/>
      <path d="M-11.15 1.15 L-11.15 1.05 -6.95 -15.85 6.7 -15.85 9.95 3.15 11.85 14.3 Q-1.6 20.45 -13.8 11.8 L-11.25 1.4 -11.15 1.15 -7.8 2.8 Q-1.0 5.5 6.2 3.9 L9.95 3.15" fill="none" stroke="#000000" stroke-linecap="round" stroke-linejoin="round" stroke-width="1.8"/>
    </g>
    <g id="sprite10" transform="matrix(1.0, 0.0, 0.0, 1.0, 1.25, 1.25)">
      <use ffdec:characterId="23" height="2.5" transform="matrix(1.0, 0.0, 0.0, 1.0, -1.25, -1.25)" width="2.5" xlink:href="#shape11"/>
    </g>
    <g id="shape11" transform="matrix(1.0, 0.0, 0.0, 1.0, 1.25, 1.25)">
      <path d="M0.85 -0.9 Q1.25 -0.5 1.25 0.0 1.25 0.5 0.85 0.85 0.5 1.25 0.0 1.25 -0.5 1.25 -0.9 0.85 -1.25 0.5 -1.25 0.0 L-0.9 -0.9 Q-0.5 -1.25 0.0 -1.25 0.5 -1.25 0.85 -0.9" fill="#000000" fill-opacity="0.4" fill-rule="evenodd" stroke="none"/>
    </g>
    <g id="shape12" transform="matrix(1.0, 0.0, 0.0, 1.0, 2.35, 14.5)">
      <path d="M-1.45 -5.4 L-1.05 -9.7 4.15 -13.6" fill="none" stroke="#000000" stroke-linecap="round" stroke-linejoin="round" stroke-width="1.8"/>
    </g>
    <g id="sprite11" transform="matrix(1.0, 0.0, 0.0, 1.0, 8.85, 8.45)">
      <use ffdec:characterId="26" height="17.25" transform="matrix(1.0, 0.0, 0.0, 1.0, -8.85, -8.45)" width="18.75" xlink:href="#shape13"/>
    </g>
    <g id="shape13" transform="matrix(1.0, 0.0, 0.0, 1.0, 8.85, 8.45)">
      <path d="M3.0 -7.25 Q5.1 -6.7 6.8 -5.1 8.7 -3.25 9.1 -0.8 L9.15 -0.4 9.15 0.35 Q9.15 1.9 8.6 3.3 8.0 4.65 6.8 5.8 4.4 8.05 1.05 8.05 L-1.05 7.8 -1.9 7.5 Q-4.05 7.05 -5.75 5.45 -7.65 3.6 -8.0 1.15 L-8.1 0.0 Q-8.1 -3.2 -5.75 -5.45 -3.35 -7.7 0.05 -7.7 L2.15 -7.45 3.0 -7.25 Z" fill="none" stroke="#ffffff" stroke-linecap="round" stroke-linejoin="round" stroke-width="1.5"/>
    </g>
    <g id="sprite12" transform="matrix(1.0, 0.0, 0.0, 1.0, 12.55, 7.1)">
      <use ffdec:characterId="1346" height="13.65" id="mc100" transform="matrix(1.0, 0.0, 0.0, 1.0, -11.65, -6.2)" width="23.6" xlink:href="#sprite13"/>
      <use ffdec:characterId="287" height="15.45" transform="matrix(1.0, 0.0, 0.0, 1.0, -12.55, -7.1)" width="25.4" xlink:href="#shape15"/>
    </g>
    <g id="sprite13" transform="matrix(1.0, 0.0, 0.0, 1.0, 11.8, 6.8)">
      <use ffdec:characterId="285" height="13.65" transform="matrix(1.0, 0.0, 0.0, 1.0, -11.8, -6.8)" width="23.6" xlink:href="#shape14"/>
    </g>
    <g id="shape14" transform="matrix(1.0, 0.0, 0.0, 1.0, 11.8, 6.8)">
      <path d="M-11.05 -3.8 Q-9.05 -8.25 -1.95 -6.15 5.15 -4.05 11.8 5.65 -1.25 8.9 -8.95 3.5 -13.3 0.55 -11.05 -3.8" fill="#ff9900" fill-rule="evenodd" stroke="none"/>
    </g>
    <g id="shape15" transform="matrix(1.0, 0.0, 0.0, 1.0, 12.55, 7.1)">
      <path d="M-10.9 -3.2 Q-13.15 1.15 -8.8 4.1 -1.1 9.5 11.95 6.25 5.3 -3.45 -1.8 -5.55 -8.9 -7.65 -10.9 -3.2 Z" fill="none" stroke="#000000" stroke-linecap="round" stroke-linejoin="round" stroke-width="1.8"/>
    </g>
    <g id="sprite14" transform="matrix(1.0, 0.0, 0.0, 1.0, 17.2, 8.1)">
      <use ffdec:characterId="1348" height="15.05" id="mc100" transform="matrix(1.0, 0.0, 0.0, 1.0, -16.3, -7.2)" width="31.75" xlink:href="#sprite15"/>
      <use ffdec:characterId="291" height="16.85" transform="matrix(1.0, 0.0, 0.0, 1.0, -17.2, -8.1)" width="33.55" xlink:href="#shape17"/>
    </g>
    <g id="sprite15" transform="matrix(1.0, 0.0, 0.0, 1.0, 15.9, 7.5)">
      <use ffdec:characterId="289" height="15.05" transform="matrix(1.0, 0.0, 0.0, 1.0, -15.9, -7.5)" width="31.75" xlink:href="#shape16"/>
    </g>
    <g id="shape16" transform="matrix(1.0, 0.0, 0.0, 1.0, 15.9, 7.5)">
      <path d="M-14.7 6.9 Q-18.95 3.65 -8.0 -2.75 8.45 -12.35 15.85 -2.5 -10.5 10.1 -14.7 6.9" fill="#ff9900" fill-rule="evenodd" stroke="none"/>
    </g>
    <g id="shape17" transform="matrix(1.0, 0.0, 0.0, 1.0, 17.2, 8.1)">
      <path d="M-8.4 -2.45 Q8.05 -12.05 15.45 -2.2 -10.9 10.4 -15.1 7.2 -19.35 3.95 -8.4 -2.45 Z" fill="none" stroke="#000000" stroke-linecap="round" stroke-linejoin="round" stroke-width="1.8"/>
    </g>
    <g id="sprite16" transform="matrix(1.0, 0.0, 0.0, 1.0, 14.75, 19.8)">
      <use ffdec:characterId="1350" height="38.0" id="mc100" transform="matrix(1.0, 0.0, 0.0, 1.0, -13.85, -18.9)" width="27.65" xlink:href="#sprite17"/>
      <use ffdec:characterId="295" height="39.8" transform="matrix(1.0, 0.0, 0.0, 1.0, -14.75, -19.8)" width="29.45" xlink:href="#shape19"/>
    </g>
    <g id="sprite17" transform="matrix(1.0, 0.0, 0.0, 1.0, 13.85, 19.0)">
      <use ffdec:characterId="293" height="38.0" transform="matrix(1.0, 0.0, 0.0, 1.0, -13.85, -19.0)" width="27.65" xlink:href="#shape18"/>
    </g>
    <g id="shape18" transform="matrix(1.0, 0.0, 0.0, 1.0, 13.85, 19.0)">
      <path d="M-13.65 9.5 Q-7.1 -18.4 12.45 -19.0 18.1 -18.05 0.35 13.3 -3.9 19.85 -8.55 18.9 -14.9 17.7 -13.65 9.5" fill="#ff9900" fill-rule="evenodd" stroke="none"/>
    </g>
    <g id="shape19" transform="matrix(1.0, 0.0, 0.0, 1.0, 14.75, 19.8)">
      <path d="M-13.65 9.6 Q-7.1 -18.3 12.45 -18.9 18.1 -17.95 0.35 13.4 -3.9 19.95 -8.55 19.0 -14.9 17.8 -13.65 9.6 Z" fill="none" stroke="#000000" stroke-linecap="round" stroke-linejoin="round" stroke-width="1.8"/>
    </g>
    <g id="sprite18" transform="matrix(1.0, 0.0, 0.0, 1.0, 20.55, 25.6)">
      <use ffdec:characterId="1352" height="49.45" id="mc100" transform="matrix(1.0, 0.0, 0.0, 1.0, -19.65, -24.7)" width="39.3" xlink:href="#sprite19"/>
      <use ffdec:characterId="325" height="51.25" transform="matrix(1.0, 0.0, 0.0, 1.0, -20.55, -25.6)" width="41.1" xlink:href="#shape21"/>
    </g>
    <g id="sprite19" transform="matrix(1.0, 0.0, 0.0, 1.0, 19.65, 24.7)">
      <use ffdec:characterId="323" height="49.45" transform="matrix(1.0, 0.0, 0.0, 1.0, -19.65, -24.7)" width="39.3" xlink:href="#shape20"/>
    </g>
    <g id="shape20" transform="matrix(1.0, 0.0, 0.0, 1.0, 19.65, 24.7)">
      <path d="M18.0 17.05 Q6.65 27.8 -6.85 23.55 -20.4 19.25 -17.2 7.85 -25.65 -11.1 -4.7 -24.3 9.35 -27.2 16.35 -10.0 21.95 3.7 18.0 17.05" fill="#b88a5c" fill-rule="evenodd" stroke="none"/>
    </g>
    <g id="shape21" transform="matrix(1.0, 0.0, 0.0, 1.0, 20.55, 25.6)">
      <path d="M18.0 17.05 Q6.65 27.8 -6.85 23.55 -20.4 19.25 -17.2 7.85 -25.65 -11.1 -4.7 -24.3 9.35 -27.2 16.35 -10.0 21.95 3.7 18.0 17.05 Z" fill="none" stroke="#000000" stroke-linecap="round" stroke-linejoin="round" stroke-width="1.8"/>
    </g>
    <g id="shape22" transform="matrix(1.0, 0.0, 0.0, 1.0, 1.65, 58.8)">
      <path d="M-0.9 -35.75 Q2.0 -34.95 4.85 -35.15 9.3 -35.4 13.65 -38.05" fill="none" stroke="#000000" stroke-linecap="round" stroke-linejoin="round" stroke-width="1.5"/>
      <path d="M10.7 -51.25 L18.4 -58.05" fill="none" stroke="#000000" stroke-linecap="round" stroke-linejoin="round" stroke-width="1.5"/>
    </g>
    <g id="shape23" transform="matrix(1.0, 0.0, 0.0, 1.0, 8.1, 2.25)">
      <path d="M7.35 1.5 L-7.35 -1.5" fill="none" stroke="#000000" stroke-linecap="round" stroke-linejoin="round" stroke-width="1.5"/>
    </g>
    <g id="sprite20" transform="matrix(1.0, 0.0, 0.0, 1.0, 14.05, 5.0)">
      <use ffdec:characterId="272" height="10.05" transform="matrix(1.0, 0.0, 0.0, 1.0, -13.3, -4.25)" width="26.6" xlink:href="#shape24"/>
      <use ffdec:characterId="1355" height="7.4" id="mc100" transform="matrix(1.0, 0.0, 0.0, 1.0, 0.8, -2.35)" width="5.9" xlink:href="#sprite21"/>
      <use ffdec:characterId="1356" height="6.3" id="mc101" transform="matrix(1.0, 0.0, 0.0, 1.0, -12.5, -3.5)" width="3.2" xlink:href="#sprite22"/>
      <use ffdec:characterId="276" height="11.55" transform="matrix(1.0, 0.0, 0.0, 1.0, -14.05, -5.0)" width="28.1" xlink:href="#shape26"/>
    </g>
    <g id="shape24" transform="matrix(1.0, 0.0, 0.0, 1.0, 13.3, 4.25)">
      <path d="M-6.8 -3.2 Q-6.55 3.35 -10.2 3.4 -13.3 2.55 -13.3 -4.25 L-6.8 -3.2 M-1.15 -2.85 L13.25 -2.15 Q13.9 6.7 4.85 5.7 -2.25 4.55 -1.15 -2.85" fill="#ffffff" fill-rule="evenodd" stroke="none"/>
    </g>
    <g id="sprite21" transform="matrix(1.0, 0.0, 0.0, 1.0, 2.95, 3.7)">
      <use ffdec:characterId="273" height="6.3" transform="matrix(1.8438, 0.0, 0.0, 1.1746, -2.95, -3.7)" width="3.2" xlink:href="#shape25"/>
    </g>
    <g id="shape25" transform="matrix(1.0, 0.0, 0.0, 1.0, 1.6, 3.15)">
      <path d="M1.1 -2.25 Q1.6 -1.3 1.6 0.0 1.6 1.25 1.1 2.2 0.65 3.15 0.0 3.15 -0.65 3.15 -1.15 2.2 -1.6 1.25 -1.6 0.0 -1.6 -1.3 -1.15 -2.25 -0.65 -3.2 0.0 -3.15 0.65 -3.2 1.1 -2.25" fill="#336666" fill-rule="evenodd" stroke="none"/>
    </g>
    <g id="sprite22" transform="matrix(1.0, 0.0, 0.0, 1.0, 1.6, 3.15)">
      <use ffdec:characterId="273" height="6.3" transform="matrix(1.0, 0.0, 0.0, 1.0, -1.6, -3.15)" width="3.2" xlink:href="#shape25"/>
    </g>
    <g id="shape26" transform="matrix(1.0, 0.0, 0.0, 1.0, 14.05, 5.0)">
      <path d="M-6.8 -3.2 Q-6.55 3.35 -10.2 3.4 -13.3 2.55 -13.3 -4.25 L-6.8 -3.2 M-1.15 -2.85 L13.25 -2.15 Q13.9 6.7 4.85 5.7 -2.25 4.55 -1.15 -2.85 Z" fill="none" stroke="#000000" stroke-linecap="round" stroke-linejoin="round" stroke-width="1.5"/>
    </g>
    <g id="sprite23" transform="matrix(1.0, 0.0, 0.0, 1.0, 19.6, 13.45)">
      <use ffdec:characterId="1358" height="25.15" id="mc100" transform="matrix(1.0, 0.0, 0.0, 1.0, -18.7, -12.55)" width="37.45" xlink:href="#sprite24"/>
      <use ffdec:characterId="308" height="26.95" transform="matrix(1.0, 0.0, 0.0, 1.0, -19.6, -13.45)" width="39.25" xlink:href="#shape28"/>
    </g>
    <g id="sprite24" transform="matrix(1.0, 0.0, 0.0, 1.0, 18.7, 12.55)">
      <use ffdec:characterId="306" height="25.15" transform="matrix(1.0, 0.0, 0.0, 1.0, -18.7, -12.55)" width="37.45" xlink:href="#shape27"/>
    </g>
    <g id="shape27" transform="matrix(1.0, 0.0, 0.0, 1.0, 18.7, 12.55)">
      <path d="M18.75 6.4 Q1.5 17.3 -18.7 9.1 -18.45 -2.95 -3.8 -12.15 10.25 -15.05 17.25 2.15 L18.75 6.4" fill="#0099cc" fill-rule="evenodd" stroke="none"/>
    </g>
    <g id="shape28" transform="matrix(1.0, 0.0, 0.0, 1.0, 19.6, 13.45)">
      <path d="M18.75 6.4 Q1.5 17.3 -18.7 9.1 -18.45 -2.95 -3.8 -12.15 10.25 -15.05 17.25 2.15 L18.75 6.4 Z" fill="none" stroke="#000000" stroke-linecap="round" stroke-linejoin="round" stroke-width="1.8"/>
    </g>
    <g id="sprite25" transform="matrix(1.0, 0.0, 0.0, 1.0, 10.3, 21.6)">
      <use ffdec:characterId="1360" height="41.45" id="mc100" transform="matrix(1.0, 0.0, 0.0, 1.0, -9.4, -20.7)" width="19.1" xlink:href="#sprite26"/>
      <use ffdec:characterId="207" height="43.25" transform="matrix(1.0, 0.0, 0.0, 1.0, -10.3, -21.6)" width="20.9" xlink:href="#shape30"/>
    </g>
    <g id="sprite26" transform="matrix(1.0, 0.0, 0.0, 1.0, 9.55, 20.7)">
      <use ffdec:characterId="205" height="41.45" transform="matrix(1.0, 0.0, 0.0, 1.0, -9.55, -20.7)" width="19.1" xlink:href="#shape29"/>
    </g>
    <g id="shape29" transform="matrix(1.0, 0.0, 0.0, 1.0, 9.55, 20.7)">
      <path d="M-9.55 -16.75 Q-9.8 -21.9 -5.8 -20.3 1.4 -17.55 4.95 -4.65 L8.95 10.35 Q10.8 17.65 7.15 19.95 0.45 24.3 -3.6 5.45 L-9.55 -16.75" fill="#ff9900" fill-rule="evenodd" stroke="none"/>
    </g>
    <g id="shape30" transform="matrix(1.0, 0.0, 0.0, 1.0, 10.3, 21.6)">
      <path d="M-9.4 -16.75 L-3.45 5.45 Q0.6 24.3 7.3 19.95 10.95 17.65 9.1 10.35 L5.1 -4.65 Q1.55 -17.55 -5.65 -20.3 -9.65 -21.9 -9.4 -16.75 Z" fill="none" stroke="#000000" stroke-linecap="round" stroke-linejoin="round" stroke-width="1.8"/>
    </g>
    <g id="sprite27" transform="matrix(1.0, 0.0, 0.0, 1.0, 22.8, 9.15)">
      <use ffdec:characterId="1362" height="16.35" id="mc100" transform="matrix(1.0, 0.0, 0.0, 1.0, -22.05, -8.4)" width="44.55" xlink:href="#sprite28"/>
      <use ffdec:characterId="304" height="17.85" transform="matrix(1.0, 0.0, 0.0, 1.0, -22.8, -9.15)" width="46.05" xlink:href="#shape32"/>
    </g>
    <g id="sprite28" transform="matrix(1.0, 0.0, 0.0, 1.0, 22.25, 8.2)">
      <use ffdec:characterId="302" height="16.35" transform="matrix(1.0, 0.0, 0.0, 1.0, -22.25, -8.2)" width="44.55" xlink:href="#shape31"/>
    </g>
    <g id="shape31" transform="matrix(1.0, 0.0, 0.0, 1.0, 22.25, 8.2)">
      <path d="M21.9 5.75 Q20.1 11.45 7.6 3.75 -4.95 -4.0 -22.25 5.05 -8.55 -16.7 17.55 -2.7 23.7 0.05 21.9 5.75" fill="#ff9900" fill-rule="evenodd" stroke="none"/>
    </g>
    <g id="shape32" transform="matrix(1.0, 0.0, 0.0, 1.0, 22.8, 9.15)">
      <path d="M22.1 5.55 Q23.9 -0.15 17.75 -2.9 -8.35 -16.9 -22.05 4.85 -4.75 -4.2 7.8 3.55 20.3 11.25 22.1 5.55 Z" fill="none" stroke="#000000" stroke-linecap="round" stroke-linejoin="round" stroke-width="1.5"/>
    </g>
    <g id="sprite29" transform="matrix(1.0, 0.0, 0.0, 1.0, 22.75, 18.95)">
      <use ffdec:characterId="1364" height="35.65" id="mc100" transform="matrix(1.0, 0.0, 0.0, 1.0, -21.85, -18.05)" width="39.65" xlink:href="#sprite30"/>
      <use ffdec:characterId="312" height="37.45" transform="matrix(1.0, 0.0, 0.0, 1.0, -22.75, -18.95)" width="41.45" xlink:href="#shape34"/>
    </g>
    <g id="sprite30" transform="matrix(1.0, 0.0, 0.0, 1.0, 19.85, 17.85)">
      <use ffdec:characterId="310" height="35.65" transform="matrix(1.0, 0.0, 0.0, 1.0, -19.85, -17.85)" width="39.65" xlink:href="#shape33"/>
    </g>
    <g id="shape33" transform="matrix(1.0, 0.0, 0.0, 1.0, 19.85, 17.85)">
      <path d="M19.55 10.85 Q21.15 18.75 11.6 17.7 2.65 -4.15 -19.85 -16.7 -8.75 -20.05 3.45 -13.65 15.65 -7.25 19.55 10.85" fill="#ff9900" fill-rule="evenodd" stroke="none"/>
    </g>
    <g id="shape34" transform="matrix(1.0, 0.0, 0.0, 1.0, 22.75, 18.95)">
      <path d="M17.55 10.65 Q13.65 -7.45 1.45 -13.85 -10.75 -20.25 -21.85 -16.9 0.65 -4.35 9.6 17.5" fill="none" stroke="#000000" stroke-linecap="round" stroke-linejoin="round" stroke-width="1.8"/>
      <path d="M9.6 17.5 Q19.15 18.55 17.55 10.65" fill="none" stroke="#000000" stroke-linecap="round" stroke-linejoin="round" stroke-width="1.8"/>
    </g>
    <g id="sprite31" transform="matrix(1.0, 0.0, 0.0, 1.0, 19.75, 25.6)">
      <use ffdec:characterId="1366" height="49.4" id="mc100" transform="matrix(1.0, 0.0, 0.0, 1.0, -18.85, -24.7)" width="37.9" xlink:href="#sprite32"/>
      <use ffdec:characterId="316" height="51.2" transform="matrix(1.0, 0.0, 0.0, 1.0, -19.75, -25.6)" width="39.7" xlink:href="#shape36"/>
    </g>
    <g id="sprite32" transform="matrix(1.0, 0.0, 0.0, 1.0, 18.95, 24.7)">
      <use ffdec:characterId="314" height="49.4" transform="matrix(1.0, 0.0, 0.0, 1.0, -18.95, -24.7)" width="37.9" xlink:href="#shape35"/>
    </g>
    <g id="shape35" transform="matrix(1.0, 0.0, 0.0, 1.0, 18.95, 24.7)">
      <path d="M-13.85 -24.3 Q-8.0 -26.3 2.6 -17.75 14.4 -8.3 18.8 11.75 19.35 15.35 18.1 17.05 16.85 18.75 14.6 19.1 12.35 19.4 8.75 15.7 8.5 21.0 5.0 23.9 0.4 27.3 -1.85 16.35 -5.7 -3.0 -18.95 -19.5 -18.2 -23.5 -13.85 -24.3" fill="#ff9900" fill-rule="evenodd" stroke="none"/>
    </g>
    <g id="shape36" transform="matrix(1.0, 0.0, 0.0, 1.0, 19.75, 25.6)">
      <path d="M-13.75 -24.3 Q-7.9 -26.3 2.7 -17.75 14.5 -8.3 18.9 11.75 19.45 15.35 18.2 17.05 16.95 18.75 14.7 19.1 12.45 19.4 8.85 15.7 8.6 21.0 5.1 23.9 0.5 27.3 -1.75 16.35 -5.6 -3.0 -18.85 -19.5 -18.1 -23.5 -13.75 -24.3 M-13.6 -20.15 Q6.65 -7.35 8.65 13.75 L8.85 15.7" fill="none" stroke="#000000" stroke-linecap="round" stroke-linejoin="round" stroke-width="1.8"/>
    </g>
    <g id="shape37" transform="matrix(1.0, 0.0, 0.0, 1.0, -0.15, 1.25)">
      <path d="M1.4 -1.25 L2.25 -0.9 Q2.65 -0.5 2.65 0.0 2.65 0.5 2.25 0.85 1.9 1.25 1.4 1.25 0.9 1.25 0.5 0.85 0.15 0.5 0.15 0.0 0.15 -0.5 0.5 -0.9 0.9 -1.25 1.4 -1.25" fill="#ffffff" fill-rule="evenodd" stroke="none"/>
    </g>
  </defs>
</svg>
