<?xml version="1.0" encoding="UTF-8" standalone="no"?>
<svg xmlns:ffdec="https://www.free-decompiler.com/flash" xmlns:xlink="http://www.w3.org/1999/xlink" ffdec:objectType="frame" height="114.75px" width="60.5px" xmlns="http://www.w3.org/2000/svg">
  <g transform="matrix(1.0, 0.0, 0.0, 1.0, 31.95, 111.05)">
    <use ffdec:characterId="269" height="22.7" id="mc600" transform="matrix(1.0, 0.0, 0.0, 1.0, 2.5, -34.75)" width="7.3" xlink:href="#sprite0"/>
    <use ffdec:characterId="270" height="15.4" id="mc500" transform="matrix(1.0, 0.0, 0.0, 1.0, 0.9, -13.35)" width="5.35" xlink:href="#sprite1"/>
    <use ffdec:characterId="271" height="27.65" id="mc400" transform="matrix(1.0, 0.0, 0.0, 1.0, -12.05, -36.4)" width="22.1" xlink:href="#sprite2"/>
    <use ffdec:characterId="272" height="15.4" id="mc300" transform="matrix(1.0, 0.0, 0.0, 1.0, -8.3, -11.7)" width="5.35" xlink:href="#sprite3"/>
    <use ffdec:characterId="273" height="22.7" id="mc200" transform="matrix(1.0, 0.0, 0.0, 1.0, -14.2, -32.95)" width="7.3" xlink:href="#sprite4"/>
    <use ffdec:characterId="62" height="50.95" id="mc100" transform="matrix(1.15, 0.0, 0.0, 1.15, -31.9625, -87.2125)" width="51.65" xlink:href="#sprite5"/>
    <use ffdec:characterId="274" height="0.0" id="hat" transform="matrix(-1.0, 0.0, 0.0, 1.0, 28.55, -111.05)" width="0.0" xlink:href="#sprite10"/>
  </g>
  <defs>
    <g id="sprite0" transform="matrix(1.0, 0.0, 0.0, 1.0, 2.05, 0.95)">
      <use ffdec:characterId="268" height="22.7" transform="matrix(1.0, 0.0, 0.0, 1.0, -2.05, -0.95)" width="7.3" xlink:href="#shape0"/>
    </g>
    <g id="shape0" transform="matrix(1.0, 0.0, 0.0, 1.0, 2.05, 0.95)">
      <path d="M0.3 1.8 Q-0.1 0.25 2.2 -0.35 4.5 -0.75 4.6 0.2 L4.6 0.3 4.6 0.35 4.6 0.45 4.55 0.8 4.5 0.9 4.05 4.4 3.65 8.5 Q3.55 13.35 3.7 17.45 3.6 20.5 2.35 20.9 1.05 21.25 -0.15 20.5 -1.45 19.75 -1.25 17.45 L0.3 1.8 3.45 1.3 4.5 0.9 4.6 0.45 4.5 0.9 3.45 1.3 0.3 1.8 M-1.25 17.45 L3.7 17.45 -1.25 17.45" fill="#e2e1dc" fill-rule="evenodd" stroke="none"/>
      <path d="M0.3 1.8 Q-0.1 0.25 2.2 -0.35 4.5 -0.75 4.6 0.2 L4.6 0.3 4.6 0.35 4.6 0.45 4.55 0.8 4.5 0.9 4.6 0.45 M0.3 1.8 L3.45 1.3 4.5 0.9 M3.7 17.45 L-1.25 17.45" fill="none" stroke="#000000" stroke-linecap="round" stroke-linejoin="round" stroke-width="1.0"/>
      <path d="M4.5 0.9 L4.05 4.4 3.65 8.5 Q3.55 13.35 3.7 17.45 3.6 20.5 2.35 20.9 1.05 21.25 -0.15 20.5 -1.45 19.75 -1.25 17.45 L0.3 1.8" fill="none" stroke="#000000" stroke-linecap="round" stroke-linejoin="round" stroke-width="1.5"/>
    </g>
    <g id="sprite1" transform="matrix(1.0, 0.0, 0.0, 1.0, -1.1, -2.75)">
      <use ffdec:characterId="48" height="15.4" transform="matrix(1.0, 0.0, 0.0, 1.0, 1.1, 2.75)" width="5.35" xlink:href="#shape1"/>
    </g>
    <g id="shape1" transform="matrix(1.0, 0.0, 0.0, 1.0, 0.6, -1.6)">
      <path d="M-0.1 14.25 L-0.05 7.75 0.0 6.2 Q0.25 4.0 0.6 3.1 0.85 2.2 2.4 2.1 3.45 2.25 3.9 3.35 L4.25 5.75 4.25 6.0 4.15 6.7 3.8 14.25 1.35 14.45 -0.1 14.25 1.35 14.45 3.8 14.25 Q3.65 16.35 1.95 16.5 -0.05 16.35 -0.1 14.25" fill="#e2e1dc" fill-rule="evenodd" stroke="none"/>
      <path d="M3.8 14.25 L4.15 6.7 4.25 6.0 4.25 5.75 3.9 3.35 Q3.45 2.25 2.4 2.1 0.85 2.2 0.6 3.1 0.25 4.0 0.0 6.2 L-0.05 7.75 -0.1 14.25 1.35 14.45 3.8 14.25 Q3.65 16.35 1.95 16.5 -0.05 16.35 -0.1 14.25" fill="none" stroke="#000000" stroke-linecap="round" stroke-linejoin="round" stroke-width="1.0"/>
    </g>
    <g id="sprite2" transform="matrix(1.0, 0.0, 0.0, 1.0, 0.5, 0.5)">
      <use ffdec:characterId="51" height="27.65" transform="matrix(1.0, 0.0, 0.0, 1.0, -0.5, -0.5)" width="22.1" xlink:href="#shape2"/>
    </g>
    <g id="shape2" transform="matrix(1.0, 0.0, 0.0, 1.0, 0.5, 0.5)">
      <path d="M11.4 0.55 Q13.2 1.5 14.7 4.15 17.5 8.35 14.6 12.4 14.65 13.3 12.05 14.55 L10.7 15.15 8.85 15.75 10.7 15.15 12.05 14.55 Q14.65 13.3 14.6 12.4 17.5 8.35 14.7 4.15 13.2 1.5 11.4 0.55 13.6 0.4 16.1 1.8 21.95 8.5 20.6 12.85 19.25 17.15 12.55 16.15 L12.65 18.5 12.6 19.5 12.2 21.8 Q11.8 23.25 9.05 21.15 L9.0 19.55 9.05 18.5 9.0 19.55 9.05 21.15 Q11.8 23.25 12.2 21.8 L12.6 19.5 12.65 18.5 Q16.8 18.15 17.7 20.3 18.65 22.45 17.2 23.1 17.05 25.7 14.05 26.25 12.15 25.85 11.3 24.9 10.5 26.2 8.3 26.3 L5.05 25.85 4.15 25.35 Q2.95 23.65 3.35 22.8 1.45 21.3 2.6 19.3 3.45 18.3 5.1 18.4 L7.95 18.3 Q8.75 18.05 9.05 18.5 9.15 17.2 8.85 15.75 L7.95 16.0 5.4 16.4 Q3.1 16.75 2.95 12.6 L2.75 6.65 Q2.7 4.8 4.45 2.7 L7.45 1.75 8.0 0.2 7.45 1.75 4.45 2.7 4.05 2.85 3.3 3.05 1.45 3.55 0.85 3.65 0.05 3.7 Q-0.1 3.55 0.3 2.55 0.75 1.5 2.2 1.45 3.65 1.4 5.1 0.7 6.6 -0.05 8.0 0.2 L8.05 0.2 8.6 0.05 Q10.1 -0.15 11.4 0.55 M18.05 5.6 L18.2 9.0 19.45 9.3 18.2 9.0 17.9 10.85 17.4 11.85 16.6 12.75 18.75 13.6 16.6 12.75 17.4 11.85 17.9 10.85 18.2 9.0 18.05 5.6 M12.05 14.55 L12.55 16.15 12.05 14.55 M7.45 24.25 L7.95 24.3 8.35 24.1 8.4 23.75 8.15 23.45 7.85 23.3 7.5 23.4 7.3 23.9 7.45 24.25 M14.45 24.3 L14.85 24.1 14.9 23.75 14.65 23.45 14.35 23.3 14.0 23.4 13.8 23.9 13.95 24.25 14.45 24.3 M5.2 6.25 Q9.45 4.55 12.45 5.05 9.45 4.55 5.2 6.25 M5.35 13.45 Q9.45 11.4 13.15 11.2 9.45 11.4 5.35 13.45 M4.6 9.85 Q9.45 8.2 13.6 8.45 9.45 8.2 4.6 9.85 M16.6 12.75 Q15.6 13.5 14.6 12.4 15.6 13.5 16.6 12.75" fill="#e2e1dc" fill-rule="evenodd" stroke="none"/>
      <path d="M19.45 9.3 L18.2 9.0 17.9 10.85 17.4 11.85 16.6 12.75 18.75 13.6 M18.2 9.0 L18.05 5.6 M8.85 15.75 L10.7 15.15 12.05 14.55 Q14.65 13.3 14.6 12.4 17.5 8.35 14.7 4.15 13.2 1.5 11.4 0.55 10.1 -0.15 8.6 0.05 L8.05 0.2 8.0 0.2 7.45 1.75 4.45 2.7 4.05 2.85 3.3 3.05 1.45 3.55 0.85 3.65 0.05 3.7 Q-0.1 3.55 0.3 2.55 0.75 1.5 2.2 1.45 3.65 1.4 5.1 0.7 6.6 -0.05 8.0 0.2 M9.05 18.5 L9.0 19.55 9.05 21.15 Q11.8 23.25 12.2 21.8 L12.6 19.5 12.65 18.5 M16.1 1.8 Q13.6 0.4 11.4 0.55 M14.6 12.4 Q15.6 13.5 16.6 12.75 M13.6 8.45 Q9.45 8.2 4.6 9.85 M13.15 11.2 Q9.45 11.4 5.35 13.45 M12.45 5.05 Q9.45 4.55 5.2 6.25" fill="none" stroke="#000000" stroke-linecap="round" stroke-linejoin="round" stroke-width="1.0"/>
      <path d="M4.45 2.7 Q2.7 4.8 2.75 6.65 L2.95 12.6 Q3.1 16.75 5.4 16.4 L7.95 16.0 8.85 15.75 Q9.15 17.2 9.05 18.5 8.75 18.05 7.95 18.3 L5.1 18.4 Q3.45 18.3 2.6 19.3 1.45 21.3 3.35 22.8 2.95 23.65 4.15 25.35 L5.05 25.85 8.3 26.3 Q10.5 26.2 11.3 24.9 12.15 25.85 14.05 26.25 17.05 25.7 17.2 23.1 18.65 22.45 17.7 20.3 16.8 18.15 12.65 18.5 L12.55 16.15 12.05 14.55 M12.55 16.15 Q19.25 17.15 20.6 12.85 21.95 8.5 16.1 1.8" fill="none" stroke="#000000" stroke-linecap="round" stroke-linejoin="round" stroke-width="1.5"/>
      <path d="M7.45 24.25 L7.95 24.3 8.35 24.1 8.4 23.75 8.15 23.45 7.85 23.3 7.5 23.4 7.3 23.9 7.45 24.25 M14.45 24.3 L14.85 24.1 14.9 23.75 14.65 23.45 14.35 23.3 14.0 23.4 13.8 23.9 13.95 24.25 14.45 24.3 Z" fill="none" stroke="#000000" stroke-linecap="round" stroke-linejoin="round" stroke-width="0.5"/>
      <path d="M2.75 25.15 Q2.35 23.65 4.8 23.0 7.6 23.0 8.5 23.9 L8.8 24.8 Q9.05 25.65 6.7 26.35 L3.3 26.2 2.75 25.15" fill="#e2e1dc" fill-rule="evenodd" stroke="none"/>
      <path d="M2.75 25.15 L3.3 26.2 6.7 26.35 Q9.05 25.65 8.8 24.8 L8.5 23.9 Q7.6 23.0 4.8 23.0 2.35 23.65 2.75 25.15 Z" fill="none" stroke="#000000" stroke-linecap="round" stroke-linejoin="round" stroke-width="1.0"/>
    </g>
    <g id="sprite3" transform="matrix(1.0, 0.0, 0.0, 1.0, -0.5, -2.4)">
      <use ffdec:characterId="48" height="15.4" transform="matrix(1.0, 0.0, 0.0, 1.0, 0.5, 2.4)" width="5.35" xlink:href="#shape1"/>
    </g>
    <g id="sprite4" transform="matrix(1.0, 0.0, 0.0, 1.0, 2.25, 0.75)">
      <use ffdec:characterId="46" height="22.7" transform="matrix(1.0, 0.0, 0.0, 1.0, -2.25, -0.75)" width="7.3" xlink:href="#shape3"/>
    </g>
    <g id="shape3" transform="matrix(1.0, 0.0, 0.0, 1.0, 2.25, 0.75)">
      <path d="M0.1 2.0 Q-0.3 0.45 2.0 -0.15 4.3 -0.55 4.4 0.4 L4.4 0.5 4.4 0.55 4.4 0.65 4.35 1.0 4.3 1.1 3.85 4.6 3.45 8.7 Q3.35 13.55 3.5 17.65 3.4 20.7 2.15 21.1 0.85 21.45 -0.35 20.7 -1.65 19.95 -1.45 17.65 L0.1 2.0 3.25 1.5 4.3 1.1 4.4 0.65 4.3 1.1 3.25 1.5 0.1 2.0 M-1.45 17.65 L3.5 17.65 -1.45 17.65" fill="#e2e1dc" fill-rule="evenodd" stroke="none"/>
      <path d="M0.1 2.0 Q-0.3 0.45 2.0 -0.15 4.3 -0.55 4.4 0.4 L4.4 0.5 4.4 0.55 4.4 0.65 4.35 1.0 4.3 1.1 4.4 0.65 M0.1 2.0 L3.25 1.5 4.3 1.1 M3.5 17.65 L-1.45 17.65" fill="none" stroke="#000000" stroke-linecap="round" stroke-linejoin="round" stroke-width="1.0"/>
      <path d="M4.3 1.1 L3.85 4.6 3.45 8.7 Q3.35 13.55 3.5 17.65 3.4 20.7 2.15 21.1 0.85 21.45 -0.35 20.7 -1.65 19.95 -1.45 17.65 L0.1 2.0" fill="none" stroke="#000000" stroke-linecap="round" stroke-linejoin="round" stroke-width="1.5"/>
    </g>
    <g id="sprite5" transform="matrix(1.0, 0.0, 0.0, 1.0, 0.75, 0.75)">
      <use ffdec:characterId="55" height="21.45" id="mc100" transform="matrix(1.0, 0.0, 0.0, 1.0, 11.85, 28.75)" width="34.4" xlink:href="#sprite6"/>
      <use ffdec:characterId="61" height="44.15" id="mc000" transform="matrix(1.0, 0.0, 0.0, 1.0, -0.75, -0.75)" width="51.65" xlink:href="#sprite7"/>
    </g>
    <g id="sprite6" transform="matrix(1.0, 0.0, 0.0, 1.0, 0.75, 0.75)">
      <use ffdec:characterId="54" height="21.45" transform="matrix(1.0, 0.0, 0.0, 1.0, -0.75, -0.75)" width="34.4" xlink:href="#shape4"/>
    </g>
    <g id="shape4" transform="matrix(1.0, 0.0, 0.0, 1.0, 0.75, 0.75)">
      <path d="M30.9 12.6 L32.2 12.35 32.65 12.25 32.45 14.3 32.25 14.4 Q28.2 16.0 21.65 15.45 L18.05 14.9 14.05 13.8 13.95 12.9 13.9 12.0 17.8 12.95 22.35 13.4 27.95 13.1 30.9 12.6" fill="#f3f3f3" fill-rule="evenodd" stroke="none"/>
      <path d="M30.9 12.6 L27.95 13.1 Q23.1 9.75 22.85 4.7 22.75 0.75 24.6 0.65 26.85 0.3 26.7 4.5 27.2 9.9 30.9 12.6 M13.95 12.9 L14.05 13.8 18.05 14.9 21.65 15.45 Q28.2 16.0 32.25 14.4 L32.45 14.3 Q33.35 14.75 32.45 15.9 L32.8 17.3 Q33.3 18.6 30.55 19.25 23.45 20.8 16.8 18.8 L7.05 16.2 Q2.15 15.45 1.5 13.3 L0.55 8.65 Q-0.55 2.8 0.65 1.4 2.3 -0.5 4.5 0.15 8.8 1.25 9.8 8.65 9.75 12.65 13.95 12.9" fill="#e2e1dc" fill-rule="evenodd" stroke="none"/>
      <path d="M32.45 14.3 L32.65 12.25 32.2 12.35 30.9 12.6 27.95 13.1 22.35 13.4 17.8 12.95 13.9 12.0 13.95 12.9 14.05 13.8 18.05 14.9 21.65 15.45 Q28.2 16.0 32.25 14.4 L32.45 14.3 M4.5 0.15 Q8.8 1.25 9.8 8.65 9.75 12.65 13.95 12.9 M30.9 12.6 Q27.2 9.9 26.7 4.5 26.85 0.3 24.6 0.65 22.75 0.75 22.85 4.7 23.1 9.75 27.95 13.1" fill="none" stroke="#000000" stroke-linecap="round" stroke-linejoin="round" stroke-width="1.0"/>
      <path d="M32.45 14.3 Q33.35 14.75 32.45 15.9 L32.8 17.3 Q33.3 18.6 30.55 19.25 23.45 20.8 16.8 18.8 L7.05 16.2 Q2.15 15.45 1.5 13.3 L0.55 8.65 Q-0.55 2.8 0.65 1.4 2.3 -0.5 4.5 0.15" fill="none" stroke="#000000" stroke-linecap="round" stroke-linejoin="round" stroke-width="1.5"/>
    </g>
    <g id="sprite7" transform="matrix(1.0, 0.0, 0.0, 1.0, 0.75, 0.75)">
      <use ffdec:characterId="59" height="12.85" id="mc100" transform="matrix(1.0, 0.0, 0.0, 1.0, 20.4, 20.55)" width="28.15" xlink:href="#sprite8"/>
      <use ffdec:characterId="60" height="44.15" transform="matrix(1.0, 0.0, 0.0, 1.0, -0.75, -0.75)" width="51.65" xlink:href="#shape7"/>
    </g>
    <g id="sprite8" transform="matrix(1.0, 0.0, 0.0, 1.0, 0.0, 0.0)">
      <use ffdec:characterId="57" height="12.85" id="mc100" transform="matrix(1.0, 0.0, 0.0, 1.0, 0.0, 0.0)" width="28.15" xlink:href="#sprite9"/>
      <use ffdec:characterId="58" height="12.45" transform="matrix(1.0, 0.0, 0.0, 1.0, 0.95, 0.4)" width="27.2" xlink:href="#shape6"/>
    </g>
    <g id="sprite9" transform="matrix(1.0, 0.0, 0.0, 1.0, 0.0, 0.0)">
      <use ffdec:characterId="56" height="12.85" transform="matrix(1.0, 0.0, 0.0, 1.0, 0.0, 0.0)" width="28.15" xlink:href="#shape5"/>
    </g>
    <g id="shape5" transform="matrix(1.0, 0.0, 0.0, 1.0, 0.0, 0.0)">
      <path d="M27.25 0.65 Q27.9 0.9 28.1 2.0 L28.15 2.45 28.15 3.05 28.0 5.1 Q28.4 9.2 26.6 9.7 L24.25 9.95 23.25 9.65 22.65 8.35 22.6 8.35 Q22.1 7.65 21.6 7.6 21.1 6.5 20.95 5.5 L20.9 3.9 Q20.95 3.35 21.15 2.85 22.3 0.7 23.95 0.2 L25.4 0.05 26.55 0.4 27.25 0.65 M13.35 6.5 Q13.6 9.85 10.4 11.65 L8.8 12.4 4.35 12.7 3.55 12.5 2.65 12.2 0.95 10.65 Q0.25 9.8 0.05 8.75 -0.1 7.8 0.15 6.7 0.85 4.6 3.25 3.35 4.85 2.35 7.15 1.75 L7.85 1.6 8.1 1.55 9.0 1.45 10.1 1.55 Q12.5 2.1 13.2 5.35 L13.35 6.5" fill="#ff0000" fill-rule="evenodd" stroke="none"/>
    </g>
    <g id="shape6" transform="matrix(1.0, 0.0, 0.0, 1.0, -0.95, -0.4)">
      <path d="M27.25 0.65 Q27.9 0.9 28.1 2.0 L28.15 2.45 28.15 3.05 28.0 5.1 Q28.4 9.2 26.6 9.7 L24.25 9.95 23.25 9.65 22.65 8.35 Q28.2 10.75 26.55 0.45 L26.55 0.4 27.25 0.65 M13.35 6.5 Q13.6 9.85 10.4 11.65 L8.8 12.4 4.35 12.7 3.55 12.5 2.65 12.2 0.95 10.65 Q4.9 12.15 9.4 10.25 13.95 8.35 9.0 1.45 L10.1 1.55 Q12.5 2.1 13.2 5.35 L13.35 6.5" fill="#000000" fill-opacity="0.2" fill-rule="evenodd" stroke="none"/>
    </g>
    <g id="shape7" transform="matrix(1.0, 0.0, 0.0, 1.0, 0.75, 0.75)">
      <path d="M41.55 23.4 Q41.35 23.9 41.3 24.45 L41.35 26.05 Q41.5 27.05 42.0 28.15 42.5 28.2 43.0 28.9 L43.05 28.9 43.65 30.2 44.65 30.5 47.0 30.25 Q48.8 29.75 48.4 25.65 L48.55 23.6 48.55 23.0 48.5 22.55 Q48.3 21.45 47.65 21.2 L46.95 20.95 45.8 20.6 44.35 20.75 Q42.7 21.25 41.55 23.4 M39.0 2.05 Q46.35 6.15 48.1 12.85 49.85 19.55 49.65 21.05 L49.2 22.95 49.15 23.05 Q49.0 26.0 49.9 28.95 L50.0 29.05 Q50.95 34.7 45.55 38.1 46.1 39.25 45.0 39.7 40.4 41.0 34.7 41.1 L30.8 41.05 30.25 41.0 Q27.05 40.65 26.35 39.8 25.85 38.4 22.65 38.15 L22.8 38.15 22.75 38.15 22.4 38.15 20.85 38.0 19.95 37.85 19.35 37.75 18.2 37.4 14.75 36.9 Q13.95 37.0 12.75 36.4 L13.15 38.15 Q11.95 38.15 10.8 37.0 8.5 37.7 6.5 36.05 0.15 29.95 0.0 21.9 -0.2 16.0 3.3 11.05 5.95 7.05 9.75 4.75 10.5 8.55 21.55 8.05 35.6 7.15 39.0 2.05 M9.9 34.15 Q11.9 33.65 12.75 36.4 11.9 33.65 9.9 34.15 M43.3 35.7 Q42.2 29.95 41.25 31.0 L39.8 32.95 Q39.25 33.6 38.85 34.4 L38.3 35.5 38.1 36.05 Q37.65 37.4 39.0 37.65 L39.5 37.7 Q40.8 37.75 41.85 36.75 43.55 37.85 43.3 35.7 M29.4 22.0 L28.5 22.1 28.25 22.15 27.55 22.3 Q25.25 22.9 23.65 23.9 21.25 25.15 20.55 27.25 20.3 28.35 20.45 29.3 20.65 30.35 21.35 31.2 L23.05 32.75 23.95 33.05 24.75 33.25 29.2 32.95 30.8 32.2 Q34.0 30.4 33.75 27.05 L33.6 25.9 Q32.9 22.65 30.5 22.1 L29.4 22.0 M25.0 37.65 L24.85 37.65 24.75 37.7 25.0 37.65" fill="#e2e1dc" fill-rule="evenodd" stroke="none"/>
      <path d="M43.3 35.7 Q43.55 37.85 41.85 36.75 40.8 37.75 39.5 37.7 L39.0 37.65 Q37.65 37.4 38.1 36.05 L38.3 35.5 38.85 34.4 Q39.25 33.6 39.8 32.95 L41.25 31.0 Q42.2 29.95 43.3 35.7" fill="#25211d" fill-rule="evenodd" stroke="none"/>
      <path d="M39.0 2.05 Q35.6 7.15 21.55 8.05 10.5 8.55 9.75 4.75 14.9 1.5 21.4 0.5 31.8 -1.0 39.0 2.05 M45.0 39.7 L45.25 41.75 44.8 41.85 Q39.55 42.95 34.95 42.9 L30.4 42.45 26.5 41.5 26.35 39.8 Q27.05 40.65 30.25 41.0 L30.8 41.05 34.7 41.1 Q40.4 41.0 45.0 39.7" fill="#f3f3f3" fill-rule="evenodd" stroke="none"/>
      <path d="M41.55 23.4 Q42.7 21.25 44.35 20.75 L45.8 20.6 46.95 20.95 47.65 21.2 Q48.3 21.45 48.5 22.55 L48.55 23.0 48.55 23.6 48.4 25.65 Q48.8 29.75 47.0 30.25 L44.65 30.5 43.65 30.2 43.05 28.9 43.0 28.9 Q42.5 28.2 42.0 28.15 41.5 27.05 41.35 26.05 L41.3 24.45 Q41.35 23.9 41.55 23.4 M13.15 38.15 L12.75 36.4 Q11.9 33.65 9.9 34.15 M43.3 35.7 Q42.2 29.95 41.25 31.0 L39.8 32.95 Q39.25 33.6 38.85 34.4 L38.3 35.5 38.1 36.05 Q37.65 37.4 39.0 37.65 L39.5 37.7 Q40.8 37.75 41.85 36.75 43.55 37.85 43.3 35.7 M26.35 39.8 L26.5 41.5 30.4 42.45 34.95 42.9 Q39.55 42.95 44.8 41.85 L45.25 41.75 45.0 39.7 Q40.4 41.0 34.7 41.1 L30.8 41.05 30.25 41.0 Q27.05 40.65 26.35 39.8 25.85 38.4 22.65 38.15 L22.8 38.15 22.75 38.15 22.4 38.15 20.85 38.0 19.95 37.85 19.35 37.75 18.2 37.4 14.75 36.9 Q13.95 37.0 12.75 36.4 M29.4 22.0 L28.5 22.1 28.25 22.15 27.55 22.3 Q25.25 22.9 23.65 23.9 21.25 25.15 20.55 27.25 20.3 28.35 20.45 29.3 20.65 30.35 21.35 31.2 L23.05 32.75 23.95 33.05 24.75 33.25 29.2 32.95 30.8 32.2 Q34.0 30.4 33.75 27.05 L33.6 25.9 Q32.9 22.65 30.5 22.1 L29.4 22.0" fill="none" stroke="#000000" stroke-linecap="round" stroke-linejoin="round" stroke-width="1.0"/>
      <path d="M45.0 39.7 Q46.1 39.25 45.55 38.1 50.95 34.7 50.0 29.05 L49.9 28.95 Q49.0 26.0 49.15 23.05 L49.2 22.95 49.65 21.05 Q49.85 19.55 48.1 12.85 46.35 6.15 39.0 2.05 31.8 -1.0 21.4 0.5 14.9 1.5 9.75 4.75 5.95 7.05 3.3 11.05 -0.2 16.0 0.0 21.9 0.15 29.95 6.5 36.05 8.5 37.7 10.8 37.0 11.95 38.15 13.15 38.15" fill="none" stroke="#000000" stroke-linecap="round" stroke-linejoin="round" stroke-width="1.5"/>
    </g>
  </defs>
</svg>
