<?xml version="1.0" encoding="UTF-8" standalone="no"?>
<svg xmlns:ffdec="https://www.free-decompiler.com/flash" xmlns:xlink="http://www.w3.org/1999/xlink" ffdec:objectType="frame" height="110.75px" width="66.25px" xmlns="http://www.w3.org/2000/svg">
  <g transform="matrix(1.0, 0.0, 0.0, 1.0, 42.0, 107.7)">
    <use ffdec:characterId="895" height="46.55" id="mc1500" transform="matrix(-1.0, 0.0, 0.0, 1.0, 24.25, -60.25)" width="66.25" xlink:href="#sprite0"/>
    <use ffdec:characterId="897" height="25.4" id="mc1400" transform="matrix(-1.0, 0.0, 0.0, 1.0, 16.3, -60.5)" width="36.75" xlink:href="#sprite4"/>
    <use ffdec:characterId="899" height="20.9" id="mc1300" transform="matrix(-1.0, 0.0, 0.0, 1.0, 15.8, -75.95)" width="46.65" xlink:href="#sprite6"/>
    <use ffdec:characterId="904" height="23.95" id="mc1200" transform="matrix(0.8102, -0.5829, 0.5829, 0.8102, -5.581, -26.3121)" width="14.7" xlink:href="#sprite8"/>
    <use ffdec:characterId="906" height="22.9" id="mc1100" transform="matrix(-1.0, 0.0, 0.0, 1.0, 8.5, -22.5)" width="11.75" xlink:href="#sprite13"/>
    <use ffdec:characterId="907" height="22.8" id="mc1000" transform="matrix(1.0, 0.0, 0.0, 1.0, -11.7, -19.75)" width="11.8" xlink:href="#sprite15"/>
    <use ffdec:characterId="909" height="30.7" id="mc900" transform="matrix(-1.0, 0.0, 0.0, 1.0, 12.6, -33.45)" width="25.65" xlink:href="#sprite16"/>
    <use ffdec:characterId="904" height="23.95" id="mc800" transform="matrix(-0.8734, -0.484, -0.484, 0.8734, 0.5816, -25.1617)" width="14.7" xlink:href="#sprite8"/>
    <use ffdec:characterId="913" height="15.95" id="mc700" transform="matrix(-1.0, 0.0, 0.0, 1.0, 1.35, -43.45)" width="22.4" xlink:href="#sprite18"/>
    <use ffdec:characterId="915" height="33.25" id="mc600" transform="matrix(-1.0, 0.0, 0.0, 1.0, 16.8, -45.05)" width="25.6" xlink:href="#sprite22"/>
    <use ffdec:characterId="916" height="15.5" id="mc500" transform="matrix(-1.0, 0.0, 0.0, 1.0, 17.15, -58.25)" width="32.15" xlink:href="#sprite24"/>
    <use ffdec:characterId="918" height="10.85" id="mc400" transform="matrix(-0.7086, 0.0907, 0.0907, 0.7086, 17.4315, -63.3379)" width="20.25" xlink:href="#sprite25"/>
    <use ffdec:characterId="918" height="10.85" id="mc300" transform="matrix(0.9967, -0.0649, 0.0649, 0.9967, -18.0173, -61.1794)" width="20.25" xlink:href="#sprite25"/>
    <use ffdec:characterId="919" height="8.4" transform="matrix(1.0, 0.0, 0.0, 1.0, -1.3, -39.4)" width="11.45" xlink:href="#shape25"/>
    <use ffdec:characterId="923" height="25.85" id="hide_hat" transform="matrix(0.9666, 0.0, 0.0, 1.0, -30.6617, -88.35)" width="47.2" xlink:href="#sprite27"/>
    <use ffdec:characterId="924" height="0.0" id="hat" transform="matrix(-1.0, 0.0, 0.0, 1.0, 17.75, -107.7)" width="0.0" xlink:href="#sprite31"/>
  </g>
  <defs>
    <g id="sprite0" transform="matrix(1.0, 0.0, 0.0, 1.0, 33.1, 23.25)">
      <use ffdec:characterId="894" height="44.75" id="mc100" transform="matrix(1.0, 0.0, 0.0, 1.0, -32.2, -22.35)" width="64.45" xlink:href="#sprite1"/>
      <use ffdec:characterId="108" height="46.55" transform="matrix(1.0, 0.0, 0.0, 1.0, -33.1, -23.25)" width="66.25" xlink:href="#shape2"/>
    </g>
    <g id="sprite1" transform="matrix(1.0, 0.0, 0.0, 1.0, 32.2, 22.35)">
      <use ffdec:characterId="892" height="44.75" id="mc100" transform="matrix(1.0, 0.0, 0.0, 1.0, -32.2, -22.35)" width="64.45" xlink:href="#sprite2"/>
      <use ffdec:characterId="893" height="44.75" id="mc000" transform="matrix(1.0, 0.0, 0.0, 1.0, -32.2, -22.35)" width="64.45" xlink:href="#sprite3"/>
    </g>
    <g id="sprite2" transform="matrix(1.0, 0.0, 0.0, 1.0, 32.2, 22.35)">
      <use ffdec:characterId="103" height="44.75" transform="matrix(1.0, 0.0, 0.0, 1.0, -32.2, -22.35)" width="64.45" xlink:href="#shape0"/>
    </g>
    <g id="shape0" transform="matrix(1.0, 0.0, 0.0, 1.0, 32.2, 22.35)">
      <path d="M32.25 19.6 Q21.25 18.5 18.8 8.2 17.4 15.25 21.35 20.3 -2.9 26.15 -27.2 15.75 L-20.6 11.0 Q-26.8 14.6 -32.2 11.0 -26.2 6.7 -27.2 -1.95 -29.9 -14.7 -24.25 -21.45 L21.35 -22.35 Q33.95 -13.3 28.65 2.85 25.85 12.9 32.25 19.6" fill="#ffffff" fill-rule="evenodd" stroke="none"/>
    </g>
    <g id="sprite3" transform="matrix(1.0, 0.0, 0.0, 1.0, 32.2, 22.35)">
      <use ffdec:characterId="105" height="44.75" transform="matrix(1.0, 0.0, 0.0, 1.0, -32.2, -22.35)" width="64.45" xlink:href="#shape1"/>
    </g>
    <g id="shape1" transform="matrix(1.0, 0.0, 0.0, 1.0, 32.2, 22.35)">
      <path d="M28.65 2.85 Q25.85 12.9 32.25 19.6 21.25 18.5 18.8 8.2 17.4 15.25 21.35 20.3 -2.9 26.15 -27.2 15.75 L-20.6 11.0 Q-26.8 14.6 -32.2 11.0 -26.2 6.7 -27.2 -1.95 -29.9 -14.7 -24.25 -21.45 L21.35 -22.35 Q33.95 -13.3 28.65 2.85" fill="#000000" fill-opacity="0.2" fill-rule="evenodd" stroke="none"/>
    </g>
    <g id="shape2" transform="matrix(1.0, 0.0, 0.0, 1.0, 33.1, 23.25)">
      <path d="M-24.25 -21.45 L21.35 -22.35 Q33.95 -13.3 28.65 2.85 25.85 12.9 32.25 19.6 21.25 18.5 18.8 8.2 17.4 15.25 21.35 20.3 -2.9 26.15 -27.2 15.75 L-20.6 11.0 Q-26.8 14.6 -32.2 11.0 -26.2 6.7 -27.2 -1.95 -29.9 -14.7 -24.25 -21.45 M18.65 7.6 L18.8 8.2" fill="none" stroke="#000000" stroke-linecap="round" stroke-linejoin="round" stroke-width="1.8"/>
    </g>
    <g id="sprite4" transform="matrix(1.0, 0.0, 0.0, 1.0, 18.35, 12.7)">
      <use ffdec:characterId="896" height="23.6" id="mc100" transform="matrix(1.0, 0.0, 0.0, 1.0, -17.45, -11.8)" width="34.95" xlink:href="#sprite5"/>
      <use ffdec:characterId="119" height="25.4" transform="matrix(1.0, 0.0, 0.0, 1.0, -18.35, -12.7)" width="36.75" xlink:href="#shape4"/>
    </g>
    <g id="sprite5" transform="matrix(1.0, 0.0, 0.0, 1.0, 17.45, 11.8)">
      <use ffdec:characterId="117" height="23.6" transform="matrix(1.0, 0.0, 0.0, 1.0, -17.45, -11.8)" width="34.95" xlink:href="#shape3"/>
    </g>
    <g id="shape3" transform="matrix(1.0, 0.0, 0.0, 1.0, 17.45, 11.8)">
      <path d="M0.0 11.8 Q-17.25 10.45 -17.45 -10.65 L17.5 -11.8 17.5 2.3 0.0 11.8" fill="#e1b45a" fill-rule="evenodd" stroke="none"/>
    </g>
    <g id="shape4" transform="matrix(1.0, 0.0, 0.0, 1.0, 18.35, 12.7)">
      <path d="M0.0 11.8 Q-17.25 10.45 -17.45 -10.65 L17.5 -11.8 17.5 2.3 0.0 11.8 Z" fill="none" stroke="#000000" stroke-linecap="round" stroke-linejoin="round" stroke-width="1.8"/>
    </g>
    <g id="sprite6" transform="matrix(1.0, 0.0, 0.0, 1.0, 23.25, 10.55)">
      <use ffdec:characterId="898" height="19.35" id="mc100" transform="matrix(1.0, 0.0, 0.0, 1.0, -22.5, -9.65)" width="45.0" xlink:href="#sprite7"/>
      <use ffdec:characterId="68" height="20.9" transform="matrix(1.0, 0.0, 0.0, 1.0, -23.25, -10.55)" width="46.65" xlink:href="#shape6"/>
    </g>
    <g id="sprite7" transform="matrix(1.0, 0.0, 0.0, 1.0, 22.5, 9.65)">
      <use ffdec:characterId="66" height="19.35" transform="matrix(1.0, 0.0, 0.0, 1.0, -22.5, -9.65)" width="45.0" xlink:href="#shape5"/>
    </g>
    <g id="shape5" transform="matrix(1.0, 0.0, 0.0, 1.0, 22.5, 9.65)">
      <path d="M22.5 -9.1 L22.5 6.85 Q0.0 12.4 -22.5 7.2 L-21.4 -9.65 Q0.0 -3.55 22.5 -9.1" fill="#ff0000" fill-rule="evenodd" stroke="none"/>
    </g>
    <g id="shape6" transform="matrix(1.0, 0.0, 0.0, 1.0, 23.25, 10.55)">
      <path d="M22.5 -9.1 Q0.0 -3.55 -21.4 -9.65 L-22.35 6.2 Q0.0 12.4 22.5 6.85 L22.5 -9.1 Z" fill="none" stroke="#000000" stroke-linecap="round" stroke-linejoin="round" stroke-width="1.8"/>
    </g>
    <g id="sprite8" transform="matrix(1.0, 0.0, 0.0, 1.0, 7.65, 10.95)">
      <use ffdec:characterId="900" height="7.6" id="mc400" transform="matrix(1.0, 0.0, 0.0, 1.0, -6.9, 4.65)" width="9.05" xlink:href="#sprite9"/>
      <use ffdec:characterId="901" height="17.65" id="mc300" transform="matrix(1.0, 0.0, 0.0, 1.0, -6.1, -10.05)" width="12.25" xlink:href="#sprite10"/>
      <use ffdec:characterId="902" height="4.55" id="mc200" transform="matrix(1.0, 0.0, 0.0, 1.0, -4.85, 0.25)" width="8.55" xlink:href="#sprite11"/>
      <use ffdec:characterId="7" height="23.95" transform="matrix(1.0, 0.0, 0.0, 1.0, -7.65, -10.95)" width="14.7" xlink:href="#shape10"/>
      <use ffdec:characterId="903" height="1.55" id="mc101" transform="matrix(1.0, 0.0, 0.0, 1.0, -4.25, 2.5)" width="1.55" xlink:href="#sprite12"/>
    </g>
    <g id="sprite9" transform="matrix(1.0, 0.0, 0.0, 1.0, 4.55, 3.8)">
      <use ffdec:characterId="1" height="7.6" transform="matrix(1.0, 0.0, 0.0, 1.0, -4.55, -3.8)" width="9.05" xlink:href="#shape7"/>
    </g>
    <g id="shape7" transform="matrix(1.0, 0.0, 0.0, 1.0, 4.55, 3.8)">
      <path d="M4.5 -0.85 L2.8 3.05 2.1 3.7 Q1.65 3.9 1.2 3.7 L0.55 3.05 Q0.35 2.55 0.6 2.1 L0.6 1.8 -0.5 1.5 -1.9 0.65 -2.2 0.85 -2.9 1.5 Q-3.35 1.7 -3.8 1.5 L-4.45 0.85 Q-4.65 0.35 -4.4 -0.1 L-2.6 -3.8 4.4 -0.9 4.5 -0.85" fill="#ffcc66" fill-rule="evenodd" stroke="none"/>
    </g>
    <g id="sprite10" transform="matrix(1.0, 0.0, 0.0, 1.0, 6.1, 8.85)">
      <use ffdec:characterId="3" height="17.65" transform="matrix(1.0, 0.0, 0.0, 1.0, -6.1, -8.85)" width="12.25" xlink:href="#shape8"/>
    </g>
    <g id="shape8" transform="matrix(1.0, 0.0, 0.0, 1.0, 6.1, 8.85)">
      <path d="M4.6 -8.65 Q5.8 -8.2 6.1 -6.65 6.45 -5.1 4.0 3.1 L2.15 8.8 2.05 8.75 -6.1 5.4 -3.35 0.0 Q0.7 -7.5 2.05 -8.35 3.35 -9.2 4.6 -8.65" fill="#333333" fill-rule="evenodd" stroke="none"/>
    </g>
    <g id="sprite11" transform="matrix(1.0, 0.0, 0.0, 1.0, 4.3, 2.25)">
      <use ffdec:characterId="5" height="4.55" transform="matrix(1.0, 0.0, 0.0, 1.0, -4.3, -2.25)" width="8.55" xlink:href="#shape9"/>
    </g>
    <g id="shape9" transform="matrix(1.0, 0.0, 0.0, 1.0, 4.3, 2.25)">
      <path d="M-3.8 -1.75 Q-0.3 0.95 3.75 1.8" fill="none" stroke="#ffffff" stroke-linecap="round" stroke-linejoin="round" stroke-width="1.0"/>
    </g>
    <g id="shape10" transform="matrix(1.0, 0.0, 0.0, 1.0, 7.65, 10.95)">
      <path d="M2.05 -9.55 Q0.7 -8.7 -3.35 -1.2 L-6.1 4.2 -4.95 4.65 2.05 7.55 2.15 7.6 4.0 1.9 Q6.45 -6.3 6.1 -7.85 5.8 -9.4 4.6 -9.85 3.35 -10.4 2.05 -9.55 M-4.25 9.1 L-2.85 9.95 -1.75 10.25" fill="none" stroke="#000000" stroke-linecap="round" stroke-linejoin="round" stroke-width="1.8"/>
      <path d="M-1.75 10.25 L-1.75 10.55 Q-2.0 11.0 -1.8 11.5 L-1.15 12.15 Q-0.7 12.35 -0.25 12.15 L0.45 11.5 2.15 7.6 M-4.95 4.65 L-6.75 8.35 Q-7.0 8.8 -6.8 9.3 L-6.15 9.95 Q-5.7 10.15 -5.25 9.95 -4.8 9.75 -4.55 9.3 L-4.25 9.1" fill="none" stroke="#000000" stroke-linecap="round" stroke-linejoin="round" stroke-width="1.5"/>
    </g>
    <g id="sprite12" transform="matrix(1.0, 0.0, 0.0, 1.0, 0.75, 0.75)">
      <use ffdec:characterId="8" height="1.55" transform="matrix(1.0, 0.0, 0.0, 1.0, -0.75, -0.75)" width="1.55" xlink:href="#shape11"/>
    </g>
    <g id="shape11" transform="matrix(1.0, 0.0, 0.0, 1.0, 0.75, 0.75)">
      <path d="M0.55 -0.55 L0.8 0.0 0.55 0.55 0.0 0.8 -0.55 0.55 -0.75 0.0 -0.55 -0.55 0.0 -0.75 0.55 -0.55" fill="#ffffff" fill-rule="evenodd" stroke="none"/>
    </g>
    <g id="sprite13" transform="matrix(1.0, 0.0, 0.0, 1.0, 5.6, 11.4)">
      <use ffdec:characterId="905" height="21.0" id="mc100" transform="matrix(-1.0, 0.0, 0.0, 1.0, 5.4, -10.5)" width="10.0" xlink:href="#sprite14"/>
      <use ffdec:characterId="43" height="22.9" transform="matrix(1.0, 0.0, 0.0, 1.0, -5.6, -11.4)" width="11.75" xlink:href="#shape13"/>
    </g>
    <g id="sprite14" transform="matrix(1.0, 0.0, 0.0, 1.0, 5.0, 10.5)">
      <use ffdec:characterId="11" height="21.0" transform="matrix(1.0, 0.0, 0.0, 1.0, -5.0, -10.5)" width="10.0" xlink:href="#shape12"/>
    </g>
    <g id="shape12" transform="matrix(1.0, 0.0, 0.0, 1.0, 5.0, 10.5)">
      <path d="M0.25 -10.5 Q2.15 -10.55 3.35 -9.35 4.5 -8.25 4.55 -6.5 L5.0 6.2 Q5.0 7.9 3.65 9.2 2.3 10.4 0.35 10.5 -1.3 10.55 -2.75 9.7 L-3.25 9.35 -3.55 9.1 -4.0 8.7 Q-5.0 7.7 -5.0 6.4 L-3.8 -6.2 Q-3.85 -8.0 -2.8 -9.15 L-2.65 -9.3 -2.15 -9.75 -1.85 -9.9 Q-1.0 -10.45 0.25 -10.5" fill="#333333" fill-rule="evenodd" stroke="none"/>
    </g>
    <g id="shape13" transform="matrix(1.0, 0.0, 0.0, 1.0, 5.6, 11.4)">
      <path d="M2.95 -9.5 Q1.65 -10.65 -0.25 -10.5 -1.45 -10.4 -2.3 -9.8 L-2.6 -9.65 -3.05 -9.2 -3.2 -9.05 Q-4.2 -7.8 -4.1 -6.0 L-4.7 6.65 Q-4.65 7.55 -4.1 8.3 -2.25 10.85 0.3 10.6 2.8 10.3 4.05 9.0 5.35 7.65 5.25 5.95 L4.25 -6.7 Q4.1 -8.45 2.95 -9.5 Z" fill="none" stroke="#000000" stroke-linecap="round" stroke-linejoin="round" stroke-width="1.8"/>
    </g>
    <g id="sprite15" transform="matrix(1.0, 0.0, 0.0, 1.0, 5.6, 11.4)">
      <use ffdec:characterId="905" height="21.0" id="mc200" transform="matrix(1.0, 0.0, 0.0, 1.0, -4.7, -10.5)" width="10.0" xlink:href="#sprite14"/>
      <use ffdec:characterId="13" height="22.8" transform="matrix(1.0, 0.0, 0.0, 1.0, -5.6, -11.4)" width="11.8" xlink:href="#shape14"/>
    </g>
    <g id="shape14" transform="matrix(1.0, 0.0, 0.0, 1.0, 5.6, 11.4)">
      <path d="M-3.65 8.8 L-2.3 -9.2" fill="none" stroke="#ffffff" stroke-linecap="round" stroke-linejoin="round" stroke-width="1.5"/>
      <path d="M0.55 -10.5 Q-0.7 -10.45 -1.55 -9.9 L-1.85 -9.75 -2.35 -9.3 -2.5 -9.15 Q-3.55 -8.0 -3.5 -6.2 L-4.7 6.4 Q-4.7 7.7 -3.7 8.7 L-3.25 9.1 -2.95 9.35 -2.45 9.7 Q-1.0 10.55 0.65 10.5 2.6 10.4 3.95 9.2 5.3 7.9 5.3 6.2 L4.85 -6.5 Q4.8 -8.25 3.65 -9.35 2.45 -10.55 0.55 -10.5 Z" fill="none" stroke="#000000" stroke-linecap="round" stroke-linejoin="round" stroke-width="1.8"/>
    </g>
    <g id="sprite16" transform="matrix(1.0, 0.0, 0.0, 1.0, 12.8, 16.1)">
      <use ffdec:characterId="908" height="28.8" id="mc300" transform="matrix(1.0, 0.0, 0.0, 1.0, -11.9, -15.2)" width="23.85" xlink:href="#sprite17"/>
      <use ffdec:characterId="903" height="1.55" id="mc200" transform="matrix(1.0, 0.0, 0.0, 1.0, -4.2, -12.4)" width="1.55" xlink:href="#sprite12"/>
      <use ffdec:characterId="903" height="1.55" id="mc201" transform="matrix(1.0, 0.0, 0.0, 1.0, -4.5, -9.25)" width="1.55" xlink:href="#sprite12"/>
      <use ffdec:characterId="903" height="1.55" id="mc202" transform="matrix(1.0, 0.0, 0.0, 1.0, -4.8, -6.55)" width="1.55" xlink:href="#sprite12"/>
      <use ffdec:characterId="903" height="1.55" id="mc203" transform="matrix(1.0, 0.0, 0.0, 1.0, -4.95, -3.55)" width="1.55" xlink:href="#sprite12"/>
      <use ffdec:characterId="903" height="1.55" id="mc204" transform="matrix(1.0, 0.0, 0.0, 1.0, -5.25, -0.85)" width="1.55" xlink:href="#sprite12"/>
      <use ffdec:characterId="903" height="1.55" id="mc205" transform="matrix(1.0, 0.0, 0.0, 1.0, -5.4, 1.85)" width="1.55" xlink:href="#sprite12"/>
      <use ffdec:characterId="903" height="1.55" id="mc206" transform="matrix(1.0, 0.0, 0.0, 1.0, -5.55, 4.7)" width="1.55" xlink:href="#sprite12"/>
      <use ffdec:characterId="903" height="1.55" id="mc207" transform="matrix(1.0, 0.0, 0.0, 1.0, -5.7, 7.55)" width="1.55" xlink:href="#sprite12"/>
      <use ffdec:characterId="151" height="30.7" transform="matrix(1.0, 0.0, 0.0, 1.0, -12.8, -16.1)" width="25.65" xlink:href="#shape16"/>
    </g>
    <g id="sprite17" transform="matrix(1.0, 0.0, 0.0, 1.0, 11.9, 14.65)">
      <use ffdec:characterId="149" height="28.8" transform="matrix(1.0, 0.0, 0.0, 1.0, -11.9, -14.65)" width="23.85" xlink:href="#shape15"/>
    </g>
    <g id="shape15" transform="matrix(1.0, 0.0, 0.0, 1.0, 11.9, 14.65)">
      <path d="M-7.4 -13.8 L8.75 -14.65 Q11.4 -3.2 11.9 8.25 L11.95 10.2 Q6.2 12.45 0.45 12.15 L0.6 12.35 -2.6 14.15 -4.25 11.3 Q-8.45 11.2 -11.9 8.5 L-11.7 6.65 Q-10.6 -4.3 -7.4 -13.75 L-7.4 -13.8" fill="#333333" fill-rule="evenodd" stroke="none"/>
    </g>
    <g id="shape16" transform="matrix(1.0, 0.0, 0.0, 1.0, 12.8, 16.1)">
      <path d="M0.45 11.6 Q6.2 11.9 11.95 9.65 L11.9 7.7 Q11.4 -3.75 8.75 -15.2 L-1.25 -14.65 -2.7 8.45 0.2 11.6 -2.35 13.7 -4.8 10.75 Q-8.7 10.45 -11.9 7.95 L-11.7 6.1 Q-10.6 -4.85 -7.4 -14.3 L-7.4 -14.35 -1.25 -14.65" fill="none" stroke="#000000" stroke-linecap="round" stroke-linejoin="round" stroke-width="1.8"/>
    </g>
    <g id="sprite18" transform="matrix(1.0, 0.0, 0.0, 1.0, 14.85, 11.5)">
      <use ffdec:characterId="912" height="15.05" id="mc100" transform="matrix(1.0, 0.0, 0.0, 1.0, -13.95, -11.5)" width="20.6" xlink:href="#sprite19"/>
      <use ffdec:characterId="115" height="8.15" transform="matrix(1.0, 0.0, 0.0, 1.0, -14.85, -3.7)" width="22.4" xlink:href="#shape19"/>
    </g>
    <g id="sprite19" transform="matrix(1.0, 0.0, 0.0, 1.0, 10.3, 8.4)">
      <use ffdec:characterId="910" height="15.05" id="mc100" transform="matrix(1.0, 0.0, 0.0, 1.0, -10.3, -8.4)" width="20.6" xlink:href="#sprite20"/>
      <use ffdec:characterId="911" height="15.05" id="mc000" transform="matrix(1.0, 0.0, 0.0, 1.0, -10.3, -8.4)" width="20.6" xlink:href="#sprite21"/>
    </g>
    <g id="sprite20" transform="matrix(1.0, 0.0, 0.0, 1.0, 10.3, 7.55)">
      <use ffdec:characterId="110" height="15.05" transform="matrix(1.0, 0.0, 0.0, 1.0, -10.3, -7.55)" width="20.6" xlink:href="#shape17"/>
    </g>
    <g id="shape17" transform="matrix(1.0, 0.0, 0.0, 1.0, 10.3, 7.55)">
      <path d="M7.35 -7.55 L10.3 1.15 Q4.85 6.5 -10.3 7.5 L-4.9 -0.5 7.35 -7.55" fill="#ffffff" fill-rule="evenodd" stroke="none"/>
    </g>
    <g id="sprite21" transform="matrix(1.0, 0.0, 0.0, 1.0, 10.3, 7.55)">
      <use ffdec:characterId="112" height="15.05" transform="matrix(1.0, 0.0, 0.0, 1.0, -10.3, -7.55)" width="20.6" xlink:href="#shape18"/>
    </g>
    <g id="shape18" transform="matrix(1.0, 0.0, 0.0, 1.0, 10.3, 7.55)">
      <path d="M10.3 1.15 Q4.85 6.5 -10.3 7.5 L-4.9 -0.5 7.35 -7.55 10.3 1.15" fill="#000000" fill-opacity="0.2" fill-rule="evenodd" stroke="none"/>
    </g>
    <g id="shape19" transform="matrix(1.0, 0.0, 0.0, 1.0, 14.85, 3.7)">
      <path d="M6.65 -2.8 Q1.2 2.55 -13.95 3.55" fill="none" stroke="#000000" stroke-linecap="round" stroke-linejoin="round" stroke-width="1.8"/>
    </g>
    <g id="sprite22" transform="matrix(1.0, 0.0, 0.0, 1.0, 13.3, 16.65)">
      <use ffdec:characterId="914" height="31.45" id="mc100" transform="matrix(1.0, 0.0, 0.0, 1.0, -12.4, -15.75)" width="23.8" xlink:href="#sprite23"/>
      <use ffdec:characterId="123" height="33.25" transform="matrix(1.0, 0.0, 0.0, 1.0, -13.3, -16.65)" width="25.6" xlink:href="#shape21"/>
    </g>
    <g id="sprite23" transform="matrix(1.0, 0.0, 0.0, 1.0, 12.4, 15.75)">
      <use ffdec:characterId="121" height="31.45" transform="matrix(1.0, 0.0, 0.0, 1.0, -12.4, -15.75)" width="23.8" xlink:href="#shape20"/>
    </g>
    <g id="shape20" transform="matrix(1.0, 0.0, 0.0, 1.0, 12.4, 15.75)">
      <path d="M11.4 -6.5 L11.05 -6.1 Q11.5 9.2 3.7 15.7 -0.35 14.9 -2.05 10.55 L-5.1 14.8 Q-10.1 6.15 -10.8 -5.6 L-10.7 -5.65 -10.8 -5.75 Q-12.4 -7.45 -12.4 -9.8 -12.4 -12.25 -10.7 -14.0 -8.95 -15.7 -6.5 -15.7 -4.85 -15.7 -3.55 -14.95 7.7 -18.4 11.4 -6.5" fill="#ffffff" fill-rule="evenodd" stroke="none"/>
    </g>
    <g id="shape21" transform="matrix(1.0, 0.0, 0.0, 1.0, 13.3, 16.65)">
      <path d="M-10.7 -5.3 Q-10.0 6.3 -5.1 14.8 L-2.05 10.55 Q-0.35 14.9 3.7 15.7 11.65 9.05 11.4 -6.5 7.7 -18.4 -3.55 -14.95 -4.85 -15.7 -6.5 -15.7 -8.95 -15.7 -10.7 -14.0 -12.4 -12.25 -12.4 -9.8 -12.4 -7.85 -11.3 -6.35 L-10.95 -6.05 Q-9.75 -5.0 -8.25 -4.7" fill="none" stroke="#000000" stroke-linecap="round" stroke-linejoin="round" stroke-width="1.8"/>
    </g>
    <g id="sprite24" transform="matrix(1.0, 0.0, 0.0, 1.0, 16.35, 7.75)">
      <use ffdec:characterId="126" height="15.5" transform="matrix(1.0, 0.0, 0.0, 1.0, -16.35, -7.75)" width="32.15" xlink:href="#shape22"/>
    </g>
    <g id="shape22" transform="matrix(1.0, 0.0, 0.0, 1.0, 16.35, 7.75)">
      <path d="M10.55 1.5 L11.6 2.2 12.9 2.1 Q12.4 4.85 10.85 5.95 L9.2 5.55 Q11.45 3.9 10.55 1.5 M12.3 -1.35 L13.4 -0.65 Q13.75 -0.15 13.6 0.45 13.45 1.05 12.85 1.3 L11.55 1.4 10.5 0.7 Q10.1 0.15 10.3 -0.45 10.4 -1.05 11.0 -1.3 L12.3 -1.35 M-11.65 -3.65 Q-11.35 -3.3 -11.45 -2.85 -11.6 -2.4 -12.0 -2.2 L-13.0 -2.15 -13.8 -2.7 Q-14.1 -3.1 -14.0 -3.5 L-13.45 -4.15 -12.45 -4.2 Q-11.95 -4.1 -11.65 -3.65 M-13.35 -1.65 L-12.4 -1.7 -12.35 -1.7 Q-13.9 -0.45 -13.0 1.45 L-14.25 1.15 Q-14.85 -0.2 -14.15 -2.15 L-13.35 -1.65" fill="#ffffff" fill-rule="evenodd" stroke="none"/>
      <path d="M-0.6 0.3 L-0.45 -1.8 -0.4 -2.0 Q0.3 -4.75 3.05 -6.05 5.75 -7.35 8.9 -6.5 12.0 -5.7 13.75 -3.2 15.4 -0.7 14.7 2.05 13.95 4.75 11.25 6.05 8.55 7.35 5.4 6.55 2.25 5.7 0.55 3.15 -0.4 1.75 -0.6 0.3 M-3.75 -0.4 L-3.8 0.05 -3.85 0.15 -3.9 0.3 Q-4.5 2.25 -6.5 3.2 -8.55 4.2 -10.9 3.55 -13.25 2.9 -14.55 1.0 -15.85 -0.85 -15.25 -2.9 -14.75 -4.95 -12.7 -5.95 -10.65 -6.9 -8.25 -6.25 -5.9 -5.65 -4.6 -3.75 L-4.05 -2.7 -4.0 -2.6 Q-3.6 -1.55 -3.75 -0.4 M12.3 -1.35 L11.0 -1.3 Q10.4 -1.05 10.3 -0.45 10.1 0.15 10.5 0.7 L11.55 1.4 12.85 1.3 Q13.45 1.05 13.6 0.45 13.75 -0.15 13.4 -0.65 L12.3 -1.35 M10.55 1.5 Q11.45 3.9 9.2 5.55 L10.85 5.95 Q12.4 4.85 12.9 2.1 L11.6 2.2 10.55 1.5 M-13.35 -1.65 L-14.15 -2.15 Q-14.85 -0.2 -14.25 1.15 L-13.0 1.45 Q-13.9 -0.45 -12.35 -1.7 L-12.4 -1.7 -13.35 -1.65 M-11.65 -3.65 Q-11.95 -4.1 -12.45 -4.2 L-13.45 -4.15 -14.0 -3.5 Q-14.1 -3.1 -13.8 -2.7 L-13.0 -2.15 -12.0 -2.2 Q-11.6 -2.4 -11.45 -2.85 -11.35 -3.3 -11.65 -3.65" fill="#000000" fill-rule="evenodd" stroke="none"/>
      <path d="M-0.6 0.3 L-0.45 -1.8 -0.4 -2.0 Q0.3 -4.75 3.05 -6.05 5.75 -7.35 8.9 -6.5 12.0 -5.7 13.75 -3.2 15.4 -0.7 14.7 2.05 13.95 4.75 11.25 6.05 8.55 7.35 5.4 6.55 2.25 5.7 0.55 3.15 -0.4 1.75 -0.6 0.3 -2.05 -1.15 -3.75 -0.4 L-3.8 0.05 -3.85 0.15 -3.9 0.3 Q-4.5 2.25 -6.5 3.2 -8.55 4.2 -10.9 3.55 -13.25 2.9 -14.55 1.0 -15.85 -0.85 -15.25 -2.9 -14.75 -4.95 -12.7 -5.95 -10.65 -6.9 -8.25 -6.25 -5.9 -5.65 -4.6 -3.75 L-4.05 -2.7 -4.0 -2.6 Q-3.6 -1.55 -3.75 -0.4" fill="none" stroke="#000000" stroke-linecap="round" stroke-linejoin="round" stroke-width="1.8"/>
    </g>
    <g id="sprite25" transform="matrix(1.0, 0.0, 0.0, 1.0, 10.05, 5.4)">
      <use ffdec:characterId="917" height="9.05" id="mc100" transform="matrix(1.0, 0.0, 0.0, 1.0, -9.15, -4.5)" width="18.45" xlink:href="#sprite26"/>
      <use ffdec:characterId="144" height="10.85" transform="matrix(1.0, 0.0, 0.0, 1.0, -10.05, -5.4)" width="20.25" xlink:href="#shape24"/>
    </g>
    <g id="sprite26" transform="matrix(1.0, 0.0, 0.0, 1.0, 9.2, 4.5)">
      <use ffdec:characterId="142" height="9.05" transform="matrix(1.0, 0.0, 0.0, 1.0, -9.2, -4.5)" width="18.45" xlink:href="#shape23"/>
    </g>
    <g id="shape23" transform="matrix(1.0, 0.0, 0.0, 1.0, 9.2, 4.5)">
      <path d="M2.1 -4.2 Q5.9 -3.35 7.9 -0.45 9.55 1.95 9.15 4.55 L-9.2 0.45 Q-8.05 -2.0 -5.15 -3.35 -1.7 -5.05 2.1 -4.2" fill="#ffffff" fill-rule="evenodd" stroke="none"/>
    </g>
    <g id="shape24" transform="matrix(1.0, 0.0, 0.0, 1.0, 10.05, 5.4)">
      <path d="M2.15 -4.2 Q-1.65 -5.05 -5.1 -3.35 -8.0 -2.0 -9.15 0.45 L9.2 4.55 Q9.6 1.95 7.95 -0.45 5.95 -3.35 2.15 -4.2 Z" fill="none" stroke="#000000" stroke-linecap="round" stroke-linejoin="round" stroke-width="1.8"/>
    </g>
    <g id="shape25" transform="matrix(1.0, 0.0, 0.0, 1.0, 1.3, 39.4)">
      <path d="M8.1 -34.85 Q5.8 -33.75 3.1 -34.15 5.3 -36.0 6.75 -38.5 7.15 -36.05 8.1 -34.85" fill="#000000" fill-rule="evenodd" stroke="none"/>
      <path d="M8.1 -34.85 Q8.6 -34.25 9.25 -33.95 M8.1 -34.85 Q5.8 -33.75 3.1 -34.15 1.55 -32.85 -0.4 -31.9 M3.1 -34.15 Q5.3 -36.0 6.75 -38.5 7.15 -36.05 8.1 -34.85" fill="none" stroke="#000000" stroke-linecap="round" stroke-linejoin="round" stroke-width="1.8"/>
    </g>
    <g id="sprite27" transform="matrix(1.0, 0.0, 0.0, 1.0, 23.6, 8.7)">
      <use ffdec:characterId="922" height="23.4" id="mc100" transform="matrix(-1.0302, 0.0, 0.0, 1.0302, 22.6633, -7.8528)" width="44.05" xlink:href="#sprite28"/>
      <use ffdec:characterId="528" height="25.85" transform="matrix(1.0, 0.0, 0.0, 1.0, -23.6, -8.7)" width="47.2" xlink:href="#shape28"/>
    </g>
    <g id="sprite28" transform="matrix(1.0, 0.0, 0.0, 1.0, 22.0, 11.7)">
      <use ffdec:characterId="920" height="23.4" id="mc100" transform="matrix(1.0, 0.0, 0.0, 1.0, -22.0, -11.7)" width="44.05" xlink:href="#sprite29"/>
      <use ffdec:characterId="921" height="23.4" id="mc000" transform="matrix(1.0, 0.0, 0.0, 1.0, -22.0, -11.7)" width="44.05" xlink:href="#sprite30"/>
    </g>
    <g id="sprite29" transform="matrix(1.0, 0.0, 0.0, 1.0, 22.0, 11.7)">
      <use ffdec:characterId="70" height="23.4" transform="matrix(1.0, 0.0, 0.0, 1.0, -22.0, -11.7)" width="44.05" xlink:href="#shape26"/>
    </g>
    <g id="shape26" transform="matrix(1.0, 0.0, 0.0, 1.0, 22.0, 11.7)">
      <path d="M-17.6 -7.45 Q-13.2 -12.4 -5.9 -9.3 18.1 -17.5 22.05 2.35 2.9 4.95 -14.95 2.35 -18.8 5.95 -18.5 11.7 -22.0 8.6 -22.0 4.45 -22.0 -2.55 -17.6 -7.45" fill="#ffffff" fill-rule="evenodd" stroke="none"/>
    </g>
    <g id="sprite30" transform="matrix(1.0, 0.0, 0.0, 1.0, 22.0, 11.7)">
      <use ffdec:characterId="72" height="23.4" transform="matrix(1.0, 0.0, 0.0, 1.0, -22.0, -11.7)" width="44.05" xlink:href="#shape27"/>
    </g>
    <g id="shape27" transform="matrix(1.0, 0.0, 0.0, 1.0, 22.0, 11.7)">
      <path d="M-17.6 -7.45 Q-13.2 -12.4 -5.9 -9.3 18.1 -17.5 22.05 2.35 2.9 4.95 -14.95 2.35 -18.8 5.95 -18.5 11.7 -22.0 8.6 -22.0 4.45 -22.0 -2.55 -17.6 -7.45" fill="#000000" fill-opacity="0.2" fill-rule="evenodd" stroke="none"/>
    </g>
    <g id="shape28" transform="matrix(1.0, 0.0, 0.0, 1.0, 23.6, 8.7)">
      <path d="M18.15 -3.5 Q22.65 1.55 22.7 8.8 22.65 13.05 19.1 16.25 19.35 10.35 15.4 6.65 -3.0 9.3 -22.7 6.65 -18.65 -13.8 6.1 -5.35 13.6 -8.55 18.15 -3.5 M6.95 -5.05 L6.1 -5.35 M15.4 6.65 Q13.75 5.05 11.35 3.85" fill="none" stroke="#000000" stroke-linecap="round" stroke-linejoin="round" stroke-width="1.8"/>
    </g>
  </defs>
</svg>
