<?xml version="1.0" encoding="UTF-8" standalone="no"?>
<svg xmlns:ffdec="https://www.free-decompiler.com/flash" xmlns:xlink="http://www.w3.org/1999/xlink" ffdec:objectType="frame" height="113.7px" width="60.15px" xmlns="http://www.w3.org/2000/svg">
  <g transform="matrix(1.0, 0.0, 0.0, 1.0, 32.05, 110.75)">
    <use ffdec:characterId="345" height="96.0" id="mc100" transform="matrix(1.0, 0.0, 0.0, 1.0, -32.05, -93.05)" width="60.15" xlink:href="#sprite0"/>
    <use ffdec:characterId="346" height="0.0" id="hat" transform="matrix(-1.0, 0.0, 0.0, 1.0, 27.35, -110.75)" width="0.0" xlink:href="#sprite21"/>
  </g>
  <defs>
    <g id="sprite0" transform="matrix(1.0, 0.0, 0.0, 1.0, 32.05, 93.05)">
      <use ffdec:characterId="344" height="96.0" id="mc100" transform="matrix(-1.0, 0.0, 0.0, 1.0, 28.1, -93.05)" width="60.15" xlink:href="#sprite1"/>
    </g>
    <g id="sprite1" transform="matrix(1.0, 0.0, 0.0, 1.0, 0.75, 0.75)">
      <use ffdec:characterId="325" height="22.2" id="mc1200" transform="matrix(1.0, 0.0, 0.0, 1.0, 12.55, 58.6)" width="11.4" xlink:href="#sprite2"/>
      <use ffdec:characterId="327" height="9.1" id="mc1100" transform="matrix(1.0, 0.0, 0.0, 1.0, 15.55, 59.35)" width="9.35" xlink:href="#sprite3"/>
      <use ffdec:characterId="329" height="26.2" id="mc1000" transform="matrix(1.0, 0.0, 0.0, 1.0, 15.25, 57.2)" width="27.3" xlink:href="#sprite5"/>
      <use ffdec:characterId="330" height="5.25" id="mc900" transform="matrix(0.5983, 0.0, 0.0, 1.0, 20.2508, 67.75)" width="6.7" xlink:href="#sprite7"/>
      <use ffdec:characterId="331" height="16.25" id="mc800" transform="matrix(1.0, 0.0, 0.0, 1.0, 15.65, 77.65)" width="10.95" xlink:href="#sprite8"/>
      <use ffdec:characterId="333" height="11.7" id="mc700" transform="matrix(0.9424, 0.0, 0.0, 1.0, 15.2932, 77.5)" width="15.45" xlink:href="#sprite9"/>
      <use ffdec:characterId="334" height="16.25" id="mc600" transform="matrix(1.0, 0.0, 0.0, 1.0, 30.45, 79.0)" width="10.95" xlink:href="#sprite11"/>
      <use ffdec:characterId="336" height="11.7" id="mc500" transform="matrix(1.0, 0.0, 0.0, 1.0, 23.0, 77.5)" width="20.05" xlink:href="#sprite12"/>
      <use ffdec:characterId="337" height="22.2" id="mc400" transform="matrix(1.0, 0.0, 0.0, 1.0, 35.0, 58.6)" width="11.4" xlink:href="#sprite14"/>
      <use ffdec:characterId="339" height="9.35" id="mc300" transform="matrix(1.0, 0.0, 0.0, 1.0, 33.85, 59.1)" width="9.35" xlink:href="#sprite15"/>
      <use ffdec:characterId="340" height="65.15" id="mc200" transform="matrix(1.0, 0.0, 0.0, 1.0, -0.75, -0.75)" width="60.15" xlink:href="#sprite17"/>
      <use ffdec:characterId="342" height="21.35" id="mc100" transform="matrix(1.0, 0.0, 0.0, 1.0, 1.7, 28.35)" width="46.25" xlink:href="#sprite18"/>
      <use ffdec:characterId="343" height="3.8" id="mc000" transform="matrix(1.0, 0.0, 0.0, 1.0, 6.4, 53.6)" width="28.65" xlink:href="#sprite20"/>
    </g>
    <g id="sprite2" transform="matrix(1.0, 0.0, 0.0, 1.0, 0.75, 0.75)">
      <use ffdec:characterId="7" height="22.2" transform="matrix(1.0, 0.0, 0.0, 1.0, -0.75, -0.75)" width="11.4" xlink:href="#shape0"/>
    </g>
    <g id="shape0" transform="matrix(1.0, 0.0, 0.0, 1.0, 0.75, 0.75)">
      <path d="M8.0 16.4 Q6.9 21.65 2.85 20.5 -1.05 19.3 0.35 15.05 L3.0 6.2 Q4.6 0.05 7.6 0.0 10.3 0.45 9.8 4.85 L8.0 16.4" fill="#e1f1e1" fill-rule="evenodd" stroke="none"/>
      <path d="M8.0 16.4 L9.8 4.85 Q10.3 0.45 7.6 0.0 4.6 0.05 3.0 6.2 L0.35 15.05 Q-1.05 19.3 2.85 20.5 6.9 21.65 8.0 16.4 Z" fill="none" stroke="#000000" stroke-linecap="round" stroke-linejoin="round" stroke-width="1.5"/>
    </g>
    <g id="sprite3" transform="matrix(1.0, 0.0, 0.0, 1.0, 0.75, 0.75)">
      <use ffdec:characterId="326" height="7.6" id="mc100" transform="matrix(1.0, 0.0, 0.0, 1.0, 0.0, 0.0)" width="7.85" xlink:href="#sprite4"/>
      <use ffdec:characterId="11" height="9.1" transform="matrix(1.0, 0.0, 0.0, 1.0, -0.75, -0.75)" width="9.35" xlink:href="#shape2"/>
    </g>
    <g id="sprite4" transform="matrix(1.0, 0.0, 0.0, 1.0, 0.0, 0.0)">
      <use ffdec:characterId="9" height="7.6" transform="matrix(1.0, 0.0, 0.0, 1.0, 0.0, 0.0)" width="7.85" xlink:href="#shape1"/>
    </g>
    <g id="shape1" transform="matrix(1.0, 0.0, 0.0, 1.0, 0.0, 0.0)">
      <path d="M7.0 7.45 L5.3 6.2 3.55 7.6 2.6 5.25 1.1 5.95 0.0 5.45 Q0.9 0.55 3.7 0.05 6.5 -0.45 7.55 2.45 8.35 4.9 7.0 7.45" fill="#4f5e17" fill-rule="evenodd" stroke="none"/>
    </g>
    <g id="shape2" transform="matrix(1.0, 0.0, 0.0, 1.0, 0.75, 0.75)">
      <path d="M7.0 7.45 L5.3 6.2 3.55 7.6 2.6 5.25 1.1 5.95 0.0 5.45 Q0.9 0.55 3.7 0.05 6.5 -0.45 7.55 2.45 8.35 4.9 7.0 7.45 Z" fill="none" stroke="#000000" stroke-linecap="round" stroke-linejoin="round" stroke-width="1.5"/>
    </g>
    <g id="sprite5" transform="matrix(1.0, 0.0, 0.0, 1.0, 0.75, 0.75)">
      <use ffdec:characterId="328" height="24.7" id="mc100" transform="matrix(1.0, 0.0, 0.0, 1.0, 0.0, 0.0)" width="25.8" xlink:href="#sprite6"/>
      <use ffdec:characterId="15" height="26.2" transform="matrix(1.0, 0.0, 0.0, 1.0, -0.75, -0.75)" width="27.3" xlink:href="#shape4"/>
    </g>
    <g id="sprite6" transform="matrix(1.0, 0.0, 0.0, 1.0, 0.0, 0.0)">
      <use ffdec:characterId="13" height="24.7" transform="matrix(1.0, 0.0, 0.0, 1.0, 0.0, 0.0)" width="25.8" xlink:href="#shape3"/>
    </g>
    <g id="shape3" transform="matrix(1.0, 0.0, 0.0, 1.0, 0.0, 0.0)">
      <path d="M9.65 24.6 Q-0.55 25.2 0.05 21.4 1.0 12.75 2.95 3.7 3.75 0.8 9.35 0.2 13.55 -0.2 16.35 0.15 22.25 1.0 23.25 3.65 L25.8 20.7 Q25.7 25.05 18.05 24.6 L9.65 24.6" fill="#4f5e17" fill-rule="evenodd" stroke="none"/>
    </g>
    <g id="shape4" transform="matrix(1.0, 0.0, 0.0, 1.0, 0.75, 0.75)">
      <path d="M9.65 24.6 Q-0.55 25.2 0.05 21.4 1.0 12.75 2.95 3.7 3.75 0.8 9.35 0.2 13.55 -0.2 16.35 0.15 22.25 1.0 23.25 3.65 L25.8 20.7 Q25.7 25.05 18.05 24.6 L9.65 24.6 Z" fill="none" stroke="#000000" stroke-linecap="round" stroke-linejoin="round" stroke-width="1.5"/>
    </g>
    <g id="sprite7" transform="matrix(1.0, 0.0, 0.0, 1.0, 0.5, 0.5)">
      <use ffdec:characterId="86" height="5.25" transform="matrix(1.0, 0.0, 0.0, 1.0, -0.5, -0.5)" width="6.7" xlink:href="#shape5"/>
    </g>
    <g id="shape5" transform="matrix(1.0, 0.0, 0.0, 1.0, 0.5, 0.5)">
      <path d="M0.0 2.55 L0.2 0.0 2.85 0.65 5.7 0.65 5.55 3.25 3.25 2.65 2.05 4.25 0.0 2.55" fill="#e1f1e1" fill-rule="evenodd" stroke="none"/>
      <path d="M0.0 2.55 L2.05 4.25 3.25 2.65 5.55 3.25 5.7 0.65 2.85 0.65 0.2 0.0 0.0 2.55 Z" fill="none" stroke="#000000" stroke-linecap="round" stroke-linejoin="round" stroke-width="1.0"/>
    </g>
    <g id="sprite8" transform="matrix(1.0, 0.0, 0.0, 1.0, 0.75, 0.75)">
      <use ffdec:characterId="19" height="16.25" transform="matrix(1.0, 0.0, 0.0, 1.0, -0.75, -0.75)" width="10.95" xlink:href="#shape6"/>
    </g>
    <g id="shape6" transform="matrix(1.0, 0.0, 0.0, 1.0, 0.75, 0.75)">
      <path d="M9.45 11.25 Q8.75 14.85 4.55 14.75 -0.05 14.05 0.0 9.9 L1.25 1.1 Q5.8 -1.55 9.45 2.05 L9.45 11.25" fill="#e1f1e1" fill-rule="evenodd" stroke="none"/>
      <path d="M9.45 11.25 L9.45 2.05 Q5.8 -1.55 1.25 1.1 L0.0 9.9 Q-0.05 14.05 4.55 14.75 8.75 14.85 9.45 11.25 Z" fill="none" stroke="#000000" stroke-linecap="round" stroke-linejoin="round" stroke-width="1.5"/>
    </g>
    <g id="sprite9" transform="matrix(1.0, 0.0, 0.0, 1.0, 0.75, 0.75)">
      <use ffdec:characterId="332" height="10.2" id="mc100" transform="matrix(1.0, 0.0, 0.0, 1.0, 0.0, 0.0)" width="13.95" xlink:href="#sprite10"/>
      <use ffdec:characterId="27" height="11.7" transform="matrix(1.0, 0.0, 0.0, 1.0, -0.75, -0.75)" width="15.45" xlink:href="#shape8"/>
    </g>
    <g id="sprite10" transform="matrix(1.0, 0.0, 0.0, 1.0, 0.0, 0.0)">
      <use ffdec:characterId="25" height="10.2" transform="matrix(1.0, 0.0, 0.0, 1.0, 0.0, 0.0)" width="13.95" xlink:href="#shape7"/>
    </g>
    <g id="shape7" transform="matrix(1.0, 0.0, 0.0, 1.0, 0.0, 0.0)">
      <path d="M10.25 7.55 L10.35 10.2 8.65 8.3 6.9 9.75 5.1 7.65 3.8 9.2 2.0 7.95 0.15 9.55 Q-0.25 4.7 0.45 0.0 L13.95 0.0 13.75 7.65 10.25 7.55" fill="#43647d" fill-rule="evenodd" stroke="none"/>
    </g>
    <g id="shape8" transform="matrix(1.0, 0.0, 0.0, 1.0, 0.75, 0.75)">
      <path d="M13.75 7.65 L10.25 7.55 10.35 10.2 8.65 8.3 6.9 9.75 5.1 7.65 3.8 9.2 2.0 7.95 0.15 9.55 Q-0.25 4.7 0.45 0.0 L13.95 0.0" fill="none" stroke="#000000" stroke-linecap="round" stroke-linejoin="round" stroke-width="1.5"/>
      <path d="M13.95 0.0 L13.75 7.65" fill="none" stroke="#000000" stroke-linecap="round" stroke-linejoin="round" stroke-width="1.0"/>
    </g>
    <g id="sprite11" transform="matrix(1.0, 0.0, 0.0, 1.0, 0.75, 0.75)">
      <use ffdec:characterId="17" height="16.25" transform="matrix(1.0, 0.0, 0.0, 1.0, -0.75, -0.75)" width="10.95" xlink:href="#shape9"/>
    </g>
    <g id="shape9" transform="matrix(1.0, 0.0, 0.0, 1.0, 0.75, 0.75)">
      <path d="M0.0 11.25 L0.0 2.05 Q3.65 -1.55 8.2 1.1 L9.45 9.9 Q9.5 14.05 4.9 14.75 0.7 14.85 0.0 11.25" fill="#e1f1e1" fill-rule="evenodd" stroke="none"/>
      <path d="M0.0 11.25 L0.0 2.05 Q3.65 -1.55 8.2 1.1 L9.45 9.9 Q9.5 14.05 4.9 14.75 0.7 14.85 0.0 11.25 Z" fill="none" stroke="#000000" stroke-linecap="round" stroke-linejoin="round" stroke-width="1.5"/>
    </g>
    <g id="sprite12" transform="matrix(1.0, 0.0, 0.0, 1.0, 5.35, 0.75)">
      <use ffdec:characterId="335" height="10.2" id="mc100" transform="matrix(1.0, 0.0, 0.0, 1.0, -4.6, 0.0)" width="18.55" xlink:href="#sprite13"/>
      <use ffdec:characterId="63" height="11.7" transform="matrix(1.0, 0.0, 0.0, 1.0, -5.35, -0.75)" width="20.05" xlink:href="#shape11"/>
    </g>
    <g id="sprite13" transform="matrix(1.0, 0.0, 0.0, 1.0, 0.0, 0.0)">
      <use ffdec:characterId="61" height="10.2" transform="matrix(1.0, 0.0, 0.0, 1.0, 0.0, 0.0)" width="18.55" xlink:href="#shape10"/>
    </g>
    <g id="shape10" transform="matrix(1.0, 0.0, 0.0, 1.0, 0.0, 0.0)">
      <path d="M18.35 9.55 L16.15 7.95 Q15.05 8.6 13.95 9.2 L12.35 7.65 10.2 9.75 8.05 8.3 6.0 10.2 6.15 7.55 0.25 7.65 0.0 0.0 18.0 0.0 Q18.85 4.7 18.35 9.55" fill="#43647d" fill-rule="evenodd" stroke="none"/>
    </g>
    <g id="shape11" transform="matrix(1.0, 0.0, 0.0, 1.0, 5.35, 0.75)">
      <path d="M-4.35 7.65 L1.55 7.55 1.4 10.2 3.45 8.3 5.6 9.75 7.75 7.65 9.35 9.2 11.55 7.95 13.75 9.55 Q14.25 4.7 13.4 0.0 L-4.6 0.0" fill="none" stroke="#000000" stroke-linecap="round" stroke-linejoin="round" stroke-width="1.5"/>
      <path d="M-4.6 0.0 L-4.35 7.65" fill="none" stroke="#000000" stroke-linecap="round" stroke-linejoin="round" stroke-width="1.0"/>
    </g>
    <g id="sprite14" transform="matrix(1.0, 0.0, 0.0, 1.0, 0.75, 0.75)">
      <use ffdec:characterId="1" height="22.2" transform="matrix(1.0, 0.0, 0.0, 1.0, -0.75, -0.75)" width="11.4" xlink:href="#shape12"/>
    </g>
    <g id="shape12" transform="matrix(1.0, 0.0, 0.0, 1.0, 0.75, 0.75)">
      <path d="M1.9 16.4 L0.1 4.85 Q-0.4 0.45 2.3 0.0 5.3 0.05 6.9 6.2 L9.55 15.05 Q10.95 19.3 7.05 20.5 3.0 21.65 1.9 16.4" fill="#e1f1e1" fill-rule="evenodd" stroke="none"/>
      <path d="M1.9 16.4 L0.1 4.85 Q-0.4 0.45 2.3 0.0 5.3 0.05 6.9 6.2 L9.55 15.05 Q10.95 19.3 7.05 20.5 3.0 21.65 1.9 16.4 Z" fill="none" stroke="#000000" stroke-linecap="round" stroke-linejoin="round" stroke-width="1.5"/>
    </g>
    <g id="sprite15" transform="matrix(1.0, 0.0, 0.0, 1.0, 0.75, 0.75)">
      <use ffdec:characterId="338" height="7.85" id="mc100" transform="matrix(1.0, 0.0, 0.0, 1.0, 0.0, 0.0)" width="7.85" xlink:href="#sprite16"/>
      <use ffdec:characterId="5" height="9.35" transform="matrix(1.0, 0.0, 0.0, 1.0, -0.75, -0.75)" width="9.35" xlink:href="#shape14"/>
    </g>
    <g id="sprite16" transform="matrix(1.0, 0.0, 0.0, 1.0, 0.0, 0.0)">
      <use ffdec:characterId="3" height="7.85" transform="matrix(1.0, 0.0, 0.0, 1.0, 0.0, 0.0)" width="7.85" xlink:href="#shape13"/>
    </g>
    <g id="shape13" transform="matrix(1.0, 0.0, 0.0, 1.0, 0.0, 0.0)">
      <path d="M5.25 5.5 L4.3 7.85 2.55 6.45 0.85 7.7 Q-0.5 5.15 0.3 2.7 1.35 -0.2 4.05 0.0 6.75 0.15 7.85 5.2 L6.75 6.2 5.25 5.5" fill="#4f5e17" fill-rule="evenodd" stroke="none"/>
    </g>
    <g id="shape14" transform="matrix(1.0, 0.0, 0.0, 1.0, 0.75, 0.75)">
      <path d="M5.25 5.5 L4.3 7.85 2.55 6.45 0.85 7.7 Q-0.5 5.15 0.3 2.7 1.35 -0.2 4.05 0.0 6.75 0.15 7.85 5.2 L6.75 6.2 5.25 5.5 Z" fill="none" stroke="#000000" stroke-linecap="round" stroke-linejoin="round" stroke-width="1.5"/>
    </g>
    <g id="sprite17" transform="matrix(1.0, 0.0, 0.0, 1.0, 0.75, 1.7)">
      <use ffdec:characterId="88" height="65.15" transform="matrix(1.0, 0.0, 0.0, 1.0, -0.75, -1.7)" width="60.15" xlink:href="#shape15"/>
    </g>
    <g id="shape15" transform="matrix(1.0, 0.0, 0.0, 1.0, 0.75, 1.7)">
      <path d="M37.45 5.45 L37.4 5.45 Q34.7 7.1 32.7 9.2 L31.45 10.5 27.1 7.9 25.25 7.0 23.1 6.15 20.1 5.15 19.55 5.4 14.45 7.3 14.4 6.0 Q14.5 3.7 16.95 4.2 17.15 1.5 20.55 2.55 22.55 -0.5 26.3 -0.95 29.05 -1.05 30.75 0.1 32.15 1.0 32.8 2.85 L32.85 2.85 32.8 2.85 32.85 2.85 Q36.65 2.2 37.4 5.4 L37.45 5.45 M37.4 5.45 L37.4 5.4 37.4 5.45 M19.55 5.4 L19.5 5.25 Q19.45 4.3 20.55 2.55 19.45 4.3 19.5 5.25 L19.55 5.4 M33.4 5.3 Q30.1 4.2 28.9 6.5 26.7 6.1 25.25 7.0 26.7 6.1 28.9 6.5 30.1 4.2 33.4 5.3 M27.4 2.25 L26.85 1.9 Q25.5 1.3 23.55 2.45 25.5 1.3 26.85 1.9 L27.4 2.25" fill="#f2d3e4" fill-rule="evenodd" stroke="none"/>
      <path d="M37.45 5.45 L40.05 3.95 Q41.5 4.5 42.85 5.3 44.3 6.2 45.55 7.45 59.2 17.85 58.6 42.4 58.5 50.1 50.35 56.65 47.9 58.65 44.95 60.0 47.65 56.85 37.3 59.1 26.95 61.35 12.4 59.35 L8.25 56.65 Q0.15 50.1 0.0 42.4 -0.5 18.65 12.3 8.1 L12.35 8.1 12.4 8.1 14.45 7.3 19.55 5.4 20.1 5.15 23.1 6.15 25.25 7.0 27.1 7.9 31.45 10.5 32.7 9.2 Q34.7 7.1 37.4 5.45 L37.45 5.45" fill="#e1f1e1" fill-rule="evenodd" stroke="none"/>
      <path d="M12.4 59.35 Q26.95 61.35 37.3 59.1 47.65 56.85 44.95 60.0 38.25 63.0 29.3 62.65 19.45 63.05 12.4 59.35" fill="#c3d2c3" fill-rule="evenodd" stroke="none"/>
      <path d="M44.95 60.0 Q47.9 58.65 50.35 56.65 58.5 50.1 58.6 42.4 59.2 17.85 45.55 7.45 44.3 6.2 42.85 5.3 41.5 4.5 40.05 3.95 L37.45 5.45 37.4 5.45 Q34.7 7.1 32.7 9.2 L31.45 10.5 27.1 7.9 25.25 7.0 23.1 6.15 20.1 5.15 19.55 5.4 14.45 7.3 12.4 8.1 12.35 8.1 12.3 8.1 Q-0.5 18.65 0.0 42.4 0.15 50.1 8.25 56.65 L12.4 59.35 Q19.45 63.05 29.3 62.65 38.25 63.0 44.95 60.0 M37.4 5.4 L37.4 5.45 M32.85 2.85 L32.8 2.85 Q32.15 1.0 30.75 0.1 29.05 -1.05 26.3 -0.95 22.55 -0.5 20.55 2.55 19.45 4.3 19.5 5.25 L19.55 5.4 M37.4 5.4 Q36.65 2.2 32.85 2.85 M12.4 8.1 L12.3 8.1 M20.55 2.55 Q17.15 1.5 16.95 4.2 14.5 3.7 14.4 6.0 L14.45 7.3" fill="none" stroke="#000000" stroke-linecap="round" stroke-linejoin="round" stroke-width="1.5"/>
      <path d="M37.45 5.45 L37.4 5.4 M32.85 2.85 L32.8 2.85 M23.55 2.45 Q25.5 1.3 26.85 1.9 L27.4 2.25 M25.25 7.0 Q26.7 6.1 28.9 6.5 30.1 4.2 33.4 5.3" fill="none" stroke="#000000" stroke-linecap="round" stroke-linejoin="round" stroke-width="1.0"/>
    </g>
    <g id="sprite18" transform="matrix(1.0, 0.0, 0.0, 1.0, 1.5, 1.8)">
      <use ffdec:characterId="90" height="18.1" transform="matrix(1.0, 0.0, 0.0, 1.0, -1.0, 0.95)" width="45.25" xlink:href="#shape16"/>
      <use ffdec:characterId="341" height="18.35" id="mc101" transform="matrix(1.0, 0.0, 0.0, 1.0, -0.4, -1.3)" width="42.85" xlink:href="#sprite19"/>
      <use ffdec:characterId="93" height="21.35" transform="matrix(1.0, 0.0, 0.0, 1.0, -1.5, -1.8)" width="46.25" xlink:href="#shape18"/>
    </g>
    <g id="shape16" transform="matrix(1.0, 0.0, 0.0, 1.0, 1.0, -0.95)">
      <path d="M41.35 16.25 Q38.4 19.05 34.15 19.05 30.05 19.05 27.15 16.25 25.45 14.6 24.7 12.65 L26.15 14.35 Q28.9 17.05 32.9 17.05 36.85 17.05 39.65 14.35 42.45 11.65 42.45 7.85 42.45 4.1 39.65 1.35 L39.1 0.95 Q40.3 1.55 41.35 2.6 44.25 5.45 44.25 9.4 44.25 13.3 41.35 16.25 M0.65 1.95 L0.5 2.3 Q-0.4 4.65 -0.4 7.9 -0.4 11.15 0.5 13.5 1.4 15.8 2.65 15.8 3.9 15.8 4.8 13.5 L5.25 12.0 4.5 15.1 Q3.55 17.55 2.2 17.55 0.85 17.55 -0.05 15.1 -1.0 12.6 -1.0 9.2 -1.0 5.8 -0.05 3.35 L0.65 1.95" fill="#be4141" fill-rule="evenodd" stroke="none"/>
    </g>
    <g id="sprite19" transform="matrix(1.0, 0.0, 0.0, 1.0, 0.0, 0.0)">
      <use ffdec:characterId="91" height="18.35" transform="matrix(1.0, 0.0, 0.0, 1.0, 0.0, 0.0)" width="42.85" xlink:href="#shape17"/>
    </g>
    <g id="shape17" transform="matrix(1.0, 0.0, 0.0, 1.0, 0.0, 0.0)">
      <path d="M26.55 2.65 Q29.3 0.0 33.3 0.0 36.9 0.0 39.5 2.25 L40.05 2.65 Q42.85 5.4 42.85 9.15 42.85 12.95 40.05 15.65 37.25 18.35 33.3 18.35 29.3 18.35 26.55 15.65 L25.1 13.95 Q23.7 11.85 23.7 9.15 23.7 5.4 26.55 2.65 M6.1 9.2 Q6.1 11.5 5.65 13.3 L5.2 14.8 Q4.3 17.1 3.05 17.1 1.8 17.1 0.9 14.8 0.0 12.45 0.0 9.2 0.0 5.95 0.9 3.6 L1.05 3.25 Q1.9 1.3 3.05 1.3 4.3 1.3 5.2 3.6 6.1 5.95 6.1 9.2" fill="#e4db53" fill-rule="evenodd" stroke="none"/>
    </g>
    <g id="shape18" transform="matrix(1.0, 0.0, 0.0, 1.0, 1.5, 1.8)">
      <path d="M41.35 16.25 Q38.4 19.05 34.15 19.05 30.05 19.05 27.15 16.25 25.45 14.6 24.7 12.65 23.3 10.55 23.3 7.85 23.3 4.1 26.15 1.35 28.9 -1.3 32.9 -1.3 36.5 -1.3 39.1 0.95 40.3 1.55 41.35 2.6 44.25 5.45 44.25 9.4 44.25 13.3 41.35 16.25 M24.7 12.65 L26.15 14.35 Q28.9 17.05 32.9 17.05 36.85 17.05 39.65 14.35 42.45 11.65 42.45 7.85 42.45 4.1 39.65 1.35 L39.1 0.95 M2.65 0.0 Q3.9 0.0 4.8 2.3 5.7 4.65 5.7 7.9 5.7 10.2 5.25 12.0 L4.5 15.1 Q3.55 17.55 2.2 17.55 0.85 17.55 -0.05 15.1 -1.0 12.6 -1.0 9.2 -1.0 5.8 -0.05 3.35 L0.65 1.95 Q1.5 0.0 2.65 0.0 M5.25 12.0 L4.8 13.5 Q3.9 15.8 2.65 15.8 1.4 15.8 0.5 13.5 -0.4 11.15 -0.4 7.9 -0.4 4.65 0.5 2.3 L0.65 1.95" fill="none" stroke="#000000" stroke-linecap="round" stroke-linejoin="round" stroke-width="1.0"/>
    </g>
    <g id="sprite20" transform="matrix(1.0, 0.0, 0.0, 1.0, 4.0, 0.5)">
      <use ffdec:characterId="95" height="3.8" transform="matrix(1.0, 0.0, 0.0, 1.0, -4.0, -0.5)" width="28.65" xlink:href="#shape19"/>
    </g>
    <g id="shape19" transform="matrix(1.0, 0.0, 0.0, 1.0, 4.0, 0.5)">
      <path d="M-3.5 1.75 Q-3.7 -0.25 4.2 0.05 L20.15 0.6 Q24.15 1.2 24.15 2.8" fill="none" stroke="#000000" stroke-linecap="round" stroke-linejoin="round" stroke-width="1.0"/>
    </g>
  </defs>
</svg>
