<?xml version="1.0" encoding="UTF-8" standalone="no"?>
<svg xmlns:ffdec="https://www.free-decompiler.com/flash" xmlns:xlink="http://www.w3.org/1999/xlink" ffdec:objectType="frame" height="114.55px" width="59.55px" xmlns="http://www.w3.org/2000/svg">
  <g transform="matrix(1.0, 0.0, 0.0, 1.0, 35.2, 111.35)">
    <use ffdec:characterId="62" height="89.15" id="mc100" transform="matrix(1.0, 0.0, 0.0, 1.0, -35.2, -85.95)" width="59.55" xlink:href="#sprite0"/>
    <use ffdec:characterId="63" height="0.0" id="hat" transform="matrix(-1.0, 0.0, 0.0, 1.0, 23.95, -111.35)" width="0.0" xlink:href="#sprite31"/>
  </g>
  <defs>
    <g id="sprite0" transform="matrix(1.0, 0.0, 0.0, 1.0, 35.2, 85.95)">
      <use ffdec:characterId="61" height="89.15" id="mc100" transform="matrix(-1.0, 0.0, 0.0, 1.0, 24.35, -85.95)" width="59.55" xlink:href="#sprite1"/>
    </g>
    <g id="sprite1" transform="matrix(1.0, 0.0, 0.0, 1.0, 28.9, 44.1)">
      <use ffdec:characterId="4" height="22.75" id="mc1900" transform="matrix(0.9995, 0.0267, -0.0267, 0.9995, -13.5958, 19.7596)" width="10.65" xlink:href="#sprite2"/>
      <use ffdec:characterId="4" height="22.75" id="mc1700" transform="matrix(0.9995, 0.0267, -0.0267, 0.9995, -6.3458, 22.0096)" width="10.65" xlink:href="#sprite2"/>
      <use ffdec:characterId="11" height="22.5" id="mc1500" transform="matrix(0.9963, 0.0554, -0.0554, 0.9963, -22.006, 4.6908)" width="13.5" xlink:href="#sprite4"/>
      <use ffdec:characterId="20" height="32.45" id="mc1400" transform="matrix(1.0, 0.0, 0.0, 1.0, -18.5, 1.35)" width="27.85" xlink:href="#sprite7"/>
      <use ffdec:characterId="24" height="22.25" id="mc1300" transform="matrix(1.0, 0.0, 0.0, 1.0, -7.0, 6.8)" width="18.35" xlink:href="#sprite11"/>
      <use ffdec:characterId="28" height="21.95" id="mc1200" transform="matrix(1.0, 0.0, 0.0, 1.0, -20.0, 6.25)" width="9.4" xlink:href="#sprite13"/>
      <use ffdec:characterId="11" height="22.5" id="mc1100" transform="matrix(0.8905, -0.4502, 0.4502, 0.8905, -4.346, 10.8563)" width="13.5" xlink:href="#sprite4"/>
      <use ffdec:characterId="32" height="55.8" id="mc1000" transform="matrix(1.0, 0.0, 0.0, 0.9649, -27.65, -44.1104)" width="58.2" xlink:href="#sprite15"/>
      <use ffdec:characterId="34" height="4.65" id="mc800" transform="matrix(1.0, 0.0, 0.0, 1.0, -25.65, -3.85)" width="19.9" xlink:href="#sprite17"/>
      <use ffdec:characterId="38" height="3.55" id="mc700" transform="matrix(1.0, 0.0, 0.0, 1.0, -24.0, -1.15)" width="18.05" xlink:href="#sprite18"/>
      <use ffdec:characterId="44" height="6.6" id="mc500" transform="matrix(1.0, 0.0, 0.0, 1.0, -24.15, -0.05)" width="18.5" xlink:href="#sprite20"/>
      <use ffdec:characterId="46" height="4.15" id="mc400" transform="matrix(1.0, 0.0, 0.0, 1.0, -9.85, -21.4)" width="16.25" xlink:href="#sprite23"/>
      <use ffdec:characterId="48" height="7.0" id="mc300" transform="matrix(1.0, 0.0, 0.0, 1.0, -25.9, -23.35)" width="9.0" xlink:href="#sprite24"/>
      <use ffdec:characterId="54" height="17.05" id="mc200" transform="matrix(1.0, 0.0, 0.0, 1.0, -28.9, -19.7)" width="49.1" xlink:href="#sprite25"/>
      <use ffdec:characterId="56" height="12.1" id="mc100" transform="matrix(1.0, 0.0, 0.0, 1.0, -17.4, -36.0)" width="21.95" xlink:href="#sprite28"/>
      <use ffdec:characterId="60" height="53.2" id="mc000" transform="matrix(1.0, 0.0, 0.0, 0.9649, -25.7, -44.0973)" width="56.35" xlink:href="#sprite29"/>
    </g>
    <g id="sprite2" transform="matrix(1.0, 0.0, 0.0, 1.0, 5.45, 11.3)">
      <use ffdec:characterId="2" height="21.0" id="mc100" transform="matrix(-1.0, 0.0, 0.0, -1.0, 4.3, 10.55)" width="8.85" xlink:href="#sprite3"/>
      <use ffdec:characterId="3" height="22.75" transform="matrix(1.0, 0.0, 0.0, 1.0, -5.45, -11.3)" width="10.65" xlink:href="#shape1"/>
    </g>
    <g id="sprite3" transform="matrix(1.0, 0.0, 0.0, 1.0, 4.4, 10.5)">
      <use ffdec:characterId="1" height="21.0" transform="matrix(1.0, 0.0, 0.0, 1.0, -4.4, -10.5)" width="8.85" xlink:href="#shape0"/>
    </g>
    <g id="shape0" transform="matrix(1.0, 0.0, 0.0, 1.0, 4.4, 10.5)">
      <path d="M3.4 -6.2 L4.45 6.4 Q4.4 8.1 2.9 9.35 1.45 10.55 -0.3 10.5 -2.05 10.4 -3.25 9.2 -4.45 7.9 -4.4 6.2 L-4.0 -6.5 Q-3.95 -8.25 -2.95 -9.35 -1.9 -10.55 -0.2 -10.5 1.45 -10.45 2.5 -9.15 3.4 -8.0 3.4 -6.2" fill="#f5b87a" fill-rule="evenodd" stroke="none"/>
    </g>
    <g id="shape1" transform="matrix(1.0, 0.0, 0.0, 1.0, 5.45, 11.3)">
      <path d="M3.15 -9.1 Q4.35 -7.85 4.3 -6.1 L3.95 6.55 Q3.85 8.3 2.9 9.4 1.8 10.6 0.1 10.55 -1.55 10.5 -2.55 9.25 -3.5 8.05 -3.45 6.25 L-4.55 -6.35 Q-4.5 -8.05 -3.0 -9.25 -1.55 -10.5 0.25 -10.4 1.95 -10.35 3.15 -9.1 Z" fill="none" stroke="#000000" stroke-linecap="round" stroke-linejoin="round" stroke-width="1.8"/>
    </g>
    <g id="sprite4" transform="matrix(1.0, 0.0, 0.0, 1.0, 6.4, 12.1)">
      <use ffdec:characterId="6" height="19.35" id="mc300" transform="matrix(0.9431, 0.0, 0.0, 0.9431, -5.4484, -8.7009)" width="10.55" xlink:href="#sprite5"/>
      <use ffdec:characterId="7" height="20.0" transform="matrix(1.0, 0.0, 0.0, 1.0, -6.4, -9.6)" width="11.7" xlink:href="#shape3"/>
      <use ffdec:characterId="9" height="11.15" id="mc100" transform="matrix(0.9431, 0.0, 0.0, 0.9431, -3.8956, -11.2285)" width="10.7" xlink:href="#sprite6"/>
      <use ffdec:characterId="10" height="12.3" transform="matrix(1.0, 0.0, 0.0, 1.0, -4.8, -12.1)" width="11.9" xlink:href="#shape5"/>
    </g>
    <g id="sprite5" transform="matrix(1.0, 0.0, 0.0, 1.0, 5.3, 9.65)">
      <use ffdec:characterId="5" height="19.35" transform="matrix(1.0, 0.0, 0.0, 1.0, -5.3, -9.65)" width="10.55" xlink:href="#shape2"/>
    </g>
    <g id="shape2" transform="matrix(1.0, 0.0, 0.0, 1.0, 5.3, 9.65)">
      <path d="M1.65 -9.15 Q2.7 -9.9 3.75 -9.55 4.8 -9.25 5.15 -8.0 5.55 -6.75 4.0 0.3 L2.4 6.65 Q1.9 8.55 0.55 9.25 L-2.55 9.45 Q-4.2 8.9 -4.95 7.4 -5.65 6.0 -4.9 4.25 L-2.4 -1.8 Q0.55 -8.35 1.65 -9.15" fill="#f5b87a" fill-rule="evenodd" stroke="none"/>
    </g>
    <g id="shape3" transform="matrix(1.0, 0.0, 0.0, 1.0, 6.4, 9.6)">
      <path d="M1.05 -8.2 Q0.05 -7.45 -2.75 -1.25 L-5.15 4.4 Q-5.85 6.1 -5.2 7.4 -4.45 8.8 -2.9 9.3 L0.0 9.1 Q1.25 8.45 1.75 6.7 L3.25 0.7 Q4.7 -5.95 4.35 -7.15 4.0 -8.3 3.0 -8.55 2.05 -8.95 1.05 -8.2 Z" fill="none" stroke="#000000" stroke-linecap="round" stroke-linejoin="round" stroke-width="1.8"/>
    </g>
    <g id="sprite6" transform="matrix(1.0, 0.0, 0.0, 1.0, 5.35, 5.65)">
      <use ffdec:characterId="8" height="11.15" transform="matrix(1.0, 0.0, 0.0, 1.0, -5.35, -5.65)" width="10.7" xlink:href="#shape4"/>
    </g>
    <g id="shape4" transform="matrix(1.0, 0.0, 0.0, 1.0, 5.35, 5.65)">
      <path d="M5.35 -3.75 Q5.45 1.85 4.95 5.5 L-5.35 1.85 -0.15 -5.55 Q3.0 -6.1 5.35 -3.75" fill="#ffffff" fill-rule="evenodd" stroke="none"/>
    </g>
    <g id="shape5" transform="matrix(1.0, 0.0, 0.0, 1.0, 4.8, 12.1)">
      <path d="M1.0 -11.1 L-3.9 -4.15 5.8 -0.7 Q6.25 -4.2 6.2 -9.45 4.05 -11.6 1.0 -11.1 Z" fill="none" stroke="#000000" stroke-linecap="round" stroke-linejoin="round" stroke-width="1.8"/>
    </g>
    <g id="sprite7" transform="matrix(1.0, 0.0, 0.0, 1.0, 14.45, 11.5)">
      <use ffdec:characterId="13" height="21.6" id="mc200" transform="matrix(1.0, 0.0, 0.0, 1.0, -13.05, -10.6)" width="25.0" xlink:href="#sprite8"/>
      <use ffdec:characterId="17" height="10.2" id="mc100" transform="matrix(1.0, 0.0, 0.0, 1.0, -13.5, 9.9)" width="26.05" xlink:href="#sprite9"/>
      <use ffdec:characterId="18" height="32.45" transform="matrix(1.0, 0.0, 0.0, 1.0, -14.45, -11.5)" width="27.85" xlink:href="#shape9"/>
      <use ffdec:characterId="19" height="7.8" transform="matrix(0.2807, 0.0, 0.0, 0.2051, -7.6974, -2.8704)" width="5.7" xlink:href="#shape10"/>
      <use ffdec:characterId="19" height="7.8" transform="matrix(0.2807, 0.0, 0.0, 0.2051, -7.6974, -0.7704)" width="5.7" xlink:href="#shape10"/>
      <use ffdec:characterId="19" height="7.8" transform="matrix(0.2807, 0.0, 0.0, 0.2051, -7.6974, 1.5296)" width="5.7" xlink:href="#shape10"/>
      <use ffdec:characterId="19" height="7.8" transform="matrix(0.2807, 0.0, 0.0, 0.2051, -5.7474, -0.5204)" width="5.7" xlink:href="#shape10"/>
      <use ffdec:characterId="19" height="7.8" transform="matrix(0.2807, 0.0, 0.0, 0.2051, -5.7474, -2.6704)" width="5.7" xlink:href="#shape10"/>
      <use ffdec:characterId="19" height="7.8" transform="matrix(0.2807, 0.0, 0.0, 0.2051, -5.6974, 1.7296)" width="5.7" xlink:href="#shape10"/>
    </g>
    <g id="sprite8" transform="matrix(1.0, 0.0, 0.0, 1.0, 12.5, 10.8)">
      <use ffdec:characterId="12" height="21.6" transform="matrix(1.0, 0.0, 0.0, 1.0, -12.5, -10.8)" width="25.0" xlink:href="#shape6"/>
    </g>
    <g id="shape6" transform="matrix(1.0, 0.0, 0.0, 1.0, 12.5, 10.8)">
      <path d="M12.5 9.55 Q0.0 12.05 -12.5 9.55 L-7.45 -10.8 7.25 -10.8 Q11.65 -1.55 12.5 9.55" fill="#f5b87a" fill-rule="evenodd" stroke="none"/>
    </g>
    <g id="sprite9" transform="matrix(1.0, 0.0, 0.0, 1.0, 13.0, 5.05)">
      <use ffdec:characterId="15" height="10.05" id="mc100" transform="matrix(1.0, 0.0, 0.0, 1.0, -13.0, -5.05)" width="26.05" xlink:href="#sprite10"/>
      <use ffdec:characterId="16" height="9.3" transform="matrix(1.0, 0.0, 0.0, 1.0, -10.9, -4.15)" width="21.5" xlink:href="#shape8"/>
    </g>
    <g id="sprite10" transform="matrix(1.0, 0.0, 0.0, 1.0, 13.0, 5.05)">
      <use ffdec:characterId="14" height="10.05" transform="matrix(1.0, 0.0, 0.0, 1.0, -13.0, -5.05)" width="26.05" xlink:href="#shape7"/>
    </g>
    <g id="shape7" transform="matrix(1.0, 0.0, 0.0, 1.0, 13.0, 5.05)">
      <path d="M7.0 -0.55 L6.65 0.45 5.9 3.8 5.55 3.95 2.0 5.0 1.45 2.6 1.05 1.25 Q0.3 -0.4 -0.65 -0.4 -1.6 -0.4 -2.25 1.25 L-2.6 2.25 -3.15 4.75 -5.5 3.95 -6.3 3.6 -6.95 0.8 -7.35 -0.55 Q-8.1 -2.2 -9.05 -2.2 -10.0 -2.2 -10.65 -0.55 L-10.9 0.15 Q-12.05 -1.2 -13.0 -3.0 L-12.5 -5.05 -6.7 -4.15 -6.25 -2.1 -5.9 -1.1 Q-5.25 0.55 -4.3 0.55 -3.35 0.55 -2.6 -1.1 L-2.2 -2.45 -1.9 -3.85 1.0 -3.8 1.4 -2.1 1.75 -1.1 Q2.4 0.55 3.35 0.55 4.3 0.55 5.05 -1.1 L5.45 -2.45 5.85 -4.05 12.5 -5.05 13.05 -3.0 Q11.95 -1.0 10.6 0.5 L10.3 -0.55 Q9.55 -2.2 8.6 -2.2 7.65 -2.2 7.0 -0.55" fill="#ff9900" fill-rule="evenodd" stroke="none"/>
    </g>
    <g id="shape8" transform="matrix(1.0, 0.0, 0.0, 1.0, 10.9, 4.15)">
      <path d="M5.05 -1.1 Q4.3 0.55 3.35 0.55 2.4 0.55 1.75 -1.1 L1.4 -2.1 1.0 -3.8 5.85 -4.05 5.45 -2.45 5.05 -1.1 M1.05 1.25 L1.45 2.6 2.0 5.0 -3.15 4.75 -2.6 2.25 -2.25 1.25 Q-1.6 -0.4 -0.65 -0.4 0.3 -0.4 1.05 1.25 M7.0 -0.55 Q7.65 -2.2 8.6 -2.2 9.55 -2.2 10.3 -0.55 L10.6 0.5 Q8.55 2.75 5.9 3.8 L6.65 0.45 7.0 -0.55 M-2.2 -2.45 L-2.6 -1.1 Q-3.35 0.55 -4.3 0.55 -5.25 0.55 -5.9 -1.1 L-6.25 -2.1 -6.7 -4.15 -1.9 -3.85 -2.2 -2.45 M-7.35 -0.55 L-6.95 0.8 -6.3 3.6 Q-8.9 2.45 -10.9 0.15 L-10.65 -0.55 Q-10.0 -2.2 -9.05 -2.2 -8.1 -2.2 -7.35 -0.55" fill="#000000" fill-rule="evenodd" stroke="none"/>
    </g>
    <g id="shape9" transform="matrix(1.0, 0.0, 0.0, 1.0, 14.45, 11.5)">
      <path d="M5.0 18.75 Q-0.55 21.1 -5.4 19.15 -10.75 17.05 -13.55 11.8 L-13.05 9.75 -8.0 -10.6 6.7 -10.6 Q11.1 -1.35 11.95 9.75 L12.5 11.8 Q9.65 17.05 5.0 18.75 M-13.05 9.75 Q-0.55 12.25 11.95 9.75" fill="none" stroke="#000000" stroke-linecap="round" stroke-linejoin="round" stroke-width="1.8"/>
    </g>
    <g id="shape10" transform="matrix(1.0, 0.0, 0.0, 1.0, 13.35, 25.45)">
      <path d="M-9.05 -24.6 Q-8.05 -23.65 -7.75 -22.05 -7.45 -20.5 -8.05 -19.2 -8.65 -17.95 -9.8 -17.7 -10.95 -17.5 -11.95 -18.5 -12.95 -19.5 -13.25 -21.05 -13.55 -22.65 -12.95 -23.9 -12.35 -25.2 -11.2 -25.4 -10.05 -25.6 -9.05 -24.6" fill="#000000" fill-rule="evenodd" stroke="none"/>
    </g>
    <g id="sprite11" transform="matrix(1.0, 0.0, 0.0, 1.0, 9.15, 11.15)">
      <use ffdec:characterId="22" height="20.45" id="mc100" transform="matrix(1.0, 0.0, 0.0, 1.0, -8.25, -10.25)" width="16.55" xlink:href="#sprite12"/>
      <use ffdec:characterId="23" height="22.25" transform="matrix(1.0, 0.0, 0.0, 1.0, -9.15, -11.15)" width="18.35" xlink:href="#shape12"/>
    </g>
    <g id="sprite12" transform="matrix(1.0, 0.0, 0.0, 1.0, 8.25, 10.25)">
      <use ffdec:characterId="21" height="20.45" transform="matrix(1.0, 0.0, 0.0, 1.0, -8.25, -10.25)" width="16.55" xlink:href="#shape11"/>
    </g>
    <g id="shape11" transform="matrix(1.0, 0.0, 0.0, 1.0, 8.25, 10.25)">
      <path d="M2.05 -10.0 L2.45 -10.1 8.3 8.5 Q0.6 11.0 -7.1 9.85 L-7.4 9.65 -8.25 -8.85 -7.9 -9.25 -7.8 -9.5 2.05 -10.25 2.05 -10.0" fill="#ffffff" fill-rule="evenodd" stroke="none"/>
    </g>
    <g id="shape12" transform="matrix(1.0, 0.0, 0.0, 1.0, 9.15, 11.15)">
      <path d="M2.45 -10.1 L8.3 8.5 Q0.6 11.0 -7.1 9.85 M2.05 -10.0 L-3.35 -5.55 -7.9 -9.25 M-7.4 9.65 L-8.25 -8.85 M-7.8 -9.5 L2.05 -10.25" fill="none" stroke="#000000" stroke-linecap="round" stroke-linejoin="round" stroke-width="1.8"/>
    </g>
    <g id="sprite13" transform="matrix(1.0, 0.0, 0.0, 1.0, 4.05, 10.75)">
      <use ffdec:characterId="26" height="20.15" id="mc100" transform="matrix(1.0, 0.0, 0.0, 1.0, -3.15, -9.85)" width="7.55" xlink:href="#sprite14"/>
      <use ffdec:characterId="27" height="21.95" transform="matrix(1.0, 0.0, 0.0, 1.0, -4.05, -10.75)" width="9.4" xlink:href="#shape14"/>
    </g>
    <g id="sprite14" transform="matrix(1.0, 0.0, 0.0, 1.0, 3.75, 10.05)">
      <use ffdec:characterId="25" height="20.15" transform="matrix(1.0, 0.0, 0.0, 1.0, -3.75, -10.05)" width="7.55" xlink:href="#shape13"/>
    </g>
    <g id="shape13" transform="matrix(1.0, 0.0, 0.0, 1.0, 3.75, 10.05)">
      <path d="M3.8 -8.2 L0.35 10.1 -3.75 8.4 0.4 -5.8 0.4 -9.55 0.7 -10.05 3.65 -8.25 3.8 -8.2" fill="#ffffff" fill-rule="evenodd" stroke="none"/>
    </g>
    <g id="shape14" transform="matrix(1.0, 0.0, 0.0, 1.0, 4.05, 10.75)">
      <path d="M1.3 -9.85 L4.25 -8.05 4.45 -8.25 0.95 10.3 -3.15 8.6 1.0 -5.6 1.0 -9.35 M4.25 -8.05 L1.0 -5.6" fill="none" stroke="#000000" stroke-linecap="round" stroke-linejoin="round" stroke-width="1.8"/>
    </g>
    <g id="sprite15" transform="matrix(1.0, 0.0, 0.0, 1.0, 27.65, 26.75)">
      <use ffdec:characterId="30" height="54.0" id="mc100" transform="matrix(1.0542, 0.0, 0.0, 1.0, -26.7498, -25.85)" width="53.5" xlink:href="#sprite16"/>
      <use ffdec:characterId="31" height="55.8" transform="matrix(1.0, 0.0, 0.0, 1.0, -27.65, -26.75)" width="58.2" xlink:href="#shape16"/>
    </g>
    <g id="sprite16" transform="matrix(1.0, 0.0, 0.0, 1.0, 26.75, 27.0)">
      <use ffdec:characterId="29" height="54.0" transform="matrix(1.0, 0.0, 0.0, 1.0, -26.75, -27.0)" width="53.5" xlink:href="#shape15"/>
    </g>
    <g id="shape15" transform="matrix(1.0, 0.0, 0.0, 1.0, 26.75, 27.0)">
      <path d="M26.75 -0.25 Q26.7 10.8 18.7 17.95 10.7 25.05 5.0 26.0 L-5.15 27.0 -13.9 26.5 Q-19.75 25.7 -22.5 22.7 -25.3 19.65 -25.2 15.9 L-24.9 9.8 Q-26.8 5.15 -26.75 -0.25 -26.8 -11.35 -18.95 -19.2 -11.1 -27.05 0.0 -27.0 11.05 -27.05 18.85 -19.2 26.7 -11.35 26.75 -0.25" fill="#f5b87a" fill-rule="evenodd" stroke="none"/>
    </g>
    <g id="shape16" transform="matrix(1.0, 0.0, 0.0, 1.0, 27.65, 26.75)">
      <path d="M21.35 -18.05 Q29.6 -10.2 29.65 0.9 29.6 11.95 21.2 19.1 12.75 26.2 6.7 27.15 L-4.0 28.15 -13.2 27.65 Q-19.4 26.85 -22.3 23.85 -25.2 20.8 -25.15 17.05 L-24.8 10.95 Q-26.8 6.3 -26.75 0.9 -26.8 -10.2 -18.55 -18.05 -10.25 -25.9 1.45 -25.85 13.1 -25.9 21.35 -18.05 Z" fill="none" stroke="#000000" stroke-linecap="round" stroke-linejoin="round" stroke-width="1.8"/>
    </g>
    <g id="sprite17" transform="matrix(1.0, 0.0, 0.0, 1.0, 13.4, 2.35)">
      <use ffdec:characterId="33" height="4.65" transform="matrix(1.0, 0.0, 0.0, 1.0, -13.4, -2.35)" width="19.9" xlink:href="#shape17"/>
    </g>
    <g id="shape17" transform="matrix(1.0, 0.0, 0.0, 1.0, 13.4, 2.35)">
      <path d="M-5.25 -0.15 L-5.15 -1.9 6.5 0.3 6.4 2.3 -5.25 -0.15 M-6.15 -2.35 L-6.05 -0.6 -13.4 0.6 -13.4 -1.25 -6.15 -2.35" fill="#000000" fill-rule="evenodd" stroke="none"/>
    </g>
    <g id="sprite18" transform="matrix(1.0, 0.0, 0.0, 1.0, 11.65, 1.3)">
      <use ffdec:characterId="36" height="3.55" id="mc100" transform="matrix(1.0, 0.0, 0.0, 1.0, -11.65, -1.3)" width="18.05" xlink:href="#sprite19"/>
      <use ffdec:characterId="37" height="3.5" transform="matrix(1.0, 0.0, 0.0, 1.0, -11.65, -1.25)" width="18.05" xlink:href="#shape19"/>
    </g>
    <g id="sprite19" transform="matrix(1.0, 0.0, 0.0, 1.0, 9.05, 1.75)">
      <use ffdec:characterId="35" height="3.55" transform="matrix(1.0, 0.0, 0.0, 1.0, -9.05, -1.75)" width="18.05" xlink:href="#shape18"/>
    </g>
    <g id="shape18" transform="matrix(1.0, 0.0, 0.0, 1.0, 9.05, 1.75)">
      <path d="M6.5 0.85 L9.0 1.8 6.5 1.75 Q-2.0 1.5 -9.05 -0.1 -5.9 -3.8 6.5 0.85" fill="#f5b87a" fill-rule="evenodd" stroke="none"/>
    </g>
    <g id="shape19" transform="matrix(1.0, 0.0, 0.0, 1.0, 11.65, 1.25)">
      <path d="M3.9 1.3 L6.4 2.25 3.9 2.2 Q-4.6 1.95 -11.65 0.35 -8.15 -3.25 3.9 1.3" fill="#000000" fill-opacity="0.2" fill-rule="evenodd" stroke="none"/>
    </g>
    <g id="sprite20" transform="matrix(1.0, 0.0, 0.0, 1.0, 12.2, 3.1)">
      <use ffdec:characterId="42" height="5.55" id="mc100" transform="matrix(1.0, 0.0, 0.0, 1.0, -11.5, -2.35)" width="17.05" xlink:href="#sprite21"/>
      <use ffdec:characterId="43" height="6.6" transform="matrix(1.0, 0.0, 0.0, 1.0, -12.2, -3.1)" width="18.5" xlink:href="#shape22"/>
    </g>
    <g id="sprite21" transform="matrix(1.0, 0.0, 0.0, 1.0, 8.55, 2.7)">
      <use ffdec:characterId="40" height="5.3" id="mc100" transform="matrix(1.0, 0.0, 0.0, 1.0, -8.55, -2.7)" width="17.05" xlink:href="#sprite22"/>
      <use ffdec:characterId="41" height="5.55" transform="matrix(1.0, 0.0, 0.0, 1.0, -8.55, -2.7)" width="17.05" xlink:href="#shape21"/>
    </g>
    <g id="sprite22" transform="matrix(1.0, 0.0, 0.0, 1.0, 8.55, 2.65)">
      <use ffdec:characterId="39" height="5.3" transform="matrix(1.0, 0.0, 0.0, 1.0, -8.55, -2.65)" width="17.05" xlink:href="#shape20"/>
    </g>
    <g id="shape20" transform="matrix(1.0, 0.0, 0.0, 1.0, 8.55, 2.65)">
      <path d="M8.5 -0.95 Q-5.35 6.95 -8.55 -2.6 L-8.5 -2.65 Q-1.5 -1.0 7.15 -1.1 L8.5 -0.95" fill="#f5b87a" fill-rule="evenodd" stroke="none"/>
    </g>
    <g id="shape21" transform="matrix(1.0, 0.0, 0.0, 1.0, 8.55, 2.7)">
      <path d="M8.5 -1.0 Q-5.5 7.45 -8.55 -2.65 L-8.5 -2.7 Q-1.5 -1.05 7.15 -1.15 L8.5 -1.0" fill="#000000" fill-opacity="0.2" fill-rule="evenodd" stroke="none"/>
    </g>
    <g id="shape22" transform="matrix(1.0, 0.0, 0.0, 1.0, 12.2, 3.1)">
      <path d="M5.55 -0.65 Q-10.85 6.95 -11.45 -2.35 -4.45 -0.7 4.2 -0.8 L5.55 -0.65 Z" fill="none" stroke="#000000" stroke-linecap="round" stroke-linejoin="round" stroke-width="1.5"/>
    </g>
    <g id="sprite23" transform="matrix(1.0, 0.0, 0.0, 1.0, 9.0, 2.55)">
      <use ffdec:characterId="45" height="4.15" transform="matrix(1.0, 0.0, 0.0, 1.0, -9.0, -2.55)" width="16.25" xlink:href="#shape23"/>
    </g>
    <g id="shape23" transform="matrix(1.0, 0.0, 0.0, 1.0, 9.0, 2.55)">
      <path d="M-8.25 0.85 Q-0.65 -2.15 6.5 -1.75" fill="none" stroke="#000000" stroke-linecap="round" stroke-linejoin="round" stroke-width="1.5"/>
    </g>
    <g id="sprite24" transform="matrix(1.0, 0.0, 0.0, 1.0, 5.7, 3.5)">
      <use ffdec:characterId="47" height="7.0" transform="matrix(1.0, 0.0, 0.0, 1.0, -5.7, -3.5)" width="9.0" xlink:href="#shape24"/>
    </g>
    <g id="shape24" transform="matrix(1.0, 0.0, 0.0, 1.0, 5.7, 3.5)">
      <path d="M2.55 2.75 Q-0.4 -1.5 -4.95 -2.75" fill="none" stroke="#000000" stroke-linecap="round" stroke-linejoin="round" stroke-width="1.5"/>
    </g>
    <g id="sprite25" transform="matrix(1.0, 0.0, 0.0, 1.0, 19.8, 7.65)">
      <use ffdec:characterId="52" height="12.2" id="mc100" transform="matrix(0.9976, 0.0748, -0.066, 1.1292, -18.6069, -7.1866)" width="33.4" xlink:href="#sprite26"/>
      <use ffdec:characterId="53" height="17.05" transform="matrix(1.0, 0.0, 0.0, 1.0, -19.8, -7.65)" width="49.1" xlink:href="#shape27"/>
    </g>
    <g id="sprite26" transform="matrix(1.0, 0.0, 0.0, 1.0, 16.7, 6.1)">
      <use ffdec:characterId="50" height="12.2" id="mc100" transform="matrix(1.0, 0.0, 0.0, 1.0, -16.7, -6.1)" width="33.4" xlink:href="#sprite27"/>
      <use ffdec:characterId="51" height="12.2" transform="matrix(1.0, 0.0, 0.0, 1.0, -16.7, -6.1)" width="33.4" xlink:href="#shape26"/>
    </g>
    <g id="sprite27" transform="matrix(1.0, 0.0, 0.0, 1.0, 16.7, 6.1)">
      <use ffdec:characterId="49" height="12.2" transform="matrix(1.0, 0.0, 0.0, 1.0, -16.7, -6.1)" width="33.4" xlink:href="#shape25"/>
    </g>
    <g id="shape25" transform="matrix(1.0, 0.0, 0.0, 1.0, 16.7, 6.1)">
      <path d="M13.5 -5.1 Q15.1 -4.85 16.0 -4.0 16.9 -3.15 16.65 -1.2 16.35 0.7 14.6 2.75 12.6 5.2 10.15 6.0 4.75 6.55 0.4 3.5 -0.05 2.0 -0.2 0.4 L-0.25 -0.3 -0.2 -2.6 Q0.05 -4.5 3.8 -5.15 8.65 -5.6 13.5 -5.1 M-7.0 -0.4 Q-7.3 2.4 -9.95 5.65 -14.5 5.25 -16.35 0.6 -18.3 -7.2 -9.0 -5.9 -6.65 -3.4 -7.0 -0.4" fill="#66cc00" fill-rule="evenodd" stroke="none"/>
    </g>
    <g id="shape26" transform="matrix(1.0, 0.0, 0.0, 1.0, 16.7, 6.1)">
      <path d="M9.75 -0.6 Q11.35 1.65 9.45 4.0 L11.3 4.0 Q12.6 2.4 12.35 -0.6 11.8 -0.2 11.05 -0.15 10.3 -0.2 9.75 -0.6 M9.45 -1.45 Q10.0 -1.0 10.8 -1.0 11.55 -1.0 12.1 -1.45 12.6 -1.9 12.65 -2.55 12.6 -3.2 12.1 -3.6 11.55 -4.05 10.8 -4.05 10.0 -4.05 9.45 -3.6 8.9 -3.2 8.9 -2.55 8.9 -1.9 9.45 -1.45 M16.0 -4.0 Q16.9 -3.15 16.65 -1.2 16.35 0.7 14.6 2.75 12.6 5.2 10.15 6.0 4.75 6.55 0.4 3.5 -0.05 2.0 -0.2 0.4 L-0.25 -0.3 -0.2 -2.6 Q0.05 -4.5 3.8 -5.15 8.65 -5.6 13.5 -5.1 15.1 -4.85 16.0 -4.0 M-13.75 -1.05 Q-14.55 -1.05 -15.05 -1.35 -15.35 0.75 -14.0 1.9 L-12.2 1.9 Q-14.1 0.25 -12.45 -1.35 L-12.5 -1.35 Q-13.05 -1.05 -13.75 -1.05 M-13.5 -3.8 L-14.8 -3.45 Q-15.35 -3.2 -15.35 -2.7 -15.35 -2.25 -14.8 -1.95 L-13.5 -1.6 Q-12.75 -1.65 -12.2 -1.95 L-11.75 -2.35 -11.75 -3.05 -12.2 -3.45 Q-12.75 -3.8 -13.5 -3.8 M-7.0 -0.4 Q-7.3 2.4 -9.95 5.65 -14.5 5.25 -16.35 0.6 -18.3 -7.2 -9.0 -5.9 -6.65 -3.4 -7.0 -0.4" fill="#000000" fill-opacity="0.5019608" fill-rule="evenodd" stroke="none"/>
    </g>
    <g id="shape27" transform="matrix(1.0, 0.0, 0.0, 1.0, 19.8, 7.65)">
      <path d="M14.6 -2.05 L28.55 -1.25" fill="none" stroke="#000000" stroke-linecap="round" stroke-linejoin="round" stroke-width="1.5"/>
      <path d="M13.9 -2.35 Q14.7 -1.3 14.35 0.9 13.9 3.0 12.05 5.2 9.85 7.75 7.4 8.5 1.95 8.7 -2.2 4.95 -2.55 3.25 -2.55 1.4 L-2.55 0.6 -2.35 -2.0 Q-2.0 -4.1 1.75 -4.55 L11.45 -3.75 Q13.0 -3.4 13.9 -2.35 M-3.15 0.6 Q-6.05 -2.5 -9.3 0.0 -9.8 3.15 -12.65 6.6 -17.15 5.85 -18.7 0.45 -20.1 -8.5 -10.95 -6.35 -8.8 -3.35 -9.3 0.0" fill="none" stroke="#000000" stroke-linecap="round" stroke-linejoin="round" stroke-width="1.8"/>
    </g>
    <g id="sprite28" transform="matrix(1.0, 0.0, 0.0, 1.0, 12.4, 3.75)">
      <use ffdec:characterId="55" height="12.1" transform="matrix(1.0, 0.0, 0.0, 1.0, -12.4, -3.75)" width="21.95" xlink:href="#shape28"/>
    </g>
    <g id="shape28" transform="matrix(1.0, 0.0, 0.0, 1.0, 12.4, 3.75)">
      <path d="M-4.25 -1.8 L-3.35 -1.75 -3.9 -1.8 -4.25 -1.8 M-2.95 -1.75 L9.55 -0.95 Q8.9 6.05 0.5 8.35 2.6 1.6 -4.6 -1.75 -5.85 -1.6 -6.9 -0.75 -8.3 0.35 -8.65 2.0 -9.0 3.65 -8.0 4.95 -7.1 6.2 -5.45 6.25 -3.8 6.3 -2.4 5.2 L-2.1 4.9 Q-2.55 5.8 -3.4 6.5 -5.2 7.9 -7.45 7.55 -9.7 7.2 -11.1 5.3 -12.6 3.4 -12.35 1.1 -12.15 -1.25 -10.4 -2.6 -8.7 -4.05 -6.4 -3.7 -4.35 -3.4 -2.95 -1.75" fill="#000000" fill-rule="evenodd" stroke="none"/>
    </g>
    <g id="sprite29" transform="matrix(1.0, 0.0, 0.0, 1.0, 27.15, 25.7)">
      <use ffdec:characterId="58" height="51.7" id="mc100" transform="matrix(1.0711, 0.0, 0.0, 1.0, -24.9749, -24.95)" width="49.9" xlink:href="#sprite30"/>
      <use ffdec:characterId="59" height="53.2" transform="matrix(1.0, 0.0, 0.0, 1.0, -27.15, -25.7)" width="56.35" xlink:href="#shape30"/>
    </g>
    <g id="sprite30" transform="matrix(1.0, 0.0, 0.0, 1.0, 24.95, 25.85)">
      <use ffdec:characterId="57" height="51.7" transform="matrix(1.0, 0.0, 0.0, 1.0, -24.95, -25.85)" width="49.9" xlink:href="#shape29"/>
    </g>
    <g id="shape29" transform="matrix(1.0, 0.0, 0.0, 1.0, 24.95, 25.85)">
      <path d="M13.7 2.7 Q13.1 -5.45 6.9 -10.6 0.7 -15.8 -9.8 -15.8 -18.4 -15.8 -24.95 -12.05 -23.2 -15.2 -20.45 -18.0 -12.65 -25.85 -1.65 -25.85 9.35 -25.85 17.15 -18.0 24.9 -10.15 24.95 0.9 24.9 11.95 17.15 19.8 13.1 23.85 8.2 25.85 L5.5 18.7 10.6 14.35 Q14.3 10.8 13.7 2.7" fill="#000000" fill-rule="evenodd" stroke="none"/>
    </g>
    <g id="shape30" transform="matrix(1.0, 0.0, 0.0, 1.0, 27.15, 25.7)">
      <path d="M-26.05 -8.25 Q-23.35 -12.8 -17.85 -14.8 -22.9 -13.05 -26.4 -8.6 -23.1 -14.3 -20.15 -17.1 -11.8 -24.95 0.0 -24.95 11.75 -24.95 20.1 -17.1 28.45 -9.25 28.45 1.8 28.45 12.85 20.1 20.7 15.75 24.75 10.55 26.75 L7.65 19.6 Q9.1 18.8 13.05 14.65 16.95 10.5 15.55 1.95 14.15 -6.65 8.25 -10.85 2.3 -15.05 -8.9 -15.85 -13.85 -16.2 -17.85 -14.8" fill="none" stroke="#000000" stroke-linecap="round" stroke-linejoin="round" stroke-width="1.5"/>
    </g>
  </defs>
</svg>
