<?xml version="1.0" encoding="UTF-8" standalone="no"?>
<svg xmlns:ffdec="https://www.free-decompiler.com/flash" xmlns:xlink="http://www.w3.org/1999/xlink" ffdec:objectType="frame" height="117.2px" width="62.5px" xmlns="http://www.w3.org/2000/svg">
  <g transform="matrix(1.0, 0.0, 0.0, 1.0, 40.95, 113.65)">
    <use ffdec:characterId="76" height="96.55" id="mc100" transform="matrix(1.0, 0.0, 0.0, 1.0, -40.95, -93.0)" width="62.5" xlink:href="#sprite0"/>
    <use ffdec:characterId="77" height="0.0" id="hat" transform="matrix(-1.0, 0.0, 0.0, 1.0, 20.75, -113.65)" width="0.0" xlink:href="#sprite20"/>
  </g>
  <defs>
    <g id="sprite0" transform="matrix(1.0, 0.0, 0.0, 1.0, 40.95, 93.0)">
      <use ffdec:characterId="75" height="96.55" id="mc100" transform="matrix(-1.0, 0.0, 0.0, 1.0, 21.55, -93.0)" width="62.5" xlink:href="#sprite1"/>
    </g>
    <g id="sprite1" transform="matrix(1.0, 0.0, 0.0, 1.0, 29.65, 50.15)">
      <use ffdec:characterId="43" height="20.25" id="mc1000" transform="matrix(0.9936, 0.1092, -0.1092, 0.9936, -17.4112, 23.4026)" width="11.2" xlink:href="#sprite2"/>
      <use ffdec:characterId="43" height="20.25" id="mc900" transform="matrix(-0.9936, 0.1092, 0.1092, 0.9936, 3.0612, 25.0526)" width="11.2" xlink:href="#sprite2"/>
      <use ffdec:characterId="46" height="24.85" id="mc800" transform="matrix(0.9838, 0.1777, -0.1777, 0.9838, -23.2737, 5.9504)" width="15.2" xlink:href="#sprite4"/>
      <use ffdec:characterId="54" height="36.25" id="mc700" transform="matrix(1.0, 0.0, 0.0, 1.0, -21.4, 3.1)" width="32.1" xlink:href="#sprite7"/>
      <use ffdec:characterId="55" height="10.0" transform="matrix(1.0, 0.0, 0.0, 1.0, -13.75, 28.35)" width="7.4" xlink:href="#shape10"/>
      <use ffdec:characterId="46" height="24.85" id="mc500" transform="matrix(-0.9659, 0.2588, 0.2588, 0.9659, 10.4821, 6.0055)" width="15.2" xlink:href="#sprite4"/>
      <use ffdec:characterId="61" height="62.3" id="mc400" transform="matrix(1.0, 0.0, 0.0, 1.0, -27.55, -50.15)" width="60.4" xlink:href="#sprite11"/>
      <use ffdec:characterId="62" height="3.95" transform="matrix(-1.907, 0.0, 0.0, 1.2553, -10.7751, 4.1648)" width="2.6" xlink:href="#shape14"/>
      <use ffdec:characterId="65" height="7.7" id="mc200" transform="matrix(1.0, 0.0, 0.0, 1.0, -24.35, 0.2)" width="29.25" xlink:href="#sprite14"/>
      <use ffdec:characterId="70" height="25.15" id="mc100" transform="matrix(1.0, 0.0, 0.0, 1.0, -29.65, -23.0)" width="48.85" xlink:href="#sprite16"/>
      <use ffdec:characterId="74" height="35.05" id="mc000" transform="matrix(1.0, 0.0, 0.0, 1.0, -26.25, -46.25)" width="55.75" xlink:href="#sprite18"/>
    </g>
    <g id="sprite2" transform="matrix(1.0, 0.0, 0.0, 1.0, 5.6, 10.1)">
      <use ffdec:characterId="42" height="18.45" id="mc100" transform="matrix(1.0, 0.0, 0.0, 1.0, -4.7, -9.2)" width="9.4" xlink:href="#sprite3"/>
      <use ffdec:characterId="3" height="20.25" transform="matrix(1.0, 0.0, 0.0, 1.0, -5.6, -10.1)" width="11.2" xlink:href="#shape1"/>
    </g>
    <g id="sprite3" transform="matrix(1.0, 0.0, 0.0, 1.0, 4.7, 9.2)">
      <use ffdec:characterId="1" height="18.45" transform="matrix(1.0, 0.0, 0.0, 1.0, -4.7, -9.2)" width="9.4" xlink:href="#shape0"/>
    </g>
    <g id="shape0" transform="matrix(1.0, 0.0, 0.0, 1.0, 4.7, 9.2)">
      <path d="M4.0 -7.2 L4.0 -6.8 4.7 6.6 4.7 6.75 Q4.7 7.8 3.3 8.5 1.95 9.25 0.0 9.25 -1.95 9.25 -3.35 8.5 -4.7 7.8 -4.7 6.75 L-4.65 6.35 -4.0 -7.1 Q-3.95 -8.0 -2.85 -8.6 -1.65 -9.2 0.0 -9.2 1.65 -9.2 2.8 -8.6 3.9 -8.0 4.0 -7.2" fill="#ffd797" fill-rule="evenodd" stroke="none"/>
    </g>
    <g id="shape1" transform="matrix(1.0, 0.0, 0.0, 1.0, 5.6, 10.1)">
      <path d="M4.0 -7.2 L4.0 -7.05 4.0 -6.8 4.0 -7.2" fill="#ffd797" fill-rule="evenodd" stroke="none"/>
      <path d="M4.0 -7.2 L4.0 -7.05 4.0 -6.8 4.7 6.6 4.7 6.75 Q4.7 7.8 3.3 8.5 1.95 9.25 0.0 9.25 -1.95 9.25 -3.35 8.5 -4.7 7.8 -4.7 6.75 L-4.65 6.35 -4.0 -7.1 Q-3.95 -8.0 -2.85 -8.6 -1.65 -9.2 0.0 -9.2 1.65 -9.2 2.8 -8.6 3.9 -8.0 4.0 -7.2 L4.0 -6.8" fill="none" stroke="#000000" stroke-linecap="round" stroke-linejoin="round" stroke-width="1.8"/>
    </g>
    <g id="sprite4" transform="matrix(1.0, 0.0, 0.0, 1.0, 7.6, 12.4)">
      <use ffdec:characterId="44" height="20.75" id="mc300" transform="matrix(1.0, 0.0, 0.0, 1.0, -4.55, -9.2)" width="9.4" xlink:href="#sprite5"/>
      <use ffdec:characterId="7" height="22.55" transform="matrix(1.0, 0.0, 0.0, 1.0, -5.45, -10.1)" width="11.2" xlink:href="#shape3"/>
      <use ffdec:characterId="45" height="11.0" id="mc100" transform="matrix(1.0, 0.0, 0.0, 1.0, -6.7, -11.5)" width="13.4" xlink:href="#sprite6"/>
      <use ffdec:characterId="10" height="12.8" transform="matrix(1.0, 0.0, 0.0, 1.0, -7.6, -12.4)" width="15.2" xlink:href="#shape5"/>
    </g>
    <g id="sprite5" transform="matrix(1.0, 0.0, 0.0, 1.0, 4.7, 10.35)">
      <use ffdec:characterId="5" height="20.75" transform="matrix(1.0, 0.0, 0.0, 1.0, -4.7, -10.35)" width="9.4" xlink:href="#shape2"/>
    </g>
    <g id="shape2" transform="matrix(1.0, 0.0, 0.0, 1.0, 4.7, 10.35)">
      <path d="M2.15 -9.55 Q3.05 -8.8 3.05 -7.7 L4.7 6.25 Q4.7 8.0 3.3 9.2 1.95 10.4 0.0 10.4 -1.95 10.4 -3.35 9.2 -4.7 8.0 -4.7 6.25 L-3.05 -7.7 Q-3.05 -8.8 -2.15 -9.55 -1.25 -10.35 0.0 -10.35 1.25 -10.35 2.15 -9.55" fill="#ffd797" fill-rule="evenodd" stroke="none"/>
    </g>
    <g id="shape3" transform="matrix(1.0, 0.0, 0.0, 1.0, 5.45, 10.1)">
      <path d="M3.2 -6.55 L4.7 6.0 4.85 7.4 Q4.85 9.15 3.45 10.35 2.1 11.55 0.15 11.55 -1.8 11.55 -3.2 10.35 -4.55 9.15 -4.55 7.4 L-4.35 6.0 -2.9 -6.55 Q-2.9 -7.65 -2.0 -8.4 -1.1 -9.2 0.15 -9.2 1.4 -9.2 2.3 -8.4 3.2 -7.65 3.2 -6.55 M4.7 6.0 Q0.35 5.1 -4.35 6.0" fill="none" stroke="#000000" stroke-linecap="round" stroke-linejoin="round" stroke-width="1.8"/>
    </g>
    <g id="sprite6" transform="matrix(1.0, 0.0, 0.0, 1.0, 6.7, 5.55)">
      <use ffdec:characterId="8" height="11.0" transform="matrix(1.0, 0.0, 0.0, 1.0, -6.7, -5.55)" width="13.4" xlink:href="#shape4"/>
    </g>
    <g id="shape4" transform="matrix(1.0, 0.0, 0.0, 1.0, 6.7, 5.55)">
      <path d="M4.2 -4.5 L6.7 4.95 Q0.15 5.95 -6.7 4.95 L-3.8 -4.5 Q0.2 -6.55 4.2 -4.5" fill="#ffffff" fill-rule="evenodd" stroke="none"/>
    </g>
    <g id="shape5" transform="matrix(1.0, 0.0, 0.0, 1.0, 7.6, 12.4)">
      <path d="M4.2 -10.45 Q0.2 -12.5 -3.8 -10.45 L-6.7 -1.0 Q0.15 0.0 6.7 -1.0 L4.2 -10.45 Z" fill="none" stroke="#000000" stroke-linecap="round" stroke-linejoin="round" stroke-width="1.8"/>
    </g>
    <g id="sprite7" transform="matrix(1.0, 0.0, 0.0, 1.0, 16.05, 18.1)">
      <use ffdec:characterId="48" height="15.65" id="mc200" transform="matrix(1.0, 0.0, 0.0, 1.0, -11.6, -17.2)" width="22.15" xlink:href="#sprite8"/>
      <use ffdec:characterId="50" height="18.35" id="mc201" transform="matrix(1.0, 0.0, 0.0, 1.0, -15.15, -1.1)" width="30.3" xlink:href="#sprite9"/>
      <use ffdec:characterId="52" height="4.5" id="mc202" transform="matrix(1.0, 0.0, 0.0, 1.0, -12.1, -3.5)" width="23.3" xlink:href="#sprite10"/>
      <use ffdec:characterId="53" height="36.25" transform="matrix(1.0, 0.0, 0.0, 1.0, -16.05, -18.1)" width="32.1" xlink:href="#shape9"/>
    </g>
    <g id="sprite8" transform="matrix(1.0, 0.0, 0.0, 1.0, 11.1, 7.85)">
      <use ffdec:characterId="47" height="15.65" transform="matrix(1.0, 0.0, 0.0, 1.0, -11.1, -7.85)" width="22.15" xlink:href="#shape6"/>
    </g>
    <g id="shape6" transform="matrix(1.0, 0.0, 0.0, 1.0, 11.1, 7.85)">
      <path d="M-8.75 -6.25 L7.25 -7.85 11.05 6.95 -1.35 7.7 -5.55 7.25 Q-8.45 6.75 -11.1 5.85 L-8.75 -6.25" fill="#ffffff" fill-rule="evenodd" stroke="none"/>
    </g>
    <g id="sprite9" transform="matrix(1.0, 0.0, 0.0, 1.0, 15.15, 9.15)">
      <use ffdec:characterId="49" height="18.35" transform="matrix(1.0, 0.0, 0.0, 1.0, -15.15, -9.15)" width="30.3" xlink:href="#shape7"/>
    </g>
    <g id="shape7" transform="matrix(1.0, 0.0, 0.0, 1.0, 15.15, 9.15)">
      <path d="M-12.1 -9.15 Q-9.2 -8.15 -6.05 -7.6 L-1.85 -7.15 Q4.25 -6.75 11.2 -8.0 L15.15 7.3 Q4.9 9.8 -3.55 9.05 -9.85 8.45 -15.15 6.1 L-12.1 -9.15" fill="#0066cc" fill-rule="evenodd" stroke="none"/>
    </g>
    <g id="sprite10" transform="matrix(1.0, 0.0, 0.0, 1.0, 11.65, 2.25)">
      <use ffdec:characterId="51" height="4.5" transform="matrix(1.0, 0.0, 0.0, 1.0, -11.65, -2.25)" width="23.3" xlink:href="#shape8"/>
    </g>
    <g id="shape8" transform="matrix(1.0, 0.0, 0.0, 1.0, 11.65, 2.25)">
      <path d="M-5.6 -0.85 L-1.4 -0.4 11.0 -1.15 11.65 1.3 -1.4 2.15 -5.6 1.7 -11.65 0.15 -11.15 -2.25 Q-8.5 -1.35 -5.6 -0.85" fill="#663300" fill-rule="evenodd" stroke="none"/>
    </g>
    <g id="shape9" transform="matrix(1.0, 0.0, 0.0, 1.0, 16.05, 18.1)">
      <path d="M-4.75 -2.95 L-4.25 -9.95" fill="none" stroke="#000000" stroke-linecap="round" stroke-linejoin="round" stroke-width="1.8"/>
      <path d="M-5.25 -8.65 L-11.05 -6.35 -11.6 -3.5 -6.05 -2.1 -1.85 -1.65 10.55 -2.4 7.85 -12.85 4.85 -6.15 -3.55 -9.25 M7.85 -12.85 L6.75 -17.2 -9.25 -15.6 -11.05 -6.35 M-11.6 -3.5 L-12.1 -1.1 Q-9.2 -0.1 -6.05 0.45 L-6.05 -2.1 M-6.05 0.45 L-1.85 0.9 -1.85 -1.65 M10.55 -2.4 L11.2 0.05 15.15 15.35 Q4.9 17.85 -3.55 17.1 -9.85 16.5 -15.15 14.15 L-12.1 -1.1 M-1.85 0.9 L11.2 0.05" fill="none" stroke="#000000" stroke-linecap="round" stroke-linejoin="round" stroke-width="1.8"/>
    </g>
    <g id="shape10" transform="matrix(1.0, 0.0, 0.0, 1.0, 13.75, -28.35)">
      <path d="M-12.85 29.25 L-7.65 33.15 -7.25 37.45" fill="none" stroke="#000000" stroke-linecap="round" stroke-linejoin="round" stroke-width="1.8"/>
    </g>
    <g id="sprite11" transform="matrix(1.0, 0.0, 0.0, 1.0, 28.35, 76.1)">
      <use ffdec:characterId="57" height="56.6" id="mc200" transform="matrix(1.0, 0.0, 0.0, 1.0, -27.45, -71.3)" width="55.1" xlink:href="#sprite12"/>
      <use ffdec:characterId="59" height="46.75" id="mc100" transform="matrix(0.9659, -0.2588, 0.2588, 0.9659, 2.3537, -71.3974)" width="18.2" xlink:href="#sprite13"/>
      <use ffdec:characterId="60" height="58.4" transform="matrix(1.0, 0.0, 0.0, 1.0, -28.35, -72.2)" width="57.2" xlink:href="#shape13"/>
    </g>
    <g id="sprite12" transform="matrix(1.0, 0.0, 0.0, 1.0, 22.85, 28.3)">
      <use ffdec:characterId="56" height="56.6" transform="matrix(1.0, 0.0, 0.0, 1.0, -22.85, -28.3)" width="55.1" xlink:href="#shape11"/>
    </g>
    <g id="shape11" transform="matrix(1.0, 0.0, 0.0, 1.0, 22.85, 28.3)">
      <path d="M14.35 -27.0 Q39.7 -12.85 29.15 12.65 L22.7 19.75 22.6 19.9 22.45 20.0 Q15.7 25.6 8.6 27.15 -3.9 29.75 -14.85 26.35 -16.8 25.45 -19.1 23.25 -21.95 20.55 -21.95 16.75 -21.95 13.45 -19.8 11.0 -22.85 5.25 -22.85 -1.7 -22.85 -13.05 -15.2 -20.3 -7.55 -27.55 4.15 -28.25 9.6 -28.55 14.3 -27.0 L14.35 -27.0" fill="#ffd797" fill-rule="evenodd" stroke="none"/>
    </g>
    <g id="sprite13" transform="matrix(1.0, 0.0, 0.0, 1.0, 9.1, 23.4)">
      <use ffdec:characterId="58" height="46.75" transform="matrix(1.0, 0.0, 0.0, 1.0, -9.1, -23.4)" width="18.2" xlink:href="#shape12"/>
    </g>
    <g id="shape12" transform="matrix(1.0, 0.0, 0.0, 1.0, 9.1, 23.4)">
      <path d="M0.5 -17.4 Q8.6 -9.45 9.1 2.15 9.55 13.75 1.6 21.35 L-0.65 23.35 Q-9.05 15.25 -9.1 -23.4 -3.8 -21.6 0.5 -17.4" fill="#000000" fill-opacity="0.3019608" fill-rule="evenodd" stroke="none"/>
    </g>
    <g id="shape13" transform="matrix(1.0, 0.0, 0.0, 1.0, 28.35, 72.2)">
      <path d="M19.35 -64.0 Q27.45 -56.05 27.95 -44.45 28.4 -32.85 20.45 -25.25 L18.2 -23.25 Q11.3 -17.45 4.0 -15.85 -8.5 -13.25 -19.45 -16.65 -21.4 -17.55 -23.7 -19.75 -26.55 -22.45 -26.55 -26.25 -26.55 -29.55 -24.4 -32.0 -27.45 -37.75 -27.45 -44.7 -27.45 -56.05 -19.8 -63.3 -12.15 -70.55 -0.45 -71.25 5.05 -71.55 9.75 -70.0 15.05 -68.2 19.35 -64.0 Z" fill="none" stroke="#000000" stroke-linecap="round" stroke-linejoin="round" stroke-width="1.8"/>
    </g>
    <g id="shape14" transform="matrix(1.0, 0.0, 0.0, 1.0, 9.95, 37.55)">
      <path d="M-8.15 -37.5 Q-7.65 -37.4 -7.45 -36.8 -7.25 -36.1 -7.45 -35.25 -7.65 -34.45 -8.15 -34.05 L-8.4 -33.75 -9.15 -33.6 -9.7 -34.1 -9.85 -34.45 -9.8 -35.85 Q-9.65 -36.7 -9.15 -37.25 -8.65 -37.65 -8.15 -37.5" fill="#000000" fill-rule="evenodd" stroke="none"/>
    </g>
    <g id="sprite14" transform="matrix(1.0, 0.0, 0.0, 1.0, 14.65, 3.85)">
      <use ffdec:characterId="64" height="1.9" id="mc000" transform="matrix(-0.9941, -0.1052, -0.1052, 0.9941, -9.2557, -3.1444)" width="1.9" xlink:href="#sprite15"/>
      <use ffdec:characterId="64" height="1.9" id="mc001" transform="matrix(-0.9941, -0.1052, -0.1052, 0.9941, -11.4057, -0.8444)" width="1.9" xlink:href="#sprite15"/>
      <use ffdec:characterId="64" height="1.9" id="mc002" transform="matrix(-0.9941, -0.1052, -0.1052, 0.9941, -8.6557, -0.3944)" width="1.9" xlink:href="#sprite15"/>
      <use ffdec:characterId="64" height="1.9" id="mc003" transform="matrix(-0.9941, -0.1052, -0.1052, 0.9941, -5.7057, -2.4944)" width="1.9" xlink:href="#sprite15"/>
      <use ffdec:characterId="64" height="1.9" id="mc004" transform="matrix(-0.9941, -0.1052, -0.1052, 0.9941, -12.5557, -3.6444)" width="1.9" xlink:href="#sprite15"/>
      <use ffdec:characterId="64" height="1.9" id="mc005" transform="matrix(-1.0, 0.0, 0.0, 1.0, 11.0, -0.75)" width="1.9" xlink:href="#sprite15"/>
      <use ffdec:characterId="64" height="1.9" id="mc006" transform="matrix(-1.0, 0.0, 0.0, 1.0, 8.3, 1.35)" width="1.9" xlink:href="#sprite15"/>
      <use ffdec:characterId="64" height="1.9" id="mc007" transform="matrix(-1.0, 0.0, 0.0, 1.0, 11.9, 1.95)" width="1.9" xlink:href="#sprite15"/>
      <use ffdec:characterId="64" height="1.9" id="mc008" transform="matrix(-1.0, 0.0, 0.0, 1.0, 14.6, -0.45)" width="1.9" xlink:href="#sprite15"/>
      <use ffdec:characterId="64" height="1.9" id="mc009" transform="matrix(-1.0, 0.0, 0.0, 1.0, 7.0, -1.65)" width="1.9" xlink:href="#sprite15"/>
    </g>
    <g id="sprite15" transform="matrix(1.0, 0.0, 0.0, 1.0, 0.95, 0.95)">
      <use ffdec:characterId="63" height="1.9" transform="matrix(1.0, 0.0, 0.0, 1.0, -0.95, -0.95)" width="1.9" xlink:href="#shape15"/>
    </g>
    <g id="shape15" transform="matrix(1.0, 0.0, 0.0, 1.0, 0.95, 0.95)">
      <path d="M0.65 -0.7 L0.95 0.0 0.65 0.65 Q0.4 0.95 0.0 0.95 L-0.7 0.65 -0.95 0.0 -0.7 -0.7 0.0 -0.95 0.65 -0.7" fill="#ffd797" fill-rule="evenodd" stroke="none"/>
      <path d="M0.65 -0.7 L0.95 0.0 0.65 0.65 Q0.4 0.95 0.0 0.95 L-0.7 0.65 -0.95 0.0 -0.7 -0.7 0.0 -0.95 0.65 -0.7" fill="#000000" fill-opacity="0.5019608" fill-rule="evenodd" stroke="none"/>
    </g>
    <g id="sprite16" transform="matrix(1.0, 0.0, 0.0, 1.0, 24.55, 12.6)">
      <use ffdec:characterId="66" height="24.95" transform="matrix(0.7895, 0.0, 0.0, 1.0, -24.5692, -12.6)" width="24.95" xlink:href="#shape16"/>
      <use ffdec:characterId="66" height="24.95" transform="matrix(-0.7895, 0.0, 0.0, 1.0, 14.1692, -12.4)" width="24.95" xlink:href="#shape16"/>
      <use ffdec:characterId="67" height="13.0" transform="matrix(0.8053, 0.0, 0.0, 1.02, -20.3371, -5.7799)" width="14.0" xlink:href="#shape17"/>
      <use ffdec:characterId="67" height="13.0" transform="matrix(-0.8053, 0.0, 0.0, 1.02, 9.9371, -5.5799)" width="14.0" xlink:href="#shape17"/>
      <use ffdec:characterId="69" height="7.05" id="mc004" transform="matrix(1.0, 0.0, 0.0, 1.0, 12.0, -2.8)" width="12.3" xlink:href="#sprite17"/>
      <use ffdec:characterId="62" height="3.95" transform="matrix(1.0841, 0.0, 0.0, 0.9038, -14.9366, -0.5374)" width="2.6" xlink:href="#shape14"/>
      <use ffdec:characterId="62" height="3.95" transform="matrix(-1.0841, 0.0, 0.0, 0.9038, 4.5366, -0.3374)" width="2.6" xlink:href="#shape14"/>
    </g>
    <g id="shape16" transform="matrix(1.0, 0.0, 0.0, 1.0, 12.5, 12.45)">
      <path d="M0.0 -11.2 Q4.6 -11.2 7.9 -7.95 11.2 -4.65 11.2 0.0 11.2 4.65 7.9 7.9 4.6 11.2 0.0 11.25 -4.65 11.2 -7.95 7.9 -11.25 4.65 -11.25 0.0 -11.25 -4.65 -7.95 -7.95 -4.65 -11.2 0.0 -11.2" fill="#ffffff" fill-rule="evenodd" stroke="none"/>
      <path d="M0.0 -11.2 Q4.6 -11.2 7.9 -7.95 11.2 -4.65 11.2 0.0 11.2 4.65 7.9 7.9 4.6 11.2 0.0 11.25 -4.65 11.2 -7.95 7.9 -11.25 4.65 -11.25 0.0 -11.25 -4.65 -7.95 -7.95 -4.65 -11.2 0.0 -11.2 Z" fill="none" stroke="#000000" stroke-linecap="round" stroke-linejoin="round" stroke-width="2.5"/>
    </g>
    <g id="shape17" transform="matrix(1.0, 0.0, 0.0, 1.0, 7.0, 6.5)">
      <path d="M1.65 -1.1 L2.35 -0.45 2.5 0.15 Q2.45 0.85 1.65 1.6 0.95 2.2 0.0 1.95 -0.9 1.7 -1.65 0.9 -2.6 -0.05 -2.3 -1.45 -2.05 -2.75 -1.0 -3.75 0.2 -4.95 2.0 -4.65 3.7 -4.45 5.0 -3.1 6.45 -1.65 6.2 0.55 5.9 2.65 4.35 4.25 2.55 5.95 0.0 5.7 -2.5 5.45 -4.3 3.6 -6.25 1.65 -6.25 -1.1 -6.25 -3.8 -4.3 -5.75" fill="none" stroke="#000000" stroke-linecap="round" stroke-linejoin="round" stroke-width="1.5"/>
    </g>
    <g id="sprite17" transform="matrix(1.0, 0.0, 0.0, 1.0, 6.15, 3.5)">
      <use ffdec:characterId="68" height="7.05" transform="matrix(1.0, 0.0, 0.0, 1.0, -6.15, -3.5)" width="12.3" xlink:href="#shape18"/>
    </g>
    <g id="shape18" transform="matrix(1.0, 0.0, 0.0, 1.0, 6.15, 3.5)">
      <path d="M-5.4 -2.75 L5.4 -2.75 5.4 2.8 -5.4 2.8 -5.4 -2.75" fill="#000000" fill-rule="evenodd" stroke="none"/>
      <path d="M-5.4 -2.75 L5.4 -2.75 5.4 2.8 -5.4 2.8" fill="none" stroke="#000000" stroke-linecap="round" stroke-linejoin="round" stroke-width="1.5"/>
    </g>
    <g id="sprite18" transform="matrix(1.0, 0.0, 0.0, 1.0, 28.0, 17.5)">
      <use ffdec:characterId="72" height="33.25" id="mc100" transform="matrix(1.0, 0.0, 0.0, 1.0, -27.1, -16.6)" width="53.95" xlink:href="#sprite19"/>
      <use ffdec:characterId="73" height="35.05" transform="matrix(1.0, 0.0, 0.0, 1.0, -28.0, -17.5)" width="55.75" xlink:href="#shape20"/>
    </g>
    <g id="sprite19" transform="matrix(1.0, 0.0, 0.0, 1.0, 26.95, 16.6)">
      <use ffdec:characterId="71" height="33.25" transform="matrix(1.0, 0.0, 0.0, 1.0, -26.95, -16.6)" width="53.95" xlink:href="#shape19"/>
    </g>
    <g id="shape19" transform="matrix(1.0, 0.0, 0.0, 1.0, 26.95, 16.6)">
      <path d="M-9.4 -15.15 Q-5.65 -16.3 -1.4 -16.55 10.3 -17.25 18.4 -9.3 26.5 -1.35 27.0 10.25 27.1 13.6 26.55 16.65 11.2 13.25 0.3 3.7 -7.75 -2.8 -18.3 -4.8 -22.65 -0.85 -21.75 6.45 -25.2 4.55 -26.95 0.9 -25.05 -4.5 -20.75 -8.6 -15.9 -13.2 -9.4 -15.15" fill="#cc5806" fill-rule="evenodd" stroke="none"/>
    </g>
    <g id="shape20" transform="matrix(1.0, 0.0, 0.0, 1.0, 28.0, 17.5)">
      <path d="M-9.55 -15.15 Q-16.05 -13.2 -20.9 -8.6 -25.2 -4.5 -27.1 0.9 -25.35 4.55 -21.9 6.45 -22.8 -0.85 -18.45 -4.8 -14.8 -10.8 -9.55 -15.15 -5.8 -16.3 -1.55 -16.55 10.15 -17.25 18.25 -9.3 26.35 -1.35 26.85 10.25 26.95 13.6 26.4 16.65 11.05 13.25 0.15 3.7 -7.9 -2.8 -18.45 -4.8" fill="none" stroke="#000000" stroke-linecap="round" stroke-linejoin="round" stroke-width="1.8"/>
    </g>
  </defs>
</svg>
