<?xml version="1.0" encoding="UTF-8" standalone="no"?>
<svg xmlns:ffdec="https://www.free-decompiler.com/flash" xmlns:xlink="http://www.w3.org/1999/xlink" ffdec:objectType="frame" height="103.9px" width="55.25px" xmlns="http://www.w3.org/2000/svg">
  <g transform="matrix(1.0, 0.0, 0.0, 1.0, 29.1, 100.4)">
    <use ffdec:characterId="92" height="86.95" id="mc100" transform="matrix(1.0, 0.0, 0.0, 1.0, -29.1, -83.45)" width="55.25" xlink:href="#sprite0"/>
    <use ffdec:characterId="93" height="0.0" id="hat" transform="matrix(-1.0, 0.0, 0.0, 1.0, 24.05, -100.4)" width="0.0" xlink:href="#sprite31"/>
  </g>
  <defs>
    <g id="sprite0" transform="matrix(1.0, 0.0, 0.0, 1.0, 29.1, 83.45)">
      <use ffdec:characterId="91" height="86.95" id="mc000" transform="matrix(-1.0, 0.0, 0.0, 1.0, 26.15, -83.45)" width="55.25" xlink:href="#sprite1"/>
    </g>
    <g id="sprite1" transform="matrix(1.0, 0.0, 0.0, 1.0, 29.05, 43.15)">
      <use ffdec:characterId="29" height="43.9" transform="matrix(1.0, 0.0, 0.0, 1.0, -24.4, -14.0)" width="6.9" xlink:href="#shape0"/>
      <use ffdec:characterId="37" height="42.4" id="mc2301" transform="matrix(1.0, 0.0, 0.0, 1.0, -23.65, -13.25)" width="5.4" xlink:href="#sprite2"/>
      <use ffdec:characterId="39" height="12.7" id="mc2200" transform="matrix(1.0, 0.0, 0.0, 1.0, -29.05, -15.9)" width="12.7" xlink:href="#sprite3"/>
      <use ffdec:characterId="42" height="20.35" id="mc2100" transform="matrix(-0.8213, -0.5679, -0.5679, 0.8213, -1.9469, 14.7552)" width="13.05" xlink:href="#sprite5"/>
      <use ffdec:characterId="44" height="22.4" id="mc2000" transform="matrix(0.9659, -0.2588, 0.2588, 0.9659, -19.9651, 20.707)" width="12.95" xlink:href="#sprite7"/>
      <use ffdec:characterId="44" height="22.4" id="mc1800" transform="matrix(0.9659, -0.2588, 0.2588, 0.9659, -5.4651, 22.157)" width="12.95" xlink:href="#sprite7"/>
      <use ffdec:characterId="50" height="32.25" id="mc1600" transform="matrix(1.0, 0.0, 0.0, 1.0, -16.2, 6.0)" width="26.2" xlink:href="#sprite9"/>
      <use ffdec:characterId="57" height="23.35" id="mc1500" transform="matrix(1.0, 0.0, 0.0, 1.0, -13.55, 7.0)" width="15.8" xlink:href="#sprite12"/>
      <use ffdec:characterId="42" height="20.35" id="mc1400" transform="matrix(0.8213, -0.5679, 0.5679, 0.8213, -5.8031, 15.3052)" width="13.05" xlink:href="#sprite5"/>
      <use ffdec:characterId="58" height="5.05" id="mc1300" transform="matrix(0.7669, 0.0441, -0.0509, 0.8836, 3.2265, 14.9586)" width="6.05" xlink:href="#sprite16"/>
      <use ffdec:characterId="62" height="53.3" id="mc1100" transform="matrix(0.9648, 0.1233, -0.1267, 0.9915, -21.4042, -43.1363)" width="49.35" xlink:href="#sprite17"/>
      <use ffdec:characterId="67" height="43.25" id="mc1000" transform="matrix(0.9648, 0.1233, -0.1267, 0.9915, -15.6551, -43.114)" width="42.7" xlink:href="#sprite19"/>
      <use ffdec:characterId="73" height="8.55" id="mc900" transform="matrix(0.914, 0.1168, -0.1267, 0.9915, -23.7669, -15.1153)" width="8.25" xlink:href="#sprite21"/>
      <use ffdec:characterId="79" height="9.7" id="mc800" transform="matrix(-0.9915, -0.1267, -0.1267, 0.9915, 3.8062, -13.2447)" width="12.8" xlink:href="#sprite24"/>
      <use ffdec:characterId="81" height="2.35" id="mc700" transform="matrix(0.9915, 0.1267, -0.1267, 0.9915, -23.9472, -19.3182)" width="8.8" xlink:href="#sprite27"/>
      <use ffdec:characterId="82" height="3.3" transform="matrix(0.9915, 0.1267, -0.1267, 0.9915, -7.824, -17.2868)" width="15.8" xlink:href="#shape27"/>
      <use ffdec:characterId="83" height="5.35" transform="matrix(1.0, 0.0, 0.0, 1.0, -23.7, 2.75)" width="16.5" xlink:href="#shape28"/>
      <use ffdec:characterId="85" height="2.5" id="mc000" transform="matrix(0.9915, 0.1267, -0.1267, 0.9915, -15.931, -0.5477)" width="2.5" xlink:href="#sprite28"/>
      <use ffdec:characterId="85" height="2.5" id="mc001" transform="matrix(0.9915, 0.1267, -0.1267, 0.9915, -20.031, -1.0477)" width="2.5" xlink:href="#sprite28"/>
      <use ffdec:characterId="89" height="14.15" id="mc200" transform="matrix(0.9915, 0.1267, -0.1267, 0.9915, -9.9679, -37.0229)" width="13.9" xlink:href="#sprite29"/>
      <use ffdec:characterId="39" height="12.7" id="mc100" transform="matrix(1.0, 0.0, 0.0, 1.0, 11.9, -10.8)" width="12.7" xlink:href="#sprite3"/>
      <use ffdec:characterId="90" height="43.9" transform="matrix(1.0, 0.0, 0.0, 1.0, 15.3, -5.65)" width="6.9" xlink:href="#shape32"/>
      <use ffdec:characterId="37" height="42.4" id="mc001" transform="matrix(-1.0, 0.0, 0.0, 1.0, 21.4, -4.9)" width="5.4" xlink:href="#sprite2"/>
    </g>
    <g id="shape0" transform="matrix(1.0, 0.0, 0.0, 1.0, 24.4, 14.0)">
      <path d="M-23.1 -9.7 Q-23.65 -8.7 -23.65 -7.2 -23.65 -5.8 -23.1 -4.8 L-23.1 -4.7 -23.1 -4.6 Q-23.65 -3.6 -23.65 -2.15 -23.65 -0.7 -23.1 0.3 L-23.1 0.4 -23.1 0.5 Q-23.65 1.5 -23.65 2.95 -23.65 4.4 -23.1 5.4 L-23.1 5.5 -23.1 5.6 Q-23.65 6.6 -23.65 8.1 L-23.55 9.25 -23.65 10.4 Q-23.65 11.85 -23.1 12.85 L-23.1 12.9 -23.1 13.0 Q-23.65 14.0 -23.65 15.5 -23.65 16.95 -23.1 17.95 L-23.1 18.0 -23.1 18.1 Q-23.65 19.1 -23.65 20.6 -23.65 22.0 -23.1 23.0 L-23.1 23.1 -23.1 23.2 Q-23.65 24.2 -23.65 25.7 -23.65 27.1 -23.1 28.1 -22.65 29.15 -21.95 29.15 -21.25 29.15 -20.7 28.1 L-20.25 26.55 -19.95 26.6 Q-19.3 26.6 -18.75 25.55 -18.3 24.55 -18.25 23.1 -18.3 21.65 -18.75 20.65 L-18.8 20.55 -18.75 20.45 Q-18.3 19.45 -18.25 18.0 -18.3 16.55 -18.75 15.55 L-18.8 15.45 -18.75 15.35 Q-18.3 14.35 -18.25 12.9 -18.3 11.45 -18.75 10.4 L-18.8 10.35 -18.75 10.25 Q-18.3 9.25 -18.25 7.8 L-18.35 6.65 -18.25 5.5 Q-18.3 4.0 -18.75 3.0 L-18.8 2.95 -18.75 2.85 Q-18.3 1.85 -18.25 0.4 -18.3 -1.05 -18.75 -2.1 L-18.8 -2.2 -18.75 -2.25 Q-18.3 -3.25 -18.25 -4.7 -18.3 -6.2 -18.75 -7.2 L-18.8 -7.25 -18.75 -7.35 Q-18.3 -8.35 -18.25 -9.8 -18.3 -11.3 -18.75 -12.3 -19.3 -13.3 -19.95 -13.25 -20.7 -13.3 -21.15 -12.3 L-21.65 -10.65 -21.95 -10.7 Q-22.65 -10.7 -23.1 -9.7 Z" fill="none" stroke="#000000" stroke-linecap="round" stroke-linejoin="round" stroke-width="1.5"/>
    </g>
    <g id="sprite2" transform="matrix(1.0, 0.0, 0.0, 1.0, 2.7, 21.2)">
      <use ffdec:characterId="27" height="42.4" transform="matrix(1.0, 0.0, 0.0, 1.0, -2.7, -21.2)" width="5.4" xlink:href="#shape1"/>
    </g>
    <g id="shape1" transform="matrix(1.0, 0.0, 0.0, 1.0, 2.7, 21.2)">
      <path d="M2.7 -17.75 Q2.65 -16.3 2.2 -15.3 L2.15 -15.2 2.2 -15.15 Q2.65 -14.15 2.7 -12.65 2.65 -11.2 2.2 -10.2 L2.15 -10.15 2.2 -10.05 Q2.65 -9.0 2.7 -7.55 2.65 -6.1 2.2 -5.1 L2.15 -5.0 2.2 -4.95 Q2.65 -3.95 2.7 -2.45 L2.6 -1.3 2.7 -0.15 Q2.65 1.3 2.2 2.3 L2.15 2.4 2.2 2.45 Q2.65 3.5 2.7 4.95 2.65 6.4 2.2 7.4 L2.15 7.5 2.2 7.6 Q2.65 8.6 2.7 10.05 2.65 11.5 2.2 12.5 L2.15 12.6 2.2 12.7 Q2.65 13.7 2.7 15.15 2.65 16.6 2.2 17.6 1.65 18.65 1.0 18.65 L0.7 18.6 0.25 20.15 Q-0.3 21.2 -1.0 21.2 -1.7 21.2 -2.15 20.15 -2.7 19.15 -2.7 17.75 -2.7 16.25 -2.15 15.25 L-2.15 15.15 -2.15 15.05 Q-2.7 14.05 -2.7 12.65 -2.7 11.15 -2.15 10.15 L-2.15 10.05 -2.15 10.0 Q-2.7 9.0 -2.7 7.55 -2.7 6.05 -2.15 5.05 L-2.15 4.95 -2.15 4.9 Q-2.7 3.9 -2.7 2.45 L-2.6 1.3 -2.7 0.15 Q-2.7 -1.35 -2.15 -2.35 L-2.15 -2.45 -2.15 -2.55 Q-2.7 -3.55 -2.7 -5.0 -2.7 -6.45 -2.15 -7.45 L-2.15 -7.55 -2.15 -7.65 Q-2.7 -8.65 -2.7 -10.1 -2.7 -11.55 -2.15 -12.55 L-2.15 -12.65 -2.15 -12.75 Q-2.7 -13.75 -2.7 -15.15 -2.7 -16.65 -2.15 -17.65 -1.7 -18.65 -1.0 -18.65 L-0.7 -18.6 -0.2 -20.25 Q0.25 -21.25 1.0 -21.2 1.65 -21.25 2.2 -20.25 2.65 -19.25 2.7 -17.75" fill="#000000" fill-rule="evenodd" stroke="none"/>
    </g>
    <g id="sprite3" transform="matrix(1.0, 0.0, 0.0, 1.0, 6.35, 6.35)">
      <use ffdec:characterId="38" height="11.2" id="mc100" transform="matrix(1.0, 0.0, 0.0, 1.0, -5.6, -5.6)" width="11.2" xlink:href="#sprite4"/>
      <use ffdec:characterId="25" height="12.7" transform="matrix(1.0, 0.0, 0.0, 1.0, -6.35, -6.35)" width="12.7" xlink:href="#shape3"/>
    </g>
    <g id="sprite4" transform="matrix(1.0, 0.0, 0.0, 1.0, 5.6, 5.6)">
      <use ffdec:characterId="23" height="11.2" transform="matrix(1.0, 0.0, 0.0, 1.0, -5.6, -5.6)" width="11.2" xlink:href="#shape2"/>
    </g>
    <g id="shape2" transform="matrix(1.0, 0.0, 0.0, 1.0, 5.6, 5.6)">
      <path d="M3.95 -3.95 Q5.6 -2.3 5.6 0.0 5.6 2.3 3.95 3.95 2.3 5.6 0.0 5.6 -2.3 5.6 -3.95 3.95 -5.6 2.3 -5.6 0.0 -5.6 -2.3 -3.95 -3.95 -2.3 -5.6 0.0 -5.6 2.3 -5.6 3.95 -3.95" fill="#009999" fill-rule="evenodd" stroke="none"/>
    </g>
    <g id="shape3" transform="matrix(1.0, 0.0, 0.0, 1.0, 6.35, 6.35)">
      <path d="M3.95 -3.95 Q5.6 -2.3 5.6 0.0 5.6 2.3 3.95 3.95 2.3 5.6 0.0 5.6 -2.3 5.6 -3.95 3.95 -5.6 2.3 -5.6 0.0 -5.6 -2.3 -3.95 -3.95 -2.3 -5.6 0.0 -5.6 2.3 -5.6 3.95 -3.95 Z" fill="none" stroke="#000000" stroke-linecap="round" stroke-linejoin="round" stroke-width="1.5"/>
    </g>
    <g id="sprite5" transform="matrix(1.0, 0.0, 0.0, 1.0, 6.5, 10.15)">
      <use ffdec:characterId="41" height="17.65" id="mc100" transform="matrix(1.05, 0.0, 0.0, 1.05, -5.6174, -9.2399)" width="10.7" xlink:href="#sprite6"/>
      <use ffdec:characterId="3" height="20.35" transform="matrix(1.0, 0.0, 0.0, 1.0, -6.5, -10.15)" width="13.05" xlink:href="#shape5"/>
    </g>
    <g id="sprite6" transform="matrix(1.0, 0.0, 0.0, 1.0, 5.35, 8.8)">
      <use ffdec:characterId="40" height="17.65" transform="matrix(1.0, 0.0, 0.0, 1.0, -5.35, -8.8)" width="10.7" xlink:href="#shape4"/>
    </g>
    <g id="shape4" transform="matrix(1.0, 0.0, 0.0, 1.0, 5.35, 8.8)">
      <path d="M4.1 -8.65 Q5.05 -8.25 5.3 -7.05 5.55 -5.85 3.65 0.55 L1.75 6.3 Q1.15 8.0 -0.1 8.55 -1.55 9.15 -3.05 8.55 -4.55 7.9 -5.15 6.5 -5.65 5.15 -4.85 3.55 L-2.1 -1.85 Q1.05 -7.75 2.1 -8.4 3.15 -9.05 4.1 -8.65" fill="#b88a5c" fill-rule="evenodd" stroke="none"/>
    </g>
    <g id="shape5" transform="matrix(1.0, 0.0, 0.0, 1.0, 6.5, 10.15)">
      <path d="M4.3 -9.05 Q3.3 -9.5 2.2 -8.8 1.1 -8.15 -2.2 -1.95 L-4.5 2.5 Q-1.75 5.0 2.3 5.3 L3.85 0.6 Q5.85 -6.15 5.6 -7.4 5.3 -8.65 4.3 -9.05 M-4.5 2.5 L-5.1 3.75 Q-5.95 5.45 -5.4 6.8 -4.75 8.3 -3.2 8.95 L-0.1 9.0 Q1.25 8.4 1.85 6.65 L2.3 5.3" fill="none" stroke="#000000" stroke-linecap="round" stroke-linejoin="round" stroke-width="1.8"/>
    </g>
    <g id="sprite7" transform="matrix(1.0, 0.0, 0.0, 1.0, 6.1, 11.1)">
      <use ffdec:characterId="43" height="20.6" id="mc100" transform="matrix(1.0, 0.0, 0.0, 1.0, -5.2, -10.2)" width="11.15" xlink:href="#sprite8"/>
      <use ffdec:characterId="9" height="22.4" transform="matrix(1.0, 0.0, 0.0, 1.0, -6.1, -11.1)" width="12.95" xlink:href="#shape7"/>
    </g>
    <g id="sprite8" transform="matrix(1.0, 0.0, 0.0, 1.0, 5.55, 10.3)">
      <use ffdec:characterId="7" height="20.6" transform="matrix(1.0, 0.0, 0.0, 1.0, -5.55, -10.3)" width="11.15" xlink:href="#shape6"/>
    </g>
    <g id="shape6" transform="matrix(1.0, 0.0, 0.0, 1.0, 5.55, 10.3)">
      <path d="M5.4 -5.05 L3.15 7.4 Q2.65 9.0 0.9 9.85 -0.85 10.65 -2.5 10.1 -4.2 9.6 -5.0 8.1 -5.85 6.55 -5.35 4.9 L-1.7 -7.25 Q-1.2 -8.9 0.05 -9.7 1.4 -10.6 3.05 -10.1 4.6 -9.65 5.25 -8.15 5.85 -6.75 5.4 -5.05" fill="#b88a5c" fill-rule="evenodd" stroke="none"/>
    </g>
    <g id="shape7" transform="matrix(1.0, 0.0, 0.0, 1.0, 6.1, 11.1)">
      <path d="M3.4 -10.0 Q4.95 -9.55 5.6 -8.05 6.2 -6.65 5.75 -4.95 L3.5 7.5 Q3.0 9.1 1.25 9.95 L-2.15 10.2 Q-3.85 9.7 -4.65 8.2 -5.5 6.65 -5.0 5.0 L-1.35 -7.15 Q-0.85 -8.8 0.4 -9.6 1.75 -10.5 3.4 -10.0 Z" fill="none" stroke="#000000" stroke-linecap="round" stroke-linejoin="round" stroke-width="1.8"/>
    </g>
    <g id="sprite9" transform="matrix(1.0, 0.0, 0.0, 1.0, 13.0, 17.0)">
      <use ffdec:characterId="46" height="29.95" id="mc200" transform="matrix(1.0, 0.0, 0.0, 1.0, -11.85, -16.1)" width="23.65" xlink:href="#sprite10"/>
      <use ffdec:characterId="48" height="13.05" id="mc201" transform="matrix(1.0, 0.0, 0.0, 1.0, -8.7, -16.1)" width="12.5" xlink:href="#sprite11"/>
      <use ffdec:characterId="49" height="32.25" transform="matrix(1.0, 0.0, 0.0, 1.0, -13.0, -17.0)" width="26.2" xlink:href="#shape10"/>
    </g>
    <g id="sprite10" transform="matrix(1.0, 0.0, 0.0, 1.0, 11.7, 12.85)">
      <use ffdec:characterId="45" height="29.95" transform="matrix(1.0, 0.0, 0.0, 1.0, -11.7, -12.85)" width="23.65" xlink:href="#shape8"/>
    </g>
    <g id="shape8" transform="matrix(1.0, 0.0, 0.0, 1.0, 11.7, 12.85)">
      <path d="M7.3 -12.45 L11.95 6.5 Q8.9 13.95 -6.1 17.1 L-11.7 8.7 -11.35 4.0 -11.3 4.25 -11.25 3.65 -11.35 3.95 -11.4 4.2 -11.35 3.75 Q-10.55 -2.75 -8.55 -8.3 L-4.55 0.2 3.95 -12.85 6.9 -12.85 7.05 -12.45 7.3 -12.45" fill="#ff6600" fill-rule="evenodd" stroke="none"/>
    </g>
    <g id="sprite11" transform="matrix(1.0, 0.0, 0.0, 1.0, 6.25, 6.55)">
      <use ffdec:characterId="47" height="13.05" transform="matrix(1.0, 0.0, 0.0, 1.0, -6.25, -6.55)" width="12.5" xlink:href="#shape9"/>
    </g>
    <g id="shape9" transform="matrix(1.0, 0.0, 0.0, 1.0, 6.25, 6.55)">
      <path d="M-4.45 -6.55 L6.25 -6.55 -2.25 6.5 -6.25 -2.0 -4.45 -6.55" fill="#a17850" fill-rule="evenodd" stroke="none"/>
    </g>
    <g id="shape10" transform="matrix(1.0, 0.0, 0.0, 1.0, 13.0, 17.0)">
      <path d="M12.3 3.6 Q8.6 11.6 -6.1 14.35 -9.0 11.55 -12.1 5.75 L-11.55 1.4 Q-8.7 6.1 -5.65 9.6 4.15 7.85 11.2 -0.25 L12.25 3.35 12.3 3.6" fill="#000000" fill-opacity="0.3019608" fill-rule="evenodd" stroke="none"/>
      <path d="M-11.55 1.4 L-11.6 1.35 -11.55 1.15 -11.55 1.1 -11.55 1.05 -11.5 0.75 -11.55 1.4" fill="#ff6600" fill-rule="evenodd" stroke="none"/>
      <path d="M11.2 -0.25 L11.35 -0.45 7.05 -16.05 Q13.0 2.45 12.25 3.35 L11.2 -0.25 M-11.55 1.05 L-11.55 0.95 -11.5 0.2 -11.5 0.5 -11.55 0.95 -11.5 0.7 -11.5 0.75 -11.55 1.05" fill="#663333" fill-rule="evenodd" stroke="none"/>
      <path d="M-11.5 0.5 Q-10.7 -6.0 -8.7 -11.55 L-6.9 -16.1 3.8 -16.1 6.75 -16.1 M7.05 -16.05 L7.15 -15.7 Q10.15 -3.6 11.2 -0.25 L12.25 3.35 12.3 3.6 Q8.6 11.6 -6.1 14.35 -9.0 11.55 -12.1 5.75 L-11.55 1.4 -11.5 0.75 -11.5 0.7 M-8.7 -11.55 L-4.7 -3.05 3.8 -16.1" fill="none" stroke="#000000" stroke-linecap="round" stroke-linejoin="round" stroke-width="1.8"/>
    </g>
    <g id="sprite12" transform="matrix(1.0, 0.0, 0.0, 1.0, 6.25, 4.4)">
      <use ffdec:characterId="51" height="20.15" transform="matrix(1.0, 0.0, 0.0, 1.0, -6.25, -4.4)" width="15.8" xlink:href="#shape11"/>
      <use ffdec:characterId="56" height="3.85" id="mc001" transform="matrix(1.0, 0.0, 0.0, 1.0, -3.0, 15.1)" width="3.1" xlink:href="#sprite13"/>
    </g>
    <g id="shape11" transform="matrix(1.0, 0.0, 0.0, 1.0, 6.25, 4.4)">
      <path d="M8.95 -3.8 L7.6 1.95 7.35 2.8 5.85 6.9 Q3.3 12.95 0.3 14.65 -2.7 16.3 -4.4 12.65 -6.05 9.2 -5.55 2.8 L-5.5 2.2 -5.5 1.95 -5.1 -1.05" fill="none" stroke="#ffffff" stroke-linecap="round" stroke-linejoin="round" stroke-width="1.2000000000000002"/>
    </g>
    <g id="sprite13" transform="matrix(1.0, 0.0, 0.0, 1.0, 1.55, 1.9)">
      <use ffdec:characterId="53" height="2.95" id="mc000" transform="matrix(1.0, 0.0, 0.0, 1.0, -1.55, -1.0)" width="3.1" xlink:href="#sprite14"/>
      <use ffdec:characterId="55" height="1.7" id="mc001" transform="matrix(1.0, 0.0, 0.0, 1.0, -1.0, -1.9)" width="1.7" xlink:href="#sprite15"/>
    </g>
    <g id="sprite14" transform="matrix(1.0, 0.0, 0.0, 1.0, 1.55, 1.45)">
      <use ffdec:characterId="52" height="2.95" transform="matrix(1.0, 0.0, 0.0, 1.0, -1.55, -1.45)" width="3.1" xlink:href="#shape12"/>
    </g>
    <g id="shape12" transform="matrix(1.0, 0.0, 0.0, 1.0, 1.55, 1.45)">
      <path d="M1.55 -0.05 Q1.55 0.6 1.1 1.05 0.65 1.5 0.0 1.5 -0.65 1.5 -1.1 1.05 -1.55 0.6 -1.55 -0.05 -1.55 -0.7 -1.1 -1.15 L-0.95 -1.25 -0.75 -0.9 -0.15 -0.65 Q0.2 -0.65 0.45 -0.9 L0.7 -1.45 1.1 -1.15 Q1.55 -0.7 1.55 -0.05" fill="#cc0000" fill-rule="evenodd" stroke="none"/>
    </g>
    <g id="sprite15" transform="matrix(1.0, 0.0, 0.0, 1.0, 0.85, 0.85)">
      <use ffdec:characterId="54" height="1.7" transform="matrix(1.0, 0.0, 0.0, 1.0, -0.85, -0.85)" width="1.7" xlink:href="#shape13"/>
    </g>
    <g id="shape13" transform="matrix(1.0, 0.0, 0.0, 1.0, 0.85, 0.85)">
      <path d="M0.0 -0.85 L0.6 -0.6 0.85 0.0 0.85 0.05 0.6 0.6 0.0 0.85 -0.6 0.6 -0.8 0.25 -0.85 0.0 -0.6 -0.6 0.0 -0.85" fill="#0066cc" fill-rule="evenodd" stroke="none"/>
    </g>
    <g id="sprite16" transform="matrix(1.0, 0.0, 0.0, 1.0, 3.0, 2.5)">
      <use ffdec:characterId="5" height="5.05" transform="matrix(1.0, 0.0, 0.0, 1.0, -3.0, -2.5)" width="6.05" xlink:href="#shape14"/>
    </g>
    <g id="shape14" transform="matrix(1.0, 0.0, 0.0, 1.0, 3.0, 2.5)">
      <path d="M3.05 -0.3 L2.9 -0.1 Q0.85 2.55 -2.5 2.55 L-2.5 2.45 -2.8 1.1 -2.85 0.95 -3.0 0.05 Q0.05 -0.1 1.7 -2.5 2.5 -1.6 3.05 -0.3" fill="#ffffff" fill-rule="evenodd" stroke="none"/>
    </g>
    <g id="sprite17" transform="matrix(1.0, 0.0, 0.0, 1.0, 23.25, 27.05)">
      <use ffdec:characterId="60" height="54.25" id="mc100" transform="matrix(0.95, 0.0, 0.0, 0.95, -22.3499, -26.1924)" width="50.05" xlink:href="#sprite18"/>
      <use ffdec:characterId="61" height="53.3" transform="matrix(1.0, 0.0, 0.0, 1.0, -23.25, -27.05)" width="49.35" xlink:href="#shape16"/>
    </g>
    <g id="sprite18" transform="matrix(1.0, 0.0, 0.0, 1.0, 25.0, 27.15)">
      <use ffdec:characterId="59" height="54.25" transform="matrix(1.0, 0.0, 0.0, 1.0, -25.0, -27.15)" width="50.05" xlink:href="#shape15"/>
    </g>
    <g id="shape15" transform="matrix(1.0, 0.0, 0.0, 1.0, 25.0, 27.15)">
      <path d="M25.0 -1.65 Q24.75 2.45 24.05 5.65 L23.75 6.35 Q14.7 27.7 -12.5 27.1 L-12.85 27.1 Q-20.1 25.75 -22.65 20.7 -24.8 15.25 -22.55 11.6 -24.8 5.85 -25.0 -3.25 -25.25 -12.35 -18.5 -19.75 -11.75 -27.2 -0.3 -27.15 11.1 -27.1 18.45 -19.85 25.75 -12.65 25.0 -1.65" fill="#a17850" fill-rule="evenodd" stroke="none"/>
    </g>
    <g id="shape16" transform="matrix(1.0, 0.0, 0.0, 1.0, 23.25, 27.05)">
      <path d="M18.9 -19.25 Q25.85 -12.4 25.15 -1.95 24.9 1.95 24.25 4.95 L24.0 5.65 Q15.4 25.9 -10.45 25.35 L-10.8 25.35 Q-17.7 24.1 -20.1 19.3 -22.15 14.1 -20.6 10.1 -22.15 5.15 -22.35 -3.45 -22.55 -12.1 -16.15 -19.15 -9.75 -26.25 1.1 -26.15 11.95 -26.1 18.9 -19.25 Z" fill="none" stroke="#000000" stroke-linecap="round" stroke-linejoin="round" stroke-width="1.8"/>
    </g>
    <g id="sprite19" transform="matrix(1.0, 0.0, 0.0, 1.0, 18.4, 24.05)">
      <use ffdec:characterId="63" height="41.3" transform="matrix(1.0, 0.0, 0.0, 1.0, -17.45, -23.3)" width="41.15" xlink:href="#shape17"/>
      <use ffdec:characterId="65" height="6.55" id="mc100" transform="matrix(1.0, 0.0, 0.0, 1.0, -11.8, -23.25)" width="11.5" xlink:href="#sprite20"/>
      <use ffdec:characterId="66" height="43.25" transform="matrix(1.0, 0.0, 0.0, 1.0, -18.4, -24.05)" width="42.7" xlink:href="#shape19"/>
    </g>
    <g id="shape17" transform="matrix(1.0, 0.0, 0.0, 1.0, 17.45, 23.3)">
      <path d="M-9.1 -16.75 Q-12.35 -16.45 -15.9 -15.05 L-16.25 -15.9 Q-10.85 -22.35 -2.2 -23.15 L-1.4 -23.25 0.6 -23.3 -9.1 -16.75" fill="#000000" fill-rule="evenodd" stroke="none"/>
      <path d="M-9.1 -16.75 L-10.25 -16.0" fill="none" stroke="#006699" stroke-linecap="round" stroke-linejoin="round" stroke-width="0.05"/>
      <path d="M17.8 -16.55 Q24.35 -9.85 23.6 1.35 22.85 12.5 19.15 17.6 L18.85 18.0 16.85 18.0 Q18.15 5.85 11.8 -4.55 1.3 -21.7 -15.9 -15.05 L-17.45 -14.4 -16.25 -15.9 Q-10.0 -23.35 0.65 -23.3 11.25 -23.25 17.8 -16.55" fill="#000000" fill-rule="evenodd" stroke="none"/>
    </g>
    <g id="sprite20" transform="matrix(1.0, 0.0, 0.0, 1.0, 5.75, 3.3)">
      <use ffdec:characterId="64" height="6.55" transform="matrix(1.0, 0.0, 0.0, 1.0, -5.75, -3.3)" width="11.5" xlink:href="#shape18"/>
    </g>
    <g id="shape18" transform="matrix(1.0, 0.0, 0.0, 1.0, 5.75, 3.3)">
      <path d="M5.75 -3.25 L-3.65 3.1 -5.75 3.25 3.95 -3.3 4.0 -3.3 4.65 -3.3 5.75 -3.25" fill="#ab8055" fill-rule="evenodd" stroke="none"/>
    </g>
    <g id="shape19" transform="matrix(1.0, 0.0, 0.0, 1.0, 18.4, 24.05)">
      <path d="M17.5 18.0 Q20.7 5.4 12.05 -6.65 1.3 -21.7 -15.9 -15.05 L-17.65 -14.0 -16.25 -15.9 Q-10.0 -23.35 0.65 -23.3 11.25 -23.25 17.8 -16.55 24.35 -9.85 23.45 1.4 22.55 12.6 20.55 15.3 18.55 17.95 17.45 18.45" fill="none" stroke="#000000" stroke-linecap="round" stroke-linejoin="round" stroke-width="1.5"/>
    </g>
    <g id="sprite21" transform="matrix(1.0, 0.0, 0.0, 1.0, 1.75, 4.6)">
      <use ffdec:characterId="71" height="3.65" id="mc100" transform="matrix(1.0, 0.0, 0.0, 1.0, -1.4, -4.6)" width="7.6" xlink:href="#sprite22"/>
      <use ffdec:characterId="72" height="6.7" transform="matrix(1.0, 0.0, 0.0, 1.0, -1.75, -2.75)" width="8.25" xlink:href="#shape22"/>
    </g>
    <g id="sprite22" transform="matrix(1.0, 0.0, 0.0, 1.0, 3.8, 1.85)">
      <use ffdec:characterId="69" height="3.65" id="mc100" transform="matrix(1.0, 0.0, 0.0, 1.0, -3.8, -1.85)" width="7.6" xlink:href="#sprite23"/>
      <use ffdec:characterId="70" height="3.65" transform="matrix(1.0, 0.0, 0.0, 1.0, -3.8, -1.85)" width="7.6" xlink:href="#shape21"/>
    </g>
    <g id="sprite23" transform="matrix(1.0, 0.0, 0.0, 1.0, 3.8, 1.85)">
      <use ffdec:characterId="68" height="3.65" transform="matrix(1.0, 0.0, 0.0, 1.0, -3.8, -1.85)" width="7.6" xlink:href="#shape20"/>
    </g>
    <g id="shape20" transform="matrix(1.0, 0.0, 0.0, 1.0, 3.8, 1.85)">
      <path d="M-3.0 0.4 L-2.75 0.4 -2.65 0.3 -3.0 0.4 -3.3 0.3 -3.35 0.4 -3.8 -1.35 Q2.25 -3.1 3.8 1.55 L3.35 1.8 -3.4 0.65 -3.35 0.45 -3.35 0.4 -3.0 0.4" fill="#a17850" fill-rule="evenodd" stroke="none"/>
    </g>
    <g id="shape21" transform="matrix(1.0, 0.0, 0.0, 1.0, 3.8, 1.85)">
      <path d="M-3.0 0.4 L-2.75 0.4 -2.65 0.3 -3.0 0.4 -3.3 0.3 -3.35 0.4 -3.8 -1.35 Q2.25 -3.1 3.8 1.55 L3.35 1.8 -3.4 0.65 -3.35 0.45 -3.35 0.4 -3.0 0.4" fill="#ffffff" fill-opacity="0.3529412" fill-rule="evenodd" stroke="none"/>
    </g>
    <g id="shape22" transform="matrix(1.0, 0.0, 0.0, 1.0, 1.75, 2.75)">
      <path d="M3.1 -1.35 L5.75 -0.95 Q5.15 1.8 3.1 2.75 L1.85 3.1 1.8 2.75 Q2.25 1.7 2.25 0.3 L2.05 -1.55 3.1 -1.35 M-0.6 -2.35 L-0.25 -2.45 -0.35 -2.35 -0.6 -2.35 M-0.95 -2.35 L-0.95 -2.3 -0.95 -2.35 M-1.2 -2.1 L-1.3 -2.05 -1.3 -2.15 -1.25 -2.25 -1.25 -2.35 -1.35 -2.35 -1.45 -2.75 -1.05 -2.3 -1.0 -2.25 -1.05 -2.25 -1.15 -2.15 -1.2 -2.1" fill="#ffffff" fill-rule="evenodd" stroke="none"/>
      <path d="M2.05 -1.55 L2.25 0.3 Q2.25 1.7 1.8 2.75 L0.7 3.15 0.4 3.2 -0.25 3.2 -1.3 -1.95 -1.3 -2.0 -1.3 -1.95 -1.15 -1.95 -1.1 -2.0 -1.0 -2.0 0.5 -1.8 2.0 -1.55 2.05 -1.55" fill="#000000" fill-rule="evenodd" stroke="none"/>
      <path d="M3.1 -1.35 L2.05 -1.55 3.1 -1.35 M-0.6 -2.35 L-0.95 -2.35 -0.9 -2.45 -0.6 -2.35" fill="#999966" fill-rule="evenodd" stroke="none"/>
      <path d="M1.85 3.1 L3.1 2.75 Q5.15 1.8 5.75 -0.95 L3.1 -1.35 2.05 -1.55 0.5 -1.8 -1.0 -2.0 M1.85 3.1 L0.7 3.2 0.4 3.2" fill="none" stroke="#000000" stroke-linecap="round" stroke-linejoin="round" stroke-width="1.5"/>
    </g>
    <g id="sprite24" transform="matrix(1.0, 0.0, 0.0, 1.0, 6.35, 6.0)">
      <use ffdec:characterId="77" height="5.0" id="mc100" transform="matrix(1.0, 0.0, 0.0, 1.0, -5.95, -6.0)" width="12.4" xlink:href="#sprite25"/>
      <use ffdec:characterId="78" height="7.4" transform="matrix(1.0, 0.0, 0.0, 1.0, -6.35, -3.7)" width="12.7" xlink:href="#shape25"/>
    </g>
    <g id="sprite25" transform="matrix(1.0, 0.0, 0.0, 1.0, 6.2, 2.5)">
      <use ffdec:characterId="75" height="5.0" id="mc100" transform="matrix(1.0, 0.0, 0.0, 1.0, -6.2, -2.5)" width="12.4" xlink:href="#sprite26"/>
      <use ffdec:characterId="76" height="5.0" transform="matrix(1.0, 0.0, 0.0, 1.0, -6.2, -2.5)" width="12.4" xlink:href="#shape24"/>
    </g>
    <g id="sprite26" transform="matrix(1.0, 0.0, 0.0, 1.0, 6.2, 2.5)">
      <use ffdec:characterId="74" height="5.0" transform="matrix(1.0, 0.0, 0.0, 1.0, -6.2, -2.5)" width="12.4" xlink:href="#shape23"/>
    </g>
    <g id="shape23" transform="matrix(1.0, 0.0, 0.0, 1.0, 6.2, 2.5)">
      <path d="M-4.4 -2.05 L-0.05 -2.3 Q2.5 -1.85 4.35 -0.35 6.1 1.0 6.2 2.5 L-6.2 0.05 Q-6.15 -1.35 -4.4 -2.05" fill="#a17850" fill-rule="evenodd" stroke="none"/>
    </g>
    <g id="shape24" transform="matrix(1.0, 0.0, 0.0, 1.0, 6.2, 2.5)">
      <path d="M-4.4 -2.05 L-0.05 -2.3 Q2.5 -1.85 4.35 -0.35 6.1 1.0 6.2 2.5 L-6.2 0.05 Q-6.15 -1.35 -4.4 -2.05" fill="#ffffff" fill-opacity="0.3529412" fill-rule="evenodd" stroke="none"/>
    </g>
    <g id="shape25" transform="matrix(1.0, 0.0, 0.0, 1.0, 6.35, 3.7)">
      <path d="M0.35 -1.65 L5.6 -0.45 Q4.95 1.35 3.0 2.3 0.95 3.3 -1.35 2.8 -3.65 2.25 -4.8 0.5 -5.95 -1.15 -5.45 -2.95 L0.0 -1.7 -1.95 -1.5 Q-2.95 -1.05 -3.25 -0.1 -3.5 0.85 -2.95 1.65 -2.4 2.45 -1.3 2.75 L0.75 2.5 Q1.7 2.0 2.0 1.1 2.25 0.15 1.7 -0.65 1.2 -1.35 0.35 -1.65" fill="#ffffff" fill-rule="evenodd" stroke="none"/>
      <path d="M0.35 -1.65 Q1.2 -1.35 1.7 -0.65 2.25 0.15 2.0 1.1 1.7 2.0 0.75 2.5 L-1.3 2.75 Q-2.4 2.45 -2.95 1.65 -3.5 0.85 -3.25 -0.1 -2.95 -1.05 -1.95 -1.5 L0.0 -1.7 0.15 -1.7 0.35 -1.65 0.0 -1.7 0.35 -1.65" fill="#000000" fill-rule="evenodd" stroke="none"/>
      <path d="M0.0 -1.7 L-5.45 -2.95 Q-5.95 -1.15 -4.8 0.5 -3.65 2.25 -1.35 2.8 0.95 3.3 3.0 2.3 4.95 1.35 5.6 -0.45 L0.35 -1.65 0.0 -1.7 Z" fill="none" stroke="#000000" stroke-linecap="round" stroke-linejoin="round" stroke-width="1.5"/>
    </g>
    <g id="sprite27" transform="matrix(1.0, 0.0, 0.0, 1.0, 3.0, 1.4)">
      <use ffdec:characterId="80" height="2.35" transform="matrix(1.0, 0.0, 0.0, 1.0, -3.0, -1.4)" width="8.8" xlink:href="#shape26"/>
    </g>
    <g id="shape26" transform="matrix(1.0, 0.0, 0.0, 1.0, 3.0, 1.4)">
      <path d="M5.05 -0.65 L-2.25 0.2" fill="none" stroke="#000000" stroke-linecap="round" stroke-linejoin="round" stroke-width="1.5"/>
    </g>
    <g id="shape27" transform="matrix(1.0, 0.0, 0.0, 1.0, 7.9, 1.65)">
      <path d="M-7.15 -0.75 Q1.15 -1.4 7.15 0.9" fill="none" stroke="#000000" stroke-linecap="round" stroke-linejoin="round" stroke-width="1.5"/>
    </g>
    <g id="shape28" transform="matrix(1.0, 0.0, 0.0, 1.0, 23.7, -2.75)">
      <path d="M-22.95 3.5 Q-17.5 9.5 -7.95 6.1" fill="none" stroke="#000000" stroke-linecap="round" stroke-linejoin="round" stroke-width="1.5"/>
    </g>
    <g id="sprite28" transform="matrix(1.0, 0.0, 0.0, 1.0, 1.25, 1.25)">
      <use ffdec:characterId="84" height="6.2" transform="matrix(0.3165, 0.0, 0.0, 0.4032, -1.2285, -1.238)" width="7.9" xlink:href="#shape29"/>
    </g>
    <g id="shape29" transform="matrix(1.0, 0.0, 0.0, 1.0, 7.2, 42.75)">
      <path d="M-3.7 -42.7 Q-2.1 -42.95 -0.9 -42.25 0.45 -41.55 0.7 -40.35 0.85 -39.1 -0.25 -38.0 -1.2 -36.9 -2.75 -36.65 -4.4 -36.35 -5.7 -37.05 -7.0 -37.75 -7.15 -39.0 -7.35 -40.25 -6.35 -41.3 -5.3 -42.4 -3.7 -42.7" fill="#000000" fill-rule="evenodd" stroke="none"/>
    </g>
    <g id="sprite29" transform="matrix(1.0, 0.0, 0.0, 1.0, 9.55, 4.35)">
      <use ffdec:characterId="87" height="16.1" id="mc100" transform="matrix(0.8083, 0.0, 0.0, 0.8083, -8.9451, -3.8067)" width="15.65" xlink:href="#sprite30"/>
      <use ffdec:characterId="88" height="14.15" transform="matrix(1.0, 0.0, 0.0, 1.0, -9.55, -4.35)" width="13.9" xlink:href="#shape31"/>
    </g>
    <g id="sprite30" transform="matrix(1.0, 0.0, 0.0, 1.0, 7.85, 8.05)">
      <use ffdec:characterId="86" height="16.1" transform="matrix(1.0, 0.0, 0.0, 1.0, -7.85, -8.05)" width="15.65" xlink:href="#shape30"/>
    </g>
    <g id="shape30" transform="matrix(1.0, 0.0, 0.0, 1.0, 7.85, 8.05)">
      <path d="M-5.45 -6.15 Q-3.3 -7.9 -0.15 -8.05 L-1.55 -7.15 Q-4.15 -5.0 -3.85 -1.6 -3.6 1.7 -0.6 4.25 2.4 6.75 6.45 7.0 L7.8 7.0 Q5.55 8.2 2.55 8.0 -1.5 7.75 -4.5 5.2 -7.2 3.0 -7.7 0.15 L-7.8 -0.65 Q-8.05 -3.4 -6.35 -5.3 L-5.45 -6.15" fill="#000000" fill-rule="evenodd" stroke="none"/>
    </g>
    <g id="shape31" transform="matrix(1.0, 0.0, 0.0, 1.0, 9.55, 4.35)">
      <path d="M-2.7 -3.75 Q-5.3 -3.7 -7.0 -2.25 L-7.75 -1.55 Q-9.1 0.0 -8.9 2.2 L-8.8 2.85 Q-8.4 5.15 -6.25 6.95 -3.8 8.95 -0.55 9.2 1.9 9.3 3.75 8.4 L2.6 8.35 Q-0.65 8.15 -3.05 6.15 -5.5 4.1 -5.7 1.4 -5.95 -1.3 -3.85 -3.05 L-2.7 -3.75 Z" fill="none" stroke="#000000" stroke-linecap="round" stroke-linejoin="round" stroke-width="1.2000000000000002"/>
    </g>
    <g id="shape32" transform="matrix(1.0, 0.0, 0.0, 1.0, -15.3, 5.65)">
      <path d="M20.9 -1.35 Q21.4 -0.35 21.45 1.15 21.4 2.55 20.9 3.55 L20.85 3.65 20.9 3.75 Q21.4 4.75 21.45 6.2 21.4 7.65 20.9 8.65 L20.85 8.75 20.9 8.85 Q21.4 9.85 21.45 11.3 21.4 12.75 20.9 13.75 L20.85 13.85 20.9 13.95 Q21.4 14.95 21.45 16.45 L21.3 17.6 21.45 18.75 Q21.4 20.2 20.9 21.2 L20.85 21.25 20.9 21.35 Q21.4 22.35 21.45 23.85 21.4 25.3 20.9 26.3 L20.85 26.35 20.9 26.45 Q21.4 27.45 21.45 28.95 21.4 30.35 20.9 31.35 L20.85 31.45 20.9 31.55 Q21.4 32.55 21.45 34.05 21.4 35.45 20.9 36.45 20.4 37.5 19.7 37.5 19.0 37.5 18.5 36.45 L18.05 34.9 17.75 34.95 Q17.05 34.95 16.55 33.9 16.05 32.9 16.05 31.45 16.05 30.0 16.55 29.0 L16.55 28.9 16.55 28.8 Q16.05 27.8 16.05 26.35 16.05 24.9 16.55 23.9 L16.55 23.8 16.55 23.7 Q16.05 22.7 16.05 21.25 16.05 19.8 16.55 18.75 L16.55 18.7 16.55 18.6 Q16.05 17.6 16.05 16.15 16.0 15.55 16.1 15.0 L16.05 13.85 Q16.05 12.35 16.55 11.35 L16.55 11.3 16.55 11.2 Q16.05 10.2 16.05 8.75 16.05 7.3 16.55 6.25 L16.55 6.15 16.55 6.1 Q16.05 5.1 16.05 3.65 16.05 2.15 16.55 1.15 L16.55 1.1 16.55 1.0 Q16.05 0.0 16.05 -1.45 16.05 -2.95 16.55 -3.95 17.05 -4.95 17.75 -4.9 18.45 -4.95 18.95 -3.95 L19.45 -2.3 19.7 -2.35 Q20.4 -2.35 20.9 -1.35 Z" fill="none" stroke="#000000" stroke-linecap="round" stroke-linejoin="round" stroke-width="1.5"/>
    </g>
  </defs>
</svg>
