<?xml version="1.0" encoding="UTF-8" standalone="no"?>
<svg xmlns:ffdec="https://www.free-decompiler.com/flash" xmlns:xlink="http://www.w3.org/1999/xlink" ffdec:objectType="frame" height="107.25px" width="72.95px" xmlns="http://www.w3.org/2000/svg">
  <g transform="matrix(1.0, 0.0, 0.0, 1.0, 41.35, 103.65)">
    <use ffdec:characterId="45" height="22.6" id="mc100" transform="matrix(-0.9739, 0.2222, -0.2222, -0.9739, 12.3815, -1.1672)" width="13.7" xlink:href="#sprite0"/>
    <use ffdec:characterId="45" height="22.6" id="mc101" transform="matrix(-0.9841, 0.1702, -0.1702, -0.9841, 4.4647, 1.2543)" width="13.7" xlink:href="#sprite0"/>
    <use ffdec:characterId="47" height="19.45" id="mc102" transform="matrix(0.7664, -0.6381, 0.6381, 0.7664, -1.2793, -28.9464)" width="12.5" xlink:href="#sprite2"/>
    <use ffdec:characterId="57" height="31.55" id="mc103" transform="matrix(-1.0, 0.0, 0.0, 1.0, 12.45, -37.6)" width="27.9" xlink:href="#sprite4"/>
    <use ffdec:characterId="61" height="27.05" id="mc104" transform="matrix(-0.9837, -0.1742, -0.1742, 0.9837, 31.6142, -64.5963)" width="22.7" xlink:href="#sprite9"/>
    <use ffdec:characterId="65" height="53.55" id="mc105" transform="matrix(-0.9979, 0.0611, 0.0611, 0.9979, 18.4447, -84.7163)" width="51.15" xlink:href="#sprite11"/>
    <use ffdec:characterId="68" height="17.6" id="hide_hat2" transform="matrix(-0.9979, 0.0611, 0.0611, 0.9979, -16.4556, -95.8691)" width="17.6" xlink:href="#sprite13"/>
    <use ffdec:characterId="76" height="46.45" id="hide_hat" transform="matrix(-0.9979, 0.0611, 0.0611, 0.9979, 21.8607, -94.778)" width="63.35" xlink:href="#sprite16"/>
    <use ffdec:characterId="75" height="25.8" id="mc108" transform="matrix(-0.9979, 0.0611, 0.0611, 0.9979, 21.2247, -80.9098)" width="50.85" xlink:href="#sprite20"/>
    <use ffdec:characterId="47" height="19.45" id="mc109" transform="matrix(0.9795, -0.1907, 0.1907, 0.9795, -22.422, -31.109)" width="12.5" xlink:href="#sprite2"/>
    <use ffdec:characterId="77" height="4.45" transform="matrix(-1.0, 0.0, 0.0, 1.0, -2.05, -52.15)" width="10.25" xlink:href="#shape18"/>
    <use ffdec:characterId="78" height="3.95" transform="matrix(-1.0, 0.0, 0.0, 1.0, 17.55, -53.6)" width="7.2" xlink:href="#shape19"/>
    <use ffdec:characterId="80" height="27.85" id="mc1012" transform="matrix(-1.0, 0.0, 0.0, 1.0, 18.45, -62.6)" width="32.85" xlink:href="#sprite21"/>
    <use ffdec:characterId="82" height="5.75" id="mc000" transform="matrix(-1.0, 0.0, 0.0, 1.0, -6.9, -46.5)" width="5.8" xlink:href="#sprite22"/>
    <use ffdec:characterId="85" height="4.9" id="mc1014" transform="matrix(-1.0, 0.0, 0.0, 1.0, 19.3, -47.95)" width="3.95" xlink:href="#sprite23"/>
    <use ffdec:characterId="89" height="27.1" id="mc1015" transform="matrix(-0.9979, 0.0611, 0.0611, 0.9979, -14.2616, -56.3548)" width="22.65" xlink:href="#sprite25"/>
    <use ffdec:characterId="90" height="0.0" id="hat" transform="matrix(-1.0, 0.0, 0.0, 1.0, 25.45, -103.65)" width="0.0" xlink:href="#sprite27"/>
  </g>
  <defs>
    <g id="sprite0" transform="matrix(1.0, 0.0, 0.0, 1.0, 6.85, 11.3)">
      <use ffdec:characterId="44" height="20.5" id="mc100" transform="matrix(0.9941, -0.1047, 0.1047, 0.9941, -6.8389, -9.5828)" width="11.6" xlink:href="#sprite1"/>
      <use ffdec:characterId="3" height="22.6" transform="matrix(1.0, 0.0, 0.0, 1.0, -6.0, -11.3)" width="12.05" xlink:href="#shape1"/>
    </g>
    <g id="sprite1" transform="matrix(1.0, 0.0, 0.0, 1.0, 5.8, 10.25)">
      <use ffdec:characterId="1" height="20.5" transform="matrix(1.0, 0.0, 0.0, 1.0, -5.8, -10.25)" width="11.6" xlink:href="#shape0"/>
    </g>
    <g id="shape0" transform="matrix(1.0, 0.0, 0.0, 1.0, 5.8, 10.25)">
      <path d="M5.35 -7.9 Q6.1 -6.35 5.6 -4.7 L1.5 7.3 Q0.95 8.95 -0.35 9.75 -1.7 10.55 -3.3 10.05 -4.9 9.45 -5.5 8.0 -6.05 6.55 -5.5 4.85 L-2.8 -7.5 Q-2.3 -9.1 -0.45 -9.85 L2.95 -10.0 Q4.6 -9.45 5.35 -7.9" fill="#f5b87a" fill-rule="evenodd" stroke="none"/>
    </g>
    <g id="shape1" transform="matrix(1.0, 0.0, 0.0, 1.0, 6.0, 11.3)">
      <path d="M5.05 -5.25 L2.25 7.1 Q1.85 8.8 0.7 9.7 -0.6 10.65 -2.25 10.35 -3.9 9.95 -4.6 8.5 -5.35 7.15 -4.95 5.4 L-3.6 -7.15 Q-3.2 -8.8 -1.5 -9.75 0.15 -10.7 1.85 -10.25 3.55 -9.85 4.5 -8.4 5.45 -6.95 5.05 -5.25 Z" fill="none" stroke="#000000" stroke-linecap="round" stroke-linejoin="round" stroke-width="1.8"/>
    </g>
    <g id="sprite2" transform="matrix(1.0, 0.0, 0.0, 1.0, 6.25, 9.7)">
      <use ffdec:characterId="46" height="17.65" id="mc100" transform="matrix(1.0, 0.0, 0.0, 1.0, -5.35, -8.8)" width="10.7" xlink:href="#sprite3"/>
      <use ffdec:characterId="7" height="19.45" transform="matrix(1.0, 0.0, 0.0, 1.0, -6.25, -9.7)" width="12.5" xlink:href="#shape3"/>
    </g>
    <g id="sprite3" transform="matrix(1.0, 0.0, 0.0, 1.0, 5.35, 8.8)">
      <use ffdec:characterId="5" height="17.65" transform="matrix(1.0, 0.0, 0.0, 1.0, -5.35, -8.8)" width="10.7" xlink:href="#shape2"/>
    </g>
    <g id="shape2" transform="matrix(1.0, 0.0, 0.0, 1.0, 5.35, 8.8)">
      <path d="M4.1 -8.65 Q5.05 -8.25 5.3 -7.05 5.55 -5.85 3.65 0.55 L1.75 6.3 Q1.15 8.0 -0.15 8.55 -1.6 9.15 -3.05 8.55 -4.55 7.9 -5.15 6.5 -5.65 5.15 -4.85 3.55 L-2.1 -1.85 Q1.05 -7.75 2.1 -8.4 3.15 -9.05 4.1 -8.65" fill="#f5b87a" fill-rule="evenodd" stroke="none"/>
    </g>
    <g id="shape3" transform="matrix(1.0, 0.0, 0.0, 1.0, 6.25, 9.7)">
      <path d="M4.1 -8.65 Q3.15 -9.05 2.1 -8.4 1.05 -7.75 -2.1 -1.85 L-4.25 2.35 Q-1.55 5.65 2.2 5.05 L3.65 0.55 Q5.55 -5.85 5.3 -7.05 5.05 -8.25 4.1 -8.65 M-4.25 2.35 L-4.85 3.55 Q-5.65 5.15 -5.15 6.5 -4.55 7.9 -3.05 8.55 -1.6 9.15 -0.15 8.55 1.15 8.0 1.75 6.3 L2.2 5.05" fill="none" stroke="#000000" stroke-linecap="round" stroke-linejoin="round" stroke-width="1.8"/>
    </g>
    <g id="sprite4" transform="matrix(1.0, 0.0, 0.0, 1.0, 13.45, 16.6)">
      <use ffdec:characterId="49" height="12.65" id="mc400" transform="matrix(1.0, 0.0, 0.0, 1.0, -12.55, 1.4)" width="26.1" xlink:href="#sprite5"/>
      <use ffdec:characterId="51" height="14.3" id="mc401" transform="matrix(1.0, 0.0, 0.0, 1.0, -10.55, -14.4)" width="21.9" xlink:href="#sprite6"/>
      <use ffdec:characterId="53" height="21.2" id="mc300" transform="matrix(1.0, 0.0, 0.0, 1.0, -11.6, -15.7)" width="24.05" xlink:href="#sprite7"/>
      <use ffdec:characterId="55" height="10.2" id="mc301" transform="matrix(1.0, 0.0, 0.0, 1.0, 8.0, 2.1)" width="3.5" xlink:href="#sprite8"/>
      <use ffdec:characterId="56" height="31.55" transform="matrix(1.0, 0.0, 0.0, 1.0, -13.45, -16.6)" width="27.9" xlink:href="#shape8"/>
    </g>
    <g id="sprite5" transform="matrix(1.0, 0.0, 0.0, 1.0, 13.05, 6.3)">
      <use ffdec:characterId="48" height="12.65" transform="matrix(1.0, 0.0, 0.0, 1.0, -13.05, -6.3)" width="26.1" xlink:href="#shape4"/>
    </g>
    <g id="shape4" transform="matrix(1.0, 0.0, 0.0, 1.0, 13.05, 6.3)">
      <path d="M11.95 -6.3 Q12.7 -2.25 13.05 1.8 9.5 5.55 3.7 6.2 -5.25 7.05 -13.05 2.3 L-12.1 -5.75 Q-6.35 -1.95 0.65 -2.2 7.85 -3.05 11.95 -6.3" fill="#006600" fill-rule="evenodd" stroke="none"/>
    </g>
    <g id="sprite6" transform="matrix(1.0, 0.0, 0.0, 1.0, 10.95, 7.15)">
      <use ffdec:characterId="50" height="14.3" transform="matrix(1.0, 0.0, 0.0, 1.0, -10.95, -7.15)" width="21.9" xlink:href="#shape5"/>
    </g>
    <g id="shape5" transform="matrix(1.0, 0.0, 0.0, 1.0, 10.95, 7.15)">
      <path d="M7.4 -7.15 Q9.55 -1.7 10.95 3.7 6.5 7.25 -0.5 7.15 -6.7 7.1 -10.95 3.05 L-8.8 -6.45 7.4 -7.15" fill="#ff0066" fill-rule="evenodd" stroke="none"/>
    </g>
    <g id="sprite7" transform="matrix(1.0, 0.0, 0.0, 1.0, 12.0, 10.6)">
      <use ffdec:characterId="52" height="21.2" transform="matrix(1.0, 0.0, 0.0, 1.0, -12.0, -10.6)" width="24.05" xlink:href="#shape6"/>
    </g>
    <g id="shape6" transform="matrix(1.0, 0.0, 0.0, 1.0, 12.0, 10.6)">
      <path d="M1.9 -6.4 Q1.45 -4.6 -0.05 -3.3 -1.6 -2.0 -3.4 -1.9 -5.2 -1.8 -6.15 -3.0 -7.15 -4.25 -6.7 -6.05 -6.3 -7.9 -4.75 -9.2 -3.25 -10.5 -1.45 -10.6 0.35 -10.7 1.35 -9.45 2.3 -8.25 1.9 -6.4 M-0.5 5.0 Q6.5 5.1 10.95 1.55 L12.05 6.45 12.05 6.5 Q7.95 9.75 0.75 10.6 -6.25 10.85 -12.0 7.05 L-10.95 0.9 Q-6.7 4.95 -0.5 5.0" fill="#f5b87a" fill-rule="evenodd" stroke="none"/>
    </g>
    <g id="sprite8" transform="matrix(1.0, 0.0, 0.0, 1.0, 1.75, 5.1)">
      <use ffdec:characterId="54" height="10.2" transform="matrix(1.0, 0.0, 0.0, 1.0, -1.75, -5.1)" width="3.5" xlink:href="#shape7"/>
    </g>
    <g id="shape7" transform="matrix(1.0, 0.0, 0.0, 1.0, 1.75, 5.1)">
      <path d="M0.55 -5.1 L0.85 -5.1 1.75 3.75 0.5 4.55 -0.45 5.1 -1.2 4.9 -1.75 -3.35 -1.05 -3.8 -0.4 -4.3 0.55 -5.1" fill="#99cc00" fill-rule="evenodd" stroke="none"/>
    </g>
    <g id="shape8" transform="matrix(1.0, 0.0, 0.0, 1.0, 13.45, 16.6)">
      <path d="M2.45 -14.15 L7.8 -14.4 Q9.95 -8.95 11.35 -3.55 L12.45 1.35 12.45 1.4 Q13.2 5.45 13.55 9.5 10.0 13.25 4.2 13.9 -4.75 14.75 -12.55 10.0 L-11.6 1.95 -10.65 -3.35 -8.4 -13.7 -5.2 -13.85 M12.45 1.4 Q8.35 4.65 1.15 5.5 -5.85 5.75 -11.6 1.95 M11.35 -3.55 Q6.9 0.0 -0.1 -0.1 -6.3 -0.15 -10.65 -3.35" fill="none" stroke="#000000" stroke-linecap="round" stroke-linejoin="round" stroke-width="1.8"/>
      <path d="M2.3 -11.5 Q1.85 -9.7 0.35 -8.4 -1.2 -7.1 -3.0 -7.0 -4.8 -6.9 -5.75 -8.1 -6.75 -9.35 -6.3 -11.15 -6.0 -12.5 -5.1 -13.55 L-4.35 -14.3 Q-2.85 -15.6 -1.05 -15.7 0.75 -15.8 1.75 -14.55 L2.25 -13.55 Q2.55 -12.65 2.3 -11.5 Z" fill="none" stroke="#000000" stroke-linecap="round" stroke-linejoin="round" stroke-width="1.8"/>
      <path d="M-5.55 1.0 L-5.0 1.3 Q-4.8 1.65 -4.85 2.1 L-5.2 2.75 Q-5.45 3.0 -5.8 2.95 L-6.4 2.55 -6.5 1.85 -6.25 1.15 -5.55 1.0" fill="#000000" fill-opacity="0.5019608" fill-rule="evenodd" stroke="none"/>
    </g>
    <g id="sprite9" transform="matrix(1.0, 0.0, 0.0, 1.0, 7.3, 14.25)">
      <use ffdec:characterId="59" height="25.4" id="mc100" transform="matrix(1.0, 0.0, 0.0, 1.0, -6.4, -13.5)" width="20.9" xlink:href="#sprite10"/>
      <use ffdec:characterId="60" height="27.05" transform="matrix(1.0, 0.0, 0.0, 1.0, -7.3, -14.25)" width="22.7" xlink:href="#shape10"/>
    </g>
    <g id="sprite10" transform="matrix(1.0, 0.0, 0.0, 1.0, 10.45, 12.7)">
      <use ffdec:characterId="58" height="25.4" transform="matrix(1.0, 0.0, 0.0, 1.0, -10.45, -12.7)" width="20.9" xlink:href="#shape9"/>
    </g>
    <g id="shape9" transform="matrix(1.0, 0.0, 0.0, 1.0, 10.45, 12.7)">
      <path d="M5.25 -11.4 Q6.55 -10.05 6.55 -8.2 6.55 -6.4 5.35 -5.1 6.05 -4.9 6.65 -4.3 7.6 -3.35 7.6 -2.0 7.6 -0.65 6.65 0.3 L6.2 0.7 6.3 1.1 6.35 1.2 6.45 1.15 Q7.7 0.85 8.85 1.55 10.0 2.25 10.35 3.55 10.65 4.8 9.95 6.0 L8.85 7.05 9.15 7.9 Q9.45 9.15 8.75 10.3 8.0 11.45 6.75 11.75 L4.0 11.4 3.85 11.35 3.6 11.85 Q2.8 12.7 1.65 12.7 0.5 12.7 -0.35 11.85 L-0.95 10.95 -1.35 11.4 Q-2.2 12.25 -3.4 12.25 -4.6 12.25 -5.45 11.4 -6.3 10.55 -6.3 9.35 -6.3 8.35 -5.7 7.6 L-6.8 7.9 Q-7.65 7.9 -8.25 7.3 -8.85 6.7 -8.85 5.85 -8.85 5.0 -8.25 4.4 L-8.05 4.25 -8.9 3.8 Q-10.05 3.1 -10.35 1.85 -10.65 0.55 -9.95 -0.6 -9.25 -1.75 -7.95 -2.05 L-6.9 -2.15 Q-7.1 -3.25 -6.5 -4.5 -5.9 -5.75 -4.5 -5.7 L-2.35 -5.3 -1.8 -5.25 -1.5 -5.45 Q-2.45 -6.65 -2.45 -8.2 -2.45 -10.05 -1.1 -11.4 0.2 -12.7 2.05 -12.7 3.9 -12.7 5.25 -11.4" fill="#000000" fill-rule="evenodd" stroke="none"/>
    </g>
    <g id="shape10" transform="matrix(1.0, 0.0, 0.0, 1.0, 7.3, 14.25)">
      <path d="M2.55 -6.25 Q1.6 -7.45 1.6 -9.0 1.6 -10.85 2.95 -12.2 4.25 -13.5 6.1 -13.5 7.95 -13.5 9.3 -12.2 10.6 -10.85 10.6 -9.0 10.6 -7.2 9.4 -5.9 10.1 -5.7 10.7 -5.1 11.65 -4.15 11.65 -2.8 11.65 -1.45 10.7 -0.5 L10.25 -0.1" fill="none" stroke="#000000" stroke-linecap="round" stroke-linejoin="round" stroke-width="1.5"/>
      <path d="M10.25 -0.1 L10.35 0.3 10.4 0.4 10.5 0.35 Q11.75 0.05 12.9 0.75 14.05 1.45 14.4 2.75 14.7 4.0 14.0 5.2 L12.9 6.25 13.2 7.1 Q13.5 8.35 12.8 9.5 12.05 10.65 10.8 10.95 L8.05 10.6 7.65 11.05 Q6.85 11.9 5.7 11.9 4.55 11.9 3.7 11.05 L3.1 10.15 2.7 10.6 Q1.85 11.45 0.65 11.45 -0.55 11.45 -1.4 10.6 -2.25 9.75 -2.25 8.55 -2.25 7.55 -1.65 6.8 L-2.75 7.1 Q-3.6 7.1 -4.2 6.5 -4.8 5.9 -4.8 5.05 -4.8 4.2 -4.2 3.6 L-4.0 3.45 -4.85 3.0 Q-6.0 2.3 -6.3 1.05 -6.6 -0.25 -5.9 -1.4 -5.2 -2.55 -3.9 -2.85 L-2.85 -2.95 Q-3.05 -4.05 -2.45 -5.3 -1.85 -6.55 -0.45 -6.5 L1.7 -6.1 2.25 -6.05" fill="none" stroke="#000000" stroke-linecap="round" stroke-linejoin="round" stroke-width="1.8"/>
    </g>
    <g id="sprite11" transform="matrix(1.0, 0.0, 0.0, 1.0, 25.75, 27.05)">
      <use ffdec:characterId="63" height="51.75" id="mc100" transform="matrix(1.0, 0.0, 0.0, 1.0, -24.85, -26.15)" width="49.35" xlink:href="#sprite12"/>
      <use ffdec:characterId="64" height="53.55" transform="matrix(1.0, 0.0, 0.0, 1.0, -25.75, -27.05)" width="51.15" xlink:href="#shape12"/>
    </g>
    <g id="sprite12" transform="matrix(1.0, 0.0, 0.0, 1.0, 24.7, 25.9)">
      <use ffdec:characterId="62" height="51.75" transform="matrix(1.0, 0.0, 0.0, 1.0, -24.7, -25.9)" width="49.35" xlink:href="#shape11"/>
    </g>
    <g id="shape11" transform="matrix(1.0, 0.0, 0.0, 1.0, 24.7, 25.9)">
      <path d="M-8.1 -25.9 L21.4 -13.45 24.65 4.45 Q21.2 11.95 15.0 17.9 9.0 24.25 -0.65 25.45 -13.7 27.25 -20.85 20.9 -27.55 14.55 -22.55 5.45 -24.4 0.5 -24.4 -4.75 L-8.1 -25.9" fill="#f5b87a" fill-rule="evenodd" stroke="none"/>
    </g>
    <g id="shape12" transform="matrix(1.0, 0.0, 0.0, 1.0, 25.75, 27.05)">
      <path d="M-8.25 -26.15 L21.25 -13.7 24.5 4.2 Q21.05 11.7 14.85 17.65 8.85 24.0 -0.8 25.2 -13.85 27.0 -21.0 20.65 -27.7 14.3 -22.7 5.2 -24.55 0.25 -24.55 -5.0 L-8.25 -26.15 Z" fill="none" stroke="#000000" stroke-linecap="round" stroke-linejoin="round" stroke-width="1.8"/>
    </g>
    <g id="sprite13" transform="matrix(1.0, 0.0, 0.0, 1.0, 8.8, 8.8)">
      <use ffdec:characterId="67" height="15.8" id="mc100" transform="matrix(1.0, 0.0, 0.0, 1.0, -7.9, -7.9)" width="15.8" xlink:href="#sprite14"/>
      <use ffdec:characterId="36" height="17.6" transform="matrix(1.0, 0.0, 0.0, 1.0, -8.8, -8.8)" width="17.6" xlink:href="#shape14"/>
    </g>
    <g id="sprite14" transform="matrix(1.0, 0.0, 0.0, 1.0, 7.9, 7.9)">
      <use ffdec:characterId="66" height="15.8" id="mc000" transform="matrix(1.0, 0.0, 0.0, 1.0, -7.9, -7.9)" width="15.8" xlink:href="#sprite15"/>
    </g>
    <g id="sprite15" transform="matrix(1.0, 0.0, 0.0, 1.0, 7.9, 7.9)">
      <use ffdec:characterId="34" height="15.8" transform="matrix(1.0, 0.0, 0.0, 1.0, -7.9, -7.9)" width="15.8" xlink:href="#shape13"/>
    </g>
    <g id="shape13" transform="matrix(1.0, 0.0, 0.0, 1.0, 7.9, 7.9)">
      <path d="M7.9 0.0 Q7.85 3.25 5.55 5.55 3.25 7.85 0.0 7.9 -3.25 7.85 -5.6 5.55 -7.9 3.25 -7.9 0.0 -7.9 -3.25 -5.6 -5.55 L-5.1 -6.0 Q-2.95 -7.9 0.0 -7.9 2.9 -7.9 5.1 -6.0 L5.55 -5.55 Q7.85 -3.25 7.9 0.0" fill="#ff6699" fill-rule="evenodd" stroke="none"/>
    </g>
    <g id="shape14" transform="matrix(1.0, 0.0, 0.0, 1.0, 8.8, 8.8)">
      <path d="M5.1 -6.0 L5.55 -5.55 Q7.85 -3.25 7.9 0.0 7.85 3.25 5.55 5.55 3.25 7.85 0.0 7.9 -3.25 7.85 -5.6 5.55 -7.9 3.25 -7.9 0.0 -7.9 -3.25 -5.6 -5.55 L-5.1 -6.0 Q-2.95 -7.9 0.0 -7.9 2.9 -7.9 5.1 -6.0 Z" fill="none" stroke="#000000" stroke-linecap="round" stroke-linejoin="round" stroke-width="1.8"/>
    </g>
    <g id="sprite16" transform="matrix(1.0, 0.0, 0.0, 1.0, 29.8, 20.1)">
      <use ffdec:characterId="73" height="46.45" id="mc100" transform="matrix(1.0, 0.0, 0.0, 1.0, -29.5, -20.1)" width="63.05" xlink:href="#sprite17"/>
      <use ffdec:characterId="75" height="25.8" id="mc000" transform="matrix(0.9927, -0.0894, 0.0894, 0.9927, -29.8132, -3.0787)" width="50.85" xlink:href="#sprite20"/>
    </g>
    <g id="sprite17" transform="matrix(1.0, 0.0, 0.0, 1.0, 31.5, 23.2)">
      <use ffdec:characterId="71" height="44.65" id="mc100" transform="matrix(1.0, 0.0, 0.0, 1.0, -30.6, -22.3)" width="61.25" xlink:href="#sprite18"/>
      <use ffdec:characterId="72" height="46.45" transform="matrix(1.0, 0.0, 0.0, 1.0, -31.5, -23.2)" width="63.05" xlink:href="#shape16"/>
    </g>
    <g id="sprite18" transform="matrix(1.0, 0.0, 0.0, 1.0, 30.6, 22.3)">
      <use ffdec:characterId="70" height="44.65" id="mc100" transform="matrix(1.0, 0.0, 0.0, 1.0, -30.6, -22.3)" width="61.25" xlink:href="#sprite19"/>
    </g>
    <g id="sprite19" transform="matrix(1.0, 0.0, 0.0, 1.0, 30.6, 22.3)">
      <use ffdec:characterId="69" height="44.65" transform="matrix(1.0, 0.0, 0.0, 1.0, -30.6, -22.3)" width="61.25" xlink:href="#shape15"/>
    </g>
    <g id="shape15" transform="matrix(1.0, 0.0, 0.0, 1.0, 30.6, 22.3)">
      <path d="M-28.8 -5.6 Q-22.2 -17.15 -11.75 -20.5 10.35 -25.85 20.7 -15.45 31.05 -5.0 30.65 7.85 29.75 18.1 17.75 22.35 13.25 12.05 2.0 6.1 -22.1 -3.25 -26.05 10.4 -33.5 5.9 -28.8 -5.6" fill="#003300" fill-rule="evenodd" stroke="none"/>
    </g>
    <g id="shape16" transform="matrix(1.0, 0.0, 0.0, 1.0, 31.5, 23.2)">
      <path d="M-28.8 -5.6 Q-33.5 5.9 -26.05 10.4 L-25.9 9.85 Q-22.1 -4.55 2.0 5.3 11.9 10.75 16.55 19.85 L17.75 22.35 Q29.75 18.1 30.65 7.85 31.05 -5.0 20.7 -15.45 10.35 -25.85 -11.75 -20.5 -22.2 -17.15 -28.8 -5.6 M-25.9 9.85 Q-21.65 -3.1 2.0 6.1 11.85 11.3 16.55 19.85" fill="none" stroke="#000000" stroke-linecap="round" stroke-linejoin="round" stroke-width="1.8"/>
    </g>
    <g id="sprite20" transform="matrix(1.0, 0.0, 0.0, 1.0, 26.0, 13.45)">
      <use ffdec:characterId="74" height="25.8" transform="matrix(1.0, 0.0, 0.0, 1.0, -26.0, -13.45)" width="50.85" xlink:href="#shape17"/>
    </g>
    <g id="shape17" transform="matrix(1.0, 0.0, 0.0, 1.0, 26.0, 13.45)">
      <path d="M21.9 3.7 L22.55 4.85 23.25 6.1 23.45 6.55 23.5 6.65 23.6 6.85 23.75 7.1 24.2 8.3 Q24.8 10.15 24.85 11.95 L24.65 12.35 21.95 11.0 21.9 10.65 21.6 10.9 Q15.95 1.5 8.25 -2.2 -19.9 -13.05 -22.9 4.7 -28.65 2.2 -23.75 -5.05 -17.7 -13.75 -7.7 -13.45 L-4.55 -13.1 -0.55 -12.65 -0.85 -12.65 Q14.35 -9.95 21.95 3.6 L21.9 3.7" fill="#000000" fill-opacity="0.15294118" fill-rule="evenodd" stroke="none"/>
    </g>
    <g id="shape18" transform="matrix(1.0, 0.0, 0.0, 1.0, 5.1, 2.6)">
      <path d="M-0.15 0.25 Q-0.2 0.95 -0.7 1.45 -1.25 1.85 -1.95 1.85 L-3.1 1.3 Q-3.6 0.75 -3.55 0.05 -3.5 -0.65 -2.95 -1.1 -2.45 -1.55 -1.75 -1.5 -1.05 -1.5 -0.55 -0.95 -0.15 -0.45 -0.15 0.25" fill="#000000" fill-rule="evenodd" stroke="none"/>
      <path d="M-4.35 -1.85 Q1.2 -1.95 4.4 -0.2" fill="none" stroke="#000000" stroke-linecap="round" stroke-linejoin="round" stroke-width="1.5"/>
    </g>
    <g id="shape19" transform="matrix(1.0, 0.0, 0.0, 1.0, 3.6, 2.3)">
      <path d="M-0.8 -1.55 L-0.7 -1.5 Q0.7 -1.5 1.1 -1.1 L1.55 0.1 Q1.45 0.8 0.95 1.25 0.45 1.65 -0.25 1.65 -1.0 1.6 -1.4 1.1 -1.85 0.6 -1.8 -0.1 -1.75 -0.85 -1.25 -1.25 L-0.8 -1.55" fill="#000000" fill-rule="evenodd" stroke="none"/>
      <path d="M-0.7 -1.5 L2.85 -1.4 M-0.8 -1.55 L-2.85 -1.1" fill="none" stroke="#000000" stroke-linecap="round" stroke-linejoin="round" stroke-width="1.5"/>
    </g>
    <g id="sprite21" transform="matrix(1.0, 0.0, 0.0, 1.0, 16.45, 13.9)">
      <use ffdec:characterId="79" height="27.85" transform="matrix(1.0, 0.0, 0.0, 1.0, -16.45, -13.9)" width="32.85" xlink:href="#shape20"/>
    </g>
    <g id="shape20" transform="matrix(1.0, 0.0, 0.0, 1.0, 16.45, 13.9)">
      <path d="M4.65 -11.95 Q10.7 -12.1 15.65 -8.45" fill="none" stroke="#000000" stroke-linecap="round" stroke-linejoin="round" stroke-width="1.5"/>
      <path d="M-9.5 -13.05 Q-12.85 -13.5 -15.7 -11.5" fill="none" stroke="#000000" stroke-linecap="round" stroke-linejoin="round" stroke-width="1.5"/>
      <path d="M-3.5 11.4 Q-4.5 13.65 -6.6 13.05 -8.3 12.6 -8.4 10.7" fill="none" stroke="#000000" stroke-linecap="round" stroke-linejoin="round" stroke-width="1.5"/>
    </g>
    <g id="sprite22" transform="matrix(1.0, 0.0, 0.0, 1.0, 2.9, 2.85)">
      <use ffdec:characterId="81" height="5.75" transform="matrix(1.0, 0.0, 0.0, 1.0, -2.9, -2.85)" width="5.8" xlink:href="#shape21"/>
    </g>
    <g id="shape21" transform="matrix(1.0, 0.0, 0.0, 1.0, 2.9, 2.85)">
      <path d="M2.15 -1.85 Q2.95 -1.0 2.9 0.2 2.8 1.4 1.9 2.2 1.0 2.95 -0.2 2.9 -1.4 2.85 -2.2 1.95 -3.0 1.0 -2.9 -0.15 -2.85 -1.35 -1.95 -2.1 -1.05 -2.95 0.15 -2.85 1.35 -2.8 2.15 -1.85" fill="#000000" fill-opacity="0.15294118" fill-rule="evenodd" stroke="none"/>
    </g>
    <g id="sprite23" transform="matrix(1.0, 0.0, 0.0, 1.0, 2.0, 2.4)">
      <use ffdec:characterId="84" height="4.9" id="mc000" transform="matrix(1.0, 0.0, 0.0, 1.0, -2.0, -2.4)" width="3.95" xlink:href="#sprite24"/>
    </g>
    <g id="sprite24" transform="matrix(1.0, 0.0, 0.0, 1.0, 2.0, 2.4)">
      <use ffdec:characterId="83" height="4.9" transform="matrix(1.0, 0.0, 0.0, 1.0, -2.0, -2.4)" width="3.95" xlink:href="#shape22"/>
    </g>
    <g id="shape22" transform="matrix(1.0, 0.0, 0.0, 1.0, 2.0, 2.4)">
      <path d="M1.45 -1.55 Q2.0 -0.85 1.95 0.15 1.85 1.15 1.25 1.85 0.65 2.5 -0.05 2.5 L-0.15 2.5 Q-1.0 2.45 -1.5 1.7 -2.05 0.9 -2.0 -0.1 -1.95 -1.1 -1.3 -1.75 -0.7 -2.45 0.15 -2.4 L0.25 -2.4 1.45 -1.55" fill="#000000" fill-opacity="0.15294118" fill-rule="evenodd" stroke="none"/>
    </g>
    <g id="sprite25" transform="matrix(1.0, 0.0, 0.0, 1.0, 11.3, 17.0)">
      <use ffdec:characterId="87" height="25.45" id="mc100" transform="matrix(1.0, 0.0, 0.0, 1.0, -10.4, -16.25)" width="20.85" xlink:href="#sprite26"/>
      <use ffdec:characterId="88" height="27.1" transform="matrix(1.0, 0.0, 0.0, 1.0, -11.3, -17.0)" width="22.65" xlink:href="#shape24"/>
    </g>
    <g id="sprite26" transform="matrix(1.0, 0.0, 0.0, 1.0, 10.4, 12.75)">
      <use ffdec:characterId="86" height="25.45" transform="matrix(1.0, 0.0, 0.0, 1.0, -10.4, -12.75)" width="20.85" xlink:href="#shape23"/>
    </g>
    <g id="shape23" transform="matrix(1.0, 0.0, 0.0, 1.0, 10.4, 12.75)">
      <path d="M1.1 -11.45 Q2.45 -10.1 2.45 -8.25 2.45 -6.65 1.5 -5.5 L1.8 -5.3 Q1.65 -4.95 2.05 -5.15 3.15 -5.9 4.85 -6.35 6.5 -6.85 6.8 -5.05 7.05 -3.3 6.9 -2.2 L8.0 -2.1 Q9.25 -1.8 9.95 -0.65 10.65 0.5 10.35 1.8 10.05 3.05 8.9 3.75 L8.1 4.1 Q8.45 5.0 8.25 6.0 7.9 7.3 6.8 8.0 5.6 8.7 4.35 8.4 3.35 8.15 2.7 7.45 L2.05 7.95 1.25 8.3 Q1.6 9.2 1.35 10.2 1.05 11.5 -0.1 12.2 -1.25 12.9 -2.55 12.6 -3.7 12.3 -4.35 11.4 -5.5 12.0 -6.7 11.7 -8.0 11.4 -8.7 10.25 -9.45 9.1 -9.1 7.85 L-8.8 7.0 -9.9 5.95 Q-10.65 4.75 -10.3 3.5 -10.0 2.2 -8.85 1.5 -7.7 0.8 -6.4 1.1 L-6.3 1.15 -6.3 1.05 -6.15 0.65 -6.65 0.25 Q-7.6 -0.7 -7.6 -2.05 -7.6 -3.4 -6.65 -4.35 -6.05 -4.95 -5.3 -5.15 -6.55 -6.45 -6.55 -8.25 -6.55 -10.1 -5.25 -11.45 -3.9 -12.75 -2.05 -12.75 -0.2 -12.75 1.1 -11.45" fill="#000000" fill-rule="evenodd" stroke="none"/>
    </g>
    <g id="shape24" transform="matrix(1.0, 0.0, 0.0, 1.0, 11.3, 17.0)">
      <path d="M-6.15 -2.85 L-6.3 -2.45 -6.3 -2.35 -6.4 -2.4 Q-7.7 -2.7 -8.85 -2.0 -10.0 -1.3 -10.3 0.0 -10.65 1.25 -9.9 2.45 L-8.8 3.5 -9.1 4.35 Q-9.45 5.6 -8.7 6.75 -8.0 7.9 -6.7 8.2 -5.5 8.5 -4.35 7.9 -3.7 8.8 -2.55 9.1 -1.25 9.4 -0.1 8.7 1.05 8.0 1.35 6.7 1.6 5.7 1.25 4.8 L2.05 4.45 2.7 3.95 Q3.35 4.65 4.35 4.9 5.6 5.2 6.8 4.5 7.9 3.8 8.25 2.5 8.45 1.5 8.1 0.6 L8.9 0.25 Q10.05 -0.45 10.35 -1.7 10.65 -3.0 9.95 -4.15 9.25 -5.3 8.0 -5.6 L6.9 -5.7 Q7.05 -6.8 6.8 -8.55 6.5 -10.35 4.85 -9.85 3.15 -9.4 2.05 -8.65 1.65 -8.45 1.8 -8.8" fill="none" stroke="#000000" stroke-linecap="round" stroke-linejoin="round" stroke-width="1.8"/>
      <path d="M1.5 -9.0 Q2.45 -10.15 2.45 -11.75 2.45 -13.6 1.1 -14.95 -0.2 -16.25 -2.05 -16.25 -3.9 -16.25 -5.25 -14.95 -6.55 -13.6 -6.55 -11.75 -6.55 -9.95 -5.3 -8.65 -6.05 -8.45 -6.65 -7.85 -7.6 -6.9 -7.6 -5.55 -7.6 -4.2 -6.65 -3.25 L-6.15 -2.85" fill="none" stroke="#000000" stroke-linecap="round" stroke-linejoin="round" stroke-width="1.5"/>
    </g>
  </defs>
</svg>
