<?xml version="1.0" encoding="UTF-8" standalone="no"?>
<svg xmlns:ffdec="https://www.free-decompiler.com/flash" xmlns:xlink="http://www.w3.org/1999/xlink" ffdec:objectType="frame" height="113.9px" width="111.15px" xmlns="http://www.w3.org/2000/svg">
  <g transform="matrix(1.0, 0.0, 0.0, 1.0, 57.3, 112.0)">
    <use ffdec:characterId="272" height="18.85" id="mc25290" transform="matrix(0.9946, 0.101, -0.101, 0.9946, -9.5134, -18.1483)" width="10.9" xlink:href="#sprite0"/>
    <use ffdec:characterId="739" height="69.95" id="hide_hat" transform="matrix(1.0, 0.0, 0.0, 1.0, -41.7, -84.7)" width="83.55" xlink:href="#sprite2"/>
    <use ffdec:characterId="272" height="18.85" id="mc23290" transform="matrix(0.9946, 0.101, -0.101, 0.9946, 1.4866, -17.9483)" width="10.9" xlink:href="#sprite0"/>
    <use ffdec:characterId="275" height="20.35" id="mc22290" transform="matrix(0.9347, -0.3461, 0.3461, 0.9347, -22.6849, -29.5699)" width="13.05" xlink:href="#sprite4"/>
    <use ffdec:characterId="275" height="20.35" id="mc21290" transform="matrix(-0.9604, -0.2672, -0.2672, 0.9604, 22.6026, -30.3482)" width="13.05" xlink:href="#sprite4"/>
    <use ffdec:characterId="279" height="11.25" id="mc20290" transform="matrix(1.0, 0.0, 0.0, 1.0, -19.1, -17.35)" width="37.6" xlink:href="#sprite7"/>
    <use ffdec:characterId="277" height="18.8" id="mc19290" transform="matrix(1.0, 0.0, 0.0, 1.0, -13.45, -32.25)" width="25.85" xlink:href="#sprite9"/>
    <use ffdec:characterId="324" height="20.95" id="mc18290" transform="matrix(1.0, 0.0, 0.0, 1.0, -14.85, -31.8)" width="10.0" xlink:href="#sprite11"/>
    <use ffdec:characterId="281" height="22.3" id="mc16290" transform="matrix(1.0, 0.0, 0.0, 1.0, -13.55, -43.2)" width="26.9" xlink:href="#sprite13"/>
    <use ffdec:characterId="287" height="27.9" id="mc15290" transform="matrix(-1.0, 0.0, 0.0, 1.0, 27.7, -47.7)" width="6.1" xlink:href="#sprite15"/>
    <use ffdec:characterId="725" height="29.9" id="mc14290" transform="matrix(-1.0, 0.0, 0.0, 1.0, 48.45, -50.8)" width="24.7" xlink:href="#sprite17"/>
    <use ffdec:characterId="725" height="29.9" id="mc13290" transform="matrix(1.0, 0.0, 0.0, 1.0, -48.3, -51.15)" width="24.7" xlink:href="#sprite17"/>
    <use ffdec:characterId="287" height="27.9" id="mc12290" transform="matrix(1.0, 0.0, 0.0, 1.0, -28.15, -47.1)" width="6.1" xlink:href="#sprite15"/>
    <use ffdec:characterId="743" height="43.65" id="mc9290" transform="matrix(1.0, 0.0, 0.0, 1.0, -26.25, -71.45)" width="53.25" xlink:href="#sprite19"/>
    <use ffdec:characterId="745" height="13.15" id="mc8290" transform="matrix(1.0, 0.0, 0.0, 1.0, -11.0, -57.8)" width="25.45" xlink:href="#sprite21"/>
    <use ffdec:characterId="749" height="7.85" id="mc7290" transform="matrix(1.0, 0.0, 0.0, 1.0, -17.65, -70.9)" width="37.45" xlink:href="#sprite22"/>
    <use ffdec:characterId="498" height="6.6" transform="matrix(0.9931, 0.1136, 0.1136, -0.9931, -22.45, -58.25)" width="15.25" xlink:href="#shape24"/>
    <use ffdec:characterId="498" height="6.6" transform="matrix(-0.9931, 0.1136, -0.1136, -0.9931, 24.35, -57.85)" width="15.25" xlink:href="#shape24"/>
    <use ffdec:characterId="721" height="0.0" id="hat" transform="matrix(1.0, 0.0, 0.0, 1.0, -34.6, -103.65)" width="0.0" xlink:href="#sprite24"/>
  </g>
  <defs>
    <g id="sprite0" transform="matrix(1.0, 0.0, 0.0, 1.0, 4.95, 9.5)">
      <use ffdec:characterId="271" height="3.3" id="mc100" transform="matrix(1.0, 0.0, 0.0, 1.0, -3.65, 3.05)" width="8.7" xlink:href="#sprite1"/>
      <use ffdec:characterId="102" height="18.85" transform="matrix(1.0, 0.0, 0.0, 1.0, -4.95, -9.5)" width="10.9" xlink:href="#shape1"/>
    </g>
    <g id="sprite1" transform="matrix(1.0, 0.0, 0.0, 1.0, 4.35, 1.65)">
      <use ffdec:characterId="1" height="3.3" transform="matrix(1.0, 0.0, 0.0, 1.0, -4.35, -1.65)" width="8.7" xlink:href="#shape0"/>
    </g>
    <g id="shape0" transform="matrix(1.0, 0.0, 0.0, 1.0, 4.35, 1.65)">
      <path d="M-4.35 -0.85 L4.0 -1.65 4.35 0.75 -4.2 1.65 -4.35 -0.85" fill="#00ffff" fill-rule="evenodd" stroke="none"/>
    </g>
    <g id="shape1" transform="matrix(1.0, 0.0, 0.0, 1.0, 4.95, 9.5)">
      <path d="M-3.65 3.85 L-4.05 -6.3 Q-4.1 -7.15 -3.15 -7.75 -2.1 -8.4 -0.55 -8.55 L2.1 -8.25 Q3.15 -7.75 3.3 -7.0 L3.35 -6.85 3.35 -6.65 4.7 3.05 -3.65 3.85 M5.05 5.55 L5.05 5.7 Q5.15 6.65 3.9 7.45 2.7 8.25 0.95 8.4 -0.8 8.55 -2.15 7.95 -3.45 7.45 -3.55 6.5 L-3.55 6.35 -3.5 6.35 4.7 5.5 5.05 5.55" fill="#000000" fill-rule="evenodd" stroke="none"/>
      <path d="M-3.65 3.85 L-4.05 -6.3 Q-4.1 -7.15 -3.15 -7.75 -2.1 -8.4 -0.55 -8.55 L2.1 -8.25 Q3.15 -7.75 3.3 -7.0 L3.35 -6.85 3.35 -6.65 4.7 3.05 5.05 5.45 5.05 5.55 5.05 5.7 Q5.15 6.65 3.9 7.45 2.7 8.25 0.95 8.4 -0.8 8.55 -2.15 7.95 -3.45 7.45 -3.55 6.5 L-3.55 6.35 -3.55 6.1 -3.65 3.85 4.7 3.05 M-3.55 6.35 L-3.5 6.35 4.7 5.5" fill="none" stroke="#000000" stroke-linecap="round" stroke-linejoin="round" stroke-width="1.8"/>
    </g>
    <g id="sprite2" transform="matrix(1.0, 0.0, 0.0, 1.0, 0.9, 0.9)">
      <use ffdec:characterId="737" height="7.85" id="mc100" transform="matrix(1.0, 0.0, 0.0, 1.0, 31.1, 0.0)" width="23.0" xlink:href="#sprite3"/>
      <use ffdec:characterId="738" height="69.95" transform="matrix(1.0, 0.0, 0.0, 1.0, -0.9, -0.9)" width="83.55" xlink:href="#shape3"/>
    </g>
    <g id="sprite3" transform="matrix(1.0, 0.0, 0.0, 1.0, 11.5, 3.9)">
      <use ffdec:characterId="736" height="7.85" transform="matrix(1.0, 0.0, 0.0, 1.0, -11.5, -3.9)" width="23.0" xlink:href="#shape2"/>
    </g>
    <g id="shape2" transform="matrix(1.0, 0.0, 0.0, 1.0, 11.5, 3.9)">
      <path d="M-1.4 1.45 Q-6.8 1.9 -11.5 2.9 -7.85 -0.85 0.15 -3.9 8.35 -1.7 11.5 3.95 5.6 2.05 -1.25 1.55 L-1.4 1.45" fill="#1a0000" fill-rule="evenodd" stroke="none"/>
    </g>
    <g id="shape3" transform="matrix(1.0, 0.0, 0.0, 1.0, 0.9, 0.9)">
      <path d="M54.1 7.85 Q70.8 13.1 79.8 29.15 L80.15 30.05 Q85.05 43.7 75.15 54.85 L74.5 55.55 74.3 55.75 Q61.75 66.9 46.05 68.1 L45.7 68.15 45.2 68.15 Q6.35 67.7 0.0 39.0 L0.0 38.85 Q2.15 12.9 31.1 6.8 35.8 5.8 41.2 5.35 L41.35 5.45 Q48.2 5.95 54.1 7.85" fill="#000000" fill-rule="evenodd" stroke="none"/>
      <path d="M31.1 6.8 Q34.75 3.05 42.75 0.0 50.95 2.2 54.1 7.85 70.8 13.1 79.8 29.15 L80.15 30.05 Q85.05 43.7 75.15 54.85 L74.5 55.55 74.3 55.75 Q61.75 66.9 46.05 68.1 L45.7 68.15 45.2 68.15 Q6.35 67.7 0.0 39.0 L0.0 38.85 Q2.15 12.9 31.1 6.8 35.8 5.8 41.2 5.35 L41.35 5.45 Q48.2 5.95 54.1 7.85" fill="none" stroke="#000000" stroke-linecap="round" stroke-linejoin="round" stroke-width="1.8"/>
    </g>
    <g id="sprite4" transform="matrix(1.0, 0.0, 0.0, 1.0, 6.55, 10.15)">
      <use ffdec:characterId="273" height="4.9" id="mc200" transform="matrix(1.0, 0.0, 0.0, 1.0, -5.65, 4.4)" width="6.65" xlink:href="#sprite5"/>
      <use ffdec:characterId="274" height="13.2" id="mc100" transform="matrix(1.0, 0.0, 0.0, 1.0, -5.35, -5.05)" width="10.15" xlink:href="#sprite6"/>
      <use ffdec:characterId="64" height="20.35" transform="matrix(1.0, 0.0, 0.0, 1.0, -6.55, -10.15)" width="13.05" xlink:href="#shape6"/>
    </g>
    <g id="sprite5" transform="matrix(1.0, 0.0, 0.0, 1.0, 3.35, 2.45)">
      <use ffdec:characterId="5" height="4.9" transform="matrix(1.0, 0.0, 0.0, 1.0, -3.35, -2.45)" width="6.65" xlink:href="#shape4"/>
    </g>
    <g id="shape4" transform="matrix(1.0, 0.0, 0.0, 1.0, 3.35, 2.45)">
      <path d="M-3.05 -2.45 L-2.8 -2.35 3.3 1.3 3.2 1.4 2.15 2.15 Q0.6 2.75 -0.9 2.15 -2.5 1.45 -3.1 -0.05 -3.55 -1.15 -3.1 -2.4 L-3.05 -2.45" fill="#ffcc66" fill-rule="evenodd" stroke="none"/>
    </g>
    <g id="sprite6" transform="matrix(1.0, 0.0, 0.0, 1.0, 5.1, 6.6)">
      <use ffdec:characterId="7" height="13.2" transform="matrix(1.0, 0.0, 0.0, 1.0, -5.1, -6.6)" width="10.15" xlink:href="#shape5"/>
    </g>
    <g id="shape5" transform="matrix(1.0, 0.0, 0.0, 1.0, 5.1, 6.6)">
      <path d="M-4.85 2.95 L-5.1 2.85 -4.85 2.2 -4.1 0.7 -3.7 0.9 2.25 4.7 2.1 5.05 1.25 6.6 -4.85 2.95 M5.05 -4.25 L4.1 -0.95 3.75 0.15 -2.25 -2.9 -1.95 -3.5 -0.2 -6.6 5.05 -4.25" fill="#00ff00" fill-rule="evenodd" stroke="none"/>
    </g>
    <g id="shape6" transform="matrix(1.0, 0.0, 0.0, 1.0, 6.55, 10.15)">
      <path d="M-0.45 -5.05 Q1.4 -8.35 2.2 -8.8 3.05 -9.35 3.85 -9.2 L4.3 -9.1 Q5.3 -8.65 5.55 -7.4 5.75 -6.5 4.8 -2.7 L-0.45 -5.05 M3.5 1.7 L2.0 6.25 -3.95 2.45 -4.35 2.25 -2.5 -1.35 3.5 1.7" fill="#ffffff" fill-rule="evenodd" stroke="none"/>
      <path d="M4.8 -2.7 Q5.75 -6.5 5.55 -7.4 5.3 -8.65 4.3 -9.1 L3.85 -9.2 Q3.05 -9.35 2.2 -8.8 1.4 -8.35 -0.45 -5.05 L-2.2 -1.95 -2.5 -1.35 -4.35 2.25 -5.1 3.75 -5.35 4.4 -5.4 4.45 Q-5.85 5.7 -5.4 6.8 -4.8 8.3 -3.2 9.0 -1.7 9.6 -0.15 9.0 L0.9 8.25 1.0 8.15 1.85 6.6 2.0 6.25 3.5 1.7 3.85 0.6 4.8 -2.7" fill="none" stroke="#000000" stroke-linecap="round" stroke-linejoin="round" stroke-width="1.8"/>
      <path d="M-0.45 -5.05 L4.8 -2.7 M-5.1 4.5 L0.7 7.95 M-2.5 -1.35 L3.5 1.7 M2.0 6.25 L-3.95 2.45" fill="none" stroke="#000000" stroke-linecap="round" stroke-linejoin="round" stroke-width="1.5"/>
    </g>
    <g id="sprite7" transform="matrix(1.0, 0.0, 0.0, 1.0, 0.75, 0.75)">
      <use ffdec:characterId="278" height="9.75" id="mc100" transform="matrix(1.0, 0.0, 0.0, 1.0, 0.0, 0.0)" width="36.1" xlink:href="#sprite8"/>
      <use ffdec:characterId="225" height="11.25" transform="matrix(1.0, 0.0, 0.0, 1.0, -0.75, -0.75)" width="37.6" xlink:href="#shape8"/>
    </g>
    <g id="sprite8" transform="matrix(1.0, 0.0, 0.0, 1.0, 18.05, 4.85)">
      <use ffdec:characterId="11" height="9.75" transform="matrix(1.0, 0.0, 0.0, 1.0, -18.05, -4.85)" width="36.1" xlink:href="#shape7"/>
    </g>
    <g id="shape7" transform="matrix(1.0, 0.0, 0.0, 1.0, 18.05, 4.85)">
      <path d="M11.55 -4.75 L18.05 0.55 14.55 4.7 11.45 1.8 8.7 4.65 6.2 1.5 3.35 4.45 -0.25 1.4 -4.05 4.9 -7.4 2.3 -9.95 4.8 -12.95 1.5 -15.7 4.25 -18.05 0.2 -11.2 -4.85 11.55 -4.75" fill="#996666" fill-rule="evenodd" stroke="none"/>
    </g>
    <g id="shape8" transform="matrix(1.0, 0.0, 0.0, 1.0, 0.75, 0.75)">
      <path d="M35.95 5.6 L32.6 9.55 29.5 6.65 26.75 9.5 24.25 6.35 21.4 9.3 21.05 9.0 17.8 6.25 14.0 9.75 10.65 7.15 8.1 9.65 5.1 6.35 2.35 9.1 0.0 5.05 6.85 0.0 29.6 0.1 36.1 5.4 M22.9 4.7 L24.25 6.35 M29.5 6.65 L26.9 4.2 M15.8 4.4 L14.0 9.75 M10.65 7.15 L12.75 5.05 M7.05 4.35 L5.1 6.35 M21.05 9.0 L20.05 5.0" fill="none" stroke="#000000" stroke-linecap="round" stroke-linejoin="round" stroke-width="1.5"/>
    </g>
    <g id="sprite9" transform="matrix(1.0, 0.0, 0.0, 1.0, 0.75, 0.75)">
      <use ffdec:characterId="276" height="14.75" id="mc100" transform="matrix(1.0, 0.0, 0.0, 1.0, 0.0, 2.55)" width="24.35" xlink:href="#sprite10"/>
      <use ffdec:characterId="67" height="18.8" transform="matrix(1.0, 0.0, 0.0, 1.0, -0.75, -0.75)" width="25.85" xlink:href="#shape10"/>
    </g>
    <g id="sprite10" transform="matrix(1.0, 0.0, 0.0, 1.0, 12.15, 7.35)">
      <use ffdec:characterId="15" height="14.75" transform="matrix(1.0, 0.0, 0.0, 1.0, -12.15, -7.35)" width="24.35" xlink:href="#shape9"/>
    </g>
    <g id="shape9" transform="matrix(1.0, 0.0, 0.0, 1.0, 12.15, 7.35)">
      <path d="M12.15 -5.15 L12.15 -4.6 -12.1 -4.6 -12.05 -5.15 -11.95 -7.35 12.05 -7.35 12.15 -5.15 M11.85 7.4 L-11.75 7.4 -11.95 4.65 12.05 4.65 11.85 7.4 M12.2 1.25 L-12.1 1.35 -12.15 -1.8 12.2 -1.85 12.2 1.25" fill="#00ff00" fill-rule="evenodd" stroke="none"/>
    </g>
    <g id="shape10" transform="matrix(1.0, 0.0, 0.0, 1.0, 0.75, 0.75)">
      <path d="M24.2 14.55 L0.2 14.55 0.05 11.25 24.35 11.15 24.2 14.55 M0.0 8.1 L0.05 5.3 24.3 5.3 24.35 8.05 0.0 8.1 M0.2 2.55 L0.4 0.0 24.0 0.0 24.2 2.55 0.2 2.55" fill="#ffffff" fill-rule="evenodd" stroke="none"/>
      <path d="M0.2 14.55 L0.4 17.3 24.0 17.3 24.2 14.55 0.2 14.55 0.05 11.25 0.0 8.1 0.05 5.3 0.1 4.75 0.2 2.55 0.4 0.0 24.0 0.0 24.2 2.55 24.3 4.75 24.3 5.3 24.35 8.05 24.35 11.15 24.2 14.55 M24.35 11.15 L0.05 11.25 M24.2 2.55 L0.2 2.55 M24.3 5.3 L0.05 5.3 M0.0 8.1 L24.35 8.05" fill="none" stroke="#000000" stroke-linecap="round" stroke-linejoin="round" stroke-width="1.5"/>
    </g>
    <g id="sprite11" transform="matrix(1.0, 0.0, 0.0, 1.0, 0.75, 0.75)">
      <use ffdec:characterId="323" height="19.45" id="mc100" transform="matrix(1.0, 0.0, 0.0, 1.0, 1.65, 0.0)" width="6.75" xlink:href="#sprite12"/>
      <use ffdec:characterId="116" height="20.95" transform="matrix(1.0, 0.0, 0.0, 1.0, -0.75, -0.75)" width="10.0" xlink:href="#shape12"/>
    </g>
    <g id="sprite12" transform="matrix(1.0, 0.0, 0.0, 1.0, 3.35, 9.7)">
      <use ffdec:characterId="19" height="19.45" transform="matrix(1.0, 0.0, 0.0, 1.0, -3.35, -9.7)" width="6.75" xlink:href="#shape11"/>
    </g>
    <g id="shape11" transform="matrix(1.0, 0.0, 0.0, 1.0, 3.35, 9.7)">
      <path d="M3.05 0.15 L2.9 4.95 0.45 4.7 0.95 9.15 0.95 9.75 0.9 9.75 -2.55 9.3 -1.9 4.45 -3.35 4.3 -3.2 -0.6 3.05 0.15 M3.35 -6.95 L3.25 -4.2 -3.05 -4.95 -2.9 -9.4 -2.75 -9.7 3.4 -7.2 3.35 -6.95" fill="#00ffff" fill-rule="evenodd" stroke="none"/>
    </g>
    <g id="shape12" transform="matrix(1.0, 0.0, 0.0, 1.0, 0.75, 0.75)">
      <path d="M1.95 4.75 L8.25 5.5 8.05 9.85 1.8 9.1 1.95 4.75 M7.9 14.65 L7.85 14.95 Q8.45 16.8 8.5 19.2 L6.0 19.45 5.95 19.45 5.95 18.85 5.45 14.4 7.4 14.6 7.9 14.65 M2.45 19.0 L0.0 18.3 Q0.15 16.25 1.6 14.4 L1.65 14.0 3.1 14.15 2.45 19.0" fill="#ffffff" fill-rule="evenodd" stroke="none"/>
      <path d="M2.1 0.3 L1.95 4.75 8.25 5.5 8.35 2.75 M8.4 2.5 L2.25 0.0 M1.95 4.75 L1.8 9.1 8.05 9.85 8.25 5.5 M5.95 19.45 L6.0 19.45 8.5 19.2 Q8.45 16.8 7.85 14.95 L7.9 14.65 8.05 9.85 M7.4 14.6 L5.45 14.4 5.95 18.85 M5.95 19.45 L5.9 19.45 2.45 19.0 0.0 18.3 Q0.15 16.25 1.6 14.4 L1.65 14.0 1.8 9.1 M2.45 19.0 L3.1 14.15 1.65 14.0 M5.45 14.4 L3.1 14.15" fill="none" stroke="#000000" stroke-linecap="round" stroke-linejoin="round" stroke-width="1.5"/>
    </g>
    <g id="sprite13" transform="matrix(1.0, 0.0, 0.0, 1.0, 0.9, 0.9)">
      <use ffdec:characterId="280" height="20.5" id="mc100" transform="matrix(1.0, 0.0, 0.0, 1.0, 0.0, 0.0)" width="25.1" xlink:href="#sprite14"/>
      <use ffdec:characterId="70" height="22.3" transform="matrix(1.0, 0.0, 0.0, 1.0, -0.9, -0.9)" width="26.9" xlink:href="#shape14"/>
    </g>
    <g id="sprite14" transform="matrix(1.0, 0.0, 0.0, 1.0, 12.55, 10.25)">
      <use ffdec:characterId="23" height="20.5" transform="matrix(1.0, 0.0, 0.0, 1.0, -12.55, -10.25)" width="25.1" xlink:href="#shape13"/>
    </g>
    <g id="shape13" transform="matrix(1.0, 0.0, 0.0, 1.0, 12.55, 10.25)">
      <path d="M3.3 -9.9 Q2.3 0.0 3.35 9.9 L0.0 10.25 -3.55 9.9 -3.2 -9.9 0.0 -10.25 3.3 -9.9 M9.75 6.5 Q8.6 0.05 9.65 -6.55 12.55 -3.75 12.55 0.0 12.55 3.7 9.75 6.5 M-8.7 -6.95 Q-9.65 0.35 -8.8 7.25 L-8.9 7.25 Q-12.55 4.25 -12.55 0.0 -12.55 -4.2 -8.95 -7.2 L-8.7 -6.95" fill="#00ffff" fill-rule="evenodd" stroke="none"/>
    </g>
    <g id="shape14" transform="matrix(1.0, 0.0, 0.0, 1.0, 0.9, 0.9)">
      <path d="M15.85 0.35 Q18.95 1.0 21.4 3.0 L21.95 3.5 22.2 3.7 Q21.15 10.3 22.3 16.75 L21.4 17.5 Q19.0 19.5 15.9 20.15 14.85 10.25 15.85 0.35 M9.0 20.15 Q6.05 19.45 3.75 17.55 L3.75 17.5 Q2.9 10.6 3.85 3.3 L3.65 3.0 Q6.15 1.0 9.35 0.35 L9.0 20.15" fill="#ffffff" fill-rule="evenodd" stroke="none"/>
      <path d="M15.85 0.35 Q18.95 1.0 21.4 3.0 L21.95 3.5 22.2 3.7 Q25.1 6.5 25.1 10.25 25.1 13.95 22.3 16.75 L21.4 17.5 Q19.0 19.5 15.9 20.15 L12.55 20.5 9.0 20.15 Q6.05 19.45 3.75 17.55 L3.65 17.5 Q0.0 14.5 0.0 10.25 0.0 6.05 3.6 3.05 L3.65 3.0 Q6.15 1.0 9.35 0.35 L12.55 0.0 15.85 0.35 Q14.85 10.25 15.9 20.15 M22.2 3.7 Q21.15 10.3 22.3 16.75 M3.75 17.55 L3.75 17.5 Q2.9 10.6 3.85 3.3 M9.35 0.35 L9.0 20.15" fill="none" stroke="#000000" stroke-linecap="round" stroke-linejoin="round" stroke-width="1.8"/>
    </g>
    <g id="sprite15" transform="matrix(1.0, 0.0, 0.0, 1.0, 0.9, 0.9)">
      <use ffdec:characterId="286" height="26.1" id="mc100" transform="matrix(1.0, 0.0, 0.0, 1.0, 0.0, 0.0)" width="4.3" xlink:href="#sprite16"/>
      <use ffdec:characterId="73" height="27.9" transform="matrix(1.0, 0.0, 0.0, 1.0, -0.9, -0.9)" width="6.1" xlink:href="#shape16"/>
    </g>
    <g id="sprite16" transform="matrix(1.0, 0.0, 0.0, 1.0, 2.15, 13.05)">
      <use ffdec:characterId="27" height="26.1" transform="matrix(1.0, 0.0, 0.0, 1.0, -2.15, -13.05)" width="4.3" xlink:href="#shape15"/>
    </g>
    <g id="shape15" transform="matrix(1.0, 0.0, 0.0, 1.0, 2.15, 13.05)">
      <path d="M1.95 -7.15 Q2.2 4.15 -2.15 13.05 L-1.85 -12.9 -1.6 -13.05 2.15 -7.45 1.95 -7.15" fill="#993300" fill-rule="evenodd" stroke="none"/>
    </g>
    <g id="shape16" transform="matrix(1.0, 0.0, 0.0, 1.0, 0.9, 0.9)">
      <path d="M4.1 5.9 Q4.35 17.2 0.0 26.1 L0.3 0.15 M0.55 0.0 L4.3 5.6" fill="none" stroke="#000000" stroke-linecap="round" stroke-linejoin="round" stroke-width="1.8"/>
    </g>
    <g id="sprite17" transform="matrix(1.0, 0.0, 0.0, 1.0, 0.85, 0.9)">
      <use ffdec:characterId="724" height="28.1" id="mc100" transform="matrix(1.0, 0.0, 0.0, 1.0, 0.05, 0.0)" width="22.9" xlink:href="#sprite18"/>
      <use ffdec:characterId="192" height="29.9" transform="matrix(1.0, 0.0, 0.0, 1.0, -0.85, -0.9)" width="24.7" xlink:href="#shape18"/>
    </g>
    <g id="sprite18" transform="matrix(1.0, 0.0, 0.0, 1.0, 11.45, 14.05)">
      <use ffdec:characterId="190" height="28.1" transform="matrix(1.0, 0.0, 0.0, 1.0, -11.45, -14.05)" width="22.9" xlink:href="#shape17"/>
    </g>
    <g id="shape17" transform="matrix(1.0, 0.0, 0.0, 1.0, 11.45, 14.05)">
      <path d="M11.45 -10.4 Q7.0 -2.05 5.55 6.3 L5.1 9.05 4.8 10.05 Q2.3 17.45 -5.65 11.15 -13.1 4.3 -11.0 -1.1 -9.9 -3.8 -8.05 -5.95 -2.6 -12.45 9.05 -14.05 L10.0 -12.6 9.75 -12.2 10.25 -12.2 11.45 -10.4" fill="#993300" fill-rule="evenodd" stroke="none"/>
    </g>
    <g id="shape18" transform="matrix(1.0, 0.0, 0.0, 1.0, 0.85, 0.9)">
      <path d="M21.25 1.85 L21.75 1.85 22.95 3.65 Q18.5 12.0 17.05 20.35 16.75 21.7 16.6 23.1 L16.3 24.1 Q13.8 31.5 5.85 25.2 -1.6 18.35 0.5 12.95 1.6 10.25 3.45 8.1 8.9 1.6 20.55 0.0 L21.5 1.45 21.25 1.85 Q16.25 6.25 15.05 14.25 L15.15 14.45 Q16.4 16.9 17.05 20.35 M15.05 14.25 L14.65 13.5 Q12.75 10.4 9.8 9.1 7.05 7.9 3.45 8.1 M21.25 1.85 Q12.8 2.0 9.8 9.1" fill="none" stroke="#000000" stroke-linecap="round" stroke-linejoin="round" stroke-width="1.8"/>
    </g>
    <g id="sprite19" transform="matrix(1.0, 0.0, 0.0, 1.0, 0.9, 0.9)">
      <use ffdec:characterId="741" height="41.85" id="mc100" transform="matrix(1.0, 0.0, 0.0, 1.0, 0.0, 0.0)" width="51.45" xlink:href="#sprite20"/>
      <use ffdec:characterId="742" height="43.65" transform="matrix(1.0, 0.0, 0.0, 1.0, -0.9, -0.9)" width="53.25" xlink:href="#shape20"/>
    </g>
    <g id="sprite20" transform="matrix(1.0, 0.0, 0.0, 1.0, 25.7, 20.9)">
      <use ffdec:characterId="740" height="41.85" transform="matrix(1.0, 0.0, 0.0, 1.0, -25.7, -20.9)" width="51.45" xlink:href="#shape19"/>
    </g>
    <g id="shape19" transform="matrix(1.0, 0.0, 0.0, 1.0, 25.7, 20.9)">
      <path d="M0.75 -20.8 Q13.6 -20.05 21.45 -12.55 L21.45 -12.3 Q24.35 -8.45 25.5 -2.8 L25.7 -2.4 Q26.35 15.7 14.25 20.2 8.5 15.35 0.95 16.0 L0.1 16.1 Q-9.05 15.7 -14.0 20.95 -25.05 16.8 -25.7 0.2 -24.95 -6.55 -22.0 -11.3 L-21.8 -11.6 Q-11.05 -21.35 0.5 -20.9 L0.75 -20.8" fill="#ffcc66" fill-rule="evenodd" stroke="none"/>
    </g>
    <g id="shape20" transform="matrix(1.0, 0.0, 0.0, 1.0, 0.9, 0.9)">
      <path d="M47.15 8.35 Q39.3 0.85 26.45 0.1 L26.2 0.0 Q14.65 -0.45 3.9 9.3 L3.7 9.6 Q0.75 14.35 0.0 21.1 0.65 37.7 11.7 41.85 16.65 36.6 25.8 37.0 L26.65 36.9 Q34.2 36.25 39.95 41.1 52.05 36.6 51.4 18.5 L51.2 18.1 Q50.05 12.45 47.15 8.6" fill="none" stroke="#000000" stroke-linecap="round" stroke-linejoin="round" stroke-width="1.8"/>
    </g>
    <g id="sprite21" transform="matrix(1.0, 0.0, 0.0, 1.0, 0.9, 0.9)">
      <use ffdec:characterId="744" height="13.15" transform="matrix(1.0, 0.0, 0.0, 1.0, -0.9, -0.9)" width="25.45" xlink:href="#shape21"/>
    </g>
    <g id="shape21" transform="matrix(1.0, 0.0, 0.0, 1.0, 0.9, 0.9)">
      <path d="M6.45 9.75 Q-0.9 6.85 0.1 2.8 1.4 -0.4 6.15 0.1 L11.7 0.65 11.95 0.65 17.5 0.05 Q22.25 -0.45 23.55 2.75 24.55 6.8 17.15 9.75 15.2 6.2 11.6 6.65 6.75 6.75 6.45 9.75" fill="#000000" fill-rule="evenodd" stroke="none"/>
      <path d="M11.5 11.35 L6.45 9.75 Q6.75 6.75 11.6 6.65 15.2 6.2 17.15 9.75 L12.15 11.3 11.5 11.35" fill="#990000" fill-rule="evenodd" stroke="none"/>
      <path d="M11.5 11.35 L6.45 9.75 Q-0.9 6.85 0.1 2.8 1.4 -0.4 6.15 0.1 L11.7 0.65 11.95 0.65 17.5 0.05 Q22.25 -0.45 23.55 2.75 24.55 6.8 17.15 9.75 L12.15 11.3 M17.15 9.75 Q15.2 6.2 11.6 6.65 6.75 6.75 6.45 9.75" fill="none" stroke="#000000" stroke-linecap="round" stroke-linejoin="round" stroke-width="1.8"/>
    </g>
    <g id="sprite22" transform="matrix(1.0, 0.0, 0.0, 1.0, 0.9, 0.9)">
      <use ffdec:characterId="747" height="6.05" id="mc100" transform="matrix(1.0, 0.0, 0.0, 1.0, 0.0, 0.0)" width="35.65" xlink:href="#sprite23"/>
      <use ffdec:characterId="748" height="7.85" transform="matrix(1.0, 0.0, 0.0, 1.0, -0.9, -0.9)" width="37.45" xlink:href="#shape23"/>
    </g>
    <g id="sprite23" transform="matrix(1.0, 0.0, 0.0, 1.0, 17.8, 3.0)">
      <use ffdec:characterId="746" height="6.05" transform="matrix(1.0, 0.0, 0.0, 1.0, -17.8, -3.0)" width="35.65" xlink:href="#shape22"/>
    </g>
    <g id="shape22" transform="matrix(1.0, 0.0, 0.0, 1.0, 17.8, 3.0)">
      <path d="M2.6 -2.75 L5.75 -2.3 5.7 1.15 3.15 1.35 2.6 -2.75 M8.35 1.1 L7.85 -1.9 Q13.45 -0.55 17.85 2.45 L17.75 2.85 8.35 1.1 M0.5 0.95 L-2.6 0.75 -2.6 -2.9 0.35 -3.0 0.5 0.95 M-3.9 -2.35 L-4.8 1.85 -17.8 3.05 Q-11.05 -1.85 -3.95 -2.75 L-3.9 -2.35" fill="#993300" fill-rule="evenodd" stroke="none"/>
    </g>
    <g id="shape23" transform="matrix(1.0, 0.0, 0.0, 1.0, 0.9, 0.9)">
      <path d="M35.65 5.85 L35.65 5.45 Q31.25 2.45 25.65 1.1 L26.15 4.1 35.55 5.85 35.65 5.85 M13.9 0.65 L13.0 4.85 0.0 6.05 Q6.75 1.15 13.85 0.25 L15.2 0.1 18.15 0.0 18.3 0.0 18.55 0.1 20.4 0.25 23.55 0.7 25.65 1.1 M20.4 0.25 L20.95 4.35 23.5 4.15 23.55 0.7 M15.2 0.1 L15.2 3.75 18.3 3.95 18.15 0.0" fill="none" stroke="#000000" stroke-linecap="round" stroke-linejoin="round" stroke-width="1.8"/>
    </g>
    <g id="shape24" transform="matrix(1.0, 0.0, 0.0, 1.0, 0.0, 0.0)">
      <path d="M15.25 1.5 Q13.75 4.6 10.6 5.25 L7.0 6.1 Q5.75 6.8 4.8 6.5 5.65 5.8 5.55 5.15 3.5 5.9 1.3 4.75 3.05 4.75 3.25 3.1 1.45 3.9 0.0 2.75 2.45 2.05 3.3 0.0 4.6 6.85 15.25 1.5" fill="#000000" fill-rule="evenodd" stroke="none"/>
    </g>
  </defs>
</svg>
