<?xml version="1.0" encoding="UTF-8" standalone="no"?>
<svg xmlns:ffdec="https://www.free-decompiler.com/flash" xmlns:xlink="http://www.w3.org/1999/xlink" ffdec:objectType="frame" height="24.85px" width="18.15px" xmlns="http://www.w3.org/2000/svg">
  <g transform="matrix(1.0, 0.0, 0.0, 1.0, -1.4, 6.6)">
    <use ffdec:characterId="127" height="57.65" id="mc600" transform="matrix(-0.2967, 0.0, 0.0, 0.2967, 18.7596, 1.1426)" width="57.75" xlink:href="#sprite0"/>
    <use ffdec:characterId="62" height="3.95" transform="matrix(0.5577, 0.0, 0.0, 0.3671, 16.7009, 15.7655)" width="2.6" xlink:href="#shape3"/>
    <use ffdec:characterId="129" height="5.5" id="mc400" transform="matrix(-0.2967, 0.0, 0.0, 0.2967, 15.8109, 14.6341)" width="8.5" xlink:href="#sprite3"/>
    <use ffdec:characterId="152" height="2.2" transform="matrix(1.0, 0.0, 0.0, 1.0, 13.65, 6.25)" width="3.85" xlink:href="#shape5"/>
    <use ffdec:characterId="134" height="39.3" id="mc200" transform="matrix(-0.2967, 0.0, 0.0, 0.2967, 16.608, 0.742)" width="51.25" xlink:href="#sprite4"/>
    <use ffdec:characterId="136" height="23.95" id="mc100" transform="matrix(-0.2967, 0.0, 0.0, 0.2967, 17.0356, 7.9122)" width="20.85" xlink:href="#sprite6"/>
    <use ffdec:characterId="153" height="0.0" id="hat" transform="matrix(-0.2967, 0.0, 0.0, 0.2967, 19.55, -6.6)" width="0.0" xlink:href="#sprite7"/>
  </g>
  <defs>
    <g id="sprite0" transform="matrix(1.0, 0.0, 0.0, 1.0, 28.85, 28.0)">
      <use ffdec:characterId="123" height="55.85" id="mc200" transform="matrix(1.0, 0.0, 0.0, 1.0, -27.95, -27.1)" width="55.95" xlink:href="#sprite1"/>
      <use ffdec:characterId="125" height="50.55" id="mc100" transform="matrix(1.0, 0.0, 0.0, 1.0, -19.6, -27.1)" width="47.6" xlink:href="#sprite2"/>
      <use ffdec:characterId="126" height="57.65" transform="matrix(1.0, 0.0, 0.0, 1.0, -28.85, -28.0)" width="57.75" xlink:href="#shape2"/>
    </g>
    <g id="sprite1" transform="matrix(1.0, 0.0, 0.0, 1.0, 27.95, 27.9)">
      <use ffdec:characterId="122" height="55.85" transform="matrix(1.0, 0.0, 0.0, 1.0, -27.95, -27.9)" width="55.95" xlink:href="#shape0"/>
    </g>
    <g id="shape0" transform="matrix(1.0, 0.0, 0.0, 1.0, 27.95, 27.9)">
      <path d="M28.0 -0.25 Q27.95 11.15 19.85 19.25 12.15 27.0 1.45 27.4 L0.3 27.4 -0.1 27.4 Q-37.45 31.0 -24.7 11.75 -27.35 6.3 -27.35 -0.25 -27.35 -11.7 -19.25 -19.8 -11.1 -27.9 0.3 -27.9 11.75 -27.9 19.85 -19.8 27.95 -11.7 28.0 -0.25" fill="#ffd797" fill-rule="evenodd" stroke="none"/>
    </g>
    <g id="sprite2" transform="matrix(1.0, 0.0, 0.0, 1.0, 23.35, 25.3)">
      <use ffdec:characterId="124" height="50.55" transform="matrix(1.0, 0.0, 0.0, 1.0, -23.35, -25.3)" width="47.6" xlink:href="#shape1"/>
    </g>
    <g id="shape1" transform="matrix(1.0, 0.0, 0.0, 1.0, 23.35, 25.3)">
      <path d="M-23.0 -17.2 Q-14.85 -25.3 -3.45 -25.3 8.0 -25.3 16.1 -17.2 24.2 -9.1 24.25 2.35 24.2 6.65 23.05 10.5 L23.05 10.6 Q21.1 16.85 16.1 21.85 L12.1 25.25 Q4.15 18.65 1.1 4.6 -4.55 -10.9 -13.65 -14.1 -22.8 -17.3 -23.2 -16.95 -23.6 -16.65 -23.0 -17.2" fill="#000000" fill-opacity="0.3019608" fill-rule="evenodd" stroke="none"/>
    </g>
    <g id="shape2" transform="matrix(1.0, 0.0, 0.0, 1.0, 28.85, 28.0)">
      <path d="M19.85 -19.0 Q27.95 -10.9 28.0 0.55 27.95 11.95 19.85 20.05 12.15 27.8 1.45 28.2 L0.3 28.2 -0.1 28.2 Q-37.45 31.8 -24.7 12.55 -27.35 7.1 -27.35 0.55 -27.35 -10.9 -19.25 -19.0 -11.1 -27.1 0.3 -27.1 11.75 -27.1 19.85 -19.0 Z" fill="none" stroke="#000000" stroke-linecap="round" stroke-linejoin="round" stroke-width="1.8"/>
    </g>
    <g id="shape3" transform="matrix(1.0, 0.0, 0.0, 1.0, 9.95, 37.55)">
      <path d="M-8.15 -37.5 Q-7.65 -37.4 -7.45 -36.8 -7.25 -36.1 -7.45 -35.25 -7.65 -34.45 -8.15 -34.05 L-8.4 -33.75 -9.15 -33.6 -9.7 -34.1 -9.85 -34.45 -9.8 -35.85 Q-9.65 -36.7 -9.15 -37.25 -8.65 -37.65 -8.15 -37.5" fill="#000000" fill-rule="evenodd" stroke="none"/>
    </g>
    <g id="sprite3" transform="matrix(1.0, 0.0, 0.0, 1.0, 4.25, 2.75)">
      <use ffdec:characterId="128" height="5.5" transform="matrix(1.0, 0.0, 0.0, 1.0, -4.25, -2.75)" width="8.5" xlink:href="#shape4"/>
    </g>
    <g id="shape4" transform="matrix(1.0, 0.0, 0.0, 1.0, 4.25, 2.75)">
      <path d="M-2.05 1.25 L-2.3 1.85 Q-2.6 2.15 -3.0 2.15 L-3.65 1.85 -3.95 1.25 -3.95 1.2 -3.65 0.5 Q-3.4 0.25 -3.0 0.25 -2.6 0.25 -2.3 0.5 -2.05 0.8 -2.05 1.2 L-2.05 1.25 M-3.3 -0.85 Q-3.7 -0.85 -3.95 -1.15 -4.25 -1.4 -4.25 -1.8 L-3.95 -2.5 -3.3 -2.75 -2.6 -2.5 -2.35 -1.8 Q-2.35 -1.4 -2.6 -1.15 -2.9 -0.85 -3.3 -0.85 M0.6 0.85 Q1.0 0.85 1.3 1.1 L1.4 1.25 1.55 1.8 1.3 2.45 Q1.0 2.75 0.6 2.75 0.2 2.75 -0.05 2.45 L-0.35 1.8 -0.15 1.25 -0.05 1.1 Q0.2 0.85 0.6 0.85 M0.65 -0.9 L0.4 -0.25 Q0.1 0.05 -0.3 0.05 -0.7 0.05 -0.95 -0.25 L-1.25 -0.9 -0.95 -1.6 -0.3 -1.85 0.4 -1.6 0.65 -0.9 M4.0 -1.3 L4.25 -0.6 4.0 0.05 Q3.7 0.35 3.3 0.35 2.9 0.35 2.65 0.05 2.35 -0.2 2.35 -0.6 2.35 -1.0 2.65 -1.3 L3.3 -1.55 4.0 -1.3" fill="#000000" fill-opacity="0.5019608" fill-rule="evenodd" stroke="none"/>
    </g>
    <g id="shape5" transform="matrix(1.0, 0.0, 0.0, 1.0, -13.65, -6.25)">
      <path d="M16.6 7.55 Q15.6 6.75 14.55 7.55" fill="none" stroke="#000000" stroke-linecap="round" stroke-linejoin="round" stroke-width="1.8"/>
    </g>
    <g id="sprite4" transform="matrix(1.0, 0.0, 0.0, 1.0, 24.8, 20.25)">
      <use ffdec:characterId="132" height="37.5" id="mc100" transform="matrix(1.0, 0.0, 0.0, 1.0, -23.9, -19.35)" width="49.45" xlink:href="#sprite5"/>
      <use ffdec:characterId="133" height="39.3" transform="matrix(1.0, 0.0, 0.0, 1.0, -24.8, -20.25)" width="51.25" xlink:href="#shape7"/>
    </g>
    <g id="sprite5" transform="matrix(1.0, 0.0, 0.0, 1.0, 24.7, 18.75)">
      <use ffdec:characterId="131" height="37.5" transform="matrix(1.0, 0.0, 0.0, 1.0, -24.7, -18.75)" width="49.45" xlink:href="#shape6"/>
    </g>
    <g id="shape6" transform="matrix(1.0, 0.0, 0.0, 1.0, 24.7, 18.75)">
      <path d="M-22.5 -10.65 Q-14.35 -18.75 -2.9 -18.75 8.5 -18.75 16.6 -10.65 24.75 -2.55 24.75 8.9 24.75 12.75 23.25 18.75 4.15 16.6 -4.6 10.0 -11.65 3.5 -11.2 1.95 L-15.8 5.25 Q-14.15 -4.85 -24.7 -8.2 L-22.5 -10.65" fill="#cc5806" fill-rule="evenodd" stroke="none"/>
    </g>
    <g id="shape7" transform="matrix(1.0, 0.0, 0.0, 1.0, 24.8, 20.25)">
      <path d="M-2.1 -19.35 Q9.3 -19.35 17.4 -11.25 25.55 -3.15 25.55 8.3 25.55 12.15 24.05 18.15 4.95 16.0 -3.8 9.4 -10.85 2.9 -10.4 1.35 L-15.0 4.65 Q-13.35 -5.45 -23.9 -8.8 L-21.7 -11.25 Q-13.55 -19.35 -2.1 -19.35 M-9.8 0.9 L-10.4 1.35" fill="none" stroke="#000000" stroke-linecap="round" stroke-linejoin="round" stroke-width="1.8"/>
    </g>
    <g id="sprite6" transform="matrix(1.0, 0.0, 0.0, 1.0, 10.4, 11.25)">
      <use ffdec:characterId="135" height="23.95" transform="matrix(1.0, 0.0, 0.0, 1.0, -10.4, -11.25)" width="20.85" xlink:href="#shape8"/>
    </g>
    <g id="shape8" transform="matrix(1.0, 0.0, 0.0, 1.0, 10.4, 11.25)">
      <path d="M-4.45 11.7 L-4.9 11.65 -5.15 11.55 -6.8 10.95 Q-5.85 9.65 -5.35 8.3 -4.1 5.05 -4.1 0.4 -4.1 -4.25 -5.35 -7.55 L-6.4 -9.6 -5.6 -10.4 -5.4 -10.5 -5.35 -10.5 Q-3.6 -10.5 -2.35 -7.25 -1.75 -5.65 -1.4 -3.7 L-1.1 0.45 -1.1 -2.2 9.7 -2.2 9.7 3.35 -1.1 3.35 -1.1 0.7 -1.4 4.85 Q-1.7 6.9 -2.35 8.6 -3.25 11.0 -4.45 11.7 M-1.1 0.45 L-1.1 0.7 -1.1 0.45" fill="#000000" fill-rule="evenodd" stroke="none"/>
      <path d="M-4.45 11.7 L-5.35 11.95 Q-7.15 11.9 -8.4 8.6 -9.65 5.35 -9.65 0.7 -9.65 -3.95 -8.4 -7.25 -7.3 -10.1 -5.8 -10.45 L-5.4 -10.5 -5.6 -10.4 -6.4 -9.6 -5.35 -7.55 Q-4.1 -4.25 -4.1 0.4 -4.1 5.05 -5.35 8.3 -5.85 9.65 -6.8 10.95 L-5.15 11.55 -4.9 11.65 -4.45 11.7" fill="#ffffff" fill-rule="evenodd" stroke="none"/>
      <path d="M-5.4 -10.5 L-5.8 -10.45 Q-7.3 -10.1 -8.4 -7.25 -9.65 -3.95 -9.65 0.7 -9.65 5.35 -8.4 8.6 -7.15 11.9 -5.35 11.95 L-4.45 11.7 Q-3.25 11.0 -2.35 8.6 -1.7 6.9 -1.4 4.85 L-1.1 0.7 -1.1 0.45 -1.4 -3.7 Q-1.75 -5.65 -2.35 -7.25 -3.6 -10.5 -5.35 -10.5 L-5.4 -10.5 M-1.1 -2.2 L9.7 -2.2 9.7 3.35 -1.1 3.35" fill="none" stroke="#000000" stroke-linecap="round" stroke-linejoin="round" stroke-width="1.5"/>
    </g>
  </defs>
</svg>
