<?xml version="1.0" encoding="UTF-8" standalone="no"?>
<svg xmlns:ffdec="https://www.free-decompiler.com/flash" xmlns:xlink="http://www.w3.org/1999/xlink" ffdec:objectType="frame" height="164.6px" width="154.35px" xmlns="http://www.w3.org/2000/svg">
  <g transform="matrix(1.0, 0.0, 0.0, 1.0, 69.3, 159.6)">
    <use ffdec:characterId="272" height="18.85" id="mc421010" transform="matrix(0.9946, 0.101, -0.101, 0.9946, -9.1134, -18.3483)" width="10.9" xlink:href="#sprite0"/>
    <use ffdec:characterId="272" height="18.85" id="mc391010" transform="matrix(0.9946, 0.101, -0.101, 0.9946, 1.8866, -18.1483)" width="10.9" xlink:href="#sprite0"/>
    <use ffdec:characterId="275" height="20.35" id="mc361010" transform="matrix(0.8412, 0.5269, -0.5269, 0.8412, -17.1611, -34.3892)" width="13.05" xlink:href="#sprite2"/>
    <use ffdec:characterId="279" height="11.25" id="mc351010" transform="matrix(1.0, 0.0, 0.0, 1.0, -18.7, -17.55)" width="37.6" xlink:href="#sprite5"/>
    <use ffdec:characterId="277" height="18.8" id="mc331010" transform="matrix(-1.0, 0.0, 0.0, 1.0, 13.3, -32.7)" width="25.85" xlink:href="#sprite7"/>
    <use ffdec:characterId="324" height="20.95" id="mc321010" transform="matrix(1.0, 0.0, 0.0, 1.0, -14.45, -32.0)" width="10.0" xlink:href="#sprite9"/>
    <use ffdec:characterId="281" height="22.3" id="mc301010" transform="matrix(1.0, 0.0, 0.0, 1.0, -13.15, -43.4)" width="26.9" xlink:href="#sprite11"/>
    <use ffdec:characterId="289" height="27.0" id="mc261010" transform="matrix(1.0, 0.0, 0.0, 1.0, -38.25, -50.55)" width="23.95" xlink:href="#sprite13"/>
    <use ffdec:characterId="287" height="27.9" id="mc251010" transform="matrix(1.0, 0.0, 0.0, 1.0, -18.8, -50.65)" width="6.1" xlink:href="#sprite15"/>
    <use ffdec:characterId="328" height="32.5" id="mc241010" transform="matrix(1.0, 0.0, 0.0, 1.0, -25.4, -60.15)" width="52.1" xlink:href="#sprite17"/>
    <use ffdec:characterId="490" height="13.65" transform="matrix(1.0, 0.0, 0.0, 1.0, -46.4, -24.55)" width="29.7" xlink:href="#shape19"/>
    <use ffdec:characterId="482" height="10.95" id="mc221010" transform="matrix(0.7865, -0.6108, 0.6108, 0.7865, -29.3425, -20.2332)" width="11.05" xlink:href="#sprite19"/>
    <use ffdec:characterId="491" height="6.95" transform="matrix(1.0, 0.0, 0.0, 1.0, -12.95, -37.0)" width="9.6" xlink:href="#shape22"/>
    <use ffdec:characterId="275" height="20.35" id="mc171010" transform="matrix(-0.7035, -0.6878, -0.6878, 0.7035, 20.8889, -23.085)" width="13.05" xlink:href="#sprite2"/>
    <use ffdec:characterId="332" height="40.1" id="mc161010" transform="matrix(1.0, 0.0, 0.0, 1.0, -29.15, -83.6)" width="55.55" xlink:href="#sprite21"/>
    <use ffdec:characterId="492" height="6.95" transform="matrix(1.0, 0.0, 0.0, 1.0, -20.6, -45.45)" width="30.95" xlink:href="#shape25"/>
    <use ffdec:characterId="310" height="29.05" id="mc131010" transform="matrix(-1.0, 0.0, 0.0, 1.0, 42.3, -47.6)" width="23.95" xlink:href="#sprite23"/>
    <use ffdec:characterId="307" height="27.9" id="mc121010" transform="matrix(-1.0, 0.0, 0.0, 1.0, 21.8, -47.15)" width="5.7" xlink:href="#sprite25"/>
    <use ffdec:characterId="337" height="63.7" id="hide_hat" transform="matrix(1.0, 0.0, 0.0, 1.0, -44.4, -112.1)" width="88.85" xlink:href="#sprite27"/>
    <use ffdec:characterId="477" height="0.0" id="hat" transform="matrix(1.0, 0.0, 0.0, 1.0, -37.5, -145.35)" width="0.0" xlink:href="#sprite31"/>
    <use ffdec:characterId="489" height="32.3" id="mc01010" transform="matrix(-0.8685, 0.4531, -0.4531, -0.8685, 40.5164, -36.7682)" width="30.95" xlink:href="#sprite32"/>
  </g>
  <defs>
    <g id="sprite0" transform="matrix(1.0, 0.0, 0.0, 1.0, 4.95, 9.5)">
      <use ffdec:characterId="271" height="3.3" id="mc100" transform="matrix(1.0, 0.0, 0.0, 1.0, -3.65, 3.05)" width="8.7" xlink:href="#sprite1"/>
      <use ffdec:characterId="102" height="18.85" transform="matrix(1.0, 0.0, 0.0, 1.0, -4.95, -9.5)" width="10.9" xlink:href="#shape1"/>
    </g>
    <g id="sprite1" transform="matrix(1.0, 0.0, 0.0, 1.0, 4.35, 1.65)">
      <use ffdec:characterId="1" height="3.3" transform="matrix(1.0, 0.0, 0.0, 1.0, -4.35, -1.65)" width="8.7" xlink:href="#shape0"/>
    </g>
    <g id="shape0" transform="matrix(1.0, 0.0, 0.0, 1.0, 4.35, 1.65)">
      <path d="M-4.35 -0.85 L4.0 -1.65 4.35 0.75 -4.2 1.65 -4.35 -0.85" fill="#00ffff" fill-rule="evenodd" stroke="none"/>
    </g>
    <g id="shape1" transform="matrix(1.0, 0.0, 0.0, 1.0, 4.95, 9.5)">
      <path d="M-3.65 3.85 L-4.05 -6.3 Q-4.1 -7.15 -3.15 -7.75 -2.1 -8.4 -0.55 -8.55 L2.1 -8.25 Q3.15 -7.75 3.3 -7.0 L3.35 -6.85 3.35 -6.65 4.7 3.05 -3.65 3.85 M5.05 5.55 L5.05 5.7 Q5.15 6.65 3.9 7.45 2.7 8.25 0.95 8.4 -0.8 8.55 -2.15 7.95 -3.45 7.45 -3.55 6.5 L-3.55 6.35 -3.5 6.35 4.7 5.5 5.05 5.55" fill="#000000" fill-rule="evenodd" stroke="none"/>
      <path d="M-3.65 3.85 L-4.05 -6.3 Q-4.1 -7.15 -3.15 -7.75 -2.1 -8.4 -0.55 -8.55 L2.1 -8.25 Q3.15 -7.75 3.3 -7.0 L3.35 -6.85 3.35 -6.65 4.7 3.05 5.05 5.45 5.05 5.55 5.05 5.7 Q5.15 6.65 3.9 7.45 2.7 8.25 0.95 8.4 -0.8 8.55 -2.15 7.95 -3.45 7.45 -3.55 6.5 L-3.55 6.35 -3.55 6.1 -3.65 3.85 4.7 3.05 M-3.55 6.35 L-3.5 6.35 4.7 5.5" fill="none" stroke="#000000" stroke-linecap="round" stroke-linejoin="round" stroke-width="1.8"/>
    </g>
    <g id="sprite2" transform="matrix(1.0, 0.0, 0.0, 1.0, 6.55, 10.15)">
      <use ffdec:characterId="273" height="4.9" id="mc200" transform="matrix(1.0, 0.0, 0.0, 1.0, -5.65, 4.4)" width="6.65" xlink:href="#sprite3"/>
      <use ffdec:characterId="274" height="13.2" id="mc100" transform="matrix(1.0, 0.0, 0.0, 1.0, -5.35, -5.05)" width="10.15" xlink:href="#sprite4"/>
      <use ffdec:characterId="64" height="20.35" transform="matrix(1.0, 0.0, 0.0, 1.0, -6.55, -10.15)" width="13.05" xlink:href="#shape4"/>
    </g>
    <g id="sprite3" transform="matrix(1.0, 0.0, 0.0, 1.0, 3.35, 2.45)">
      <use ffdec:characterId="5" height="4.9" transform="matrix(1.0, 0.0, 0.0, 1.0, -3.35, -2.45)" width="6.65" xlink:href="#shape2"/>
    </g>
    <g id="shape2" transform="matrix(1.0, 0.0, 0.0, 1.0, 3.35, 2.45)">
      <path d="M-3.05 -2.45 L-2.8 -2.35 3.3 1.3 3.2 1.4 2.15 2.15 Q0.6 2.75 -0.9 2.15 -2.5 1.45 -3.1 -0.05 -3.55 -1.15 -3.1 -2.4 L-3.05 -2.45" fill="#ffcc66" fill-rule="evenodd" stroke="none"/>
    </g>
    <g id="sprite4" transform="matrix(1.0, 0.0, 0.0, 1.0, 5.1, 6.6)">
      <use ffdec:characterId="7" height="13.2" transform="matrix(1.0, 0.0, 0.0, 1.0, -5.1, -6.6)" width="10.15" xlink:href="#shape3"/>
    </g>
    <g id="shape3" transform="matrix(1.0, 0.0, 0.0, 1.0, 5.1, 6.6)">
      <path d="M-4.85 2.95 L-5.1 2.85 -4.85 2.2 -4.1 0.7 -3.7 0.9 2.25 4.7 2.1 5.05 1.25 6.6 -4.85 2.95 M5.05 -4.25 L4.1 -0.95 3.75 0.15 -2.25 -2.9 -1.95 -3.5 -0.2 -6.6 5.05 -4.25" fill="#00ff00" fill-rule="evenodd" stroke="none"/>
    </g>
    <g id="shape4" transform="matrix(1.0, 0.0, 0.0, 1.0, 6.55, 10.15)">
      <path d="M-0.45 -5.05 Q1.4 -8.35 2.2 -8.8 3.05 -9.35 3.85 -9.2 L4.3 -9.1 Q5.3 -8.65 5.55 -7.4 5.75 -6.5 4.8 -2.7 L-0.45 -5.05 M3.5 1.7 L2.0 6.25 -3.95 2.45 -4.35 2.25 -2.5 -1.35 3.5 1.7" fill="#ffffff" fill-rule="evenodd" stroke="none"/>
      <path d="M4.8 -2.7 Q5.75 -6.5 5.55 -7.4 5.3 -8.65 4.3 -9.1 L3.85 -9.2 Q3.05 -9.35 2.2 -8.8 1.4 -8.35 -0.45 -5.05 L-2.2 -1.95 -2.5 -1.35 -4.35 2.25 -5.1 3.75 -5.35 4.4 -5.4 4.45 Q-5.85 5.7 -5.4 6.8 -4.8 8.3 -3.2 9.0 -1.7 9.6 -0.15 9.0 L0.9 8.25 1.0 8.15 1.85 6.6 2.0 6.25 3.5 1.7 3.85 0.6 4.8 -2.7" fill="none" stroke="#000000" stroke-linecap="round" stroke-linejoin="round" stroke-width="1.8"/>
      <path d="M-0.45 -5.05 L4.8 -2.7 M-5.1 4.5 L0.7 7.95 M-2.5 -1.35 L3.5 1.7 M2.0 6.25 L-3.95 2.45" fill="none" stroke="#000000" stroke-linecap="round" stroke-linejoin="round" stroke-width="1.5"/>
    </g>
    <g id="sprite5" transform="matrix(1.0, 0.0, 0.0, 1.0, 0.75, 0.75)">
      <use ffdec:characterId="278" height="9.75" id="mc100" transform="matrix(1.0, 0.0, 0.0, 1.0, 0.0, 0.0)" width="36.1" xlink:href="#sprite6"/>
      <use ffdec:characterId="225" height="11.25" transform="matrix(1.0, 0.0, 0.0, 1.0, -0.75, -0.75)" width="37.6" xlink:href="#shape6"/>
    </g>
    <g id="sprite6" transform="matrix(1.0, 0.0, 0.0, 1.0, 18.05, 4.85)">
      <use ffdec:characterId="11" height="9.75" transform="matrix(1.0, 0.0, 0.0, 1.0, -18.05, -4.85)" width="36.1" xlink:href="#shape5"/>
    </g>
    <g id="shape5" transform="matrix(1.0, 0.0, 0.0, 1.0, 18.05, 4.85)">
      <path d="M11.55 -4.75 L18.05 0.55 14.55 4.7 11.45 1.8 8.7 4.65 6.2 1.5 3.35 4.45 -0.25 1.4 -4.05 4.9 -7.4 2.3 -9.95 4.8 -12.95 1.5 -15.7 4.25 -18.05 0.2 -11.2 -4.85 11.55 -4.75" fill="#996666" fill-rule="evenodd" stroke="none"/>
    </g>
    <g id="shape6" transform="matrix(1.0, 0.0, 0.0, 1.0, 0.75, 0.75)">
      <path d="M35.95 5.6 L32.6 9.55 29.5 6.65 26.75 9.5 24.25 6.35 21.4 9.3 21.05 9.0 17.8 6.25 14.0 9.75 10.65 7.15 8.1 9.65 5.1 6.35 2.35 9.1 0.0 5.05 6.85 0.0 29.6 0.1 36.1 5.4 M22.9 4.7 L24.25 6.35 M29.5 6.65 L26.9 4.2 M15.8 4.4 L14.0 9.75 M10.65 7.15 L12.75 5.05 M7.05 4.35 L5.1 6.35 M21.05 9.0 L20.05 5.0" fill="none" stroke="#000000" stroke-linecap="round" stroke-linejoin="round" stroke-width="1.5"/>
    </g>
    <g id="sprite7" transform="matrix(1.0, 0.0, 0.0, 1.0, 0.75, 0.75)">
      <use ffdec:characterId="276" height="14.75" id="mc100" transform="matrix(1.0, 0.0, 0.0, 1.0, 0.0, 2.55)" width="24.35" xlink:href="#sprite8"/>
      <use ffdec:characterId="67" height="18.8" transform="matrix(1.0, 0.0, 0.0, 1.0, -0.75, -0.75)" width="25.85" xlink:href="#shape8"/>
    </g>
    <g id="sprite8" transform="matrix(1.0, 0.0, 0.0, 1.0, 12.15, 7.35)">
      <use ffdec:characterId="15" height="14.75" transform="matrix(1.0, 0.0, 0.0, 1.0, -12.15, -7.35)" width="24.35" xlink:href="#shape7"/>
    </g>
    <g id="shape7" transform="matrix(1.0, 0.0, 0.0, 1.0, 12.15, 7.35)">
      <path d="M12.15 -5.15 L12.15 -4.6 -12.1 -4.6 -12.05 -5.15 -11.95 -7.35 12.05 -7.35 12.15 -5.15 M11.85 7.4 L-11.75 7.4 -11.95 4.65 12.05 4.65 11.85 7.4 M12.2 1.25 L-12.1 1.35 -12.15 -1.8 12.2 -1.85 12.2 1.25" fill="#00ff00" fill-rule="evenodd" stroke="none"/>
    </g>
    <g id="shape8" transform="matrix(1.0, 0.0, 0.0, 1.0, 0.75, 0.75)">
      <path d="M24.2 14.55 L0.2 14.55 0.05 11.25 24.35 11.15 24.2 14.55 M0.0 8.1 L0.05 5.3 24.3 5.3 24.35 8.05 0.0 8.1 M0.2 2.55 L0.4 0.0 24.0 0.0 24.2 2.55 0.2 2.55" fill="#ffffff" fill-rule="evenodd" stroke="none"/>
      <path d="M0.2 14.55 L0.4 17.3 24.0 17.3 24.2 14.55 0.2 14.55 0.05 11.25 0.0 8.1 0.05 5.3 0.1 4.75 0.2 2.55 0.4 0.0 24.0 0.0 24.2 2.55 24.3 4.75 24.3 5.3 24.35 8.05 24.35 11.15 24.2 14.55 M24.35 11.15 L0.05 11.25 M24.2 2.55 L0.2 2.55 M24.3 5.3 L0.05 5.3 M0.0 8.1 L24.35 8.05" fill="none" stroke="#000000" stroke-linecap="round" stroke-linejoin="round" stroke-width="1.5"/>
    </g>
    <g id="sprite9" transform="matrix(1.0, 0.0, 0.0, 1.0, 0.75, 0.75)">
      <use ffdec:characterId="323" height="19.45" id="mc100" transform="matrix(1.0, 0.0, 0.0, 1.0, 1.65, 0.0)" width="6.75" xlink:href="#sprite10"/>
      <use ffdec:characterId="116" height="20.95" transform="matrix(1.0, 0.0, 0.0, 1.0, -0.75, -0.75)" width="10.0" xlink:href="#shape10"/>
    </g>
    <g id="sprite10" transform="matrix(1.0, 0.0, 0.0, 1.0, 3.35, 9.7)">
      <use ffdec:characterId="19" height="19.45" transform="matrix(1.0, 0.0, 0.0, 1.0, -3.35, -9.7)" width="6.75" xlink:href="#shape9"/>
    </g>
    <g id="shape9" transform="matrix(1.0, 0.0, 0.0, 1.0, 3.35, 9.7)">
      <path d="M3.05 0.15 L2.9 4.95 0.45 4.7 0.95 9.15 0.95 9.75 0.9 9.75 -2.55 9.3 -1.9 4.45 -3.35 4.3 -3.2 -0.6 3.05 0.15 M3.35 -6.95 L3.25 -4.2 -3.05 -4.95 -2.9 -9.4 -2.75 -9.7 3.4 -7.2 3.35 -6.95" fill="#00ffff" fill-rule="evenodd" stroke="none"/>
    </g>
    <g id="shape10" transform="matrix(1.0, 0.0, 0.0, 1.0, 0.75, 0.75)">
      <path d="M1.95 4.75 L8.25 5.5 8.05 9.85 1.8 9.1 1.95 4.75 M7.9 14.65 L7.85 14.95 Q8.45 16.8 8.5 19.2 L6.0 19.45 5.95 19.45 5.95 18.85 5.45 14.4 7.4 14.6 7.9 14.65 M2.45 19.0 L0.0 18.3 Q0.15 16.25 1.6 14.4 L1.65 14.0 3.1 14.15 2.45 19.0" fill="#ffffff" fill-rule="evenodd" stroke="none"/>
      <path d="M2.1 0.3 L1.95 4.75 8.25 5.5 8.35 2.75 M8.4 2.5 L2.25 0.0 M1.95 4.75 L1.8 9.1 8.05 9.85 8.25 5.5 M5.95 19.45 L6.0 19.45 8.5 19.2 Q8.45 16.8 7.85 14.95 L7.9 14.65 8.05 9.85 M7.4 14.6 L5.45 14.4 5.95 18.85 M5.95 19.45 L5.9 19.45 2.45 19.0 0.0 18.3 Q0.15 16.25 1.6 14.4 L1.65 14.0 1.8 9.1 M2.45 19.0 L3.1 14.15 1.65 14.0 M5.45 14.4 L3.1 14.15" fill="none" stroke="#000000" stroke-linecap="round" stroke-linejoin="round" stroke-width="1.5"/>
    </g>
    <g id="sprite11" transform="matrix(1.0, 0.0, 0.0, 1.0, 0.9, 0.9)">
      <use ffdec:characterId="280" height="20.5" id="mc100" transform="matrix(1.0, 0.0, 0.0, 1.0, 0.0, 0.0)" width="25.1" xlink:href="#sprite12"/>
      <use ffdec:characterId="70" height="22.3" transform="matrix(1.0, 0.0, 0.0, 1.0, -0.9, -0.9)" width="26.9" xlink:href="#shape12"/>
    </g>
    <g id="sprite12" transform="matrix(1.0, 0.0, 0.0, 1.0, 12.55, 10.25)">
      <use ffdec:characterId="23" height="20.5" transform="matrix(1.0, 0.0, 0.0, 1.0, -12.55, -10.25)" width="25.1" xlink:href="#shape11"/>
    </g>
    <g id="shape11" transform="matrix(1.0, 0.0, 0.0, 1.0, 12.55, 10.25)">
      <path d="M3.3 -9.9 Q2.3 0.0 3.35 9.9 L0.0 10.25 -3.55 9.9 -3.2 -9.9 0.0 -10.25 3.3 -9.9 M9.75 6.5 Q8.6 0.05 9.65 -6.55 12.55 -3.75 12.55 0.0 12.55 3.7 9.75 6.5 M-8.7 -6.95 Q-9.65 0.35 -8.8 7.25 L-8.9 7.25 Q-12.55 4.25 -12.55 0.0 -12.55 -4.2 -8.95 -7.2 L-8.7 -6.95" fill="#00ffff" fill-rule="evenodd" stroke="none"/>
    </g>
    <g id="shape12" transform="matrix(1.0, 0.0, 0.0, 1.0, 0.9, 0.9)">
      <path d="M15.85 0.35 Q18.95 1.0 21.4 3.0 L21.95 3.5 22.2 3.7 Q21.15 10.3 22.3 16.75 L21.4 17.5 Q19.0 19.5 15.9 20.15 14.85 10.25 15.85 0.35 M9.0 20.15 Q6.05 19.45 3.75 17.55 L3.75 17.5 Q2.9 10.6 3.85 3.3 L3.65 3.0 Q6.15 1.0 9.35 0.35 L9.0 20.15" fill="#ffffff" fill-rule="evenodd" stroke="none"/>
      <path d="M15.85 0.35 Q18.95 1.0 21.4 3.0 L21.95 3.5 22.2 3.7 Q25.1 6.5 25.1 10.25 25.1 13.95 22.3 16.75 L21.4 17.5 Q19.0 19.5 15.9 20.15 L12.55 20.5 9.0 20.15 Q6.05 19.45 3.75 17.55 L3.65 17.5 Q0.0 14.5 0.0 10.25 0.0 6.05 3.6 3.05 L3.65 3.0 Q6.15 1.0 9.35 0.35 L12.55 0.0 15.85 0.35 Q14.85 10.25 15.9 20.15 M22.2 3.7 Q21.15 10.3 22.3 16.75 M3.75 17.55 L3.75 17.5 Q2.9 10.6 3.85 3.3 M9.35 0.35 L9.0 20.15" fill="none" stroke="#000000" stroke-linecap="round" stroke-linejoin="round" stroke-width="1.8"/>
    </g>
    <g id="sprite13" transform="matrix(1.0, 0.0, 0.0, 1.0, 0.9, 0.9)">
      <use ffdec:characterId="288" height="25.2" id="mc100" transform="matrix(1.0, 0.0, 0.0, 1.0, 0.0, 0.0)" width="22.15" xlink:href="#sprite14"/>
      <use ffdec:characterId="76" height="27.0" transform="matrix(1.0, 0.0, 0.0, 1.0, -0.9, -0.9)" width="23.95" xlink:href="#shape14"/>
    </g>
    <g id="sprite14" transform="matrix(1.0, 0.0, 0.0, 1.0, 11.05, 12.6)">
      <use ffdec:characterId="31" height="25.2" transform="matrix(1.0, 0.0, 0.0, 1.0, -11.05, -12.6)" width="22.15" xlink:href="#shape13"/>
    </g>
    <g id="shape13" transform="matrix(1.0, 0.0, 0.0, 1.0, 11.05, 12.6)">
      <path d="M11.1 -11.1 L11.05 -11.0 Q6.65 0.2 4.55 12.6 1.4 12.55 -1.2 11.5 -5.15 9.95 -7.95 6.3 -9.7 3.95 -11.0 0.75 L-11.05 0.6 Q-3.25 -11.3 8.75 -12.35 L8.95 -12.6 11.1 -11.1" fill="#993300" fill-rule="evenodd" stroke="none"/>
    </g>
    <g id="shape14" transform="matrix(1.0, 0.0, 0.0, 1.0, 0.9, 0.9)">
      <path d="M20.0 0.0 L22.15 1.5 22.1 1.6 Q17.7 12.8 15.6 25.2 12.45 25.15 9.85 24.1 5.9 22.55 3.1 18.9 1.35 16.55 0.05 13.35 L0.0 13.2 Q7.8 1.3 19.8 0.25 M3.1 18.9 Q7.85 8.9 15.9 3.05 M9.85 24.1 Q12.35 13.75 18.25 4.0" fill="none" stroke="#000000" stroke-linecap="round" stroke-linejoin="round" stroke-width="1.8"/>
    </g>
    <g id="sprite15" transform="matrix(1.0, 0.0, 0.0, 1.0, 0.9, 0.9)">
      <use ffdec:characterId="286" height="26.1" id="mc100" transform="matrix(1.0, 0.0, 0.0, 1.0, 0.0, 0.0)" width="4.3" xlink:href="#sprite16"/>
      <use ffdec:characterId="73" height="27.9" transform="matrix(1.0, 0.0, 0.0, 1.0, -0.9, -0.9)" width="6.1" xlink:href="#shape16"/>
    </g>
    <g id="sprite16" transform="matrix(1.0, 0.0, 0.0, 1.0, 2.15, 13.05)">
      <use ffdec:characterId="27" height="26.1" transform="matrix(1.0, 0.0, 0.0, 1.0, -2.15, -13.05)" width="4.3" xlink:href="#shape15"/>
    </g>
    <g id="shape15" transform="matrix(1.0, 0.0, 0.0, 1.0, 2.15, 13.05)">
      <path d="M1.95 -7.15 Q2.2 4.15 -2.15 13.05 L-1.85 -12.9 -1.6 -13.05 2.15 -7.45 1.95 -7.15" fill="#993300" fill-rule="evenodd" stroke="none"/>
    </g>
    <g id="shape16" transform="matrix(1.0, 0.0, 0.0, 1.0, 0.9, 0.9)">
      <path d="M4.1 5.9 Q4.35 17.2 0.0 26.1 L0.3 0.15 M0.55 0.0 L4.3 5.6" fill="none" stroke="#000000" stroke-linecap="round" stroke-linejoin="round" stroke-width="1.8"/>
    </g>
    <g id="sprite17" transform="matrix(1.0, 0.0, 0.0, 1.0, 0.9, 0.9)">
      <use ffdec:characterId="326" height="30.7" id="mc100" transform="matrix(1.0, 0.0, 0.0, 1.0, 0.0, 0.0)" width="50.3" xlink:href="#sprite18"/>
      <use ffdec:characterId="327" height="32.5" transform="matrix(1.0, 0.0, 0.0, 1.0, -0.9, -0.9)" width="52.1" xlink:href="#shape18"/>
    </g>
    <g id="sprite18" transform="matrix(1.0, 0.0, 0.0, 1.0, 26.6, 15.35)">
      <use ffdec:characterId="325" height="30.7" transform="matrix(1.0, 0.0, 0.0, 1.0, -26.6, -15.35)" width="50.3" xlink:href="#shape17"/>
    </g>
    <g id="shape17" transform="matrix(1.0, 0.0, 0.0, 1.0, 26.6, 15.35)">
      <path d="M23.2 0.55 Q14.15 12.3 -0.05 14.75 L-0.4 14.95 Q-13.85 17.15 -23.1 7.6 -23.6 5.55 -22.55 3.5 -25.55 -5.25 -26.6 -15.35 L23.2 -13.35 23.7 0.1 23.2 0.55" fill="#ffcc66" fill-rule="evenodd" stroke="none"/>
    </g>
    <g id="shape18" transform="matrix(1.0, 0.0, 0.0, 1.0, 0.9, 0.9)">
      <path d="M49.8 15.9 Q40.75 27.65 26.55 30.1 L26.2 30.3 Q12.75 32.5 3.5 22.95 3.0 20.9 4.05 18.85 1.05 10.1 0.0 0.0 L50.0 1.95 50.3 15.45" fill="none" stroke="#000000" stroke-linecap="round" stroke-linejoin="round" stroke-width="1.8"/>
    </g>
    <g id="shape19" transform="matrix(1.0, 0.0, 0.0, 1.0, 47.0, 24.55)">
      <path d="M-34.55 -16.65 Q-34.05 -15.8 -34.6 -15.2 -35.35 -14.2 -36.9 -14.4 L-38.4 -14.75 -39.25 -13.25 Q-40.3 -11.7 -41.3 -11.65 -42.45 -11.55 -42.65 -13.45 L-42.6 -15.4 -44.35 -15.55 Q-46.1 -16.0 -46.25 -17.0 -46.45 -17.95 -44.85 -18.85 L-43.25 -19.65 Q-43.55 -23.0 -42.55 -23.75 -41.85 -24.1 -40.55 -22.8 L-39.2 -21.4 Q-38.65 -21.8 -37.75 -22.0 L-35.45 -22.25 Q-34.35 -21.75 -35.05 -20.5 L-35.45 -19.95 -36.45 -18.55 -35.1 -17.35 -34.55 -16.7 -34.55 -16.65" fill="#ffcc00" fill-rule="evenodd" stroke="none"/>
      <path d="M-34.55 -16.65 L-34.55 -16.7 -35.1 -17.35 -36.45 -18.55 -35.45 -19.95 -18.15 -20.55 -18.05 -17.2 -34.55 -16.65" fill="#ff9900" fill-rule="evenodd" stroke="none"/>
      <path d="M-35.45 -19.95 L-35.05 -20.5 Q-34.35 -21.75 -35.45 -22.25 L-37.75 -22.0 Q-38.65 -21.8 -39.2 -21.4 L-40.55 -22.8 Q-41.85 -24.1 -42.55 -23.75 -43.55 -23.0 -43.25 -19.65 L-44.85 -18.85 Q-46.45 -17.95 -46.25 -17.0 -46.1 -16.0 -44.35 -15.55 L-42.6 -15.4 -42.65 -13.45 Q-42.45 -11.55 -41.3 -11.65 -40.3 -11.7 -39.25 -13.25 L-38.4 -14.75 -36.9 -14.4 Q-35.35 -14.2 -34.6 -15.2 -34.05 -15.8 -34.55 -16.65 L-34.55 -16.7 -35.1 -17.35 -36.45 -18.55 -35.45 -19.95 -18.15 -20.55 -18.05 -17.2 -34.55 -16.65" fill="none" stroke="#000000" stroke-linecap="round" stroke-linejoin="round" stroke-width="1.5"/>
    </g>
    <g id="sprite19" transform="matrix(1.0, 0.0, 0.0, 1.0, 2.75, 2.75)">
      <use ffdec:characterId="480" height="9.45" id="mc100" transform="matrix(1.0, 0.0, 0.0, 1.0, -2.0, -2.0)" width="9.55" xlink:href="#sprite20"/>
      <use ffdec:characterId="481" height="10.95" transform="matrix(1.0, 0.0, 0.0, 1.0, -2.75, -2.75)" width="11.05" xlink:href="#shape21"/>
    </g>
    <g id="sprite20" transform="matrix(1.0, 0.0, 0.0, 1.0, 4.75, 4.7)">
      <use ffdec:characterId="479" height="9.45" transform="matrix(1.0, 0.0, 0.0, 1.0, -4.75, -4.7)" width="9.55" xlink:href="#shape20"/>
    </g>
    <g id="shape20" transform="matrix(1.0, 0.0, 0.0, 1.0, 4.75, 4.7)">
      <path d="M3.35 -3.35 Q4.8 -2.0 4.8 0.05 4.8 2.0 3.35 3.4 2.0 4.75 0.0 4.75 -1.95 4.75 -3.3 3.4 -4.75 2.0 -4.75 0.05 -4.75 -2.0 -3.3 -3.35 -1.95 -4.7 0.0 -4.7 2.0 -4.7 3.35 -3.35" fill="#ffcc66" fill-rule="evenodd" stroke="none"/>
    </g>
    <g id="shape21" transform="matrix(1.0, 0.0, 0.0, 1.0, 2.75, 2.75)">
      <path d="M6.1 -0.65 Q7.55 0.7 7.55 2.75 7.55 4.7 6.1 6.1 4.75 7.45 2.75 7.45 0.8 7.45 -0.55 6.1 -2.0 4.7 -2.0 2.75 -2.0 0.7 -0.55 -0.65 0.8 -2.0 2.75 -2.0 4.75 -2.0 6.1 -0.65 Z" fill="none" stroke="#000000" stroke-linecap="round" stroke-linejoin="round" stroke-width="1.5"/>
    </g>
    <g id="shape22" transform="matrix(1.0, 0.0, 0.0, 1.0, 0.6, 0.6)">
      <path d="M1.5 2.45 L1.4 2.2 1.6 1.85 2.05 1.3 2.55 1.1 3.0 1.0 Q3.35 0.65 3.45 0.75 4.2 1.3 5.1 1.4 L5.25 1.4 7.3 1.6 7.7 1.8 5.25 1.4 7.7 1.8 7.8 2.05 7.7 2.5 7.85 2.95 7.55 3.75 6.85 4.35 6.15 5.0 5.0 5.45 4.5 5.55 Q3.9 5.45 2.9 4.95 L2.0 4.2 1.7 3.25 3.05 3.25 1.7 3.25 1.5 2.45 1.6 1.85 1.5 2.45 M5.15 3.55 L7.55 3.75 5.15 3.55 M6.75 2.7 L6.55 2.7 6.7 2.8 6.75 2.7" fill="#ffffff" fill-rule="evenodd" stroke="none"/>
      <path d="M5.25 1.4 L5.0 1.3 Q4.05 0.9 3.45 0.3 L2.95 0.7 1.55 1.35 Q0.4 1.75 0.0 0.0 M7.7 1.8 L8.4 1.55 7.7 3.75 7.6 3.95 Q6.35 6.15 3.95 5.65 1.55 5.15 1.25 3.7 L1.5 2.45 1.6 1.85 M5.25 1.4 L7.7 1.8 M7.55 3.75 L7.7 3.75 M7.55 3.75 L5.15 3.55 M1.7 3.25 L3.05 3.25" fill="none" stroke="#000000" stroke-linecap="round" stroke-linejoin="round" stroke-width="1.2000000000000002"/>
    </g>
    <g id="sprite21" transform="matrix(1.0, 0.0, 0.0, 1.0, 1.05, 0.9)">
      <use ffdec:characterId="330" height="38.3" id="mc100" transform="matrix(1.0, 0.0, 0.0, 1.0, -0.15, 0.0)" width="54.0" xlink:href="#sprite22"/>
      <use ffdec:characterId="331" height="40.1" transform="matrix(1.0, 0.0, 0.0, 1.0, -1.05, -0.9)" width="55.55" xlink:href="#shape24"/>
    </g>
    <g id="sprite22" transform="matrix(1.0, 0.0, 0.0, 1.0, 29.3, 19.15)">
      <use ffdec:characterId="329" height="38.3" transform="matrix(1.0, 0.0, 0.0, 1.0, -29.3, -19.15)" width="54.0" xlink:href="#shape23"/>
    </g>
    <g id="shape23" transform="matrix(1.0, 0.0, 0.0, 1.0, 29.3, 19.15)">
      <path d="M0.6 -19.15 Q11.95 -18.05 18.1 -10.1 24.2 -2.15 24.6 4.75 25.0 11.65 23.8 16.7 17.65 18.55 8.5 19.0 L1.3 19.15 -4.6 18.9 -6.3 18.8 -9.1 18.55 -10.4 11.2 -10.85 11.2 -10.75 18.35 -13.2 18.0 -13.85 9.25 -14.3 9.2 -15.15 17.7 -22.15 16.35 -26.5 15.25 -29.3 14.4 -29.3 14.15 Q-29.15 12.6 -29.15 10.35 -29.15 -1.85 -20.55 -10.45 -12.2 -18.85 0.6 -19.15" fill="#993300" fill-rule="evenodd" stroke="none"/>
    </g>
    <g id="shape24" transform="matrix(1.0, 0.0, 0.0, 1.0, 1.05, 0.9)">
      <path d="M36.95 28.4 L37.65 38.15 Q46.8 37.7 53.25 35.95 53.95 31.1 53.3 23.7 52.6 16.25 46.8 8.15 40.95 0.05 29.75 0.0 16.95 0.3 8.6 8.7 0.0 17.3 0.0 29.5 0.0 31.75 -0.15 33.3 M3.65 25.1 L2.65 34.4 7.0 35.5 14.0 36.85 14.85 28.35 M7.05 35.2 L7.3 26.8 M15.3 28.4 L15.95 37.15 18.4 37.5 18.3 30.35 M18.75 30.35 L20.05 37.7 22.85 37.95 22.75 28.75 M22.85 37.95 L24.55 38.05 24.95 29.35 M24.55 38.05 L30.45 38.3 30.55 29.1 M30.45 38.3 L37.65 38.15 M-0.15 33.55 L2.65 34.4" fill="none" stroke="#000000" stroke-linecap="round" stroke-linejoin="round" stroke-width="1.8"/>
    </g>
    <g id="shape25" transform="matrix(1.0, 0.0, 0.0, 1.0, 20.6, 45.45)">
      <path d="M-18.35 -44.4 Q-17.45 -45.0 -16.25 -44.85 -15.05 -44.75 -13.7 -41.85 -12.95 -40.3 -12.55 -38.85 -12.85 -39.7 -13.5 -40.55 -14.75 -42.25 -16.15 -42.45 -17.5 -42.6 -18.55 -41.4 L-19.4 -40.1 -20.6 -45.45 -19.05 -43.8 -18.35 -44.4" fill="#000000" fill-rule="evenodd" stroke="none"/>
      <path d="M10.35 -42.1 L6.2 -38.5 Q5.85 -39.4 5.1 -40.3 3.55 -42.1 1.7 -42.0 -0.2 -41.9 -2.55 -40.85 L-4.6 -39.9 -1.75 -42.4 Q1.35 -44.75 2.8 -44.4 5.1 -43.9 7.1 -41.8 L10.35 -42.1" fill="#000000" fill-rule="evenodd" stroke="none"/>
    </g>
    <g id="sprite23" transform="matrix(1.0, 0.0, 0.0, 1.0, 0.9, 0.9)">
      <use ffdec:characterId="309" height="27.0" id="mc100" transform="matrix(1.0, 0.0, 0.0, 1.0, 0.0, 0.25)" width="22.15" xlink:href="#sprite24"/>
      <use ffdec:characterId="250" height="29.05" transform="matrix(1.0, 0.0, 0.0, 1.0, -0.9, -0.9)" width="23.95" xlink:href="#shape27"/>
    </g>
    <g id="sprite24" transform="matrix(1.0, 0.0, 0.0, 1.0, 11.05, 13.5)">
      <use ffdec:characterId="308" height="27.0" transform="matrix(1.0, 0.0, 0.0, 1.0, -11.05, -13.5)" width="22.15" xlink:href="#shape26"/>
    </g>
    <g id="shape26" transform="matrix(1.0, 0.0, 0.0, 1.0, 11.05, 13.5)">
      <path d="M8.75 -13.5 L9.6 -12.8 9.8 -13.15 9.85 -13.1 11.1 -12.25 11.05 -12.15 Q6.65 -0.95 7.5 12.95 L6.9 12.95 6.75 13.5 Q-4.75 11.8 -8.6 4.85 L-11.0 -0.4 -11.05 -0.55 -10.55 -1.3 -10.5 -1.35 -10.45 -1.4 Q-2.9 -12.35 8.45 -13.45 L8.75 -13.5" fill="#993300" fill-rule="evenodd" stroke="none"/>
    </g>
    <g id="shape27" transform="matrix(1.0, 0.0, 0.0, 1.0, 0.9, 0.9)">
      <path d="M18.55 26.7 Q17.7 12.8 22.1 1.6 L22.15 1.5 20.9 0.65 20.85 0.6 20.0 0.0 M19.8 0.25 L19.5 0.3 Q8.15 1.4 0.6 12.35 L0.55 12.4 0.5 12.45 0.0 13.2 0.05 13.35 2.45 18.6 Q6.3 25.55 17.8 27.25 M0.9 12.6 L3.65 14.3 Q8.35 17.4 12.55 21.2 14.6 10.75 20.15 1.75 L20.65 0.95 M3.8 14.0 Q9.3 3.85 19.75 1.5 M12.55 21.2 Q15.4 23.8 17.95 26.7" fill="none" stroke="#000000" stroke-linecap="round" stroke-linejoin="round" stroke-width="1.8"/>
    </g>
    <g id="sprite25" transform="matrix(1.0, 0.0, 0.0, 1.0, 0.9, 0.9)">
      <use ffdec:characterId="306" height="26.1" id="mc100" transform="matrix(1.0, 0.0, 0.0, 1.0, 0.0, 0.0)" width="3.95" xlink:href="#sprite26"/>
      <use ffdec:characterId="164" height="27.9" transform="matrix(1.0, 0.0, 0.0, 1.0, -0.9, -0.9)" width="5.7" xlink:href="#shape29"/>
    </g>
    <g id="sprite26" transform="matrix(1.0, 0.0, 0.0, 1.0, 1.95, 13.05)">
      <use ffdec:characterId="162" height="26.1" transform="matrix(1.0, 0.0, 0.0, 1.0, -1.95, -13.05)" width="3.95" xlink:href="#shape28"/>
    </g>
    <g id="shape28" transform="matrix(1.0, 0.0, 0.0, 1.0, 1.95, 13.05)">
      <path d="M1.95 -7.35 Q2.4 4.15 -1.95 13.05 L-1.65 -12.9 -1.4 -13.05 Q1.15 -12.0 1.9 -7.35 L1.95 -7.35" fill="#993300" fill-rule="evenodd" stroke="none"/>
    </g>
    <g id="shape29" transform="matrix(1.0, 0.0, 0.0, 1.0, 0.9, 0.9)">
      <path d="M0.55 0.0 Q3.1 1.05 3.85 5.7 4.35 17.2 0.0 26.1 L0.3 0.15" fill="none" stroke="#000000" stroke-linecap="round" stroke-linejoin="round" stroke-width="1.8"/>
    </g>
    <g id="sprite27" transform="matrix(1.0, 0.0, 0.0, 1.0, 0.9, 0.95)">
      <use ffdec:characterId="333" height="61.9" id="mc300" transform="matrix(1.0, 0.0, 0.0, 1.0, 0.0, -0.05)" width="87.05" xlink:href="#sprite28"/>
      <use ffdec:characterId="334" height="20.8" id="mc200" transform="matrix(1.0, 0.0, 0.0, 1.0, 16.65, 26.55)" width="53.85" xlink:href="#sprite29"/>
      <use ffdec:characterId="335" height="25.5" id="mc100" transform="matrix(1.0, 0.0, 0.0, 1.0, 24.5, 23.7)" width="23.15" xlink:href="#sprite30"/>
      <use ffdec:characterId="336" height="63.7" transform="matrix(1.0, 0.0, 0.0, 1.0, -0.9, -0.95)" width="88.85" xlink:href="#shape33"/>
    </g>
    <g id="sprite28" transform="matrix(1.0, 0.0, 0.0, 1.0, 43.5, 30.95)">
      <use ffdec:characterId="252" height="61.9" transform="matrix(1.0, 0.0, 0.0, 1.0, -43.5, -30.95)" width="87.05" xlink:href="#shape30"/>
    </g>
    <g id="shape30" transform="matrix(1.0, 0.0, 0.0, 1.0, 43.5, 30.95)">
      <path d="M5.15 -30.5 Q17.1 -33.55 24.2 -14.75 L24.1 -14.65 Q22.85 -13.45 21.4 -12.6 23.4 -6.65 24.8 -0.35 13.65 -3.4 2.1 -3.95 L2.0 -4.2 Q0.2 -7.75 -3.8 -7.1 L-4.0 -7.2 Q-11.05 -6.75 -14.35 -4.15 L-14.8 -3.8 -14.75 -4.2 -14.7 -4.75 -18.0 -4.5 -18.0 -4.35 -23.05 -2.85 Q-15.6 -23.05 5.15 -30.5 M-13.45 15.7 Q-7.65 19.65 1.2 17.55 L2.9 16.0 Q16.55 17.5 26.8 13.9 L27.0 14.55 Q37.35 19.65 43.55 26.55 31.0 31.7 -1.75 30.8 -33.1 30.0 -43.5 24.0 -36.75 18.9 -27.3 14.65 L-27.15 14.6 -27.05 14.55 -26.9 14.5 -26.85 14.45 -17.0 16.05 -17.0 16.2 -16.9 16.45 -14.3 15.75 -13.45 15.7" fill="#1a0000" fill-rule="evenodd" stroke="none"/>
      <path d="M-3.5 5.5 Q-3.5 6.35 -4.1 6.95 -4.7 7.55 -5.55 7.55 -6.4 7.55 -7.0 6.95 -7.6 6.35 -7.6 5.5 -7.6 4.65 -7.0 4.05 -6.4 3.45 -5.55 3.45 -4.7 3.45 -4.1 4.05 -3.5 4.65 -3.5 5.5" fill="#000000" fill-rule="evenodd" stroke="none"/>
    </g>
    <g id="sprite29" transform="matrix(1.0, 0.0, 0.0, 1.0, 26.9, 10.4)">
      <use ffdec:characterId="254" height="20.8" transform="matrix(1.0, 0.0, 0.0, 1.0, -26.9, -10.4)" width="53.85" xlink:href="#shape31"/>
    </g>
    <g id="shape31" transform="matrix(1.0, 0.0, 0.0, 1.0, 26.9, 10.4)">
      <path d="M24.75 -6.4 Q26.2 0.5 26.95 7.75 L26.75 7.85 Q16.5 11.45 2.85 9.95 L2.55 9.95 2.45 9.95 2.2 9.95 1.85 9.95 Q5.85 1.3 2.7 -8.25 L2.05 -10.0 Q13.6 -9.45 24.75 -6.4 M-14.65 -9.2 L-14.5 -8.6 Q-10.9 -9.7 -8.4 -9.65 L-8.25 -9.65 -5.95 -9.25 Q-3.1 -8.55 -2.35 -5.25 -1.8 1.0 -3.2 8.05 L-13.65 8.8 -13.65 9.2 -14.3 9.3 -14.35 8.9 Q-15.4 0.6 -14.9 -8.5 L-14.85 -9.2 -14.65 -9.2 M-18.5 -8.35 Q-20.05 0.7 -17.15 9.8 L-17.05 10.0 -26.9 8.4 Q-26.0 -1.2 -23.1 -8.9 L-18.05 -10.4 -18.5 -8.35 M-5.6 -2.6 Q-6.45 -2.6 -7.05 -2.0 -7.65 -1.4 -7.65 -0.55 -7.65 0.3 -7.05 0.9 -6.45 1.5 -5.6 1.5 -4.75 1.5 -4.15 0.9 -3.55 0.3 -3.55 -0.55 -3.55 -1.4 -4.15 -2.0 -4.75 -2.6 -5.6 -2.6" fill="#ff0000" fill-rule="evenodd" stroke="none"/>
    </g>
    <g id="sprite30" transform="matrix(1.0, 0.0, 0.0, 1.0, 11.55, 12.75)">
      <use ffdec:characterId="256" height="25.5" transform="matrix(1.0, 0.0, 0.0, 1.0, -11.55, -12.75)" width="23.15" xlink:href="#shape32"/>
    </g>
    <g id="shape32" transform="matrix(1.0, 0.0, 0.0, 1.0, 11.55, 12.75)">
      <path d="M-11.0 -7.85 L-10.55 -9.9 -10.55 -10.05 -7.25 -10.3 -7.3 -9.75 -7.35 -9.35 -7.35 -8.7 -7.4 -8.0 Q-7.9 1.1 -6.85 9.4 L-6.8 9.8 -9.55 10.65 -9.55 10.5 -9.65 10.3 Q-12.55 1.2 -11.0 -7.85 M3.65 -12.65 Q7.65 -13.3 9.45 -9.75 L9.55 -9.5 10.2 -7.75 Q13.35 1.8 9.35 10.45 L8.85 11.4 8.65 12.0 Q-0.2 14.1 -6.0 10.15 L-6.15 10.05 -6.15 9.3 4.3 8.55 Q5.7 1.5 5.15 -4.75 4.4 -8.05 1.55 -8.75 L-0.75 -9.15 -0.9 -9.15 Q-3.4 -9.2 -7.0 -8.1 L-7.35 -9.35 -6.9 -9.7 Q-3.6 -12.3 3.45 -12.75 L3.65 -12.65" fill="#333333" fill-rule="evenodd" stroke="none"/>
    </g>
    <g id="shape33" transform="matrix(1.0, 0.0, 0.0, 1.0, 0.9, 0.95)">
      <path d="M46.4 46.9 L44.7 48.45 44.9 47.85 45.4 46.9 45.75 46.9 46.0 46.9 46.1 46.9 46.4 46.9" fill="#000000" fill-rule="evenodd" stroke="none"/>
      <path d="M29.25 46.25 L29.9 46.15 29.9 46.5 30.05 46.6 29.2 46.65 29.3 46.6 29.25 46.25" fill="#ff0000" fill-rule="evenodd" stroke="none"/>
      <path d="M29.25 46.25 L29.3 46.6 29.2 46.65 26.6 47.35 26.5 47.1 29.25 46.25" fill="#333333" fill-rule="evenodd" stroke="none"/>
      <path d="M43.05 15.95 Q57.2 22.6 64.9 18.3 L67.6 16.25 67.7 16.15 Q60.6 -2.65 48.65 0.4 27.9 7.85 20.45 28.05 L25.5 26.55 25.5 26.4 28.8 26.15 28.75 26.7 28.7 27.1 29.15 26.75 Q32.45 24.15 39.5 23.7 L39.7 23.8 Q43.7 23.15 45.5 26.7 L45.6 26.95 Q57.15 27.5 68.3 30.55 66.9 24.25 64.9 18.3 M45.6 26.95 L46.25 28.7 46.5 28.75 Q49.8 28.45 51.9 30.6 54.05 32.9 54.15 38.0 52.8 47.0 46.4 46.9 60.05 48.4 70.3 44.8 L70.5 44.7 Q69.75 37.45 68.3 30.55 M46.4 46.9 L46.1 46.9 46.0 46.9 45.75 46.9 45.4 46.9 44.9 47.85 M45.4 46.9 Q49.4 38.25 46.25 28.7 M26.5 47.1 L26.5 46.95 16.65 45.35 16.6 45.4 16.45 45.45 16.35 45.5 16.2 45.55 Q6.75 49.8 0.0 54.9 10.4 60.9 41.75 61.7 74.5 62.6 87.05 57.45 80.85 50.55 70.5 45.45 M37.95 34.35 Q38.8 34.35 39.4 34.95 40.0 35.55 40.0 36.4 40.0 37.25 39.4 37.85 38.8 38.45 37.95 38.45 37.1 38.45 36.5 37.85 35.9 37.25 35.9 36.4 35.9 35.55 36.5 34.95 37.1 34.35 37.95 34.35 M29.9 45.75 L40.35 45.0 Q41.75 37.95 41.2 31.7 40.45 28.4 37.6 27.7 L35.3 27.3 35.15 27.3 Q32.65 27.25 29.05 28.35 M29.25 46.25 L29.2 45.85 Q28.15 37.55 28.65 28.45 L28.7 27.75 28.7 27.1 M26.5 46.95 L26.4 46.75 Q23.5 37.65 25.05 28.6 L25.5 26.55 M29.9 46.15 L29.25 46.25 29.3 46.6 M29.2 46.65 L30.05 46.6 29.9 46.5 M26.6 47.35 L26.5 47.1 29.25 46.25 M20.45 28.05 Q17.55 35.75 16.65 45.35 M44.7 48.45 Q35.85 50.55 30.05 46.6" fill="none" stroke="#000000" stroke-linecap="round" stroke-linejoin="round" stroke-width="1.8"/>
    </g>
    <g id="sprite32" transform="matrix(1.0, 0.0, 0.0, 1.0, 13.1, 13.55)">
      <use ffdec:characterId="488" height="32.3" id="mc000" transform="matrix(1.0, 0.0, 0.0, 1.0, -13.1, -13.55)" width="30.95" xlink:href="#sprite33"/>
    </g>
    <g id="sprite33" transform="matrix(1.0, 0.0, 0.0, 1.0, 15.45, 16.15)">
      <use ffdec:characterId="486" height="30.8" id="mc100" transform="matrix(1.0, 0.0, 0.0, 1.0, -14.7, -15.4)" width="29.45" xlink:href="#sprite34"/>
      <use ffdec:characterId="487" height="32.3" transform="matrix(1.0, 0.0, 0.0, 1.0, -15.45, -16.15)" width="30.95" xlink:href="#shape35"/>
    </g>
    <g id="sprite34" transform="matrix(1.0, 0.0, 0.0, 1.0, 14.7, 15.4)">
      <use ffdec:characterId="485" height="30.8" transform="matrix(1.0, 0.0, 0.0, 1.0, -14.7, -15.4)" width="29.45" xlink:href="#shape34"/>
    </g>
    <g id="shape34" transform="matrix(1.0, 0.0, 0.0, 1.0, 14.7, 15.4)">
      <path d="M13.35 -8.25 Q17.4 -3.25 9.9 9.65 3.6 18.1 -8.6 14.1 -17.55 8.5 -13.4 -2.7 -14.25 -4.1 -13.6 -6.6 -11.45 -11.8 -8.1 -13.7 L-7.75 -13.95 Q-2.35 -17.3 0.95 -13.0 6.6 -14.55 13.35 -8.25" fill="#11051c" fill-rule="evenodd" stroke="none"/>
    </g>
    <g id="shape35" transform="matrix(1.0, 0.0, 0.0, 1.0, 15.45, 16.15)">
      <path d="M-7.75 -13.95 Q-2.35 -17.3 0.95 -13.0 6.6 -14.55 13.35 -8.25 17.4 -3.25 9.9 9.65 3.6 18.1 -8.6 14.1 -17.55 8.5 -13.4 -2.7 -14.25 -4.1 -13.6 -6.6 -11.45 -11.8 -8.1 -13.7 M-13.4 -2.7 Q-12.45 -1.1 -9.45 -0.95 -8.65 -4.9 -4.7 -9.15 -2.05 -12.25 0.95 -13.0 M-5.2 10.25 Q-9.75 5.95 -9.75 1.2 L-11.55 5.5 M-9.75 1.2 L-9.45 -0.95" fill="none" stroke="#000000" stroke-linecap="round" stroke-linejoin="round" stroke-width="1.5"/>
    </g>
  </defs>
</svg>
