<?xml version="1.0" encoding="UTF-8" standalone="no"?>
<svg xmlns:ffdec="https://www.free-decompiler.com/flash" xmlns:xlink="http://www.w3.org/1999/xlink" ffdec:objectType="frame" height="164.6px" width="154.35px" xmlns="http://www.w3.org/2000/svg">
  <g transform="matrix(1.0, 0.0, 0.0, 1.0, 69.3, 159.6)">
    <use ffdec:characterId="528" height="23.95" transform="matrix(-0.3566, 0.9269, -0.9269, -0.3566, -2.3729, -22.047)" width="24.45" xlink:href="#shape0"/>
    <use ffdec:characterId="272" height="18.85" id="mc421590" transform="matrix(0.9908, -8.0E-4, 8.0E-4, 0.9908, -13.4616, -17.1583)" width="10.9" xlink:href="#sprite0"/>
    <use ffdec:characterId="272" height="18.85" id="mc391590" transform="matrix(0.9968, 0.0525, -0.0525, 0.9968, -12.5855, -17.3298)" width="10.9" xlink:href="#sprite0"/>
    <use ffdec:characterId="275" height="20.35" id="mc381590" transform="matrix(-0.2946, -0.9455, -0.9455, 0.2946, 10.9268, -23.8472)" width="13.05" xlink:href="#sprite2"/>
    <use ffdec:characterId="279" height="11.25" id="mc351590" transform="matrix(0.997, 0.053, -0.053, 0.997, -24.258, -16.2875)" width="37.6" xlink:href="#sprite5"/>
    <use ffdec:characterId="277" height="18.8" id="mc331590" transform="matrix(0.9974, 0.0444, -0.0444, 0.9974, -17.3648, -32.0314)" width="25.85" xlink:href="#sprite7"/>
    <use ffdec:characterId="281" height="22.3" id="mc301590" transform="matrix(0.9962, 0.0133, -0.0133, 0.9962, -21.0346, -43.9086)" width="26.9" xlink:href="#sprite9"/>
    <use ffdec:characterId="275" height="20.35" id="mc291590" transform="matrix(-0.9033, -0.384, -0.384, 0.9033, 3.0145, -23.5536)" width="13.05" xlink:href="#sprite2"/>
    <use ffdec:characterId="509" height="36.15" id="mc241590" transform="matrix(0.9948, 0.0743, -0.0743, 0.9948, -22.7285, -66.1622)" width="50.75" xlink:href="#sprite11"/>
    <use ffdec:characterId="512" height="51.8" id="mc161590" transform="matrix(0.9948, 0.0743, -0.0743, 0.9948, -27.4804, -84.078)" width="58.75" xlink:href="#sprite13"/>
    <use ffdec:characterId="526" height="6.1" transform="matrix(1.0, 0.0, 0.0, 1.0, -22.25, -47.1)" width="14.95" xlink:href="#shape16"/>
    <use ffdec:characterId="527" height="8.35" transform="matrix(1.0, 0.0, 0.0, 1.0, -23.55, -39.5)" width="13.9" xlink:href="#shape17"/>
    <use ffdec:characterId="522" height="64.6" id="hide_hat" transform="matrix(0.9948, 0.0743, -0.0743, 0.9948, -37.6219, -116.6359)" width="86.5" xlink:href="#sprite15"/>
    <use ffdec:characterId="307" height="27.9" id="mc101590" transform="matrix(-0.9575, -0.2754, -0.2754, 0.9575, 5.2096, -48.764)" width="5.7" xlink:href="#sprite19"/>
    <use ffdec:characterId="515" height="29.6" id="mc91590" transform="matrix(-0.9964, -0.0262, -0.0262, 0.9964, 23.3334, -47.9881)" width="23.25" xlink:href="#sprite21"/>
    <use ffdec:characterId="477" height="0.0" id="hat" transform="matrix(1.0, 0.0, 0.0, 1.0, -37.5, -145.35)" width="0.0" xlink:href="#sprite23"/>
  </g>
  <defs>
    <g id="shape0" transform="matrix(1.0, 0.0, 0.0, 1.0, 12.2, 11.95)">
      <path d="M0.75 2.65 L-11.45 -8.8 -9.15 -11.2 3.6 0.8 3.4 2.5 1.6 2.5 0.75 2.65" fill="#ff9900" fill-rule="evenodd" stroke="none"/>
      <path d="M3.6 0.8 L3.65 0.1 Q3.9 -1.35 5.15 -1.05 5.9 -0.8 6.7 0.7 L7.35 2.2 9.25 1.95 Q11.2 1.85 11.45 2.6 11.8 3.85 9.25 6.2 L10.0 7.85 Q10.55 9.55 9.8 10.15 L7.35 10.0 5.95 8.95 4.75 10.4 Q3.25 11.75 2.5 10.95 1.8 10.2 1.95 8.3 L2.3 6.65 1.0 5.95 Q-0.35 4.95 -0.3 3.8 -0.25 2.95 0.75 2.65 L1.6 2.5 3.4 2.5 3.6 0.8" fill="#ffcc00" fill-rule="evenodd" stroke="none"/>
      <path d="M0.75 2.65 L-11.45 -8.8 -9.15 -11.2 3.6 0.8 3.65 0.1 Q3.9 -1.35 5.15 -1.05 5.9 -0.8 6.7 0.7 L7.35 2.2 9.25 1.95 Q11.2 1.85 11.45 2.6 11.8 3.85 9.25 6.2 L10.0 7.85 Q10.55 9.55 9.8 10.15 L7.35 10.0 5.95 8.95 4.75 10.4 Q3.25 11.75 2.5 10.95 1.8 10.2 1.95 8.3 L2.3 6.65 1.0 5.95 Q-0.35 4.95 -0.3 3.8 -0.25 2.95 0.75 2.65 L1.6 2.5 3.4 2.5 3.6 0.8" fill="none" stroke="#000000" stroke-linecap="round" stroke-linejoin="round" stroke-width="1.5"/>
    </g>
    <g id="sprite0" transform="matrix(1.0, 0.0, 0.0, 1.0, 4.95, 9.5)">
      <use ffdec:characterId="271" height="3.3" id="mc100" transform="matrix(1.0, 0.0, 0.0, 1.0, -3.65, 3.05)" width="8.7" xlink:href="#sprite1"/>
      <use ffdec:characterId="102" height="18.85" transform="matrix(1.0, 0.0, 0.0, 1.0, -4.95, -9.5)" width="10.9" xlink:href="#shape2"/>
    </g>
    <g id="sprite1" transform="matrix(1.0, 0.0, 0.0, 1.0, 4.35, 1.65)">
      <use ffdec:characterId="1" height="3.3" transform="matrix(1.0, 0.0, 0.0, 1.0, -4.35, -1.65)" width="8.7" xlink:href="#shape1"/>
    </g>
    <g id="shape1" transform="matrix(1.0, 0.0, 0.0, 1.0, 4.35, 1.65)">
      <path d="M-4.35 -0.85 L4.0 -1.65 4.35 0.75 -4.2 1.65 -4.35 -0.85" fill="#00ffff" fill-rule="evenodd" stroke="none"/>
    </g>
    <g id="shape2" transform="matrix(1.0, 0.0, 0.0, 1.0, 4.95, 9.5)">
      <path d="M-3.65 3.85 L-4.05 -6.3 Q-4.1 -7.15 -3.15 -7.75 -2.1 -8.4 -0.55 -8.55 L2.1 -8.25 Q3.15 -7.75 3.3 -7.0 L3.35 -6.85 3.35 -6.65 4.7 3.05 -3.65 3.85 M5.05 5.55 L5.05 5.7 Q5.15 6.65 3.9 7.45 2.7 8.25 0.95 8.4 -0.8 8.55 -2.15 7.95 -3.45 7.45 -3.55 6.5 L-3.55 6.35 -3.5 6.35 4.7 5.5 5.05 5.55" fill="#000000" fill-rule="evenodd" stroke="none"/>
      <path d="M-3.65 3.85 L-4.05 -6.3 Q-4.1 -7.15 -3.15 -7.75 -2.1 -8.4 -0.55 -8.55 L2.1 -8.25 Q3.15 -7.75 3.3 -7.0 L3.35 -6.85 3.35 -6.65 4.7 3.05 5.05 5.45 5.05 5.55 5.05 5.7 Q5.15 6.65 3.9 7.45 2.7 8.25 0.95 8.4 -0.8 8.55 -2.15 7.95 -3.45 7.45 -3.55 6.5 L-3.55 6.35 -3.55 6.1 -3.65 3.85 4.7 3.05 M-3.55 6.35 L-3.5 6.35 4.7 5.5" fill="none" stroke="#000000" stroke-linecap="round" stroke-linejoin="round" stroke-width="1.8"/>
    </g>
    <g id="sprite2" transform="matrix(1.0, 0.0, 0.0, 1.0, 6.55, 10.15)">
      <use ffdec:characterId="273" height="4.9" id="mc200" transform="matrix(1.0, 0.0, 0.0, 1.0, -5.65, 4.4)" width="6.65" xlink:href="#sprite3"/>
      <use ffdec:characterId="274" height="13.2" id="mc100" transform="matrix(1.0, 0.0, 0.0, 1.0, -5.35, -5.05)" width="10.15" xlink:href="#sprite4"/>
      <use ffdec:characterId="64" height="20.35" transform="matrix(1.0, 0.0, 0.0, 1.0, -6.55, -10.15)" width="13.05" xlink:href="#shape5"/>
    </g>
    <g id="sprite3" transform="matrix(1.0, 0.0, 0.0, 1.0, 3.35, 2.45)">
      <use ffdec:characterId="5" height="4.9" transform="matrix(1.0, 0.0, 0.0, 1.0, -3.35, -2.45)" width="6.65" xlink:href="#shape3"/>
    </g>
    <g id="shape3" transform="matrix(1.0, 0.0, 0.0, 1.0, 3.35, 2.45)">
      <path d="M-3.05 -2.45 L-2.8 -2.35 3.3 1.3 3.2 1.4 2.15 2.15 Q0.6 2.75 -0.9 2.15 -2.5 1.45 -3.1 -0.05 -3.55 -1.15 -3.1 -2.4 L-3.05 -2.45" fill="#ffcc66" fill-rule="evenodd" stroke="none"/>
    </g>
    <g id="sprite4" transform="matrix(1.0, 0.0, 0.0, 1.0, 5.1, 6.6)">
      <use ffdec:characterId="7" height="13.2" transform="matrix(1.0, 0.0, 0.0, 1.0, -5.1, -6.6)" width="10.15" xlink:href="#shape4"/>
    </g>
    <g id="shape4" transform="matrix(1.0, 0.0, 0.0, 1.0, 5.1, 6.6)">
      <path d="M-4.85 2.95 L-5.1 2.85 -4.85 2.2 -4.1 0.7 -3.7 0.9 2.25 4.7 2.1 5.05 1.25 6.6 -4.85 2.95 M5.05 -4.25 L4.1 -0.95 3.75 0.15 -2.25 -2.9 -1.95 -3.5 -0.2 -6.6 5.05 -4.25" fill="#00ff00" fill-rule="evenodd" stroke="none"/>
    </g>
    <g id="shape5" transform="matrix(1.0, 0.0, 0.0, 1.0, 6.55, 10.15)">
      <path d="M-0.45 -5.05 Q1.4 -8.35 2.2 -8.8 3.05 -9.35 3.85 -9.2 L4.3 -9.1 Q5.3 -8.65 5.55 -7.4 5.75 -6.5 4.8 -2.7 L-0.45 -5.05 M3.5 1.7 L2.0 6.25 -3.95 2.45 -4.35 2.25 -2.5 -1.35 3.5 1.7" fill="#ffffff" fill-rule="evenodd" stroke="none"/>
      <path d="M4.8 -2.7 Q5.75 -6.5 5.55 -7.4 5.3 -8.65 4.3 -9.1 L3.85 -9.2 Q3.05 -9.35 2.2 -8.8 1.4 -8.35 -0.45 -5.05 L-2.2 -1.95 -2.5 -1.35 -4.35 2.25 -5.1 3.75 -5.35 4.4 -5.4 4.45 Q-5.85 5.7 -5.4 6.8 -4.8 8.3 -3.2 9.0 -1.7 9.6 -0.15 9.0 L0.9 8.25 1.0 8.15 1.85 6.6 2.0 6.25 3.5 1.7 3.85 0.6 4.8 -2.7" fill="none" stroke="#000000" stroke-linecap="round" stroke-linejoin="round" stroke-width="1.8"/>
      <path d="M-0.45 -5.05 L4.8 -2.7 M-5.1 4.5 L0.7 7.95 M-2.5 -1.35 L3.5 1.7 M2.0 6.25 L-3.95 2.45" fill="none" stroke="#000000" stroke-linecap="round" stroke-linejoin="round" stroke-width="1.5"/>
    </g>
    <g id="sprite5" transform="matrix(1.0, 0.0, 0.0, 1.0, 0.75, 0.75)">
      <use ffdec:characterId="278" height="9.75" id="mc100" transform="matrix(1.0, 0.0, 0.0, 1.0, 0.0, 0.0)" width="36.1" xlink:href="#sprite6"/>
      <use ffdec:characterId="225" height="11.25" transform="matrix(1.0, 0.0, 0.0, 1.0, -0.75, -0.75)" width="37.6" xlink:href="#shape7"/>
    </g>
    <g id="sprite6" transform="matrix(1.0, 0.0, 0.0, 1.0, 18.05, 4.85)">
      <use ffdec:characterId="11" height="9.75" transform="matrix(1.0, 0.0, 0.0, 1.0, -18.05, -4.85)" width="36.1" xlink:href="#shape6"/>
    </g>
    <g id="shape6" transform="matrix(1.0, 0.0, 0.0, 1.0, 18.05, 4.85)">
      <path d="M11.55 -4.75 L18.05 0.55 14.55 4.7 11.45 1.8 8.7 4.65 6.2 1.5 3.35 4.45 -0.25 1.4 -4.05 4.9 -7.4 2.3 -9.95 4.8 -12.95 1.5 -15.7 4.25 -18.05 0.2 -11.2 -4.85 11.55 -4.75" fill="#996666" fill-rule="evenodd" stroke="none"/>
    </g>
    <g id="shape7" transform="matrix(1.0, 0.0, 0.0, 1.0, 0.75, 0.75)">
      <path d="M35.95 5.6 L32.6 9.55 29.5 6.65 26.75 9.5 24.25 6.35 21.4 9.3 21.05 9.0 17.8 6.25 14.0 9.75 10.65 7.15 8.1 9.65 5.1 6.35 2.35 9.1 0.0 5.05 6.85 0.0 29.6 0.1 36.1 5.4 M22.9 4.7 L24.25 6.35 M29.5 6.65 L26.9 4.2 M15.8 4.4 L14.0 9.75 M10.65 7.15 L12.75 5.05 M7.05 4.35 L5.1 6.35 M21.05 9.0 L20.05 5.0" fill="none" stroke="#000000" stroke-linecap="round" stroke-linejoin="round" stroke-width="1.5"/>
    </g>
    <g id="sprite7" transform="matrix(1.0, 0.0, 0.0, 1.0, 0.75, 0.75)">
      <use ffdec:characterId="276" height="14.75" id="mc100" transform="matrix(1.0, 0.0, 0.0, 1.0, 0.0, 2.55)" width="24.35" xlink:href="#sprite8"/>
      <use ffdec:characterId="67" height="18.8" transform="matrix(1.0, 0.0, 0.0, 1.0, -0.75, -0.75)" width="25.85" xlink:href="#shape9"/>
    </g>
    <g id="sprite8" transform="matrix(1.0, 0.0, 0.0, 1.0, 12.15, 7.35)">
      <use ffdec:characterId="15" height="14.75" transform="matrix(1.0, 0.0, 0.0, 1.0, -12.15, -7.35)" width="24.35" xlink:href="#shape8"/>
    </g>
    <g id="shape8" transform="matrix(1.0, 0.0, 0.0, 1.0, 12.15, 7.35)">
      <path d="M12.15 -5.15 L12.15 -4.6 -12.1 -4.6 -12.05 -5.15 -11.95 -7.35 12.05 -7.35 12.15 -5.15 M11.85 7.4 L-11.75 7.4 -11.95 4.65 12.05 4.65 11.85 7.4 M12.2 1.25 L-12.1 1.35 -12.15 -1.8 12.2 -1.85 12.2 1.25" fill="#00ff00" fill-rule="evenodd" stroke="none"/>
    </g>
    <g id="shape9" transform="matrix(1.0, 0.0, 0.0, 1.0, 0.75, 0.75)">
      <path d="M24.2 14.55 L0.2 14.55 0.05 11.25 24.35 11.15 24.2 14.55 M0.0 8.1 L0.05 5.3 24.3 5.3 24.35 8.05 0.0 8.1 M0.2 2.55 L0.4 0.0 24.0 0.0 24.2 2.55 0.2 2.55" fill="#ffffff" fill-rule="evenodd" stroke="none"/>
      <path d="M0.2 14.55 L0.4 17.3 24.0 17.3 24.2 14.55 0.2 14.55 0.05 11.25 0.0 8.1 0.05 5.3 0.1 4.75 0.2 2.55 0.4 0.0 24.0 0.0 24.2 2.55 24.3 4.75 24.3 5.3 24.35 8.05 24.35 11.15 24.2 14.55 M24.35 11.15 L0.05 11.25 M24.2 2.55 L0.2 2.55 M24.3 5.3 L0.05 5.3 M0.0 8.1 L24.35 8.05" fill="none" stroke="#000000" stroke-linecap="round" stroke-linejoin="round" stroke-width="1.5"/>
    </g>
    <g id="sprite9" transform="matrix(1.0, 0.0, 0.0, 1.0, 0.9, 0.9)">
      <use ffdec:characterId="280" height="20.5" id="mc100" transform="matrix(1.0, 0.0, 0.0, 1.0, 0.0, 0.0)" width="25.1" xlink:href="#sprite10"/>
      <use ffdec:characterId="70" height="22.3" transform="matrix(1.0, 0.0, 0.0, 1.0, -0.9, -0.9)" width="26.9" xlink:href="#shape11"/>
    </g>
    <g id="sprite10" transform="matrix(1.0, 0.0, 0.0, 1.0, 12.55, 10.25)">
      <use ffdec:characterId="23" height="20.5" transform="matrix(1.0, 0.0, 0.0, 1.0, -12.55, -10.25)" width="25.1" xlink:href="#shape10"/>
    </g>
    <g id="shape10" transform="matrix(1.0, 0.0, 0.0, 1.0, 12.55, 10.25)">
      <path d="M3.3 -9.9 Q2.3 0.0 3.35 9.9 L0.0 10.25 -3.55 9.9 -3.2 -9.9 0.0 -10.25 3.3 -9.9 M9.75 6.5 Q8.6 0.05 9.65 -6.55 12.55 -3.75 12.55 0.0 12.55 3.7 9.75 6.5 M-8.7 -6.95 Q-9.65 0.35 -8.8 7.25 L-8.9 7.25 Q-12.55 4.25 -12.55 0.0 -12.55 -4.2 -8.95 -7.2 L-8.7 -6.95" fill="#00ffff" fill-rule="evenodd" stroke="none"/>
    </g>
    <g id="shape11" transform="matrix(1.0, 0.0, 0.0, 1.0, 0.9, 0.9)">
      <path d="M15.85 0.35 Q18.95 1.0 21.4 3.0 L21.95 3.5 22.2 3.7 Q21.15 10.3 22.3 16.75 L21.4 17.5 Q19.0 19.5 15.9 20.15 14.85 10.25 15.85 0.35 M9.0 20.15 Q6.05 19.45 3.75 17.55 L3.75 17.5 Q2.9 10.6 3.85 3.3 L3.65 3.0 Q6.15 1.0 9.35 0.35 L9.0 20.15" fill="#ffffff" fill-rule="evenodd" stroke="none"/>
      <path d="M15.85 0.35 Q18.95 1.0 21.4 3.0 L21.95 3.5 22.2 3.7 Q25.1 6.5 25.1 10.25 25.1 13.95 22.3 16.75 L21.4 17.5 Q19.0 19.5 15.9 20.15 L12.55 20.5 9.0 20.15 Q6.05 19.45 3.75 17.55 L3.65 17.5 Q0.0 14.5 0.0 10.25 0.0 6.05 3.6 3.05 L3.65 3.0 Q6.15 1.0 9.35 0.35 L12.55 0.0 15.85 0.35 Q14.85 10.25 15.9 20.15 M22.2 3.7 Q21.15 10.3 22.3 16.75 M3.75 17.55 L3.75 17.5 Q2.9 10.6 3.85 3.3 M9.35 0.35 L9.0 20.15" fill="none" stroke="#000000" stroke-linecap="round" stroke-linejoin="round" stroke-width="1.8"/>
    </g>
    <g id="sprite11" transform="matrix(1.0, 0.0, 0.0, 1.0, 0.9, 0.9)">
      <use ffdec:characterId="508" height="34.35" id="mc100" transform="matrix(1.0, 0.0, 0.0, 1.0, 0.0, 0.0)" width="48.95" xlink:href="#sprite12"/>
      <use ffdec:characterId="156" height="36.15" transform="matrix(1.0, 0.0, 0.0, 1.0, -0.9, -0.9)" width="50.75" xlink:href="#shape13"/>
    </g>
    <g id="sprite12" transform="matrix(1.0, 0.0, 0.0, 1.0, 24.45, 17.15)">
      <use ffdec:characterId="154" height="34.35" transform="matrix(1.0, 0.0, 0.0, 1.0, -24.45, -17.15)" width="48.95" xlink:href="#shape12"/>
    </g>
    <g id="shape12" transform="matrix(1.0, 0.0, 0.0, 1.0, 24.45, 17.15)">
      <path d="M-24.35 -8.65 L-5.5 -17.15 24.45 -8.7 Q25.15 -0.1 17.45 5.75 4.25 15.15 -9.8 17.15 L-10.15 17.15 Q-18.8 17.7 -21.1 12.8 L-21.55 12.65 -23.05 11.9 -21.4 6.0 -24.45 -8.35 -24.35 -8.65" fill="#ffcc66" fill-rule="evenodd" stroke="none"/>
    </g>
    <g id="shape13" transform="matrix(1.0, 0.0, 0.0, 1.0, 0.9, 0.9)">
      <path d="M14.65 34.3 Q28.7 32.3 41.9 22.9 49.6 17.05 48.9 8.45 L18.95 0.0 0.1 8.5 M0.0 8.8 L3.05 23.15 1.4 29.05 2.9 29.8 3.35 29.95 6.2 29.65 M3.35 29.95 Q5.65 34.85 14.3 34.3" fill="none" stroke="#000000" stroke-linecap="round" stroke-linejoin="round" stroke-width="1.8"/>
    </g>
    <g id="sprite13" transform="matrix(1.0, 0.0, 0.0, 1.0, -0.9, 1.0)">
      <use ffdec:characterId="511" height="50.0" id="mc100" transform="matrix(1.0, 0.0, 0.0, 1.0, 1.8, -0.1)" width="56.95" xlink:href="#sprite14"/>
      <use ffdec:characterId="160" height="51.8" transform="matrix(1.0, 0.0, 0.0, 1.0, 0.9, -1.0)" width="58.75" xlink:href="#shape15"/>
    </g>
    <g id="sprite14" transform="matrix(1.0, 0.0, 0.0, 1.0, 28.45, 25.0)">
      <use ffdec:characterId="510" height="50.0" transform="matrix(1.0, 0.0, 0.0, 1.0, -28.45, -25.0)" width="56.95" xlink:href="#shape14"/>
    </g>
    <g id="shape14" transform="matrix(1.0, 0.0, 0.0, 1.0, 28.45, 25.0)">
      <path d="M0.2 -25.0 L0.6 -25.0 Q13.65 -24.7 22.45 -16.3 L22.4 -16.25 23.6 -15.15 23.7 -15.05 23.85 -14.8 Q26.35 -10.25 27.55 -6.0 L26.9 -5.8 27.55 -5.95 27.55 -5.9 Q32.6 12.8 11.1 25.0 L10.9 24.8 Q9.0 22.35 7.95 19.65 6.5 16.1 6.55 12.15 L6.6 10.3 6.6 10.05 5.8 10.0 4.85 9.65 4.65 -1.45 4.3 -1.45 3.25 9.0 0.8 9.0 0.7 -0.3 -0.95 9.0 -3.35 9.0 -3.65 -3.55 -4.0 -3.55 -4.95 9.75 -11.95 9.4 -12.0 9.15 -13.35 9.15 -13.35 9.4 -14.55 9.4 -17.35 9.5 -23.55 9.95 -26.2 10.25 Q-28.45 7.75 -28.45 4.6 -28.45 -7.6 -20.05 -16.2 -12.05 -24.45 0.2 -25.0" fill="#993300" fill-rule="evenodd" stroke="none"/>
    </g>
    <g id="shape15" transform="matrix(1.0, 0.0, 0.0, 1.0, -0.9, 1.0)">
      <path d="M41.35 49.9 Q62.85 37.7 57.8 19.0 L57.8 18.95 57.8 18.9 Q56.6 14.65 54.1 10.1 L53.95 9.85 53.85 9.75 52.7 8.6 Q43.9 0.2 30.85 -0.1 L30.45 -0.1 Q18.2 0.45 10.2 8.7 1.8 17.3 1.8 29.5 1.8 32.65 4.05 35.15 L6.7 34.85 Q5.5 30.4 6.45 25.95 M6.7 34.85 L12.9 34.4 Q11.7 26.6 12.5 18.9 M12.9 34.4 L15.7 34.3 16.9 34.3 M36.85 35.2 L36.8 37.05 Q50.0 25.95 52.1 9.2 M36.8 37.05 Q36.75 41.0 38.2 44.55 51.65 36.9 57.15 19.1 M26.6 21.35 L26.9 33.9 29.3 33.9 30.95 24.6 31.05 33.9 33.5 33.9 34.55 23.45 M34.9 23.45 L35.1 34.55 36.05 34.9 36.85 34.95 M18.25 34.05 L19.85 17.9 M16.9 34.05 Q16.15 26.75 16.7 18.8 M18.3 34.3 L25.3 34.65 26.4 19.0 M38.2 44.55 Q39.25 47.25 41.15 49.7" fill="none" stroke="#000000" stroke-linecap="round" stroke-linejoin="round" stroke-width="1.8"/>
    </g>
    <g id="shape16" transform="matrix(1.0, 0.0, 0.0, 1.0, 7.2, 7.6)">
      <path d="M2.45 -3.3 Q0.95 -5.1 -0.9 -5.1 -2.75 -5.1 -5.1 -4.15 L-7.2 -3.3 -4.35 -5.6 Q-1.1 -7.9 0.35 -7.55 2.55 -6.95 4.55 -4.7 L7.75 -4.9 3.55 -1.5 2.45 -3.3" fill="#000000" fill-rule="evenodd" stroke="none"/>
    </g>
    <g id="shape17" transform="matrix(1.0, 0.0, 0.0, 1.0, 0.75, 0.5)">
      <path d="M12.35 3.5 L12.2 3.6 Q8.7 6.65 4.85 6.1 2.3 5.75 0.95 4.4 L0.75 4.15 Q-0.25 3.0 1.95 1.55 L2.6 1.2 Q4.7 0.1 7.6 0.0 L9.55 0.55 10.3 0.8 11.5 1.3 12.45 1.75 Q12.85 2.2 12.75 2.7 L12.35 3.5 12.35 3.4 Q12.65 2.05 11.5 1.3 12.65 2.05 12.35 3.4 L12.35 3.5 M2.6 1.2 L2.95 1.05 6.3 0.25 9.55 0.55 6.3 0.25 2.95 1.05 2.6 1.2 M11.75 2.1 L8.35 3.45 11.75 2.1 M4.7 4.75 L0.95 4.4 4.7 4.75" fill="#ffffff" fill-rule="evenodd" stroke="none"/>
      <path d="M0.95 4.4 L0.4 4.15 M11.5 1.3 Q12.65 2.05 12.35 3.4 L12.35 3.5 Q11.85 5.45 9.15 6.5 L6.45 7.1 3.5 6.6 Q0.45 5.75 0.05 3.95 -0.25 2.3 2.6 1.2 L2.95 1.05 6.3 0.25 9.55 0.55 9.6 0.55 Q10.8 0.8 11.5 1.3 M0.95 4.4 L4.7 4.75 M8.35 3.45 L11.75 2.1" fill="none" stroke="#000000" stroke-linecap="round" stroke-linejoin="round" stroke-width="1.5"/>
    </g>
    <g id="sprite15" transform="matrix(1.0, 0.0, 0.0, 1.0, 3.95, 1.45)">
      <use ffdec:characterId="518" height="62.8" id="mc400" transform="matrix(1.0, 0.0, 0.0, 1.0, -3.05, -0.55)" width="84.7" xlink:href="#sprite16"/>
      <use ffdec:characterId="519" height="19.5" id="mc300" transform="matrix(1.0, 0.0, 0.0, 1.0, 10.95, 26.75)" width="54.15" xlink:href="#sprite17"/>
      <use ffdec:characterId="520" height="24.5" id="mc200" transform="matrix(1.0, 0.0, 0.0, 1.0, 10.9, 24.3)" width="13.0" xlink:href="#sprite18"/>
      <use ffdec:characterId="521" height="64.6" transform="matrix(1.0, 0.0, 0.0, 1.0, -3.95, -1.45)" width="86.5" xlink:href="#shape21"/>
    </g>
    <g id="sprite16" transform="matrix(1.0, 0.0, 0.0, 1.0, 42.35, 31.4)">
      <use ffdec:characterId="174" height="62.8" transform="matrix(1.0, 0.0, 0.0, 1.0, -42.35, -31.4)" width="84.7" xlink:href="#shape18"/>
    </g>
    <g id="shape18" transform="matrix(1.0, 0.0, 0.0, 1.0, 42.35, 31.4)">
      <path d="M11.9 -24.85 Q16.45 -18.7 19.05 -13.25 22.2 -6.2 23.6 0.1 L23.0 2.0 Q8.05 -3.15 -9.15 -3.95 L-16.35 -4.1 -19.65 -6.1 -20.2 -6.3 -22.2 -7.25 Q-14.9 -23.5 -1.8 -29.65 3.95 -33.65 8.95 -28.45 L11.75 -25.0 11.9 -24.85 M42.35 27.0 Q29.8 32.15 -2.95 31.25 -34.1 30.45 -42.35 27.45 -37.1 20.45 -28.55 16.25 L-28.4 16.5 Q-22.8 19.6 -17.25 16.1 L-16.1 15.8 -16.0 15.75 -16.05 15.4 25.85 15.0 Q36.15 20.1 42.35 27.0" fill="#1a0000" fill-rule="evenodd" stroke="none"/>
    </g>
    <g id="sprite17" transform="matrix(1.0, 0.0, 0.0, 1.0, 27.05, 9.75)">
      <use ffdec:characterId="176" height="19.5" transform="matrix(1.0, 0.0, 0.0, 1.0, -27.05, -9.75)" width="54.15" xlink:href="#shape19"/>
    </g>
    <g id="shape19" transform="matrix(1.0, 0.0, 0.0, 1.0, 27.05, 9.75)">
      <path d="M25.25 -3.8 Q26.45 2.25 27.1 8.6 L27.1 9.35 -14.8 9.75 Q-13.3 0.2 -15.05 -9.75 L-7.85 -9.6 Q9.35 -8.8 24.3 -3.65 L25.25 -3.8 M-25.85 -6.7 Q-24.0 -8.8 -22.65 -8.85 -21.3 -8.95 -20.35 -7.0 -19.55 -3.9 -19.25 -0.75 L-19.25 -0.7 -19.25 -0.5 Q-18.95 3.85 -19.65 8.2 -22.9 9.95 -26.9 9.35 L-27.05 9.3 -26.45 -6.7 -25.85 -6.7 M-24.4 -1.95 Q-25.0 -1.35 -25.0 -0.5 -25.0 0.35 -24.4 0.95 -23.8 1.55 -22.95 1.55 -22.1 1.55 -21.5 0.95 -20.9 0.35 -20.9 -0.5 -20.9 -1.35 -21.5 -1.95 -22.1 -2.55 -22.95 -2.55 -23.8 -2.55 -24.4 -1.95" fill="#ff0000" fill-rule="evenodd" stroke="none"/>
    </g>
    <g id="sprite18" transform="matrix(1.0, 0.0, 0.0, 1.0, 6.5, 12.25)">
      <use ffdec:characterId="178" height="24.5" transform="matrix(1.0, 0.0, 0.0, 1.0, -6.5, -12.25)" width="13.0" xlink:href="#shape20"/>
    </g>
    <g id="shape20" transform="matrix(1.0, 0.0, 0.0, 1.0, 6.5, 12.25)">
      <path d="M5.55 -9.8 Q7.3 0.15 5.8 9.7 L5.8 9.75 4.65 10.4 Q-0.9 13.9 -6.5 10.8 L-6.45 10.45 -6.3 9.3 Q-2.3 9.9 0.95 8.15 1.65 3.8 1.35 -0.55 L1.35 -0.75 1.35 -0.8 Q1.05 -3.95 0.25 -7.05 -0.7 -9.0 -2.05 -8.9 -3.4 -8.85 -5.25 -6.75 L-5.85 -7.35 Q-5.3 -12.2 -0.65 -12.25 L1.7 -12.0 2.25 -11.8 5.55 -9.8" fill="#333333" fill-rule="evenodd" stroke="none"/>
    </g>
    <g id="shape21" transform="matrix(1.0, 0.0, 0.0, 1.0, 3.95, 1.45)">
      <path d="M15.05 33.95 Q15.9 33.95 16.5 34.55 17.1 35.15 17.1 36.0 17.1 36.85 16.5 37.45 15.9 38.05 15.05 38.05 14.2 38.05 13.6 37.45 13.0 36.85 13.0 36.0 13.0 35.15 13.6 34.55 14.2 33.95 15.05 33.95" fill="#000000" fill-rule="evenodd" stroke="none"/>
      <path d="M23.25 46.25 L23.3 46.6 23.2 46.65 22.05 46.95 23.2 46.3 23.25 46.25" fill="#333333" fill-rule="evenodd" stroke="none"/>
      <path d="M17.1 23.6 L19.1 24.55 16.75 24.3 17.1 23.6" fill="#660000" fill-rule="evenodd" stroke="none"/>
      <path d="M30.9 13.1 Q35.15 19.6 42.7 20.3 47.4 21.15 50.65 17.35 54.5 13.8 51.2 6.0 L51.05 5.85 48.25 2.4 Q43.25 -2.8 37.5 1.2 24.4 7.35 17.1 23.6 L16.75 24.3 Q12.1 24.35 11.55 29.2 L10.95 45.8 11.1 45.85 Q15.1 46.45 18.35 44.7 19.05 40.35 18.75 36.0 L18.75 35.8 18.75 35.75 Q18.45 32.6 17.65 29.5 16.7 27.55 15.35 27.65 14.0 27.7 12.15 29.8 M19.1 24.55 L16.75 24.3 M51.2 6.0 Q55.75 12.15 58.35 17.6 61.5 24.65 62.9 30.95 L63.25 32.65 63.25 32.7 Q64.45 38.75 65.1 45.1 M10.95 45.8 L10.9 47.0 10.95 47.0 11.1 45.85 M22.05 46.95 Q16.5 50.45 10.9 47.35 L10.9 47.0 10.75 47.1 Q2.2 51.3 -3.05 58.3 5.2 61.3 36.35 62.1 69.1 63.0 81.65 57.85 75.45 50.95 65.15 45.85 L30.35 46.2 23.25 46.25 M22.05 46.95 L23.2 46.3 23.2 46.25 Q24.7 36.7 22.95 26.75 L19.65 24.75 M30.35 46.2 Q34.95 42.95 34.3 37.05 L34.4 36.8 Q33.9 30.85 30.15 26.9 L22.95 26.75 M30.15 26.9 Q47.35 27.7 62.3 32.85" fill="none" stroke="#000000" stroke-linecap="round" stroke-linejoin="round" stroke-width="1.8"/>
    </g>
    <g id="sprite19" transform="matrix(1.0, 0.0, 0.0, 1.0, 0.9, 0.9)">
      <use ffdec:characterId="306" height="26.1" id="mc100" transform="matrix(1.0, 0.0, 0.0, 1.0, 0.0, 0.0)" width="3.95" xlink:href="#sprite20"/>
      <use ffdec:characterId="164" height="27.9" transform="matrix(1.0, 0.0, 0.0, 1.0, -0.9, -0.9)" width="5.7" xlink:href="#shape23"/>
    </g>
    <g id="sprite20" transform="matrix(1.0, 0.0, 0.0, 1.0, 1.95, 13.05)">
      <use ffdec:characterId="162" height="26.1" transform="matrix(1.0, 0.0, 0.0, 1.0, -1.95, -13.05)" width="3.95" xlink:href="#shape22"/>
    </g>
    <g id="shape22" transform="matrix(1.0, 0.0, 0.0, 1.0, 1.95, 13.05)">
      <path d="M1.95 -7.35 Q2.4 4.15 -1.95 13.05 L-1.65 -12.9 -1.4 -13.05 Q1.15 -12.0 1.9 -7.35 L1.95 -7.35" fill="#993300" fill-rule="evenodd" stroke="none"/>
    </g>
    <g id="shape23" transform="matrix(1.0, 0.0, 0.0, 1.0, 0.9, 0.9)">
      <path d="M0.55 0.0 Q3.1 1.05 3.85 5.7 4.35 17.2 0.0 26.1 L0.3 0.15" fill="none" stroke="#000000" stroke-linecap="round" stroke-linejoin="round" stroke-width="1.8"/>
    </g>
    <g id="sprite21" transform="matrix(1.0, 0.0, 0.0, 1.0, -1.6, 1.05)">
      <use ffdec:characterId="514" height="27.8" id="mc100" transform="matrix(1.0, 0.0, 0.0, 1.0, 2.5, -0.15)" width="21.45" xlink:href="#sprite22"/>
      <use ffdec:characterId="168" height="29.6" transform="matrix(1.0, 0.0, 0.0, 1.0, 1.6, -1.05)" width="23.25" xlink:href="#shape25"/>
    </g>
    <g id="sprite22" transform="matrix(1.0, 0.0, 0.0, 1.0, 10.7, 13.9)">
      <use ffdec:characterId="513" height="27.8" transform="matrix(1.0, 0.0, 0.0, 1.0, -10.7, -13.9)" width="21.45" xlink:href="#shape24"/>
    </g>
    <g id="shape24" transform="matrix(1.0, 0.0, 0.0, 1.0, 10.7, 13.9)">
      <path d="M-6.1 0.55 L-5.45 0.45 -6.0 0.25 -6.05 0.3 -6.1 0.55 M6.4 -13.9 L6.8 -13.75 7.65 -13.15 7.7 -13.1 8.95 -12.25 Q12.6 0.7 8.75 10.55 L8.35 10.6 Q8.35 12.05 6.85 13.15 -6.8 16.55 -10.65 5.0 -10.85 3.25 -10.2 2.2 L-10.45 2.1 Q-9.9 -2.4 -7.1 -6.5 -2.5 -13.35 6.4 -13.9" fill="#993300" fill-rule="evenodd" stroke="none"/>
    </g>
    <g id="shape25" transform="matrix(1.0, 0.0, 0.0, 1.0, -1.6, 1.05)">
      <path d="M7.75 14.2 Q11.05 14.3 15.2 17.3 L15.25 17.35 Q17.95 19.3 21.05 22.55 21.5 23.5 21.55 24.35 21.55 25.8 20.05 26.9 6.4 30.3 2.55 18.75 2.35 17.0 2.95 16.0 3.3 11.35 6.1 7.25 10.7 0.4 19.6 -0.15 9.2 5.15 7.2 14.0 L7.15 14.05 7.1 14.3 Q4.0 14.25 3.0 15.95 L2.95 16.0 M15.45 17.05 Q15.75 7.95 21.15 0.8 L20.9 0.65 20.85 0.6 20.0 0.0 M21.95 24.3 Q25.8 14.45 22.15 1.5 L21.15 0.8" fill="none" stroke="#000000" stroke-linecap="round" stroke-linejoin="round" stroke-width="1.8"/>
    </g>
  </defs>
</svg>
