<?xml version="1.0" encoding="UTF-8" standalone="no"?>
<svg xmlns:ffdec="https://www.free-decompiler.com/flash" xmlns:xlink="http://www.w3.org/1999/xlink" ffdec:objectType="frame" height="31.3px" width="24.05px" xmlns="http://www.w3.org/2000/svg">
  <g transform="matrix(1.0, 0.0, 0.0, 1.0, 1.85, 1.95)">
    <use ffdec:characterId="148" height="53.05" id="mc500" transform="matrix(0.2771, -0.063, 0.063, 0.2771, 4.9782, 5.5555)" width="39.85" xlink:href="#sprite0"/>
    <use ffdec:characterId="149" height="12.55" transform="matrix(-0.2844, 0.0, 0.0, 0.2844, 16.506, 10.844)" width="10.2" xlink:href="#shape2"/>
    <use ffdec:characterId="214" height="1.0" transform="matrix(1.0, 0.0, 0.0, 1.0, 14.0, 10.35)" width="1.95" xlink:href="#shape3"/>
    <use ffdec:characterId="154" height="69.75" id="mc200" transform="matrix(0.2771, -0.063, 0.063, 0.2771, -1.8561, 2.5073)" width="70.95" xlink:href="#sprite2"/>
    <use ffdec:characterId="163" height="21.9" id="hide_hat8" transform="matrix(0.2771, -0.063, 0.063, 0.2771, 8.9645, 3.2923)" width="26.7" xlink:href="#sprite4"/>
    <use ffdec:characterId="215" height="0.0" id="hat" transform="matrix(-0.2844, 0.0, 0.0, 0.2844, 11.25, 29.35)" width="0.0" xlink:href="#sprite8"/>
  </g>
  <defs>
    <g id="sprite0" transform="matrix(1.0, 0.0, 0.0, 1.0, 1.35, 1.55)">
      <use ffdec:characterId="146" height="51.25" id="mc100" transform="matrix(1.0, 0.0, 0.0, 1.0, -0.45, -0.65)" width="38.05" xlink:href="#sprite1"/>
      <use ffdec:characterId="147" height="53.05" transform="matrix(1.0, 0.0, 0.0, 1.0, -1.35, -1.55)" width="39.85" xlink:href="#shape1"/>
    </g>
    <g id="sprite1" transform="matrix(1.0, 0.0, 0.0, 1.0, 0.0, 0.0)">
      <use ffdec:characterId="145" height="51.25" transform="matrix(1.0, 0.0, 0.0, 1.0, 0.0, 0.0)" width="38.05" xlink:href="#shape0"/>
    </g>
    <g id="shape0" transform="matrix(1.0, 0.0, 0.0, 1.0, 0.0, 0.0)">
      <path d="M35.9 36.15 Q38.25 39.75 36.85 42.7 L32.85 45.65 32.7 48.15 Q26.0 53.2 17.05 50.0 1.15 42.75 0.0 24.95 L19.5 0.0 37.35 15.2 Q39.3 26.15 35.9 36.15" fill="#c4a44a" fill-rule="evenodd" stroke="none"/>
    </g>
    <g id="shape1" transform="matrix(1.0, 0.0, 0.0, 1.0, 0.9, 0.9)">
      <path d="M32.85 45.65 L36.85 42.7 Q38.25 39.75 35.9 36.15 39.3 26.15 37.35 15.2 L19.5 0.0 0.0 24.95 Q1.15 42.75 17.05 50.0 26.0 53.2 32.7 48.15 L32.85 45.65 Z" fill="none" stroke="#000000" stroke-linecap="round" stroke-linejoin="round" stroke-width="1.8"/>
    </g>
    <g id="shape2" transform="matrix(1.0, 0.0, 0.0, 1.0, 0.9, 0.9)">
      <path d="M0.15 0.0 L0.45 0.0 Q5.55 1.35 8.4 5.95 L1.35 10.75 Q0.25 7.9 0.05 4.55 L0.1 0.0 0.15 0.0 M0.45 2.85 L0.25 4.5 0.45 6.1 Q0.65 6.8 0.9 6.8 L1.45 6.15 2.0 4.5 Q2.2 3.55 1.65 2.9 L0.9 2.2 Q0.65 2.2 0.45 2.85" fill="#ffffff" fill-rule="evenodd" stroke="none"/>
      <path d="M0.45 2.85 Q0.65 2.2 0.9 2.2 L1.65 2.9 Q2.2 3.55 2.0 4.5 L1.45 6.15 0.9 6.8 Q0.65 6.8 0.45 6.1 L0.25 4.5 0.45 2.85" fill="#000000" fill-rule="evenodd" stroke="none"/>
      <path d="M0.45 0.0 Q5.55 1.35 8.4 5.95 L1.35 10.75 Q0.25 7.9 0.05 4.55 L0.1 0.0 0.15 0.0" fill="none" stroke="#000000" stroke-linecap="round" stroke-linejoin="round" stroke-width="1.8"/>
    </g>
    <g id="shape3" transform="matrix(1.0, 0.0, 0.0, 1.0, -14.0, -10.35)">
      <path d="M15.75 10.55 Q14.8 10.55 14.2 11.15" fill="none" stroke="#000000" stroke-linecap="round" stroke-linejoin="round" stroke-width="0.4"/>
    </g>
    <g id="sprite2" transform="matrix(1.0, 0.0, 0.0, 1.0, 0.9, 0.9)">
      <use ffdec:characterId="152" height="66.7" id="mc100" transform="matrix(1.0, 0.0, 0.0, 1.0, 0.0, 0.0)" width="69.15" xlink:href="#sprite3"/>
      <use ffdec:characterId="153" height="69.75" transform="matrix(1.0, 0.0, 0.0, 1.0, -0.9, -0.9)" width="70.95" xlink:href="#shape5"/>
    </g>
    <g id="sprite3" transform="matrix(1.0, 0.0, 0.0, 1.0, 0.0, 0.0)">
      <use ffdec:characterId="151" height="66.7" transform="matrix(1.0, 0.0, 0.0, 1.0, 0.0, 0.0)" width="69.15" xlink:href="#shape4"/>
    </g>
    <g id="shape4" transform="matrix(1.0, 0.0, 0.0, 1.0, 0.0, 0.0)">
      <path d="M69.15 34.4 L63.1 32.15 65.5 40.95 Q59.85 38.7 55.1 31.1 L54.3 43.1 47.75 31.4 42.25 66.7 41.55 66.55 Q21.2 64.2 5.75 51.85 L9.85 49.95 Q3.8 48.2 0.0 41.5 L5.45 41.5 Q1.7 31.75 3.1 17.85 10.05 9.65 17.5 7.4 L24.3 0.0 23.75 3.95 30.3 0.3 29.5 4.15 Q48.4 6.85 57.05 16.15 L59.0 20.5 69.15 34.4" fill="#ff6600" fill-rule="evenodd" stroke="none"/>
    </g>
    <g id="shape5" transform="matrix(1.0, 0.0, 0.0, 1.0, 0.9, 0.9)">
      <path d="M24.3 39.0 L29.2 52.4 31.65 40.1 41.55 66.55 42.05 67.95 47.75 31.4 54.3 43.1 55.1 31.1 Q59.85 38.7 65.5 40.95 L63.1 32.15 Q61.2 25.85 59.0 20.5 L57.05 16.15 Q48.4 6.85 29.5 4.15 L28.1 3.95 M59.0 20.5 L69.15 34.4 63.1 32.15 M29.5 4.15 L30.3 0.3 23.75 3.95 24.3 0.0 17.5 7.4 Q10.0 10.25 3.55 17.95 1.7 31.75 5.45 41.5 L0.0 41.5 Q3.8 48.2 9.85 49.95 L5.75 51.85 Q21.2 64.2 41.55 66.55" fill="none" stroke="#000000" stroke-linecap="round" stroke-linejoin="round" stroke-width="1.8"/>
    </g>
    <g id="sprite4" transform="matrix(1.0, 0.0, 0.0, 1.0, -8.15, 0.7)">
      <use ffdec:characterId="155" height="11.4" transform="matrix(1.0, 0.0, 0.0, 1.0, 15.3, 3.1)" width="17.6" xlink:href="#shape6"/>
      <use ffdec:characterId="157" height="18.35" id="mc201" transform="matrix(1.0, 0.0, 0.0, 1.0, 13.15, 0.2)" width="20.8" xlink:href="#sprite5"/>
      <use ffdec:characterId="159" height="17.9" id="mc202" transform="matrix(1.0, 0.0, 0.0, 1.0, 10.8, 0.05)" width="18.0" xlink:href="#sprite6"/>
      <use ffdec:characterId="161" height="17.5" id="mc203" transform="matrix(1.0, 0.0, 0.0, 1.0, 8.9, 2.95)" width="23.9" xlink:href="#sprite7"/>
      <use ffdec:characterId="162" height="21.9" transform="matrix(1.0, 0.0, 0.0, 1.0, 8.15, -0.7)" width="26.7" xlink:href="#shape10"/>
    </g>
    <g id="shape6" transform="matrix(1.0, 0.0, 0.0, 1.0, -15.3, -3.1)">
      <path d="M32.9 6.4 L32.9 10.45 Q32.8 11.65 32.05 12.05 L30.2 12.6 Q29.5 12.75 29.35 11.4 L29.35 4.05 32.15 5.05 Q32.7 5.2 32.85 5.9 L32.9 6.4 M21.35 11.65 Q21.1 13.25 19.9 13.8 L16.7 14.5 Q15.5 14.7 15.3 12.9 L15.35 3.1 20.1 4.45 20.25 4.5 Q21.3 4.8 21.35 6.3 L21.35 11.65" fill="#ccffff" fill-rule="evenodd" stroke="none"/>
    </g>
    <g id="sprite5" transform="matrix(1.0, 0.0, 0.0, 1.0, 0.0, 0.0)">
      <use ffdec:characterId="156" height="18.35" transform="matrix(1.0, 0.0, 0.0, 1.0, 0.0, 0.0)" width="20.8" xlink:href="#shape7"/>
    </g>
    <g id="shape7" transform="matrix(1.0, 0.0, 0.0, 1.0, 0.0, 0.0)">
      <path d="M20.65 11.45 Q20.6 12.7 20.05 13.35 L19.9 13.4 19.6 13.65 16.95 15.2 Q15.7 15.7 15.3 14.9 15.0 14.35 15.05 13.3 L15.05 13.05 14.95 3.8 Q14.9 2.2 15.65 1.75 L15.75 1.75 Q16.25 1.55 17.1 1.75 20.9 2.6 20.8 5.85 L20.65 11.1 20.65 11.45 M19.7 5.7 Q19.55 5.0 19.0 4.85 L16.2 3.85 16.2 11.2 Q16.35 12.55 17.05 12.4 L18.9 11.85 Q19.65 11.45 19.75 10.25 L19.75 6.2 19.7 5.7 M12.45 11.65 L10.15 12.45 9.7 12.45 9.7 12.65 9.7 13.05 Q9.65 14.75 8.65 15.6 L8.45 15.7 7.9 16.0 3.35 18.05 Q1.3 18.8 0.6 17.65 0.15 16.9 0.2 15.55 L0.2 15.15 0.0 2.85 Q-0.15 0.75 1.25 0.2 1.3 0.1 1.4 0.1 L3.6 0.2 Q9.05 1.05 9.8 4.3 L9.9 5.65 9.85 8.5 9.9 7.55 12.5 7.55 12.55 11.6 12.45 11.65 M8.2 6.1 Q8.15 4.6 7.1 4.3 L6.95 4.25 2.2 2.9 2.15 12.7 Q2.35 14.5 3.55 14.3 L6.75 13.6 Q7.95 13.05 8.2 11.45 L8.2 6.1" fill="#999999" fill-rule="evenodd" stroke="none"/>
    </g>
    <g id="sprite6" transform="matrix(1.0, 0.0, 0.0, 1.0, 0.0, 0.0)">
      <use ffdec:characterId="158" height="17.9" transform="matrix(1.0, 0.0, 0.0, 1.0, 0.0, 0.0)" width="18.0" xlink:href="#shape8"/>
    </g>
    <g id="shape8" transform="matrix(1.0, 0.0, 0.0, 1.0, 0.0, 0.0)">
      <path d="M17.5 1.75 L17.75 1.8 17.8 1.8 18.0 1.9 Q17.25 2.35 17.3 3.95 L17.4 13.2 17.4 13.45 Q17.35 14.5 17.65 15.05 16.35 15.45 16.0 13.75 L15.9 4.05 15.9 3.9 Q15.8 1.9 16.75 1.7 L17.05 1.7 17.5 1.75 M0.05 2.9 Q-0.3 -1.0 3.6 0.35 2.2 0.9 2.35 3.0 L2.55 15.3 2.55 15.7 Q2.5 17.05 2.95 17.8 0.75 18.35 0.2 16.1 L0.05 3.1 0.05 2.9" fill="#666666" fill-rule="evenodd" stroke="none"/>
    </g>
    <g id="sprite7" transform="matrix(1.0, 0.0, 0.0, 1.0, 0.0, 0.0)">
      <use ffdec:characterId="160" height="17.5" transform="matrix(1.0, 0.0, 0.0, 1.0, 0.0, 0.0)" width="23.9" xlink:href="#shape9"/>
    </g>
    <g id="shape9" transform="matrix(1.0, 0.0, 0.0, 1.0, 0.0, 0.0)">
      <path d="M23.9 11.15 Q23.8 13.6 20.85 14.35 18.15 15.05 17.05 12.25 L16.9 11.8 16.7 2.55 17.6 1.0 17.8 1.0 17.8 1.15 17.9 10.85 Q18.25 12.55 19.55 12.15 19.95 12.95 21.2 12.45 L23.85 10.9 23.9 11.15 M1.55 0.0 L1.95 0.0 1.95 0.2 2.1 13.2 Q2.65 15.45 4.85 14.9 5.55 16.05 7.6 15.3 L12.15 13.25 12.2 13.55 Q12.1 16.4 8.45 17.5 L3.0 17.5 Q1.45 16.8 0.6 15.05 L0.4 14.5 0.0 2.15 1.55 0.0" fill="#333333" fill-rule="evenodd" stroke="none"/>
    </g>
    <g id="shape10" transform="matrix(1.0, 0.0, 0.0, 1.0, -8.15, 0.7)">
      <path d="M25.6 5.5 L26.5 3.95 M21.6 15.9 L21.05 16.2 21.1 16.5 M32.75 13.85 L32.8 14.1 M10.45 2.95 L10.85 2.95" fill="none" stroke="#000000" stroke-linecap="round" stroke-linejoin="round" stroke-width="1.5"/>
      <path d="M27.55 1.75 L27.85 1.75 28.3 1.8 28.55 1.85 28.85 1.95 M33.05 13.6 L32.75 13.85" fill="none" stroke="#000000" stroke-linecap="round" stroke-linejoin="round" stroke-width="1.8"/>
      <path d="M28.45 15.1 Q28.15 14.55 28.2 13.5 L28.2 13.25 28.1 4.0 Q28.05 2.4 28.8 1.95 L28.85 1.95 Q29.4 1.75 30.25 1.95 34.05 2.8 33.95 6.05 L33.8 11.3 33.8 11.65 Q33.75 12.9 33.2 13.55 M32.05 12.05 L30.2 12.6 Q29.5 12.75 29.35 11.4 L29.35 4.05 32.15 5.05 Q32.7 5.2 32.85 5.9 L32.9 6.4 32.9 10.45 Q32.8 11.65 32.05 12.05 M26.7 3.95 Q26.6 1.95 27.55 1.75 M23.0 7.75 L25.2 7.75 M21.35 11.65 Q21.1 13.25 19.9 13.8 L16.7 14.5 Q15.5 14.7 15.3 12.9 L15.35 3.1 20.1 4.45 20.25 4.5 Q21.3 4.8 21.35 6.3 L21.35 11.65 M25.7 9.8 L23.45 10.15 M25.7 11.85 L23.3 12.65" fill="none" stroke="#000000" stroke-linecap="round" stroke-linejoin="round" stroke-width="1.8"/>
      <path d="M21.05 16.2 L16.5 18.25 Q14.45 19.0 13.75 17.85 11.55 18.4 11.0 16.15 L10.85 2.95 Q10.5 -0.95 14.4 0.4 L14.55 0.3 16.75 0.4 Q22.2 1.25 22.95 4.5 L23.05 5.85 23.0 7.75 22.85 12.85 22.85 13.25 Q22.8 14.95 21.8 15.8 M25.7 11.85 L25.7 9.8 25.6 5.5 M28.45 15.1 Q28.85 15.9 30.1 15.4 L32.7 13.9 Q32.7 16.55 29.75 17.3 27.05 18.0 25.95 15.2 L25.8 14.75 25.7 11.85 M26.7 3.95 L26.8 13.8 Q27.15 15.5 28.45 15.1 M13.75 17.85 Q13.3 17.1 13.35 15.75 L13.35 15.35 13.15 3.05 Q13.0 0.95 14.4 0.4 M21.1 16.5 Q21.0 19.35 17.35 20.45 L11.9 20.45 Q10.35 19.75 9.5 18.0 L9.3 17.45 8.9 5.1 10.45 2.95" fill="none" stroke="#000000" stroke-linecap="round" stroke-linejoin="round" stroke-width="1.5"/>
    </g>
  </defs>
</svg>
