<?xml version="1.0" encoding="UTF-8" standalone="no"?>
<svg xmlns:ffdec="https://www.free-decompiler.com/flash" xmlns:xlink="http://www.w3.org/1999/xlink" ffdec:objectType="frame" height="22.0px" width="18.6px" xmlns="http://www.w3.org/2000/svg">
  <g transform="matrix(1.0, 0.0, 0.0, 1.0, -1.1, 2.25)">
    <use ffdec:characterId="37" height="17.6" id="hide_hat2" transform="matrix(0.2696, -0.0298, 0.0298, 0.2696, 1.2157, 2.2394)" width="17.6" xlink:href="#sprite0"/>
    <use ffdec:characterId="187" height="42.0" id="mc900" transform="matrix(0.2696, -0.0298, 0.0298, 0.2696, 5.3472, 8.0092)" width="46.7" xlink:href="#sprite2"/>
    <use ffdec:characterId="191" height="48.55" id="hide_hat" transform="matrix(0.2696, -0.0298, 0.0298, 0.2696, 1.1206, 3.1313)" width="62.6" xlink:href="#sprite4"/>
    <use ffdec:characterId="193" height="28.0" id="mc700" transform="matrix(0.2696, -0.0298, 0.0298, 0.2696, 5.7091, 6.528)" width="47.35" xlink:href="#sprite6"/>
    <use ffdec:characterId="197" height="30.1" id="mc600" transform="matrix(0.2696, -0.0298, 0.0298, 0.2696, 2.7718, 11.6375)" width="32.25" xlink:href="#sprite7"/>
    <use ffdec:characterId="198" height="3.7" transform="matrix(-0.2696, 0.0298, 0.0298, 0.2696, 15.7856, 12.5123)" width="10.1" xlink:href="#shape9"/>
    <use ffdec:characterId="81" height="5.75" transform="matrix(-0.2696, 0.0298, 0.0298, 0.2696, 13.847, 14.0454)" width="5.8" xlink:href="#shape10"/>
    <use ffdec:characterId="199" height="15.25" transform="matrix(0.2651, -0.0579, 0.0579, 0.2651, 10.1936, 10.3639)" width="27.8" xlink:href="#shape11"/>
    <use ffdec:characterId="200" height="6.65" transform="matrix(1.0, 0.0, 0.0, 1.0, 13.05, 10.35)" width="5.05" xlink:href="#shape12"/>
    <use ffdec:characterId="201" height="0.0" id="hat" transform="matrix(-0.2715, 0.0, 0.0, 0.2715, 19.7, -2.25)" width="0.0" xlink:href="#sprite9"/>
  </g>
  <defs>
    <g id="sprite0" transform="matrix(1.0, 0.0, 0.0, 1.0, 8.8, 8.8)">
      <use ffdec:characterId="35" height="15.8" id="mc100" transform="matrix(1.0, 0.0, 0.0, 1.0, -7.9, -7.9)" width="15.8" xlink:href="#sprite1"/>
      <use ffdec:characterId="36" height="17.6" transform="matrix(1.0, 0.0, 0.0, 1.0, -8.8, -8.8)" width="17.6" xlink:href="#shape1"/>
    </g>
    <g id="sprite1" transform="matrix(1.0, 0.0, 0.0, 1.0, 7.9, 7.9)">
      <use ffdec:characterId="34" height="15.8" transform="matrix(1.0, 0.0, 0.0, 1.0, -7.9, -7.9)" width="15.8" xlink:href="#shape0"/>
    </g>
    <g id="shape0" transform="matrix(1.0, 0.0, 0.0, 1.0, 7.9, 7.9)">
      <path d="M7.9 0.0 Q7.85 3.25 5.55 5.55 3.25 7.85 0.0 7.9 -3.25 7.85 -5.6 5.55 -7.9 3.25 -7.9 0.0 -7.9 -3.25 -5.6 -5.55 L-5.1 -6.0 Q-2.95 -7.9 0.0 -7.9 2.9 -7.9 5.1 -6.0 L5.55 -5.55 Q7.85 -3.25 7.9 0.0" fill="#ff6699" fill-rule="evenodd" stroke="none"/>
    </g>
    <g id="shape1" transform="matrix(1.0, 0.0, 0.0, 1.0, 8.8, 8.8)">
      <path d="M5.1 -6.0 L5.55 -5.55 Q7.85 -3.25 7.9 0.0 7.85 3.25 5.55 5.55 3.25 7.85 0.0 7.9 -3.25 7.85 -5.6 5.55 -7.9 3.25 -7.9 0.0 -7.9 -3.25 -5.6 -5.55 L-5.1 -6.0 Q-2.95 -7.9 0.0 -7.9 2.9 -7.9 5.1 -6.0 Z" fill="none" stroke="#000000" stroke-linecap="round" stroke-linejoin="round" stroke-width="1.8"/>
    </g>
    <g id="sprite2" transform="matrix(1.0, 0.0, 0.0, 1.0, 21.75, 19.8)">
      <use ffdec:characterId="185" height="40.2" id="mc100" transform="matrix(1.0, 0.0, 0.0, 1.0, -20.85, -18.9)" width="44.9" xlink:href="#sprite3"/>
      <use ffdec:characterId="186" height="42.0" transform="matrix(1.0, 0.0, 0.0, 1.0, -21.75, -19.8)" width="46.7" xlink:href="#shape3"/>
    </g>
    <g id="sprite3" transform="matrix(1.0, 0.0, 0.0, 1.0, 22.45, 20.1)">
      <use ffdec:characterId="184" height="40.2" transform="matrix(1.0, 0.0, 0.0, 1.0, -22.45, -20.1)" width="44.9" xlink:href="#shape2"/>
    </g>
    <g id="shape2" transform="matrix(1.0, 0.0, 0.0, 1.0, 22.45, 20.1)">
      <path d="M19.65 14.55 Q17.15 20.95 1.3 19.95 -14.6 18.9 -22.45 8.0 L-2.75 -20.1 22.45 -11.85 Q22.4 -3.65 18.6 2.9 22.1 8.1 19.65 14.55" fill="#f5b87a" fill-rule="evenodd" stroke="none"/>
    </g>
    <g id="shape3" transform="matrix(1.0, 0.0, 0.0, 1.0, 21.75, 19.8)">
      <path d="M21.25 15.75 Q23.7 9.3 20.2 4.1 24.0 -2.45 24.05 -10.65 L-1.15 -18.9 -20.85 9.2 Q-13.0 20.1 2.9 21.15 18.75 22.15 21.25 15.75 Z" fill="none" stroke="#000000" stroke-linecap="round" stroke-linejoin="round" stroke-width="1.8"/>
    </g>
    <g id="sprite4" transform="matrix(1.0, 0.0, 0.0, 1.0, 33.85, 23.65)">
      <use ffdec:characterId="189" height="46.75" id="mc100" transform="matrix(1.0, 0.0, 0.0, 1.0, -32.95, -22.75)" width="60.8" xlink:href="#sprite5"/>
      <use ffdec:characterId="190" height="48.55" transform="matrix(1.0, 0.0, 0.0, 1.0, -33.85, -23.65)" width="62.6" xlink:href="#shape5"/>
    </g>
    <g id="sprite5" transform="matrix(1.0, 0.0, 0.0, 1.0, 30.4, 23.35)">
      <use ffdec:characterId="188" height="46.75" transform="matrix(1.0, 0.0, 0.0, 1.0, -30.4, -23.35)" width="60.8" xlink:href="#shape4"/>
    </g>
    <g id="shape4" transform="matrix(1.0, 0.0, 0.0, 1.0, 30.4, 23.35)">
      <path d="M-8.85 -22.75 Q11.15 -26.15 27.35 -10.85 32.1 -5.4 29.5 2.5 L27.85 6.15 Q28.0 2.55 15.35 3.75 2.7 4.9 -18.2 23.4 -31.65 12.85 -30.25 -3.25 -28.85 -19.35 -8.85 -22.75" fill="#003300" fill-rule="evenodd" stroke="none"/>
    </g>
    <g id="shape5" transform="matrix(1.0, 0.0, 0.0, 1.0, 33.85, 23.65)">
      <path d="M-11.4 -22.15 Q8.6 -25.55 24.8 -10.25 29.55 -4.8 26.95 3.1 L25.3 6.75 Q25.45 3.15 12.8 4.35 0.15 5.5 -20.75 24.0 -34.2 13.45 -32.8 -2.65 -31.4 -18.75 -11.4 -22.15 Z" fill="none" stroke="#000000" stroke-linecap="round" stroke-linejoin="round" stroke-width="1.8"/>
    </g>
    <g id="sprite6" transform="matrix(1.0, 0.0, 0.0, 1.0, 25.15, 13.8)">
      <use ffdec:characterId="192" height="28.0" transform="matrix(1.0, 0.0, 0.0, 1.0, -25.15, -13.8)" width="47.35" xlink:href="#shape6"/>
    </g>
    <g id="shape6" transform="matrix(1.0, 0.0, 0.0, 1.0, 25.15, 13.8)">
      <path d="M21.65 -4.85 Q6.5 -9.3 -11.2 3.25 -12.9 4.4 -14.6 6.8 L-19.0 12.5 Q-21.7 15.8 -25.15 12.75 -20.6 -3.1 -1.6 -10.0 13.7 -15.55 19.3 -12.95 23.5 -9.45 21.65 -4.85" fill="#000000" fill-opacity="0.5529412" fill-rule="evenodd" stroke="none"/>
    </g>
    <g id="sprite7" transform="matrix(1.0, 0.0, 0.0, 1.0, 14.95, 15.05)">
      <use ffdec:characterId="195" height="28.3" id="mc100" transform="matrix(1.0, 0.0, 0.0, 1.0, -14.05, -14.15)" width="30.45" xlink:href="#sprite8"/>
      <use ffdec:characterId="196" height="30.1" transform="matrix(1.0, 0.0, 0.0, 1.0, -14.95, -15.05)" width="32.25" xlink:href="#shape8"/>
    </g>
    <g id="sprite8" transform="matrix(1.0, 0.0, 0.0, 1.0, 15.2, 14.15)">
      <use ffdec:characterId="194" height="28.3" transform="matrix(1.0, 0.0, 0.0, 1.0, -15.2, -14.15)" width="30.45" xlink:href="#shape7"/>
    </g>
    <g id="shape7" transform="matrix(1.0, 0.0, 0.0, 1.0, 15.2, 14.15)">
      <path d="M2.6 -5.7 L4.0 -5.4 Q7.2 -12.4 14.3 -14.15 13.75 -10.2 10.9 -7.8 L11.25 -7.85 Q12.5 -7.85 13.4 -6.95 14.3 -6.05 14.3 -4.8 14.3 -3.55 13.4 -2.65 12.85 -2.1 12.25 -1.9 13.3 -1.9 14.0 -1.2 14.75 -0.45 14.75 0.6 14.75 1.65 14.0 2.35 L13.35 2.85 14.15 3.45 Q15.25 4.55 15.25 6.1 15.25 7.65 14.15 8.7 13.1 9.8 11.55 9.8 L9.95 9.45 9.95 10.0 Q9.95 11.7 8.7 12.9 7.5 14.15 5.8 14.15 4.1 14.15 2.85 12.9 L2.25 12.15 Q1.5 12.75 0.5 12.75 -0.7 12.75 -1.55 11.9 -2.1 11.35 -2.25 10.6 L-2.65 11.05 Q-3.65 12.05 -5.1 12.05 -6.55 12.05 -7.55 11.05 -8.55 10.05 -8.55 8.6 L-8.55 8.35 Q-9.4 9.1 -10.6 9.1 -11.95 9.1 -12.95 8.1 -13.85 7.2 -13.4 5.05 L-13.45 5.05 -14.35 4.4 Q-15.2 3.55 -15.2 2.35 -15.2 1.15 -14.35 0.25 -13.45 -0.6 -12.25 -0.6 -11.05 -0.6 -10.2 0.25 L-9.7 0.85 -9.65 0.85 Q-9.45 -0.1 -8.75 -0.8 -7.75 -1.8 -6.35 -1.8 L-5.7 -1.75 Q-6.3 -2.5 -6.3 -3.5 -6.3 -4.7 -5.45 -5.6 -4.55 -6.45 -3.35 -6.45 -2.15 -6.45 -1.3 -5.6 -0.45 -4.75 -0.4 -3.65 L0.3 -4.8 Q1.25 -5.7 2.6 -5.7" fill="#000000" fill-rule="evenodd" stroke="none"/>
    </g>
    <g id="shape8" transform="matrix(1.0, 0.0, 0.0, 1.0, 14.95, 15.05)">
      <path d="M4.7 -5.05 L5.15 -5.4 3.75 -5.7 Q2.4 -5.7 1.45 -4.8 0.95 -4.3 0.75 -3.65 0.7 -4.75 -0.15 -5.6 -1.0 -6.45 -2.2 -6.45 -3.4 -6.45 -4.3 -5.6 -5.15 -4.7 -5.15 -3.5 -5.15 -2.5 -4.55 -1.75 L-5.2 -1.8 Q-6.6 -1.8 -7.6 -0.8 -8.3 -0.1 -8.5 0.85 L-8.55 0.85 -9.05 0.25 Q-9.9 -0.6 -11.1 -0.6 -12.3 -0.6 -13.2 0.25 -14.05 1.15 -14.05 2.35 -14.05 3.55 -13.2 4.4 L-12.3 5.05 -12.25 5.05 Q-12.7 7.2 -11.8 8.1 -10.8 9.1 -9.45 9.1 -8.25 9.1 -7.4 8.35 L-7.4 8.6 Q-7.4 10.05 -6.4 11.05 -5.4 12.05 -3.95 12.05 -2.5 12.05 -1.5 11.05 L-1.1 10.6 Q-0.95 11.35 -0.4 11.9 0.45 12.75 1.65 12.75 2.65 12.75 3.4 12.15 L4.0 12.9 Q5.25 14.15 6.95 14.15 8.65 14.15 9.85 12.9 11.1 11.7 11.1 10.0 L11.1 9.45 12.7 9.8 Q14.25 9.8 15.3 8.7 16.4 7.65 16.4 6.1 16.4 4.55 15.3 3.45 L14.5 2.85 15.15 2.35 Q15.9 1.65 15.9 0.6 15.9 -0.45 15.15 -1.2 14.45 -1.9 13.4 -1.9 14.0 -2.1 14.55 -2.65 15.45 -3.55 15.45 -4.8 15.45 -6.05 14.55 -6.95 13.65 -7.85 12.4 -7.85 L12.05 -7.8 Q14.9 -10.2 15.45 -14.15 8.35 -12.4 5.15 -5.4" fill="none" stroke="#000000" stroke-linecap="round" stroke-linejoin="round" stroke-width="1.8"/>
    </g>
    <g id="shape9" transform="matrix(1.0, 0.0, 0.0, 1.0, 5.05, 2.55)">
      <path d="M-1.15 -1.7 L-0.45 -0.75 Q-0.65 1.0 -1.4 1.15 L-2.8 0.9 Q-3.35 0.6 -3.5 0.0 -3.65 -0.6 -3.3 -1.25 L-1.15 -1.7" fill="#000000" fill-rule="evenodd" stroke="none"/>
      <path d="M4.3 -1.45 Q0.1 -2.15 -4.3 -1.45" fill="none" stroke="#000000" stroke-linecap="round" stroke-linejoin="round" stroke-width="1.5"/>
    </g>
    <g id="shape10" transform="matrix(1.0, 0.0, 0.0, 1.0, 2.9, 2.85)">
      <path d="M2.15 -1.85 Q2.95 -1.0 2.9 0.2 2.8 1.4 1.9 2.2 1.0 2.95 -0.2 2.9 -1.4 2.85 -2.2 1.95 -3.0 1.0 -2.9 -0.15 -2.85 -1.35 -1.95 -2.1 -1.05 -2.95 0.15 -2.85 1.35 -2.8 2.15 -1.85" fill="#000000" fill-opacity="0.15294118" fill-rule="evenodd" stroke="none"/>
    </g>
    <g id="shape11" transform="matrix(1.0, 0.0, 0.0, 1.0, 14.05, 6.6)">
      <path d="M6.1 8.65 L10.65 -5.6 M10.9 4.15 L13.75 -4.6 M2.95 8.1 L6.2 -6.2 M-14.05 3.85 L-11.5 -4.35 M-10.85 4.4 L-7.85 -5.65 M-7.95 5.45 L-4.65 -6.05 M-5.0 6.25 L-1.4 -6.4 M-1.3 7.3 L1.95 -6.6" fill="none" stroke="#ff0000" stroke-linecap="round" stroke-linejoin="round" stroke-opacity="0.0" stroke-width="0.05"/>
    </g>
    <g id="shape12" transform="matrix(1.0, 0.0, 0.0, 1.0, -13.05, -10.35)">
      <path d="M16.9 16.25 Q16.9 16.75 17.85 16.75" fill="none" stroke="#000000" stroke-linecap="round" stroke-linejoin="round" stroke-width="0.5"/>
      <path d="M13.3 11.0 L15.7 10.6" fill="none" stroke="#000000" stroke-linecap="round" stroke-linejoin="round" stroke-width="0.5"/>
    </g>
  </defs>
</svg>
