<?xml version="1.0" encoding="UTF-8" standalone="no"?>
<svg xmlns:ffdec="https://www.free-decompiler.com/flash" xmlns:xlink="http://www.w3.org/1999/xlink" ffdec:objectType="frame" height="30.05px" width="27.75px" xmlns="http://www.w3.org/2000/svg">
  <g transform="matrix(1.0, 0.0, 0.0, 1.0, 0.35, 2.4)">
    <use ffdec:characterId="136" height="17.6" id="hide_hat2" transform="matrix(0.3935, 0.0, 0.0, 0.3935, 14.8875, 1.1875)" width="17.6" xlink:href="#sprite0"/>
    <use ffdec:characterId="139" height="21.25" id="mc101" transform="matrix(0.3935, 0.0, 0.0, 0.3935, -0.3483, 17.8203)" width="21.5" xlink:href="#sprite2"/>
    <use ffdec:characterId="139" height="21.25" id="mc102" transform="matrix(-0.3935, 0.0, 0.0, 0.3935, 27.3983, 17.8203)" width="21.5" xlink:href="#sprite2"/>
    <use ffdec:characterId="141" height="58.35" id="hide_hat" transform="matrix(0.3935, 0.0, 0.0, 0.3935, 1.2453, 1.6207)" width="62.8" xlink:href="#sprite4"/>
    <use ffdec:characterId="142" height="43.2" id="hide_hat_8" transform="matrix(0.3935, 0.0, 0.0, 0.3935, 2.9306, 7.8512)" width="52.2" xlink:href="#sprite6"/>
    <use ffdec:characterId="145" height="38.1" id="mc105" transform="matrix(0.3935, 0.0, 0.0, 0.3935, 4.0143, 12.6545)" width="47.2" xlink:href="#sprite7"/>
    <use ffdec:characterId="147" height="25.3" id="mc106" transform="matrix(0.3935, 0.0, 0.0, 0.3935, 5.5549, 15.6746)" width="40.0" xlink:href="#sprite9"/>
    <use ffdec:characterId="148" height="4.7" transform="matrix(0.3935, 0.0, 0.0, 0.3935, 6.4769, 19.218)" width="11.3" xlink:href="#shape10"/>
    <use ffdec:characterId="148" height="4.7" transform="matrix(-0.3935, 0.0, 0.0, 0.3935, 20.1231, 19.268)" width="11.3" xlink:href="#shape10"/>
    <use ffdec:characterId="81" height="5.75" transform="matrix(0.3935, 0.0, 0.0, 0.3935, 5.909, 21.0786)" width="5.8" xlink:href="#shape11"/>
    <use ffdec:characterId="81" height="5.75" transform="matrix(0.3935, 0.0, 0.0, 0.3935, 18.259, 21.0786)" width="5.8" xlink:href="#shape11"/>
    <use ffdec:characterId="151" height="0.0" id="hat" transform="matrix(0.3898, 0.0, 0.0, 0.3898, 1.4, -2.4)" width="0.0" xlink:href="#sprite10"/>
  </g>
  <defs>
    <g id="sprite0" transform="matrix(1.0, 0.0, 0.0, 1.0, 8.8, 8.8)">
      <use ffdec:characterId="135" height="15.8" id="mc100" transform="matrix(1.0, 0.0, 0.0, 1.0, -7.9, -7.9)" width="15.8" xlink:href="#sprite1"/>
      <use ffdec:characterId="36" height="17.6" transform="matrix(1.0, 0.0, 0.0, 1.0, -8.8, -8.8)" width="17.6" xlink:href="#shape1"/>
    </g>
    <g id="sprite1" transform="matrix(1.0, 0.0, 0.0, 1.0, 7.9, 7.9)">
      <use ffdec:characterId="34" height="15.8" transform="matrix(1.0, 0.0, 0.0, 1.0, -7.9, -7.9)" width="15.8" xlink:href="#shape0"/>
    </g>
    <g id="shape0" transform="matrix(1.0, 0.0, 0.0, 1.0, 7.9, 7.9)">
      <path d="M7.9 0.0 Q7.85 3.25 5.55 5.55 3.25 7.85 0.0 7.9 -3.25 7.85 -5.6 5.55 -7.9 3.25 -7.9 0.0 -7.9 -3.25 -5.6 -5.55 L-5.1 -6.0 Q-2.95 -7.9 0.0 -7.9 2.9 -7.9 5.1 -6.0 L5.55 -5.55 Q7.85 -3.25 7.9 0.0" fill="#ff6699" fill-rule="evenodd" stroke="none"/>
    </g>
    <g id="shape1" transform="matrix(1.0, 0.0, 0.0, 1.0, 8.8, 8.8)">
      <path d="M5.1 -6.0 L5.55 -5.55 Q7.85 -3.25 7.9 0.0 7.85 3.25 5.55 5.55 3.25 7.85 0.0 7.9 -3.25 7.85 -5.6 5.55 -7.9 3.25 -7.9 0.0 -7.9 -3.25 -5.6 -5.55 L-5.1 -6.0 Q-2.95 -7.9 0.0 -7.9 2.9 -7.9 5.1 -6.0 Z" fill="none" stroke="#000000" stroke-linecap="round" stroke-linejoin="round" stroke-width="1.8"/>
    </g>
    <g id="sprite2" transform="matrix(1.0, 0.0, 0.0, 1.0, 35.45, 10.75)">
      <use ffdec:characterId="137" height="19.45" id="mc100" transform="matrix(1.0, 0.0, 0.0, 1.0, -34.55, -9.85)" width="19.7" xlink:href="#sprite3"/>
      <use ffdec:characterId="138" height="21.25" transform="matrix(1.0, 0.0, 0.0, 1.0, -35.45, -10.75)" width="21.5" xlink:href="#shape3"/>
    </g>
    <g id="sprite3" transform="matrix(1.0, 0.0, 0.0, 1.0, 9.85, 9.75)">
      <use ffdec:characterId="118" height="19.45" transform="matrix(1.0, 0.0, 0.0, 1.0, -9.85, -9.75)" width="19.7" xlink:href="#shape2"/>
    </g>
    <g id="shape2" transform="matrix(1.0, 0.0, 0.0, 1.0, 9.85, 9.75)">
      <path d="M0.8 -6.4 L0.9 -6.4 Q2.25 -6.4 3.2 -5.45 3.85 -4.8 4.05 -3.95 4.9 -3.75 5.55 -3.1 6.5 -2.15 6.5 -0.8 L6.5 -0.7 6.6 -0.7 Q7.95 -0.7 8.9 0.25 9.85 1.15 9.85 2.5 9.85 3.85 8.9 4.8 L7.55 5.6 7.65 6.45 Q7.65 7.8 6.7 8.75 5.75 9.7 4.4 9.7 3.1 9.7 2.2 8.8 1.3 9.55 0.15 9.55 -1.2 9.55 -2.15 8.6 -3.1 7.65 -3.1 6.3 -3.1 5.3 -2.55 4.5 L-3.2 4.0 -3.75 3.3 Q-4.55 3.85 -5.55 3.85 -6.9 3.85 -7.85 2.9 -8.8 1.95 -8.8 0.6 -8.8 -0.4 -8.25 -1.2 L-8.9 -1.7 Q-9.85 -2.65 -9.85 -4.0 -9.85 -5.35 -8.9 -6.25 -8.0 -7.2 -6.65 -7.2 L-5.6 -7.05 Q-5.45 -8.05 -4.7 -8.8 -3.75 -9.75 -2.4 -9.75 -1.1 -9.75 -0.15 -8.8 0.8 -7.85 0.8 -6.5 L0.8 -6.4" fill="#000000" fill-rule="evenodd" stroke="none"/>
    </g>
    <g id="shape3" transform="matrix(1.0, 0.0, 0.0, 1.0, 35.45, 10.75)">
      <path d="M-33.6 -1.8 Q-34.55 -2.75 -34.55 -4.1 -34.55 -5.45 -33.6 -6.35 -32.7 -7.3 -31.35 -7.3 L-30.3 -7.15 Q-30.15 -8.15 -29.4 -8.9 -28.45 -9.85 -27.1 -9.85 -25.8 -9.85 -24.85 -8.9 -23.9 -7.95 -23.9 -6.6 L-23.9 -6.5 -23.8 -6.5 Q-22.45 -6.5 -21.5 -5.55 -20.85 -4.9 -20.65 -4.05 L-19.15 -3.2 Q-18.2 -2.25 -18.2 -0.9 L-18.2 -0.8 -18.1 -0.8 Q-16.75 -0.8 -15.8 0.15 -14.85 1.05 -14.85 2.4 -14.85 3.75 -15.8 4.7 L-17.15 5.5 -17.05 6.35 Q-17.05 7.7 -18.0 8.65 -18.95 9.6 -20.3 9.6 -21.6 9.6 -22.5 8.7 -23.4 9.45 -24.55 9.45 -25.9 9.45 -26.85 8.5 -27.8 7.55 -27.8 6.2 -27.8 5.2 -27.25 4.4 L-27.9 3.9 -28.45 3.2 Q-29.25 3.75 -30.25 3.75 -31.6 3.75 -32.55 2.8 -33.5 1.85 -33.5 0.5 -33.5 -0.5 -32.95 -1.3 L-33.6 -1.8 Z" fill="none" stroke="#000000" stroke-linecap="round" stroke-linejoin="round" stroke-width="1.8"/>
    </g>
    <g id="sprite4" transform="matrix(1.0, 0.0, 0.0, 1.0, 31.4, 30.7)">
      <use ffdec:characterId="140" height="53.5" id="mc100" transform="matrix(1.0, 0.0, 0.0, 1.057, -30.5, -29.7749)" width="61.0" xlink:href="#sprite5"/>
      <use ffdec:characterId="32" height="58.35" transform="matrix(1.0, 0.0, 0.0, 1.0, -31.4, -30.7)" width="62.8" xlink:href="#shape5"/>
    </g>
    <g id="sprite5" transform="matrix(1.0, 0.0, 0.0, 1.0, 30.5, 26.75)">
      <use ffdec:characterId="30" height="53.5" transform="matrix(1.0, 0.0, 0.0, 1.0, -30.5, -26.75)" width="61.0" xlink:href="#shape4"/>
    </g>
    <g id="shape4" transform="matrix(1.0, 0.0, 0.0, 1.0, 30.5, 26.75)">
      <path d="M30.5 0.0 Q30.5 11.05 21.6 18.9 12.65 26.7 0.0 26.75 -12.65 26.7 -21.6 18.9 -30.55 11.05 -30.5 0.0 -30.55 -11.1 -21.6 -18.95 -12.65 -26.8 0.0 -26.75 12.65 -26.8 21.6 -18.95 30.5 -11.1 30.5 0.0" fill="#003300" fill-rule="evenodd" stroke="none"/>
    </g>
    <g id="shape5" transform="matrix(1.0, 0.0, 0.0, 1.0, 31.4, 30.7)">
      <path d="M30.5 -1.5 Q30.5 10.2 21.6 18.45 12.65 26.75 0.0 26.75 -12.65 26.75 -21.6 18.45 -30.55 10.2 -30.5 -1.5 -30.55 -13.25 -21.6 -21.5 -12.65 -29.8 0.0 -29.8 12.65 -29.8 21.6 -21.5 30.5 -13.25 30.5 -1.5 Z" fill="none" stroke="#000000" stroke-linecap="round" stroke-linejoin="round" stroke-width="1.8"/>
    </g>
    <g id="sprite6" transform="matrix(1.0, 0.0, 0.0, 1.0, 26.1, 21.6)">
      <use ffdec:characterId="125" height="43.2" transform="matrix(1.0, 0.0, 0.0, 1.0, -26.1, -21.6)" width="52.2" xlink:href="#shape6"/>
    </g>
    <g id="shape6" transform="matrix(1.0, 0.0, 0.0, 1.0, 26.1, 21.6)">
      <path d="M1.85 -14.1 L0.9 -14.15 0.25 -14.15 -1.0 -14.15 -1.6 -14.1 -1.65 -14.1 Q-9.85 -13.55 -15.8 -8.05 -18.65 -5.5 -20.25 -2.45 -22.45 1.65 -22.45 6.6 -22.45 15.2 -15.8 21.3 L-15.4 21.6 -18.45 19.2 Q-26.1 12.2 -26.1 2.35 -26.1 -3.35 -23.6 -8.1 -21.7 -11.6 -18.45 -14.55 -11.6 -20.85 -2.15 -21.5 L-1.6 -21.5 -0.4 -21.55 0.0 -21.55 0.3 -21.55 1.85 -21.5 Q11.45 -21.0 18.45 -14.55 23.7 -9.8 25.35 -3.65 26.1 -0.8 26.1 2.35 26.1 5.45 25.35 8.3 23.7 14.4 18.45 19.2 L17.65 19.95 Q21.05 16.25 22.3 11.8 22.95 9.3 22.95 6.6 22.95 3.9 22.3 1.4 20.8 -3.9 16.3 -8.05 10.2 -13.65 1.85 -14.1" fill="#000000" fill-opacity="0.5529412" fill-rule="evenodd" stroke="none"/>
    </g>
    <g id="sprite7" transform="matrix(1.0, 0.0, 0.0, 1.0, 23.6, 19.05)">
      <use ffdec:characterId="143" height="36.35" id="mc100" transform="matrix(1.0, 0.0, 0.0, 1.0, -22.7, -18.2)" width="45.4" xlink:href="#sprite8"/>
      <use ffdec:characterId="144" height="38.1" transform="matrix(1.0, 0.0, 0.0, 1.0, -23.6, -19.05)" width="47.2" xlink:href="#shape8"/>
    </g>
    <g id="sprite8" transform="matrix(1.0, 0.0, 0.0, 1.0, 22.7, 18.2)">
      <use ffdec:characterId="127" height="26.2" transform="matrix(0.4954, 0.0, 0.0, 1.3881, -22.7123, -18.204)" width="91.65" xlink:href="#shape7"/>
    </g>
    <g id="shape7" transform="matrix(1.0, 0.0, 0.0, 1.0, 45.85, 13.15)">
      <path d="M45.8 -0.05 Q45.8 1.65 44.45 3.25 41.45 6.55 32.35 9.2 18.95 13.05 -0.05 13.05 -19.0 13.05 -32.4 9.2 -45.85 5.4 -45.85 -0.05 -45.85 -3.15 -41.4 -5.75 -38.15 -7.65 -32.4 -9.3 -20.4 -12.75 -3.85 -13.1 L-0.05 -13.1 Q18.95 -13.15 32.35 -9.3 41.45 -6.7 44.45 -3.35 45.8 -1.75 45.8 -0.05" fill="#f5b87a" fill-rule="evenodd" stroke="none"/>
    </g>
    <g id="shape8" transform="matrix(1.0, 0.0, 0.0, 1.0, 23.6, 19.05)">
      <path d="M16.05 -12.8 Q20.55 -9.2 22.05 -4.55 22.7 -2.4 22.7 0.0 22.7 2.35 22.05 4.55 20.55 9.15 16.05 12.8 9.4 18.15 0.0 18.15 -9.4 18.15 -16.05 12.8 -22.7 7.5 -22.7 0.0 -22.7 -4.3 -20.5 -7.9 -18.9 -10.55 -16.05 -12.8 -10.1 -17.6 -1.9 -18.1 L0.0 -18.1 Q9.4 -18.15 16.05 -12.8 Z" fill="none" stroke="#000000" stroke-linecap="round" stroke-linejoin="round" stroke-width="1.8"/>
    </g>
    <g id="sprite9" transform="matrix(1.0, 0.0, 0.0, 1.0, 0.75, 0.7)">
      <use ffdec:characterId="146" height="25.3" transform="matrix(1.0, 0.0, 0.0, 1.0, -0.75, -0.7)" width="40.0" xlink:href="#shape9"/>
    </g>
    <g id="shape9" transform="matrix(1.0, 0.0, 0.0, 1.0, 0.75, 0.7)">
      <path d="M9.7 0.05 Q4.0 0.0 0.0 1.6" fill="none" stroke="#000000" stroke-linecap="round" stroke-linejoin="round" stroke-width="1.5"/>
      <path d="M28.75 0.05 Q34.45 0.0 38.5 1.6" fill="none" stroke="#000000" stroke-linecap="round" stroke-linejoin="round" stroke-width="1.5"/>
      <path d="M21.45 21.3 Q21.45 22.3 20.7 23.05 19.95 23.8 18.9 23.85 17.8 23.8 17.05 23.05 16.3 22.3 16.3 21.3" fill="none" stroke="#000000" stroke-linecap="round" stroke-linejoin="round" stroke-width="1.5"/>
    </g>
    <g id="shape10" transform="matrix(1.0, 0.0, 0.0, 1.0, 5.65, 2.75)">
      <path d="M4.9 -0.95 Q-0.6 -2.4 -4.9 -1.85" fill="none" stroke="#000000" stroke-linecap="round" stroke-linejoin="round" stroke-width="1.5"/>
      <path d="M1.3 -1.6 L2.35 -0.85 Q2.75 -0.15 2.6 0.55 2.45 1.25 1.75 1.6 1.1 2.05 0.45 1.9 -0.3 1.7 -0.7 1.0 -1.05 0.4 -0.9 -0.3 -0.75 -1.0 -0.1 -1.45 L1.3 -1.6" fill="#000000" fill-rule="evenodd" stroke="none"/>
    </g>
    <g id="shape11" transform="matrix(1.0, 0.0, 0.0, 1.0, 2.9, 2.85)">
      <path d="M2.15 -1.85 Q2.95 -1.0 2.9 0.2 2.8 1.4 1.9 2.2 1.0 2.95 -0.2 2.9 -1.4 2.85 -2.2 1.95 -3.0 1.0 -2.9 -0.15 -2.85 -1.35 -1.95 -2.1 -1.05 -2.95 0.15 -2.85 1.35 -2.8 2.15 -1.85" fill="#000000" fill-opacity="0.15294118" fill-rule="evenodd" stroke="none"/>
    </g>
  </defs>
</svg>
