<?xml version="1.0" encoding="utf-8"?>
<!-- Generator: Adobe Illustrator 24.2.1, SVG Export Plug-In . SVG Version: 6.00 Build 0)  -->
<svg version="1.1" id="Capa_1" xmlns="http://www.w3.org/2000/svg" xmlns:xlink="http://www.w3.org/1999/xlink" x="0px" y="0px"
	 viewBox="0 0 38.5 38.5" style="enable-background:new 0 0 38.5 38.5;" xml:space="preserve">
<style type="text/css">
	.st0{fill:#FFFFFF;}
</style>
<g>
	<path class="st0" d="M23.15,19.93h-2.93v9.42h-4.34v-9.42h-2.06v-3.69h2.06v-2.39c0-1.71,0.81-4.38,4.38-4.38l3.22,0.01v3.58h-2.33
		c-0.38,0-0.92,0.19-0.92,1.01v2.17h3.31L23.15,19.93z M23.66,20.04"/>
	<path class="st0" d="M38.49,19.25c0,10.63-8.62,19.24-19.24,19.24S0.01,29.87,0.01,19.25S8.62,0,19.25,0S38.49,8.62,38.49,19.25z
		 M19.25,3.29c-8.81,0-15.96,7.14-15.96,15.96S10.44,35.2,19.25,35.2s15.96-7.14,15.96-15.96S28.06,3.29,19.25,3.29z"/>
</g>
</svg>
