<?xml version="1.0" encoding="utf-8"?>
<!-- Generator: Adobe Illustrator 24.2.1, SVG Export Plug-In . SVG Version: 6.00 Build 0)  -->
<svg version="1.1" id="Capa_1" xmlns="http://www.w3.org/2000/svg" xmlns:xlink="http://www.w3.org/1999/xlink" x="0px" y="0px"
	 viewBox="0 0 39.81 39.81" style="enable-background:new 0 0 39.81 39.81;" xml:space="preserve">
<style type="text/css">
	.st0{fill:#FFFFFF;}
</style>
<g>
	<path class="st0" d="M39.8,19.9c0,10.99-8.91,19.9-19.9,19.9S0,30.89,0,19.9S8.91,0,19.9,0S39.8,8.91,39.8,19.9z M19.9,3.4
		c-9.11,0-16.5,7.39-16.5,16.5s7.39,16.5,16.5,16.5s16.5-7.39,16.5-16.5S29.02,3.4,19.9,3.4z"/>
	<g>
		<g>
			<path class="st0" d="M24.7,9.99h-9c-3.05,0-5.53,2.48-5.53,5.53v9c0,3.05,2.48,5.53,5.53,5.53h9c3.05,0,5.53-2.48,5.53-5.53v-9
				C30.23,12.47,27.75,9.99,24.7,9.99z M28.6,24.5c0,2.17-1.76,3.93-3.93,3.93h-8.95c-2.17,0-3.93-1.76-3.93-3.93v-8.95
				c0-2.17,1.76-3.93,3.93-3.93h8.95c2.17,0,3.93,1.76,3.93,3.93V24.5z"/>
			<path class="st0" d="M20.19,14.74c-2.92,0-5.29,2.37-5.29,5.29s2.37,5.29,5.29,5.29s5.29-2.37,5.29-5.29
				C25.48,17.1,23.11,14.74,20.19,14.74z M20.19,23.47c-1.9,0-3.45-1.54-3.45-3.45c0-1.9,1.54-3.45,3.45-3.45
				c1.9,0,3.45,1.54,3.45,3.45C23.64,21.93,22.1,23.47,20.19,23.47z"/>
			<path class="st0" d="M26.85,14.56c0,0.65-0.53,1.19-1.19,1.19s-1.19-0.53-1.19-1.19c0-0.66,0.53-1.19,1.19-1.19
				C26.32,13.38,26.85,13.91,26.85,14.56z"/>
		</g>
	</g>
</g>
</svg>
