<?xml version="1.0" encoding="utf-8"?>
<!-- Generator: Adobe Illustrator 24.2.1, SVG Export Plug-In . SVG Version: 6.00 Build 0)  -->
<svg version="1.1" id="Capa_1" xmlns="http://www.w3.org/2000/svg" xmlns:xlink="http://www.w3.org/1999/xlink" x="0px" y="0px"
	 viewBox="0 0 52.86 52.85" style="enable-background:new 0 0 52.86 52.85;" xml:space="preserve">
<style type="text/css">
	.st0{fill:#FFFFFF;}
</style>
<g>
	<path class="st0" d="M52.83,26.42c0,14.57-11.81,26.39-26.39,26.39S0.06,40.99,0.06,26.42S11.87,0.03,26.45,0.03
		S52.83,11.85,52.83,26.42z M26.45,4.54c-12.08,0-21.88,9.8-21.88,21.88s9.8,21.88,21.88,21.88s21.88-9.8,21.88-21.88
		S38.53,4.54,26.45,4.54z"/>
</g>
<g>
	<g>
		<g>
			<path class="st0" d="M27.86,24.41c0.3-0.34,0.55-0.69,0.87-0.98c0.96-0.91,2.1-1.36,3.42-1.35c0.73,0.01,1.45,0.06,2.15,0.26
				c1.61,0.46,2.54,1.57,2.99,3.14c0.33,1.18,0.4,2.39,0.4,3.6c0,2.56-0.01,5.12,0,7.67c0,0.24-0.07,0.3-0.3,0.3
				c-1.32-0.01-2.64-0.01-3.95,0c-0.23,0-0.28-0.07-0.28-0.29c0.01-2.43,0.01-4.87,0-7.3c0-0.61-0.04-1.22-0.21-1.81
				c-0.32-1.09-1.1-1.65-2.24-1.59c-1.56,0.08-2.38,0.86-2.57,2.45c-0.05,0.38-0.07,0.76-0.07,1.14c0,2.37,0,4.73,0.01,7.1
				c0,0.24-0.06,0.31-0.3,0.3c-1.33-0.01-2.65-0.01-3.98,0c-0.21,0-0.27-0.06-0.27-0.27c0.01-4.69,0.01-9.37,0-14.06
				c0-0.23,0.08-0.29,0.29-0.28c1.26,0.01,2.52,0.01,3.78,0c0.23,0,0.29,0.07,0.29,0.29C27.85,23.29,27.86,23.85,27.86,24.41z"/>
			<path class="st0" d="M20.64,29.77c0,2.32,0,4.64,0.01,6.96c0,0.26-0.06,0.34-0.33,0.33c-1.32-0.01-2.63-0.01-3.95,0
				c-0.21,0-0.27-0.05-0.27-0.27c0.01-4.69,0.01-9.39,0-14.08c0-0.19,0.05-0.26,0.25-0.26c1.34,0.01,2.67,0.01,4.01,0
				c0.26,0,0.29,0.1,0.29,0.32C20.64,25.09,20.64,27.43,20.64,29.77z"/>
			<path class="st0" d="M21,17.79c0,1.46-1.18,2.64-2.63,2.64c-1.43,0-2.63-1.19-2.63-2.62c0-1.45,1.19-2.64,2.64-2.64
				C19.82,15.17,21,16.35,21,17.79z"/>
		</g>
	</g>
</g>
</svg>
