<?xml version="1.0" encoding="utf-8"?>
<!-- Generator: Adobe Illustrator 24.2.1, SVG Export Plug-In . SVG Version: 6.00 Build 0)  -->
<svg version="1.1" id="Capa_1" xmlns="http://www.w3.org/2000/svg" xmlns:xlink="http://www.w3.org/1999/xlink" x="0px" y="0px"
	 viewBox="0 0 53.17 53.16" style="enable-background:new 0 0 53.17 53.16;" xml:space="preserve">
<style type="text/css">
	.st0{fill:#FFFFFF;}
</style>
<g>
	<path class="st0" d="M53.16,26.58c0,14.68-11.9,26.57-26.57,26.57S0.02,41.26,0.02,26.58S11.92,0.01,26.59,0.01
		S53.16,11.91,53.16,26.58z M26.59,4.55c-12.17,0-22.03,9.86-22.03,22.03s9.86,22.03,22.03,22.03s22.03-9.86,22.03-22.03
		S38.76,4.55,26.59,4.55z"/>
</g>
<g>
	<g>
		<path class="st0" d="M17.26,30.14l2.34,6.67c0,0,0.17,0.57,0.57,0.57c0.23,0-0.28,0.07-0.48-1.23C19.45,34.72,19,30.42,19,30.42
			l14.19-11.61L17.26,30.14z"/>
		<path class="st0" d="M20.56,30.73l-0.24,5.98c0,0-0.02,1.27,1.29,0.06c1.92-1.78,3.62-3.27,3.62-3.27L20.56,30.73z"/>
		<g>
			<path class="st0" d="M16.69,28.92l-6.08-1.98c0,0-0.73-0.29-0.49-0.96c0.05-0.14,0.15-0.26,0.44-0.46
				C11.9,24.58,35.5,16.1,35.5,16.1s0.67-0.22,1.06-0.08c0.18,0.07,0.29,0.15,0.39,0.43c0.04,0.1,0.06,0.32,0.05,0.54
				c0,0.16-0.02,0.3-0.04,0.53c-0.14,2.32-4.44,19.63-4.44,19.63s-0.26,1.01-1.18,1.05c-0.34,0.01-0.74-0.06-1.23-0.48
				c-1.81-1.56-8.06-5.76-9.44-6.68c-0.08-0.05-0.1-0.12-0.11-0.19c-0.02-0.1,0.09-0.22,0.09-0.22s10.89-9.68,11.18-10.69
				c0.02-0.08-0.06-0.12-0.18-0.08C30.92,20.11,18.38,28.03,17,28.9C16.92,28.95,16.69,28.92,16.69,28.92z"/>
		</g>
	</g>
</g>
</svg>
