<?xml version="1.0" encoding="utf-8"?>
<!-- Generator: Adobe Illustrator 24.2.1, SVG Export Plug-In . SVG Version: 6.00 Build 0)  -->
<svg version="1.1" id="Capa_1" xmlns="http://www.w3.org/2000/svg" xmlns:xlink="http://www.w3.org/1999/xlink" x="0px" y="0px"
	 viewBox="0 0 53.22 53.22" style="enable-background:new 0 0 53.22 53.22;" xml:space="preserve">
<style type="text/css">
	.st0{fill:#FFFFFF;}
</style>
<g>
	<path class="st0" d="M53.21,26.62c0,14.69-11.91,26.61-26.61,26.61C11.91,53.22,0,41.31,0,26.62S11.91,0.01,26.61,0.01
		C41.3,0.01,53.21,11.92,53.21,26.62z M26.61,4.56c-12.18,0-22.06,9.88-22.06,22.06s9.88,22.06,22.06,22.06s22.06-9.88,22.06-22.06
		C48.67,14.43,38.79,4.56,26.61,4.56z"/>
</g>
<g>
	<g>
		<g>
			<path class="st0" d="M21.88,34.57c0.02,0.02,0.05,0.04,0.07,0.07c0.23,0.16,0.39,0.39,0.6,0.56c0.67,0.54,1.42,0.83,2.29,0.88
				c2.05,0.13,3.83-1.41,4.06-3.44c0.01-0.1,0.01-0.2,0.01-0.3c0-6.09,0-12.19,0-18.28c0-0.41,0-0.41,0.41-0.41
				c0.93,0,1.85,0,2.78,0c0.09,0,0.18-0.02,0.26,0.04c0,0,0.01,0.01,0.02,0.01c0.04,0.05,0.06,0.1,0.07,0.16
				c0.36,1.64,1.22,2.95,2.58,3.94c0.08,0.06,0.16,0.14,0.24,0.2c0.06,0.05,0.12,0.1,0.18,0.15c0.22,0.12,0.37,0.32,0.56,0.48
				c0.75,0.62,1.6,1.06,2.54,1.3c0.08,0.02,0.18,0.02,0.24,0.1c0,0.01,0.01,0.01,0.02,0.01c0.06,0.06,0.05,0.13,0.05,0.2
				c0,1.07,0,2.15,0,3.22c0,0.25-0.03,0.26-0.28,0.26c-0.79,0-1.56-0.11-2.32-0.28c-1.31-0.3-2.53-0.84-3.65-1.57
				c-0.06-0.04-0.12-0.12-0.18-0.09c-0.08,0.04-0.04,0.14-0.04,0.21c0,3.02,0.01,6.05-0.01,9.07c-0.01,2.11-0.68,4.01-2.07,5.62
				c-1.47,1.71-3.34,2.71-5.58,2.98c-1.73,0.21-3.37-0.1-4.92-0.87c-0.25-0.12-0.49-0.27-0.72-0.44c-0.07-0.06-0.14-0.13-0.21-0.19
				c-0.54-0.44-0.91-1.02-1.26-1.6c-0.54-0.91-0.88-1.88-1.05-2.92c-0.1-0.59-0.15-1.19-0.11-1.79c0.11-1.94,0.76-3.66,2.01-5.16
				c1.05-1.25,2.36-2.13,3.9-2.66c0.64-0.22,1.31-0.36,1.99-0.4c0.13-0.01,0.25-0.04,0.38-0.03c0.06,0,0.12,0,0.17,0.04
				c0.01,0.01,0.01,0.01,0.02,0.01c0.04,0.06,0.03,0.13,0.03,0.19c0,1.09,0,2.18,0,3.27c0,0.04,0,0.08,0,0.12
				c-0.01,0.11-0.06,0.15-0.16,0.12c-0.3-0.08-0.6-0.12-0.91-0.14c-0.48-0.03-0.95,0.04-1.4,0.21c-1.5,0.55-2.41,1.63-2.6,3.21
				c-0.19,1.56,0.43,2.8,1.72,3.7C21.67,34.41,21.78,34.48,21.88,34.57z"/>
			<path class="st0" d="M32.36,13.69c-0.06,0-0.12,0.01-0.18,0.01c-0.99,0-1.98,0-2.98,0c-0.23,0-0.23,0-0.23,0.22
				c0,6.06,0,12.12,0,18.19c0,0.42-0.03,0.84-0.16,1.24c-0.47,1.42-1.42,2.35-2.87,2.69c-1.56,0.36-2.89-0.12-3.94-1.33
				c-0.02-0.02-0.03-0.05-0.04-0.07c0.3,0.12,0.6,0.24,0.92,0.3c1.02,0.2,1.98,0.05,2.86-0.5c1.02-0.63,1.62-1.55,1.83-2.72
				c0.04-0.22,0.05-0.45,0.05-0.67c0-6.07,0-12.15,0-18.22c0-0.28-0.04-0.25,0.24-0.25c1.4,0,2.8,0,4.2,0c0.03,0,0.07,0,0.1,0
				c0.14,0,0.15,0,0.15,0.15C32.3,13.04,32.3,13.37,32.36,13.69z"/>
			<path class="st0" d="M24.87,23.65c-0.86,0.03-1.69,0.16-2.51,0.43c-1.18,0.39-2.22,1-3.13,1.84c-1.19,1.1-2.01,2.44-2.46,4
				c-0.16,0.56-0.25,1.12-0.29,1.7c-0.02,0.35-0.03,0.69-0.01,1.04c0.05,0.96,0.25,1.89,0.62,2.79c0.41,1,0.98,1.89,1.73,2.67
				c0.01,0.02,0.02,0.04,0.04,0.05c-0.17-0.07-0.3-0.2-0.45-0.31c-1.39-1.1-2.37-2.49-2.91-4.18c-0.19-0.59-0.3-1.19-0.36-1.81
				c-0.04-0.45-0.05-0.89-0.02-1.34c0.07-1.02,0.31-2.01,0.73-2.95c0.44-0.98,1.05-1.85,1.81-2.6c0.89-0.88,1.93-1.53,3.11-1.96
				c0.74-0.27,1.5-0.43,2.29-0.48c0.57-0.04,1.13-0.03,1.7,0.04c0.08,0.01,0.12,0.02,0.12,0.12C24.87,23.02,24.87,23.34,24.87,23.65
				z"/>
			<path class="st0" d="M38.78,20.04c-1.13-0.24-2.12-0.75-2.98-1.52c-0.13-0.11-0.26-0.22-0.36-0.36c0.04,0,0.07,0.02,0.11,0.04
				c0.68,0.39,1.42,0.65,2.19,0.78c0.3,0.05,0.61,0.08,0.92,0.08c0.13,0,0.13,0,0.13,0.13C38.79,19.47,38.78,19.76,38.78,20.04z"/>
		</g>
	</g>
</g>
</svg>
