<?xml version="1.0" encoding="utf-8"?>
<!-- Generator: Adobe Illustrator 24.2.1, SVG Export Plug-In . SVG Version: 6.00 Build 0)  -->
<svg version="1.1" id="Capa_1" xmlns="http://www.w3.org/2000/svg" xmlns:xlink="http://www.w3.org/1999/xlink" x="0px" y="0px"
	 viewBox="0 0 53.21 53.19" style="enable-background:new 0 0 53.21 53.19;" xml:space="preserve">
<style type="text/css">
	.st0{fill:#FFFFFF;}
</style>
<g>
	<g>
		<path class="st0" d="M40.59,19.49c-0.97,0.43-2.02,0.72-3.12,0.86c1.12-0.67,1.98-1.74,2.39-3.01c-1.05,0.62-2.21,1.08-3.45,1.32
			c-0.99-1.06-2.4-1.72-3.97-1.72c-3,0-5.44,2.43-5.44,5.44c0,0.43,0.05,0.84,0.14,1.24c-4.52-0.23-8.52-2.39-11.21-5.68
			c-0.47,0.8-0.74,1.74-0.74,2.73c0,1.89,0.96,3.55,2.42,4.53c-0.89-0.03-1.73-0.27-2.46-0.68c0,0.02,0,0.05,0,0.07
			c0,2.63,1.87,4.83,4.36,5.33c-0.46,0.12-0.94,0.19-1.43,0.19c-0.35,0-0.69-0.03-1.02-0.1c0.69,2.16,2.7,3.73,5.08,3.78
			c-1.86,1.46-4.21,2.33-6.75,2.33c-0.44,0-0.87-0.03-1.3-0.08c2.4,1.54,5.26,2.44,8.33,2.44c10,0,15.47-8.28,15.47-15.47
			c0-0.24-0.01-0.47-0.02-0.7C38.94,21.54,39.86,20.58,40.59,19.49L40.59,19.49z M40.59,19.49"/>
	</g>
	<path class="st0" d="M53.2,26.6c0,14.69-11.91,26.59-26.59,26.59S0.02,41.29,0.02,26.6S11.93,0.01,26.61,0.01S53.2,11.92,53.2,26.6
		z M26.61,4.55c-12.18,0-22.05,9.87-22.05,22.05s9.87,22.05,22.05,22.05s22.05-9.87,22.05-22.05S38.79,4.55,26.61,4.55z"/>
</g>
</svg>
