<?xml version="1.0" encoding="utf-8"?>
<!-- Generator: Adobe Illustrator 24.2.1, SVG Export Plug-In . SVG Version: 6.00 Build 0)  -->
<svg version="1.1" id="Capa_1" xmlns="http://www.w3.org/2000/svg" xmlns:xlink="http://www.w3.org/1999/xlink" x="0px" y="0px"
	 viewBox="0 0 52.66 53.09" style="enable-background:new 0 0 52.66 53.09;" xml:space="preserve">
<style type="text/css">
	.st0{fill-rule:evenodd;clip-rule:evenodd;fill:#FFFFFF;}
</style>
<g>
	<g>
		<g>
			<g>
				<g>
					<g>
						<path class="st0" d="M38.91,31.7c-0.65-0.35-3.83-2.07-4.42-2.31c-0.6-0.24-1.03-0.37-1.5,0.28c-0.46,0.64-1.78,2.08-2.18,2.5
							c-0.4,0.43-0.79,0.47-1.44,0.11c-0.64-0.35-2.74-1.13-5.18-3.47c-1.89-1.82-3.14-4.03-3.5-4.7c-0.36-0.67,0-1.02,0.34-1.33
							c0.31-0.29,0.69-0.75,1.03-1.12c0.34-0.37,0.46-0.64,0.7-1.07c0.24-0.43,0.14-0.82-0.01-1.16c-0.15-0.34-1.35-3.63-1.85-4.97
							c-0.5-1.34-1.06-1.14-1.44-1.16c-0.38-0.01-0.82-0.08-1.26-0.1c-0.44-0.02-1.16,0.12-1.79,0.76
							c-0.63,0.64-2.39,2.17-2.51,5.41c-0.12,3.24,2.12,6.47,2.44,6.92c0.31,0.45,4.28,7.48,10.88,10.37
							c6.6,2.89,6.64,2.01,7.85,1.95c1.21-0.06,3.96-1.45,4.57-2.97c0.61-1.52,0.66-2.84,0.5-3.12
							C39.99,32.23,39.55,32.05,38.91,31.7L38.91,31.7z M26.8,47.33c-4.36,0-8.43-1.31-11.82-3.56l-8.26,2.64l2.68-7.98
							c-2.57-3.54-4.09-7.9-4.09-12.6c0-11.86,9.64-21.5,21.49-21.5c11.85,0,21.5,9.64,21.5,21.5C48.3,37.68,38.65,47.33,26.8,47.33
							L26.8,47.33z M26.8,0.01c-14.26,0-25.82,11.56-25.82,25.82c0,4.88,1.35,9.44,3.71,13.33L0.02,53.02l14.3-4.58
							c3.7,2.05,7.95,3.21,12.48,3.21c14.26,0,25.83-11.56,25.83-25.82C52.62,11.57,41.06,0.01,26.8,0.01L26.8,0.01z"/>
					</g>
				</g>
			</g>
		</g>
	</g>
</g>
</svg>
