<?xml version="1.0" encoding="utf-8"?>
<!-- Generator: Adobe Illustrator 24.2.1, SVG Export Plug-In . SVG Version: 6.00 Build 0)  -->
<svg version="1.1" id="Capa_1" xmlns="http://www.w3.org/2000/svg" xmlns:xlink="http://www.w3.org/1999/xlink" x="0px" y="0px"
	 viewBox="0 0 53.09 53.08" style="enable-background:new 0 0 53.09 53.08;" xml:space="preserve">
<style type="text/css">
	.st0{fill:#FFFFFF;}
</style>
<g>
	<path class="st0" d="M53.08,26.54c0,14.66-11.88,26.54-26.54,26.54S0.01,41.19,0.01,26.54S11.89,0,26.54,0S53.08,11.88,53.08,26.54
		z M26.54,4.53c-12.15,0-22,9.85-22,22s9.85,22,22,22s22-9.85,22-22S38.7,4.53,26.54,4.53z"/>
</g>
<g>
	<path class="st0" d="M39.98,19.36c-0.33-1.25-1.32-2.23-2.57-2.57c-2.26-0.61-11.34-0.61-11.34-0.61s-9.08,0-11.34,0.61
		c-1.25,0.33-2.23,1.32-2.57,2.57c-0.61,2.26-0.61,6.99-0.61,6.99s0,4.72,0.61,6.99c0.33,1.25,1.32,2.23,2.57,2.57
		c2.26,0.61,11.34,0.61,11.34,0.61s9.08,0,11.34-0.61c1.25-0.33,2.23-1.32,2.57-2.57c0.61-2.26,0.61-6.99,0.61-6.99
		S40.59,21.63,39.98,19.36z M23.17,30.7v-8.71l7.54,4.36L23.17,30.7z"/>
</g>
</svg>
