<?xml version="1.0" encoding="UTF-8" standalone="no"?>
<svg xmlns:ffdec="https://www.free-decompiler.com/flash" xmlns:xlink="http://www.w3.org/1999/xlink" ffdec:objectType="frame" height="119.95px" width="90.65px" xmlns="http://www.w3.org/2000/svg">
  <g transform="matrix(1.0, 0.0, 0.0, 1.0, -0.1, 16.7)">
    <clipPath id="clipPath0" transform="matrix(1.0, 0.0, 0.0, 1.0, 0.0, 0.0)">
      <path d="M77.5 13.45 Q90.75 26.75 90.75 45.55 90.75 64.35 77.5 77.6 64.2 90.85 45.4 90.85 26.6 90.85 13.35 77.6 0.1 64.35 0.1 45.55 0.1 26.75 13.35 13.45 26.6 0.2 45.4 0.2 64.2 0.2 77.5 13.45" fill="#ff0000" fill-rule="evenodd" stroke="none"/>
    </clipPath>
    <g clip-path="url(#clipPath0)">
      <use ffdec:characterId="2" height="22.2" id="mc1400" transform="matrix(1.0, 0.0, 0.0, 1.0, 55.0, 66.6)" width="11.4" xlink:href="#sprite0"/>
      <use ffdec:characterId="6" height="9.35" id="mc1300" transform="matrix(1.0, 0.0, 0.0, 1.0, 53.85, 67.1)" width="9.35" xlink:href="#sprite1"/>
      <use ffdec:characterId="8" height="22.2" id="mc1200" transform="matrix(1.0, 0.0, 0.0, 1.0, 25.45, 66.6)" width="11.4" xlink:href="#sprite3"/>
      <use ffdec:characterId="12" height="9.1" id="mc1100" transform="matrix(1.0, 0.0, 0.0, 1.0, 28.45, 67.35)" width="9.35" xlink:href="#sprite4"/>
      <use ffdec:characterId="16" height="26.2" id="mc1000" transform="matrix(1.0, 0.0, 0.0, 1.0, 32.25, 65.2)" width="27.3" xlink:href="#sprite6"/>
      <use ffdec:characterId="108" height="5.25" id="mc900" transform="matrix(1.0, 0.0, 0.0, 1.0, 41.6, 75.75)" width="6.7" xlink:href="#sprite8"/>
      <use ffdec:characterId="18" height="16.25" id="mc800" transform="matrix(1.0, 0.0, 0.0, 1.0, 48.65, 87.0)" width="10.95" xlink:href="#sprite9"/>
      <use ffdec:characterId="20" height="16.25" id="mc700" transform="matrix(1.0, 0.0, 0.0, 1.0, 32.5, 87.0)" width="10.95" xlink:href="#sprite10"/>
      <use ffdec:characterId="24" height="11.7" id="mc600" transform="matrix(1.0, 0.0, 0.0, 1.0, 44.6, 85.5)" width="15.45" xlink:href="#sprite11"/>
      <use ffdec:characterId="28" height="11.7" id="mc500" transform="matrix(1.0, 0.0, 0.0, 1.0, 31.85, 85.5)" width="15.45" xlink:href="#sprite13"/>
      <use ffdec:characterId="110" height="64.2" id="mc400" transform="matrix(1.0, 0.0, 0.0, 1.0, 16.25, 8.2)" width="60.15" xlink:href="#sprite15"/>
      <use ffdec:characterId="115" height="18.55" id="mc300" transform="matrix(1.0, 0.0, 0.0, 1.0, 19.7, 37.65)" width="51.1" xlink:href="#sprite16"/>
      <use ffdec:characterId="117" height="3.8" id="mc200" transform="matrix(1.0, 0.0, 0.0, 1.0, 26.9, 61.6)" width="35.35" xlink:href="#sprite18"/>
      <use ffdec:characterId="396" height="0.0" id="hat" transform="matrix(1.0, 0.0, 0.0, 1.0, 14.3, -16.7)" width="0.0" xlink:href="#sprite19"/>
    </g>
  </g>
  <defs>
    <g id="sprite0" transform="matrix(1.0, 0.0, 0.0, 1.0, 0.75, 0.75)">
      <use ffdec:characterId="1" height="22.2" transform="matrix(1.0, 0.0, 0.0, 1.0, -0.75, -0.75)" width="11.4" xlink:href="#shape1"/>
    </g>
    <g id="shape1" transform="matrix(1.0, 0.0, 0.0, 1.0, 0.75, 0.75)">
      <path d="M1.9 16.4 L0.1 4.85 Q-0.4 0.45 2.3 0.0 5.3 0.05 6.9 6.2 L9.55 15.05 Q10.95 19.3 7.05 20.5 3.0 21.65 1.9 16.4" fill="#e1f1e1" fill-rule="evenodd" stroke="none"/>
      <path d="M1.9 16.4 L0.1 4.85 Q-0.4 0.45 2.3 0.0 5.3 0.05 6.9 6.2 L9.55 15.05 Q10.95 19.3 7.05 20.5 3.0 21.65 1.9 16.4 Z" fill="none" stroke="#000000" stroke-linecap="round" stroke-linejoin="round" stroke-width="1.5"/>
    </g>
    <g id="sprite1" transform="matrix(1.0, 0.0, 0.0, 1.0, 0.75, 0.75)">
      <use ffdec:characterId="4" height="7.85" id="mc100" transform="matrix(1.0, 0.0, 0.0, 1.0, 0.0, 0.0)" width="7.85" xlink:href="#sprite2"/>
      <use ffdec:characterId="5" height="9.35" transform="matrix(1.0, 0.0, 0.0, 1.0, -0.75, -0.75)" width="9.35" xlink:href="#shape3"/>
    </g>
    <g id="sprite2" transform="matrix(1.0, 0.0, 0.0, 1.0, 0.0, 0.0)">
      <use ffdec:characterId="3" height="7.85" transform="matrix(1.0, 0.0, 0.0, 1.0, 0.0, 0.0)" width="7.85" xlink:href="#shape2"/>
    </g>
    <g id="shape2" transform="matrix(1.0, 0.0, 0.0, 1.0, 0.0, 0.0)">
      <path d="M5.25 5.5 L4.3 7.85 2.55 6.45 0.85 7.7 Q-0.5 5.15 0.3 2.7 1.35 -0.2 4.05 0.0 6.75 0.15 7.85 5.2 L6.75 6.2 5.25 5.5" fill="#4f5e17" fill-rule="evenodd" stroke="none"/>
    </g>
    <g id="shape3" transform="matrix(1.0, 0.0, 0.0, 1.0, 0.75, 0.75)">
      <path d="M5.25 5.5 L4.3 7.85 2.55 6.45 0.85 7.7 Q-0.5 5.15 0.3 2.7 1.35 -0.2 4.05 0.0 6.75 0.15 7.85 5.2 L6.75 6.2 5.25 5.5 Z" fill="none" stroke="#000000" stroke-linecap="round" stroke-linejoin="round" stroke-width="1.5"/>
    </g>
    <g id="sprite3" transform="matrix(1.0, 0.0, 0.0, 1.0, 0.75, 0.75)">
      <use ffdec:characterId="7" height="22.2" transform="matrix(1.0, 0.0, 0.0, 1.0, -0.75, -0.75)" width="11.4" xlink:href="#shape4"/>
    </g>
    <g id="shape4" transform="matrix(1.0, 0.0, 0.0, 1.0, 0.75, 0.75)">
      <path d="M8.0 16.4 Q6.9 21.65 2.85 20.5 -1.05 19.3 0.35 15.05 L3.0 6.2 Q4.6 0.05 7.6 0.0 10.3 0.45 9.8 4.85 L8.0 16.4" fill="#e1f1e1" fill-rule="evenodd" stroke="none"/>
      <path d="M8.0 16.4 L9.8 4.85 Q10.3 0.45 7.6 0.0 4.6 0.05 3.0 6.2 L0.35 15.05 Q-1.05 19.3 2.85 20.5 6.9 21.65 8.0 16.4 Z" fill="none" stroke="#000000" stroke-linecap="round" stroke-linejoin="round" stroke-width="1.5"/>
    </g>
    <g id="sprite4" transform="matrix(1.0, 0.0, 0.0, 1.0, 0.75, 0.75)">
      <use ffdec:characterId="10" height="7.6" id="mc100" transform="matrix(1.0, 0.0, 0.0, 1.0, 0.0, 0.0)" width="7.85" xlink:href="#sprite5"/>
      <use ffdec:characterId="11" height="9.1" transform="matrix(1.0, 0.0, 0.0, 1.0, -0.75, -0.75)" width="9.35" xlink:href="#shape6"/>
    </g>
    <g id="sprite5" transform="matrix(1.0, 0.0, 0.0, 1.0, 0.0, 0.0)">
      <use ffdec:characterId="9" height="7.6" transform="matrix(1.0, 0.0, 0.0, 1.0, 0.0, 0.0)" width="7.85" xlink:href="#shape5"/>
    </g>
    <g id="shape5" transform="matrix(1.0, 0.0, 0.0, 1.0, 0.0, 0.0)">
      <path d="M7.0 7.45 L5.3 6.2 3.55 7.6 2.6 5.25 1.1 5.95 0.0 5.45 Q0.9 0.55 3.7 0.05 6.5 -0.45 7.55 2.45 8.35 4.9 7.0 7.45" fill="#4f5e17" fill-rule="evenodd" stroke="none"/>
    </g>
    <g id="shape6" transform="matrix(1.0, 0.0, 0.0, 1.0, 0.75, 0.75)">
      <path d="M7.0 7.45 L5.3 6.2 3.55 7.6 2.6 5.25 1.1 5.95 0.0 5.45 Q0.9 0.55 3.7 0.05 6.5 -0.45 7.55 2.45 8.35 4.9 7.0 7.45 Z" fill="none" stroke="#000000" stroke-linecap="round" stroke-linejoin="round" stroke-width="1.5"/>
    </g>
    <g id="sprite6" transform="matrix(1.0, 0.0, 0.0, 1.0, 0.75, 0.75)">
      <use ffdec:characterId="14" height="24.7" id="mc100" transform="matrix(1.0, 0.0, 0.0, 1.0, 0.0, 0.0)" width="25.8" xlink:href="#sprite7"/>
      <use ffdec:characterId="15" height="26.2" transform="matrix(1.0, 0.0, 0.0, 1.0, -0.75, -0.75)" width="27.3" xlink:href="#shape8"/>
    </g>
    <g id="sprite7" transform="matrix(1.0, 0.0, 0.0, 1.0, 0.0, 0.0)">
      <use ffdec:characterId="13" height="24.7" transform="matrix(1.0, 0.0, 0.0, 1.0, 0.0, 0.0)" width="25.8" xlink:href="#shape7"/>
    </g>
    <g id="shape7" transform="matrix(1.0, 0.0, 0.0, 1.0, 0.0, 0.0)">
      <path d="M9.65 24.6 Q-0.55 25.2 0.05 21.4 1.0 12.75 2.95 3.7 3.75 0.8 9.35 0.2 13.55 -0.2 16.35 0.15 22.25 1.0 23.25 3.65 L25.8 20.7 Q25.7 25.05 18.05 24.6 L9.65 24.6" fill="#4f5e17" fill-rule="evenodd" stroke="none"/>
    </g>
    <g id="shape8" transform="matrix(1.0, 0.0, 0.0, 1.0, 0.75, 0.75)">
      <path d="M9.65 24.6 Q-0.55 25.2 0.05 21.4 1.0 12.75 2.95 3.7 3.75 0.8 9.35 0.2 13.55 -0.2 16.35 0.15 22.25 1.0 23.25 3.65 L25.8 20.7 Q25.7 25.05 18.05 24.6 L9.65 24.6 Z" fill="none" stroke="#000000" stroke-linecap="round" stroke-linejoin="round" stroke-width="1.5"/>
    </g>
    <g id="sprite8" transform="matrix(1.0, 0.0, 0.0, 1.0, 0.5, 0.5)">
      <use ffdec:characterId="86" height="5.25" transform="matrix(1.0, 0.0, 0.0, 1.0, -0.5, -0.5)" width="6.7" xlink:href="#shape9"/>
    </g>
    <g id="shape9" transform="matrix(1.0, 0.0, 0.0, 1.0, 0.5, 0.5)">
      <path d="M0.0 2.55 L0.2 0.0 2.85 0.65 5.7 0.65 5.55 3.25 3.25 2.65 2.05 4.25 0.0 2.55" fill="#e1f1e1" fill-rule="evenodd" stroke="none"/>
      <path d="M0.0 2.55 L2.05 4.25 3.25 2.65 5.55 3.25 5.7 0.65 2.85 0.65 0.2 0.0 0.0 2.55 Z" fill="none" stroke="#000000" stroke-linecap="round" stroke-linejoin="round" stroke-width="1.0"/>
    </g>
    <g id="sprite9" transform="matrix(1.0, 0.0, 0.0, 1.0, 0.75, 0.75)">
      <use ffdec:characterId="17" height="16.25" transform="matrix(1.0, 0.0, 0.0, 1.0, -0.75, -0.75)" width="10.95" xlink:href="#shape10"/>
    </g>
    <g id="shape10" transform="matrix(1.0, 0.0, 0.0, 1.0, 0.75, 0.75)">
      <path d="M0.0 11.25 L0.0 2.05 Q3.65 -1.55 8.2 1.1 L9.45 9.9 Q9.5 14.05 4.9 14.75 0.7 14.85 0.0 11.25" fill="#e1f1e1" fill-rule="evenodd" stroke="none"/>
      <path d="M0.0 11.25 L0.0 2.05 Q3.65 -1.55 8.2 1.1 L9.45 9.9 Q9.5 14.05 4.9 14.75 0.7 14.85 0.0 11.25 Z" fill="none" stroke="#000000" stroke-linecap="round" stroke-linejoin="round" stroke-width="1.5"/>
    </g>
    <g id="sprite10" transform="matrix(1.0, 0.0, 0.0, 1.0, 0.75, 0.75)">
      <use ffdec:characterId="19" height="16.25" transform="matrix(1.0, 0.0, 0.0, 1.0, -0.75, -0.75)" width="10.95" xlink:href="#shape11"/>
    </g>
    <g id="shape11" transform="matrix(1.0, 0.0, 0.0, 1.0, 0.75, 0.75)">
      <path d="M9.45 11.25 Q8.75 14.85 4.55 14.75 -0.05 14.05 0.0 9.9 L1.25 1.1 Q5.8 -1.55 9.45 2.05 L9.45 11.25" fill="#e1f1e1" fill-rule="evenodd" stroke="none"/>
      <path d="M9.45 11.25 L9.45 2.05 Q5.8 -1.55 1.25 1.1 L0.0 9.9 Q-0.05 14.05 4.55 14.75 8.75 14.85 9.45 11.25 Z" fill="none" stroke="#000000" stroke-linecap="round" stroke-linejoin="round" stroke-width="1.5"/>
    </g>
    <g id="sprite11" transform="matrix(1.0, 0.0, 0.0, 1.0, 0.75, 0.75)">
      <use ffdec:characterId="22" height="10.2" id="mc100" transform="matrix(1.0, 0.0, 0.0, 1.0, 0.0, 0.0)" width="13.95" xlink:href="#sprite12"/>
      <use ffdec:characterId="23" height="11.7" transform="matrix(1.0, 0.0, 0.0, 1.0, -0.75, -0.75)" width="15.45" xlink:href="#shape13"/>
    </g>
    <g id="sprite12" transform="matrix(1.0, 0.0, 0.0, 1.0, 0.0, 0.0)">
      <use ffdec:characterId="21" height="10.2" transform="matrix(1.0, 0.0, 0.0, 1.0, 0.0, 0.0)" width="13.95" xlink:href="#shape12"/>
    </g>
    <g id="shape12" transform="matrix(1.0, 0.0, 0.0, 1.0, 0.0, 0.0)">
      <path d="M13.8 9.55 L11.95 7.95 10.15 9.2 8.85 7.65 7.05 9.75 5.3 8.3 3.6 10.2 3.7 7.55 0.2 7.65 0.0 0.0 13.5 0.0 Q14.2 4.7 13.8 9.55" fill="#43647d" fill-rule="evenodd" stroke="none"/>
    </g>
    <g id="shape13" transform="matrix(1.0, 0.0, 0.0, 1.0, 0.75, 0.75)">
      <path d="M0.2 7.65 L3.7 7.55 3.6 10.2 5.3 8.3 7.05 9.75 8.85 7.65 10.15 9.2 11.95 7.95 13.8 9.55 Q14.2 4.7 13.5 0.0 L0.0 0.0" fill="none" stroke="#000000" stroke-linecap="round" stroke-linejoin="round" stroke-width="1.5"/>
      <path d="M0.0 0.0 L0.2 7.65" fill="none" stroke="#000000" stroke-linecap="round" stroke-linejoin="round" stroke-width="1.0"/>
    </g>
    <g id="sprite13" transform="matrix(1.0, 0.0, 0.0, 1.0, 0.75, 0.75)">
      <use ffdec:characterId="26" height="10.2" id="mc100" transform="matrix(1.0, 0.0, 0.0, 1.0, 0.0, 0.0)" width="13.95" xlink:href="#sprite14"/>
      <use ffdec:characterId="27" height="11.7" transform="matrix(1.0, 0.0, 0.0, 1.0, -0.75, -0.75)" width="15.45" xlink:href="#shape15"/>
    </g>
    <g id="sprite14" transform="matrix(1.0, 0.0, 0.0, 1.0, 0.0, 0.0)">
      <use ffdec:characterId="25" height="10.2" transform="matrix(1.0, 0.0, 0.0, 1.0, 0.0, 0.0)" width="13.95" xlink:href="#shape14"/>
    </g>
    <g id="shape14" transform="matrix(1.0, 0.0, 0.0, 1.0, 0.0, 0.0)">
      <path d="M10.25 7.55 L10.35 10.2 8.65 8.3 6.9 9.75 5.1 7.65 3.8 9.2 2.0 7.95 0.15 9.55 Q-0.25 4.7 0.45 0.0 L13.95 0.0 13.75 7.65 10.25 7.55" fill="#43647d" fill-rule="evenodd" stroke="none"/>
    </g>
    <g id="shape15" transform="matrix(1.0, 0.0, 0.0, 1.0, 0.75, 0.75)">
      <path d="M13.75 7.65 L10.25 7.55 10.35 10.2 8.65 8.3 6.9 9.75 5.1 7.65 3.8 9.2 2.0 7.95 0.15 9.55 Q-0.25 4.7 0.45 0.0 L13.95 0.0" fill="none" stroke="#000000" stroke-linecap="round" stroke-linejoin="round" stroke-width="1.5"/>
      <path d="M13.95 0.0 L13.75 7.65" fill="none" stroke="#000000" stroke-linecap="round" stroke-linejoin="round" stroke-width="1.0"/>
    </g>
    <g id="sprite15" transform="matrix(1.0, 0.0, 0.0, 1.0, 0.75, 0.75)">
      <use ffdec:characterId="109" height="64.2" transform="matrix(1.0, 0.0, 0.0, 1.0, -0.75, -0.75)" width="60.15" xlink:href="#shape16"/>
    </g>
    <g id="shape16" transform="matrix(1.0, 0.0, 0.0, 1.0, 0.75, 0.75)">
      <path d="M12.35 8.1 Q14.3 4.6 19.5 5.3 19.95 2.0 22.6 3.3 23.5 0.1 27.65 1.25 32.75 -1.75 36.7 2.5 40.0 1.25 42.25 3.8 43.55 5.9 42.15 8.0 40.7 8.45 39.45 9.2 37.9 10.2 36.6 11.7 32.25 8.65 29.9 7.85 L27.75 7.6 18.75 11.15 12.35 8.1 M21.45 7.95 Q19.3 6.05 18.4 8.1 19.3 6.05 21.45 7.95 M33.35 3.25 Q31.15 1.4 29.65 2.75 31.15 1.4 33.35 3.25 M22.8 7.1 Q23.2 4.5 25.95 5.65 25.1 2.85 27.65 1.25 25.1 2.85 25.95 5.65 23.2 4.5 22.8 7.1 M35.7 8.3 Q38.45 7.2 39.45 9.2 38.45 7.2 35.7 8.3 M38.7 6.3 Q35.9 3.9 33.65 6.1 31.15 5.75 29.9 7.85 31.15 5.75 33.65 6.1 35.9 3.9 38.7 6.3" fill="#f2d3e4" fill-rule="evenodd" stroke="none"/>
      <path d="M42.15 8.0 L45.55 7.45 Q59.2 17.85 58.6 42.4 58.5 50.1 50.35 56.65 47.9 58.65 44.95 60.0 38.1 56.8 33.65 57.95 26.95 60.15 20.6 57.3 12.6 57.5 12.4 59.35 L8.25 56.65 Q0.15 50.1 0.0 42.4 -0.5 18.65 12.3 8.1 L12.35 8.1 18.75 11.15 27.75 7.6 29.9 7.85 Q32.25 8.65 36.6 11.7 37.9 10.2 39.45 9.2 40.7 8.45 42.15 8.0" fill="#e1f1e1" fill-rule="evenodd" stroke="none"/>
      <path d="M44.95 60.0 Q38.25 63.0 29.3 62.65 19.45 63.05 12.4 59.35 12.6 57.5 20.6 57.3 26.95 60.15 33.65 57.95 38.1 56.8 44.95 60.0" fill="#c3d2c3" fill-rule="evenodd" stroke="none"/>
      <path d="M42.15 8.0 L45.55 7.45 Q59.2 17.85 58.6 42.4 58.5 50.1 50.35 56.65 47.9 58.65 44.95 60.0 38.25 63.0 29.3 62.65 19.45 63.05 12.4 59.35 L8.25 56.65 Q0.15 50.1 0.0 42.4 -0.5 18.65 12.3 8.1 L12.35 8.1 Q14.3 4.6 19.5 5.3 19.95 2.0 22.6 3.3 23.5 0.1 27.65 1.25 32.75 -1.75 36.7 2.5 40.0 1.25 42.25 3.8 43.55 5.9 42.15 8.0 40.7 8.45 39.45 9.2 37.9 10.2 36.6 11.7 32.25 8.65 29.9 7.85 L27.75 7.6 18.75 11.15 12.35 8.1" fill="none" stroke="#000000" stroke-linecap="round" stroke-linejoin="round" stroke-width="1.5"/>
      <path d="M29.9 7.85 Q31.15 5.75 33.65 6.1 35.9 3.9 38.7 6.3 M39.45 9.2 Q38.45 7.2 35.7 8.3 M27.65 1.25 Q25.1 2.85 25.95 5.65 23.2 4.5 22.8 7.1 M29.65 2.75 Q31.15 1.4 33.35 3.25 M18.4 8.1 Q19.3 6.05 21.45 7.95" fill="none" stroke="#000000" stroke-linecap="round" stroke-linejoin="round" stroke-width="1.0"/>
    </g>
    <g id="sprite16" transform="matrix(1.0, 0.0, 0.0, 1.0, 0.5, 0.5)">
      <use ffdec:characterId="111" height="15.6" transform="matrix(1.0, 0.0, 0.0, 1.0, 0.0, 1.95)" width="50.1" xlink:href="#shape17"/>
      <use ffdec:characterId="113" height="15.8" id="mc101" transform="matrix(1.0, 0.0, 0.0, 1.0, 1.6, 0.0)" width="46.95" xlink:href="#sprite17"/>
      <use ffdec:characterId="114" height="18.55" transform="matrix(1.0, 0.0, 0.0, 1.0, -0.5, -0.5)" width="51.1" xlink:href="#shape19"/>
    </g>
    <g id="shape17" transform="matrix(1.0, 0.0, 0.0, 1.0, 0.0, -1.95)">
      <path d="M45.65 1.95 Q46.7 2.45 47.6 3.35 50.1 5.8 50.1 9.2 50.1 12.6 47.6 15.1 45.05 17.55 41.4 17.55 37.85 17.55 35.35 15.1 33.9 13.7 33.25 12.0 L34.5 13.5 Q36.85 15.8 40.3 15.8 43.7 15.8 46.15 13.5 48.55 11.15 48.55 7.9 48.55 4.65 46.15 2.3 L45.65 1.95 M4.45 1.95 L4.0 2.3 Q1.6 4.65 1.6 7.9 1.6 11.15 4.0 13.5 6.45 15.8 9.85 15.8 13.25 15.8 15.65 13.5 L16.9 12.0 Q16.25 13.7 14.8 15.1 12.3 17.55 8.7 17.55 5.05 17.55 2.5 15.1 0.0 12.6 0.0 9.2 0.0 5.8 2.5 3.35 L4.45 1.95" fill="#be4141" fill-rule="evenodd" stroke="none"/>
    </g>
    <g id="sprite17" transform="matrix(1.0, 0.0, 0.0, 1.0, 0.0, 0.0)">
      <use ffdec:characterId="112" height="15.8" transform="matrix(1.0, 0.0, 0.0, 1.0, 0.0, 0.0)" width="46.95" xlink:href="#shape18"/>
    </g>
    <g id="shape18" transform="matrix(1.0, 0.0, 0.0, 1.0, 0.0, 0.0)">
      <path d="M44.55 2.3 Q46.95 4.65 46.95 7.9 46.95 11.15 44.55 13.5 42.1 15.8 38.7 15.8 35.25 15.8 32.9 13.5 L31.65 12.0 Q30.45 10.2 30.45 7.9 30.45 4.65 32.9 2.3 35.25 0.0 38.7 0.0 41.8 0.0 44.05 1.95 L44.55 2.3 M16.5 7.9 Q16.5 10.2 15.3 12.0 L14.05 13.5 Q11.65 15.8 8.25 15.8 4.85 15.8 2.4 13.5 0.0 11.15 0.0 7.9 0.0 4.65 2.4 2.3 L2.85 1.95 Q5.15 0.0 8.25 0.0 11.65 0.0 14.05 2.3 16.5 4.65 16.5 7.9" fill="#e4db53" fill-rule="evenodd" stroke="none"/>
    </g>
    <g id="shape19" transform="matrix(1.0, 0.0, 0.0, 1.0, 0.5, 0.5)">
      <path d="M45.65 1.95 L46.15 2.3 Q48.55 4.65 48.55 7.9 48.55 11.15 46.15 13.5 43.7 15.8 40.3 15.8 36.85 15.8 34.5 13.5 L33.25 12.0 Q33.9 13.7 35.35 15.1 37.85 17.55 41.4 17.55 45.05 17.55 47.6 15.1 50.1 12.6 50.1 9.2 50.1 5.8 47.6 3.35 46.7 2.45 45.65 1.95 43.4 0.0 40.3 0.0 36.85 0.0 34.5 2.3 32.05 4.65 32.05 7.9 32.05 10.2 33.25 12.0 M18.1 7.9 Q18.1 10.2 16.9 12.0 16.25 13.7 14.8 15.1 12.3 17.55 8.7 17.55 5.05 17.55 2.5 15.1 0.0 12.6 0.0 9.2 0.0 5.8 2.5 3.35 L4.45 1.95 Q6.75 0.0 9.85 0.0 13.25 0.0 15.65 2.3 18.1 4.65 18.1 7.9 M16.9 12.0 L15.65 13.5 Q13.25 15.8 9.85 15.8 6.45 15.8 4.0 13.5 1.6 11.15 1.6 7.9 1.6 4.65 4.0 2.3 L4.45 1.95" fill="none" stroke="#000000" stroke-linecap="round" stroke-linejoin="round" stroke-width="1.0"/>
    </g>
    <g id="sprite18" transform="matrix(1.0, 0.0, 0.0, 1.0, 0.5, 0.5)">
      <use ffdec:characterId="116" height="3.8" transform="matrix(1.0, 0.0, 0.0, 1.0, -0.5, -0.5)" width="35.35" xlink:href="#shape20"/>
    </g>
    <g id="shape20" transform="matrix(1.0, 0.0, 0.0, 1.0, 0.5, 0.5)">
      <path d="M0.0 1.75 Q-0.25 -0.25 9.55 0.05 L29.35 0.6 Q34.35 1.2 34.35 2.8" fill="none" stroke="#000000" stroke-linecap="round" stroke-linejoin="round" stroke-width="1.0"/>
    </g>
  </defs>
</svg>
