<?xml version="1.0" encoding="UTF-8" standalone="no"?>
<svg xmlns:ffdec="https://www.free-decompiler.com/flash" xmlns:xlink="http://www.w3.org/1999/xlink" ffdec:objectType="frame" height="149.7px" width="126.7px" xmlns="http://www.w3.org/2000/svg">
  <g transform="matrix(1.0, 0.0, 0.0, 1.0, 73.25, 146.65)">
    <use ffdec:characterId="170" height="24.15" id="mc131430" transform="matrix(0.9427, -0.3305, 0.3305, 0.9427, -2.9049, -61.9092)" width="11.2" xlink:href="#sprite0"/>
    <use ffdec:characterId="172" height="28.05" id="mc121430" transform="matrix(0.9427, -0.3305, 0.3305, 0.9427, -13.3549, -61.4592)" width="25.65" xlink:href="#sprite1"/>
    <use ffdec:characterId="174" height="16.45" id="mc111430" transform="matrix(0.9427, -0.3305, 0.3305, 0.9427, 1.2951, -43.5092)" width="11.1" xlink:href="#sprite2"/>
    <use ffdec:characterId="178" height="6.6" id="mc101430" transform="matrix(0.9427, -0.3305, 0.3305, 0.9427, -0.2049, -38.7092)" width="16.55" xlink:href="#sprite3"/>
    <use ffdec:characterId="179" height="16.45" id="mc91430" transform="matrix(0.9427, -0.3305, 0.3305, 0.9427, 1.2951, -43.5092)" width="11.1" xlink:href="#sprite5"/>
    <use ffdec:characterId="183" height="9.55" id="mc81430" transform="matrix(0.9427, -0.3305, 0.3305, 0.9427, -5.7549, -41.9592)" width="25.1" xlink:href="#sprite6"/>
    <use ffdec:characterId="187" height="5.8" id="mc71430" transform="matrix(0.9427, -0.3305, 0.3305, 0.9427, -0.8049, -37.8092)" width="18.45" xlink:href="#sprite8"/>
    <use ffdec:characterId="188" height="24.15" id="mc61430" transform="matrix(0.3177, -0.9471, 0.9471, 0.3177, -1.2986, -56.678)" width="11.2" xlink:href="#sprite10"/>
    <use ffdec:characterId="190" height="15.25" id="hide_hat1" transform="matrix(0.9102, 0.4112, -0.4112, 0.9102, 2.1576, -128.2715)" width="10.75" xlink:href="#sprite11"/>
    <use ffdec:characterId="309" height="62.5" id="mc41430" transform="matrix(0.9102, 0.4112, -0.4112, 0.9102, -14.2364, -133.1025)" width="73.65" xlink:href="#sprite12"/>
    <use ffdec:characterId="197" height="22.2" id="hide_hat" transform="matrix(0.9102, 0.4112, -0.4112, 0.9102, 8.8151, -124.9349)" width="22.0" xlink:href="#sprite13"/>
    <use ffdec:characterId="311" height="20.3" transform="matrix(1.0, 0.0, 0.0, 1.0, -63.85, -137.25)" width="21.25" xlink:href="#morphshape0"/>
    <use ffdec:characterId="296" height="0.0" id="hat" transform="matrix(1.0, 0.0, 0.0, 1.0, -0.05, 0.0)" width="0.0" xlink:href="#sprite14"/>
  </g>
  <defs>
    <g id="sprite0" transform="matrix(1.0, 0.0, 0.0, 1.0, 0.75, 0.75)">
      <use ffdec:characterId="3" height="24.15" transform="matrix(1.0, 0.0, 0.0, 1.0, -0.75, -0.75)" width="11.2" xlink:href="#shape0"/>
    </g>
    <g id="shape0" transform="matrix(1.0, 0.0, 0.0, 1.0, 0.75, 0.75)">
      <path d="M3.65 20.35 Q1.8 19.25 1.4 15.5 L0.05 16.9 Q1.4 13.45 0.25 6.9 -0.9 -0.75 3.0 0.1 5.85 -0.15 7.05 6.45 8.2 8.55 9.7 8.05 9.2 9.85 7.7 9.45 9.6 13.1 9.5 16.75 L9.1 18.55 Q8.5 20.1 7.0 20.55 L5.25 20.75 5.15 20.75 3.65 20.35" fill="#999999" fill-rule="evenodd" stroke="none"/>
      <path d="M3.65 20.35 L5.15 20.75 5.25 20.75 7.0 20.55 Q8.5 20.1 9.1 18.55 L9.1 21.7 7.0 20.55 6.4 22.9 5.3 21.1 3.65 22.55 3.65 20.35 M5.15 20.75 L5.3 21.1 5.15 20.75" fill="#ffffff" fill-rule="evenodd" stroke="none"/>
      <path d="M9.1 18.55 L9.5 16.75 Q9.6 13.1 7.7 9.45 9.2 9.85 9.7 8.05 8.2 8.55 7.05 6.45 5.85 -0.15 3.0 0.1 -0.9 -0.75 0.25 6.9 1.4 13.45 0.05 16.9 L1.4 15.5 Q1.8 19.25 3.65 20.35 L5.15 20.75 5.25 20.75 7.0 20.55 Q8.5 20.1 9.1 18.55 M5.3 21.1 L5.15 20.75" fill="none" stroke="#000000" stroke-linecap="round" stroke-linejoin="round" stroke-width="1.5"/>
      <path d="M9.1 18.55 L9.1 21.7 7.0 20.55 6.4 22.9 5.3 21.1 3.65 22.55 3.65 20.35" fill="none" stroke="#000000" stroke-linecap="round" stroke-linejoin="round" stroke-width="1.0"/>
    </g>
    <g id="sprite1" transform="matrix(1.0, 0.0, 0.0, 1.0, 0.75, 0.75)">
      <use ffdec:characterId="171" height="28.05" transform="matrix(1.0, 0.0, 0.0, 1.0, -0.75, -0.75)" width="25.65" xlink:href="#shape1"/>
    </g>
    <g id="shape1" transform="matrix(1.0, 0.0, 0.0, 1.0, 0.75, 0.75)">
      <path d="M7.95 0.7 Q14.85 -1.15 18.05 1.85 24.3 10.25 24.15 20.65 L24.15 21.55 23.9 24.35 Q10.25 30.0 2.25 24.9 3.3 23.0 3.6 21.05 L3.65 19.2 5.5 19.3 Q3.6 17.05 4.45 12.8 6.35 14.75 8.6 13.55 5.15 9.4 7.95 0.7" fill="#999999" fill-rule="evenodd" stroke="none"/>
      <path d="M2.25 24.9 L1.35 24.3 Q0.7 22.6 0.5 20.75 -0.1 15.9 1.9 9.7 0.6 10.35 0.0 9.4 1.95 7.55 4.1 4.15 L4.65 2.9 Q6.3 0.45 7.95 0.7 5.15 9.4 8.6 13.55 6.35 14.75 4.45 12.8 3.6 17.05 5.5 19.3 L3.65 19.2 3.6 21.05 Q3.3 23.0 2.25 24.9 M2.6 18.1 Q2.95 18.9 3.65 19.2 2.95 18.9 2.6 18.1" fill="#dfdfdf" fill-rule="evenodd" stroke="none"/>
      <path d="M7.95 0.7 Q14.85 -1.15 18.05 1.85 24.3 10.25 24.15 20.65 L24.15 21.55 M1.35 24.3 Q0.7 22.6 0.5 20.75 -0.1 15.9 1.9 9.7 0.6 10.35 0.0 9.4 1.95 7.55 4.1 4.15 L4.65 2.9 Q6.3 0.45 7.95 0.7" fill="none" stroke="#000000" stroke-linecap="round" stroke-linejoin="round" stroke-width="1.5"/>
      <path d="M7.95 0.7 Q5.15 9.4 8.6 13.55 6.35 14.75 4.45 12.8 3.6 17.05 5.5 19.3 L3.65 19.2 3.6 21.05 Q3.3 23.0 2.25 24.9 M3.65 19.2 Q2.95 18.9 2.6 18.1" fill="none" stroke="#000000" stroke-linecap="round" stroke-linejoin="round" stroke-width="1.0"/>
    </g>
    <g id="sprite2" transform="matrix(1.0, 0.0, 0.0, 1.0, 0.75, 0.75)">
      <use ffdec:characterId="173" height="16.45" transform="matrix(1.0, 0.0, 0.0, 1.0, -0.75, -0.75)" width="11.1" xlink:href="#shape2"/>
    </g>
    <g id="shape2" transform="matrix(1.0, 0.0, 0.0, 1.0, 0.75, 0.75)">
      <path d="M1.45 13.4 Q0.55 12.6 0.9 10.7 L0.0 10.7 Q1.0 10.2 1.15 7.8 L1.75 0.85 Q5.8 -0.8 8.75 0.75 L9.55 8.15 Q9.75 12.1 8.65 13.45 L6.7 14.6 3.15 14.8 2.65 14.6 2.9 14.0 2.65 13.4 2.05 13.15 Q1.7 13.15 1.45 13.4" fill="#999999" fill-rule="evenodd" stroke="none"/>
      <path d="M1.45 13.4 Q1.7 13.15 2.05 13.15 L2.65 13.4 2.9 14.0 2.65 14.6 3.15 14.8 2.05 14.85 1.45 14.6 1.2 14.0 1.45 13.4" fill="#ffffff" fill-rule="evenodd" stroke="none"/>
      <path d="M3.15 14.8 L6.7 14.6 8.65 13.45 Q9.75 12.1 9.55 8.15 L8.75 0.75 Q5.8 -0.8 1.75 0.85 L1.15 7.8 Q1.0 10.2 0.0 10.7 L0.9 10.7 Q0.55 12.6 1.45 13.4" fill="none" stroke="#000000" stroke-linecap="round" stroke-linejoin="round" stroke-width="1.5"/>
      <path d="M1.45 13.4 Q1.7 13.15 2.05 13.15 L2.65 13.4 2.9 14.0 2.65 14.6 3.15 14.8 2.05 14.85 1.45 14.6 1.2 14.0 1.45 13.4 Z" fill="none" stroke="#000000" stroke-linecap="round" stroke-linejoin="round" stroke-width="1.0"/>
    </g>
    <g id="sprite3" transform="matrix(1.0, 0.0, 0.0, 1.0, 0.75, 0.75)">
      <use ffdec:characterId="176" height="5.1" id="mc100" transform="matrix(1.0, 0.0, 0.0, 1.0, 0.0, 0.0)" width="15.05" xlink:href="#sprite4"/>
      <use ffdec:characterId="177" height="6.6" transform="matrix(1.0, 0.0, 0.0, 1.0, -0.75, -0.75)" width="16.55" xlink:href="#shape4"/>
    </g>
    <g id="sprite4" transform="matrix(1.0, 0.0, 0.0, 1.0, 0.0, 0.0)">
      <use ffdec:characterId="175" height="5.1" transform="matrix(1.0, 0.0, 0.0, 1.0, 0.0, 0.0)" width="15.05" xlink:href="#shape3"/>
    </g>
    <g id="shape3" transform="matrix(1.0, 0.0, 0.0, 1.0, 0.0, 0.0)">
      <path d="M0.0 5.1 L0.0 0.25 15.05 0.0 15.05 5.1 0.0 5.1" fill="#5c1313" fill-rule="evenodd" stroke="none"/>
    </g>
    <g id="shape4" transform="matrix(1.0, 0.0, 0.0, 1.0, 0.75, 0.75)">
      <path d="M0.0 0.25 L0.0 5.1 15.05 5.1 15.05 0.0" fill="none" stroke="#000000" stroke-linecap="round" stroke-linejoin="round" stroke-width="1.5"/>
    </g>
    <g id="sprite5" transform="matrix(1.0, 0.0, 0.0, 1.0, 0.75, 0.75)">
      <use ffdec:characterId="173" height="16.45" transform="matrix(1.0, 0.0, 0.0, 1.0, -0.75, -0.75)" width="11.1" xlink:href="#shape2"/>
    </g>
    <g id="sprite6" transform="matrix(1.0, 0.0, 0.0, 1.0, 0.75, 0.75)">
      <use ffdec:characterId="181" height="8.05" id="mc100" transform="matrix(1.0, 0.0, 0.0, 1.0, 0.0, 0.0)" width="23.6" xlink:href="#sprite7"/>
      <use ffdec:characterId="182" height="9.55" transform="matrix(1.0, 0.0, 0.0, 1.0, -0.75, -0.75)" width="25.1" xlink:href="#shape6"/>
    </g>
    <g id="sprite7" transform="matrix(1.0, 0.0, 0.0, 1.0, 0.0, 0.0)">
      <use ffdec:characterId="180" height="8.05" transform="matrix(1.0, 0.0, 0.0, 1.0, 0.0, 0.0)" width="23.6" xlink:href="#shape5"/>
    </g>
    <g id="shape5" transform="matrix(1.0, 0.0, 0.0, 1.0, 0.0, 0.0)">
      <path d="M21.6 0.65 L22.6 0.55 23.6 0.45 23.45 1.15 Q21.85 7.2 16.65 8.05 L6.55 7.8 Q0.4 7.45 0.0 0.0 L3.0 0.25 3.4 0.3 Q12.6 1.25 21.6 0.65" fill="#5c1313" fill-rule="evenodd" stroke="none"/>
    </g>
    <g id="shape6" transform="matrix(1.0, 0.0, 0.0, 1.0, 0.75, 0.75)">
      <path d="M21.6 0.65 Q12.6 1.25 3.4 0.3 L3.0 0.25 0.0 0.0 Q0.4 7.45 6.55 7.8 L16.65 8.05 Q21.85 7.2 23.45 1.15 L23.6 0.45 22.6 0.55 21.6 0.65 Z" fill="none" stroke="#000000" stroke-linecap="round" stroke-linejoin="round" stroke-width="1.5"/>
    </g>
    <g id="sprite8" transform="matrix(1.0, 0.0, 0.0, 1.0, 0.75, 0.75)">
      <use ffdec:characterId="185" height="4.3" id="mc100" transform="matrix(1.0, 0.0, 0.0, 1.0, 0.0, 0.0)" width="16.95" xlink:href="#sprite9"/>
      <use ffdec:characterId="186" height="5.8" transform="matrix(1.0, 0.0, 0.0, 1.0, -0.75, -0.75)" width="18.45" xlink:href="#shape8"/>
    </g>
    <g id="sprite9" transform="matrix(1.0, 0.0, 0.0, 1.0, 0.0, 0.0)">
      <use ffdec:characterId="184" height="4.3" transform="matrix(1.0, 0.0, 0.0, 1.0, 0.0, 0.0)" width="16.95" xlink:href="#shape7"/>
    </g>
    <g id="shape7" transform="matrix(1.0, 0.0, 0.0, 1.0, 0.0, 0.0)">
      <path d="M0.8 4.3 L0.0 0.0 16.95 0.0 15.85 4.3 0.8 4.3" fill="#5c1313" fill-rule="evenodd" stroke="none"/>
    </g>
    <g id="shape8" transform="matrix(1.0, 0.0, 0.0, 1.0, 0.75, 0.75)">
      <path d="M0.0 0.0 L0.8 4.3 15.85 4.3 16.95 0.0" fill="none" stroke="#000000" stroke-linecap="round" stroke-linejoin="round" stroke-width="1.5"/>
    </g>
    <g id="sprite10" transform="matrix(1.0, 0.0, 0.0, 1.0, 0.75, 0.75)">
      <use ffdec:characterId="3" height="24.15" transform="matrix(1.0, 0.0, 0.0, 1.0, -0.75, -0.75)" width="11.2" xlink:href="#shape0"/>
    </g>
    <g id="sprite11" transform="matrix(1.0, 0.0, 0.0, 1.0, -11.7, 0.75)">
      <use ffdec:characterId="189" height="15.25" transform="matrix(1.0, 0.0, 0.0, 1.0, 11.7, -0.75)" width="10.75" xlink:href="#shape9"/>
    </g>
    <g id="shape9" transform="matrix(1.0, 0.0, 0.0, 1.0, -11.7, 0.75)">
      <path d="M12.45 13.75 Q12.4 3.7 14.95 0.0 17.85 1.4 22.0 10.1 L12.45 13.75" fill="#777777" fill-rule="evenodd" stroke="none"/>
      <path d="M21.7 10.1 L20.05 6.2 19.65 5.3 19.65 5.25 Q17.85 1.4 14.95 0.0 12.4 3.7 12.45 13.75 M20.05 6.2 L19.65 5.25" fill="none" stroke="#000000" stroke-linecap="round" stroke-linejoin="round" stroke-width="1.5"/>
    </g>
    <g id="sprite12" transform="matrix(1.0, 0.0, 0.0, 1.0, 5.25, -1.6)">
      <use ffdec:characterId="308" height="62.5" transform="matrix(1.0, 0.0, 0.0, 1.0, -5.25, 1.6)" width="73.65" xlink:href="#shape10"/>
    </g>
    <g id="shape10" transform="matrix(1.0, 0.0, 0.0, 1.0, 5.25, -1.6)">
      <path d="M19.65 5.25 Q22.25 3.85 22.75 2.35 L22.75 6.9 Q25.7 3.1 30.9 3.05 L31.8 3.05 31.7 3.5 Q30.9 6.55 31.75 8.65 L40.4 8.2 Q58.6 11.45 60.15 26.4 61.65 41.35 67.65 44.1 57.4 45.8 58.55 47.1 62.45 46.45 63.75 51.65 58.75 50.7 55.0 53.35 43.5 55.75 35.2 44.2 31.3 38.75 22.25 36.9 24.25 34.9 25.65 32.55 L19.55 34.1 22.55 29.35 Q19.1 29.4 16.65 31.25 12.55 34.25 10.05 38.0 4.45 43.7 3.65 39.45 1.9 26.3 5.1 20.4 9.4 12.35 12.55 10.2 L19.5 5.4 19.65 5.3 19.65 5.25" fill="#999999" fill-rule="evenodd" stroke="none"/>
      <path d="M55.0 53.35 Q52.6 54.65 50.2 56.9 47.8 59.1 41.75 61.1 35.7 63.05 27.3 62.05 29.85 60.9 30.4 58.45 30.8 54.3 36.6 54.0 35.85 51.85 33.35 51.25 35.6 50.0 38.5 49.9 33.6 43.7 27.65 47.55 23.25 49.3 20.9 48.85 L17.95 48.25 17.9 48.25 16.45 47.7 15.9 47.45 14.55 46.55 13.8 45.95 Q11.85 44.55 9.55 44.35 14.7 42.55 18.5 39.95 L20.6 38.4 22.25 36.9 Q31.3 38.75 35.2 44.2 43.5 55.75 55.0 53.35 M4.45 44.5 L3.65 39.45 Q4.45 43.7 10.05 38.0 7.95 41.0 6.95 44.5 L5.15 44.95 4.45 44.5 M22.5 46.75 Q24.3 44.7 23.45 43.05 24.3 44.7 22.5 46.75 M22.65 40.3 Q18.7 43.0 14.0 43.75 18.7 43.0 22.65 40.3 M20.7 45.3 L12.05 44.3 20.7 45.3" fill="#777777" fill-rule="evenodd" stroke="none"/>
      <path d="M27.3 62.05 Q24.3 63.25 20.7 63.35 19.5 60.55 16.4 58.55 L14.9 57.65 Q5.65 52.45 0.7 58.15 -2.6 54.65 -4.4 48.5 -5.2 41.95 0.9 48.1 L1.15 48.3 2.15 46.8 Q2.05 47.55 2.15 47.0 L2.2 46.9 Q2.85 48.85 5.7 48.3 11.1 46.8 17.9 48.25 L17.95 48.25 20.9 48.85 Q23.25 49.3 27.65 47.55 33.6 43.7 38.5 49.9 35.6 50.0 33.35 51.25 35.85 51.85 36.6 54.0 30.8 54.3 30.4 58.45 29.85 60.9 27.3 62.05 M12.4 62.55 Q5.15 63.0 3.6 61.55 1.85 60.55 1.75 59.15 6.0 62.75 12.4 62.55 M6.95 44.5 Q7.95 41.0 10.05 38.0 12.55 34.25 16.65 31.25 19.1 29.4 22.55 29.35 L19.55 34.1 25.65 32.55 Q24.25 34.9 22.25 36.9 L20.6 38.4 18.5 39.95 Q14.7 42.55 9.55 44.35 L6.95 44.5 M31.3 52.7 L33.35 51.25 31.3 52.7 M17.8 53.65 L16.6 55.95 14.7 53.2 Q6.0 51.75 1.15 48.3 6.0 51.75 14.7 53.2 L17.8 53.65 20.2 53.9 17.8 53.65 14.7 53.2 16.6 55.95 17.8 53.65" fill="#dfdfdf" fill-rule="evenodd" stroke="none"/>
      <path d="M2.2 46.9 L2.25 46.7 4.45 44.5 5.15 44.95 5.5 45.35 Q6.2 46.4 5.7 48.3 2.85 48.85 2.2 46.9" fill="#000000" fill-rule="evenodd" stroke="none"/>
      <path d="M5.15 44.95 L6.95 44.5 9.55 44.35 Q11.85 44.55 13.8 45.95 L14.55 46.55 15.9 47.45 16.45 47.7 17.9 48.25 Q11.1 46.8 5.7 48.3 6.2 46.4 5.5 45.35 L5.15 44.95" fill="#b8b8b8" fill-rule="evenodd" stroke="none"/>
      <path d="M20.7 63.35 Q17.1 63.45 12.85 62.5 L12.4 62.55 Q6.0 62.75 1.75 59.15 L0.7 58.15 Q5.65 52.45 14.9 57.65 L16.4 58.55 Q19.5 60.55 20.7 63.35 M11.0 61.25 L14.9 57.65 11.0 61.25 M16.2 59.65 L14.15 61.45 16.2 59.65 M18.0 60.95 L17.3 61.65 18.0 60.95 M12.1 57.0 L8.0 60.6 12.1 57.0 M6.7 56.1 L3.8 58.85 6.7 56.1 M9.15 56.25 L5.4 59.65 9.15 56.25" fill="#f6c5c5" fill-rule="evenodd" stroke="none"/>
      <path d="M19.65 5.25 Q22.25 3.85 22.75 2.35 L22.75 6.9 Q25.7 3.1 30.9 3.05 L31.8 3.05 31.7 3.5 Q30.9 6.55 31.75 8.65 L40.4 8.2 Q58.6 11.45 60.15 26.4 61.65 41.35 67.65 44.1 57.4 45.8 58.55 47.1 62.45 46.45 63.75 51.65 58.75 50.7 55.0 53.35 52.6 54.65 50.2 56.9 47.8 59.1 41.75 61.1 35.7 63.05 27.3 62.05 24.3 63.25 20.7 63.35 17.1 63.45 12.85 62.5 L12.4 62.55 Q6.0 62.75 1.75 59.15 L0.7 58.15 Q-2.6 54.65 -4.4 48.5 -5.2 41.95 0.9 48.1 L1.15 48.3 2.15 46.8 2.25 46.7 2.2 46.9 2.15 47.0 Q2.05 47.55 2.15 46.8 L2.2 46.9 M4.45 44.5 L3.65 39.45 Q1.9 26.3 5.1 20.4 9.4 12.35 12.55 10.2 L19.5 5.4 19.4 5.45 19.65 5.25 19.65 5.3 19.5 5.4 19.65 5.25 M4.45 44.5 L5.15 44.95 6.95 44.5 Q7.95 41.0 10.05 38.0 12.55 34.25 16.65 31.25 19.1 29.4 22.55 29.35 L19.55 34.1 25.65 32.55 Q24.25 34.9 22.25 36.9 L20.6 38.4 18.5 39.95 Q14.7 42.55 9.55 44.35 L6.95 44.5 M17.9 48.25 L16.45 47.7 15.9 47.45 14.55 46.55 13.8 45.95 Q11.85 44.55 9.55 44.35 M17.9 48.25 L17.95 48.25 20.9 48.85 Q23.25 49.3 27.65 47.55 33.6 43.7 38.5 49.9 35.6 50.0 33.35 51.25 35.85 51.85 36.6 54.0 30.8 54.3 30.4 58.45 29.85 60.9 27.3 62.05 M12.05 44.3 L20.7 45.3 M14.0 43.75 Q18.7 43.0 22.65 40.3 M33.35 51.25 L31.3 52.7 M1.15 48.3 Q6.0 51.75 14.7 53.2 L17.8 53.65 20.2 53.9 M14.7 53.2 L16.6 55.95 17.8 53.65" fill="none" stroke="#000000" stroke-linecap="round" stroke-linejoin="round" stroke-width="1.5"/>
      <path d="M2.25 46.7 Q2.45 45.75 3.0 45.2 3.55 44.6 4.45 44.5 L2.25 46.7 M5.7 48.3 Q6.2 46.4 5.5 45.35 L5.15 44.95 M2.2 46.9 Q2.85 48.85 5.7 48.3 M23.45 43.05 Q24.3 44.7 22.5 46.75" fill="none" stroke="#000000" stroke-linecap="round" stroke-linejoin="round" stroke-width="1.0"/>
      <path d="M17.3 61.65 L18.0 60.95 M14.15 61.45 L16.2 59.65 M14.9 57.65 L11.0 61.25 M5.4 59.65 L9.15 56.25 M3.8 58.85 L6.7 56.1 M8.0 60.6 L12.1 57.0" fill="none" stroke="#e31e1e" stroke-linecap="round" stroke-linejoin="round" stroke-width="1.0"/>
    </g>
    <g id="sprite13" transform="matrix(1.0, 0.0, 0.0, 1.0, -19.15, 0.45)">
      <use ffdec:characterId="196" height="22.2" transform="matrix(1.0, 0.0, 0.0, 1.0, 19.15, -0.45)" width="22.0" xlink:href="#shape11"/>
    </g>
    <g id="shape11" transform="matrix(1.0, 0.0, 0.0, 1.0, -19.15, 0.45)">
      <path d="M30.9 3.05 L31.8 3.05 31.7 3.5 Q24.45 7.75 22.15 15.55 L19.9 14.45 Q23.1 6.8 30.9 3.05" fill="#999999" fill-rule="evenodd" stroke="none"/>
      <path d="M39.3 0.3 Q40.4 4.05 40.4 8.2 L40.2 11.7 Q39.7 16.15 38.1 21.0 34.7 19.15 31.15 17.9 L31.75 14.1 Q32.35 5.15 39.3 0.3 M34.5 10.35 Q32.75 9.45 31.75 14.1 32.75 9.45 34.5 10.35" fill="#dec5dc" fill-rule="evenodd" stroke="none"/>
      <path d="M31.7 3.5 Q35.0 1.5 39.3 0.3 32.35 5.15 31.75 14.1 L31.15 17.9 Q26.75 16.3 22.15 15.55 24.45 7.75 31.7 3.5" fill="#bda6bb" fill-rule="evenodd" stroke="none"/>
      <path d="M31.15 17.9 L31.75 14.1 Q32.75 9.45 34.5 10.35" fill="none" stroke="#000000" stroke-linecap="round" stroke-linejoin="round" stroke-width="1.0"/>
      <path d="M30.9 3.05 L31.8 3.05 31.7 3.5 Q35.0 1.5 39.3 0.3 34.55 1.25 30.9 3.05 23.1 6.8 19.9 14.45 M22.15 15.55 Q24.45 7.75 31.7 3.5 M39.3 0.3 Q40.4 4.05 40.4 8.2 L40.2 11.7 Q39.7 16.15 38.1 21.0 34.7 19.15 31.15 17.9 26.75 16.3 22.15 15.55" fill="none" stroke="#000000" stroke-linecap="round" stroke-linejoin="round" stroke-width="1.5"/>
      <path d="M19.9 14.45 Q23.1 6.8 30.9 3.05 34.55 1.25 39.3 0.3 40.4 4.05 40.4 8.2 L40.2 11.7 Q39.7 16.15 38.1 21.0 34.7 19.15 31.15 17.9 26.75 16.3 22.15 15.55 24.45 7.75 31.7 3.5 L31.8 3.05 30.9 3.05 M39.3 0.3 Q35.0 1.5 31.7 3.5" fill="none" stroke="#000000" stroke-linecap="round" stroke-linejoin="round" stroke-width="1.5"/>
    </g>
    <g id="morphshape0" transform="matrix(1.0, 0.0, 0.0, 1.0, 63.85, 137.25)">
      <path d="M-62.45 -135.05 L-59.25 -129.4 Q-51.45 -127.9 -44.7 -121.5 -45.4 -122.6 -45.55 -123.9 -50.05 -128.45 -53.75 -133.05 -56.25 -139.0 -62.5 -135.05" fill="#ff0000" fill-rule="evenodd" stroke="none"/>
      <path d="M-62.5 -135.05 Q-56.25 -139.0 -53.75 -133.05 -50.05 -128.45 -45.55 -123.9 -45.4 -122.6 -44.7 -121.5 -51.45 -127.9 -59.25 -129.4 L-62.45 -135.05" fill="none" stroke="#000000" stroke-linecap="round" stroke-linejoin="round" stroke-opacity="0.0" stroke-width="0.0"/>
    </g>
  </defs>
</svg>
