<svg xmlns:ffdec="https://www.free-decompiler.com/flash" xmlns:xlink="http://www.w3.org/1999/xlink" xmlns="http://www.w3.org/2000/svg" ffdec:objectType="frame" viewBox="0 6.273424948570174 16.95 17.27657505142981" width="16.95" height="17.27657505142981">
  <g transform="matrix(1.0, 0.0, 0.0, 1.0, -1.85, 4.6)">
    <use ffdec:characterId="311" height="16.5" id="mc100" transform="matrix(1.0002, 0.0, 0.0, 0.9997, 1.85, 2.4501)" width="16.5" xlink:href="#sprite0"/>
    <use ffdec:characterId="312" height="0.0" id="hat" transform="matrix(-0.2876, 0.0, 0.0, 0.2876, 18.8, -4.6)" width="0.0" xlink:href="#sprite3"/>
  </g>
  <defs>
    <g id="sprite0" transform="matrix(1.0, 0.0, 0.0, 1.0, 0.25, 0.25)">
      <use ffdec:characterId="308" height="16.5" transform="matrix(1.0, 0.0, 0.0, 1.0, -0.25, -0.25)" width="16.5" xlink:href="#shape0"/>
      <use ffdec:characterId="310" height="12.85" id="mc001" transform="matrix(0.319, 0.0, 0.0, 0.3235, 6.55, 6.65)" width="28.15" xlink:href="#sprite1"/>
    </g>
    <g id="shape0" transform="matrix(1.0, 0.0, 0.0, 1.0, 0.25, 0.25)">
      <path d="M3.1 1.5 Q3.35 2.8 6.85 2.6 10.95 2.35 12.2 0.95 L12.4 0.65 12.95 0.95 Q14.8 2.25 15.35 4.15 15.9 6.3 15.85 6.8 L15.7 7.4 15.65 7.45 Q15.6 8.4 15.9 9.4 L15.95 9.4 Q16.25 11.25 14.55 12.35 14.7 12.7 14.35 12.85 L13.3 13.1 12.3 13.2 11.05 13.3 9.8 13.3 9.65 13.25 Q8.65 13.15 8.4 12.9 8.25 12.4 7.25 12.35 L7.15 12.35 6.65 12.3 6.35 12.25 6.2 12.2 5.8 12.1 4.7 11.95 4.15 11.8 4.7 11.95 5.8 12.1 6.2 12.2 6.35 12.25 6.65 12.3 7.15 12.35 Q7.15 13.65 8.45 13.75 L8.5 14.0 9.75 14.35 10.9 14.55 14.3 14.2 14.35 14.2 Q14.65 14.3 14.35 14.7 L14.5 15.15 Q14.65 15.6 13.75 15.8 L9.4 15.6 6.25 14.8 Q4.7 14.55 4.5 13.85 L4.2 12.35 3.45 11.95 Q2.7 12.2 2.05 11.65 0.05 9.7 0.0 7.05 -0.1 5.2 1.05 3.6 1.9 2.25 3.1 1.5 M4.15 11.8 L4.1 11.8 4.2 12.35 4.15 11.8 M15.0 6.8 L14.6 6.65 14.15 6.7 Q13.6 6.85 13.25 7.6 L13.2 7.9 13.2 8.4 13.4 9.1 13.75 9.35 13.95 9.75 14.25 9.9 15.0 9.8 Q15.6 9.65 15.45 8.3 L15.5 7.6 15.5 7.45 15.45 7.3 15.2 6.85 15.0 6.8 M10.7 8.4 Q10.5 7.35 9.75 7.15 L9.4 7.1 9.1 7.15 9.0 7.15 8.8 7.2 7.55 7.7 Q6.8 8.15 6.55 8.85 L6.55 9.45 6.8 10.1 7.35 10.6 7.65 10.7 7.9 10.8 9.3 10.65 9.8 10.45 Q10.85 9.85 10.8 8.75 L10.7 8.4 M12.15 11.65 Q12.0 12.1 12.4 12.15 L12.6 12.2 12.8 12.15 13.35 11.9 Q13.9 12.25 13.8 11.55 13.45 9.7 13.15 10.0 L12.65 10.65 12.55 10.85 12.4 11.1 12.2 11.5 12.15 11.65 M7.9 12.2 L8.0 12.15 7.9 12.15 7.9 12.2" fill="#e2e1dc" fill-rule="evenodd" stroke="none"/>
      <path d="M12.4 0.65 L12.2 0.95 Q10.95 2.35 6.85 2.6 3.35 2.8 3.1 1.5 L4.15 0.95 Q5.4 0.4 6.8 0.15 10.15 -0.35 12.4 0.65 M8.4 12.9 Q8.65 13.15 9.65 13.25 L9.8 13.3 11.05 13.3 12.3 13.2 13.3 13.1 14.35 12.85 14.45 13.5 14.35 14.2 14.3 14.2 10.9 14.55 9.75 14.35 8.5 14.0 8.45 13.75 8.4 12.9" fill="#f3f3f3" fill-rule="evenodd" stroke="none"/>
      <path d="M12.15 11.65 L12.2 11.5 12.4 11.1 12.55 10.85 12.65 10.65 13.15 10.0 Q13.45 9.7 13.8 11.55 13.9 12.25 13.35 11.9 L12.8 12.15 12.6 12.2 12.4 12.15 Q12.0 12.1 12.15 11.65" fill="#25211d" fill-rule="evenodd" stroke="none"/>
      <path d="M15.0 6.8 L15.2 6.85 15.45 7.3 15.5 7.45 15.5 7.6 15.45 8.3 Q15.6 9.65 15.0 9.8 L14.25 9.9 13.95 9.75 13.75 9.35 13.4 9.1 13.2 8.4 13.2 7.9 13.25 7.6 Q13.6 6.85 14.15 6.7 L14.6 6.65 15.0 6.8 M10.7 8.4 Q10.5 7.35 9.75 7.15 L9.4 7.1 9.1 7.15 9.0 7.15 8.8 7.2 7.55 7.7 Q6.8 8.15 6.55 8.85 L6.55 9.45 6.8 10.1 7.35 10.6 7.65 10.7 7.9 10.8 9.3 10.65 9.8 10.45 Q10.85 9.85 10.8 8.75 L10.7 8.4" fill="none" stroke="#000000" stroke-linecap="round" stroke-linejoin="round" stroke-width="1.0"/>
      <path d="M3.1 1.5 Q1.9 2.25 1.05 3.6 -0.1 5.2 0.0 7.05 0.05 9.7 2.05 11.65 2.7 12.2 3.45 11.95 L4.2 12.35 4.1 11.8 4.15 11.8 4.7 11.95 5.8 12.1 6.2 12.2 6.35 12.25 6.65 12.3 7.15 12.35 7.25 12.35 Q8.25 12.4 8.4 12.9 8.65 13.15 9.65 13.25 L9.8 13.3 11.05 13.3 12.3 13.2 13.3 13.1 14.35 12.85 Q14.7 12.7 14.55 12.35 16.25 11.25 15.95 9.4 L15.9 9.4 Q15.6 8.4 15.65 7.45 L15.7 7.4 15.85 6.8 Q15.9 6.3 15.35 4.15 14.8 2.25 12.95 0.95 L12.4 0.65 Q10.15 -0.35 6.8 0.15 5.4 0.4 4.15 0.95 L3.1 1.5 M12.15 11.65 Q12.0 12.1 12.4 12.15 L12.6 12.2 12.8 12.15 13.35 11.9 Q13.9 12.25 13.8 11.55 13.45 9.7 13.15 10.0 L12.65 10.65 12.55 10.85 12.4 11.1 12.2 11.5 12.15 11.65 M4.15 11.8 L4.2 12.35 4.5 13.85 Q4.7 14.55 6.25 14.8 L9.4 15.6 13.75 15.8 Q14.65 15.6 14.5 15.15 L14.35 14.7 Q14.65 14.3 14.35 14.2 L14.45 13.5 14.35 12.85 M8.4 12.9 L8.45 13.75 8.5 14.0 9.75 14.35 10.9 14.55 14.3 14.2 14.35 14.2 M8.45 13.75 Q7.15 13.65 7.15 12.35" fill="none" stroke="#000000" stroke-linecap="round" stroke-linejoin="round" stroke-width="0.5"/>
    </g>
    <g id="sprite1" transform="matrix(1.0, 0.0, 0.0, 1.0, 0.0, 0.0)">
      <use ffdec:characterId="309" height="12.85" id="mc100" transform="matrix(1.0, 0.0, 0.0, 1.0, 0.0, 0.0)" width="28.15" xlink:href="#sprite2"/>
      <use ffdec:characterId="58" height="12.45" transform="matrix(1.0, 0.0, 0.0, 1.0, 0.95, 0.4)" width="27.2" xlink:href="#shape2"/>
    </g>
    <g id="sprite2" transform="matrix(1.0, 0.0, 0.0, 1.0, 0.0, 0.0)">
      <use ffdec:characterId="56" height="12.85" transform="matrix(1.0, 0.0, 0.0, 1.0, 0.0, 0.0)" width="28.15" xlink:href="#shape1"/>
    </g>
    <g id="shape1" transform="matrix(1.0, 0.0, 0.0, 1.0, 0.0, 0.0)">
      <path d="M27.25 0.65 Q27.9 0.9 28.1 2.0 L28.15 2.45 28.15 3.05 28.0 5.1 Q28.4 9.2 26.6 9.7 L24.25 9.95 23.25 9.65 22.65 8.35 22.6 8.35 Q22.1 7.65 21.6 7.6 21.1 6.5 20.95 5.5 L20.9 3.9 Q20.95 3.35 21.15 2.85 22.3 0.7 23.95 0.2 L25.4 0.05 26.55 0.4 27.25 0.65 M13.35 6.5 Q13.6 9.85 10.4 11.65 L8.8 12.4 4.35 12.7 3.55 12.5 2.65 12.2 0.95 10.65 Q0.25 9.8 0.05 8.75 -0.1 7.8 0.15 6.7 0.85 4.6 3.25 3.35 4.85 2.35 7.15 1.75 L7.85 1.6 8.1 1.55 9.0 1.45 10.1 1.55 Q12.5 2.1 13.2 5.35 L13.35 6.5" fill="#ff0000" fill-rule="evenodd" stroke="none"/>
    </g>
    <g id="shape2" transform="matrix(1.0, 0.0, 0.0, 1.0, -0.95, -0.4)">
      <path d="M27.25 0.65 Q27.9 0.9 28.1 2.0 L28.15 2.45 28.15 3.05 28.0 5.1 Q28.4 9.2 26.6 9.7 L24.25 9.95 23.25 9.65 22.65 8.35 Q28.2 10.75 26.55 0.45 L26.55 0.4 27.25 0.65 M13.35 6.5 Q13.6 9.85 10.4 11.65 L8.8 12.4 4.35 12.7 3.55 12.5 2.65 12.2 0.95 10.65 Q4.9 12.15 9.4 10.25 13.95 8.35 9.0 1.45 L10.1 1.55 Q12.5 2.1 13.2 5.35 L13.35 6.5" fill="#000000" fill-opacity="0.2" fill-rule="evenodd" stroke="none"/>
    </g>
  </defs>
</svg>