<?xml version="1.0" encoding="UTF-8" standalone="no"?>
<svg xmlns:ffdec="https://www.free-decompiler.com/flash" xmlns:xlink="http://www.w3.org/1999/xlink" ffdec:objectType="frame" height="37.2px" width="27.75px" xmlns="http://www.w3.org/2000/svg">
  <g transform="matrix(1.0, 0.0, 0.0, 1.0, 0.9, 9.65)">
    <use ffdec:characterId="392" ffdec:characterName="zombie_fla.leftdown_cara_mediana_121" height="65.15" id="mc100" transform="matrix(0.4491, 0.0, 0.0, 0.4491, -0.9116, -1.7088)" width="60.15" xlink:href="#sprite0"/>
    <use ffdec:characterId="393" height="0.0" id="hat" transform="matrix(-0.4491, 0.0, 0.0, 0.4491, 26.85, -9.65)" width="0.0" xlink:href="#sprite5"/>
  </g>
  <defs>
    <g id="sprite0" transform="matrix(1.0, 0.0, 0.0, 1.0, 27.3, 91.75)">
      <use ffdec:characterId="388" height="65.15" id="mc300" transform="matrix(-1.0, 0.0, 0.0, 1.0, 32.85, -91.75)" width="60.15" xlink:href="#sprite1"/>
      <use ffdec:characterId="390" height="21.35" id="mc200" transform="matrix(-1.0, 0.0, 0.0, 1.0, 30.4, -62.65)" width="46.25" xlink:href="#sprite2"/>
      <use ffdec:characterId="391" height="3.8" id="mc100" transform="matrix(-1.0, 0.0, 0.0, 1.0, 25.7, -37.4)" width="28.65" xlink:href="#sprite4"/>
    </g>
    <g id="sprite1" transform="matrix(1.0, 0.0, 0.0, 1.0, 0.75, 1.7)">
      <use ffdec:characterId="88" height="65.15" transform="matrix(1.0, 0.0, 0.0, 1.0, -0.75, -1.7)" width="60.15" xlink:href="#shape0"/>
    </g>
    <g id="shape0" transform="matrix(1.0, 0.0, 0.0, 1.0, 0.75, 1.7)">
      <path d="M37.45 5.45 L37.4 5.45 Q34.7 7.1 32.7 9.2 L31.45 10.5 27.1 7.9 25.25 7.0 23.1 6.15 20.1 5.15 19.55 5.4 14.45 7.3 14.4 6.0 Q14.5 3.7 16.95 4.2 17.15 1.5 20.55 2.55 22.55 -0.5 26.3 -0.95 29.05 -1.05 30.75 0.1 32.15 1.0 32.8 2.85 L32.85 2.85 32.8 2.85 32.85 2.85 Q36.65 2.2 37.4 5.4 L37.45 5.45 M37.4 5.45 L37.4 5.4 37.4 5.45 M19.55 5.4 L19.5 5.25 Q19.45 4.3 20.55 2.55 19.45 4.3 19.5 5.25 L19.55 5.4 M33.4 5.3 Q30.1 4.2 28.9 6.5 26.7 6.1 25.25 7.0 26.7 6.1 28.9 6.5 30.1 4.2 33.4 5.3 M27.4 2.25 L26.85 1.9 Q25.5 1.3 23.55 2.45 25.5 1.3 26.85 1.9 L27.4 2.25" fill="#f2d3e4" fill-rule="evenodd" stroke="none"/>
      <path d="M37.45 5.45 L40.05 3.95 Q41.5 4.5 42.85 5.3 44.3 6.2 45.55 7.45 59.2 17.85 58.6 42.4 58.5 50.1 50.35 56.65 47.9 58.65 44.95 60.0 47.65 56.85 37.3 59.1 26.95 61.35 12.4 59.35 L8.25 56.65 Q0.15 50.1 0.0 42.4 -0.5 18.65 12.3 8.1 L12.35 8.1 12.4 8.1 14.45 7.3 19.55 5.4 20.1 5.15 23.1 6.15 25.25 7.0 27.1 7.9 31.45 10.5 32.7 9.2 Q34.7 7.1 37.4 5.45 L37.45 5.45" fill="#e1f1e1" fill-rule="evenodd" stroke="none"/>
      <path d="M12.4 59.35 Q26.95 61.35 37.3 59.1 47.65 56.85 44.95 60.0 38.25 63.0 29.3 62.65 19.45 63.05 12.4 59.35" fill="#c3d2c3" fill-rule="evenodd" stroke="none"/>
      <path d="M44.95 60.0 Q47.9 58.65 50.35 56.65 58.5 50.1 58.6 42.4 59.2 17.85 45.55 7.45 44.3 6.2 42.85 5.3 41.5 4.5 40.05 3.95 L37.45 5.45 37.4 5.45 Q34.7 7.1 32.7 9.2 L31.45 10.5 27.1 7.9 25.25 7.0 23.1 6.15 20.1 5.15 19.55 5.4 14.45 7.3 12.4 8.1 12.35 8.1 12.3 8.1 Q-0.5 18.65 0.0 42.4 0.15 50.1 8.25 56.65 L12.4 59.35 Q19.45 63.05 29.3 62.65 38.25 63.0 44.95 60.0 M37.4 5.4 L37.4 5.45 M32.85 2.85 L32.8 2.85 Q32.15 1.0 30.75 0.1 29.05 -1.05 26.3 -0.95 22.55 -0.5 20.55 2.55 19.45 4.3 19.5 5.25 L19.55 5.4 M37.4 5.4 Q36.65 2.2 32.85 2.85 M12.4 8.1 L12.3 8.1 M20.55 2.55 Q17.15 1.5 16.95 4.2 14.5 3.7 14.4 6.0 L14.45 7.3" fill="none" stroke="#000000" stroke-linecap="round" stroke-linejoin="round" stroke-width="1.5"/>
      <path d="M37.45 5.45 L37.4 5.4 M32.85 2.85 L32.8 2.85 M23.55 2.45 Q25.5 1.3 26.85 1.9 L27.4 2.25 M25.25 7.0 Q26.7 6.1 28.9 6.5 30.1 4.2 33.4 5.3" fill="none" stroke="#000000" stroke-linecap="round" stroke-linejoin="round" stroke-width="1.0"/>
    </g>
    <g id="sprite2" transform="matrix(1.0, 0.0, 0.0, 1.0, 1.5, 1.8)">
      <use ffdec:characterId="90" height="18.1" transform="matrix(1.0, 0.0, 0.0, 1.0, -1.0, 0.95)" width="45.25" xlink:href="#shape1"/>
      <use ffdec:characterId="389" height="18.35" id="mc101" transform="matrix(1.0, 0.0, 0.0, 1.0, -0.4, -1.3)" width="42.85" xlink:href="#sprite3"/>
      <use ffdec:characterId="93" height="21.35" transform="matrix(1.0, 0.0, 0.0, 1.0, -1.5, -1.8)" width="46.25" xlink:href="#shape3"/>
    </g>
    <g id="shape1" transform="matrix(1.0, 0.0, 0.0, 1.0, 1.0, -0.95)">
      <path d="M41.35 16.25 Q38.4 19.05 34.15 19.05 30.05 19.05 27.15 16.25 25.45 14.6 24.7 12.65 L26.15 14.35 Q28.9 17.05 32.9 17.05 36.85 17.05 39.65 14.35 42.45 11.65 42.45 7.85 42.45 4.1 39.65 1.35 L39.1 0.95 Q40.3 1.55 41.35 2.6 44.25 5.45 44.25 9.4 44.25 13.3 41.35 16.25 M0.65 1.95 L0.5 2.3 Q-0.4 4.65 -0.4 7.9 -0.4 11.15 0.5 13.5 1.4 15.8 2.65 15.8 3.9 15.8 4.8 13.5 L5.25 12.0 4.5 15.1 Q3.55 17.55 2.2 17.55 0.85 17.55 -0.05 15.1 -1.0 12.6 -1.0 9.2 -1.0 5.8 -0.05 3.35 L0.65 1.95" fill="#be4141" fill-rule="evenodd" stroke="none"/>
    </g>
    <g id="sprite3" transform="matrix(1.0, 0.0, 0.0, 1.0, 0.0, 0.0)">
      <use ffdec:characterId="91" height="18.35" transform="matrix(1.0, 0.0, 0.0, 1.0, 0.0, 0.0)" width="42.85" xlink:href="#shape2"/>
    </g>
    <g id="shape2" transform="matrix(1.0, 0.0, 0.0, 1.0, 0.0, 0.0)">
      <path d="M26.55 2.65 Q29.3 0.0 33.3 0.0 36.9 0.0 39.5 2.25 L40.05 2.65 Q42.85 5.4 42.85 9.15 42.85 12.95 40.05 15.65 37.25 18.35 33.3 18.35 29.3 18.35 26.55 15.65 L25.1 13.95 Q23.7 11.85 23.7 9.15 23.7 5.4 26.55 2.65 M6.1 9.2 Q6.1 11.5 5.65 13.3 L5.2 14.8 Q4.3 17.1 3.05 17.1 1.8 17.1 0.9 14.8 0.0 12.45 0.0 9.2 0.0 5.95 0.9 3.6 L1.05 3.25 Q1.9 1.3 3.05 1.3 4.3 1.3 5.2 3.6 6.1 5.95 6.1 9.2" fill="#e4db53" fill-rule="evenodd" stroke="none"/>
    </g>
    <g id="shape3" transform="matrix(1.0, 0.0, 0.0, 1.0, 1.5, 1.8)">
      <path d="M41.35 16.25 Q38.4 19.05 34.15 19.05 30.05 19.05 27.15 16.25 25.45 14.6 24.7 12.65 23.3 10.55 23.3 7.85 23.3 4.1 26.15 1.35 28.9 -1.3 32.9 -1.3 36.5 -1.3 39.1 0.95 40.3 1.55 41.35 2.6 44.25 5.45 44.25 9.4 44.25 13.3 41.35 16.25 M24.7 12.65 L26.15 14.35 Q28.9 17.05 32.9 17.05 36.85 17.05 39.65 14.35 42.45 11.65 42.45 7.85 42.45 4.1 39.65 1.35 L39.1 0.95 M2.65 0.0 Q3.9 0.0 4.8 2.3 5.7 4.65 5.7 7.9 5.7 10.2 5.25 12.0 L4.5 15.1 Q3.55 17.55 2.2 17.55 0.85 17.55 -0.05 15.1 -1.0 12.6 -1.0 9.2 -1.0 5.8 -0.05 3.35 L0.65 1.95 Q1.5 0.0 2.65 0.0 M5.25 12.0 L4.8 13.5 Q3.9 15.8 2.65 15.8 1.4 15.8 0.5 13.5 -0.4 11.15 -0.4 7.9 -0.4 4.65 0.5 2.3 L0.65 1.95" fill="none" stroke="#000000" stroke-linecap="round" stroke-linejoin="round" stroke-width="1.0"/>
    </g>
    <g id="sprite4" transform="matrix(1.0, 0.0, 0.0, 1.0, 4.0, 0.5)">
      <use ffdec:characterId="95" height="3.8" transform="matrix(1.0, 0.0, 0.0, 1.0, -4.0, -0.5)" width="28.65" xlink:href="#shape4"/>
    </g>
    <g id="shape4" transform="matrix(1.0, 0.0, 0.0, 1.0, 4.0, 0.5)">
      <path d="M-3.5 1.75 Q-3.7 -0.25 4.2 0.05 L20.15 0.6 Q24.15 1.2 24.15 2.8" fill="none" stroke="#000000" stroke-linecap="round" stroke-linejoin="round" stroke-width="1.0"/>
    </g>
  </defs>
</svg>
