<?xml version="1.0" encoding="UTF-8" standalone="no"?>
<svg xmlns:ffdec="https://www.free-decompiler.com/flash" xmlns:xlink="http://www.w3.org/1999/xlink" ffdec:objectType="frame" height="34.85px" width="33.1px" xmlns="http://www.w3.org/2000/svg">
  <g transform="matrix(1.0, 0.0, 0.0, 1.0, 1.6, 6.7)">
    <use ffdec:characterId="132" height="42.9" id="mc600" transform="matrix(-0.4022, 0.0, 0.0, 0.4022, 25.0082, 10.6727)" width="34.65" xlink:href="#sprite0"/>
    <use ffdec:characterId="133" height="5.75" transform="matrix(1.0, 0.0, 0.0, 1.0, 18.3, 16.85)" width="3.9" xlink:href="#shape2"/>
    <use ffdec:characterId="135" height="8.0" id="mc300" transform="matrix(-0.4022, 0.0, 0.0, 0.4022, 21.7321, 19.0412)" width="1.9" xlink:href="#sprite2"/>
    <use ffdec:characterId="139" height="64.55" id="mc200" transform="matrix(-0.4022, 0.0, 0.0, 0.4022, 27.58, 2.1788)" width="72.5" xlink:href="#sprite3"/>
    <use ffdec:characterId="143" height="26.05" id="hide_hat" transform="matrix(-0.4022, 0.0, 0.0, 0.4022, 13.4845, 1.2713)" width="13.15" xlink:href="#sprite5"/>
    <use ffdec:characterId="144" height="0.0" id="hat" transform="matrix(-0.4022, 0.0, 0.0, 0.4022, 31.5, -6.7)" width="0.0" xlink:href="#sprite7"/>
  </g>
  <defs>
    <g id="sprite0" transform="matrix(1.0, 0.0, 0.0, 1.0, 17.3, 21.45)">
      <use ffdec:characterId="130" height="41.1" id="mc100" transform="matrix(1.0, 0.0, 0.0, 1.0, -16.4, -20.55)" width="32.85" xlink:href="#sprite1"/>
      <use ffdec:characterId="131" height="42.9" transform="matrix(1.0, 0.0, 0.0, 1.0, -17.3, -21.45)" width="34.65" xlink:href="#shape1"/>
    </g>
    <g id="sprite1" transform="matrix(1.0, 0.0, 0.0, 1.0, 16.4, 20.55)">
      <use ffdec:characterId="129" height="41.1" transform="matrix(1.0, 0.0, 0.0, 1.0, -16.4, -20.55)" width="32.85" xlink:href="#shape0"/>
    </g>
    <g id="shape0" transform="matrix(1.0, 0.0, 0.0, 1.0, 16.4, 20.55)">
      <path d="M-12.85 -16.25 L-6.65 -20.55 7.95 -14.7 16.45 2.75 5.65 17.65 Q-0.1 21.25 -6.45 20.4 -12.5 19.6 -13.2 15.65 -18.7 13.25 -14.7 8.3 -16.7 -12.9 -12.85 -16.25" fill="#ffedd4" fill-rule="evenodd" stroke="none"/>
    </g>
    <g id="shape1" transform="matrix(1.0, 0.0, 0.0, 1.0, 17.3, 21.45)">
      <path d="M-9.6 13.8 Q-10.1 16.9 -13.2 15.65 -12.5 19.6 -6.45 20.4 -0.1 21.25 5.65 17.65 L16.45 2.75 7.95 -14.7 -6.65 -20.55 -12.85 -16.25 Q-16.7 -12.9 -14.7 8.3 -18.7 13.25 -13.2 15.65" fill="none" stroke="#000000" stroke-linecap="round" stroke-linejoin="round" stroke-width="1.8"/>
    </g>
    <g id="shape2" transform="matrix(1.0, 0.0, 0.0, 1.0, -18.3, -16.85)">
      <path d="M21.95 17.3 Q20.1 16.4 18.55 19.35" fill="none" stroke="#000000" stroke-linecap="round" stroke-linejoin="round" stroke-width="0.5"/>
      <path d="M21.45 22.35 L18.75 21.9" fill="none" stroke="#000000" stroke-linecap="round" stroke-linejoin="round" stroke-width="0.5"/>
    </g>
    <g id="sprite2" transform="matrix(1.0, 0.0, 0.0, 1.0, 0.95, 4.0)">
      <use ffdec:characterId="134" height="8.0" transform="matrix(1.0, 0.0, 0.0, 1.0, -0.95, -4.0)" width="1.9" xlink:href="#shape3"/>
    </g>
    <g id="shape3" transform="matrix(1.0, 0.0, 0.0, 1.0, 0.95, 4.0)">
      <path d="M-0.35 -4.0 Q0.4 -3.9 0.7 -2.75 L0.95 0.05 0.7 2.85 Q0.45 4.0 0.1 4.0 -0.25 4.0 -0.5 2.85 L-0.75 0.15 -0.75 0.05 Q-0.75 -1.65 -0.9 -2.85 -1.1 -4.1 -0.35 -4.0" fill="#000000" fill-rule="evenodd" stroke="none"/>
    </g>
    <g id="sprite3" transform="matrix(1.0, 0.0, 0.0, 1.0, 36.25, 32.25)">
      <use ffdec:characterId="137" height="62.75" id="mc100" transform="matrix(1.0, 0.0, 0.0, 1.0, -35.35, -31.35)" width="70.7" xlink:href="#sprite4"/>
      <use ffdec:characterId="138" height="64.55" transform="matrix(1.0, 0.0, 0.0, 1.0, -36.25, -32.25)" width="72.5" xlink:href="#shape5"/>
    </g>
    <g id="sprite4" transform="matrix(1.0, 0.0, 0.0, 1.0, 35.35, 31.35)">
      <use ffdec:characterId="136" height="62.75" transform="matrix(1.0, 0.0, 0.0, 1.0, -35.35, -31.35)" width="70.7" xlink:href="#shape4"/>
    </g>
    <g id="shape4" transform="matrix(1.0, 0.0, 0.0, 1.0, 35.35, 31.35)">
      <path d="M12.95 -28.55 Q22.9 -23.85 26.55 -11.5 28.9 -0.85 35.35 4.0 30.6 10.7 24.2 11.15 L22.6 11.2 Q23.95 15.4 29.25 17.2 21.9 23.95 14.25 21.95 L18.6 29.8 Q8.05 29.55 -1.1 27.25 L3.3 31.25 Q-3.35 31.55 -8.65 28.6 L-10.2 31.4 Q-12.0 12.05 -19.7 -7.3 L-22.7 7.7 Q-26.3 3.55 -27.45 -3.3 -30.4 1.1 -31.45 10.2 -36.65 4.65 -34.95 -9.8 -32.75 -23.35 -18.6 -28.7 -4.55 -34.1 12.95 -28.55" fill="#ff6600" fill-rule="evenodd" stroke="none"/>
    </g>
    <g id="shape5" transform="matrix(1.0, 0.0, 0.0, 1.0, 36.25, 32.25)">
      <path d="M12.7 7.55 Q17.1 11.1 22.6 11.2 L24.2 11.15 Q30.6 10.7 35.35 4.0 28.9 -0.85 26.55 -11.5 22.9 -23.85 12.95 -28.55 -4.55 -34.1 -18.6 -28.7 M8.55 19.3 Q11.4 21.2 14.25 21.95 21.9 23.95 29.25 17.2 23.95 15.4 22.6 11.2 M-8.65 28.6 Q-3.35 31.55 3.3 31.25 L-1.1 27.25 Q8.05 29.55 18.6 29.8 L14.25 21.95" fill="none" stroke="#000000" stroke-linecap="round" stroke-linejoin="round" stroke-width="1.8"/>
      <path d="M-18.6 -28.7 Q-32.75 -23.35 -34.95 -9.8 -36.65 4.65 -31.45 10.2 -30.4 1.1 -27.45 -3.3 -26.3 3.55 -22.7 7.7 L-19.7 -7.3 Q-12.0 12.05 -10.2 31.4 L-8.65 28.6 Q-0.8 13.95 3.05 -2.3" fill="none" stroke="#000000" stroke-linecap="round" stroke-linejoin="round" stroke-width="1.8"/>
    </g>
    <g id="sprite5" transform="matrix(1.0, 0.0, 0.0, 1.0, 6.55, 13.0)">
      <use ffdec:characterId="141" height="18.35" id="mc100" transform="matrix(1.0, 0.0, 0.0, 1.0, -5.65, -10.05)" width="7.8" xlink:href="#sprite6"/>
      <use ffdec:characterId="142" height="26.05" transform="matrix(1.0, 0.0, 0.0, 1.0, -6.55, -13.0)" width="13.15" xlink:href="#shape7"/>
    </g>
    <g id="sprite6" transform="matrix(1.0, 0.0, 0.0, 1.0, 3.9, 9.2)">
      <use ffdec:characterId="140" height="18.35" transform="matrix(1.0, 0.0, 0.0, 1.0, -3.9, -9.2)" width="7.8" xlink:href="#shape6"/>
    </g>
    <g id="shape6" transform="matrix(1.0, 0.0, 0.0, 1.0, 3.9, 9.2)">
      <path d="M3.55 -3.25 Q2.25 2.9 -0.95 9.15 -1.85 3.15 -3.9 -2.1 -1.05 -6.85 1.35 -9.2 4.85 -9.45 3.55 -3.25" fill="#ffedd4" fill-rule="evenodd" stroke="none"/>
    </g>
    <g id="shape7" transform="matrix(1.0, 0.0, 0.0, 1.0, 6.55, 13.0)">
      <path d="M-0.4 -10.05 L0.95 -11.25 Q3.8 -13.4 4.8 -10.05 7.15 2.6 3.4 11.75 L-2.3 12.15 -2.7 8.3 Q0.5 2.05 1.8 -4.1 3.1 -10.3 -0.4 -10.05" fill="#000000" fill-rule="evenodd" stroke="none"/>
      <path d="M-0.4 -10.05 L0.95 -11.25 Q3.8 -13.4 4.8 -10.05 7.15 2.6 3.4 11.75 L-2.3 12.15 M-5.65 -2.95 Q-2.8 -7.7 -0.4 -10.05 3.1 -10.3 1.8 -4.1 0.5 2.05 -2.7 8.3" fill="none" stroke="#000000" stroke-linecap="round" stroke-linejoin="round" stroke-width="1.8"/>
      <path d="M-2.3 12.15 L-2.7 8.3 Q-3.6 2.3 -5.65 -2.95" fill="none" stroke="#000000" stroke-linecap="round" stroke-linejoin="round" stroke-width="1.8"/>
    </g>
  </defs>
</svg>
