<?xml version="1.0" encoding="UTF-8" standalone="no"?>
<svg xmlns:ffdec="https://www.free-decompiler.com/flash" xmlns:xlink="http://www.w3.org/1999/xlink" ffdec:objectType="frame" height="15.75px" width="26.35px" xmlns="http://www.w3.org/2000/svg">
  <g transform="matrix(1.0, 0.0, 0.0, 1.0, 0.05, 0.0)">
    <use ffdec:characterId="269" height="15.75" transform="matrix(1.0, 0.0, 0.0, 1.0, -0.05, 0.0)" width="26.35" xlink:href="#shape0"/>
  </g>
  <defs>
    <g id="shape0" transform="matrix(1.0, 0.0, 0.0, 1.0, 0.05, 0.0)">
      <path d="M21.55 15.65 Q19.4 15.35 18.85 13.05 L18.7 10.05 19.9 10.05 20.35 10.1 20.2 12.1 23.25 12.9 23.55 13.35 26.3 13.5 Q24.35 15.8 21.55 15.65 M0.45 2.75 Q1.85 -0.45 3.9 0.1 L3.05 11.9 6.25 12.75 6.55 13.2 14.0 13.5 Q15.05 13.35 15.85 12.85 14.45 15.05 11.8 15.55 L11.05 15.65 Q7.7 16.1 4.8 14.55 2.3 13.6 0.6 11.15 L0.45 10.95 Q-0.5 7.25 0.45 2.75" fill="#333333" fill-rule="evenodd" stroke="none"/>
    </g>
  </defs>
</svg>
