<?xml version="1.0" encoding="UTF-8" standalone="no"?>
<svg xmlns:ffdec="https://www.free-decompiler.com/flash" xmlns:xlink="http://www.w3.org/1999/xlink" ffdec:objectType="frame" height="38.6px" width="33.9px" xmlns="http://www.w3.org/2000/svg">
  <g transform="matrix(1.0, 0.0, 0.0, 1.0, 23.9, 22.1)">
    <use ffdec:characterId="450" height="36.6" id="mc140" transform="matrix(-0.999, -0.0206, -0.0206, 0.999, 10.0127, -20.0554)" width="31.95" xlink:href="#sprite0"/>
  </g>
  <defs>
    <g id="sprite0" transform="matrix(1.0, 0.0, 0.0, 1.0, 17.45, 35.4)">
      <use ffdec:characterId="449" height="36.6" transform="matrix(1.0, 0.0, 0.0, 1.0, -17.45, -35.4)" width="31.95" xlink:href="#shape0"/>
    </g>
    <g id="shape0" transform="matrix(1.0, 0.0, 0.0, 1.0, 17.45, 35.4)">
      <path d="M-1.15 -17.3 L-1.6 -17.2 -2.25 -17.3 -2.55 -17.95 Q3.85 -20.5 6.55 -24.95 9.05 -29.1 3.65 -32.1 L3.8 -32.75 Q6.15 -35.1 10.15 -34.1 L11.55 -33.4 Q13.7 -31.8 13.0 -29.65 L11.85 -27.65 Q10.25 -24.95 7.6 -22.8 L5.55 -21.2 Q2.55 -19.0 -1.15 -17.3 M-1.1 0.2 L-1.0 0.0 Q0.05 -1.05 1.5 -1.8 5.7 -4.2 7.4 -7.55 8.3 -9.45 6.65 -10.95 L6.65 -11.3 6.2 -11.65 1.35 -8.95 0.15 -9.3 Q0.85 -10.45 2.5 -11.1 5.3 -12.2 6.55 -13.95 8.7 -16.85 5.3 -19.05 L5.35 -19.9 8.5 -22.2 8.8 -22.4 8.95 -22.4 Q13.3 -21.3 13.5 -18.3 13.7 -15.05 9.65 -12.95 L11.45 -13.1 Q13.8 -10.7 12.5 -8.1 10.75 -4.5 5.85 -2.3 L5.2 -2.05 4.6 -2.35 1.6 -0.45 -1.1 0.2 M8.5 -22.2 L8.95 -22.4 8.5 -22.2 M6.65 -11.3 L9.65 -12.95 6.65 -11.3" fill="#a9e1f8" fill-rule="evenodd" stroke="none"/>
      <path d="M3.65 -32.1 Q9.05 -29.1 6.55 -24.95 3.85 -20.5 -2.55 -17.95 L-2.25 -17.3 -1.6 -17.2 -1.15 -17.3 -0.85 -17.0 5.35 -19.9 5.3 -19.05 Q8.7 -16.85 6.55 -13.95 5.3 -12.2 2.5 -11.1 0.85 -10.45 0.15 -9.3 L1.35 -8.95 1.7 -8.7 6.65 -11.3 6.65 -10.95 Q8.3 -9.45 7.4 -7.55 5.7 -4.2 1.5 -1.8 0.05 -1.05 -1.0 0.0 L-1.1 0.2 -1.1 0.5 -2.65 0.6 -2.7 0.3 Q-3.1 -1.35 -3.95 -2.95 L-16.45 -12.0 Q-13.7 -20.4 -5.95 -24.35 0.85 -27.25 3.35 -32.1 L3.65 -32.1 M-1.1 0.2 L-3.95 -2.95 -1.1 0.2" fill="#ffffff" fill-rule="evenodd" stroke="none"/>
      <path d="M13.0 -29.65 Q13.7 -31.8 11.55 -33.4 L10.15 -34.1 Q6.15 -35.1 3.8 -32.75 L3.35 -32.1 Q0.85 -27.25 -5.95 -24.35 -13.7 -20.4 -16.45 -12.0 M6.65 -11.3 L1.7 -8.7 M5.35 -19.9 L-0.85 -17.0 M13.0 -29.65 Q13.05 -28.75 12.75 -28.1 L12.4 -27.5 Q11.0 -24.75 8.95 -22.4 13.3 -21.3 13.5 -18.3 13.7 -15.05 9.65 -12.95 L11.45 -13.1 Q13.8 -10.7 12.5 -8.1 10.75 -4.5 5.85 -2.3 L5.2 -2.05 2.7 -0.85 1.6 -0.45 -1.1 0.2 M5.35 -19.9 L8.5 -22.2 8.8 -22.4 8.95 -22.4 8.5 -22.2 M9.65 -12.95 L6.65 -11.3" fill="none" stroke="#000000" stroke-linecap="round" stroke-linejoin="round" stroke-width="2.0"/>
      <path d="M-16.45 -12.0 L-3.95 -2.95 -1.1 0.2" fill="none" stroke="#000000" stroke-linecap="round" stroke-linejoin="round" stroke-width="1.8"/>
    </g>
  </defs>
</svg>
