<svg version="1.2" xmlns="http://www.w3.org/2000/svg" viewBox="0 0 83 90" width="83" height="90">
	<title>ficha</title>
	<defs>
		<clipPath clipPathUnits="userSpaceOnUse" id="cp1">
			<path d="m71.4 10.65q13.25 13.3 13.25 32.1 0 18.8-13.25 32.05-13.3 13.25-32.1 13.25-18.8 0-32.05-13.25-13.25-13.25-13.25-32.05 0-18.8 13.25-32.1 13.25-13.25 32.05-13.25 18.8 0 32.1 13.25z"/>
		</clipPath>
	</defs>
	<style>
		.s0 { fill: #ff3366 } 
		.s1 { fill: #000000 } 
		.s2 { fill: none;stroke: #000000;stroke-linecap: round;stroke-linejoin: round;stroke-width: 1.6 } 
		.s3 { fill: none;stroke: #000000;stroke-linecap: round;stroke-linejoin: round;stroke-width: .5 } 
		.s4 { fill: #ffedd4 } 
		.s5 { fill: none;stroke: #000000;stroke-linecap: round;stroke-linejoin: round;stroke-width: 1.9 } 
		.s6 { fill: #ff6600 } 
		.s7 { fill: #ff99cc } 
		.s8 { opacity: .2;fill: #000000 } 
		.s9 { fill: #ffffff } 
		.s10 { fill: #339966 } 
		.s11 { fill: #ffcc00 } 
		.s12 { fill: none;stroke: #000000;stroke-linecap: round;stroke-linejoin: round;stroke-width: 1.2 } 
		.s13 { fill: none;stroke: #000000;stroke-linecap: round;stroke-linejoin: round;stroke-width: 1 } 
		.s14 { fill: #cc0000 } 
	</style>
	<g>
		<g id="Clip-Path" clip-path="url(#cp1)">
			<g>
				<g id="sprite0">
					<g id="sprite1">
						<g id="sprite2">
							<g id="shape1">
								<path fill-rule="evenodd" class="s0" d="m60.3 64.7h3.8l2.3-3.2 2 2.9 3.8 0.9-2.3 2.5 1.7 4-2.7-0.3 0.1 0.9-2.9 1.1q1.1 2 2.5 2.9-0.4 1.9-1.3 3.9l-3.1-0.1q0.1 1.7 1.4 3.1l-0.7 0.9q-1.6 2.3-4.2 3.5-0.7-1.8-2.6-2.5l-0.6 3.4-4.7 0.3-3.8-0.4-2-0.1q-1.9-2 0-3.5l5.7 0.2-1.7 0.2q0.4 1.9 1.7 3 1-1.6 0.5-3.3 4.2-0.4 6.6-1.9 1.3 1.4 3 1.7 0.1-1.8-0.6-3.5v-0.1q1.1-1.2 1.8-2.9l0.1-0.2 3 0.3q-0.5-1.8-2.1-3.2l0.4-3.6-4.7-0.3 1.4-3.2z"/>
							</g>
						</g>
						<g id="shape2">
							<path fill-rule="evenodd" class="s1" d="m64.1 78.1l3 0.3q-0.5-1.8-2.1-3.2zm-2.1 3.3q-1 1-2.2 1.7 1.4 1.4 3.1 1.7 0-1.9-0.6-3.5zm-8.1 3.5h-0.2l-1.1 0.2-1.6 0.2q0.3 1.9 1.7 3 0.9-1.6 0.4-3.3zm6.8 2.8q-0.7-1.7-2.6-2.5l-0.6 3.4zm6.3-6.8l0.3-0.5-3-0.2q0.1 1.7 1.3 3.2zm2-8.4l-2.9 1.1q1 1.9 2.5 2.9 0.5-2 0.4-4z"/>
							<path class="s2" d="m69 72.4l-0.1-0.9 2.7 0.3-1.7-4 2.3-2.5-3.8-0.9-2-2.9-2.3 3.2h-3.8l1.8 3.4-1.4 3.2 4.7 0.3m-18.4 13.3q-1.9 1.5 0 3.5l2 0.1 3.8 0.4 4.7-0.3 3.2-0.9q2.6-1.2 4.2-3.5l0.7-0.9 1.4-2.5 0.3-0.5q0.9-2 1.3-3.9 0.5-2 0.4-4"/>
							<path class="s2" d="m65.4 71.6l-0.4 3.6-0.9 2.9-0.1 0.2q-0.7 1.7-1.8 2.9l-0.2 0.2q-1 1-2.2 1.7-2.4 1.5-6.6 1.9m-0.5 0.1l-5.7-0.2"/>
							<path class="s3" d="m62.2 81.2v0.1"/>
						</g>
					</g>
					<g id="sprite3">
						<g id="sprite4">
							<g id="shape3">
								<path fill-rule="evenodd" class="s4" d="m25.4 6.6l2-2.4q4.2 2.5 6.5 10.1l-12.3 3.9q1-6.8 3.8-11.6z"/>
							</g>
						</g>
						<g id="shape4">
							<path fill-rule="evenodd" class="s1" d="m33.9 14.3q-2.3-7.6-6.5-10.1 2.1-1.6 4.3 0 4.8 3.8 6.9 8.6z"/>
							<path class="s5" d="m27.4 4.2q-1 0.7-2 2.4-2.8 4.8-3.8 11.6l12.3-3.9q-2.3-7.6-6.5-10.1 2.1-1.6 4.3 0 4.8 3.8 6.9 8.6l-4.7 1.5"/>
						</g>
					</g>
					<g id="sprite5">
						<g id="sprite6">
							<g id="shape5">
								<path fill-rule="evenodd" class="s6" d="m48.4 7q16.8-2.1 22.4 22.7 2.5 11 10.1 17.8-7.6 5.8-16.2 4.8 1.7 6.2 5.8 9.7-4.5 1.6-10.9-0.4l3 5q-8 3.3-16.1 0l-7.1 5.6-3-7.4-5.7 6.4-6-9q-7.4 3.5-14.8 2.6l6.9-10.6q-9.2 1.4-15-0.9 7.4-12.5 11.9-26 5-15.2 16.8-19.7 8.2-3 17.9-0.6z"/>
							</g>
						</g>
						<g id="shape6">
							<path class="s5" d="m48.4 7q-9.7-2.4-17.9 0.6-11.8 4.5-16.8 19.7-4.5 13.5-11.9 26 5.8 2.3 15 0.9l-6.9 10.6q7.4 0.9 14.8-2.6l6 9 5.7-6.4 3 7.4 7.1-5.6q8.1 3.3 16.1 0l-3-5q6.4 2 10.9 0.4-4.1-3.5-5.8-9.7 8.6 1 16.2-4.8-7.6-6.8-10.1-17.8-5.6-24.8-22.4-22.7z"/>
						</g>
					</g>
					<g id="sprite7">
						<g id="sprite8">
							<g id="shape7">
								<path fill-rule="evenodd" class="s0" d="m21.1 77.8l-2.6-4.3 2.7-2.8q8.2 0.6 9 2.3 1.1 1.8 0.8 3.6-2.2 1.2-4.3 1.5h-0.1q-2.4 0.4-5.5-0.3z"/>
							</g>
						</g>
						<g id="shape8">
							<path class="s5" d="m30.2 73q-0.8-1.7-9-2.3l-2.7 2.8 2.6 4.3q3.1 0.7 5.5 0.3"/>
							<path class="s5" d="m26.6 78.1h0.1q2.1-0.3 4.3-1.5 0.3-1.8-0.8-3.6"/>
						</g>
					</g>
					<g id="sprite9">
						<g id="sprite10">
							<g id="shape9">
								<path fill-rule="evenodd" class="s7" d="m31.5 101.6q-1.2-1.3-1.1-3.1l3.5-1.7-3.4-1.3 0.5-10.1q0.1-1.8 1.1-3 1.2-1.2 2.9-1.2 1.8 0.2 2.7 1.5 1 1.2 1 3.1l0.3 5.1-4 1.9 4.3 2 0.1 2-3.8 1.9 3.5 1.8-1.2 1.4q-1.5 1.2-3.3 1.1-1.8-0.1-3.1-1.4z"/>
							</g>
						</g>
						<g id="shape10">
							<path fill-rule="evenodd" class="s1" d="m30.4 98.5l0.1-3 3.4 1.3zm8.6-7.6l0.3 4-4.3-2.1zm0.5 5.9l0.1 2q0 0.9-0.5 1.7l-3.4-1.8z"/>
							<path class="s5" d="m39.1 100.5l-1.2 1.4q-1.5 1.2-3.3 1.1-1.8-0.1-3.1-1.4-1.2-1.3-1.1-3.1l0.1-3 0.5-10.1q0.1-1.8 1.1-3 1.2-1.2 2.9-1.2 1.8 0.2 2.7 1.5 1 1.2 1 3.1l0.3 5.1 0.3 3.9 0.1 2 0.2 2q-0.1 0.9-0.5 1.7z"/>
						</g>
					</g>
					<g id="sprite9">
						<g id="sprite10">
							<g id="shape9">
								<path fill-rule="evenodd" class="s7" d="m39.2 103q-1.2-1.3-1.1-3.1l3.5-1.7-3.4-1.3 0.5-10.1q0.1-1.8 1.1-3 1.1-1.2 2.9-1.2 1.7 0.2 2.7 1.5 1 1.2 0.9 3.1l0.3 5.1-3.9 1.9 4.2 2 0.2 2-3.8 1.9 3.4 1.8-1.2 1.4q-1.5 1.2-3.3 1.1-1.8-0.1-3-1.4z"/>
							</g>
						</g>
						<g id="shape10">
							<path fill-rule="evenodd" class="s1" d="m38.1 99.9l0.1-3 3.4 1.3zm8.6-7.6l0.3 3.9-4.3-2zm0.4 5.9l0.2 2q-0.1 0.9-0.5 1.7l-3.4-1.8z"/>
							<path class="s5" d="m46.7 101.9l-1.2 1.4q-1.5 1.2-3.3 1.1-1.8-0.1-3-1.4-1.2-1.3-1.1-3.1l0.1-3 0.5-10.1q0.1-1.8 1.1-3 1.1-1.2 2.9-1.2 1.7 0.2 2.7 1.5 1 1.2 0.9 3.1l0.3 5.1 0.3 3.9 0.2 2 0.1 2q0 0.9-0.5 1.7z"/>
						</g>
					</g>
					<g id="sprite11">
						<g id="sprite12">
							<g id="shape11">
								<path fill-rule="evenodd" class="s7" d="m46.4 65.9l5.4 22.7 0.3 1.9q-15.4 7.5-26.7 4.5l0.4-4.4 0.6-5.2 0.4-3.3q1.2-7.8 3-15z"/>
							</g>
						</g>
						<g id="shape12">
							<path class="s5" d="m29.8 67.1q-1.8 7.2-3 15l-0.4 3.3-0.6 5.2-0.4 4.4q11.3 3 26.7-4.5l-0.3-1.9-5.4-22.7z"/>
						</g>
						<g id="sprite13">
							<g id="shape13">
								<path fill-rule="evenodd" class="s8" d="m35 89.8l2.9 2 1.5-2.7 2.6 1.4 1.2-2.1 3.2 1.1 1.5-2.4 3.9 1.5 0.3 1.9q-15.4 7.5-26.7 4.5l0.4-4.4 2.3 2.2 2.2-2.1 2.1 1.2zm14.3-11.7l0.7 3.2q-14.5 5.7-23.6 4.1l0.4-3.3q8.1 0.9 22.5-4z"/>
							</g>
						</g>
					</g>
					<g id="sprite7">
						<g id="sprite8">
							<g id="shape7">
								<path fill-rule="evenodd" class="s0" d="m50.6 68l5 1.2v3.9q-6.2 5.4-8 4.7-2-0.5-3.1-1.9 0.7-2.4 2-4.2v-0.1q1.4-1.9 4.1-3.6z"/>
							</g>
						</g>
						<g id="shape8">
							<path class="s5" d="m47.6 77.8q1.8 0.7 8-4.7v-3.9l-5-1.2q-2.7 1.7-4.1 3.6"/>
							<path class="s5" d="m46.5 71.6v0.1q-1.3 1.8-2 4.2 1.1 1.4 3.1 1.9"/>
						</g>
					</g>
					<g id="sprite14">
						<g id="shape14">
							<path fill-rule="evenodd" class="s9" d="m25.2 66.4l20.9-1.4 6.2 4h-4.2l1.9 5.3-5.8-2.1-4.5 3.4-2.2-1.6-2.4 1.3-2.8-1.1-2.3 2.5-1.9-3.5-4.8 0.8 1.7-3.2-3.1-1.2z"/>
							<path class="s5" d="m21.9 69.6l3.1 1.2-1.7 3.2 4.8-0.8 1.9 3.5 2.3-2.5 2.8 1.1 2.4-1.3 2.2 1.6 4.5-3.4 5.8 2.1-1.9-5.3h4.2l-6.2-4-20.9 1.4"/>
							<path class="s5" d="m25.2 66.4l-3.3 3.2"/>
						</g>
					</g>
					<g id="sprite15">
						<g id="sprite16">
							<g id="shape15">
								<path fill-rule="evenodd" class="s4" d="m39.2 18.9l12.7 17v10.1q0.5 17.2-9.5 23.8-7.2 2-15.4 1.8-6.5-3.3-11.8-9.4 2.5-6 1.1-16.5l2.4-14.8 4.8-10.5z"/>
							</g>
						</g>
						<g id="shape16">
							<path class="s5" d="m39.2 18.9l-15.7 1.5-4.8 10.5-2.4 14.8q1.4 10.5-1.1 16.5 5.3 6.1 11.8 9.4 8.2 0.2 15.4-1.8 10-6.6 9.5-23.8v-10.1z"/>
						</g>
					</g>
					<g id="sprite17">
						<g id="sprite18">
							<g id="shape17">
								<path fill-rule="evenodd" class="s10" d="m30.8 76.3l0.3 0.3q0.5 0.5 0.5 1.3 0 0.7-0.5 1.2-0.5 0.6-1.3 0.6l-0.4-0.1-0.9-0.5q-0.5-0.5-0.5-1.2 0-0.8 0.5-1.3 0.6-0.6 1.3-0.6z"/>
							</g>
						</g>
						<g id="sprite19">
							<g id="shape18">
								<path fill-rule="evenodd" class="s11" d="m30.5 73q2 0 3.4 1.4 1.5 1.4 1.5 3.5 0 2-1.5 3.4-1.4 1.4-3.4 1.4h-0.2l-0.9-0.1q-1.3-0.3-2.4-1.3-1.4-1.4-1.4-3.4 0-2.1 1.4-3.5 1.5-1.4 3.5-1.4zm0.6 3.6l-0.3-0.3-1-0.3q-0.7 0-1.3 0.6-0.5 0.5-0.5 1.3 0 0.7 0.5 1.2l0.9 0.5 0.4 0.1q0.8 0 1.3-0.6 0.5-0.5 0.5-1.2 0-0.8-0.5-1.3z"/>
							</g>
						</g>
						<g id="shape19">
							<path class="s2" d="m29.4 79.6l-0.9-0.5q-0.5-0.5-0.5-1.2 0-0.8 0.5-1.3 0.6-0.6 1.3-0.6l1 0.3 0.3 0.3q0.5 0.5 0.5 1.3 0 0.7-0.5 1.2-0.5 0.6-1.3 0.6z"/>
							<path class="s2" d="m29.4 79.6v3l0.9 0.1h0.2q2 0 3.4-1.4 1.5-1.4 1.5-3.4 0-2.1-1.5-3.5-1.4-1.4-3.4-1.4-2 0-3.5 1.4-1.4 1.4-1.4 3.5 0 2 1.4 3.4 1.1 1 2.4 1.3"/>
						</g>
					</g>
					<g id="sprite20">
						<g id="shape20">
							<path fill-rule="evenodd" class="s9" d="m19.3 67.4l2 3 3.7 1.8-2.5 3.5 0.7 3-3 2.4-3.9-1.7v-9.4z"/>
							<path class="s5" d="m19.3 67.4l-3 2.6"/>
							<path class="s5" d="m16.3 70v9.4l3.9 1.7 3-2.4-0.7-3 2.5-3.5-3.7-1.8-2-3"/>
						</g>
						<g id="sprite21">
							<g id="shape21">
								<path fill-rule="evenodd" class="s0" d="m8.2 72.5q0.7-3.6 6.8-2.9 4 0.9 4.6 5 0.7 2.9-2.7 4.8-2.8 0.4-4.6-0.7-1.8-1.2-1.8-2.8-2.6-0.6-2.3-3.4z"/>
							</g>
						</g>
						<g id="shape22">
							<path class="s5" d="m10.5 75.9q0 1.6 1.8 2.8 1.8 1.1 4.6 0.7 3.4-1.9 2.7-4.8-0.6-4.1-4.6-5-6.1-0.7-6.8 2.9"/>
							<path class="s5" d="m8.2 72.5q-0.3 2.8 2.3 3.4h3.1"/>
						</g>
					</g>
					<g id="shape23">
						<path class="s12" d="m36.9 43.5q4.2 0.2 7.8 2.5"/>
						<path class="s13" d="m24.6 42.7q-3.8-0.9-6.4 3.3"/>
						<path class="s13" d="m34.7 57q4.2-7.8 8.8-6.1"/>
					</g>
					<g id="shape24">
						<path class="s12" d="m18 50.9q2.8-4.6 6.7 5.7"/>
					</g>
					<g id="shape25">
						<path fill-rule="evenodd" class="s1" d="m22.2 60.3l0.1 2.9q1 1.3 2.5 1.8l0.4 0.1 2.7 0.4q-1.7 1.1-3 2.7-1.5-1.3-3-3.2-1.9-4.2-0.7-4.9z"/>
						<path fill-rule="evenodd" class="s9" d="m27.9 65.5l-2.7-0.4-0.4-0.1q-1.5-0.5-2.5-1.8l-0.1-2.9q8.1 1.8 16.7 1.1 2.4 0.7 0.2 4.1l-2-0.2-0.2-0.2-1.2 1.7-1.5-1.4-0.3 0.2q-3.1 0.3-6-0.1zm5.7-0.6l0.6 0.5zm4.1-0.9l-0.8 1.1z"/>
						<path fill-rule="evenodd" class="s14" d="m24.9 68.2q1.3-1.6 3-2.7 2.9 0.4 6 0.1l0.3-0.2 1.5 1.4 1.2-1.7 0.2 0.2 2 0.2-1.8 2.4q-6.4 5.4-12.4 0.3z"/>
						<path class="s12" d="m27.9 65.5l-2.7-0.4-0.4-0.1q-1.5-0.5-2.5-1.8l-0.1-2.9-1-0.2q-1.2 0.7 0.7 4.9 1.5 1.9 3 3.2 1.3-1.6 3-2.7 2.9 0.4 6 0.1m3.2-0.3l2 0.2q2.2-3.4-0.2-4.1-8.6 0.7-16.7-1.1m12 5.1l1.5 1.4 1.2-1.7 0.8-1.2m-3.5 1.5l-0.6-0.5m5.5 0.6l-1.8 2.4q-6.4 5.4-12.4 0.3"/>
					</g>
					<g id="sprite22">
						<g id="sprite23">
							<g id="shape26">
								<path fill-rule="evenodd" class="s6" d="m58 38.5l-1.7 21.7q-6 9.5-11 7l-1.5 2.6q-1.7-19.3-5.1-36.9l-2.3 16.9q-7.7-8.1-12.9-17.8l-10 28.4q3.1-15.1 4-30.3l5.3-12.4 22.8-4.6q7.3 11.4 12.2 23.3l-0.5 1.9z"/>
							</g>
						</g>
						<g id="shape27">
							<path class="s5" d="m57.8 36.4l-0.5 1.9q-5 16.8-12 28.9l-1.5 2.6q-1.7-19.3-5.1-36.9l-2.3 16.9q-7.7-8.1-12.9-17.8l-10 28.4q3.1-15.1 4-30.3"/>
						</g>
					</g>
					<g id="sprite24">
						<g id="sprite25">
							<g id="shape28">
								<path fill-rule="evenodd" class="s4" d="m55.3 24.7q-1.8-5.5-5.7-10.1 2.9-3.9 8.2-4.9-0.1 8.1-2.5 15z"/>
							</g>
						</g>
						<g id="shape29">
							<path fill-rule="evenodd" class="s1" d="m49.6 14.6l-1.7-1.8q10.2-10.6 16.2-6.7 6 3.9-1.6 22-3.6 1.7-6.5-1.1l-0.7-2.3q2.4-6.9 2.5-15-5.3 1-8.2 4.9z"/>
							<path class="s5" d="m49.6 14.6l-1.7-1.8q10.2-10.6 16.2-6.7 6 3.9-1.6 22-3.6 1.7-6.5-1.1l-0.7-2.3q-1.8-5.5-5.7-10.1 2.9-3.9 8.2-4.9-0.1 8.1-2.5 15"/>
						</g>
					</g>
					<g id="sprite26">
						<g id="sprite27">
							<g id="shape30">
								<path fill-rule="evenodd" class="s0" d="m60 62.7q1.1 2.9-0.2 4.6-1.3 1.7-5.3 1.8-5.7-0.4-4.3-6.2l0.4-1.6q0.8-4.1 6.4-4.1 3.6 0.7 3 5.5z"/>
							</g>
						</g>
						<g id="shape31">
							<path fill-rule="evenodd" class="s9" d="m59.7 73.6l-3.2-0.6-6 0.7q0.1 0.3-0.2-0.2-0.7-1.7-0.5-3.4-2.1-1.8-2.5-4.1l2.6-3.4 0.3 0.2v0.1q-1.4 5.8 4.3 6.2 4-0.1 5.3-1.8h0.1l0.3 0.1-0.5 6.1z"/>
							<path class="s5" d="m59.7 73.5l0.5-6.1"/>
							<path class="s5" d="m50.5 73.7l6-0.7 3.2 0.6m0.1-6.3q-1.3 1.7-5.3 1.8-5.7-0.4-4.3-6.2l0.4-1.6q0.8-4.1 6.4-4.1 3.6 0.7 3 5.5 1.1 2.9-0.2 4.6zm-9.9-4.7l-2.6 3.4q0.4 2.3 2.5 4.1-0.2 1.7 0.5 3.4"/>
						</g>
					</g>
				</g>
			</g>
		</g>
	</g>
</svg>