<?xml version="1.0" encoding="UTF-8" standalone="no"?>
<svg xmlns:ffdec="https://www.free-decompiler.com/flash" xmlns:xlink="http://www.w3.org/1999/xlink" ffdec:objectType="frame" height="87.85px" width="92.1px" xmlns="http://www.w3.org/2000/svg">
  <g transform="matrix(1.0, 0.0, 0.0, 1.0, 46.9, 69.55)">
    <use ffdec:characterId="187" height="37.75" id="hide_hat_2" transform="matrix(1.0, 0.0, 0.0, 1.0, -44.3, -34.9)" width="87.3" xlink:href="#sprite0"/>
    <use ffdec:characterId="189" height="27.9" id="mc200" transform="matrix(-1.0, 0.0, 0.0, 1.0, 24.45, -14.5)" width="6.1" xlink:href="#sprite1"/>
    <use ffdec:characterId="193" height="29.9" id="mc201" transform="matrix(-1.0, 0.0, 0.0, 1.0, 45.2, -11.6)" width="24.7" xlink:href="#sprite3"/>
    <use ffdec:characterId="193" height="29.9" id="mc202" transform="matrix(1.0, 0.0, 0.0, 1.0, -46.9, -13.35)" width="24.7" xlink:href="#sprite3"/>
    <use ffdec:characterId="189" height="27.9" id="mc203" transform="matrix(1.0, 0.0, 0.0, 1.0, -26.75, -13.3)" width="6.1" xlink:href="#sprite1"/>
    <use ffdec:characterId="197" height="41.35" id="mc204" transform="matrix(1.0, 0.0, 0.0, 1.0, -27.25, -36.95)" width="52.9" xlink:href="#sprite5"/>
    <use ffdec:characterId="199" height="6.55" id="mc205" transform="matrix(1.0, 0.0, 0.0, 1.0, -6.4, -15.45)" width="12.8" xlink:href="#sprite7"/>
    <use ffdec:characterId="203" height="24.7" id="mc206" transform="matrix(1.0, 0.0, 0.0, 1.0, -30.55, -40.6)" width="60.05" xlink:href="#sprite8"/>
    <use ffdec:characterId="208" height="8.75" id="mc207" transform="matrix(1.0, 0.0, 0.0, 1.0, -21.45, -23.75)" width="15.15" xlink:href="#sprite10"/>
    <use ffdec:characterId="208" height="8.75" id="mc208" transform="matrix(-1.0, 0.0, 0.0, 1.0, 21.35, -23.9)" width="15.15" xlink:href="#sprite10"/>
    <use ffdec:characterId="216" height="33.05" id="hide_hat" transform="matrix(1.0, 0.0, 0.0, 1.0, -28.25, -61.9)" width="57.0" xlink:href="#sprite12"/>
    <use ffdec:characterId="217" height="0.0" id="hat" transform="matrix(1.0, 0.0, 0.0, 1.0, -36.35, -69.55)" width="0.0" xlink:href="#sprite16"/>
  </g>
  <defs>
    <g id="sprite0" transform="matrix(1.0, 0.0, 0.0, 1.0, 0.9, 0.85)">
      <use ffdec:characterId="186" height="37.75" transform="matrix(1.0, 0.0, 0.0, 1.0, -0.9, -0.85)" width="87.3" xlink:href="#shape0"/>
    </g>
    <g id="shape0" transform="matrix(1.0, 0.0, 0.0, 1.0, 0.9, 0.85)">
      <path d="M34.05 0.3 Q47.6 -0.6 59.65 1.55 69.35 4.05 79.15 10.0 L79.75 10.35 Q88.25 15.8 84.2 22.15 76.25 30.65 62.7 34.65 L61.55 35.0 Q13.3 39.75 1.3 22.05 -2.7 15.0 5.8 10.05 16.65 2.55 33.75 0.4 L34.05 0.3" fill="#000000" fill-rule="evenodd" stroke="none"/>
      <path d="M34.05 0.3 Q47.6 -0.6 59.65 1.55 69.35 4.05 79.15 10.0 L79.75 10.35 Q88.25 15.8 84.2 22.15 76.25 30.65 62.7 34.65 L61.55 35.0 Q13.3 39.75 1.3 22.05 -2.7 15.0 5.8 10.05 16.65 2.55 33.75 0.4 L34.05 0.3 Z" fill="none" stroke="#000000" stroke-linecap="round" stroke-linejoin="round" stroke-width="1.8"/>
    </g>
    <g id="sprite1" transform="matrix(1.0, 0.0, 0.0, 1.0, 0.9, 0.9)">
      <use ffdec:characterId="188" height="26.1" id="mc100" transform="matrix(1.0, 0.0, 0.0, 1.0, 0.0, 0.0)" width="4.3" xlink:href="#sprite2"/>
      <use ffdec:characterId="73" height="27.9" transform="matrix(1.0, 0.0, 0.0, 1.0, -0.9, -0.9)" width="6.1" xlink:href="#shape2"/>
    </g>
    <g id="sprite2" transform="matrix(1.0, 0.0, 0.0, 1.0, 2.15, 13.05)">
      <use ffdec:characterId="27" height="26.1" transform="matrix(1.0, 0.0, 0.0, 1.0, -2.15, -13.05)" width="4.3" xlink:href="#shape1"/>
    </g>
    <g id="shape1" transform="matrix(1.0, 0.0, 0.0, 1.0, 2.15, 13.05)">
      <path d="M1.95 -7.15 Q2.2 4.15 -2.15 13.05 L-1.85 -12.9 -1.6 -13.05 2.15 -7.45 1.95 -7.15" fill="#993300" fill-rule="evenodd" stroke="none"/>
    </g>
    <g id="shape2" transform="matrix(1.0, 0.0, 0.0, 1.0, 0.9, 0.9)">
      <path d="M4.1 5.9 Q4.35 17.2 0.0 26.1 L0.3 0.15 M0.55 0.0 L4.3 5.6" fill="none" stroke="#000000" stroke-linecap="round" stroke-linejoin="round" stroke-width="1.8"/>
    </g>
    <g id="sprite3" transform="matrix(1.0, 0.0, 0.0, 1.0, 0.85, 0.9)">
      <use ffdec:characterId="191" height="28.1" id="mc100" transform="matrix(1.0, 0.0, 0.0, 1.0, 0.05, 0.0)" width="22.9" xlink:href="#sprite4"/>
      <use ffdec:characterId="192" height="29.9" transform="matrix(1.0, 0.0, 0.0, 1.0, -0.85, -0.9)" width="24.7" xlink:href="#shape4"/>
    </g>
    <g id="sprite4" transform="matrix(1.0, 0.0, 0.0, 1.0, 11.45, 14.05)">
      <use ffdec:characterId="190" height="28.1" transform="matrix(1.0, 0.0, 0.0, 1.0, -11.45, -14.05)" width="22.9" xlink:href="#shape3"/>
    </g>
    <g id="shape3" transform="matrix(1.0, 0.0, 0.0, 1.0, 11.45, 14.05)">
      <path d="M11.45 -10.4 Q7.0 -2.05 5.55 6.3 L5.1 9.05 4.8 10.05 Q2.3 17.45 -5.65 11.15 -13.1 4.3 -11.0 -1.1 -9.9 -3.8 -8.05 -5.95 -2.6 -12.45 9.05 -14.05 L10.0 -12.6 9.75 -12.2 10.25 -12.2 11.45 -10.4" fill="#993300" fill-rule="evenodd" stroke="none"/>
    </g>
    <g id="shape4" transform="matrix(1.0, 0.0, 0.0, 1.0, 0.85, 0.9)">
      <path d="M21.25 1.85 L21.75 1.85 22.95 3.65 Q18.5 12.0 17.05 20.35 16.75 21.7 16.6 23.1 L16.3 24.1 Q13.8 31.5 5.85 25.2 -1.6 18.35 0.5 12.95 1.6 10.25 3.45 8.1 8.9 1.6 20.55 0.0 L21.5 1.45 21.25 1.85 Q16.25 6.25 15.05 14.25 L15.15 14.45 Q16.4 16.9 17.05 20.35 M15.05 14.25 L14.65 13.5 Q12.75 10.4 9.8 9.1 7.05 7.9 3.45 8.1 M21.25 1.85 Q12.8 2.0 9.8 9.1" fill="none" stroke="#000000" stroke-linecap="round" stroke-linejoin="round" stroke-width="1.8"/>
    </g>
    <g id="sprite5" transform="matrix(1.0, 0.0, 0.0, 1.0, 0.9, 0.9)">
      <use ffdec:characterId="195" height="39.6" id="mc100" transform="matrix(1.0, 0.0, 0.0, 1.0, 0.0, 0.0)" width="51.1" xlink:href="#sprite6"/>
      <use ffdec:characterId="196" height="41.35" transform="matrix(1.0, 0.0, 0.0, 1.0, -0.9, -0.9)" width="52.9" xlink:href="#shape6"/>
    </g>
    <g id="sprite6" transform="matrix(1.0, 0.0, 0.0, 1.0, 25.55, 19.8)">
      <use ffdec:characterId="194" height="39.6" transform="matrix(1.0, 0.0, 0.0, 1.0, -25.55, -19.8)" width="51.1" xlink:href="#shape5"/>
    </g>
    <g id="shape5" transform="matrix(1.0, 0.0, 0.0, 1.0, 25.55, 19.8)">
      <path d="M25.35 -7.25 L25.45 -7.0 23.85 -0.15 24.2 0.1 Q28.4 8.45 13.85 17.75 L13.0 18.15 Q-1.0 21.65 -13.9 17.65 L-13.5 17.65 Q-23.25 14.3 -25.4 5.35 L-25.4 5.3 Q-25.95 2.5 -24.25 -0.3 L-23.95 -0.7 -25.55 -6.15 -23.85 -16.95 21.9 -19.8 Q26.4 -13.15 25.35 -7.25" fill="#ffcc66" fill-rule="evenodd" stroke="none"/>
    </g>
    <g id="shape6" transform="matrix(1.0, 0.0, 0.0, 1.0, 0.9, 0.9)">
      <path d="M1.6 19.1 L0.0 13.65 1.7 2.85 47.45 0.0 Q51.95 6.65 50.9 12.55 L51.0 12.8 49.4 19.65 M49.75 19.9 Q53.95 28.25 39.4 37.55 L38.55 37.95 Q24.75 41.4 12.05 37.45 L11.7 37.35 Q2.25 33.95 0.15 25.15 L0.15 25.1 Q-0.4 22.3 1.3 19.5" fill="none" stroke="#000000" stroke-linecap="round" stroke-linejoin="round" stroke-width="1.8"/>
    </g>
    <g id="sprite7" transform="matrix(1.0, 0.0, 0.0, 1.0, 0.0, 0.0)">
      <use ffdec:characterId="198" height="6.55" transform="matrix(1.0, 0.0, 0.0, 1.0, 0.0, 0.0)" width="12.8" xlink:href="#shape7"/>
    </g>
    <g id="shape7" transform="matrix(1.0, 0.0, 0.0, 1.0, 0.0, 0.0)">
      <path d="M10.25 0.25 Q14.3 -0.35 11.95 4.1 5.9 9.1 0.55 3.85 -1.25 -0.8 2.85 0.2 6.35 1.0 10.25 0.25" fill="#000000" fill-rule="evenodd" stroke="none"/>
    </g>
    <g id="sprite8" transform="matrix(1.0, 0.0, 0.0, 1.0, 0.9, 0.9)">
      <use ffdec:characterId="201" height="22.9" id="mc100" transform="matrix(1.0, 0.0, 0.0, 1.0, 0.0, 0.0)" width="58.25" xlink:href="#sprite9"/>
      <use ffdec:characterId="202" height="24.7" transform="matrix(1.0, 0.0, 0.0, 1.0, -0.9, -0.9)" width="60.05" xlink:href="#shape9"/>
    </g>
    <g id="sprite9" transform="matrix(1.0, 0.0, 0.0, 1.0, 29.1, 11.45)">
      <use ffdec:characterId="200" height="22.9" transform="matrix(1.0, 0.0, 0.0, 1.0, -29.1, -11.45)" width="58.25" xlink:href="#shape8"/>
    </g>
    <g id="shape8" transform="matrix(1.0, 0.0, 0.0, 1.0, 29.1, 11.45)">
      <path d="M-0.9 2.7 L-4.1 2.9 -4.4 -7.3 -6.25 3.2 Q-9.9 3.75 -13.65 4.85 -18.25 6.25 -22.95 8.5 -25.75 9.8 -28.55 11.45 L-29.05 11.2 Q-29.6 -4.9 -19.3 -10.4 L17.85 -11.45 Q32.95 -1.1 27.9 11.3 25.55 9.75 23.25 8.5 19.55 6.55 15.85 5.25 11.6 3.75 7.3 3.1 7.15 -2.55 4.25 -7.0 L4.65 2.8 1.55 2.65 0.2 -6.3 -0.9 2.7" fill="#993300" fill-rule="evenodd" stroke="none"/>
    </g>
    <g id="shape9" transform="matrix(1.0, 0.0, 0.0, 1.0, 0.9, 0.9)">
      <path d="M52.65 19.4 Q53.75 12.75 51.5 7.55 M29.2 4.45 L29.3 5.15 30.65 14.1 33.75 14.25 33.35 4.45 Q36.25 8.9 36.4 14.55 40.7 15.2 44.95 16.7 48.65 18.0 52.35 19.95 L57.0 22.75 Q62.05 10.35 46.95 0.0 L9.8 1.05 Q-0.5 6.55 0.05 22.65 M45.1 16.15 Q46.4 9.7 44.2 4.8 M16.7 4.45 Q14.1 11.15 15.45 16.3 19.2 15.2 22.85 14.65 L24.7 4.15 25.0 14.35 28.2 14.15 29.3 5.15 M9.55 4.05 Q4.65 11.8 6.15 19.95 10.85 17.7 15.45 16.3 M0.55 22.9 Q3.35 21.25 6.15 19.95" fill="none" stroke="#000000" stroke-linecap="round" stroke-linejoin="round" stroke-width="1.8"/>
    </g>
    <g id="sprite10" transform="matrix(1.0, 0.0, 0.0, 1.0, 0.7, 0.75)">
      <use ffdec:characterId="204" height="7.25" transform="matrix(1.0, 0.0, 0.0, 1.0, 0.05, 0.0)" width="13.65" xlink:href="#shape10"/>
      <use ffdec:characterId="206" height="5.2" id="mc101" transform="matrix(1.0, 0.0, 0.0, 1.0, 4.15, -0.4)" width="5.2" xlink:href="#sprite11"/>
      <use ffdec:characterId="207" height="8.75" transform="matrix(1.0, 0.0, 0.0, 1.0, -0.7, -0.75)" width="15.15" xlink:href="#shape12"/>
    </g>
    <g id="shape10" transform="matrix(1.0, 0.0, 0.0, 1.0, -0.05, 0.0)">
      <path d="M0.65 3.05 Q8.55 -3.55 13.7 4.1 L13.45 4.5 Q7.85 4.75 2.25 7.25 L0.05 3.4 0.65 3.05" fill="#ffffff" fill-rule="evenodd" stroke="none"/>
      <path d="M7.75 2.95 Q7.4 3.35 6.8 3.35 6.25 3.35 5.85 2.95 5.5 2.6 5.5 2.0 5.5 1.45 5.85 1.05 6.25 0.7 6.8 0.7 7.4 0.7 7.75 1.05 8.15 1.45 8.15 2.0 8.15 2.6 7.75 2.95" fill="#000000" fill-rule="evenodd" stroke="none"/>
    </g>
    <g id="sprite11" transform="matrix(1.0, 0.0, 0.0, 1.0, 2.6, 2.6)">
      <use ffdec:characterId="205" height="5.2" transform="matrix(1.0, 0.0, 0.0, 1.0, -2.6, -2.6)" width="5.2" xlink:href="#shape11"/>
    </g>
    <g id="shape11" transform="matrix(1.0, 0.0, 0.0, 1.0, 2.6, 2.6)">
      <path d="M1.85 -1.85 Q2.6 -1.1 2.6 0.0 2.6 1.1 1.85 1.85 1.1 2.6 0.0 2.6 -1.1 2.6 -1.85 1.85 -2.6 1.1 -2.6 0.0 -2.6 -1.1 -1.85 -1.85 -1.1 -2.6 0.0 -2.6 1.1 -2.6 1.85 -1.85 M1.0 -1.15 Q0.65 -1.5 0.05 -1.5 -0.5 -1.5 -0.9 -1.15 -1.25 -0.75 -1.25 -0.2 -1.25 0.4 -0.9 0.75 -0.5 1.15 0.05 1.15 0.65 1.15 1.0 0.75 1.4 0.4 1.4 -0.2 1.4 -0.75 1.0 -1.15" fill="#009999" fill-rule="evenodd" stroke="none"/>
    </g>
    <g id="shape12" transform="matrix(1.0, 0.0, 0.0, 1.0, 0.7, 0.75)">
      <path d="M2.1 6.95 L0.05 3.4 M2.25 7.25 Q7.85 4.75 13.45 4.5 M13.7 4.1 Q8.55 -3.55 0.65 3.05" fill="none" stroke="#000000" stroke-linecap="round" stroke-linejoin="round" stroke-width="1.5"/>
    </g>
    <g id="sprite12" transform="matrix(1.0, 0.0, 0.0, 1.0, 0.9, 0.9)">
      <use ffdec:characterId="210" height="29.75" id="mc300" transform="matrix(1.0, 0.0, 0.0, 1.0, 0.8, 0.0)" width="54.4" xlink:href="#sprite13"/>
      <use ffdec:characterId="212" height="10.45" id="mc200" transform="matrix(1.0, 0.0, 0.0, 1.0, 0.8, 20.55)" width="52.95" xlink:href="#sprite14"/>
      <use ffdec:characterId="214" height="7.8" id="mc100" transform="matrix(1.0, 0.0, 0.0, 1.0, 16.55, 19.7)" width="22.75" xlink:href="#sprite15"/>
      <use ffdec:characterId="215" height="33.05" transform="matrix(1.0, 0.0, 0.0, 1.0, -0.9, -0.9)" width="57.0" xlink:href="#shape16"/>
    </g>
    <g id="sprite13" transform="matrix(1.0, 0.0, 0.0, 1.0, 27.2, 14.85)">
      <use ffdec:characterId="209" height="29.75" transform="matrix(1.0, 0.0, 0.0, 1.0, -27.2, -14.85)" width="54.4" xlink:href="#shape13"/>
    </g>
    <g id="shape13" transform="matrix(1.0, 0.0, 0.0, 1.0, 27.2, 14.85)">
      <path d="M6.4 -14.2 Q16.0 -11.35 22.2 -3.1 25.05 0.3 26.85 4.25 28.35 9.1 23.0 6.4 L21.8 5.9 22.45 6.8 Q25.15 10.5 25.75 14.9 19.6 9.15 10.9 7.0 L10.6 6.05 Q9.0 4.3 2.85 5.1 L-0.85 5.7 -7.0 6.35 -7.0 5.95 -11.45 6.5 -11.4 7.8 Q-20.7 8.3 -27.2 14.2 -22.1 1.0 -10.2 -9.9 -4.1 -16.4 6.2 -14.4 L6.4 -14.2" fill="#1a0000" fill-rule="evenodd" stroke="none"/>
    </g>
    <g id="sprite14" transform="matrix(1.0, 0.0, 0.0, 1.0, 26.45, 5.2)">
      <use ffdec:characterId="211" height="10.45" transform="matrix(1.0, 0.0, 0.0, 1.0, -26.45, -5.2)" width="52.95" xlink:href="#shape14"/>
    </g>
    <g id="shape14" transform="matrix(1.0, 0.0, 0.0, 1.0, 26.45, 5.2)">
      <path d="M-10.55 1.3 Q-18.95 2.0 -25.85 4.9 L-26.45 3.3 Q-19.95 -2.6 -10.65 -3.1 L-10.55 1.3 M26.0 5.25 Q19.7 2.6 11.95 1.75 12.3 -1.25 11.65 -3.9 20.35 -1.75 26.5 4.0 L26.0 5.25 M5.3 -2.25 L5.3 -2.1 5.2 1.3 Q3.15 1.25 1.0 1.35 L-6.25 1.1 -6.25 -4.55 -0.1 -5.2 3.7 -4.7 Q5.15 -4.95 5.3 -2.25" fill="#ff0000" fill-rule="evenodd" stroke="none"/>
    </g>
    <g id="sprite15" transform="matrix(1.0, 0.0, 0.0, 1.0, 11.35, 3.9)">
      <use ffdec:characterId="213" height="7.8" transform="matrix(1.0, 0.0, 0.0, 1.0, -11.35, -3.9)" width="22.75" xlink:href="#shape15"/>
    </g>
    <g id="shape15" transform="matrix(1.0, 0.0, 0.0, 1.0, 11.35, 3.9)">
      <path d="M11.0 -1.75 Q11.65 0.9 11.3 3.9 L4.55 3.45 4.65 0.05 4.65 -0.1 Q4.5 -2.8 3.05 -2.55 L2.95 -3.65 Q9.1 -4.45 10.7 -2.7 L11.0 -1.75 M-11.35 -2.25 L-6.9 -2.8 -6.9 3.25 -11.2 3.45 -11.35 -2.25" fill="#333333" fill-rule="evenodd" stroke="none"/>
    </g>
    <g id="shape16" transform="matrix(1.0, 0.0, 0.0, 1.0, 0.9, 0.9)">
      <path d="M34.4 0.65 Q44.0 3.5 50.2 11.75 53.05 15.15 54.85 19.1 56.35 23.95 51.0 21.25 L49.8 20.75 50.45 21.65 Q53.15 25.35 53.75 29.75 L53.75 31.2 53.25 31.0 Q46.95 28.35 39.2 27.5 L32.45 27.05 Q30.4 27.0 28.25 27.1 L21.0 26.85 16.7 27.05 Q8.3 27.75 1.4 30.65 L0.0 31.25 0.8 29.05 Q5.9 15.85 17.8 4.95 23.9 -1.55 34.2 0.45 M39.2 27.5 Q39.55 24.5 38.9 21.85 L38.6 20.9 Q37.0 19.15 30.85 19.95 L27.15 20.55 30.95 21.05 Q32.4 20.8 32.55 23.5 L32.55 23.65 32.45 27.05 M0.8 29.05 Q7.3 23.15 16.6 22.65 L16.55 21.35 21.0 20.8 21.0 21.2 27.15 20.55 M21.0 26.85 L21.0 21.2 M16.7 27.05 L16.6 22.65 M36.15 15.45 L49.8 20.75 M38.9 21.85 Q47.6 24.0 53.75 29.75" fill="none" stroke="#000000" stroke-linecap="round" stroke-linejoin="round" stroke-width="1.8"/>
    </g>
  </defs>
</svg>
