<?xml version="1.0" encoding="UTF-8" standalone="no"?>
<svg xmlns:ffdec="https://www.free-decompiler.com/flash" xmlns:xlink="http://www.w3.org/1999/xlink" ffdec:objectType="frame" height="13.7px" width="31.15px" xmlns="http://www.w3.org/2000/svg">
  <g transform="matrix(1.0, 0.0, 0.0, 1.0, 0.0, 0.0)">
    <use ffdec:characterId="272" height="13.7" transform="matrix(1.0, 0.0, 0.0, 1.0, 0.0, 0.0)" width="31.15" xlink:href="#shape0"/>
  </g>
  <defs>
    <g id="shape0" transform="matrix(1.0, 0.0, 0.0, 1.0, 0.0, 0.0)">
      <path d="M20.75 2.75 L20.2 13.7 17.15 12.9 17.95 1.35 18.3 1.0 18.35 0.8 26.7 1.2 31.15 3.35 20.75 2.75 M14.2 2.65 L3.8 2.05 3.2 13.55 0.0 12.7 0.85 0.9 0.85 0.55 1.2 0.2 1.25 0.0 10.05 0.4 14.2 2.4 14.2 2.65" fill="#666666" fill-rule="evenodd" stroke="none"/>
    </g>
  </defs>
</svg>
