<?xml version="1.0" encoding="UTF-8" standalone="no"?>
<svg xmlns:ffdec="https://www.free-decompiler.com/flash" xmlns:xlink="http://www.w3.org/1999/xlink" ffdec:objectType="frame" height="104.55px" width="84.45px" xmlns="http://www.w3.org/2000/svg">
  <g transform="matrix(1.0, 0.0, 0.0, 1.0, 41.2, 103.05)">
    <use ffdec:characterId="287" height="18.85" id="mc920" transform="matrix(0.9943, 0.1004, -0.1004, 0.9943, -11.5683, -18.3928)" width="10.9" xlink:href="#sprite0"/>
    <use ffdec:characterId="287" height="18.85" id="mc820" transform="matrix(0.9943, 0.1004, -0.1004, 0.9943, 3.0817, -18.3428)" width="10.9" xlink:href="#sprite0"/>
    <use ffdec:characterId="293" height="18.55" id="mc720" transform="matrix(-0.866, -0.4972, -0.4972, 0.866, 23.5232, -30.7683)" width="15.75" xlink:href="#sprite1"/>
    <use ffdec:characterId="293" height="18.55" id="mc620" transform="matrix(0.9659, -0.2557, 0.2557, 0.9659, -23.4324, -34.343)" width="15.75" xlink:href="#sprite1"/>
    <use ffdec:characterId="296" height="18.5" id="mc520" transform="matrix(-1.0, 0.0, 0.0, 1.0, 14.0, -21.7)" width="27.7" xlink:href="#sprite4"/>
    <use ffdec:characterId="300" height="22.8" id="mc420" transform="matrix(1.0, 0.0, 0.0, 1.0, -11.8, -41.85)" width="23.0" xlink:href="#sprite7"/>
    <use ffdec:characterId="304" height="43.45" id="mc320" transform="matrix(1.0, 0.0, 0.0, 1.0, -29.6, -74.2)" width="65.0" xlink:href="#sprite9"/>
    <use ffdec:characterId="308" height="46.1" id="hide_hat" transform="matrix(1.0, 0.0, 0.0, 1.0, -36.65, -101.6)" width="79.9" xlink:href="#sprite11"/>
    <use ffdec:characterId="315" height="0.0" id="hat" transform="matrix(1.0, 0.0, 0.0, 1.0, 0.0, 0.0)" width="0.0" xlink:href="#sprite13"/>
    <use ffdec:characterId="313" height="79.3" id="mc020" transform="matrix(-1.0, 0.0, 0.0, 1.0, 32.8, -91.7)" width="74.0" xlink:href="#sprite14"/>
  </g>
  <defs>
    <g id="sprite0" transform="matrix(1.0, 0.0, 0.0, 1.0, 4.95, 9.5)">
      <use ffdec:characterId="286" height="18.85" transform="matrix(1.0, 0.0, 0.0, 1.0, -4.95, -9.5)" width="10.9" xlink:href="#shape0"/>
    </g>
    <g id="shape0" transform="matrix(1.0, 0.0, 0.0, 1.0, 4.95, 9.5)">
      <path d="M5.05 5.55 L5.05 5.7 Q5.15 6.65 3.9 7.45 2.7 8.25 0.95 8.4 -0.8 8.55 -2.15 7.95 -3.45 7.45 -3.55 6.5 L-3.55 6.35 -3.5 6.35 4.7 5.5 5.05 5.55" fill="#000000" fill-rule="evenodd" stroke="none"/>
      <path d="M-3.55 6.1 L-3.65 3.85 -4.05 -6.3 Q-4.1 -7.15 -3.15 -7.75 -2.1 -8.4 -0.55 -8.55 L2.1 -8.25 Q3.15 -7.75 3.3 -7.0 L3.35 -6.85 3.35 -6.65 4.7 3.05 5.05 5.45 4.7 5.5 -3.5 6.35 -3.55 6.1 M4.7 3.05 L-3.65 3.85 4.7 3.05" fill="#ffffff" fill-rule="evenodd" stroke="none"/>
      <path d="M-3.55 6.1 L-3.65 3.85 -4.05 -6.3 Q-4.1 -7.15 -3.15 -7.75 -2.1 -8.4 -0.55 -8.55 L2.1 -8.25 Q3.15 -7.75 3.3 -7.0 L3.35 -6.85 3.35 -6.65 4.7 3.05 5.05 5.45 5.05 5.55 5.05 5.7 Q5.15 6.65 3.9 7.45 2.7 8.25 0.95 8.4 -0.8 8.55 -2.15 7.95 -3.45 7.45 -3.55 6.5 L-3.55 6.35 -3.55 6.1 M-3.5 6.35 L4.7 5.5 M-3.55 6.35 L-3.5 6.35 M-3.65 3.85 L4.7 3.05" fill="none" stroke="#000000" stroke-linecap="round" stroke-linejoin="round" stroke-width="1.8"/>
    </g>
    <g id="sprite1" transform="matrix(1.0, 0.0, 0.0, 1.0, 7.85, 8.8)">
      <use ffdec:characterId="288" height="6.5" id="mc300" transform="matrix(1.0, 0.0, 0.0, 1.0, -5.35, 2.35)" width="7.55" xlink:href="#sprite2"/>
      <use ffdec:characterId="289" height="9.9" transform="matrix(1.0, 0.0, 0.0, 1.0, -5.75, -2.7)" width="10.5" xlink:href="#shape2"/>
      <use ffdec:characterId="291" height="15.5" id="mc100" transform="matrix(1.0, 0.0, 0.0, 1.0, -6.95, -7.9)" width="13.95" xlink:href="#sprite3"/>
      <use ffdec:characterId="292" height="18.55" transform="matrix(1.0, 0.0, 0.0, 1.0, -7.85, -8.8)" width="15.75" xlink:href="#shape4"/>
    </g>
    <g id="sprite2" transform="matrix(1.0, 0.0, 0.0, 1.0, 3.8, 3.25)">
      <use ffdec:characterId="12" height="6.5" transform="matrix(1.0, 0.0, 0.0, 1.0, -3.8, -3.25)" width="7.55" xlink:href="#shape1"/>
    </g>
    <g id="shape1" transform="matrix(1.0, 0.0, 0.0, 1.0, 0.0, 0.0)">
      <path d="M6.45 2.8 L7.55 2.7 7.1 3.95 Q6.5 5.65 5.2 6.2 3.75 6.8 2.3 6.2 0.8 5.55 0.2 4.15 -0.3 2.8 0.5 1.2 L1.1 0.0 Q2.7 2.0 4.75 2.55 L6.3 2.9 6.45 2.8" fill="#b59155" fill-rule="evenodd" stroke="none"/>
    </g>
    <g id="shape2" transform="matrix(1.0, 0.0, 0.0, 1.0, 5.75, 2.7)">
      <path d="M-2.55 -1.8 L-2.7 -1.55 M-4.1 1.95 L-4.25 2.35 Q-2.65 4.35 -0.6 4.9 M-4.25 2.35 L-4.85 3.55 M1.75 6.3 L2.2 5.05 1.1 5.15 M2.2 5.05 L3.85 2.5" fill="none" stroke="#000000" stroke-linecap="round" stroke-linejoin="round" stroke-width="1.8"/>
    </g>
    <g id="sprite3" transform="matrix(1.0, 0.0, 0.0, 1.0, 6.95, 7.75)">
      <use ffdec:characterId="290" height="15.5" transform="matrix(1.0, 0.0, 0.0, 1.0, -6.95, -7.75)" width="13.95" xlink:href="#shape3"/>
    </g>
    <g id="shape3" transform="matrix(1.0, 0.0, 0.0, 1.0, 6.95, 7.75)">
      <path d="M4.3 -7.6 Q5.5 -8.0 6.3 -7.35 7.15 -6.7 7.0 -5.5 6.95 -4.3 3.45 2.8 L3.75 3.0 1.85 7.75 1.8 7.75 1.55 7.65 0.25 5.3 -2.9 6.65 -3.0 6.4 -3.4 3.1 -3.6 2.8 -6.95 2.8 -2.65 -1.7 -2.55 -1.6 -1.9 -2.5 Q3.1 -7.3 4.3 -7.6" fill="#ffffff" fill-rule="evenodd" stroke="none"/>
    </g>
    <g id="shape4" transform="matrix(1.0, 0.0, 0.0, 1.0, 7.85, 8.8)">
      <path d="M-2.45 -1.7 L3.45 2.65 Q6.95 -4.45 7.0 -5.65 7.15 -6.85 6.3 -7.5 5.5 -8.15 4.3 -7.75 3.1 -7.45 -1.9 -2.65 M-2.65 -1.85 L-6.95 2.65 -3.4 2.65 -3.0 6.25 M-4.85 3.55 Q-5.65 5.15 -5.15 6.5 -4.55 7.9 -3.05 8.55 -1.6 9.15 -0.15 8.55 0.8 8.15 1.35 7.15 L0.25 5.15 -2.9 6.5 M3.15 3.2 L3.45 2.65 M1.85 7.6 L3.75 2.85 M1.75 6.3 L1.35 7.15 1.55 7.5" fill="none" stroke="#000000" stroke-linecap="round" stroke-linejoin="round" stroke-width="1.8"/>
    </g>
    <g id="sprite4" transform="matrix(1.0, 0.0, 0.0, 1.0, 1.8, 0.9)">
      <use ffdec:characterId="295" height="18.5" id="mc000" transform="matrix(1.0, 0.0, 0.0, 1.0, -1.8, -0.9)" width="27.7" xlink:href="#sprite5"/>
    </g>
    <g id="sprite5" transform="matrix(1.0, 0.0, 0.0, 1.0, 1.8, 0.9)">
      <use ffdec:characterId="294" height="16.7" id="mc100" transform="matrix(1.0, 0.0, 0.0, 1.0, -0.9, 0.0)" width="25.9" xlink:href="#sprite6"/>
      <use ffdec:characterId="204" height="18.5" transform="matrix(1.0, 0.0, 0.0, 1.0, -1.8, -0.9)" width="27.7" xlink:href="#shape6"/>
    </g>
    <g id="sprite6" transform="matrix(1.0, 0.0, 0.0, 1.0, 12.95, 8.35)">
      <use ffdec:characterId="107" height="16.7" transform="matrix(1.0, 0.0, 0.0, 1.0, -12.95, -8.35)" width="25.9" xlink:href="#shape5"/>
    </g>
    <g id="shape5" transform="matrix(1.0, 0.0, 0.0, 1.0, 0.0, 0.0)">
      <path d="M24.65 6.0 L25.9 9.9 Q20.35 14.65 13.2 16.7 L13.05 12.65 10.1 12.65 9.75 14.7 Q3.7 14.5 0.0 9.25 L1.7 6.0 2.3 0.0 Q13.05 1.35 23.8 0.5 L24.65 6.0" fill="#ffcc00" fill-rule="evenodd" stroke="none"/>
    </g>
    <g id="shape6" transform="matrix(1.0, 0.0, 0.0, 1.0, 1.8, 0.9)">
      <path d="M23.3 3.25 L23.75 6.0 25.0 9.9 Q19.45 14.65 12.3 16.7 L12.15 12.65 9.2 12.65 8.85 14.7 Q2.8 14.5 -0.9 9.25 L0.8 6.0 1.1 3.0 1.4 0.0 Q12.15 1.35 22.9 0.5 L23.3 3.25 Q12.0 3.6 1.1 3.0 M12.15 12.65 L12.15 6.0 0.8 6.0 M23.75 6.0 L12.15 6.0" fill="none" stroke="#000000" stroke-linecap="round" stroke-linejoin="round" stroke-width="1.8"/>
    </g>
    <g id="sprite7" transform="matrix(1.0, 0.0, 0.0, 1.0, 0.9, 7.6)">
      <use ffdec:characterId="298" height="21.0" id="mc100" transform="matrix(1.0, 0.0, 0.0, 1.0, 0.0, -6.7)" width="21.2" xlink:href="#sprite8"/>
      <use ffdec:characterId="299" height="22.8" transform="matrix(1.0, 0.0, 0.0, 1.0, -0.9, -7.6)" width="23.0" xlink:href="#shape8"/>
    </g>
    <g id="sprite8" transform="matrix(1.0, 0.0, 0.0, 1.0, 10.6, 10.5)">
      <use ffdec:characterId="297" height="21.0" transform="matrix(1.0, 0.0, 0.0, 1.0, -10.6, -10.5)" width="21.2" xlink:href="#shape7"/>
    </g>
    <g id="shape7" transform="matrix(1.0, 0.0, 0.0, 1.0, 10.6, 10.5)">
      <path d="M3.95 10.4 Q-6.45 10.65 -10.6 10.3 L-9.65 -9.9 8.75 -10.5 10.6 9.8 3.95 10.4" fill="#ffffff" fill-rule="evenodd" stroke="none"/>
    </g>
    <g id="shape8" transform="matrix(1.0, 0.0, 0.0, 1.0, 0.9, 7.6)">
      <path d="M19.35 -6.7 L21.2 13.6 14.55 14.2 Q4.15 14.45 0.0 14.1 L0.95 -6.1 19.35 -6.7 Z" fill="none" stroke="#000000" stroke-linecap="round" stroke-linejoin="round" stroke-width="1.8"/>
    </g>
    <g id="sprite9" transform="matrix(1.0, 0.0, 0.0, 1.0, -6.15, -26.5)">
      <use ffdec:characterId="302" height="42.35" id="mc100" transform="matrix(1.0, 0.0, 0.0, 1.0, 7.05, 26.7)" width="63.2" xlink:href="#sprite10"/>
      <use ffdec:characterId="303" height="43.45" transform="matrix(1.0, 0.0, 0.0, 1.0, 6.15, 26.5)" width="65.0" xlink:href="#shape10"/>
    </g>
    <g id="sprite10" transform="matrix(1.0, 0.0, 0.0, 1.0, 32.0, 7.8)">
      <use ffdec:characterId="301" height="42.35" transform="matrix(1.0, 0.0, 0.0, 1.0, -32.0, -7.8)" width="63.2" xlink:href="#shape9"/>
    </g>
    <g id="shape9" transform="matrix(1.0, 0.0, 0.0, 1.0, 32.0, 7.8)">
      <path d="M-24.15 -7.8 L17.6 -6.7 Q24.85 -5.6 28.2 3.25 L31.2 21.5 25.7 16.1 Q5.3 45.5 -21.7 28.05 -33.35 20.25 -31.8 -0.8 -29.75 -7.6 -24.15 -7.8" fill="#ff6600" fill-rule="evenodd" stroke="none"/>
    </g>
    <g id="shape10" transform="matrix(1.0, 0.0, 0.0, 1.0, -6.15, -26.5)">
      <path d="M64.95 49.6 L64.75 50.6 70.25 56.0 67.25 37.75 Q65.95 30.75 59.5 29.6 M14.2 27.4 Q7.95 27.8 7.25 33.7 5.7 54.75 17.35 62.55 44.35 80.0 64.75 50.6" fill="none" stroke="#000000" stroke-linecap="round" stroke-linejoin="round" stroke-width="1.8"/>
    </g>
    <g id="sprite11" transform="matrix(1.0, 0.0, 0.0, 1.0, 0.9, 0.9)">
      <use ffdec:characterId="306" height="44.3" id="mc100" transform="matrix(1.0, 0.0, 0.0, 1.0, 0.0, 0.0)" width="78.1" xlink:href="#sprite12"/>
      <use ffdec:characterId="307" height="46.1" transform="matrix(1.0, 0.0, 0.0, 1.0, -0.9, -0.9)" width="79.9" xlink:href="#shape12"/>
    </g>
    <g id="sprite12" transform="matrix(1.0, 0.0, 0.0, 1.0, 39.05, 34.5)">
      <use ffdec:characterId="305" height="44.3" transform="matrix(1.0, 0.0, 0.0, 1.0, -39.05, -34.5)" width="78.1" xlink:href="#shape11"/>
    </g>
    <g id="shape11" transform="matrix(1.0, 0.0, 0.0, 1.0, 39.05, 34.5)">
      <path d="M16.55 -27.95 L14.05 -24.95 21.2 -22.0 Q31.5 -7.15 39.05 9.8 33.25 9.2 28.2 3.25 -1.25 9.45 -31.8 -0.8 -35.85 1.4 -39.05 0.9 L-25.05 -22.45 Q-15.25 -27.9 -2.55 -28.15 0.9 -33.55 8.1 -34.5 5.3 -31.2 4.9 -27.95 9.95 -30.35 16.55 -27.95" fill="#ff6600" fill-rule="evenodd" stroke="none"/>
    </g>
    <g id="shape12" transform="matrix(1.0, 0.0, 0.0, 1.0, 0.9, 0.9)">
      <path d="M7.25 33.7 Q3.2 35.9 0.0 35.4 L14.0 12.05 Q23.8 6.6 36.5 6.35 39.95 0.95 47.15 0.0 44.35 3.3 43.95 6.55 49.0 4.15 55.6 6.55 L53.1 9.55 60.25 12.5 Q70.55 27.35 78.1 44.3 72.3 43.7 67.25 37.75" fill="none" stroke="#000000" stroke-linecap="round" stroke-linejoin="round" stroke-width="1.8"/>
    </g>
    <g id="sprite14" transform="matrix(1.0, 0.0, 0.0, 1.0, 0.9, 0.9)">
      <use ffdec:characterId="312" height="66.3" id="mc100" transform="matrix(1.0, 0.0, 0.0, 1.0, 6.8, 9.25)" width="63.0" xlink:href="#sprite15"/>
      <use ffdec:characterId="9" height="79.3" transform="matrix(1.0, 0.0, 0.0, 1.0, -0.9, -0.9)" width="74.0" xlink:href="#shape15"/>
    </g>
    <g id="sprite15" transform="matrix(1.0, 0.0, 0.0, 1.0, 31.5, 33.15)">
      <use ffdec:characterId="310" height="66.3" id="mc000" transform="matrix(1.0, 0.0, 0.0, 1.0, -31.5, -33.15)" width="63.0" xlink:href="#sprite16"/>
      <use ffdec:characterId="311" height="53.85" id="mc001" transform="matrix(1.0, 0.0, 0.0, 1.0, -21.55, -23.8)" width="50.35" xlink:href="#sprite17"/>
    </g>
    <g id="sprite16" transform="matrix(1.0, 0.0, 0.0, 1.0, 31.5, 33.15)">
      <use ffdec:characterId="1" height="66.3" transform="matrix(1.0, 0.0, 0.0, 1.0, -31.5, -33.15)" width="63.0" xlink:href="#shape13"/>
    </g>
    <g id="shape13" transform="matrix(1.0, 0.0, 0.0, 1.0, 0.0, 0.0)">
      <path d="M60.3 9.35 L48.15 9.55 51.45 0.8 63.0 0.0 60.3 9.35 M11.2 50.8 L9.95 63.2 0.0 66.3 2.35 55.3 11.2 50.8" fill="#00cc99" fill-rule="evenodd" stroke="none"/>
    </g>
    <g id="sprite17" transform="matrix(1.0, 0.0, 0.0, 1.0, 25.15, 26.9)">
      <use ffdec:characterId="6" height="53.85" transform="matrix(1.0, 0.0, 0.0, 1.0, -25.15, -26.9)" width="50.35" xlink:href="#shape14"/>
    </g>
    <g id="shape14" transform="matrix(1.0, 0.0, 0.0, 1.0, 0.0, 0.0)">
      <path d="M38.2 0.2 L50.35 0.0 Q44.35 19.8 36.1 40.2 18.3 47.9 0.0 53.85 L1.25 41.45 Q12.7 35.7 24.15 29.9 32.25 15.3 38.2 0.2" fill="#006666" fill-rule="evenodd" stroke="none"/>
    </g>
    <g id="shape15" transform="matrix(1.0, 0.0, 0.0, 1.0, 0.9, 0.9)">
      <path d="M58.25 10.05 L59.4 6.6 Q63.9 -0.95 72.2 0.15 L69.8 9.25 58.25 10.05 M9.15 64.55 L6.8 75.55 0.0 77.5 5.15 66.55 9.15 64.55" fill="#fafff5" fill-rule="evenodd" stroke="none"/>
      <path d="M54.95 18.8 Q49.0 33.9 40.9 48.5 L18.0 60.05 16.75 72.45 Q35.05 66.5 52.85 58.8 61.1 38.4 67.1 18.6 L54.95 18.8 58.25 10.05 59.4 6.6 Q63.9 -0.95 72.2 0.15 L69.8 9.25 67.1 18.6 M58.25 10.05 L69.8 9.25 M9.15 64.55 L6.8 75.55 16.75 72.45 M6.8 75.55 L0.0 77.5 5.15 66.55 9.15 64.55 18.0 60.05" fill="none" stroke="#000000" stroke-linecap="round" stroke-linejoin="round" stroke-width="1.8"/>
    </g>
  </defs>
</svg>
