<?xml version="1.0" encoding="UTF-8" standalone="no"?>
<svg xmlns:ffdec="https://www.free-decompiler.com/flash" xmlns:xlink="http://www.w3.org/1999/xlink" ffdec:objectType="frame" height="109.3px" width="92.85px" xmlns="http://www.w3.org/2000/svg">
  <g transform="matrix(1.0, 0.0, 0.0, 1.0, 44.5, 107.8)">
    <use ffdec:characterId="448" height="68.2" id="hide_hat" transform="matrix(0.9967, -0.0746, 0.0745, 0.9956, -44.2142, -100.7826)" width="87.2" xlink:href="#sprite0"/>
    <use ffdec:characterId="451" ffdec:characterName="brujita_fla.mov_alas_rdastaasaa_256" height="38.6" id="mc18670" transform="matrix(-0.6747, -0.3268, -0.6863, 0.9674, 45.092, -43.521)" width="33.9" xlink:href="#sprite2"/>
    <use ffdec:characterId="272" height="18.85" id="mc17670" transform="matrix(0.2583, 0.9617, -0.9617, 0.2583, -1.0426, -22.964)" width="10.9" xlink:href="#sprite4"/>
    <use ffdec:characterId="272" height="18.85" id="mc16670" transform="matrix(0.4832, 0.8691, -0.8691, 0.4832, 3.5649, -17.1426)" width="10.9" xlink:href="#sprite4"/>
    <use ffdec:characterId="453" height="20.5" id="mc15670" transform="matrix(0.996, -0.0833, 0.0833, 0.996, -17.2714, -23.3714)" width="32.5" xlink:href="#sprite6"/>
    <use ffdec:characterId="275" height="20.35" id="mc14710" transform="matrix(0.6793, -0.7251, -0.7251, -0.6793, -10.939, -17.5557)" width="13.05" xlink:href="#sprite8"/>
    <use ffdec:characterId="456" height="21.1" id="mc13670" transform="matrix(0.996, -0.0833, 0.0833, 0.996, -11.2067, -35.3762)" width="29.0" xlink:href="#sprite11"/>
    <use ffdec:characterId="324" height="20.95" id="mc12670" transform="matrix(0.8113, 0.5811, -0.5811, 0.8113, -10.7727, -35.2443)" width="10.0" xlink:href="#sprite13"/>
    <use ffdec:characterId="458" height="13.35" id="mc11670" transform="matrix(0.996, -0.0833, 0.0833, 0.996, -14.2714, -33.8714)" width="29.7" xlink:href="#sprite15"/>
    <use ffdec:characterId="461" height="19.25" id="mc10710" transform="matrix(0.4919, -0.8663, 0.8663, 0.4919, 5.8276, -22.363)" width="12.9" xlink:href="#sprite17"/>
    <use ffdec:characterId="463" height="23.65" id="mc9670" transform="matrix(0.6615, -0.7446, 0.7446, 0.6615, -38.8155, -48.7252)" width="12.85" xlink:href="#sprite20"/>
    <use ffdec:characterId="465" height="24.0" id="mc8670" transform="matrix(0.9919, -0.1219, 0.1219, 0.9919, -37.0963, -66.7834)" width="27.0" xlink:href="#sprite22"/>
    <use ffdec:characterId="469" height="44.8" id="mc7670" transform="matrix(0.996, -0.0833, 0.0833, 0.996, -27.5756, -68.9736)" width="53.4" xlink:href="#sprite24"/>
    <use ffdec:characterId="471" height="22.25" id="mc6670" transform="matrix(0.996, -0.0833, 0.0833, 0.996, -25.9176, -69.5799)" width="50.75" xlink:href="#sprite26"/>
    <use ffdec:characterId="144" height="5.8" transform="matrix(0.996, -0.0833, 0.0833, 0.996, -2.4, -59.35)" width="15.0" xlink:href="#shape27"/>
    <use ffdec:characterId="145" height="6.1" transform="matrix(0.996, -0.0833, 0.0833, 0.996, -21.85, -59.4)" width="9.4" xlink:href="#shape28"/>
    <use ffdec:characterId="463" height="23.65" id="mc3670" transform="matrix(0.9986, -0.0446, 0.0446, 0.9986, 11.3611, -65.9086)" width="12.85" xlink:href="#sprite20"/>
    <use ffdec:characterId="472" height="0.0" id="hat" transform="matrix(1.0, 0.0, 0.0, 1.0, -30.7, -99.2)" width="0.0" xlink:href="#sprite28"/>
    <use ffdec:characterId="474" height="31.0" id="mc1670" transform="matrix(0.9986, -0.0446, 0.0446, 0.9986, 15.2621, -73.4796)" width="24.85" xlink:href="#sprite29"/>
    <use ffdec:characterId="475" height="7.55" id="mc0670" transform="matrix(0.996, -0.0833, 0.0833, 0.996, -15.1476, -48.0976)" width="11.45" xlink:href="#sprite31"/>
  </g>
  <defs>
    <g id="sprite0" transform="matrix(1.0, 0.0, 0.0, 1.0, 0.85, 0.9)">
      <use ffdec:characterId="447" height="66.4" id="mc100" transform="matrix(1.0, 0.0, 0.0, 1.0, 0.05, 0.0)" width="85.4" xlink:href="#sprite1"/>
      <use ffdec:characterId="99" height="68.2" transform="matrix(1.0, 0.0, 0.0, 1.0, -0.85, -0.9)" width="87.2" xlink:href="#shape1"/>
    </g>
    <g id="sprite1" transform="matrix(1.0, 0.0, 0.0, 1.0, 42.7, 33.2)">
      <use ffdec:characterId="97" height="66.4" transform="matrix(1.0, 0.0, 0.0, 1.0, -42.7, -33.2)" width="85.4" xlink:href="#shape0"/>
    </g>
    <g id="shape0" transform="matrix(1.0, 0.0, 0.0, 1.0, 42.7, 33.2)">
      <path d="M24.65 -0.5 L24.8 -0.3 Q45.6 13.45 42.2 26.3 L42.0 26.55 Q36.2 34.2 23.15 33.05 L22.2 32.95 Q-43.9 34.65 -42.7 6.5 -39.25 -1.7 -26.35 -5.4 L-26.15 -5.55 Q-22.25 -6.85 -18.3 -7.6 L-18.1 -7.65 Q-9.1 -15.0 -4.6 -22.3 0.5 -33.05 7.0 -33.2 L7.45 -33.15 Q17.4 -32.15 20.15 -18.4 L24.65 -0.5" fill="#1a0000" fill-rule="evenodd" stroke="none"/>
    </g>
    <g id="shape1" transform="matrix(1.0, 0.0, 0.0, 1.0, 0.85, 0.9)">
      <path d="M49.75 0.0 Q43.25 0.15 38.15 10.9 33.65 18.2 24.65 25.55 45.75 21.55 67.4 32.7 L62.9 14.8 Q60.15 1.05 50.2 0.05 L49.75 0.0 M84.95 59.5 Q88.35 46.65 67.55 32.9 L67.4 32.7 M24.65 25.55 L24.45 25.6 Q20.5 26.35 16.6 27.65 L16.4 27.8 Q3.5 31.5 0.05 39.7 -1.15 67.85 64.95 66.15 L65.9 66.25 Q78.95 67.4 84.75 59.75" fill="none" stroke="#000000" stroke-linecap="round" stroke-linejoin="round" stroke-width="1.8"/>
    </g>
    <g id="sprite2" transform="matrix(1.0, 0.0, 0.0, 1.0, 23.9, 22.1)">
      <use ffdec:characterId="450" height="36.6" id="mc100" transform="matrix(-0.999, -0.0206, -0.0206, 0.999, 8.7627, -20.9554)" width="31.95" xlink:href="#sprite3"/>
    </g>
    <g id="sprite3" transform="matrix(1.0, 0.0, 0.0, 1.0, 17.45, 35.4)">
      <use ffdec:characterId="449" height="36.6" transform="matrix(1.0, 0.0, 0.0, 1.0, -17.45, -35.4)" width="31.95" xlink:href="#shape2"/>
    </g>
    <g id="shape2" transform="matrix(1.0, 0.0, 0.0, 1.0, 17.45, 35.4)">
      <path d="M-1.15 -17.3 L-1.6 -17.2 -2.25 -17.3 -2.55 -17.95 Q3.85 -20.5 6.55 -24.95 9.05 -29.1 3.65 -32.1 L3.8 -32.75 Q6.15 -35.1 10.15 -34.1 L11.55 -33.4 Q13.7 -31.8 13.0 -29.65 L11.85 -27.65 Q10.25 -24.95 7.6 -22.8 L5.55 -21.2 Q2.55 -19.0 -1.15 -17.3 M-1.1 0.2 L-1.0 0.0 Q0.05 -1.05 1.5 -1.8 5.7 -4.2 7.4 -7.55 8.3 -9.45 6.65 -10.95 L6.65 -11.3 6.2 -11.65 1.35 -8.95 0.15 -9.3 Q0.85 -10.45 2.5 -11.1 5.3 -12.2 6.55 -13.95 8.7 -16.85 5.3 -19.05 L5.35 -19.9 8.5 -22.2 8.8 -22.4 8.95 -22.4 Q13.3 -21.3 13.5 -18.3 13.7 -15.05 9.65 -12.95 L11.45 -13.1 Q13.8 -10.7 12.5 -8.1 10.75 -4.5 5.85 -2.3 L5.2 -2.05 4.6 -2.35 1.6 -0.45 -1.1 0.2 M8.5 -22.2 L8.95 -22.4 8.5 -22.2 M6.65 -11.3 L9.65 -12.95 6.65 -11.3" fill="#a9e1f8" fill-rule="evenodd" stroke="none"/>
      <path d="M3.65 -32.1 Q9.05 -29.1 6.55 -24.95 3.85 -20.5 -2.55 -17.95 L-2.25 -17.3 -1.6 -17.2 -1.15 -17.3 -0.85 -17.0 5.35 -19.9 5.3 -19.05 Q8.7 -16.85 6.55 -13.95 5.3 -12.2 2.5 -11.1 0.85 -10.45 0.15 -9.3 L1.35 -8.95 1.7 -8.7 6.65 -11.3 6.65 -10.95 Q8.3 -9.45 7.4 -7.55 5.7 -4.2 1.5 -1.8 0.05 -1.05 -1.0 0.0 L-1.1 0.2 -1.1 0.5 -2.65 0.6 -2.7 0.3 Q-3.1 -1.35 -3.95 -2.95 L-16.45 -12.0 Q-13.7 -20.4 -5.95 -24.35 0.85 -27.25 3.35 -32.1 L3.65 -32.1 M-1.1 0.2 L-3.95 -2.95 -1.1 0.2" fill="#ffffff" fill-rule="evenodd" stroke="none"/>
      <path d="M13.0 -29.65 Q13.7 -31.8 11.55 -33.4 L10.15 -34.1 Q6.15 -35.1 3.8 -32.75 L3.35 -32.1 Q0.85 -27.25 -5.95 -24.35 -13.7 -20.4 -16.45 -12.0 M6.65 -11.3 L1.7 -8.7 M5.35 -19.9 L-0.85 -17.0 M13.0 -29.65 Q13.05 -28.75 12.75 -28.1 L12.4 -27.5 Q11.0 -24.75 8.95 -22.4 13.3 -21.3 13.5 -18.3 13.7 -15.05 9.65 -12.95 L11.45 -13.1 Q13.8 -10.7 12.5 -8.1 10.75 -4.5 5.85 -2.3 L5.2 -2.05 2.7 -0.85 1.6 -0.45 -1.1 0.2 M5.35 -19.9 L8.5 -22.2 8.8 -22.4 8.95 -22.4 8.5 -22.2 M9.65 -12.95 L6.65 -11.3" fill="none" stroke="#000000" stroke-linecap="round" stroke-linejoin="round" stroke-width="2.0"/>
      <path d="M-16.45 -12.0 L-3.95 -2.95 -1.1 0.2" fill="none" stroke="#000000" stroke-linecap="round" stroke-linejoin="round" stroke-width="1.8"/>
    </g>
    <g id="sprite4" transform="matrix(1.0, 0.0, 0.0, 1.0, 4.95, 9.5)">
      <use ffdec:characterId="271" height="3.3" id="mc100" transform="matrix(1.0, 0.0, 0.0, 1.0, -3.65, 3.05)" width="8.7" xlink:href="#sprite5"/>
      <use ffdec:characterId="102" height="18.85" transform="matrix(1.0, 0.0, 0.0, 1.0, -4.95, -9.5)" width="10.9" xlink:href="#shape4"/>
    </g>
    <g id="sprite5" transform="matrix(1.0, 0.0, 0.0, 1.0, 4.35, 1.65)">
      <use ffdec:characterId="1" height="3.3" transform="matrix(1.0, 0.0, 0.0, 1.0, -4.35, -1.65)" width="8.7" xlink:href="#shape3"/>
    </g>
    <g id="shape3" transform="matrix(1.0, 0.0, 0.0, 1.0, 4.35, 1.65)">
      <path d="M-4.35 -0.85 L4.0 -1.65 4.35 0.75 -4.2 1.65 -4.35 -0.85" fill="#00ffff" fill-rule="evenodd" stroke="none"/>
    </g>
    <g id="shape4" transform="matrix(1.0, 0.0, 0.0, 1.0, 4.95, 9.5)">
      <path d="M-3.65 3.85 L-4.05 -6.3 Q-4.1 -7.15 -3.15 -7.75 -2.1 -8.4 -0.55 -8.55 L2.1 -8.25 Q3.15 -7.75 3.3 -7.0 L3.35 -6.85 3.35 -6.65 4.7 3.05 -3.65 3.85 M5.05 5.55 L5.05 5.7 Q5.15 6.65 3.9 7.45 2.7 8.25 0.95 8.4 -0.8 8.55 -2.15 7.95 -3.45 7.45 -3.55 6.5 L-3.55 6.35 -3.5 6.35 4.7 5.5 5.05 5.55" fill="#000000" fill-rule="evenodd" stroke="none"/>
      <path d="M-3.65 3.85 L-4.05 -6.3 Q-4.1 -7.15 -3.15 -7.75 -2.1 -8.4 -0.55 -8.55 L2.1 -8.25 Q3.15 -7.75 3.3 -7.0 L3.35 -6.85 3.35 -6.65 4.7 3.05 5.05 5.45 5.05 5.55 5.05 5.7 Q5.15 6.65 3.9 7.45 2.7 8.25 0.95 8.4 -0.8 8.55 -2.15 7.95 -3.45 7.45 -3.55 6.5 L-3.55 6.35 -3.55 6.1 -3.65 3.85 4.7 3.05 M-3.55 6.35 L-3.5 6.35 4.7 5.5" fill="none" stroke="#000000" stroke-linecap="round" stroke-linejoin="round" stroke-width="1.8"/>
    </g>
    <g id="sprite6" transform="matrix(1.0, 0.0, 0.0, 1.0, 0.9, 0.9)">
      <use ffdec:characterId="452" height="18.7" id="mc100" transform="matrix(1.0, 0.0, 0.0, 1.0, 0.0, 0.0)" width="30.7" xlink:href="#sprite7"/>
      <use ffdec:characterId="106" height="20.5" transform="matrix(1.0, 0.0, 0.0, 1.0, -0.9, -0.9)" width="32.5" xlink:href="#shape6"/>
    </g>
    <g id="sprite7" transform="matrix(1.0, 0.0, 0.0, 1.0, 15.35, 9.35)">
      <use ffdec:characterId="104" height="18.7" transform="matrix(1.0, 0.0, 0.0, 1.0, -15.35, -9.35)" width="30.7" xlink:href="#shape5"/>
    </g>
    <g id="shape5" transform="matrix(1.0, 0.0, 0.0, 1.0, 15.35, 9.35)">
      <path d="M15.35 -0.85 L10.9 6.2 5.95 5.9 1.5 9.35 -2.45 3.3 -7.0 3.3 -7.5 -0.75 -15.35 -2.15 -14.95 -8.85 -8.3 -9.35 11.5 -4.1 15.35 -0.85" fill="#996666" fill-rule="evenodd" stroke="none"/>
    </g>
    <g id="shape6" transform="matrix(1.0, 0.0, 0.0, 1.0, 0.9, 0.9)">
      <path d="M0.4 0.5 L7.05 0.0 26.85 5.25 30.7 8.5 26.25 15.55 21.3 15.25 M12.9 12.65 L8.35 12.65 7.85 8.6 0.0 7.2 0.4 0.85 M20.8 15.65 L16.85 18.7 13.1 12.95" fill="none" stroke="#000000" stroke-linecap="round" stroke-linejoin="round" stroke-width="1.8"/>
    </g>
    <g id="sprite8" transform="matrix(1.0, 0.0, 0.0, 1.0, 6.55, 10.15)">
      <use ffdec:characterId="273" height="4.9" id="mc200" transform="matrix(1.0, 0.0, 0.0, 1.0, -5.65, 4.4)" width="6.65" xlink:href="#sprite9"/>
      <use ffdec:characterId="274" height="13.2" id="mc100" transform="matrix(1.0, 0.0, 0.0, 1.0, -5.35, -5.05)" width="10.15" xlink:href="#sprite10"/>
      <use ffdec:characterId="64" height="20.35" transform="matrix(1.0, 0.0, 0.0, 1.0, -6.55, -10.15)" width="13.05" xlink:href="#shape9"/>
    </g>
    <g id="sprite9" transform="matrix(1.0, 0.0, 0.0, 1.0, 3.35, 2.45)">
      <use ffdec:characterId="5" height="4.9" transform="matrix(1.0, 0.0, 0.0, 1.0, -3.35, -2.45)" width="6.65" xlink:href="#shape7"/>
    </g>
    <g id="shape7" transform="matrix(1.0, 0.0, 0.0, 1.0, 3.35, 2.45)">
      <path d="M-3.05 -2.45 L-2.8 -2.35 3.3 1.3 3.2 1.4 2.15 2.15 Q0.6 2.75 -0.9 2.15 -2.5 1.45 -3.1 -0.05 -3.55 -1.15 -3.1 -2.4 L-3.05 -2.45" fill="#ffcc66" fill-rule="evenodd" stroke="none"/>
    </g>
    <g id="sprite10" transform="matrix(1.0, 0.0, 0.0, 1.0, 5.1, 6.6)">
      <use ffdec:characterId="7" height="13.2" transform="matrix(1.0, 0.0, 0.0, 1.0, -5.1, -6.6)" width="10.15" xlink:href="#shape8"/>
    </g>
    <g id="shape8" transform="matrix(1.0, 0.0, 0.0, 1.0, 5.1, 6.6)">
      <path d="M-4.85 2.95 L-5.1 2.85 -4.85 2.2 -4.1 0.7 -3.7 0.9 2.25 4.7 2.1 5.05 1.25 6.6 -4.85 2.95 M5.05 -4.25 L4.1 -0.95 3.75 0.15 -2.25 -2.9 -1.95 -3.5 -0.2 -6.6 5.05 -4.25" fill="#00ff00" fill-rule="evenodd" stroke="none"/>
    </g>
    <g id="shape9" transform="matrix(1.0, 0.0, 0.0, 1.0, 6.55, 10.15)">
      <path d="M-0.45 -5.05 Q1.4 -8.35 2.2 -8.8 3.05 -9.35 3.85 -9.2 L4.3 -9.1 Q5.3 -8.65 5.55 -7.4 5.75 -6.5 4.8 -2.7 L-0.45 -5.05 M3.5 1.7 L2.0 6.25 -3.95 2.45 -4.35 2.25 -2.5 -1.35 3.5 1.7" fill="#ffffff" fill-rule="evenodd" stroke="none"/>
      <path d="M4.8 -2.7 Q5.75 -6.5 5.55 -7.4 5.3 -8.65 4.3 -9.1 L3.85 -9.2 Q3.05 -9.35 2.2 -8.8 1.4 -8.35 -0.45 -5.05 L-2.2 -1.95 -2.5 -1.35 -4.35 2.25 -5.1 3.75 -5.35 4.4 -5.4 4.45 Q-5.85 5.7 -5.4 6.8 -4.8 8.3 -3.2 9.0 -1.7 9.6 -0.15 9.0 L0.9 8.25 1.0 8.15 1.85 6.6 2.0 6.25 3.5 1.7 3.85 0.6 4.8 -2.7" fill="none" stroke="#000000" stroke-linecap="round" stroke-linejoin="round" stroke-width="1.8"/>
      <path d="M-0.45 -5.05 L4.8 -2.7 M-5.1 4.5 L0.7 7.95 M-2.5 -1.35 L3.5 1.7 M2.0 6.25 L-3.95 2.45" fill="none" stroke="#000000" stroke-linecap="round" stroke-linejoin="round" stroke-width="1.5"/>
    </g>
    <g id="sprite11" transform="matrix(1.0, 0.0, 0.0, 1.0, 1.45, 0.75)">
      <use ffdec:characterId="454" height="16.75" id="mc100" transform="matrix(1.0, 0.0, 0.0, 1.0, 0.0, 2.2)" width="26.6" xlink:href="#sprite12"/>
      <use ffdec:characterId="455" height="21.1" transform="matrix(1.0, 0.0, 0.0, 1.0, -1.45, -0.75)" width="29.0" xlink:href="#shape11"/>
    </g>
    <g id="sprite12" transform="matrix(1.0, 0.0, 0.0, 1.0, 13.3, 8.35)">
      <use ffdec:characterId="111" height="16.75" transform="matrix(1.0, 0.0, 0.0, 1.0, -13.3, -8.35)" width="26.6" xlink:href="#shape10"/>
    </g>
    <g id="shape10" transform="matrix(1.0, 0.0, 0.0, 1.0, 13.3, 8.35)">
      <path d="M13.3 -5.25 Q0.05 -3.15 -13.2 -5.25 L-13.2 -5.8 -13.1 -8.0 10.9 -8.0 11.6 -8.35 13.3 -5.25 M-13.1 4.0 Q-2.1 8.9 8.55 4.0 6.1 6.95 3.05 8.15 -1.6 8.65 -6.1 8.15 -7.95 7.6 -9.9 6.65 L-13.05 4.35 -13.1 4.0 M11.05 0.2 L10.85 0.6 Q-1.4 3.4 -13.25 0.7 L-13.3 -2.45 Q-1.7 0.7 11.05 -2.5 L11.05 0.2" fill="#00ff00" fill-rule="evenodd" stroke="none"/>
    </g>
    <g id="shape11" transform="matrix(1.0, 0.0, 0.0, 1.0, 1.45, 0.75)">
      <path d="M26.7 5.3 L26.6 5.3 26.7 5.3 M24.35 10.75 L24.35 11.15 24.15 11.15 24.35 10.75" fill="#000000" fill-rule="evenodd" stroke="none"/>
      <path d="M26.6 5.3 L26.7 5.3 26.6 5.35 26.6 5.3 26.6 5.65 24.35 10.75 24.35 8.05 Q11.6 11.25 0.0 8.1 L0.05 5.3 0.1 5.3 Q13.35 7.4 26.6 5.3 M24.05 0.65 L24.2 2.55 0.2 2.55 0.25 1.95 0.4 0.15 0.4 0.0 24.0 0.0 24.05 0.65 23.85 0.25 0.4 0.15 23.85 0.25 24.05 0.65 M0.2 14.55 L0.05 11.25 Q11.9 13.95 24.15 11.15 L24.35 11.15 24.2 14.55 21.85 14.55 24.15 11.15 21.85 14.55 Q11.2 19.45 0.2 14.55" fill="#ffffff" fill-rule="evenodd" stroke="none"/>
      <path d="M26.7 5.3 L26.6 5.3 Q13.35 7.4 0.1 5.3 L0.05 5.3 0.1 4.75 0.2 2.55 24.2 2.55 24.05 0.65 24.0 0.0 0.4 0.0 0.4 0.15 0.25 1.95 M0.25 14.9 L0.2 14.55 Q11.2 19.45 21.85 14.55 M0.05 11.25 L0.0 8.1 0.05 5.3 M24.35 11.15 L24.35 10.75 24.35 8.05 Q11.6 11.25 0.0 8.1 M24.15 11.15 L24.35 11.15 M7.2 18.7 Q11.7 19.2 16.35 18.7 M24.15 11.15 Q11.9 13.95 0.05 11.25" fill="none" stroke="#000000" stroke-linecap="round" stroke-linejoin="round" stroke-width="1.5"/>
      <path d="M26.6 5.3 L26.6 5.35 26.65 5.45 26.6 5.65 24.35 10.75 24.15 11.15 21.85 14.55 Q19.4 17.5 16.35 18.7 12.3 20.25 7.2 18.7 5.35 18.15 3.4 17.2 L0.25 14.9 -0.55 14.35 0.2 2.55 0.25 1.95 0.35 0.15 0.4 0.15 23.85 0.25 24.05 0.65 26.6 5.3 Z" fill="none" stroke="#000000" stroke-linecap="round" stroke-linejoin="round" stroke-width="1.8"/>
    </g>
    <g id="sprite13" transform="matrix(1.0, 0.0, 0.0, 1.0, 0.75, 0.75)">
      <use ffdec:characterId="323" height="19.45" id="mc100" transform="matrix(1.0, 0.0, 0.0, 1.0, 1.65, 0.0)" width="6.75" xlink:href="#sprite14"/>
      <use ffdec:characterId="116" height="20.95" transform="matrix(1.0, 0.0, 0.0, 1.0, -0.75, -0.75)" width="10.0" xlink:href="#shape13"/>
    </g>
    <g id="sprite14" transform="matrix(1.0, 0.0, 0.0, 1.0, 3.35, 9.7)">
      <use ffdec:characterId="19" height="19.45" transform="matrix(1.0, 0.0, 0.0, 1.0, -3.35, -9.7)" width="6.75" xlink:href="#shape12"/>
    </g>
    <g id="shape12" transform="matrix(1.0, 0.0, 0.0, 1.0, 3.35, 9.7)">
      <path d="M3.05 0.15 L2.9 4.95 0.45 4.7 0.95 9.15 0.95 9.75 0.9 9.75 -2.55 9.3 -1.9 4.45 -3.35 4.3 -3.2 -0.6 3.05 0.15 M3.35 -6.95 L3.25 -4.2 -3.05 -4.95 -2.9 -9.4 -2.75 -9.7 3.4 -7.2 3.35 -6.95" fill="#00ffff" fill-rule="evenodd" stroke="none"/>
    </g>
    <g id="shape13" transform="matrix(1.0, 0.0, 0.0, 1.0, 0.75, 0.75)">
      <path d="M1.95 4.75 L8.25 5.5 8.05 9.85 1.8 9.1 1.95 4.75 M7.9 14.65 L7.85 14.95 Q8.45 16.8 8.5 19.2 L6.0 19.45 5.95 19.45 5.95 18.85 5.45 14.4 7.4 14.6 7.9 14.65 M2.45 19.0 L0.0 18.3 Q0.15 16.25 1.6 14.4 L1.65 14.0 3.1 14.15 2.45 19.0" fill="#ffffff" fill-rule="evenodd" stroke="none"/>
      <path d="M2.1 0.3 L1.95 4.75 8.25 5.5 8.35 2.75 M8.4 2.5 L2.25 0.0 M1.95 4.75 L1.8 9.1 8.05 9.85 8.25 5.5 M5.95 19.45 L6.0 19.45 8.5 19.2 Q8.45 16.8 7.85 14.95 L7.9 14.65 8.05 9.85 M7.4 14.6 L5.45 14.4 5.95 18.85 M5.95 19.45 L5.9 19.45 2.45 19.0 0.0 18.3 Q0.15 16.25 1.6 14.4 L1.65 14.0 1.8 9.1 M2.45 19.0 L3.1 14.15 1.65 14.0 M5.45 14.4 L3.1 14.15" fill="none" stroke="#000000" stroke-linecap="round" stroke-linejoin="round" stroke-width="1.5"/>
    </g>
    <g id="sprite15" transform="matrix(1.0, 0.0, 0.0, 1.0, 0.9, 0.9)">
      <use ffdec:characterId="457" height="11.1" id="mc100" transform="matrix(1.0, 0.0, 0.0, 1.0, 0.0, 0.45)" width="27.9" xlink:href="#sprite16"/>
      <use ffdec:characterId="120" height="13.35" transform="matrix(1.0, 0.0, 0.0, 1.0, -0.9, -0.9)" width="29.7" xlink:href="#shape15"/>
    </g>
    <g id="sprite16" transform="matrix(1.0, 0.0, 0.0, 1.0, 13.95, 5.55)">
      <use ffdec:characterId="118" height="11.1" transform="matrix(1.0, 0.0, 0.0, 1.0, -13.95, -5.55)" width="27.9" xlink:href="#shape14"/>
    </g>
    <g id="shape14" transform="matrix(1.0, 0.0, 0.0, 1.0, 13.95, 5.55)">
      <path d="M4.55 -4.9 L13.95 -1.6 13.95 -1.35 Q10.55 5.1 3.15 5.55 L3.0 5.5 2.95 5.25 4.4 -4.55 4.55 -4.9 M-13.95 -5.05 L-5.9 -5.55 -6.35 3.3 -6.7 4.1 Q-13.95 0.9 -13.95 -4.55 L-13.95 -5.05" fill="#00ffff" fill-rule="evenodd" stroke="none"/>
    </g>
    <g id="shape15" transform="matrix(1.0, 0.0, 0.0, 1.0, 0.9, 0.9)">
      <path d="M16.9 11.25 L16.9 11.5 Q8.65 11.5 7.25 10.1 L7.6 9.3 8.05 0.7 8.05 0.45 15.4 0.0 18.5 1.1 18.35 1.45 16.9 11.25" fill="#ffffff" fill-rule="evenodd" stroke="none"/>
      <path d="M16.9 11.25 L18.35 1.45 M18.5 1.1 L15.4 0.0 8.05 0.45 0.0 0.95 M8.05 0.7 L7.6 9.3 M7.25 10.1 Q8.65 11.5 16.9 11.5 M7.25 10.1 Q0.0 6.9 0.0 1.45 M18.5 1.1 L27.9 4.4 M17.1 11.55 Q24.5 11.1 27.9 4.65" fill="none" stroke="#000000" stroke-linecap="round" stroke-linejoin="round" stroke-width="1.8"/>
    </g>
    <g id="sprite17" transform="matrix(1.0, 0.0, 0.0, 1.0, 0.9, 0.9)">
      <use ffdec:characterId="459" height="8.2" id="mc200" transform="matrix(1.0, 0.0, 0.0, 1.0, 0.0, 9.25)" width="11.1" xlink:href="#sprite18"/>
      <use ffdec:characterId="460" height="9.55" id="mc100" transform="matrix(1.0, 0.0, 0.0, 1.0, 0.55, 2.3)" width="10.2" xlink:href="#sprite19"/>
      <use ffdec:characterId="126" height="19.25" transform="matrix(1.0, 0.0, 0.0, 1.0, -0.9, -0.9)" width="12.9" xlink:href="#shape18"/>
    </g>
    <g id="sprite18" transform="matrix(1.0, 0.0, 0.0, 1.0, 5.55, 4.1)">
      <use ffdec:characterId="122" height="8.2" transform="matrix(1.0, 0.0, 0.0, 1.0, -5.55, -4.1)" width="11.1" xlink:href="#shape16"/>
    </g>
    <g id="shape16" transform="matrix(1.0, 0.0, 0.0, 1.0, 5.55, 4.1)">
      <path d="M5.2 -1.5 L5.55 0.0 Q5.55 1.7 3.9 2.9 2.3 4.1 0.0 4.1 -2.3 4.1 -3.95 2.9 -5.55 1.7 -5.55 0.0 -5.55 -0.95 -5.0 -1.75 L-3.95 -2.9 Q-2.3 -4.1 0.0 -4.1 2.3 -4.1 3.9 -2.9 L5.2 -1.5" fill="#ffcc66" fill-rule="evenodd" stroke="none"/>
    </g>
    <g id="sprite19" transform="matrix(1.0, 0.0, 0.0, 1.0, 5.1, 4.75)">
      <use ffdec:characterId="124" height="9.55" transform="matrix(1.0, 0.0, 0.0, 1.0, -5.1, -4.75)" width="10.2" xlink:href="#shape17"/>
    </g>
    <g id="shape17" transform="matrix(1.0, 0.0, 0.0, 1.0, 5.1, 4.75)">
      <path d="M-0.1 2.2 Q-2.4 2.2 -4.05 3.4 L-5.1 4.55 -4.9 2.0 Q0.85 -2.05 4.25 2.2 L4.85 2.1 4.9 2.5 5.05 3.8 5.1 4.8 3.8 3.4 Q2.2 2.2 -0.1 2.2 M3.4 -3.35 L4.4 -0.15 Q1.0 -4.4 -4.5 -0.35 L-3.35 -4.0 Q1.05 -5.75 3.4 -3.35" fill="#00ff00" fill-rule="evenodd" stroke="none"/>
    </g>
    <g id="shape18" transform="matrix(1.0, 0.0, 0.0, 1.0, 0.9, 0.9)">
      <path d="M10.5 9.15 L9.9 9.25 Q6.5 5.0 0.75 9.05 L1.1 6.9 1.15 6.7 Q6.65 2.65 10.05 6.9 L10.15 7.2 10.5 9.15 M2.3 3.05 Q2.95 1.55 3.85 0.45 L4.2 0.3 Q6.4 -0.55 7.65 1.0 L9.05 3.7 Q6.7 1.3 2.3 3.05" fill="#ffffff" fill-rule="evenodd" stroke="none"/>
      <path d="M0.75 9.05 L0.55 11.6 Q0.9 10.95 1.6 10.45 3.25 9.25 5.55 9.25 7.85 9.25 9.45 10.45 10.3 11.1 10.75 11.85 L10.7 10.85 10.55 9.55 10.5 9.15 10.15 7.2 10.05 6.9 9.05 3.7 Q6.7 1.3 2.3 3.05 2.95 1.55 3.85 0.45 L4.2 0.3 Q6.4 -0.55 7.65 1.0 L9.05 3.7 M9.9 9.25 Q6.5 5.0 0.75 9.05 L1.1 6.9 1.15 6.7 Q1.6 4.65 2.3 3.05 M1.15 6.7 Q6.65 2.65 10.05 6.9 M10.75 11.85 Q11.1 12.55 11.1 13.35 11.1 15.05 9.45 16.25 7.85 17.45 5.55 17.45 3.25 17.45 1.6 16.25 0.0 15.05 0.0 13.35 0.0 12.4 0.55 11.6" fill="none" stroke="#000000" stroke-linecap="round" stroke-linejoin="round" stroke-width="1.8"/>
    </g>
    <g id="sprite20" transform="matrix(1.0, 0.0, 0.0, 1.0, 0.9, 0.9)">
      <use ffdec:characterId="462" height="21.85" id="mc100" transform="matrix(1.0, 0.0, 0.0, 1.0, 0.0, 0.0)" width="11.05" xlink:href="#sprite21"/>
      <use ffdec:characterId="130" height="23.65" transform="matrix(1.0, 0.0, 0.0, 1.0, -0.9, -0.9)" width="12.85" xlink:href="#shape20"/>
    </g>
    <g id="sprite21" transform="matrix(1.0, 0.0, 0.0, 1.0, 5.5, 10.9)">
      <use ffdec:characterId="128" height="21.85" transform="matrix(1.0, 0.0, 0.0, 1.0, -5.5, -10.9)" width="11.05" xlink:href="#shape19"/>
    </g>
    <g id="shape19" transform="matrix(1.0, 0.0, 0.0, 1.0, 5.5, 10.9)">
      <path d="M5.55 10.95 Q-5.25 4.15 -5.5 -10.9 1.1 -0.3 5.55 10.95" fill="#993300" fill-rule="evenodd" stroke="none"/>
    </g>
    <g id="shape20" transform="matrix(1.0, 0.0, 0.0, 1.0, 0.9, 0.9)">
      <path d="M11.05 21.85 Q0.25 15.05 0.0 0.0 6.6 10.6 11.05 21.85 Z" fill="none" stroke="#000000" stroke-linecap="round" stroke-linejoin="round" stroke-width="1.8"/>
    </g>
    <g id="sprite22" transform="matrix(1.0, 0.0, 0.0, 1.0, 0.9, 0.85)">
      <use ffdec:characterId="464" height="22.25" id="mc100" transform="matrix(1.0, 0.0, 0.0, 1.0, 0.0, 0.0)" width="25.2" xlink:href="#sprite23"/>
      <use ffdec:characterId="134" height="24.0" transform="matrix(1.0, 0.0, 0.0, 1.0, -0.9, -0.85)" width="27.0" xlink:href="#shape22"/>
    </g>
    <g id="sprite23" transform="matrix(1.0, 0.0, 0.0, 1.0, 12.6, 11.1)">
      <use ffdec:characterId="132" height="22.25" transform="matrix(1.0, 0.0, 0.0, 1.0, -12.6, -11.1)" width="25.2" xlink:href="#shape21"/>
    </g>
    <g id="shape21" transform="matrix(1.0, 0.0, 0.0, 1.0, 12.6, 11.1)">
      <path d="M-4.35 -11.1 L-4.3 -11.05 -4.05 -11.0 Q8.5 -5.3 12.45 7.1 L11.95 7.3 11.6 7.7 12.45 7.1 12.5 7.2 12.55 7.3 12.6 7.55 12.25 7.8 11.8 8.05 11.75 8.05 Q-0.3 14.6 -10.85 7.25 L-11.15 7.05 -11.35 7.1 Q-15.85 -5.75 -4.35 -11.1" fill="#993300" fill-rule="evenodd" stroke="none"/>
    </g>
    <g id="shape22" transform="matrix(1.0, 0.0, 0.0, 1.0, 0.9, 0.85)">
      <path d="M1.75 18.35 Q12.3 25.7 24.35 19.15 L24.4 19.15 24.85 18.9 25.2 18.65 25.15 18.4 25.1 18.3 25.05 18.2 Q21.1 5.8 8.55 0.1 M7.45 5.15 L8.3 0.05 Q-3.25 5.35 1.25 18.2 L4.1 14.0 Q6.3 9.85 7.45 5.15 L24.55 18.4 M24.2 18.8 Q13.1 19.7 4.1 14.0" fill="none" stroke="#000000" stroke-linecap="round" stroke-linejoin="round" stroke-width="1.8"/>
    </g>
    <g id="sprite24" transform="matrix(1.0, 0.0, 0.0, 1.0, 0.9, 0.35)">
      <use ffdec:characterId="467" height="43.0" id="mc100" transform="matrix(1.0, 0.0, 0.0, 1.0, 0.0, 0.55)" width="51.6" xlink:href="#sprite25"/>
      <use ffdec:characterId="468" height="44.8" transform="matrix(1.0, 0.0, 0.0, 1.0, -0.9, -0.35)" width="53.4" xlink:href="#shape24"/>
    </g>
    <g id="sprite25" transform="matrix(1.0, 0.0, 0.0, 1.0, 25.8, 21.5)">
      <use ffdec:characterId="466" height="43.0" transform="matrix(1.0, 0.0, 0.0, 1.0, -25.8, -21.5)" width="51.6" xlink:href="#shape23"/>
    </g>
    <g id="shape23" transform="matrix(1.0, 0.0, 0.0, 1.0, 25.8, 21.5)">
      <path d="M6.7 -20.75 Q14.5 -18.4 20.4 -13.4 L24.6 -1.7 Q28.45 9.45 19.85 15.55 L19.45 15.85 Q4.95 24.9 -10.8 19.4 -24.8 12.55 -25.55 1.0 -26.6 -2.5 -23.2 -6.0 -20.2 -9.7 -19.35 -13.7 L-18.9 -17.5 Q-14.1 -20.85 -8.25 -21.25 L6.7 -20.75" fill="#ffcc66" fill-rule="evenodd" stroke="none"/>
    </g>
    <g id="shape24" transform="matrix(1.0, 0.0, 0.0, 1.0, 0.9, 0.35)">
      <path d="M50.4 20.35 L46.2 8.65 Q40.3 3.65 32.5 1.3 L17.55 0.8 Q11.7 1.2 6.9 4.55 L6.45 8.35 Q5.6 12.35 2.6 16.05 -0.8 19.55 0.25 23.05 1.0 34.6 15.0 41.45 30.75 46.95 45.25 37.9 L45.65 37.6 Q54.25 31.5 50.4 20.35 Z" fill="none" stroke="#000000" stroke-linecap="round" stroke-linejoin="round" stroke-width="1.8"/>
    </g>
    <g id="sprite26" transform="matrix(1.0, 0.0, 0.0, 1.0, 0.8, 0.85)">
      <use ffdec:characterId="470" height="20.45" id="mc100" transform="matrix(1.0, 0.0, 0.0, 1.0, 0.1, 0.05)" width="48.95" xlink:href="#sprite27"/>
      <use ffdec:characterId="142" height="22.25" transform="matrix(1.0, 0.0, 0.0, 1.0, -0.8, -0.85)" width="50.75" xlink:href="#shape26"/>
    </g>
    <g id="sprite27" transform="matrix(1.0, 0.0, 0.0, 1.0, 24.45, 10.2)">
      <use ffdec:characterId="140" height="20.45" transform="matrix(1.0, 0.0, 0.0, 1.0, -24.45, -10.2)" width="48.95" xlink:href="#shape25"/>
    </g>
    <g id="shape25" transform="matrix(1.0, 0.0, 0.0, 1.0, 24.45, 10.2)">
      <path d="M0.05 -10.15 Q4.15 -9.9 7.9 -8.45 L7.95 -8.45 Q16.75 -5.15 23.9 4.5 L24.5 10.25 Q13.6 1.65 6.2 -0.8 2.3 -2.1 -1.6 -2.55 L0.05 -10.15 M-21.4 -4.75 L-18.65 -6.05 Q-14.85 -7.85 -11.2 -8.85 L-11.45 -7.9 -13.65 -1.75 Q-16.5 -1.15 -19.3 0.0 L-19.4 0.05 Q-21.9 1.0 -24.45 2.25 L-21.85 -4.9 -21.4 -4.75 M-7.45 -2.65 L-11.15 -2.25 -9.45 -9.3 -9.25 -9.35 -6.15 -9.9 -2.3 -10.2 -3.65 -2.7 -7.45 -2.65" fill="#993300" fill-rule="evenodd" stroke="none"/>
    </g>
    <g id="shape26" transform="matrix(1.0, 0.0, 0.0, 1.0, 0.8, 0.85)">
      <path d="M13.1 2.35 L11.45 8.35 11.3 8.4 10.9 8.5 13.1 2.35" fill="#993300" fill-rule="evenodd" stroke="none"/>
      <path d="M32.25 2.3 L30.75 9.45 Q38.15 11.9 49.05 20.5 L48.45 14.75 Q41.3 5.1 32.5 1.8 L32.45 1.8 Q28.7 0.35 24.6 0.1 L22.95 7.7 Q26.85 8.15 30.75 9.45 M3.15 5.5 L5.9 4.2 Q9.7 2.4 13.35 1.4 L15.1 0.95 15.3 0.9 18.4 0.35 22.25 0.05 24.6 0.1 M18.4 0.35 L17.1 7.6 Q19.0 7.45 20.9 7.55 L22.25 0.05 M10.9 8.5 Q8.05 9.1 5.25 10.25 L5.15 10.3 Q2.65 11.25 0.1 12.5 L2.7 5.35 M15.1 0.95 L13.4 8.0 17.1 7.6 M10.9 8.5 L13.1 2.35 M6.1 4.8 L5.25 10.25" fill="none" stroke="#000000" stroke-linecap="round" stroke-linejoin="round" stroke-width="1.8"/>
    </g>
    <g id="shape27" transform="matrix(1.0, 0.0, 0.0, 1.0, 0.0, 0.0)">
      <path d="M3.05 2.1 Q6.1 -1.15 9.6 0.65 11.05 1.25 12.2 2.45 L15.0 1.9 Q13.7 4.4 11.25 5.8 6.8 -0.3 0.0 5.6 L3.05 2.1" fill="#000000" fill-rule="evenodd" stroke="none"/>
    </g>
    <g id="shape28" transform="matrix(1.0, 0.0, 0.0, 1.0, 0.0, 0.0)">
      <path d="M9.4 6.1 Q4.55 0.4 1.6 5.55 L0.0 0.0 1.95 1.35 Q6.6 -1.1 9.4 6.1" fill="#000000" fill-rule="evenodd" stroke="none"/>
    </g>
    <g id="sprite29" transform="matrix(1.0, 0.0, 0.0, 1.0, 1.55, 0.9)">
      <use ffdec:characterId="473" height="29.2" id="mc100" transform="matrix(1.0, 0.0, 0.0, 1.0, -0.65, 0.0)" width="23.05" xlink:href="#sprite30"/>
      <use ffdec:characterId="151" height="31.0" transform="matrix(1.0, 0.0, 0.0, 1.0, -1.55, -0.9)" width="24.85" xlink:href="#shape30"/>
    </g>
    <g id="sprite30" transform="matrix(1.0, 0.0, 0.0, 1.0, 11.5, 14.6)">
      <use ffdec:characterId="149" height="29.2" transform="matrix(1.0, 0.0, 0.0, 1.0, -11.5, -14.6)" width="23.05" xlink:href="#shape29"/>
    </g>
    <g id="shape29" transform="matrix(1.0, 0.0, 0.0, 1.0, 11.5, 14.6)">
      <path d="M11.55 -3.4 L11.3 -0.9 11.25 -0.65 8.4 4.4 8.25 4.5 8.3 4.55 Q3.5 11.4 -4.05 14.6 L-4.45 13.85 -5.0 13.65 -5.15 13.9 -5.4 14.25 Q-13.25 9.5 -11.0 -3.4 L-10.85 -3.4 -10.8 -4.65 Q-10.4 -8.5 -7.6 -11.35 -4.3 -14.6 0.35 -14.6 5.0 -14.6 8.25 -11.35 11.55 -8.05 11.55 -3.4 M2.1 7.7 L0.35 7.8 1.1 8.6 2.1 7.7" fill="#993300" fill-rule="evenodd" stroke="none"/>
    </g>
    <g id="shape30" transform="matrix(1.0, 0.0, 0.0, 1.0, 1.55, 0.9)">
      <path d="M22.15 13.7 L22.1 13.95 Q21.4 16.8 19.25 19.0 L19.15 19.15 Q14.35 26.0 6.8 29.2 L6.75 29.2 5.95 29.1 5.45 28.85 Q-2.4 24.1 -0.15 11.2 L0.05 9.95 Q0.45 6.1 3.25 3.25 6.55 0.0 11.2 0.0 15.85 0.0 19.1 3.25 22.4 6.55 22.4 11.2 L22.15 13.7 M5.95 29.1 L5.7 28.5 Q1.5 21.95 0.8 15.4 L0.75 15.3 Q0.0 13.4 0.0 11.2 L0.05 9.95 M5.7 28.5 L5.85 28.25 Q7.35 24.65 7.0 21.65 4.95 20.8 3.25 19.1 1.6 17.45 0.8 15.4 M19.25 19.0 L19.1 19.1 Q16.5 21.75 12.95 22.3 L6.4 28.45 M12.95 22.3 L11.2 22.4 Q8.95 22.4 7.0 21.65 M22.1 13.95 L19.25 19.0" fill="none" stroke="#000000" stroke-linecap="round" stroke-linejoin="round" stroke-width="1.8"/>
    </g>
    <g id="sprite31" transform="matrix(1.0, 0.0, 0.0, 1.0, 0.6, 0.6)">
      <use ffdec:characterId="146" height="7.55" transform="matrix(1.0, 0.0, 0.0, 1.0, -0.6, -0.6)" width="11.45" xlink:href="#shape31"/>
    </g>
    <g id="shape31" transform="matrix(1.0, 0.0, 0.0, 1.0, 0.6, 0.6)">
      <path d="M1.75 2.1 L2.1 2.15 Q2.7 2.15 3.35 1.6 L4.55 0.6 4.6 0.6 Q4.95 2.3 7.05 2.3 L8.65 1.95 10.25 0.85 Q9.75 3.1 8.35 4.65 6.75 6.35 4.65 6.35 3.1 6.35 2.35 4.9 1.75 3.75 1.75 2.1" fill="#000000" fill-rule="evenodd" stroke="none"/>
      <path d="M1.75 2.1 L2.1 2.15 Q2.7 2.15 3.35 1.6 L4.55 0.6 4.6 0.6 Q4.95 2.3 7.05 2.3 L8.65 1.95 10.25 0.85 Q9.75 3.1 8.35 4.65 6.75 6.35 4.65 6.35 3.1 6.35 2.35 4.9 1.75 3.75 1.75 2.1 L0.7 1.2 0.0 0.0" fill="none" stroke="#000000" stroke-linecap="round" stroke-linejoin="round" stroke-width="1.2000000000000002"/>
    </g>
  </defs>
</svg>
