<?xml version="1.0" encoding="UTF-8" standalone="no"?>
<svg xmlns:ffdec="https://www.free-decompiler.com/flash" xmlns:xlink="http://www.w3.org/1999/xlink" ffdec:objectType="frame" height="113.5px" width="116.75px" xmlns="http://www.w3.org/2000/svg">
  <g transform="matrix(1.0, 0.0, 0.0, 1.0, 46.1, 106.3)">
    <use ffdec:characterId="561" height="79.3" id="mc1310" transform="matrix(-0.7959, -0.5962, -0.5962, 0.7959, 70.3529, -61.6297)" width="74.0" xlink:href="#sprite0"/>
    <use ffdec:characterId="563" height="18.85" id="mc1210" transform="matrix(-0.8914, -0.4313, -0.4313, 0.8914, 11.4602, -24.7834)" width="10.9" xlink:href="#sprite5"/>
    <use ffdec:characterId="563" height="18.85" id="mc1110" transform="matrix(-0.1985, 0.975, 0.975, 0.1985, 9.7205, -26.1618)" width="10.9" xlink:href="#sprite5"/>
    <use ffdec:characterId="569" height="18.55" id="mc1010" transform="matrix(0.8056, 0.5826, -0.5826, 0.8056, -11.7473, -35.8121)" width="15.75" xlink:href="#sprite6"/>
    <use ffdec:characterId="571" height="16.5" id="mc910" transform="matrix(-0.998, 0.0571, 0.0571, 0.998, 21.1282, -28.7159)" width="27.1" xlink:href="#sprite10"/>
    <use ffdec:characterId="573" height="21.3" id="mc810" transform="matrix(-0.998, 0.0571, 0.0571, 0.998, 17.8968, -35.4996)" width="28.3" xlink:href="#sprite12"/>
    <use ffdec:characterId="575" height="14.45" id="mc710" transform="matrix(-0.998, 0.0571, 0.0571, 0.998, 22.0968, -32.0996)" width="29.9" xlink:href="#sprite14"/>
    <use ffdec:characterId="569" height="18.55" id="mc610" transform="matrix(-0.9099, 0.4014, 0.4014, 0.9099, 25.9108, -35.7077)" width="15.75" xlink:href="#sprite6"/>
    <use ffdec:characterId="579" height="44.0" id="mc510" transform="matrix(0.9994, 0.0268, -0.0268, 0.9994, -21.8772, -63.5851)" width="43.15" xlink:href="#sprite16"/>
    <use ffdec:characterId="599" height="4.85" transform="matrix(1.0, 0.0, 0.0, 1.0, -7.15, -24.55)" width="9.15" xlink:href="#morphshape0"/>
    <use ffdec:characterId="587" height="16.5" id="mc310" transform="matrix(-0.9994, -0.0268, 0.0268, -0.9994, 19.8814, -23.0188)" width="43.95" xlink:href="#sprite18"/>
    <use ffdec:characterId="591" height="57.85" id="mc210" transform="matrix(0.9994, 0.0268, -0.0268, 0.9994, -43.5753, -85.2236)" width="81.1" xlink:href="#sprite21"/>
    <use ffdec:characterId="597" height="28.55" id="hide_hat" transform="matrix(1.0, 0.0, 0.0, 1.0, -28.85, -64.55)" width="20.75" xlink:href="#sprite23"/>
    <use ffdec:characterId="598" height="0.0" id="hat" transform="matrix(1.0, 0.0, 0.0, 1.0, 0.0, 0.0)" width="0.0" xlink:href="#sprite27"/>
  </g>
  <defs>
    <g id="sprite0" transform="matrix(1.0, 0.0, 0.0, 1.0, 0.9, 0.9)">
      <use ffdec:characterId="557" height="53.85" id="mc200" transform="matrix(1.0, 0.0, 0.0, 1.0, 16.75, 18.6)" width="50.35" xlink:href="#sprite1"/>
      <use ffdec:characterId="559" height="66.3" id="mc201" transform="matrix(1.0, 0.0, 0.0, 1.0, 6.8, 9.25)" width="63.0" xlink:href="#sprite3"/>
      <use ffdec:characterId="560" height="79.3" transform="matrix(1.0, 0.0, 0.0, 1.0, -0.9, -0.9)" width="74.0" xlink:href="#shape2"/>
    </g>
    <g id="sprite1" transform="matrix(1.0, 0.0, 0.0, 1.0, 0.0, 0.0)">
      <use ffdec:characterId="556" ffdec:characterName="bommer_fla.Symbol18_334" height="53.85" id="mc000" transform="matrix(1.0, 0.0, 0.0, 1.0, 0.0, 0.0)" width="50.35" xlink:href="#sprite2"/>
    </g>
    <g id="sprite2" transform="matrix(1.0, 0.0, 0.0, 1.0, 0.0, 0.0)">
      <use ffdec:characterId="6" height="53.85" transform="matrix(1.0, 0.0, 0.0, 1.0, 0.0, 0.0)" width="50.35" xlink:href="#shape0"/>
    </g>
    <g id="shape0" transform="matrix(1.0, 0.0, 0.0, 1.0, 0.0, 0.0)">
      <path d="M38.2 0.2 L50.35 0.0 Q44.35 19.8 36.1 40.2 18.3 47.9 0.0 53.85 L1.25 41.45 Q12.7 35.7 24.15 29.9 32.25 15.3 38.2 0.2" fill="#006666" fill-rule="evenodd" stroke="none"/>
    </g>
    <g id="sprite3" transform="matrix(1.0, 0.0, 0.0, 1.0, 0.0, 0.0)">
      <use ffdec:characterId="558" ffdec:characterName="bommer_fla.Symbol19_336" height="66.3" id="mc000" transform="matrix(1.0, 0.0, 0.0, 1.0, 0.0, 0.0)" width="63.0" xlink:href="#sprite4"/>
    </g>
    <g id="sprite4" transform="matrix(1.0, 0.0, 0.0, 1.0, 0.0, 0.0)">
      <use ffdec:characterId="1" height="66.3" transform="matrix(1.0, 0.0, 0.0, 1.0, 0.0, 0.0)" width="63.0" xlink:href="#shape1"/>
    </g>
    <g id="shape1" transform="matrix(1.0, 0.0, 0.0, 1.0, 0.0, 0.0)">
      <path d="M60.3 9.35 L48.15 9.55 51.45 0.8 63.0 0.0 60.3 9.35 M11.2 50.8 L9.95 63.2 0.0 66.3 2.35 55.3 11.2 50.8" fill="#00cc99" fill-rule="evenodd" stroke="none"/>
    </g>
    <g id="shape2" transform="matrix(1.0, 0.0, 0.0, 1.0, 0.9, 0.9)">
      <path d="M16.75 72.45 L6.8 75.55 9.15 64.55 18.0 60.05 16.75 72.45 M54.95 18.6 L58.25 9.85 69.8 9.05 67.1 18.4 54.95 18.6" fill="#ffffff" fill-opacity="0.4" fill-rule="evenodd" stroke="none"/>
      <path d="M58.25 10.05 L59.4 6.6 Q63.9 -0.95 72.2 0.15 L69.8 9.25 58.25 10.05 M9.15 64.55 L6.8 75.55 0.0 77.5 5.15 66.55 9.15 64.55" fill="#fafff5" fill-rule="evenodd" stroke="none"/>
      <path d="M40.9 48.5 L18.0 60.05 16.75 72.45 Q35.05 66.5 52.85 58.8 61.1 38.4 67.1 18.6 L54.95 18.8 Q49.0 33.9 40.9 48.5 M54.95 18.8 L58.25 10.05 59.4 6.6 Q63.9 -0.95 72.2 0.15 L69.8 9.25 67.1 18.6 M58.25 10.05 L69.8 9.25 M18.0 60.05 L9.15 64.55 6.8 75.55 16.75 72.45 M6.8 75.55 L0.0 77.5 5.15 66.55 9.15 64.55" fill="none" stroke="#000000" stroke-linecap="round" stroke-linejoin="round" stroke-width="1.8"/>
    </g>
    <g id="sprite5" transform="matrix(1.0, 0.0, 0.0, 1.0, 4.95, 9.5)">
      <use ffdec:characterId="562" height="18.85" transform="matrix(1.0, 0.0, 0.0, 1.0, -4.95, -9.5)" width="10.9" xlink:href="#shape3"/>
    </g>
    <g id="shape3" transform="matrix(1.0, 0.0, 0.0, 1.0, 4.95, 9.5)">
      <path d="M5.05 5.55 L5.05 5.7 Q5.15 6.65 3.9 7.45 2.7 8.25 0.95 8.4 -0.8 8.55 -2.15 7.95 -3.45 7.45 -3.55 6.5 L-3.55 6.35 -3.5 6.35 4.7 5.5 5.05 5.55" fill="#000000" fill-rule="evenodd" stroke="none"/>
      <path d="M-3.55 6.1 L-3.65 3.85 -4.05 -6.3 Q-4.1 -7.15 -3.15 -7.75 -2.1 -8.4 -0.55 -8.55 L2.1 -8.25 Q3.15 -7.75 3.3 -7.0 L3.35 -6.85 3.35 -6.65 4.7 3.05 5.05 5.45 4.7 5.5 -3.5 6.35 -3.55 6.1 M4.7 3.05 L-3.65 3.85 4.7 3.05" fill="#ffffff" fill-rule="evenodd" stroke="none"/>
      <path d="M-3.55 6.1 L-3.65 3.85 -4.05 -6.3 Q-4.1 -7.15 -3.15 -7.75 -2.1 -8.4 -0.55 -8.55 L2.1 -8.25 Q3.15 -7.75 3.3 -7.0 L3.35 -6.85 3.35 -6.65 4.7 3.05 5.05 5.45 5.05 5.55 5.05 5.7 Q5.15 6.65 3.9 7.45 2.7 8.25 0.95 8.4 -0.8 8.55 -2.15 7.95 -3.45 7.45 -3.55 6.5 L-3.55 6.35 -3.55 6.1 M-3.5 6.35 L4.7 5.5 M-3.55 6.35 L-3.5 6.35 M-3.65 3.85 L4.7 3.05" fill="none" stroke="#000000" stroke-linecap="round" stroke-linejoin="round" stroke-width="1.8"/>
    </g>
    <g id="sprite6" transform="matrix(1.0, 0.0, 0.0, 1.0, 7.85, 8.8)">
      <use ffdec:characterId="564" ffdec:characterName="bommer_fla.Symbol12_boo_339" height="6.5" id="mc400" transform="matrix(1.0, 0.0, 0.0, 1.0, -5.35, 2.35)" width="7.55" xlink:href="#sprite7"/>
      <use ffdec:characterId="565" ffdec:characterName="bommer_fla.Symbol14_340" height="13.15" id="mc300" transform="matrix(1.0, 0.0, 0.0, 1.0, -4.6, -7.9)" width="11.6" xlink:href="#sprite8"/>
      <use ffdec:characterId="566" height="18.55" transform="matrix(1.0, 0.0, 0.0, 1.0, -6.25, -8.8)" width="14.15" xlink:href="#shape6"/>
      <use ffdec:characterId="568" ffdec:characterName="bommer_fla.Symbol13_341" height="9.45" id="mc100" transform="matrix(1.0, 0.0, 0.0, 1.0, -6.95, -1.85)" width="10.7" xlink:href="#sprite9"/>
      <use ffdec:characterId="16" height="11.25" transform="matrix(1.0, 0.0, 0.0, 1.0, -7.85, -2.75)" width="12.5" xlink:href="#shape8"/>
    </g>
    <g id="sprite7" transform="matrix(1.0, 0.0, 0.0, 1.0, 0.0, 0.0)">
      <use ffdec:characterId="12" height="6.5" transform="matrix(1.0, 0.0, 0.0, 1.0, 0.0, 0.0)" width="7.55" xlink:href="#shape4"/>
    </g>
    <g id="shape4" transform="matrix(1.0, 0.0, 0.0, 1.0, 0.0, 0.0)">
      <path d="M6.45 2.8 L7.55 2.7 7.1 3.95 Q6.5 5.65 5.2 6.2 3.75 6.8 2.3 6.2 0.8 5.55 0.2 4.15 -0.3 2.8 0.5 1.2 L1.1 0.0 Q2.7 2.0 4.75 2.55 L6.3 2.9 6.45 2.8" fill="#b59155" fill-rule="evenodd" stroke="none"/>
    </g>
    <g id="sprite8" transform="matrix(1.0, 0.0, 0.0, 1.0, 0.0, 0.0)">
      <use ffdec:characterId="77" height="13.15" transform="matrix(1.0, 0.0, 0.0, 1.0, 0.0, 0.0)" width="11.6" xlink:href="#shape5"/>
    </g>
    <g id="shape5" transform="matrix(1.0, 0.0, 0.0, 1.0, 5.8, 6.6)">
      <path d="M3.1 -6.45 Q4.3 -6.85 5.1 -6.2 5.95 -5.55 5.8 -4.35 5.75 -3.1 1.95 4.5 L-0.25 6.55 -1.8 6.2 Q-4.0 5.45 -5.3 3.25 L-5.8 2.25 -3.1 -1.35 Q1.9 -6.15 3.1 -6.45" fill="#ffffff" fill-rule="evenodd" stroke="none"/>
    </g>
    <g id="shape6" transform="matrix(1.0, 0.0, 0.0, 1.0, 6.25, 8.8)">
      <path d="M1.1 5.15 L2.2 5.05 3.35 3.3 3.75 2.45 Q6.95 -4.45 7.0 -5.65 7.15 -6.85 6.3 -7.5 5.5 -8.15 4.3 -7.75 3.1 -7.45 -1.9 -2.65 M-2.55 -1.8 L-2.7 -1.55 M-4.1 1.95 L-4.25 2.35 Q-2.65 4.35 -0.6 4.9 M-4.25 2.35 L-4.85 3.55 Q-5.65 5.15 -5.15 6.5 -4.55 7.9 -3.05 8.55 -1.6 9.15 -0.15 8.55 1.15 8.0 1.75 6.3 L2.2 5.05" fill="none" stroke="#000000" stroke-linecap="round" stroke-linejoin="round" stroke-width="1.8"/>
    </g>
    <g id="sprite9" transform="matrix(1.0, 0.0, 0.0, 1.0, 0.0, 0.0)">
      <use ffdec:characterId="567" height="9.45" transform="matrix(1.0, 0.0, 0.0, 1.0, 0.0, 0.0)" width="10.7" xlink:href="#shape7"/>
    </g>
    <g id="shape7" transform="matrix(1.0, 0.0, 0.0, 1.0, 0.0, 0.0)">
      <path d="M10.3 4.45 L10.7 4.7 8.8 9.45 8.75 9.45 8.5 9.35 7.2 7.0 4.05 8.35 3.95 8.1 3.55 4.5 0.0 4.5 4.3 0.0 10.3 4.45" fill="#ffffff" fill-rule="evenodd" stroke="none"/>
    </g>
    <g id="shape8" transform="matrix(1.0, 0.0, 0.0, 1.0, 7.85, 2.75)">
      <path d="M-2.65 -1.85 L-6.95 2.65 -3.4 2.65 -3.0 6.25 M1.85 7.6 L3.75 2.85 M-2.9 6.5 L0.25 5.15 1.55 7.5 M3.35 2.6 L-2.45 -1.7" fill="none" stroke="#000000" stroke-linecap="round" stroke-linejoin="round" stroke-width="1.8"/>
    </g>
    <g id="sprite10" transform="matrix(1.0, 0.0, 0.0, 1.0, 0.2, -2.25)">
      <use ffdec:characterId="570" ffdec:characterName="bommer_fla.Symbol17_343" height="14.7" id="mc100" transform="matrix(1.0, 0.0, 0.0, 1.0, 0.7, 3.15)" width="25.3" xlink:href="#sprite11"/>
      <use ffdec:characterId="254" height="16.5" transform="matrix(1.0, 0.0, 0.0, 1.0, -0.2, 2.25)" width="27.1" xlink:href="#shape10"/>
    </g>
    <g id="sprite11" transform="matrix(1.0, 0.0, 0.0, 1.0, 0.0, 0.0)">
      <use ffdec:characterId="252" height="14.7" transform="matrix(1.0, 0.0, 0.0, 1.0, 0.0, 0.0)" width="25.3" xlink:href="#shape9"/>
    </g>
    <g id="shape9" transform="matrix(1.0, 0.0, 0.0, 1.0, 0.0, 0.0)">
      <path d="M25.3 8.55 Q12.0 21.65 0.05 6.9 L0.0 6.55 3.7 0.0 25.1 3.95 25.3 8.55" fill="#ffcc00" fill-rule="evenodd" stroke="none"/>
    </g>
    <g id="shape10" transform="matrix(1.0, 0.0, 0.0, 1.0, 0.2, -2.25)">
      <path d="M12.5 17.35 L16.3 8.85 M0.75 10.05 Q12.7 24.8 26.0 11.7 L25.8 7.1 4.4 3.15 0.7 9.7" fill="none" stroke="#000000" stroke-linecap="round" stroke-linejoin="round" stroke-width="1.8"/>
    </g>
    <g id="sprite12" transform="matrix(1.0, 0.0, 0.0, 1.0, 0.9, 0.9)">
      <use ffdec:characterId="572" ffdec:characterName="bommer_fla.Symbol16_345" height="19.5" id="mc100" transform="matrix(1.0, 0.0, 0.0, 1.0, 0.0, 0.0)" width="26.5" xlink:href="#sprite13"/>
      <use ffdec:characterId="258" height="21.3" transform="matrix(1.0, 0.0, 0.0, 1.0, -0.9, -0.9)" width="28.3" xlink:href="#shape12"/>
    </g>
    <g id="sprite13" transform="matrix(1.0, 0.0, 0.0, 1.0, 0.0, 0.0)">
      <use ffdec:characterId="256" height="19.5" transform="matrix(1.0, 0.0, 0.0, 1.0, 0.0, 0.0)" width="26.5" xlink:href="#shape11"/>
    </g>
    <g id="shape11" transform="matrix(1.0, 0.0, 0.0, 1.0, 0.0, 0.0)">
      <path d="M19.6 16.1 Q5.8 25.35 0.55 9.3 L0.0 8.8 4.35 0.0 26.5 4.65 19.9 15.9 19.6 16.1" fill="#ffffff" fill-rule="evenodd" stroke="none"/>
    </g>
    <g id="shape12" transform="matrix(1.0, 0.0, 0.0, 1.0, 0.9, 0.9)">
      <path d="M19.9 15.9 L26.5 4.65 4.35 0.0 0.0 8.8 M0.55 9.3 Q5.8 25.35 19.6 16.1" fill="none" stroke="#000000" stroke-linecap="round" stroke-linejoin="round" stroke-width="1.8"/>
    </g>
    <g id="sprite14" transform="matrix(1.0, 0.0, 0.0, 1.0, 0.9, 0.9)">
      <use ffdec:characterId="574" ffdec:characterName="bommer_fla.Symbol15_347" height="12.65" id="mc100" transform="matrix(1.0, 0.0, 0.0, 1.0, 0.0, 0.0)" width="28.1" xlink:href="#sprite15"/>
      <use ffdec:characterId="262" height="14.45" transform="matrix(1.0, 0.0, 0.0, 1.0, -0.9, -0.9)" width="29.9" xlink:href="#shape14"/>
    </g>
    <g id="sprite15" transform="matrix(1.0, 0.0, 0.0, 1.0, 0.0, 0.0)">
      <use ffdec:characterId="260" height="12.65" transform="matrix(1.0, 0.0, 0.0, 1.0, 0.0, 0.0)" width="28.1" xlink:href="#shape13"/>
    </g>
    <g id="shape13" transform="matrix(1.0, 0.0, 0.0, 1.0, 0.0, 0.0)">
      <path d="M25.1 11.3 L23.1 10.2 19.25 11.5 20.15 8.55 27.05 7.25 27.1 7.2 28.1 10.0 26.3 9.3 25.1 11.3 M15.25 7.85 L12.75 12.65 11.5 9.35 7.35 10.15 6.35 6.05 0.0 2.45 5.1 0.0 15.2 7.85 15.25 7.85" fill="#ffffff" fill-rule="evenodd" stroke="none"/>
    </g>
    <g id="shape14" transform="matrix(1.0, 0.0, 0.0, 1.0, 0.9, 0.9)">
      <path d="M28.1 10.0 L26.3 9.3 25.1 11.3 23.1 10.2 19.25 11.5 20.15 8.55 27.05 7.25 27.1 7.2 28.1 10.0 M15.25 7.85 L12.75 12.65 11.5 9.35 7.35 10.15 6.35 6.05 0.0 2.45 5.1 0.0 15.2 7.85 15.25 7.85 Z" fill="none" stroke="#000000" stroke-linecap="round" stroke-linejoin="round" stroke-width="1.8"/>
    </g>
    <g id="sprite16" transform="matrix(1.0, 0.0, 0.0, 1.0, -2.4, 0.9)">
      <use ffdec:characterId="577" ffdec:characterName="bommer_fla.Symbol12_361" height="42.2" id="mc100" transform="matrix(1.0, 0.0, 0.0, 1.0, 3.3, 0.0)" width="41.35" xlink:href="#sprite17"/>
      <use ffdec:characterId="578" height="44.0" transform="matrix(1.0, 0.0, 0.0, 1.0, 2.4, -0.9)" width="43.15" xlink:href="#shape16"/>
    </g>
    <g id="sprite17" transform="matrix(1.0, 0.0, 0.0, 1.0, 0.0, 0.0)">
      <use ffdec:characterId="576" height="42.2" transform="matrix(1.0, 0.0, 0.0, 1.0, 0.0, 0.0)" width="41.35" xlink:href="#shape15"/>
    </g>
    <g id="shape15" transform="matrix(1.0, 0.0, 0.0, 1.0, 0.0, 0.0)">
      <path d="M41.35 0.0 L41.35 29.2 Q38.2 35.55 29.5 39.6 20.3 44.8 11.05 39.6 1.6 35.15 0.0 26.45 L2.7 0.0 41.35 0.0" fill="#c4a44a" fill-rule="evenodd" stroke="none"/>
    </g>
    <g id="shape16" transform="matrix(1.0, 0.0, 0.0, 1.0, -2.4, 0.9)">
      <path d="M44.65 0.0 L6.0 0.0 3.3 26.45 Q4.9 35.15 14.35 39.6 23.6 44.8 32.8 39.6 41.5 35.55 44.65 29.2 L44.65 0.0 Z" fill="none" stroke="#000000" stroke-linecap="round" stroke-linejoin="round" stroke-width="1.8"/>
    </g>
    <g id="morphshape0" transform="matrix(1.0, 0.0, 0.0, 1.0, 7.15, 24.55)">
      <path d="M-5.4 -20.5 L-5.4 -20.05 1.25 -19.8 1.3 -20.25 Q1.35 -21.65 0.45 -22.65 -0.5 -23.65 -1.9 -23.75 -3.3 -23.8 -4.3 -22.8 -5.3 -21.9 -5.35 -20.5" fill="#000000" fill-rule="evenodd" stroke="none"/>
      <path d="M-5.35 -20.5 Q-5.3 -21.9 -4.3 -22.8 -3.3 -23.8 -1.9 -23.75 -0.5 -23.65 0.45 -22.65 1.35 -21.65 1.3 -20.25 L1.25 -19.8 -5.4 -20.05 -5.4 -20.5" fill="none" stroke="#000000" stroke-linecap="round" stroke-linejoin="round" stroke-opacity="0.0" stroke-width="0.0"/>
    </g>
    <g id="sprite18" transform="matrix(1.0, 0.0, 0.0, 1.0, -2.55, 0.75)">
      <use ffdec:characterId="581" ffdec:characterName="bommer_fla.Symbol26_363" height="12.7" id="mc500" transform="matrix(1.0, 0.0, 0.0, 1.0, 3.05, 2.55)" width="42.95" xlink:href="#sprite19"/>
      <use ffdec:characterId="582" height="12.7" transform="matrix(1.0, 0.0, 0.0, 1.0, 3.05, 2.55)" width="42.95" xlink:href="#shape18"/>
      <use ffdec:characterId="584" ffdec:characterName="bommer_fla.Symbol25_364" height="13.55" id="mc300" transform="matrix(1.0, 0.0, 0.0, 1.0, 4.65, 0.15)" width="39.8" xlink:href="#sprite20"/>
      <use ffdec:characterId="585" height="16.5" transform="matrix(1.0, 0.0, 0.0, 1.0, 2.55, -0.75)" width="43.95" xlink:href="#shape20"/>
      <use ffdec:characterId="586" height="8.65" transform="matrix(0.3534, -0.9617, 0.9617, 0.3534, 7.138, 8.9163)" width="8.05" xlink:href="#shape21"/>
      <use ffdec:characterId="586" height="8.65" transform="matrix(-0.3534, -0.9617, -0.9617, 0.3534, 42.062, 8.7663)" width="8.05" xlink:href="#shape21"/>
    </g>
    <g id="sprite19" transform="matrix(1.0, 0.0, 0.0, 1.0, 0.0, 0.0)">
      <use ffdec:characterId="115" height="17.4" transform="matrix(0.859, 0.0, 0.0, 0.7299, 0.0, 0.0)" width="50.0" xlink:href="#shape17"/>
    </g>
    <g id="shape17" transform="matrix(1.0, 0.0, 0.0, 1.0, 0.0, 0.0)">
      <path d="M49.35 10.4 Q48.65 13.65 46.9 16.05 44.1 18.25 36.7 15.45 29.3 12.7 28.1 9.95 27.65 8.85 27.35 7.75 27.0 6.4 27.0 5.0 26.95 4.1 27.05 3.15 27.1 2.35 27.3 1.5 28.4 -0.3 30.1 0.05 29.6 0.95 29.45 2.15 L29.3 2.85 Q28.0 9.85 34.85 12.0 L41.75 14.65 Q45.95 15.7 46.95 10.9 48.0 6.05 48.2 1.35 L48.1 0.65 Q49.9 0.25 50.0 3.75 50.15 7.3 49.35 10.4 M22.95 3.15 L23.05 5.0 22.75 7.75 21.9 10.3 Q20.7 13.05 13.3 15.85 5.9 18.6 3.1 16.4 1.4 14.0 0.65 10.75 -0.15 7.65 0.0 4.15 0.1 0.6 1.9 1.05 L1.8 1.7 Q2.0 6.45 3.05 11.25 4.05 16.05 8.25 15.0 L15.15 12.35 Q22.0 10.2 20.7 3.25 L20.55 2.5 Q20.4 1.3 19.9 0.4 21.6 0.1 22.7 1.85 L22.95 3.15" fill="#333333" fill-rule="evenodd" stroke="none"/>
    </g>
    <g id="shape18" transform="matrix(1.0, 0.0, 0.0, 1.0, -3.05, -2.55)">
      <path d="M22.55 3.95 L22.8 4.85 22.85 6.2 22.6 8.2 21.9 10.1 Q20.85 12.1 14.5 14.15 8.15 16.15 5.75 14.55 4.3 12.8 3.65 10.45 2.95 8.2 3.1 5.65 3.2 3.05 4.75 3.35 L4.65 3.85 Q4.8 7.3 5.7 10.75 6.55 14.3 10.15 13.55 L16.1 11.6 Q21.95 10.0 20.85 4.95 L20.7 4.4 Q20.6 3.55 20.15 2.85 21.6 2.65 22.55 3.95 M43.35 10.5 Q44.25 7.0 44.45 3.6 L44.35 3.1 Q45.9 2.8 45.95 5.35 46.1 7.9 45.4 10.2 44.8 12.55 43.3 14.3 40.9 15.9 34.55 13.85 28.2 11.85 27.2 9.85 L26.55 8.2 Q26.25 7.25 26.25 6.2 L26.3 4.85 26.5 3.65 Q27.45 2.35 28.9 2.6 28.5 3.3 28.35 4.15 L28.2 4.65 Q27.1 9.75 33.0 11.35 L38.9 13.3 Q42.5 14.05 43.35 10.5" fill="#000000" fill-opacity="0.4" fill-rule="evenodd" stroke="none"/>
    </g>
    <g id="sprite20" transform="matrix(1.0, 0.0, 0.0, 1.0, 0.0, 0.0)">
      <use ffdec:characterId="583" height="13.55" transform="matrix(1.0, 0.0, 0.0, 1.0, 0.0, 0.0)" width="39.8" xlink:href="#shape19"/>
    </g>
    <g id="shape19" transform="matrix(1.0, 0.0, 0.0, 1.0, 0.0, 0.0)">
      <path d="M38.7 10.35 Q37.85 13.9 34.25 13.15 L28.35 11.2 Q22.45 9.6 23.55 4.5 L23.7 4.0 Q23.85 3.15 24.25 2.45 25.4 0.75 28.6 0.35 32.55 -0.35 36.85 0.3 39.3 0.95 39.7 2.95 L39.8 3.45 Q39.6 6.85 38.7 10.35 M35.55 10.5 Q37.15 6.25 36.45 2.95 L27.7 2.65 Q25.95 5.5 26.95 8.35 31.1 10.05 35.55 10.5 M21.7 8.0 L17.75 8.0 18.0 6.0 17.95 4.65 21.45 4.65 21.4 6.0 Q21.4 7.05 21.7 8.0 M12.1 2.95 L3.35 3.25 Q2.6 6.5 4.25 10.8 8.7 10.3 12.8 8.65 13.8 5.8 12.1 2.95 M16.2 4.8 Q17.3 9.85 11.45 11.45 L5.5 13.4 Q1.9 14.15 1.05 10.6 0.15 7.15 0.0 3.7 L0.1 3.2 Q0.5 1.2 2.9 0.55 7.2 -0.1 11.2 0.6 14.35 1.05 15.5 2.7 15.95 3.4 16.05 4.25 L16.2 4.8" fill="#999999" fill-rule="evenodd" stroke="none"/>
    </g>
    <g id="shape20" transform="matrix(1.0, 0.0, 0.0, 1.0, -2.55, 0.75)">
      <path d="M8.45 7.75 Q12.25 6.95 16.0 8.3 M39.95 8.35 Q36.15 7.6 32.4 8.9" fill="none" stroke="#000000" stroke-linecap="round" stroke-linejoin="round" stroke-width="1.5"/>
      <path d="M16.55 6.8 Q12.8 6.8 8.45 4.1 M31.85 7.45 Q35.55 7.45 39.95 4.7" fill="none" stroke="#000000" stroke-linecap="round" stroke-linejoin="round" stroke-width="1.8"/>
      <path d="M31.6 8.5 Q30.6 5.65 32.35 2.8 L41.1 3.1 Q41.8 6.4 40.2 10.65 35.75 10.2 31.6 8.5 M16.75 3.1 Q18.45 5.95 17.45 8.8 13.35 10.45 8.9 10.95 7.25 6.65 8.0 3.4 L16.75 3.1" fill="#ccffff" fill-rule="evenodd" stroke="none"/>
      <path d="M28.9 2.6 Q30.05 0.9 33.25 0.5 37.2 -0.2 41.5 0.45 43.95 1.1 44.35 3.1 L44.45 3.6 Q44.25 7.0 43.35 10.5 42.5 14.05 38.9 13.3 L33.0 11.35 Q27.1 9.75 28.2 4.65 L28.35 4.15 Q28.5 3.3 28.9 2.6 M4.75 3.35 Q5.15 1.35 7.55 0.7 11.85 0.05 15.85 0.75 19.0 1.2 20.15 2.85 20.6 3.55 20.7 4.4 L20.85 4.95 Q21.95 10.0 16.1 11.6 L10.15 13.55 Q6.55 14.3 5.7 10.75 4.8 7.3 4.65 3.85 L4.75 3.35 M31.6 8.5 Q30.6 5.65 32.35 2.8 L41.1 3.1 Q41.8 6.4 40.2 10.65 35.75 10.2 31.6 8.5 M16.75 3.1 L8.0 3.4 Q7.25 6.65 8.9 10.95 13.35 10.45 17.45 8.8 18.45 5.95 16.75 3.1" fill="none" stroke="#000000" stroke-linecap="round" stroke-linejoin="round" stroke-width="1.8"/>
      <path d="M44.35 3.1 Q45.9 2.8 45.95 5.35 46.1 7.9 45.4 10.2 44.8 12.55 43.3 14.3 40.9 15.9 34.55 13.85 28.2 11.85 27.2 9.85 L26.55 8.2 22.6 8.2 21.9 10.1 Q20.85 12.1 14.5 14.15 8.15 16.15 5.75 14.55 4.3 12.8 3.65 10.45 2.95 8.2 3.1 5.65 3.2 3.05 4.75 3.35 M20.15 2.85 Q21.6 2.65 22.55 3.95 L22.8 4.85 26.3 4.85 26.5 3.65 Q27.45 2.35 28.9 2.6 M22.6 8.2 L22.85 6.2 22.8 4.85 M26.3 4.85 L26.25 6.2 Q26.25 7.25 26.55 8.2 M22.85 6.2 L26.25 6.2" fill="none" stroke="#000000" stroke-linecap="round" stroke-linejoin="round" stroke-width="1.0"/>
    </g>
    <g id="shape21" transform="matrix(1.0, 0.0, 0.0, 1.0, 5.05, 4.5)">
      <path d="M-4.45 -3.9 Q0.9 -1.45 2.4 3.55 -3.25 2.25 -4.45 -3.9" fill="#ffffff" fill-rule="evenodd" stroke="none"/>
      <path d="M-4.45 -3.9 Q-3.25 2.25 2.4 3.55 0.9 -1.45 -4.45 -3.9 Z" fill="none" stroke="#000000" stroke-linecap="round" stroke-linejoin="round" stroke-width="1.2000000000000002"/>
      <path d="M-0.35 -1.15 L1.6 1.5 1.25 1.85 -0.4 2.35 Q-1.4 2.35 -2.15 1.85 -2.8 1.3 -2.8 0.6 -2.8 -0.1 -2.15 -0.65 -1.4 -1.15 -0.4 -1.15 L-0.35 -1.15" fill="#000000" fill-rule="evenodd" stroke="none"/>
    </g>
    <g id="sprite21" transform="matrix(1.0, 0.0, 0.0, 1.0, 0.9, 0.9)">
      <use ffdec:characterId="589" ffdec:characterName="bommer_fla.Symbol6_366" height="56.05" id="mc100" transform="matrix(1.0, 0.0, 0.0, 1.0, 0.0, 0.0)" width="79.3" xlink:href="#sprite22"/>
      <use ffdec:characterId="590" height="57.85" transform="matrix(1.0, 0.0, 0.0, 1.0, -0.9, -0.9)" width="81.1" xlink:href="#shape23"/>
    </g>
    <g id="sprite22" transform="matrix(1.0, 0.0, 0.0, 1.0, 0.0, 0.0)">
      <use ffdec:characterId="588" height="56.05" transform="matrix(1.0, 0.0, 0.0, 1.0, 0.0, 0.0)" width="79.3" xlink:href="#shape22"/>
    </g>
    <g id="shape22" transform="matrix(1.0, 0.0, 0.0, 1.0, 0.0, 0.0)">
      <path d="M50.2 1.3 Q69.4 9.55 68.05 25.05 72.65 30.6 79.3 31.9 73.0 37.85 66.7 38.9 69.75 47.85 76.95 55.8 L76.95 56.05 76.9 56.05 Q63.85 55.05 50.8 44.6 L54.25 53.5 39.6 41.45 44.2 49.75 35.75 42.95 22.95 50.9 26.0 46.15 Q17.45 50.95 12.45 50.1 L17.2 42.6 Q12.05 43.05 7.7 40.85 L13.75 38.65 0.0 28.25 Q9.0 28.95 13.95 17.35 26.1 0.95 43.15 0.05 46.45 -0.2 50.2 1.3" fill="#ff6600" fill-rule="evenodd" stroke="none"/>
    </g>
    <g id="shape23" transform="matrix(1.0, 0.0, 0.0, 1.0, 0.9, 0.9)">
      <path d="M76.9 56.05 Q63.85 55.05 50.8 44.6 L54.25 53.5 39.6 41.45 44.2 49.75 35.75 42.95 22.95 50.9 26.0 46.15 Q17.45 50.95 12.45 50.1 L17.2 42.6 Q12.05 43.05 7.7 40.85 L13.75 38.65 0.0 28.25 Q9.0 28.95 13.95 17.35 26.1 0.95 43.15 0.05 46.45 -0.2 50.2 1.3 69.4 9.55 68.05 25.05 72.65 30.6 79.3 31.9 73.0 37.85 66.7 38.9 69.75 47.85 76.95 55.8 M66.7 38.9 L65.75 39.4 M35.3 42.6 L35.75 42.95" fill="none" stroke="#000000" stroke-linecap="round" stroke-linejoin="round" stroke-width="1.8"/>
    </g>
    <g id="sprite23" transform="matrix(1.0, 0.0, 0.0, 1.0, 2.3, 5.15)">
      <use ffdec:characterId="596" height="25.6" id="mc000" transform="matrix(1.0, 0.0, 0.0, 1.0, -1.15, -3.65)" width="14.65" xlink:href="#sprite24"/>
    </g>
    <g id="sprite24" transform="matrix(1.0, 0.0, 0.0, 1.0, 0.65, -0.6)">
      <use ffdec:characterId="595" height="25.6" id="mc000" transform="matrix(1.0, 0.0, 0.0, 1.0, -0.65, 0.6)" width="14.65" xlink:href="#sprite25"/>
    </g>
    <g id="sprite25" transform="matrix(1.0, 0.0, 0.0, 1.0, 0.9, 0.9)">
      <use ffdec:characterId="593" ffdec:characterName="bommer_fla.Symbol7_370" height="23.8" id="mc100" transform="matrix(1.0, 0.0, 0.0, 1.0, 0.0, 0.0)" width="12.85" xlink:href="#sprite26"/>
      <use ffdec:characterId="594" height="25.6" transform="matrix(1.0, 0.0, 0.0, 1.0, -0.9, -0.9)" width="14.65" xlink:href="#shape25"/>
    </g>
    <g id="sprite26" transform="matrix(1.0, 0.0, 0.0, 1.0, 0.0, 0.0)">
      <use ffdec:characterId="592" height="23.8" transform="matrix(1.0, 0.0, 0.0, 1.0, 0.0, 0.0)" width="12.85" xlink:href="#shape24"/>
    </g>
    <g id="shape24" transform="matrix(1.0, 0.0, 0.0, 1.0, 0.0, 0.0)">
      <path d="M9.95 20.45 Q8.25 22.65 6.6 23.6 L6.2 23.8 Q-1.15 11.6 0.2 0.0 3.85 11.05 12.85 16.75 L9.95 20.45" fill="#ff6600" fill-rule="evenodd" stroke="none"/>
    </g>
    <g id="shape25" transform="matrix(1.0, 0.0, 0.0, 1.0, 0.9, 0.9)">
      <path d="M12.85 16.75 Q3.85 11.05 0.2 0.0 -1.15 11.6 6.2 23.8 L6.6 23.6 Q8.25 22.65 9.95 20.45 L12.85 16.75 Z" fill="none" stroke="#000000" stroke-linecap="round" stroke-linejoin="round" stroke-width="1.8"/>
    </g>
  </defs>
</svg>
