<?xml version="1.0" encoding="UTF-8" standalone="no"?>
<svg xmlns:ffdec="https://www.free-decompiler.com/flash" xmlns:xlink="http://www.w3.org/1999/xlink" ffdec:objectType="frame" height="18.9px" width="20.7px" xmlns="http://www.w3.org/2000/svg">
  <g transform="matrix(1.0, 0.0, 0.0, 1.0, 0.35, 0.0)">
    <use ffdec:characterId="208" height="43.25" id="mc1300" transform="matrix(-0.2645, 0.0, 0.0, 0.2645, 15.274, 5.0375)" width="20.9" xlink:href="#sprite0"/>
    <use ffdec:characterId="515" height="51.45" id="mc1200" transform="matrix(-0.2645, 0.0, 0.0, 0.2645, 18.2372, 5.3016)" width="44.95" xlink:href="#sprite2"/>
    <use ffdec:characterId="5" height="2.5" transform="matrix(-0.2645, 0.0, 0.0, 0.2645, 16.3103, 15.6694)" width="2.5" xlink:href="#shape4"/>
    <use ffdec:characterId="1390" height="1.0" transform="matrix(1.0, 0.0, 0.0, 1.0, 13.45, 16.35)" width="4.15" xlink:href="#shape5"/>
    <use ffdec:characterId="650" height="9.4" id="mc900" transform="matrix(-0.2645, 0.0, 0.0, 0.2645, 17.0083, 13.1731)" width="16.0" xlink:href="#sprite4"/>
    <use ffdec:characterId="204" height="25.85" id="mc800" transform="matrix(-0.2645, 0.0, 0.0, 0.2645, 18.2872, 5.3252)" width="45.0" xlink:href="#sprite6"/>
    <use ffdec:characterId="328" height="4.5" transform="matrix(0.2645, 0.0, 0.0, 0.2645, 12.9078, 11.855)" width="16.2" xlink:href="#shape11"/>
    <use ffdec:characterId="208" height="43.25" id="mc600" transform="matrix(-0.2645, 0.0, 0.0, 0.2645, 9.024, 7.2375)" width="20.9" xlink:href="#sprite0"/>
    <use ffdec:characterId="208" height="43.25" id="mc500" transform="matrix(-0.2645, 0.0, 0.0, 0.2645, 11.324, 7.1375)" width="20.9" xlink:href="#sprite0"/>
    <use ffdec:characterId="212" height="48.55" id="hide_hat" transform="matrix(-0.229, -0.1322, -0.1322, 0.229, 12.93, 4.1223)" width="29.9" xlink:href="#sprite8"/>
    <use ffdec:characterId="224" height="50.8" id="hide_hat1" transform="matrix(-0.2645, 0.0, 0.0, 0.2645, 15.0021, 1.8165)" width="55.55" xlink:href="#sprite10"/>
    <use ffdec:characterId="212" height="48.55" id="mc200" transform="matrix(-0.2645, 0.0, 0.0, 0.2645, 14.2038, 4.4867)" width="29.9" xlink:href="#sprite8"/>
    <use ffdec:characterId="208" height="43.25" id="mc100" transform="matrix(-0.2645, 0.0, 0.0, 0.2645, 15.274, 5.0375)" width="20.9" xlink:href="#sprite0"/>
    <use ffdec:characterId="1391" height="0.0" id="hat" transform="matrix(-0.2645, 0.0, 0.0, 0.2645, 20.35, 0.0)" width="0.0" xlink:href="#sprite12"/>
  </g>
  <defs>
    <g id="sprite0" transform="matrix(1.0, 0.0, 0.0, 1.0, 10.3, 21.6)">
      <use ffdec:characterId="206" height="41.45" id="mc100" transform="matrix(1.0, 0.0, 0.0, 1.0, -9.4, -20.7)" width="19.1" xlink:href="#sprite1"/>
      <use ffdec:characterId="207" height="43.25" transform="matrix(1.0, 0.0, 0.0, 1.0, -10.3, -21.6)" width="20.9" xlink:href="#shape1"/>
    </g>
    <g id="sprite1" transform="matrix(1.0, 0.0, 0.0, 1.0, 9.55, 20.7)">
      <use ffdec:characterId="205" height="41.45" transform="matrix(1.0, 0.0, 0.0, 1.0, -9.55, -20.7)" width="19.1" xlink:href="#shape0"/>
    </g>
    <g id="shape0" transform="matrix(1.0, 0.0, 0.0, 1.0, 9.55, 20.7)">
      <path d="M-9.55 -16.75 Q-9.8 -21.9 -5.8 -20.3 1.4 -17.55 4.95 -4.65 L8.95 10.35 Q10.8 17.65 7.15 19.95 0.45 24.3 -3.6 5.45 L-9.55 -16.75" fill="#ff9900" fill-rule="evenodd" stroke="none"/>
    </g>
    <g id="shape1" transform="matrix(1.0, 0.0, 0.0, 1.0, 10.3, 21.6)">
      <path d="M-9.4 -16.75 L-3.45 5.45 Q0.6 24.3 7.3 19.95 10.95 17.65 9.1 10.35 L5.1 -4.65 Q1.55 -17.55 -5.65 -20.3 -9.65 -21.9 -9.4 -16.75 Z" fill="none" stroke="#000000" stroke-linecap="round" stroke-linejoin="round" stroke-width="1.8"/>
    </g>
    <g id="sprite2" transform="matrix(1.0, 0.0, 0.0, 1.0, 22.45, 24.95)">
      <use ffdec:characterId="513" height="49.65" id="mc100" transform="matrix(1.0, 0.0, 0.0, 1.0, -21.55, -24.05)" width="43.15" xlink:href="#sprite3"/>
      <use ffdec:characterId="514" height="51.45" transform="matrix(1.0, 0.0, 0.0, 1.0, -22.45, -24.95)" width="44.95" xlink:href="#shape3"/>
    </g>
    <g id="sprite3" transform="matrix(1.0, 0.0, 0.0, 1.0, 21.55, 24.8)">
      <use ffdec:characterId="512" height="49.65" transform="matrix(1.0, 0.0, 0.0, 1.0, -21.55, -24.8)" width="43.15" xlink:href="#shape2"/>
    </g>
    <g id="shape2" transform="matrix(1.0, 0.0, 0.0, 1.0, 21.55, 24.8)">
      <path d="M-15.35 21.95 Q-22.75 16.9 -18.85 8.9 -26.9 -13.15 -10.95 -23.3 5.75 -28.5 21.3 -15.85 23.2 15.3 13.75 20.4 -1.4 28.4 -15.35 21.95" fill="#b88a5c" fill-rule="evenodd" stroke="none"/>
    </g>
    <g id="shape3" transform="matrix(1.0, 0.0, 0.0, 1.0, 22.45, 24.95)">
      <path d="M-15.35 22.7 Q-1.4 29.15 13.75 21.15 23.2 16.05 21.3 -15.1 5.75 -27.75 -10.95 -22.55 -26.9 -12.4 -18.85 9.65 -22.75 17.65 -15.35 22.7 Z" fill="none" stroke="#000000" stroke-linecap="round" stroke-linejoin="round" stroke-width="1.8"/>
    </g>
    <g id="shape4" transform="matrix(1.0, 0.0, 0.0, 1.0, -0.15, 1.25)">
      <path d="M1.4 -1.25 L2.25 -0.9 Q2.65 -0.5 2.65 0.0 2.65 0.5 2.25 0.85 1.9 1.25 1.4 1.25 0.9 1.25 0.5 0.85 0.15 0.5 0.15 0.0 0.15 -0.5 0.5 -0.9 0.9 -1.25 1.4 -1.25" fill="#ffffff" fill-rule="evenodd" stroke="none"/>
    </g>
    <g id="shape5" transform="matrix(1.0, 0.0, 0.0, 1.0, -13.45, -16.35)">
      <path d="M17.45 16.5 Q16.2 17.2 14.95 17.2 L13.6 17.0" fill="none" stroke="#000000" stroke-linecap="round" stroke-linejoin="round" stroke-width="0.30000000000000004"/>
    </g>
    <g id="sprite4" transform="matrix(1.0, 0.0, 0.0, 1.0, 8.35, 4.45)">
      <use ffdec:characterId="646" height="8.35" transform="matrix(1.0, 0.0, 0.0, 1.0, -7.6, -4.15)" width="15.25" xlink:href="#shape6"/>
      <use ffdec:characterId="648" height="7.0" id="mc100" transform="matrix(1.0, 0.0, 0.0, 1.0, -7.6, -3.7)" width="4.5" xlink:href="#sprite5"/>
      <use ffdec:characterId="649" height="9.4" transform="matrix(1.0, 0.0, 0.0, 1.0, -8.35, -4.45)" width="15.95" xlink:href="#shape8"/>
    </g>
    <g id="shape6" transform="matrix(1.0, 0.0, 0.0, 1.0, 7.6, 4.15)">
      <path d="M-7.6 -4.15 L7.65 -4.15 Q3.35 4.35 -1.55 4.2 -7.05 3.95 -7.6 -4.15" fill="#ffffff" fill-rule="evenodd" stroke="none"/>
    </g>
    <g id="sprite5" transform="matrix(1.0, 0.0, 0.0, 1.0, 2.25, 3.5)">
      <use ffdec:characterId="647" height="7.0" transform="matrix(1.0, 0.0, 0.0, 1.0, -2.25, -3.5)" width="4.5" xlink:href="#shape7"/>
    </g>
    <g id="shape7" transform="matrix(1.0, 0.0, 0.0, 1.0, 2.25, 3.5)">
      <path d="M1.6 -3.5 Q2.25 -2.3 2.25 -0.65 2.25 1.3 1.35 2.65 L0.65 3.5 Q-1.9 1.7 -2.25 -3.5 L1.6 -3.5" fill="#336666" fill-rule="evenodd" stroke="none"/>
    </g>
    <g id="shape8" transform="matrix(1.0, 0.0, 0.0, 1.0, 8.35, 4.45)">
      <path d="M-7.6 -3.7 Q-7.05 3.95 -1.85 4.2 2.8 4.3 6.85 -3.7 L-7.6 -3.7 Z" fill="none" stroke="#000000" stroke-linecap="round" stroke-linejoin="round" stroke-width="1.5"/>
    </g>
    <g id="sprite6" transform="matrix(1.0, 0.0, 0.0, 1.0, 22.45, 12.95)">
      <use ffdec:characterId="202" height="24.05" id="mc100" transform="matrix(1.0, 0.0, 0.0, 1.0, -21.55, -12.05)" width="43.2" xlink:href="#sprite7"/>
      <use ffdec:characterId="203" height="25.85" transform="matrix(1.0, 0.0, 0.0, 1.0, -22.45, -12.95)" width="45.0" xlink:href="#shape10"/>
    </g>
    <g id="sprite7" transform="matrix(1.0, 0.0, 0.0, 1.0, 21.6, 12.05)">
      <use ffdec:characterId="201" height="24.05" transform="matrix(1.0, 0.0, 0.0, 1.0, -21.6, -12.05)" width="43.2" xlink:href="#shape9"/>
    </g>
    <g id="shape9" transform="matrix(1.0, 0.0, 0.0, 1.0, 21.6, 12.05)">
      <path d="M21.25 -2.8 Q21.75 5.5 21.5 12.0 L-21.45 12.0 Q-22.95 -2.55 -11.0 -10.45 5.7 -15.85 21.25 -2.8" fill="#0099cc" fill-rule="evenodd" stroke="none"/>
    </g>
    <g id="shape10" transform="matrix(1.0, 0.0, 0.0, 1.0, 22.45, 12.95)">
      <path d="M21.3 -2.8 Q5.75 -15.85 -10.95 -10.45 -22.9 -2.55 -21.4 12.0 L21.55 12.0 Q21.8 5.5 21.3 -2.8 Z" fill="none" stroke="#000000" stroke-linecap="round" stroke-linejoin="round" stroke-width="1.8"/>
    </g>
    <g id="shape11" transform="matrix(1.0, 0.0, 0.0, 1.0, 8.1, 2.25)">
      <path d="M7.35 1.5 L-7.35 -1.5" fill="none" stroke="#000000" stroke-linecap="round" stroke-linejoin="round" stroke-width="1.5"/>
    </g>
    <g id="sprite8" transform="matrix(1.0, 0.0, 0.0, 1.0, 14.95, 24.25)">
      <use ffdec:characterId="210" height="46.75" id="mc100" transform="matrix(1.0, 0.0, 0.0, 1.0, -14.05, -23.35)" width="28.1" xlink:href="#sprite9"/>
      <use ffdec:characterId="211" height="48.55" transform="matrix(1.0, 0.0, 0.0, 1.0, -14.95, -24.25)" width="29.9" xlink:href="#shape13"/>
    </g>
    <g id="sprite9" transform="matrix(1.0, 0.0, 0.0, 1.0, 14.05, 23.35)">
      <use ffdec:characterId="209" height="46.75" transform="matrix(1.0, 0.0, 0.0, 1.0, -14.05, -23.35)" width="28.1" xlink:href="#shape12"/>
    </g>
    <g id="shape12" transform="matrix(1.0, 0.0, 0.0, 1.0, 14.05, 23.35)">
      <path d="M-6.4 -22.85 Q3.55 -18.7 13.5 13.65 15.8 21.75 8.35 23.2 2.25 24.5 0.35 16.3 L-14.05 -19.6 Q-12.1 -24.7 -6.4 -22.85" fill="#ff9900" fill-rule="evenodd" stroke="none"/>
    </g>
    <g id="shape13" transform="matrix(1.0, 0.0, 0.0, 1.0, 14.95, 24.25)">
      <path d="M-6.4 -22.85 Q3.55 -18.7 13.5 13.65 15.8 21.75 8.35 23.2 2.25 24.5 0.35 16.3 L-14.05 -19.6 Q-12.1 -24.7 -6.4 -22.85 Z" fill="none" stroke="#000000" stroke-linecap="round" stroke-linejoin="round" stroke-width="1.8"/>
    </g>
    <g id="sprite10" transform="matrix(1.0, 0.0, 0.0, 1.0, 27.8, 25.65)">
      <use ffdec:characterId="222" height="49.0" id="mc100" transform="matrix(1.0, 0.0, 0.0, 1.0, -26.9, -24.75)" width="53.75" xlink:href="#sprite11"/>
      <use ffdec:characterId="223" height="50.8" transform="matrix(1.0, 0.0, 0.0, 1.0, -27.8, -25.65)" width="55.55" xlink:href="#shape15"/>
    </g>
    <g id="sprite11" transform="matrix(1.0, 0.0, 0.0, 1.0, 26.9, 24.5)">
      <use ffdec:characterId="221" height="49.0" transform="matrix(1.0, 0.0, 0.0, 1.0, -26.9, -24.5)" width="53.75" xlink:href="#shape14"/>
    </g>
    <g id="shape14" transform="matrix(1.0, 0.0, 0.0, 1.0, 26.9, 24.5)">
      <path d="M21.2 -15.55 Q29.0 -11.0 26.05 -5.65 22.5 0.75 16.3 -4.4 4.55 -12.95 -10.95 -15.2 8.1 -6.3 15.7 15.2 18.1 20.45 13.95 23.35 7.5 26.6 3.6 20.55 -4.5 -1.7 -16.75 -13.15 -22.2 -10.4 -26.9 -12.75 -25.45 -19.6 -17.5 -23.8 -9.2 -26.3 -8.1 -20.0 7.3 -23.8 21.2 -15.55" fill="#ff9900" fill-rule="evenodd" stroke="none"/>
    </g>
    <g id="shape15" transform="matrix(1.0, 0.0, 0.0, 1.0, 27.8, 25.65)">
      <path d="M-15.35 -17.8 Q-11.7 -19.4 -8.1 -20.25 -9.2 -26.55 -17.5 -24.05 -25.45 -19.85 -26.9 -13.0 -22.2 -10.65 -16.75 -13.4 -4.5 -1.95 3.6 20.3 7.5 26.35 13.95 23.1 18.1 20.2 15.7 14.95 8.1 -6.55 -10.95 -15.45 4.55 -13.2 16.3 -4.65 22.5 0.5 26.05 -5.9 29.0 -11.25 21.2 -15.8 7.3 -24.05 -8.1 -20.25" fill="none" stroke="#000000" stroke-linecap="round" stroke-linejoin="round" stroke-width="1.8"/>
    </g>
  </defs>
</svg>
