<svg version="1.2" xmlns="http://www.w3.org/2000/svg" viewBox="0 0 92 92" width="92" height="92">
	<title>ficha</title>
	<defs>
		<clipPath clipPathUnits="userSpaceOnUse" id="cp1">
			<path d="m78.25 12.3q13.25 13.3 13.25 32.1 0 18.8-13.25 32.05-13.3 13.25-32.1 13.25-18.8 0-32.05-13.25-13.25-13.25-13.25-32.05 0-18.8 13.25-32.1 13.25-13.25 32.05-13.25 18.8 0 32.1 13.25z"/>
		</clipPath>
	</defs>
	<style>
		.s0 { fill: #b88a5c } 
		.s1 { fill: none;stroke: #000000;stroke-linecap: round;stroke-linejoin: round;stroke-width: 2.2 } 
		.s2 { fill: #e31709 } 
		.s3 { fill: #ffffff } 
		.s4 { fill: #0099cc } 
		.s5 { opacity: .4;fill: #000000 } 
		.s6 { fill: none;stroke: #ffffff;stroke-linecap: round;stroke-linejoin: round;stroke-width: 1.8 } 
		.s7 { fill: #ff9900 } 
		.s8 { fill: #336666 } 
		.s9 { fill: none;stroke: #000000;stroke-linecap: round;stroke-linejoin: round;stroke-width: 1.8 } 
	</style>
	<g>
		<g id="Clip-Path" clip-path="url(#cp1)">
			<g>
				<g id="sprite0">
					<g id="sprite1">
						<g id="shape1">
							<path fill-rule="evenodd" class="s0" d="m41.1 98.6l-2.8 15.2q-0.6 2-2.7 3-2.2 1-4.2 0.3-2.1-0.6-3.1-2.4-1-1.9-0.4-4l4.5-14.8q0.6-2 2.1-3 1.7-1.1 3.7-0.5 1.9 0.6 2.7 2.4 0.7 1.7 0.2 3.8z"/>
						</g>
					</g>
					<g id="shape2">
						<path class="s1" d="m38.2 92.4q1.9 0.6 2.7 2.4 0.7 1.7 0.2 3.8l-2.8 15.2q-0.6 2-2.7 3-2.2 1-4.2 0.3-2.1-0.6-3.1-2.4-1-1.9-0.4-4l4.5-14.8q0.6-2 2.1-3 1.7-1.1 3.7-0.5z"/>
					</g>
				</g>
				<g id="sprite0">
					<g id="sprite1">
						<g id="shape1">
							<path fill-rule="evenodd" class="s0" d="m48.2 98.5l2.7 15.2q0.7 2 2.8 3 2.1 1 4.2 0.3 2-0.6 3-2.4 1.1-1.9 0.4-3.9l-4.4-14.9q-0.6-2-2.2-3-1.6-1.1-3.6-0.4-1.9 0.5-2.7 2.3-0.8 1.7-0.2 3.8z"/>
						</g>
					</g>
					<g id="shape2">
						<path class="s1" d="m51.1 92.4q-1.9 0.5-2.7 2.3-0.8 1.7-0.2 3.8l2.7 15.2q0.7 2 2.8 3 2.1 1 4.2 0.3 2-0.6 3-2.4 1.1-1.9 0.4-3.9l-4.4-14.9q-0.6-2-2.2-3-1.6-1.1-3.6-0.4z"/>
					</g>
				</g>
				<g id="sprite2">
					<g id="sprite3">
						<g id="shape3">
							<path fill-rule="evenodd" class="s0" d="m55 77.3q-1.3 0.6-1.6 2.1-0.3 1.6 2.2 10l2.4 7.5q0.8 2.2 2.5 2.9 1.9 0.8 3.8 0 2-0.9 2.8-2.7 0.6-1.7-0.4-3.8l-3.6-7.1q-4.1-7.7-5.5-8.5-1.4-0.9-2.6-0.4z"/>
						</g>
					</g>
					<g id="shape4">
						<path class="s1" d="m57.6 77.7q1.3 0.8 5.5 8.5l2.8 5.5q-3.4 3.2-8.4 3.5l-1.9-5.8q-2.5-8.4-2.2-10 0.3-1.6 1.5-2.1 1.3-0.5 2.7 0.4zm8.3 14l0.8 1.6q1 2.1 0.4 3.8-0.8 1.9-2.8 2.7h-3.8q-1.7-0.7-2.5-2.9l-0.5-1.7"/>
					</g>
				</g>
				<g id="sprite2">
					<g id="sprite3">
						<g id="shape3">
							<path fill-rule="evenodd" class="s0" d="m34.6 77.3q1.2 0.6 1.5 2.1 0.4 1.6-2.1 10l-2.5 7.5q-0.8 2.2-2.4 2.9-1.9 0.8-3.9 0-1.9-0.9-2.7-2.7-0.7-1.7 0.4-3.8l3.6-7.1q4.1-7.7 5.5-8.5 1.3-0.9 2.6-0.4z"/>
						</g>
					</g>
					<g id="shape4">
						<path class="s1" d="m32 77.7q-1.4 0.8-5.5 8.5l-2.8 5.5q3.4 3.2 8.4 3.5l1.9-5.8q2.5-8.4 2.1-10-0.3-1.6-1.5-2.1-1.3-0.5-2.6 0.4zm-8.3 14l-0.8 1.6q-1.1 2.1-0.4 3.8 0.8 1.9 2.7 2.7h3.9q1.7-0.7 2.4-2.9l0.6-1.7"/>
					</g>
				</g>
				<g id="sprite4">
					<g id="sprite5">
						<g id="shape5">
							<path fill-rule="evenodd" class="s2" d="m55.6 96l-0.3 0.8 0.3 0.8-0.5-0.1-0.9 0.4q-0.5 0.4-0.5 1.1 0 0.6 0.5 1 0.3 0.5 0.9 0.5l0.9-0.3-0.3 0.9q0 0.6 0.5 1 0.3 0.4 1 0.4 0.6 0 1.1-0.4 0.3-0.4 0.3-1v-0.4l0.1 0.1q0.4 0.4 1 0.4l0.7-0.1 1.3 4.9-2.8 1.5-0.3-0.8-0.8-0.4 0.2-0.2 0.4-0.9-0.4-1.1-0.5-0.3-0.6-0.1-0.5 0.1-0.5 0.3-0.2-0.3-0.1-0.1q-0.4-0.4-1.1-0.4-0.6 0-0.9 0.4l-0.2 0.1q-0.3 0.4-0.3 1l0.2 0.8-0.4-0.1q-0.6 0-1 0.4-0.5 0.4-0.5 1.1 0 0.6 0.5 1 0.4 0.5 1 0.5l0.8-0.3q-0.3 0.4-0.3 0.9v0.2l-5.5 0.7-7-0.1-5-0.6v-0.3l-0.2-0.8 0.8 0.2q0.7 0 1-0.5 0.5-0.4 0.5-1 0-0.6-0.5-1.1-0.3-0.3-1-0.3h-0.4l0.2-0.8q0-0.5-0.3-0.9l-0.1-0.2q-0.4-0.3-1.1-0.3-0.6 0-1.1 0.3v0.2l-0.1 0.3-0.1-0.1-0.3-0.2-0.7-0.2-0.8 0.2-0.3 0.2-0.4 1.1 0.4 1 0.2 0.2-0.8 0.3-0.4 1-2.6-1.4 1.3-5.1 0.6 0.1q0.6 0 1-0.4l0.1-0.2v0.4l0.3 1q0.5 0.5 1.1 0.5 0.7 0 1.1-0.5 0.4-0.3 0.4-1l-0.3-0.9 0.8 0.3q0.7 0 1.1-0.5 0.4-0.4 0.4-1 0-0.6-0.4-1.1-0.4-0.3-1.1-0.3h-0.3l0.2-0.8-0.2-0.7q10.8 1.6 21.7 0zm-18.5 4.8l-0.4 1.1 0.4 1 1.1 0.4q0.7 0 1-0.4l0.2-0.1-0.1 0.3 0.1 0.7 0.3 0.4q0.5 0.4 1.1 0.4 0.6 0 1-0.4l0.3-0.4 0.1-0.7-0.2-0.8 0.8 0.2q0.7 0 1-0.5 0.5-0.3 0.5-0.9 0-0.7-0.5-1.1l-1-0.4-0.4 0.1q0.2-0.4 0.2-0.8 0-0.7-0.4-1.1-0.4-0.4-1.1-0.4l-1.1 0.4-0.1 0.4-0.1-0.1q-0.4-0.3-1-0.3l-1.1 0.3-0.4 1.1 0.4 1 0.2 0.2zm12.5-2.6v0.1l-0.3-0.4-1.1-0.4-0.9 0.4q-0.5 0.4-0.5 1.1l0.2 0.8-0.4-0.1-1 0.4q-0.5 0.4-0.5 1.1 0 0.6 0.5 0.9 0.4 0.5 1 0.5l0.8-0.2-0.3 0.8 0.2 0.6 0.3 0.5q0.4 0.4 1 0.4 0.7 0 1.1-0.4l0.3-0.5 0.1-0.6-0.1-0.3 0.2 0.1q0.4 0.4 1 0.4l1.1-0.4 0.3-1-0.3-1.1-0.8-0.4 0.2-0.2 0.4-1-0.4-1.1-1.1-0.3z"/>
						</g>
					</g>
					<g id="sprite6">
						<g id="shape6">
							<path fill-rule="evenodd" class="s3" d="m55.6 96l2.2-0.4 0.1 0.1 0.2 0.4h0.1q0.3-0.4 0.8-0.4l1.4 5.4-0.7 0.1q-0.6 0-1-0.4l-0.1-0.1v0.4q0 0.6-0.3 1-0.5 0.4-1.1 0.4-0.7 0-1-0.4-0.5-0.4-0.5-1l0.3-0.9-0.9 0.3q-0.6 0-0.9-0.5-0.5-0.4-0.5-1 0-0.7 0.5-1.1l0.9-0.4 0.5 0.1-0.3-0.8zm-6 2.2h0.1l1-0.4 1.1 0.4 0.3 1.1-0.3 1-0.3 0.1 0.8 0.4 0.4 1.1-0.4 1.1-1.1 0.4q-0.6 0-1-0.4l-0.1-0.2v0.4 0.5l-0.3 0.5q-0.5 0.5-1.1 0.5-0.7 0-1-0.5l-0.4-0.5-0.1-0.5 0.3-0.9-0.9 0.3q-0.6 0-0.9-0.5-0.5-0.4-0.5-1 0-0.7 0.5-1.1l0.9-0.3h0.5l-0.3-0.8q0-0.7 0.5-1.1l1-0.3 1.1 0.3zm-0.3 1.7q-0.4 0.5-1.1 0.5l-0.3-0.1 0.2 0.8q0 0.5-0.3 0.8l0.8-0.2 1.1 0.4v-0.2q0-0.6 0.5-1.1l0.1-0.1q-0.4-0.1-0.6-0.5zm7.4-1.6l-0.4-0.1 0.2 0.8q0 0.5-0.2 0.8l0.8-0.2 1.1 0.4v-0.2q0-0.6 0.5-1.1l0.1-0.1q-0.4-0.1-0.7-0.4l-0.3-0.4q-0.4 0.5-1.1 0.5zm1 8.1l0.8 0.3 0.3 0.8-2.3 0.9-3.2 0.9v-0.2q0-0.5 0.4-0.9l-0.9 0.3q-0.6 0-1-0.5-0.5-0.4-0.5-1 0-0.6 0.5-1.1 0.4-0.3 1-0.3h0.4l-0.2-0.8q0-0.6 0.3-1l0.2-0.1q0.3-0.3 0.9-0.3 0.7 0 1.1 0.3l0.1 0.1 0.2 0.4 0.1-0.1 0.4-0.3 0.5-0.1 0.6 0.1 0.5 0.3 0.4 1.1-0.4 1zm-1.8-0.2l-0.3-0.4q-0.4 0.5-1.1 0.5l-0.4-0.1 0.2 0.8-0.2 0.8 0.8-0.1q0.6 0 1.1 0.3v-0.2q0-0.6 0.4-1.1l0.2-0.1zm-24.7-10.1l0.2-0.4 0.1-0.1 2.3 0.5 0.2 0.7-0.2 0.8 0.4-0.1q0.6 0 1 0.4 0.4 0.4 0.4 1.1 0 0.6-0.4 1-0.4 0.5-1 0.5l-0.8-0.3 0.2 0.9q0 0.7-0.4 1-0.4 0.4-1 0.4-0.7 0-1.1-0.4l-0.4-1v-0.4l-0.1 0.1q-0.3 0.5-1 0.5l-0.6-0.1 1.4-5.5q0.5 0.1 0.8 0.4zm-0.1 2q-0.3 0.4-0.7 0.4l0.2 0.1q0.4 0.5 0.4 1.1v0.2l1.1-0.3 0.8 0.1-0.3-0.8 0.2-0.8-0.3 0.1q-0.7 0-1.1-0.5zm6 1.2l0.4-1.1 1.1-0.4q0.6 0 1 0.4h0.1l0.2-0.4 1.1-0.4q0.6 0 1 0.4 0.4 0.4 0.4 1.1 0 0.4-0.2 0.8l0.4-0.1 1.1 0.4q0.4 0.4 0.4 1.1 0 0.6-0.4 1-0.4 0.5-1.1 0.5l-0.8-0.3 0.3 0.9-0.2 0.6-0.3 0.4q-0.3 0.5-1 0.5-0.6 0-1.1-0.5l-0.3-0.4-0.1-0.6 0.1-0.4-0.1 0.1q-0.4 0.5-1.1 0.5l-1.1-0.5-0.3-1 0.3-1.1 0.8-0.4-0.2-0.1zm3.8 1.1q-0.6 0-1.1-0.5l-0.2 0.3q-0.3 0.4-0.7 0.5l0.1 0.1q0.5 0.5 0.5 1.1v0.2l1.1-0.4 0.8 0.2-0.3-0.8 0.2-0.8zm-3.6 5.5q0.4 0.4 0.4 1.1 0 0.6-0.4 1-0.4 0.5-1.1 0.5l-0.7-0.3 0.2 0.9v0.3l-3-0.8-2.5-0.9 0.4-1 0.8-0.4-0.3-0.2-0.4-0.9 0.4-1.1 0.4-0.3 0.7-0.1 0.7 0.1 0.4 0.3 0.1-0.3 0.1-0.1q0.5-0.4 1.1-0.4 0.7 0 1 0.4l0.2 0.1q0.3 0.4 0.3 1l-0.2 0.8 0.3-0.1q0.7 0 1.1 0.4zm-4 0.2l-0.7 0.5 0.1 0.1q0.4 0.5 0.4 1.1v0.2q0.5-0.4 1.1-0.4l0.8 0.2-0.2-0.8 0.2-0.8-0.4 0.1q-0.6 0-1.1-0.5z"/>
						</g>
					</g>
					<g id="sprite7">
						<g id="shape7">
							<path fill-rule="evenodd" class="s0" d="m33.9 96l-2.4-0.4-1-0.2 5.8-23.1h16.6l6 23.1-1.1 0.2-2.2 0.4q-10.9 1.6-21.7 0z"/>
						</g>
					</g>
					<g id="sprite8">
						<g id="shape8">
							<path fill-rule="evenodd" class="s4" d="m50.3 100.7l-0.1 0.1q-0.5 0.5-0.5 1.1v0.2l-1.1-0.4-0.8 0.2q0.3-0.3 0.3-0.8l-0.2-0.8 0.3 0.1q0.7 0 1.1-0.5l0.3 0.4q0.3 0.3 0.7 0.4zm6.3-1.7l-0.2-0.8 0.4 0.1q0.7 0 1.1-0.5l0.3 0.3q0.2 0.4 0.7 0.5l-0.2 0.1q-0.4 0.5-0.4 1.1v0.2l-1.1-0.4-0.8 0.2q0.2-0.3 0.2-0.8zm-0.7 7.1l0.7 0.5-0.1 0.1q-0.5 0.5-0.5 1.1v0.2q-0.4-0.4-1.1-0.4l-0.8 0.2 0.2-0.8-0.1-0.8 0.3 0.1q0.7 0 1.1-0.5zm-22.4-0.1l0.2-0.4q0.5 0.5 1.1 0.5h0.4l-0.2 0.8 0.3 0.8-0.8-0.2q-0.6 0-1.1 0.3v-0.1q0-0.7-0.5-1.1l-0.1-0.2zm7.7-5.7l0.3-0.1-0.2 0.8 0.3 0.8-0.8-0.2-1.1 0.4v-0.2q0-0.6-0.4-1.1l-0.2-0.1q0.4-0.1 0.7-0.4l0.3-0.4q0.5 0.5 1.1 0.5zm-9.9-2.3l0.2-0.3q0.5 0.5 1.1 0.5l0.4-0.1-0.2 0.8 0.2 0.8-0.8-0.2-1.1 0.4v-0.2q0-0.6-0.4-1.1l-0.1-0.1q0.4-0.1 0.7-0.5z"/>
						</g>
					</g>
					<g id="shape9">
						<path class="s1" d="m36.3 72.3l-5.8 23.1 1 0.2 2.4 0.4q10.8 1.6 21.7 0l2.2-0.4 1.1-0.2-6-23.1zm-5.7 23.1l-2.7 10.8 2.6 1.4 2.5 0.9 3 0.8 8.8 0.7 8.7-0.7 3.1-0.9 2.4-0.9 2.8-1.5-2.8-10.6"/>
						<path class="s1" d="m44.4 105.6v4.1"/>
					</g>
					<g id="sprite9">
						<g id="shape10">
							<path fill-rule="evenodd" class="s5" d="m39.8 84.7q0.5 0.5 0.5 1.1 0 0.7-0.5 1.1-0.4 0.5-1 0.5-0.7 0-1.1-0.5-0.5-0.4-0.5-1.1l0.5-1.1q0.4-0.4 1.1-0.4 0.6 0 1 0.4z"/>
						</g>
					</g>
					<g id="sprite9">
						<g id="shape10">
							<path fill-rule="evenodd" class="s5" d="m51.4 84.9q0.4 0.5 0.4 1.1 0 0.6-0.4 1-0.5 0.5-1.1 0.5-0.6 0-1.1-0.5-0.4-0.4-0.4-1l0.4-1.1q0.5-0.5 1.1-0.5 0.6 0 1.1 0.5z"/>
						</g>
					</g>
				</g>
				<g id="sprite10">
					<g id="shape11">
						<path class="s6" d="m48.3 65.4q2.5 0.7 4.6 2.6 2.3 2.3 2.8 5.3l0.1 0.5v0.9q0 1.9-0.7 3.6-0.7 1.6-2.2 3-2.9 2.8-7 2.8l-2.6-0.3-1-0.4q-2.7-0.5-4.7-2.5-2.4-2.2-2.8-5.2l-0.1-1.4q0-4 2.9-6.7 2.9-2.8 7.1-2.8l2.5 0.3z"/>
					</g>
				</g>
				<g id="sprite11">
					<g id="sprite12">
						<g id="shape12">
							<path fill-rule="evenodd" class="s7" d="m25.6 77.2q-2.9 0.3-5-1.5-2.2-1.7-2.5-4.5l-0.1-1.1q1.2-18.4 20.3-34.5l1.4-0.4q1.4-0.2 2.5 0.7 1 0.8 1.2 2.2l-0.1 1.5-0.2 0.5q-9.9 13-11.9 31.2 0 2.2-1 3.4-1.8 2.1-4.6 2.5z"/>
						</g>
					</g>
					<g id="shape13">
						<path class="s1" d="m30.2 74.7q-1.8 2.1-4.6 2.5-2.9 0.3-5-1.5-2.2-1.7-2.5-4.5l-0.1-1.1q1.2-18.4 20.3-34.5l1.4-0.4q1.4-0.2 2.5 0.7 1 0.8 1.2 2.2l-0.1 1.5-0.2 0.5q-9.9 13-11.9 31.2 0 2.2-1 3.4z"/>
					</g>
				</g>
				<g id="sprite11">
					<g id="sprite12">
						<g id="shape12">
							<path fill-rule="evenodd" class="s7" d="m63.5 77.2q2.9 0.3 5-1.5 2.2-1.7 2.5-4.5l0.1-1.1q-1.2-18.4-20.3-34.5l-1.4-0.4q-1.4-0.2-2.5 0.7-1 0.8-1.2 2.2l0.1 1.5 0.2 0.5q9.9 13 11.9 31.2 0 2.2 1 3.4 1.8 2.1 4.6 2.5z"/>
						</g>
					</g>
					<g id="shape13">
						<path class="s1" d="m58.9 74.7q1.8 2.1 4.6 2.5 2.9 0.3 5-1.5 2.2-1.7 2.5-4.5l0.1-1.1q-1.2-18.4-20.3-34.5l-1.4-0.4q-1.4-0.2-2.5 0.7-1 0.8-1.2 2.2l0.1 1.5 0.2 0.5q9.9 13 11.9 31.2 0 2.2 1 3.4z"/>
					</g>
				</g>
				<g id="sprite11">
					<g id="sprite12">
						<g id="shape12">
							<path fill-rule="evenodd" class="s7" d="m14.1 73.2q-2.9 0.3-5-1.4-2.2-1.7-2.5-4.6l-0.1-1.1q1.2-18.4 20.3-34.5l1.4-0.4q1.4-0.1 2.5 0.7 1 0.9 1.2 2.3l-0.1 1.4-0.2 0.6q-9.9 13-11.9 31.2 0 2.1-1 3.3-1.8 2.2-4.6 2.5z"/>
						</g>
					</g>
					<g id="shape13">
						<path class="s1" d="m18.7 70.7q-1.8 2.2-4.6 2.5-2.9 0.3-5-1.4-2.2-1.7-2.5-4.6l-0.1-1.1q1.2-18.4 20.3-34.5l1.4-0.4q1.4-0.1 2.5 0.7 1 0.9 1.2 2.3l-0.1 1.4-0.2 0.6q-9.9 13-11.9 31.2 0 2.1-1 3.3z"/>
					</g>
				</g>
				<g id="sprite11">
					<g id="sprite12">
						<g id="shape12">
							<path fill-rule="evenodd" class="s7" d="m75 73.2q2.9 0.3 5-1.4 2.2-1.7 2.5-4.6l0.1-1.1q-1.2-18.4-20.3-34.5l-1.4-0.4q-1.4-0.1-2.5 0.7-1 0.9-1.2 2.3l0.1 1.4 0.2 0.6q9.9 13 11.9 31.2 0 2.1 1 3.3 1.8 2.2 4.6 2.5z"/>
						</g>
					</g>
					<g id="shape13">
						<path class="s1" d="m70.4 70.7q1.8 2.2 4.6 2.5 2.9 0.3 5-1.4 2.2-1.7 2.5-4.6l0.1-1.1q-1.2-18.4-20.3-34.5l-1.4-0.4q-1.4-0.1-2.5 0.7-1 0.9-1.2 2.3l0.1 1.4 0.2 0.6q9.9 13 11.9 31.2 0 2.1 1 3.3z"/>
					</g>
				</g>
				<g id="sprite13">
					<g id="sprite14">
						<g id="shape14">
							<path fill-rule="evenodd" class="s0" d="m65 35.5q8.4 7.5 8.4 18 0 10.5-8.4 18-8.4 7.4-20.2 7.4-11.9 0-20.3-7.4-8.4-7.5-8.4-18 0-10.5 8.4-18 8.4-7.4 20.3-7.4 11.8 0 20.2 7.4z"/>
						</g>
					</g>
					<g id="shape15">
						<path class="s1" d="m65 35.5q8.4 7.5 8.4 18 0 10.5-8.4 18-8.4 7.4-20.2 7.4-11.9 0-20.3-7.4-8.4-7.5-8.4-18 0-10.5 8.4-18 8.4-7.4 20.3-7.4 11.8 0 20.2 7.4z"/>
					</g>
				</g>
				<g id="sprite15">
					<g id="sprite16">
						<g id="shape16">
							<path fill-rule="evenodd" class="s4" d="m72.4 47.1h-56.3v-19.1h56.3z"/>
						</g>
					</g>
					<g id="shape17">
						<path class="s1" d="m16.1 47.1v-19.1h56.3v19.1z"/>
					</g>
				</g>
				<g id="sprite17">
					<g id="shape18">
						<path fill-rule="evenodd" class="s3" d="m57.7 63.3q3.9 0 6.6-2.7 2.6-2.6 2.8-6.2h-18.8q0.2 3.6 2.8 6.2 2.7 2.7 6.6 2.7z"/>
					</g>
					<g id="sprite18">
						<g id="shape19">
							<path fill-rule="evenodd" class="s8" d="m54.6 55.7q-1.3 1.3-1.3 3.1 0 1.8 1.3 3.1 1.3 1.3 3.1 1.3 1.8 0 3.1-1.3 1.3-1.3 1.3-3.1 0-1.8-1.3-3.1-1.2-1.3-3-1.3h-0.2q-1.8 0-3 1.3z"/>
						</g>
					</g>
					<g id="shape20">
						<path class="s1" d="m57.7 63.3q3.9 0 6.6-2.7 2.6-2.6 2.8-6.2h-18.8q0.2 3.6 2.8 6.2 2.7 2.7 6.6 2.7z"/>
					</g>
				</g>
				<g id="shape21">
					<path class="s9" d="m48.2 51.8l17.9-3.7"/>
				</g>
				<g id="sprite11">
					<g id="sprite12">
						<g id="shape12">
							<path fill-rule="evenodd" class="s7" d="m84.3 7.1q0-2.9-1.9-4.8-2-2-4.9-2h-1.1q-18.1 3.3-32.1 24l-0.2 1.5q0 1.4 1 2.3 0.9 1 2.4 1l1.4-0.2 0.5-0.3q11.9-11.3 29.7-15.2 2.2-0.3 3.3-1.4 1.9-2 1.9-4.9z"/>
						</g>
					</g>
					<g id="shape13">
						<path class="s1" d="m82.4 12q1.9-2 1.9-4.9 0-2.9-1.9-4.8-2-2-4.9-2h-1.1q-18.1 3.3-32.1 24l-0.2 1.5q0 1.4 1 2.3 0.9 1 2.4 1l1.4-0.2 0.5-0.3q11.9-11.3 29.7-15.2 2.2-0.3 3.3-1.4z"/>
					</g>
				</g>
				<g id="sprite11">
					<g id="sprite12">
						<g id="shape12">
							<path fill-rule="evenodd" class="s7" d="m6.9 7.1q0-2.9 2-4.8 2-2 4.8-2h1.1q18.2 3.3 32.1 24l0.3 1.5q0 1.4-1 2.3-1 1-2.4 1l-1.4-0.2-0.6-0.3q-11.8-11.3-29.7-15.2-2.1-0.3-3.2-1.4-2-2-2-4.9z"/>
						</g>
					</g>
					<g id="shape13">
						<path class="s1" d="m8.9 12q-2-2-2-4.9 0-2.9 2-4.8 2-2 4.8-2h1.1q18.2 3.3 32.1 24l0.3 1.5q0 1.4-1 2.3-1 1-2.4 1l-1.4-0.2-0.6-0.3q-11.8-11.3-29.7-15.2-2.1-0.3-3.2-1.4z"/>
					</g>
				</g>
				<g id="sprite19">
					<g id="sprite20">
						<g id="shape22">
							<path fill-rule="evenodd" class="s7" d="m46.4 22.9q0.9 1.3 0.7 2.8-0.2 1.5-1.5 2.5l-1.3 0.7-0.7 0.1q-18-2.1-36.2 6.3-2.1 1.1-3.8 1-3.1-0.5-5-3-1.9-2.5-1.4-5.5 0.4-3.1 2.9-5l1-0.7q18.1-9.2 44-0.2z"/>
						</g>
					</g>
					<g id="shape23">
						<path class="s1" d="m47.1 25.7q-0.2 1.5-1.5 2.5l-1.3 0.7-0.7 0.1q-18-2.1-36.2 6.3-2.1 1.1-3.8 1-3.1-0.5-5-3-1.9-2.5-1.4-5.5 0.4-3.1 2.9-5l1-0.7q18.1-9.2 44-0.2l1.3 1q0.9 1.3 0.7 2.8z"/>
					</g>
				</g>
				<g id="sprite19">
					<g id="sprite20">
						<g id="shape22">
							<path fill-rule="evenodd" class="s7" d="m44.9 22.9q-0.9 1.3-0.7 2.8 0.2 1.5 1.4 2.5l1.4 0.7 0.6 0.1q18-2.1 36.3 6.3 2.1 1.1 3.8 1 3-0.5 4.9-3 1.9-2.5 1.5-5.5-0.4-3.1-2.9-5l-1-0.7q-18.1-9.2-44.1-0.2z"/>
						</g>
					</g>
					<g id="shape23">
						<path class="s1" d="m44.2 25.7q0.2 1.5 1.4 2.5l1.4 0.7 0.6 0.1q18-2.1 36.3 6.3 2.1 1.1 3.8 1 3-0.5 4.9-3 1.9-2.5 1.5-5.5-0.4-3.1-2.9-5l-1-0.7q-18.1-9.2-44.1-0.2l-1.2 1q-0.9 1.3-0.7 2.8z"/>
					</g>
				</g>
				<g id="sprite21">
					<g id="sprite22">
						<g id="shape24">
							<path fill-rule="evenodd" class="s7" d="m44.8 22.4q1.5 0.6 2.1 2.1 0.6 1.4 0 2.8-0.3 0.8-0.9 1.3l-0.5 0.4q-16.5 7.2-28.2 23.6-1.1 2-2.7 2.7-2.9 1.1-5.8-0.1-2.9-1.2-4.1-4.1-1.1-2.9 0.1-5.7l0.6-1.1q11-17 37.9-22.2z"/>
						</g>
					</g>
					<g id="shape25">
						<path class="s1" d="m46 28.6l-0.5 0.4q-16.5 7.2-28.2 23.6-1.1 2-2.7 2.7-2.9 1.1-5.8-0.1-2.9-1.2-4.1-4.1-1.1-2.9 0.1-5.7l0.6-1.1q11-17 37.9-22.2l1.5 0.3q1.5 0.6 2.1 2.1 0.6 1.4 0 2.8-0.3 0.8-0.9 1.3z"/>
					</g>
				</g>
				<g id="sprite21">
					<g id="sprite22">
						<g id="shape24">
							<path fill-rule="evenodd" class="s7" d="m46.4 22.4q-1.5 0.6-2.1 2.1-0.5 1.4 0.1 2.8 0.3 0.8 0.8 1.3l0.5 0.4q16.5 7.2 28.2 23.6 1.2 2 2.8 2.7 2.8 1.1 5.8-0.1 2.8-1.2 4-4.1 1.2-2.9-0.1-5.7l-0.5-1.1q-11-17-38-22.2z"/>
						</g>
					</g>
					<g id="shape25">
						<path class="s1" d="m45.2 28.6l0.5 0.4q16.5 7.2 28.2 23.6 1.2 2 2.8 2.7 2.8 1.1 5.8-0.1 2.8-1.2 4-4.1 1.2-2.9-0.1-5.7l-0.5-1.1q-11-17-38-22.2l-1.5 0.3q-1.5 0.6-2.1 2.1-0.5 1.4 0.1 2.8 0.3 0.8 0.8 1.3z"/>
					</g>
				</g>
				<g id="shape26">
					<path class="s1" d="m30.1 69.8q14.6 5.7 29.1 0"/>
				</g>
				<g id="shape21">
					<path class="s9" d="m40.8 51.9l-18-3.7"/>
				</g>
				<g id="sprite17">
					<g id="shape18">
						<path fill-rule="evenodd" class="s3" d="m31.8 63.3q-3.9 0-6.7-2.7-2.5-2.6-2.7-6.2h18.7q-0.2 3.6-2.7 6.2-2.8 2.7-6.6 2.7z"/>
					</g>
					<g id="sprite18">
						<g id="shape19">
							<path fill-rule="evenodd" class="s8" d="m34.9 55.7q1.3 1.3 1.3 3.1 0 1.8-1.3 3.1-1.3 1.3-3.1 1.3-1.9 0-3.2-1.3-1.3-1.3-1.3-3.1 0-1.8 1.3-3.1 1.3-1.3 3-1.3h0.3q1.7 0 3 1.3z"/>
						</g>
					</g>
					<g id="shape20">
						<path class="s1" d="m31.8 63.3q-3.9 0-6.7-2.7-2.5-2.6-2.7-6.2h18.7q-0.2 3.6-2.7 6.2-2.8 2.7-6.6 2.7z"/>
					</g>
				</g>
				<g id="shape27">
					<path fill-rule="evenodd" class="s3" d="m49 65.8l1 0.4q0.5 0.5 0.5 1.1 0 0.7-0.5 1.1-0.4 0.5-1 0.5-0.6 0-1.1-0.5-0.5-0.4-0.5-1.1 0-0.6 0.5-1.1 0.5-0.4 1.1-0.4z"/>
				</g>
			</g>
		</g>
	</g>
</svg>