<?xml version="1.0" encoding="UTF-8" standalone="no"?>
<svg xmlns:ffdec="https://www.free-decompiler.com/flash" xmlns:xlink="http://www.w3.org/1999/xlink" ffdec:objectType="frame" height="123.2px" width="114.2px" xmlns="http://www.w3.org/2000/svg">
  <g transform="matrix(1.0, 0.0, 0.0, 1.0, 59.9, 118.95)">
    <use ffdec:characterId="272" height="18.85" id="mc35400" transform="matrix(-0.9946, 0.101, 0.101, 0.9946, 9.2134, -18.3483)" width="10.9" xlink:href="#sprite0"/>
    <use ffdec:characterId="272" height="18.85" id="mc34400" transform="matrix(-0.9946, 0.101, 0.101, 0.9946, -1.7866, -18.1483)" width="10.9" xlink:href="#sprite0"/>
    <use ffdec:characterId="275" height="20.35" id="mc32400" transform="matrix(0.9955, 0.0693, -0.0693, 0.9955, -20.3176, -33.1081)" width="13.05" xlink:href="#sprite2"/>
    <use ffdec:characterId="279" height="11.25" id="mc30400" transform="matrix(-1.0, 0.0, 0.0, 1.0, 18.8, -17.55)" width="37.6" xlink:href="#sprite5"/>
    <use ffdec:characterId="277" height="18.8" id="mc29400" transform="matrix(-1.0, 0.0, 0.0, 1.0, 13.15, -32.45)" width="25.85" xlink:href="#sprite7"/>
    <use ffdec:characterId="324" height="20.95" id="mc28400" transform="matrix(-1.0, 0.0, 0.0, 1.0, 14.55, -32.0)" width="10.0" xlink:href="#sprite9"/>
    <use ffdec:characterId="355" height="14.2" id="mc27400" transform="matrix(0.5713, -0.8138, 0.8138, 0.5713, -3.1466, -17.8817)" width="18.3" xlink:href="#sprite11"/>
    <use ffdec:characterId="281" height="22.3" id="mc26400" transform="matrix(-1.0, 0.0, 0.0, 1.0, 13.25, -43.4)" width="26.9" xlink:href="#sprite14"/>
    <use ffdec:characterId="287" height="27.9" id="mc25400" transform="matrix(1.0, 0.0, 0.0, 1.0, -25.95, -45.25)" width="6.1" xlink:href="#sprite16"/>
    <use ffdec:characterId="289" height="27.0" id="mc24400" transform="matrix(1.0, 0.0, 0.0, 1.0, -45.4, -45.15)" width="23.95" xlink:href="#sprite18"/>
    <use ffdec:characterId="289" height="27.0" id="mc23400" transform="matrix(-1.0, 0.0, 0.0, 1.0, 45.75, -45.35)" width="23.95" xlink:href="#sprite18"/>
    <use ffdec:characterId="287" height="27.9" id="mc22400" transform="matrix(-1.0, 0.0, 0.0, 1.0, 26.3, -45.45)" width="6.1" xlink:href="#sprite16"/>
    <use ffdec:characterId="419" height="36.55" id="mc21400" transform="matrix(-1.0, 0.0, 0.0, 1.0, 24.85, -64.1)" width="50.2" xlink:href="#sprite20"/>
    <use ffdec:characterId="81" height="3.85" transform="matrix(-1.0, 0.0, 0.0, 1.0, 5.0, -35.65)" width="8.95" xlink:href="#shape22"/>
    <use ffdec:characterId="422" height="37.5" id="mc14400" transform="matrix(-1.0, 0.0, 0.0, 1.0, 30.2, -80.35)" width="60.25" xlink:href="#sprite22"/>
    <use ffdec:characterId="339" height="9.6" id="mc13400" transform="matrix(-1.0, 0.0, 0.0, 1.0, 25.9, -47.65)" width="22.35" xlink:href="#sprite24"/>
    <use ffdec:characterId="339" height="9.6" id="mc12400" transform="matrix(1.0, 0.0, 0.0, 1.0, -25.05, -47.4)" width="22.35" xlink:href="#sprite24"/>
    <use ffdec:characterId="427" height="62.1" id="hide_hat" transform="matrix(-1.0, 0.0, 0.0, 1.0, 43.95, -112.2)" width="86.1" xlink:href="#sprite26"/>
    <use ffdec:characterId="478" height="28.25" transform="matrix(-0.4846, 0.8715, 0.8715, 0.4846, -11.1902, -48.8671)" width="19.7" xlink:href="#shape34"/>
    <use ffdec:characterId="482" height="10.95" id="mc4400" transform="matrix(-0.7775, -0.6264, -0.6264, 0.7775, 11.5106, -20.0155)" width="11.05" xlink:href="#sprite30"/>
    <use ffdec:characterId="618" height="0.0" id="hat" transform="matrix(1.0, 0.0, 0.0, 1.0, -39.9, -105.9)" width="0.0" xlink:href="#sprite32"/>
  </g>
  <defs>
    <g id="sprite0" transform="matrix(1.0, 0.0, 0.0, 1.0, 4.95, 9.5)">
      <use ffdec:characterId="271" height="3.3" id="mc100" transform="matrix(1.0, 0.0, 0.0, 1.0, -3.65, 3.05)" width="8.7" xlink:href="#sprite1"/>
      <use ffdec:characterId="102" height="18.85" transform="matrix(1.0, 0.0, 0.0, 1.0, -4.95, -9.5)" width="10.9" xlink:href="#shape1"/>
    </g>
    <g id="sprite1" transform="matrix(1.0, 0.0, 0.0, 1.0, 4.35, 1.65)">
      <use ffdec:characterId="1" height="3.3" transform="matrix(1.0, 0.0, 0.0, 1.0, -4.35, -1.65)" width="8.7" xlink:href="#shape0"/>
    </g>
    <g id="shape0" transform="matrix(1.0, 0.0, 0.0, 1.0, 4.35, 1.65)">
      <path d="M-4.35 -0.85 L4.0 -1.65 4.35 0.75 -4.2 1.65 -4.35 -0.85" fill="#00ffff" fill-rule="evenodd" stroke="none"/>
    </g>
    <g id="shape1" transform="matrix(1.0, 0.0, 0.0, 1.0, 4.95, 9.5)">
      <path d="M-3.65 3.85 L-4.05 -6.3 Q-4.1 -7.15 -3.15 -7.75 -2.1 -8.4 -0.55 -8.55 L2.1 -8.25 Q3.15 -7.75 3.3 -7.0 L3.35 -6.85 3.35 -6.65 4.7 3.05 -3.65 3.85 M5.05 5.55 L5.05 5.7 Q5.15 6.65 3.9 7.45 2.7 8.25 0.95 8.4 -0.8 8.55 -2.15 7.95 -3.45 7.45 -3.55 6.5 L-3.55 6.35 -3.5 6.35 4.7 5.5 5.05 5.55" fill="#000000" fill-rule="evenodd" stroke="none"/>
      <path d="M-3.65 3.85 L-4.05 -6.3 Q-4.1 -7.15 -3.15 -7.75 -2.1 -8.4 -0.55 -8.55 L2.1 -8.25 Q3.15 -7.75 3.3 -7.0 L3.35 -6.85 3.35 -6.65 4.7 3.05 5.05 5.45 5.05 5.55 5.05 5.7 Q5.15 6.65 3.9 7.45 2.7 8.25 0.95 8.4 -0.8 8.55 -2.15 7.95 -3.45 7.45 -3.55 6.5 L-3.55 6.35 -3.55 6.1 -3.65 3.85 4.7 3.05 M-3.55 6.35 L-3.5 6.35 4.7 5.5" fill="none" stroke="#000000" stroke-linecap="round" stroke-linejoin="round" stroke-width="1.8"/>
    </g>
    <g id="sprite2" transform="matrix(1.0, 0.0, 0.0, 1.0, 6.55, 10.15)">
      <use ffdec:characterId="273" height="4.9" id="mc200" transform="matrix(1.0, 0.0, 0.0, 1.0, -5.65, 4.4)" width="6.65" xlink:href="#sprite3"/>
      <use ffdec:characterId="274" height="13.2" id="mc100" transform="matrix(1.0, 0.0, 0.0, 1.0, -5.35, -5.05)" width="10.15" xlink:href="#sprite4"/>
      <use ffdec:characterId="64" height="20.35" transform="matrix(1.0, 0.0, 0.0, 1.0, -6.55, -10.15)" width="13.05" xlink:href="#shape4"/>
    </g>
    <g id="sprite3" transform="matrix(1.0, 0.0, 0.0, 1.0, 3.35, 2.45)">
      <use ffdec:characterId="5" height="4.9" transform="matrix(1.0, 0.0, 0.0, 1.0, -3.35, -2.45)" width="6.65" xlink:href="#shape2"/>
    </g>
    <g id="shape2" transform="matrix(1.0, 0.0, 0.0, 1.0, 3.35, 2.45)">
      <path d="M-3.05 -2.45 L-2.8 -2.35 3.3 1.3 3.2 1.4 2.15 2.15 Q0.6 2.75 -0.9 2.15 -2.5 1.45 -3.1 -0.05 -3.55 -1.15 -3.1 -2.4 L-3.05 -2.45" fill="#ffcc66" fill-rule="evenodd" stroke="none"/>
    </g>
    <g id="sprite4" transform="matrix(1.0, 0.0, 0.0, 1.0, 5.1, 6.6)">
      <use ffdec:characterId="7" height="13.2" transform="matrix(1.0, 0.0, 0.0, 1.0, -5.1, -6.6)" width="10.15" xlink:href="#shape3"/>
    </g>
    <g id="shape3" transform="matrix(1.0, 0.0, 0.0, 1.0, 5.1, 6.6)">
      <path d="M-4.85 2.95 L-5.1 2.85 -4.85 2.2 -4.1 0.7 -3.7 0.9 2.25 4.7 2.1 5.05 1.25 6.6 -4.85 2.95 M5.05 -4.25 L4.1 -0.95 3.75 0.15 -2.25 -2.9 -1.95 -3.5 -0.2 -6.6 5.05 -4.25" fill="#00ff00" fill-rule="evenodd" stroke="none"/>
    </g>
    <g id="shape4" transform="matrix(1.0, 0.0, 0.0, 1.0, 6.55, 10.15)">
      <path d="M-0.45 -5.05 Q1.4 -8.35 2.2 -8.8 3.05 -9.35 3.85 -9.2 L4.3 -9.1 Q5.3 -8.65 5.55 -7.4 5.75 -6.5 4.8 -2.7 L-0.45 -5.05 M3.5 1.7 L2.0 6.25 -3.95 2.45 -4.35 2.25 -2.5 -1.35 3.5 1.7" fill="#ffffff" fill-rule="evenodd" stroke="none"/>
      <path d="M4.8 -2.7 Q5.75 -6.5 5.55 -7.4 5.3 -8.65 4.3 -9.1 L3.85 -9.2 Q3.05 -9.35 2.2 -8.8 1.4 -8.35 -0.45 -5.05 L-2.2 -1.95 -2.5 -1.35 -4.35 2.25 -5.1 3.75 -5.35 4.4 -5.4 4.45 Q-5.85 5.7 -5.4 6.8 -4.8 8.3 -3.2 9.0 -1.7 9.6 -0.15 9.0 L0.9 8.25 1.0 8.15 1.85 6.6 2.0 6.25 3.5 1.7 3.85 0.6 4.8 -2.7" fill="none" stroke="#000000" stroke-linecap="round" stroke-linejoin="round" stroke-width="1.8"/>
      <path d="M-0.45 -5.05 L4.8 -2.7 M-5.1 4.5 L0.7 7.95 M-2.5 -1.35 L3.5 1.7 M2.0 6.25 L-3.95 2.45" fill="none" stroke="#000000" stroke-linecap="round" stroke-linejoin="round" stroke-width="1.5"/>
    </g>
    <g id="sprite5" transform="matrix(1.0, 0.0, 0.0, 1.0, 0.75, 0.75)">
      <use ffdec:characterId="278" height="9.75" id="mc100" transform="matrix(1.0, 0.0, 0.0, 1.0, 0.0, 0.0)" width="36.1" xlink:href="#sprite6"/>
      <use ffdec:characterId="225" height="11.25" transform="matrix(1.0, 0.0, 0.0, 1.0, -0.75, -0.75)" width="37.6" xlink:href="#shape6"/>
    </g>
    <g id="sprite6" transform="matrix(1.0, 0.0, 0.0, 1.0, 18.05, 4.85)">
      <use ffdec:characterId="11" height="9.75" transform="matrix(1.0, 0.0, 0.0, 1.0, -18.05, -4.85)" width="36.1" xlink:href="#shape5"/>
    </g>
    <g id="shape5" transform="matrix(1.0, 0.0, 0.0, 1.0, 18.05, 4.85)">
      <path d="M11.55 -4.75 L18.05 0.55 14.55 4.7 11.45 1.8 8.7 4.65 6.2 1.5 3.35 4.45 -0.25 1.4 -4.05 4.9 -7.4 2.3 -9.95 4.8 -12.95 1.5 -15.7 4.25 -18.05 0.2 -11.2 -4.85 11.55 -4.75" fill="#996666" fill-rule="evenodd" stroke="none"/>
    </g>
    <g id="shape6" transform="matrix(1.0, 0.0, 0.0, 1.0, 0.75, 0.75)">
      <path d="M35.95 5.6 L32.6 9.55 29.5 6.65 26.75 9.5 24.25 6.35 21.4 9.3 21.05 9.0 17.8 6.25 14.0 9.75 10.65 7.15 8.1 9.65 5.1 6.35 2.35 9.1 0.0 5.05 6.85 0.0 29.6 0.1 36.1 5.4 M22.9 4.7 L24.25 6.35 M29.5 6.65 L26.9 4.2 M15.8 4.4 L14.0 9.75 M10.65 7.15 L12.75 5.05 M7.05 4.35 L5.1 6.35 M21.05 9.0 L20.05 5.0" fill="none" stroke="#000000" stroke-linecap="round" stroke-linejoin="round" stroke-width="1.5"/>
    </g>
    <g id="sprite7" transform="matrix(1.0, 0.0, 0.0, 1.0, 0.75, 0.75)">
      <use ffdec:characterId="276" height="14.75" id="mc100" transform="matrix(1.0, 0.0, 0.0, 1.0, 0.0, 2.55)" width="24.35" xlink:href="#sprite8"/>
      <use ffdec:characterId="67" height="18.8" transform="matrix(1.0, 0.0, 0.0, 1.0, -0.75, -0.75)" width="25.85" xlink:href="#shape8"/>
    </g>
    <g id="sprite8" transform="matrix(1.0, 0.0, 0.0, 1.0, 12.15, 7.35)">
      <use ffdec:characterId="15" height="14.75" transform="matrix(1.0, 0.0, 0.0, 1.0, -12.15, -7.35)" width="24.35" xlink:href="#shape7"/>
    </g>
    <g id="shape7" transform="matrix(1.0, 0.0, 0.0, 1.0, 12.15, 7.35)">
      <path d="M12.15 -5.15 L12.15 -4.6 -12.1 -4.6 -12.05 -5.15 -11.95 -7.35 12.05 -7.35 12.15 -5.15 M11.85 7.4 L-11.75 7.4 -11.95 4.65 12.05 4.65 11.85 7.4 M12.2 1.25 L-12.1 1.35 -12.15 -1.8 12.2 -1.85 12.2 1.25" fill="#00ff00" fill-rule="evenodd" stroke="none"/>
    </g>
    <g id="shape8" transform="matrix(1.0, 0.0, 0.0, 1.0, 0.75, 0.75)">
      <path d="M24.2 14.55 L0.2 14.55 0.05 11.25 24.35 11.15 24.2 14.55 M0.0 8.1 L0.05 5.3 24.3 5.3 24.35 8.05 0.0 8.1 M0.2 2.55 L0.4 0.0 24.0 0.0 24.2 2.55 0.2 2.55" fill="#ffffff" fill-rule="evenodd" stroke="none"/>
      <path d="M0.2 14.55 L0.4 17.3 24.0 17.3 24.2 14.55 0.2 14.55 0.05 11.25 0.0 8.1 0.05 5.3 0.1 4.75 0.2 2.55 0.4 0.0 24.0 0.0 24.2 2.55 24.3 4.75 24.3 5.3 24.35 8.05 24.35 11.15 24.2 14.55 M24.35 11.15 L0.05 11.25 M24.2 2.55 L0.2 2.55 M24.3 5.3 L0.05 5.3 M0.0 8.1 L24.35 8.05" fill="none" stroke="#000000" stroke-linecap="round" stroke-linejoin="round" stroke-width="1.5"/>
    </g>
    <g id="sprite9" transform="matrix(1.0, 0.0, 0.0, 1.0, 0.75, 0.75)">
      <use ffdec:characterId="323" height="19.45" id="mc100" transform="matrix(1.0, 0.0, 0.0, 1.0, 1.65, 0.0)" width="6.75" xlink:href="#sprite10"/>
      <use ffdec:characterId="116" height="20.95" transform="matrix(1.0, 0.0, 0.0, 1.0, -0.75, -0.75)" width="10.0" xlink:href="#shape10"/>
    </g>
    <g id="sprite10" transform="matrix(1.0, 0.0, 0.0, 1.0, 3.35, 9.7)">
      <use ffdec:characterId="19" height="19.45" transform="matrix(1.0, 0.0, 0.0, 1.0, -3.35, -9.7)" width="6.75" xlink:href="#shape9"/>
    </g>
    <g id="shape9" transform="matrix(1.0, 0.0, 0.0, 1.0, 3.35, 9.7)">
      <path d="M3.05 0.15 L2.9 4.95 0.45 4.7 0.95 9.15 0.95 9.75 0.9 9.75 -2.55 9.3 -1.9 4.45 -3.35 4.3 -3.2 -0.6 3.05 0.15 M3.35 -6.95 L3.25 -4.2 -3.05 -4.95 -2.9 -9.4 -2.75 -9.7 3.4 -7.2 3.35 -6.95" fill="#00ffff" fill-rule="evenodd" stroke="none"/>
    </g>
    <g id="shape10" transform="matrix(1.0, 0.0, 0.0, 1.0, 0.75, 0.75)">
      <path d="M1.95 4.75 L8.25 5.5 8.05 9.85 1.8 9.1 1.95 4.75 M7.9 14.65 L7.85 14.95 Q8.45 16.8 8.5 19.2 L6.0 19.45 5.95 19.45 5.95 18.85 5.45 14.4 7.4 14.6 7.9 14.65 M2.45 19.0 L0.0 18.3 Q0.15 16.25 1.6 14.4 L1.65 14.0 3.1 14.15 2.45 19.0" fill="#ffffff" fill-rule="evenodd" stroke="none"/>
      <path d="M2.1 0.3 L1.95 4.75 8.25 5.5 8.35 2.75 M8.4 2.5 L2.25 0.0 M1.95 4.75 L1.8 9.1 8.05 9.85 8.25 5.5 M5.95 19.45 L6.0 19.45 8.5 19.2 Q8.45 16.8 7.85 14.95 L7.9 14.65 8.05 9.85 M7.4 14.6 L5.45 14.4 5.95 18.85 M5.95 19.45 L5.9 19.45 2.45 19.0 0.0 18.3 Q0.15 16.25 1.6 14.4 L1.65 14.0 1.8 9.1 M2.45 19.0 L3.1 14.15 1.65 14.0 M5.45 14.4 L3.1 14.15" fill="none" stroke="#000000" stroke-linecap="round" stroke-linejoin="round" stroke-width="1.5"/>
    </g>
    <g id="sprite11" transform="matrix(1.0, 0.0, 0.0, 1.0, 0.9, 0.9)">
      <use ffdec:characterId="351" height="9.9" id="mc200" transform="matrix(1.0, 0.0, 0.0, 1.0, 0.0, 0.0)" width="9.35" xlink:href="#sprite12"/>
      <use ffdec:characterId="353" height="10.0" id="mc100" transform="matrix(1.0, 0.0, 0.0, 1.0, 3.3, 2.2)" width="13.2" xlink:href="#sprite13"/>
      <use ffdec:characterId="354" height="14.2" transform="matrix(1.0, 0.0, 0.0, 1.0, -0.9, -0.9)" width="18.3" xlink:href="#shape13"/>
    </g>
    <g id="sprite12" transform="matrix(1.0, 0.0, 0.0, 1.0, 4.65, 4.95)">
      <use ffdec:characterId="350" height="9.9" transform="matrix(1.0, 0.0, 0.0, 1.0, -4.65, -4.95)" width="9.35" xlink:href="#shape11"/>
    </g>
    <g id="shape11" transform="matrix(1.0, 0.0, 0.0, 1.0, 4.65, 4.95)">
      <path d="M4.7 -2.8 L4.45 -2.5 Q4.05 3.6 -1.35 4.95 -3.45 3.25 -4.6 0.6 -5.15 -4.1 -0.55 -4.95 2.25 -5.2 4.7 -2.8" fill="#ffcc66" fill-rule="evenodd" stroke="none"/>
    </g>
    <g id="sprite13" transform="matrix(1.0, 0.0, 0.0, 1.0, 6.6, 5.0)">
      <use ffdec:characterId="352" height="10.0" transform="matrix(1.0, 0.0, 0.0, 1.0, -6.6, -5.0)" width="13.2" xlink:href="#shape12"/>
    </g>
    <g id="shape12" transform="matrix(1.0, 0.0, 0.0, 1.0, 6.6, 5.0)">
      <path d="M1.55 -4.35 Q3.4 -5.15 5.0 -4.05 7.4 -1.7 6.15 1.45 4.9 4.3 2.3 5.0 3.65 1.15 1.7 -3.7 L1.65 -3.85 1.55 -4.35 M0.65 -3.75 L0.85 -3.45 0.55 -3.2 Q0.9 1.7 -2.45 3.7 L-3.65 4.3 Q-5.3 3.7 -6.6 2.7 -1.2 1.35 -0.8 -4.75 L-0.5 -5.0 0.65 -3.75" fill="#00ff00" fill-rule="evenodd" stroke="none"/>
    </g>
    <g id="shape13" transform="matrix(1.0, 0.0, 0.0, 1.0, 0.9, 0.9)">
      <path d="M11.6 3.5 Q13.55 8.35 12.2 12.2 L8.1 12.1 7.45 10.9 Q10.8 8.9 10.45 4.0 L10.75 3.75 11.6 3.5" fill="#ffffff" fill-rule="evenodd" stroke="none"/>
      <path d="M12.2 12.2 Q14.8 11.5 16.05 8.65 17.3 5.5 14.9 3.15 13.3 2.05 11.45 2.85 L10.95 3.1 M11.6 3.5 Q13.55 8.35 12.2 12.2 L8.1 12.1 6.25 11.5 Q4.6 10.9 3.3 9.9 1.2 8.2 0.05 5.55 -0.5 0.85 4.1 0.0 6.9 -0.25 9.35 2.15 L9.4 2.2 10.55 3.45 10.75 3.75 M3.3 9.9 Q8.7 8.55 9.1 2.45 M6.25 11.5 L7.45 10.9 Q10.8 8.9 10.45 4.0" fill="none" stroke="#000000" stroke-linecap="round" stroke-linejoin="round" stroke-width="1.8"/>
    </g>
    <g id="sprite14" transform="matrix(1.0, 0.0, 0.0, 1.0, 0.9, 0.9)">
      <use ffdec:characterId="280" height="20.5" id="mc100" transform="matrix(1.0, 0.0, 0.0, 1.0, 0.0, 0.0)" width="25.1" xlink:href="#sprite15"/>
      <use ffdec:characterId="70" height="22.3" transform="matrix(1.0, 0.0, 0.0, 1.0, -0.9, -0.9)" width="26.9" xlink:href="#shape15"/>
    </g>
    <g id="sprite15" transform="matrix(1.0, 0.0, 0.0, 1.0, 12.55, 10.25)">
      <use ffdec:characterId="23" height="20.5" transform="matrix(1.0, 0.0, 0.0, 1.0, -12.55, -10.25)" width="25.1" xlink:href="#shape14"/>
    </g>
    <g id="shape14" transform="matrix(1.0, 0.0, 0.0, 1.0, 12.55, 10.25)">
      <path d="M3.3 -9.9 Q2.3 0.0 3.35 9.9 L0.0 10.25 -3.55 9.9 -3.2 -9.9 0.0 -10.25 3.3 -9.9 M9.75 6.5 Q8.6 0.05 9.65 -6.55 12.55 -3.75 12.55 0.0 12.55 3.7 9.75 6.5 M-8.7 -6.95 Q-9.65 0.35 -8.8 7.25 L-8.9 7.25 Q-12.55 4.25 -12.55 0.0 -12.55 -4.2 -8.95 -7.2 L-8.7 -6.95" fill="#00ffff" fill-rule="evenodd" stroke="none"/>
    </g>
    <g id="shape15" transform="matrix(1.0, 0.0, 0.0, 1.0, 0.9, 0.9)">
      <path d="M15.85 0.35 Q18.95 1.0 21.4 3.0 L21.95 3.5 22.2 3.7 Q21.15 10.3 22.3 16.75 L21.4 17.5 Q19.0 19.5 15.9 20.15 14.85 10.25 15.85 0.35 M9.0 20.15 Q6.05 19.45 3.75 17.55 L3.75 17.5 Q2.9 10.6 3.85 3.3 L3.65 3.0 Q6.15 1.0 9.35 0.35 L9.0 20.15" fill="#ffffff" fill-rule="evenodd" stroke="none"/>
      <path d="M15.85 0.35 Q18.95 1.0 21.4 3.0 L21.95 3.5 22.2 3.7 Q25.1 6.5 25.1 10.25 25.1 13.95 22.3 16.75 L21.4 17.5 Q19.0 19.5 15.9 20.15 L12.55 20.5 9.0 20.15 Q6.05 19.45 3.75 17.55 L3.65 17.5 Q0.0 14.5 0.0 10.25 0.0 6.05 3.6 3.05 L3.65 3.0 Q6.15 1.0 9.35 0.35 L12.55 0.0 15.85 0.35 Q14.85 10.25 15.9 20.15 M22.2 3.7 Q21.15 10.3 22.3 16.75 M3.75 17.55 L3.75 17.5 Q2.9 10.6 3.85 3.3 M9.35 0.35 L9.0 20.15" fill="none" stroke="#000000" stroke-linecap="round" stroke-linejoin="round" stroke-width="1.8"/>
    </g>
    <g id="sprite16" transform="matrix(1.0, 0.0, 0.0, 1.0, 0.9, 0.9)">
      <use ffdec:characterId="286" height="26.1" id="mc100" transform="matrix(1.0, 0.0, 0.0, 1.0, 0.0, 0.0)" width="4.3" xlink:href="#sprite17"/>
      <use ffdec:characterId="73" height="27.9" transform="matrix(1.0, 0.0, 0.0, 1.0, -0.9, -0.9)" width="6.1" xlink:href="#shape17"/>
    </g>
    <g id="sprite17" transform="matrix(1.0, 0.0, 0.0, 1.0, 2.15, 13.05)">
      <use ffdec:characterId="27" height="26.1" transform="matrix(1.0, 0.0, 0.0, 1.0, -2.15, -13.05)" width="4.3" xlink:href="#shape16"/>
    </g>
    <g id="shape16" transform="matrix(1.0, 0.0, 0.0, 1.0, 2.15, 13.05)">
      <path d="M1.95 -7.15 Q2.2 4.15 -2.15 13.05 L-1.85 -12.9 -1.6 -13.05 2.15 -7.45 1.95 -7.15" fill="#993300" fill-rule="evenodd" stroke="none"/>
    </g>
    <g id="shape17" transform="matrix(1.0, 0.0, 0.0, 1.0, 0.9, 0.9)">
      <path d="M4.1 5.9 Q4.35 17.2 0.0 26.1 L0.3 0.15 M0.55 0.0 L4.3 5.6" fill="none" stroke="#000000" stroke-linecap="round" stroke-linejoin="round" stroke-width="1.8"/>
    </g>
    <g id="sprite18" transform="matrix(1.0, 0.0, 0.0, 1.0, 0.9, 0.9)">
      <use ffdec:characterId="288" height="25.2" id="mc100" transform="matrix(1.0, 0.0, 0.0, 1.0, 0.0, 0.0)" width="22.15" xlink:href="#sprite19"/>
      <use ffdec:characterId="76" height="27.0" transform="matrix(1.0, 0.0, 0.0, 1.0, -0.9, -0.9)" width="23.95" xlink:href="#shape19"/>
    </g>
    <g id="sprite19" transform="matrix(1.0, 0.0, 0.0, 1.0, 11.05, 12.6)">
      <use ffdec:characterId="31" height="25.2" transform="matrix(1.0, 0.0, 0.0, 1.0, -11.05, -12.6)" width="22.15" xlink:href="#shape18"/>
    </g>
    <g id="shape18" transform="matrix(1.0, 0.0, 0.0, 1.0, 11.05, 12.6)">
      <path d="M11.1 -11.1 L11.05 -11.0 Q6.65 0.2 4.55 12.6 1.4 12.55 -1.2 11.5 -5.15 9.95 -7.95 6.3 -9.7 3.95 -11.0 0.75 L-11.05 0.6 Q-3.25 -11.3 8.75 -12.35 L8.95 -12.6 11.1 -11.1" fill="#993300" fill-rule="evenodd" stroke="none"/>
    </g>
    <g id="shape19" transform="matrix(1.0, 0.0, 0.0, 1.0, 0.9, 0.9)">
      <path d="M20.0 0.0 L22.15 1.5 22.1 1.6 Q17.7 12.8 15.6 25.2 12.45 25.15 9.85 24.1 5.9 22.55 3.1 18.9 1.35 16.55 0.05 13.35 L0.0 13.2 Q7.8 1.3 19.8 0.25 M3.1 18.9 Q7.85 8.9 15.9 3.05 M9.85 24.1 Q12.35 13.75 18.25 4.0" fill="none" stroke="#000000" stroke-linecap="round" stroke-linejoin="round" stroke-width="1.8"/>
    </g>
    <g id="sprite20" transform="matrix(1.0, 0.0, 0.0, 1.0, 0.9, 0.9)">
      <use ffdec:characterId="418" height="34.75" id="mc100" transform="matrix(1.0, 0.0, 0.0, 1.0, 0.0, 0.0)" width="48.4" xlink:href="#sprite21"/>
      <use ffdec:characterId="79" height="36.55" transform="matrix(1.0, 0.0, 0.0, 1.0, -0.9, -0.9)" width="50.2" xlink:href="#shape21"/>
    </g>
    <g id="sprite21" transform="matrix(1.0, 0.0, 0.0, 1.0, 24.2, 17.35)">
      <use ffdec:characterId="35" height="34.75" transform="matrix(1.0, 0.0, 0.0, 1.0, -24.2, -17.35)" width="48.4" xlink:href="#shape20"/>
    </g>
    <g id="shape20" transform="matrix(1.0, 0.0, 0.0, 1.0, 24.2, 17.35)">
      <path d="M21.85 -17.2 Q25.25 -9.15 23.75 1.05 20.25 12.6 3.55 17.0 L-2.85 17.3 Q-22.6 13.35 -24.2 -0.75 L-24.2 -1.05 -22.65 -17.15 21.8 -17.35 21.85 -17.2" fill="#ffcc66" fill-rule="evenodd" stroke="none"/>
    </g>
    <g id="shape21" transform="matrix(1.0, 0.0, 0.0, 1.0, 0.9, 0.9)">
      <path d="M46.05 0.15 Q49.45 8.2 47.95 18.4 44.45 29.95 27.75 34.35 L21.35 34.65 Q1.6 30.7 0.0 16.6 L0.0 16.3 1.55 0.2 46.0 0.0 46.05 0.15 Z" fill="none" stroke="#000000" stroke-linecap="round" stroke-linejoin="round" stroke-width="1.8"/>
    </g>
    <g id="shape22" transform="matrix(1.0, 0.0, 0.0, 1.0, 0.75, 1.15)">
      <path d="M7.45 -0.4 L6.6 0.75 Q5.4 1.95 3.7 1.95 2.0 1.95 0.8 0.75 L0.0 -0.4" fill="none" stroke="#000000" stroke-linecap="round" stroke-linejoin="round" stroke-width="1.5"/>
    </g>
    <g id="sprite22" transform="matrix(1.0, 0.0, 0.0, 1.0, 0.9, 0.9)">
      <use ffdec:characterId="421" height="35.7" id="mc100" transform="matrix(1.0, 0.0, 0.0, 1.0, 0.0, 0.0)" width="58.45" xlink:href="#sprite23"/>
      <use ffdec:characterId="83" height="37.5" transform="matrix(1.0, 0.0, 0.0, 1.0, -0.9, -0.9)" width="60.25" xlink:href="#shape24"/>
    </g>
    <g id="sprite23" transform="matrix(1.0, 0.0, 0.0, 1.0, 29.2, 17.85)">
      <use ffdec:characterId="40" height="35.7" transform="matrix(1.0, 0.0, 0.0, 1.0, -29.2, -17.85)" width="58.45" xlink:href="#shape23"/>
    </g>
    <g id="shape23" transform="matrix(1.0, 0.0, 0.0, 1.0, 29.2, 17.85)">
      <path d="M0.55 -17.85 Q12.3 -17.65 20.65 -9.25 29.25 -0.65 29.25 11.55 29.25 14.7 26.95 17.2 L26.95 17.85 5.05 17.0 4.95 16.7 4.75 5.6 4.4 5.55 3.3 16.05 0.8 16.05 0.7 6.75 -1.0 16.05 -3.45 16.05 -3.75 3.5 -4.15 4.25 -5.1 16.8 -12.3 16.45 -13.65 16.45 -17.8 16.55 -24.15 17.0 -26.9 17.3 Q-29.2 14.8 -29.2 11.65 -29.2 -0.55 -20.6 -9.15 -12.25 -17.55 0.55 -17.85" fill="#993300" fill-rule="evenodd" stroke="none"/>
    </g>
    <g id="shape24" transform="matrix(1.0, 0.0, 0.0, 1.0, 0.9, 0.9)">
      <path d="M56.15 35.05 Q58.45 32.55 58.45 29.4 58.45 17.2 49.85 8.6 41.5 0.2 29.75 0.0 16.95 0.3 8.6 8.7 0.0 17.3 0.0 29.5 0.0 32.65 2.3 35.15 L5.05 34.85 11.4 34.4 15.55 34.3 16.9 34.3 24.1 34.65 25.25 19.0 M40.95 22.45 Q41.85 28.6 41.2 35.15 L42.7 35.2 Q44.45 28.4 43.9 21.6 M42.7 35.2 L47.45 35.35 Q48.95 28.6 48.45 22.15 M47.45 35.35 L56.15 35.7 M53.2 35.05 Q55.5 30.05 55.35 24.7 M4.95 34.45 Q3.8 30.4 4.75 25.95 M25.45 21.35 L25.75 33.9 28.2 33.9 29.9 24.6 30.0 33.9 32.5 33.9 33.6 23.4 M11.35 33.95 Q10.15 26.6 10.95 18.9 M15.5 34.05 Q14.7 26.75 15.3 18.8 M33.95 23.45 L34.15 34.55 M16.85 34.05 L18.5 17.9 M34.25 34.85 L41.2 35.15" fill="none" stroke="#000000" stroke-linecap="round" stroke-linejoin="round" stroke-width="1.8"/>
    </g>
    <g id="sprite24" transform="matrix(1.0, 0.0, 0.0, 1.0, 0.75, 0.75)">
      <use ffdec:characterId="44" height="6.7" transform="matrix(1.0, 0.0, 0.0, 1.0, 6.5, 1.4)" width="13.6" xlink:href="#shape25"/>
      <use ffdec:characterId="338" height="5.2" id="mc200" transform="matrix(1.0, 0.0, 0.0, 1.0, 10.55, 1.0)" width="5.2" xlink:href="#sprite25"/>
      <use ffdec:characterId="86" height="9.6" transform="matrix(1.0, 0.0, 0.0, 1.0, -0.75, -0.75)" width="22.35" xlink:href="#shape27"/>
    </g>
    <g id="shape25" transform="matrix(1.0, 0.0, 0.0, 1.0, -6.5, -1.4)">
      <path d="M12.65 8.05 Q8.4 7.75 7.1 4.65 L6.5 3.15 Q12.8 0.4 16.45 2.0 17.3 2.35 18.05 2.95 L18.6 3.5 20.1 5.6 Q16.85 8.35 12.65 8.05" fill="#ffffff" fill-rule="evenodd" stroke="none"/>
    </g>
    <g id="sprite25" transform="matrix(1.0, 0.0, 0.0, 1.0, 2.6, 2.6)">
      <use ffdec:characterId="45" height="5.2" transform="matrix(1.0, 0.0, 0.0, 1.0, -2.6, -2.6)" width="5.2" xlink:href="#shape26"/>
    </g>
    <g id="shape26" transform="matrix(1.0, 0.0, 0.0, 1.0, 2.6, 2.6)">
      <path d="M1.85 -1.85 Q2.6 -1.1 2.6 0.0 2.6 1.1 1.85 1.85 1.1 2.6 0.0 2.6 -1.1 2.6 -1.85 1.85 -2.6 1.1 -2.6 0.0 -2.6 -1.1 -1.85 -1.85 -1.1 -2.6 0.0 -2.6 1.1 -2.6 1.85 -1.85" fill="#009999" fill-rule="evenodd" stroke="none"/>
    </g>
    <g id="shape27" transform="matrix(1.0, 0.0, 0.0, 1.0, 0.75, 0.75)">
      <path d="M14.15 4.35 Q13.8 4.75 13.2 4.75 12.65 4.75 12.25 4.35 11.9 4.0 11.9 3.4 11.9 2.85 12.25 2.45 12.65 2.1 13.2 2.1 13.8 2.1 14.15 2.45 14.55 2.85 14.55 3.4 14.55 4.0 14.15 4.35" fill="#000000" fill-rule="evenodd" stroke="none"/>
      <path d="M16.95 1.75 L16.45 2.0 Q12.8 0.4 6.5 3.15 L7.1 4.65 6.75 4.8 0.0 1.3 Q5.0 1.75 7.2 0.6 9.5 -0.25 11.75 0.1 L12.15 0.15 Q14.9 0.5 16.95 1.75" fill="#000000" fill-rule="evenodd" stroke="none"/>
      <path d="M16.45 2.0 Q17.3 2.35 18.05 2.95 L18.6 3.5 20.1 5.6 20.85 6.7 M6.75 4.8 L0.0 1.3 Q5.0 1.75 7.2 0.6 9.5 -0.25 11.75 0.1 L12.15 0.15 Q14.9 0.5 16.95 1.75 M7.1 4.65 Q8.4 7.75 12.65 8.05 16.85 8.35 20.1 5.6 M16.45 2.0 Q12.8 0.4 6.5 3.15 L7.1 4.65" fill="none" stroke="#000000" stroke-linecap="round" stroke-linejoin="round" stroke-width="1.5"/>
    </g>
    <g id="sprite26" transform="matrix(1.0, 0.0, 0.0, 1.0, 0.9, 0.9)">
      <use ffdec:characterId="424" height="60.3" id="mc500" transform="matrix(1.0, 0.0, 0.0, 1.0, 0.0, 0.0)" width="84.3" xlink:href="#sprite27"/>
      <use ffdec:characterId="89" height="62.1" transform="matrix(1.0, 0.0, 0.0, 1.0, -0.9, -0.9)" width="86.1" xlink:href="#shape29"/>
      <use ffdec:characterId="425" height="21.85" id="mc300" transform="matrix(1.0, 0.0, 0.0, 1.0, 14.25, 24.75)" width="55.65" xlink:href="#sprite28"/>
      <use ffdec:characterId="91" height="23.75" transform="matrix(1.0, 0.0, 0.0, 1.0, 13.35, 23.85)" width="58.05" xlink:href="#shape31"/>
      <use ffdec:characterId="426" height="25.45" id="mc100" transform="matrix(1.0, 0.0, 0.0, 1.0, 31.65, 21.2)" width="23.15" xlink:href="#sprite29"/>
      <use ffdec:characterId="93" height="27.25" transform="matrix(1.0, 0.0, 0.0, 1.0, 30.75, 20.3)" width="24.95" xlink:href="#shape33"/>
    </g>
    <g id="sprite27" transform="matrix(1.0, 0.0, 0.0, 1.0, 42.15, 30.15)">
      <use ffdec:characterId="49" height="60.3" transform="matrix(1.0, 0.0, 0.0, 1.0, -42.15, -30.15)" width="84.3" xlink:href="#shape28"/>
    </g>
    <g id="shape28" transform="matrix(1.0, 0.0, 0.0, 1.0, 42.15, 30.15)">
      <path d="M4.2 -29.65 L15.7 -29.25 18.0 -28.4 Q27.65 -24.7 34.25 -17.9 37.9 -12.85 32.2 -12.45 L31.8 -12.45 18.9 -12.65 Q27.0 2.45 28.2 16.35 L28.2 16.5 29.2 17.1 Q37.4 22.15 42.15 27.8 -1.2 32.45 -42.15 27.95 -38.1 23.0 -32.0 19.1 -30.15 17.85 -28.15 16.8 L-28.0 16.7 -27.9 16.45 Q-20.05 -21.35 3.3 -29.45 L4.2 -29.65" fill="#1a0000" fill-rule="evenodd" stroke="none"/>
    </g>
    <g id="shape29" transform="matrix(1.0, 0.0, 0.0, 1.0, 0.9, 0.9)">
      <path d="M60.15 1.75 L57.85 0.9 59.45 1.45 60.15 1.75" fill="#000000" fill-rule="evenodd" stroke="none"/>
      <path d="M48.0 17.3 L61.05 17.5 73.95 17.7 74.35 17.7 Q80.05 17.3 76.4 12.25 69.8 5.45 60.15 1.75 L59.45 1.45 57.85 0.9 Q52.7 -0.7 46.35 0.5 L45.45 0.7 Q22.1 8.8 14.25 46.6 L14.15 46.85 14.0 46.95 10.15 49.25 Q4.05 53.15 0.0 58.1 40.95 62.6 84.3 57.95 79.55 52.3 71.35 47.25 L70.35 46.65 70.35 46.5 Q69.15 32.6 61.05 17.5 M14.25 46.6 L14.0 46.95" fill="none" stroke="#000000" stroke-linecap="round" stroke-linejoin="round" stroke-width="1.8"/>
    </g>
    <g id="sprite28" transform="matrix(1.0, 0.0, 0.0, 1.0, 27.8, 10.9)">
      <use ffdec:characterId="52" height="21.85" transform="matrix(1.0, 0.0, 0.0, 1.0, -27.8, -10.9)" width="55.65" xlink:href="#shape30"/>
    </g>
    <g id="shape30" transform="matrix(1.0, 0.0, 0.0, 1.0, 27.8, 10.9)">
      <path d="M-11.05 -0.4 Q-11.05 -1.25 -11.65 -1.85 -12.25 -2.45 -13.1 -2.45 -13.95 -2.45 -14.55 -1.85 -15.15 -1.25 -15.15 -0.4 -15.15 0.45 -14.55 1.05 -13.95 1.65 -13.1 1.65 -12.25 1.65 -11.65 1.05 -11.05 0.45 -11.05 -0.4 M4.5 -3.2 Q3.9 -3.8 3.05 -3.8 2.2 -3.8 1.6 -3.2 1.0 -2.6 1.0 -1.75 1.0 -0.9 1.6 -0.3 2.2 0.3 3.05 0.3 3.9 0.3 4.5 -0.3 5.1 -0.9 5.1 -1.75 5.1 -2.6 4.5 -3.2 M11.6 -9.4 Q14.9 -9.7 17.0 -7.55 21.1 -5.8 25.1 -3.1 L25.3 -2.7 Q27.6 3.3 27.85 10.95 19.6 9.35 11.2 8.75 L11.1 8.75 10.85 8.75 Q-8.0 7.4 -27.8 10.85 L-24.65 -1.6 Q-12.0 -11.4 0.4 -10.85 6.1 -10.9 11.6 -9.4" fill="#ff0000" fill-rule="evenodd" stroke="none"/>
    </g>
    <g id="shape31" transform="matrix(1.0, 0.0, 0.0, 1.0, -13.35, -23.85)">
      <path d="M53.65 26.25 Q48.15 24.75 42.45 24.8 30.05 24.25 17.4 34.05 L14.25 46.5 Q34.05 43.05 52.9 44.4 L53.15 44.4 53.25 44.4 Q59.9 44.7 61.3 35.5 61.2 30.4 59.05 28.1 56.95 25.95 53.65 26.25 M46.55 35.35 Q45.95 35.95 45.1 35.95 44.25 35.95 43.65 35.35 43.05 34.75 43.05 33.9 43.05 33.05 43.65 32.45 44.25 31.85 45.1 31.85 45.95 31.85 46.55 32.45 47.15 33.05 47.15 33.9 47.15 34.75 46.55 35.35 M52.25 45.0 L52.9 44.4 M53.25 44.4 Q61.65 45.0 69.9 46.6 69.65 38.95 67.35 32.95 L67.15 32.55 Q63.15 29.85 59.05 28.1 M70.5 46.7 L69.9 46.6 M17.4 34.05 L17.65 33.05 M31.0 35.25 Q31.0 36.1 30.4 36.7 29.8 37.3 28.95 37.3 28.1 37.3 27.5 36.7 26.9 36.1 26.9 35.25 26.9 34.4 27.5 33.8 28.1 33.2 28.95 33.2 29.8 33.2 30.4 33.8 31.0 34.4 31.0 35.25 Z" fill="none" stroke="#000000" stroke-linecap="round" stroke-linejoin="round" stroke-width="1.8"/>
    </g>
    <g id="sprite29" transform="matrix(1.0, 0.0, 0.0, 1.0, 11.55, 12.7)">
      <use ffdec:characterId="55" height="25.45" transform="matrix(1.0, 0.0, 0.0, 1.0, -11.55, -12.7)" width="23.15" xlink:href="#shape32"/>
    </g>
    <g id="shape32" transform="matrix(1.0, 0.0, 0.0, 1.0, 11.55, 12.7)">
      <path d="M-7.35 -9.3 L-7.4 -7.95 Q-7.9 1.15 -6.85 9.45 L-6.75 10.2 -9.45 10.95 Q-13.0 0.45 -10.55 -10.0 L-7.25 -10.25 -7.3 -9.7 -7.35 -9.3 -6.9 -9.65 Q-3.6 -12.25 3.45 -12.7 L3.65 -12.6 Q7.65 -13.25 9.45 -9.7 14.0 1.5 8.85 11.45 L8.65 12.05 Q-0.3 14.15 -6.15 10.1 L-6.15 9.35 4.3 8.6 Q5.7 1.55 5.15 -4.7 4.4 -8.0 1.55 -8.7 -1.35 -9.75 -7.0 -8.05 L-7.35 -9.3" fill="#333333" fill-rule="evenodd" stroke="none"/>
    </g>
    <g id="shape33" transform="matrix(1.0, 0.0, 0.0, 1.0, -30.75, -20.3)">
      <path d="M33.75 44.85 L36.45 44.1 36.7 45.75 36.3 46.15 33.95 45.4 33.75 44.85" fill="#000000" fill-rule="evenodd" stroke="none"/>
      <path d="M52.05 45.35 Q57.2 35.4 52.65 24.2 50.85 20.65 46.85 21.3 L46.65 21.2 Q39.6 21.65 36.3 24.25 L35.85 24.6 35.8 25.95 36.2 25.85 Q41.85 24.15 44.75 25.2 47.6 25.9 48.35 29.2 48.9 35.45 47.5 42.5 L37.05 43.25 M35.85 24.6 L35.9 24.2 35.95 23.65 32.65 23.9 Q30.2 34.35 33.75 44.85 L33.95 45.4 36.3 46.15 M36.45 44.1 L36.35 43.35 Q35.3 35.05 35.8 25.95 M36.45 44.1 L36.7 45.75 M37.05 44.0 Q42.9 48.05 51.85 45.95" fill="none" stroke="#000000" stroke-linecap="round" stroke-linejoin="round" stroke-width="1.8"/>
    </g>
    <g id="shape34" transform="matrix(1.0, 0.0, 0.0, 1.0, 0.75, 0.75)">
      <path d="M6.95 10.5 L6.05 11.85 Q4.2 12.75 3.8 11.1 L3.65 8.45 0.8 7.9 Q-0.75 6.15 0.7 5.25 L2.7 4.25 2.5 1.55 Q2.9 -0.5 5.1 0.2 L6.75 2.2 9.55 1.15 Q11.45 1.3 11.2 3.2 L9.85 5.55 11.5 7.3 Q12.2 9.4 10.75 9.65 L9.95 9.55 7.8 9.2 6.95 10.5" fill="#ffcc00" fill-rule="evenodd" stroke="none"/>
      <path d="M9.95 9.55 L18.0 24.45 Q18.55 25.65 17.7 26.45 16.35 27.45 15.0 25.1 L6.95 10.5 7.8 9.2 9.95 9.55" fill="#9f8000" fill-rule="evenodd" stroke="none"/>
      <path d="M6.95 10.5 L6.05 11.85 Q4.2 12.75 3.8 11.1 L3.65 8.45 0.8 7.9 Q-0.75 6.15 0.7 5.25 L2.7 4.25 2.5 1.55 Q2.9 -0.5 5.1 0.2 L6.75 2.2 9.55 1.15 Q11.45 1.3 11.2 3.2 L9.85 5.55 11.5 7.3 Q12.2 9.4 10.75 9.65 L9.95 9.55 18.0 24.45 Q18.55 25.65 17.7 26.45 16.35 27.45 15.0 25.1 L6.95 10.5 7.8 9.2 9.95 9.55" fill="none" stroke="#000000" stroke-linecap="round" stroke-linejoin="round" stroke-width="1.5"/>
    </g>
    <g id="sprite30" transform="matrix(1.0, 0.0, 0.0, 1.0, 2.75, 2.75)">
      <use ffdec:characterId="480" height="9.45" id="mc100" transform="matrix(1.0, 0.0, 0.0, 1.0, -2.0, -2.0)" width="9.55" xlink:href="#sprite31"/>
      <use ffdec:characterId="481" height="10.95" transform="matrix(1.0, 0.0, 0.0, 1.0, -2.75, -2.75)" width="11.05" xlink:href="#shape36"/>
    </g>
    <g id="sprite31" transform="matrix(1.0, 0.0, 0.0, 1.0, 4.75, 4.7)">
      <use ffdec:characterId="479" height="9.45" transform="matrix(1.0, 0.0, 0.0, 1.0, -4.75, -4.7)" width="9.55" xlink:href="#shape35"/>
    </g>
    <g id="shape35" transform="matrix(1.0, 0.0, 0.0, 1.0, 4.75, 4.7)">
      <path d="M3.35 -3.35 Q4.8 -2.0 4.8 0.05 4.8 2.0 3.35 3.4 2.0 4.75 0.0 4.75 -1.95 4.75 -3.3 3.4 -4.75 2.0 -4.75 0.05 -4.75 -2.0 -3.3 -3.35 -1.95 -4.7 0.0 -4.7 2.0 -4.7 3.35 -3.35" fill="#ffcc66" fill-rule="evenodd" stroke="none"/>
    </g>
    <g id="shape36" transform="matrix(1.0, 0.0, 0.0, 1.0, 2.75, 2.75)">
      <path d="M6.1 -0.65 Q7.55 0.7 7.55 2.75 7.55 4.7 6.1 6.1 4.75 7.45 2.75 7.45 0.8 7.45 -0.55 6.1 -2.0 4.7 -2.0 2.75 -2.0 0.7 -0.55 -0.65 0.8 -2.0 2.75 -2.0 4.75 -2.0 6.1 -0.65 Z" fill="none" stroke="#000000" stroke-linecap="round" stroke-linejoin="round" stroke-width="1.5"/>
    </g>
  </defs>
</svg>
