<?xml version="1.0" encoding="UTF-8" standalone="no"?>
<svg xmlns:ffdec="https://www.free-decompiler.com/flash" xmlns:xlink="http://www.w3.org/1999/xlink" ffdec:objectType="frame" height="123.2px" width="114.2px" xmlns="http://www.w3.org/2000/svg">
  <g transform="matrix(1.0, 0.0, 0.0, 1.0, 59.9, 118.95)">
    <use ffdec:characterId="272" height="18.85" id="mc35520" transform="matrix(-0.9946, 0.101, 0.101, 0.9946, 9.2134, -18.3483)" width="10.9" xlink:href="#sprite0"/>
    <use ffdec:characterId="272" height="18.85" id="mc34520" transform="matrix(-0.9946, 0.101, 0.101, 0.9946, -1.7866, -18.1483)" width="10.9" xlink:href="#sprite0"/>
    <use ffdec:characterId="275" height="20.35" id="mc32520" transform="matrix(0.9634, 0.2579, -0.2579, 0.9634, -21.1922, -34.6175)" width="13.05" xlink:href="#sprite2"/>
    <use ffdec:characterId="289" height="27.0" id="mc31520" transform="matrix(0.9951, -0.0959, 0.0959, 0.9951, -41.8319, -44.4092)" width="23.95" xlink:href="#sprite5"/>
    <use ffdec:characterId="279" height="11.25" id="mc30520" transform="matrix(-1.0, 0.0, 0.0, 1.0, 18.8, -17.55)" width="37.6" xlink:href="#sprite7"/>
    <use ffdec:characterId="277" height="18.8" id="mc29520" transform="matrix(-1.0, 0.0, 0.0, 1.0, 13.15, -32.45)" width="25.85" xlink:href="#sprite9"/>
    <use ffdec:characterId="324" height="20.95" id="mc28520" transform="matrix(-1.0, 0.0, 0.0, 1.0, 10.05, -30.2)" width="10.0" xlink:href="#sprite11"/>
    <use ffdec:characterId="461" height="19.25" id="mc27520" transform="matrix(-0.9026, -0.4229, -0.4229, 0.9026, 16.9429, -28.2817)" width="12.9" xlink:href="#sprite13"/>
    <use ffdec:characterId="281" height="22.3" id="mc26520" transform="matrix(1.0, 0.0, 0.0, 1.0, -17.4, -43.4)" width="26.9" xlink:href="#sprite16"/>
    <use ffdec:characterId="328" height="32.5" id="mc21520" transform="matrix(0.9951, -0.0959, 0.0959, 0.9951, -29.9319, -55.1592)" width="52.1" xlink:href="#sprite18"/>
    <use ffdec:characterId="307" height="27.9" id="mc20520" transform="matrix(-0.9951, 0.0959, 0.0959, 0.9951, 18.2592, -46.7819)" width="5.7" xlink:href="#sprite20"/>
    <use ffdec:characterId="310" height="29.05" id="mc20521" transform="matrix(-0.9951, 0.0959, 0.0959, 0.9951, 38.6092, -49.1819)" width="23.95" xlink:href="#sprite22"/>
    <use ffdec:characterId="377" height="72.2" id="hide_hat" transform="matrix(0.9951, -0.0959, 0.0959, 0.9951, -52.454, -100.8768)" width="89.3" xlink:href="#sprite24"/>
    <use ffdec:characterId="483" height="19.0" transform="matrix(0.9904, 0.0311, 0.0311, -0.9904, -6.7376, -1.4462)" width="13.45" xlink:href="#shape28"/>
    <use ffdec:characterId="484" height="6.85" transform="matrix(1.0, 0.0, 0.0, 1.0, -22.25, -36.15)" width="30.9" xlink:href="#shape29"/>
    <use ffdec:characterId="618" height="0.0" id="hat" transform="matrix(1.0, 0.0, 0.0, 1.0, -39.9, -105.9)" width="0.0" xlink:href="#sprite28"/>
  </g>
  <defs>
    <g id="sprite0" transform="matrix(1.0, 0.0, 0.0, 1.0, 4.95, 9.5)">
      <use ffdec:characterId="271" height="3.3" id="mc100" transform="matrix(1.0, 0.0, 0.0, 1.0, -3.65, 3.05)" width="8.7" xlink:href="#sprite1"/>
      <use ffdec:characterId="102" height="18.85" transform="matrix(1.0, 0.0, 0.0, 1.0, -4.95, -9.5)" width="10.9" xlink:href="#shape1"/>
    </g>
    <g id="sprite1" transform="matrix(1.0, 0.0, 0.0, 1.0, 4.35, 1.65)">
      <use ffdec:characterId="1" height="3.3" transform="matrix(1.0, 0.0, 0.0, 1.0, -4.35, -1.65)" width="8.7" xlink:href="#shape0"/>
    </g>
    <g id="shape0" transform="matrix(1.0, 0.0, 0.0, 1.0, 4.35, 1.65)">
      <path d="M-4.35 -0.85 L4.0 -1.65 4.35 0.75 -4.2 1.65 -4.35 -0.85" fill="#00ffff" fill-rule="evenodd" stroke="none"/>
    </g>
    <g id="shape1" transform="matrix(1.0, 0.0, 0.0, 1.0, 4.95, 9.5)">
      <path d="M-3.65 3.85 L-4.05 -6.3 Q-4.1 -7.15 -3.15 -7.75 -2.1 -8.4 -0.55 -8.55 L2.1 -8.25 Q3.15 -7.75 3.3 -7.0 L3.35 -6.85 3.35 -6.65 4.7 3.05 -3.65 3.85 M5.05 5.55 L5.05 5.7 Q5.15 6.65 3.9 7.45 2.7 8.25 0.95 8.4 -0.8 8.55 -2.15 7.95 -3.45 7.45 -3.55 6.5 L-3.55 6.35 -3.5 6.35 4.7 5.5 5.05 5.55" fill="#000000" fill-rule="evenodd" stroke="none"/>
      <path d="M-3.65 3.85 L-4.05 -6.3 Q-4.1 -7.15 -3.15 -7.75 -2.1 -8.4 -0.55 -8.55 L2.1 -8.25 Q3.15 -7.75 3.3 -7.0 L3.35 -6.85 3.35 -6.65 4.7 3.05 5.05 5.45 5.05 5.55 5.05 5.7 Q5.15 6.65 3.9 7.45 2.7 8.25 0.95 8.4 -0.8 8.55 -2.15 7.95 -3.45 7.45 -3.55 6.5 L-3.55 6.35 -3.55 6.1 -3.65 3.85 4.7 3.05 M-3.55 6.35 L-3.5 6.35 4.7 5.5" fill="none" stroke="#000000" stroke-linecap="round" stroke-linejoin="round" stroke-width="1.8"/>
    </g>
    <g id="sprite2" transform="matrix(1.0, 0.0, 0.0, 1.0, 6.55, 10.15)">
      <use ffdec:characterId="273" height="4.9" id="mc200" transform="matrix(1.0, 0.0, 0.0, 1.0, -5.65, 4.4)" width="6.65" xlink:href="#sprite3"/>
      <use ffdec:characterId="274" height="13.2" id="mc100" transform="matrix(1.0, 0.0, 0.0, 1.0, -5.35, -5.05)" width="10.15" xlink:href="#sprite4"/>
      <use ffdec:characterId="64" height="20.35" transform="matrix(1.0, 0.0, 0.0, 1.0, -6.55, -10.15)" width="13.05" xlink:href="#shape4"/>
    </g>
    <g id="sprite3" transform="matrix(1.0, 0.0, 0.0, 1.0, 3.35, 2.45)">
      <use ffdec:characterId="5" height="4.9" transform="matrix(1.0, 0.0, 0.0, 1.0, -3.35, -2.45)" width="6.65" xlink:href="#shape2"/>
    </g>
    <g id="shape2" transform="matrix(1.0, 0.0, 0.0, 1.0, 3.35, 2.45)">
      <path d="M-3.05 -2.45 L-2.8 -2.35 3.3 1.3 3.2 1.4 2.15 2.15 Q0.6 2.75 -0.9 2.15 -2.5 1.45 -3.1 -0.05 -3.55 -1.15 -3.1 -2.4 L-3.05 -2.45" fill="#ffcc66" fill-rule="evenodd" stroke="none"/>
    </g>
    <g id="sprite4" transform="matrix(1.0, 0.0, 0.0, 1.0, 5.1, 6.6)">
      <use ffdec:characterId="7" height="13.2" transform="matrix(1.0, 0.0, 0.0, 1.0, -5.1, -6.6)" width="10.15" xlink:href="#shape3"/>
    </g>
    <g id="shape3" transform="matrix(1.0, 0.0, 0.0, 1.0, 5.1, 6.6)">
      <path d="M-4.85 2.95 L-5.1 2.85 -4.85 2.2 -4.1 0.7 -3.7 0.9 2.25 4.7 2.1 5.05 1.25 6.6 -4.85 2.95 M5.05 -4.25 L4.1 -0.95 3.75 0.15 -2.25 -2.9 -1.95 -3.5 -0.2 -6.6 5.05 -4.25" fill="#00ff00" fill-rule="evenodd" stroke="none"/>
    </g>
    <g id="shape4" transform="matrix(1.0, 0.0, 0.0, 1.0, 6.55, 10.15)">
      <path d="M-0.45 -5.05 Q1.4 -8.35 2.2 -8.8 3.05 -9.35 3.85 -9.2 L4.3 -9.1 Q5.3 -8.65 5.55 -7.4 5.75 -6.5 4.8 -2.7 L-0.45 -5.05 M3.5 1.7 L2.0 6.25 -3.95 2.45 -4.35 2.25 -2.5 -1.35 3.5 1.7" fill="#ffffff" fill-rule="evenodd" stroke="none"/>
      <path d="M4.8 -2.7 Q5.75 -6.5 5.55 -7.4 5.3 -8.65 4.3 -9.1 L3.85 -9.2 Q3.05 -9.35 2.2 -8.8 1.4 -8.35 -0.45 -5.05 L-2.2 -1.95 -2.5 -1.35 -4.35 2.25 -5.1 3.75 -5.35 4.4 -5.4 4.45 Q-5.85 5.7 -5.4 6.8 -4.8 8.3 -3.2 9.0 -1.7 9.6 -0.15 9.0 L0.9 8.25 1.0 8.15 1.85 6.6 2.0 6.25 3.5 1.7 3.85 0.6 4.8 -2.7" fill="none" stroke="#000000" stroke-linecap="round" stroke-linejoin="round" stroke-width="1.8"/>
      <path d="M-0.45 -5.05 L4.8 -2.7 M-5.1 4.5 L0.7 7.95 M-2.5 -1.35 L3.5 1.7 M2.0 6.25 L-3.95 2.45" fill="none" stroke="#000000" stroke-linecap="round" stroke-linejoin="round" stroke-width="1.5"/>
    </g>
    <g id="sprite5" transform="matrix(1.0, 0.0, 0.0, 1.0, 0.9, 0.9)">
      <use ffdec:characterId="288" height="25.2" id="mc100" transform="matrix(1.0, 0.0, 0.0, 1.0, 0.0, 0.0)" width="22.15" xlink:href="#sprite6"/>
      <use ffdec:characterId="76" height="27.0" transform="matrix(1.0, 0.0, 0.0, 1.0, -0.9, -0.9)" width="23.95" xlink:href="#shape6"/>
    </g>
    <g id="sprite6" transform="matrix(1.0, 0.0, 0.0, 1.0, 11.05, 12.6)">
      <use ffdec:characterId="31" height="25.2" transform="matrix(1.0, 0.0, 0.0, 1.0, -11.05, -12.6)" width="22.15" xlink:href="#shape5"/>
    </g>
    <g id="shape5" transform="matrix(1.0, 0.0, 0.0, 1.0, 11.05, 12.6)">
      <path d="M11.1 -11.1 L11.05 -11.0 Q6.65 0.2 4.55 12.6 1.4 12.55 -1.2 11.5 -5.15 9.95 -7.95 6.3 -9.7 3.95 -11.0 0.75 L-11.05 0.6 Q-3.25 -11.3 8.75 -12.35 L8.95 -12.6 11.1 -11.1" fill="#993300" fill-rule="evenodd" stroke="none"/>
    </g>
    <g id="shape6" transform="matrix(1.0, 0.0, 0.0, 1.0, 0.9, 0.9)">
      <path d="M20.0 0.0 L22.15 1.5 22.1 1.6 Q17.7 12.8 15.6 25.2 12.45 25.15 9.85 24.1 5.9 22.55 3.1 18.9 1.35 16.55 0.05 13.35 L0.0 13.2 Q7.8 1.3 19.8 0.25 M3.1 18.9 Q7.85 8.9 15.9 3.05 M9.85 24.1 Q12.35 13.75 18.25 4.0" fill="none" stroke="#000000" stroke-linecap="round" stroke-linejoin="round" stroke-width="1.8"/>
    </g>
    <g id="sprite7" transform="matrix(1.0, 0.0, 0.0, 1.0, 0.75, 0.75)">
      <use ffdec:characterId="278" height="9.75" id="mc100" transform="matrix(1.0, 0.0, 0.0, 1.0, 0.0, 0.0)" width="36.1" xlink:href="#sprite8"/>
      <use ffdec:characterId="225" height="11.25" transform="matrix(1.0, 0.0, 0.0, 1.0, -0.75, -0.75)" width="37.6" xlink:href="#shape8"/>
    </g>
    <g id="sprite8" transform="matrix(1.0, 0.0, 0.0, 1.0, 18.05, 4.85)">
      <use ffdec:characterId="11" height="9.75" transform="matrix(1.0, 0.0, 0.0, 1.0, -18.05, -4.85)" width="36.1" xlink:href="#shape7"/>
    </g>
    <g id="shape7" transform="matrix(1.0, 0.0, 0.0, 1.0, 18.05, 4.85)">
      <path d="M11.55 -4.75 L18.05 0.55 14.55 4.7 11.45 1.8 8.7 4.65 6.2 1.5 3.35 4.45 -0.25 1.4 -4.05 4.9 -7.4 2.3 -9.95 4.8 -12.95 1.5 -15.7 4.25 -18.05 0.2 -11.2 -4.85 11.55 -4.75" fill="#996666" fill-rule="evenodd" stroke="none"/>
    </g>
    <g id="shape8" transform="matrix(1.0, 0.0, 0.0, 1.0, 0.75, 0.75)">
      <path d="M35.95 5.6 L32.6 9.55 29.5 6.65 26.75 9.5 24.25 6.35 21.4 9.3 21.05 9.0 17.8 6.25 14.0 9.75 10.65 7.15 8.1 9.65 5.1 6.35 2.35 9.1 0.0 5.05 6.85 0.0 29.6 0.1 36.1 5.4 M22.9 4.7 L24.25 6.35 M29.5 6.65 L26.9 4.2 M15.8 4.4 L14.0 9.75 M10.65 7.15 L12.75 5.05 M7.05 4.35 L5.1 6.35 M21.05 9.0 L20.05 5.0" fill="none" stroke="#000000" stroke-linecap="round" stroke-linejoin="round" stroke-width="1.5"/>
    </g>
    <g id="sprite9" transform="matrix(1.0, 0.0, 0.0, 1.0, 0.75, 0.75)">
      <use ffdec:characterId="276" height="14.75" id="mc100" transform="matrix(1.0, 0.0, 0.0, 1.0, 0.0, 2.55)" width="24.35" xlink:href="#sprite10"/>
      <use ffdec:characterId="67" height="18.8" transform="matrix(1.0, 0.0, 0.0, 1.0, -0.75, -0.75)" width="25.85" xlink:href="#shape10"/>
    </g>
    <g id="sprite10" transform="matrix(1.0, 0.0, 0.0, 1.0, 12.15, 7.35)">
      <use ffdec:characterId="15" height="14.75" transform="matrix(1.0, 0.0, 0.0, 1.0, -12.15, -7.35)" width="24.35" xlink:href="#shape9"/>
    </g>
    <g id="shape9" transform="matrix(1.0, 0.0, 0.0, 1.0, 12.15, 7.35)">
      <path d="M12.15 -5.15 L12.15 -4.6 -12.1 -4.6 -12.05 -5.15 -11.95 -7.35 12.05 -7.35 12.15 -5.15 M11.85 7.4 L-11.75 7.4 -11.95 4.65 12.05 4.65 11.85 7.4 M12.2 1.25 L-12.1 1.35 -12.15 -1.8 12.2 -1.85 12.2 1.25" fill="#00ff00" fill-rule="evenodd" stroke="none"/>
    </g>
    <g id="shape10" transform="matrix(1.0, 0.0, 0.0, 1.0, 0.75, 0.75)">
      <path d="M24.2 14.55 L0.2 14.55 0.05 11.25 24.35 11.15 24.2 14.55 M0.0 8.1 L0.05 5.3 24.3 5.3 24.35 8.05 0.0 8.1 M0.2 2.55 L0.4 0.0 24.0 0.0 24.2 2.55 0.2 2.55" fill="#ffffff" fill-rule="evenodd" stroke="none"/>
      <path d="M0.2 14.55 L0.4 17.3 24.0 17.3 24.2 14.55 0.2 14.55 0.05 11.25 0.0 8.1 0.05 5.3 0.1 4.75 0.2 2.55 0.4 0.0 24.0 0.0 24.2 2.55 24.3 4.75 24.3 5.3 24.35 8.05 24.35 11.15 24.2 14.55 M24.35 11.15 L0.05 11.25 M24.2 2.55 L0.2 2.55 M24.3 5.3 L0.05 5.3 M0.0 8.1 L24.35 8.05" fill="none" stroke="#000000" stroke-linecap="round" stroke-linejoin="round" stroke-width="1.5"/>
    </g>
    <g id="sprite11" transform="matrix(1.0, 0.0, 0.0, 1.0, 0.75, 0.75)">
      <use ffdec:characterId="323" height="19.45" id="mc100" transform="matrix(1.0, 0.0, 0.0, 1.0, 1.65, 0.0)" width="6.75" xlink:href="#sprite12"/>
      <use ffdec:characterId="116" height="20.95" transform="matrix(1.0, 0.0, 0.0, 1.0, -0.75, -0.75)" width="10.0" xlink:href="#shape12"/>
    </g>
    <g id="sprite12" transform="matrix(1.0, 0.0, 0.0, 1.0, 3.35, 9.7)">
      <use ffdec:characterId="19" height="19.45" transform="matrix(1.0, 0.0, 0.0, 1.0, -3.35, -9.7)" width="6.75" xlink:href="#shape11"/>
    </g>
    <g id="shape11" transform="matrix(1.0, 0.0, 0.0, 1.0, 3.35, 9.7)">
      <path d="M3.05 0.15 L2.9 4.95 0.45 4.7 0.95 9.15 0.95 9.75 0.9 9.75 -2.55 9.3 -1.9 4.45 -3.35 4.3 -3.2 -0.6 3.05 0.15 M3.35 -6.95 L3.25 -4.2 -3.05 -4.95 -2.9 -9.4 -2.75 -9.7 3.4 -7.2 3.35 -6.95" fill="#00ffff" fill-rule="evenodd" stroke="none"/>
    </g>
    <g id="shape12" transform="matrix(1.0, 0.0, 0.0, 1.0, 0.75, 0.75)">
      <path d="M1.95 4.75 L8.25 5.5 8.05 9.85 1.8 9.1 1.95 4.75 M7.9 14.65 L7.85 14.95 Q8.45 16.8 8.5 19.2 L6.0 19.45 5.95 19.45 5.95 18.85 5.45 14.4 7.4 14.6 7.9 14.65 M2.45 19.0 L0.0 18.3 Q0.15 16.25 1.6 14.4 L1.65 14.0 3.1 14.15 2.45 19.0" fill="#ffffff" fill-rule="evenodd" stroke="none"/>
      <path d="M2.1 0.3 L1.95 4.75 8.25 5.5 8.35 2.75 M8.4 2.5 L2.25 0.0 M1.95 4.75 L1.8 9.1 8.05 9.85 8.25 5.5 M5.95 19.45 L6.0 19.45 8.5 19.2 Q8.45 16.8 7.85 14.95 L7.9 14.65 8.05 9.85 M7.4 14.6 L5.45 14.4 5.95 18.85 M5.95 19.45 L5.9 19.45 2.45 19.0 0.0 18.3 Q0.15 16.25 1.6 14.4 L1.65 14.0 1.8 9.1 M2.45 19.0 L3.1 14.15 1.65 14.0 M5.45 14.4 L3.1 14.15" fill="none" stroke="#000000" stroke-linecap="round" stroke-linejoin="round" stroke-width="1.5"/>
    </g>
    <g id="sprite13" transform="matrix(1.0, 0.0, 0.0, 1.0, 0.9, 0.9)">
      <use ffdec:characterId="459" height="8.2" id="mc200" transform="matrix(1.0, 0.0, 0.0, 1.0, 0.0, 9.25)" width="11.1" xlink:href="#sprite14"/>
      <use ffdec:characterId="460" height="9.55" id="mc100" transform="matrix(1.0, 0.0, 0.0, 1.0, 0.55, 2.3)" width="10.2" xlink:href="#sprite15"/>
      <use ffdec:characterId="126" height="19.25" transform="matrix(1.0, 0.0, 0.0, 1.0, -0.9, -0.9)" width="12.9" xlink:href="#shape15"/>
    </g>
    <g id="sprite14" transform="matrix(1.0, 0.0, 0.0, 1.0, 5.55, 4.1)">
      <use ffdec:characterId="122" height="8.2" transform="matrix(1.0, 0.0, 0.0, 1.0, -5.55, -4.1)" width="11.1" xlink:href="#shape13"/>
    </g>
    <g id="shape13" transform="matrix(1.0, 0.0, 0.0, 1.0, 5.55, 4.1)">
      <path d="M5.2 -1.5 L5.55 0.0 Q5.55 1.7 3.9 2.9 2.3 4.1 0.0 4.1 -2.3 4.1 -3.95 2.9 -5.55 1.7 -5.55 0.0 -5.55 -0.95 -5.0 -1.75 L-3.95 -2.9 Q-2.3 -4.1 0.0 -4.1 2.3 -4.1 3.9 -2.9 L5.2 -1.5" fill="#ffcc66" fill-rule="evenodd" stroke="none"/>
    </g>
    <g id="sprite15" transform="matrix(1.0, 0.0, 0.0, 1.0, 5.1, 4.75)">
      <use ffdec:characterId="124" height="9.55" transform="matrix(1.0, 0.0, 0.0, 1.0, -5.1, -4.75)" width="10.2" xlink:href="#shape14"/>
    </g>
    <g id="shape14" transform="matrix(1.0, 0.0, 0.0, 1.0, 5.1, 4.75)">
      <path d="M-0.1 2.2 Q-2.4 2.2 -4.05 3.4 L-5.1 4.55 -4.9 2.0 Q0.85 -2.05 4.25 2.2 L4.85 2.1 4.9 2.5 5.05 3.8 5.1 4.8 3.8 3.4 Q2.2 2.2 -0.1 2.2 M3.4 -3.35 L4.4 -0.15 Q1.0 -4.4 -4.5 -0.35 L-3.35 -4.0 Q1.05 -5.75 3.4 -3.35" fill="#00ff00" fill-rule="evenodd" stroke="none"/>
    </g>
    <g id="shape15" transform="matrix(1.0, 0.0, 0.0, 1.0, 0.9, 0.9)">
      <path d="M10.5 9.15 L9.9 9.25 Q6.5 5.0 0.75 9.05 L1.1 6.9 1.15 6.7 Q6.65 2.65 10.05 6.9 L10.15 7.2 10.5 9.15 M2.3 3.05 Q2.95 1.55 3.85 0.45 L4.2 0.3 Q6.4 -0.55 7.65 1.0 L9.05 3.7 Q6.7 1.3 2.3 3.05" fill="#ffffff" fill-rule="evenodd" stroke="none"/>
      <path d="M0.75 9.05 L0.55 11.6 Q0.9 10.95 1.6 10.45 3.25 9.25 5.55 9.25 7.85 9.25 9.45 10.45 10.3 11.1 10.75 11.85 L10.7 10.85 10.55 9.55 10.5 9.15 10.15 7.2 10.05 6.9 9.05 3.7 Q6.7 1.3 2.3 3.05 2.95 1.55 3.85 0.45 L4.2 0.3 Q6.4 -0.55 7.65 1.0 L9.05 3.7 M9.9 9.25 Q6.5 5.0 0.75 9.05 L1.1 6.9 1.15 6.7 Q1.6 4.65 2.3 3.05 M1.15 6.7 Q6.65 2.65 10.05 6.9 M10.75 11.85 Q11.1 12.55 11.1 13.35 11.1 15.05 9.45 16.25 7.85 17.45 5.55 17.45 3.25 17.45 1.6 16.25 0.0 15.05 0.0 13.35 0.0 12.4 0.55 11.6" fill="none" stroke="#000000" stroke-linecap="round" stroke-linejoin="round" stroke-width="1.8"/>
    </g>
    <g id="sprite16" transform="matrix(1.0, 0.0, 0.0, 1.0, 0.9, 0.9)">
      <use ffdec:characterId="280" height="20.5" id="mc100" transform="matrix(1.0, 0.0, 0.0, 1.0, 0.0, 0.0)" width="25.1" xlink:href="#sprite17"/>
      <use ffdec:characterId="70" height="22.3" transform="matrix(1.0, 0.0, 0.0, 1.0, -0.9, -0.9)" width="26.9" xlink:href="#shape17"/>
    </g>
    <g id="sprite17" transform="matrix(1.0, 0.0, 0.0, 1.0, 12.55, 10.25)">
      <use ffdec:characterId="23" height="20.5" transform="matrix(1.0, 0.0, 0.0, 1.0, -12.55, -10.25)" width="25.1" xlink:href="#shape16"/>
    </g>
    <g id="shape16" transform="matrix(1.0, 0.0, 0.0, 1.0, 12.55, 10.25)">
      <path d="M3.3 -9.9 Q2.3 0.0 3.35 9.9 L0.0 10.25 -3.55 9.9 -3.2 -9.9 0.0 -10.25 3.3 -9.9 M9.75 6.5 Q8.6 0.05 9.65 -6.55 12.55 -3.75 12.55 0.0 12.55 3.7 9.75 6.5 M-8.7 -6.95 Q-9.65 0.35 -8.8 7.25 L-8.9 7.25 Q-12.55 4.25 -12.55 0.0 -12.55 -4.2 -8.95 -7.2 L-8.7 -6.95" fill="#00ffff" fill-rule="evenodd" stroke="none"/>
    </g>
    <g id="shape17" transform="matrix(1.0, 0.0, 0.0, 1.0, 0.9, 0.9)">
      <path d="M15.85 0.35 Q18.95 1.0 21.4 3.0 L21.95 3.5 22.2 3.7 Q21.15 10.3 22.3 16.75 L21.4 17.5 Q19.0 19.5 15.9 20.15 14.85 10.25 15.85 0.35 M9.0 20.15 Q6.05 19.45 3.75 17.55 L3.75 17.5 Q2.9 10.6 3.85 3.3 L3.65 3.0 Q6.15 1.0 9.35 0.35 L9.0 20.15" fill="#ffffff" fill-rule="evenodd" stroke="none"/>
      <path d="M15.85 0.35 Q18.95 1.0 21.4 3.0 L21.95 3.5 22.2 3.7 Q25.1 6.5 25.1 10.25 25.1 13.95 22.3 16.75 L21.4 17.5 Q19.0 19.5 15.9 20.15 L12.55 20.5 9.0 20.15 Q6.05 19.45 3.75 17.55 L3.65 17.5 Q0.0 14.5 0.0 10.25 0.0 6.05 3.6 3.05 L3.65 3.0 Q6.15 1.0 9.35 0.35 L12.55 0.0 15.85 0.35 Q14.85 10.25 15.9 20.15 M22.2 3.7 Q21.15 10.3 22.3 16.75 M3.75 17.55 L3.75 17.5 Q2.9 10.6 3.85 3.3 M9.35 0.35 L9.0 20.15" fill="none" stroke="#000000" stroke-linecap="round" stroke-linejoin="round" stroke-width="1.8"/>
    </g>
    <g id="sprite18" transform="matrix(1.0, 0.0, 0.0, 1.0, 0.9, 0.9)">
      <use ffdec:characterId="326" height="30.7" id="mc100" transform="matrix(1.0, 0.0, 0.0, 1.0, 0.0, 0.0)" width="50.3" xlink:href="#sprite19"/>
      <use ffdec:characterId="327" height="32.5" transform="matrix(1.0, 0.0, 0.0, 1.0, -0.9, -0.9)" width="52.1" xlink:href="#shape19"/>
    </g>
    <g id="sprite19" transform="matrix(1.0, 0.0, 0.0, 1.0, 26.6, 15.35)">
      <use ffdec:characterId="325" height="30.7" transform="matrix(1.0, 0.0, 0.0, 1.0, -26.6, -15.35)" width="50.3" xlink:href="#shape18"/>
    </g>
    <g id="shape18" transform="matrix(1.0, 0.0, 0.0, 1.0, 26.6, 15.35)">
      <path d="M23.2 0.55 Q14.15 12.3 -0.05 14.75 L-0.4 14.95 Q-13.85 17.15 -23.1 7.6 -23.6 5.55 -22.55 3.5 -25.55 -5.25 -26.6 -15.35 L23.2 -13.35 23.7 0.1 23.2 0.55" fill="#ffcc66" fill-rule="evenodd" stroke="none"/>
    </g>
    <g id="shape19" transform="matrix(1.0, 0.0, 0.0, 1.0, 0.9, 0.9)">
      <path d="M49.8 15.9 Q40.75 27.65 26.55 30.1 L26.2 30.3 Q12.75 32.5 3.5 22.95 3.0 20.9 4.05 18.85 1.05 10.1 0.0 0.0 L50.0 1.95 50.3 15.45" fill="none" stroke="#000000" stroke-linecap="round" stroke-linejoin="round" stroke-width="1.8"/>
    </g>
    <g id="sprite20" transform="matrix(1.0, 0.0, 0.0, 1.0, 0.9, 0.9)">
      <use ffdec:characterId="306" height="26.1" id="mc100" transform="matrix(1.0, 0.0, 0.0, 1.0, 0.0, 0.0)" width="3.95" xlink:href="#sprite21"/>
      <use ffdec:characterId="164" height="27.9" transform="matrix(1.0, 0.0, 0.0, 1.0, -0.9, -0.9)" width="5.7" xlink:href="#shape21"/>
    </g>
    <g id="sprite21" transform="matrix(1.0, 0.0, 0.0, 1.0, 1.95, 13.05)">
      <use ffdec:characterId="162" height="26.1" transform="matrix(1.0, 0.0, 0.0, 1.0, -1.95, -13.05)" width="3.95" xlink:href="#shape20"/>
    </g>
    <g id="shape20" transform="matrix(1.0, 0.0, 0.0, 1.0, 1.95, 13.05)">
      <path d="M1.95 -7.35 Q2.4 4.15 -1.95 13.05 L-1.65 -12.9 -1.4 -13.05 Q1.15 -12.0 1.9 -7.35 L1.95 -7.35" fill="#993300" fill-rule="evenodd" stroke="none"/>
    </g>
    <g id="shape21" transform="matrix(1.0, 0.0, 0.0, 1.0, 0.9, 0.9)">
      <path d="M0.55 0.0 Q3.1 1.05 3.85 5.7 4.35 17.2 0.0 26.1 L0.3 0.15" fill="none" stroke="#000000" stroke-linecap="round" stroke-linejoin="round" stroke-width="1.8"/>
    </g>
    <g id="sprite22" transform="matrix(1.0, 0.0, 0.0, 1.0, 0.9, 0.9)">
      <use ffdec:characterId="309" height="27.0" id="mc100" transform="matrix(1.0, 0.0, 0.0, 1.0, 0.0, 0.25)" width="22.15" xlink:href="#sprite23"/>
      <use ffdec:characterId="250" height="29.05" transform="matrix(1.0, 0.0, 0.0, 1.0, -0.9, -0.9)" width="23.95" xlink:href="#shape23"/>
    </g>
    <g id="sprite23" transform="matrix(1.0, 0.0, 0.0, 1.0, 11.05, 13.5)">
      <use ffdec:characterId="308" height="27.0" transform="matrix(1.0, 0.0, 0.0, 1.0, -11.05, -13.5)" width="22.15" xlink:href="#shape22"/>
    </g>
    <g id="shape22" transform="matrix(1.0, 0.0, 0.0, 1.0, 11.05, 13.5)">
      <path d="M8.75 -13.5 L9.6 -12.8 9.8 -13.15 9.85 -13.1 11.1 -12.25 11.05 -12.15 Q6.65 -0.95 7.5 12.95 L6.9 12.95 6.75 13.5 Q-4.75 11.8 -8.6 4.85 L-11.0 -0.4 -11.05 -0.55 -10.55 -1.3 -10.5 -1.35 -10.45 -1.4 Q-2.9 -12.35 8.45 -13.45 L8.75 -13.5" fill="#993300" fill-rule="evenodd" stroke="none"/>
    </g>
    <g id="shape23" transform="matrix(1.0, 0.0, 0.0, 1.0, 0.9, 0.9)">
      <path d="M18.55 26.7 Q17.7 12.8 22.1 1.6 L22.15 1.5 20.9 0.65 20.85 0.6 20.0 0.0 M19.8 0.25 L19.5 0.3 Q8.15 1.4 0.6 12.35 L0.55 12.4 0.5 12.45 0.0 13.2 0.05 13.35 2.45 18.6 Q6.3 25.55 17.8 27.25 M0.9 12.6 L3.65 14.3 Q8.35 17.4 12.55 21.2 14.6 10.75 20.15 1.75 L20.65 0.95 M3.8 14.0 Q9.3 3.85 19.75 1.5 M12.55 21.2 Q15.4 23.8 17.95 26.7" fill="none" stroke="#000000" stroke-linecap="round" stroke-linejoin="round" stroke-width="1.8"/>
    </g>
    <g id="sprite24" transform="matrix(1.0, 0.0, 0.0, 1.0, -0.8, 0.0)">
      <use ffdec:characterId="371" height="70.4" id="mc300" transform="matrix(1.0, 0.0, 0.0, 1.0, 1.7, 0.9)" width="87.5" xlink:href="#sprite25"/>
      <use ffdec:characterId="373" height="25.55" id="mc200" transform="matrix(1.0, 0.0, 0.0, 1.0, 20.05, 27.95)" width="50.7" xlink:href="#sprite26"/>
      <use ffdec:characterId="375" height="21.75" id="mc100" transform="matrix(1.0, 0.0, 0.0, 1.0, 24.4, 32.65)" width="23.2" xlink:href="#sprite27"/>
      <use ffdec:characterId="376" height="72.2" transform="matrix(1.0, 0.0, 0.0, 1.0, 0.8, 0.0)" width="89.3" xlink:href="#shape27"/>
    </g>
    <g id="sprite25" transform="matrix(1.0, 0.0, 0.0, 1.0, 43.75, 35.2)">
      <use ffdec:characterId="370" height="70.4" transform="matrix(1.0, 0.0, 0.0, 1.0, -43.75, -35.2)" width="87.5" xlink:href="#shape24"/>
    </g>
    <g id="shape24" transform="matrix(1.0, 0.0, 0.0, 1.0, 43.75, 35.2)">
      <path d="M21.9 -10.2 L23.5 -6.25 Q16.95 -1.0 9.5 1.0 5.85 1.95 1.9 2.15 -0.85 -4.65 -8.1 -0.05 L-8.2 0.55 Q-11.9 -0.15 -14.95 -1.75 L-15.0 -1.8 Q-16.4 -2.55 -17.7 -3.45 -20.4 -5.4 -22.55 -8.15 -18.9 -18.65 -11.05 -27.3 L-10.5 -27.8 Q-6.4 -34.45 2.65 -35.2 L2.95 -35.05 Q6.7 -34.2 10.05 -32.55 13.2 -31.1 15.95 -28.7 18.6 -26.45 20.15 -23.5 22.05 -20.05 23.05 -16.35 L23.5 -13.75 Q23.65 -11.5 21.9 -10.2 M39.65 8.55 Q46.8 16.2 41.55 20.7 34.7 27.75 22.4 31.55 L22.0 31.75 Q-2.3 40.05 -28.15 28.35 -37.3 24.85 -41.7 18.25 L-42.25 17.65 Q-46.1 13.2 -40.0 5.7 L-39.75 5.4 Q-32.55 -0.35 -24.35 -1.8 L-24.95 1.5 -25.4 5.0 -25.25 5.2 Q-24.9 9.65 -21.3 11.1 L-21.25 11.1 -21.05 11.15 -20.65 11.4 Q-19.7 12.55 -17.6 13.2 L-17.55 12.95 Q-12.65 16.4 -6.25 16.85 L-6.55 17.8 -6.4 17.85 Q-2.75 18.9 0.2 17.4 L0.2 17.45 0.35 17.4 10.6 16.2 10.85 15.75 10.8 15.2 Q21.25 11.9 25.15 4.5 L25.3 4.15 24.95 0.0 Q34.5 2.0 39.3 8.3 L39.65 8.55" fill="#1a0000" fill-rule="evenodd" stroke="none"/>
      <path d="M-10.0 9.75 Q-10.6 10.35 -11.45 10.35 -12.3 10.35 -12.9 9.75 -13.5 9.15 -13.5 8.3 -13.5 7.45 -12.9 6.85 -12.3 6.25 -11.45 6.25 -10.6 6.25 -10.0 6.85 -9.4 7.45 -9.4 8.3 -9.4 9.15 -10.0 9.75 M-24.45 0.65 Q-24.05 0.3 -23.55 0.3 -23.0 0.3 -22.65 0.65 -22.3 1.05 -22.3 1.55 -22.3 2.05 -22.65 2.45 L-23.55 2.8 Q-24.05 2.8 -24.45 2.45 L-24.8 1.55 Q-24.8 1.05 -24.45 0.65" fill="#000000" fill-rule="evenodd" stroke="none"/>
    </g>
    <g id="sprite26" transform="matrix(1.0, 0.0, 0.0, 1.0, 25.35, 12.75)">
      <use ffdec:characterId="372" height="25.55" transform="matrix(1.0, 0.0, 0.0, 1.0, -25.35, -12.75)" width="50.7" xlink:href="#shape25"/>
    </g>
    <g id="shape25" transform="matrix(1.0, 0.0, 0.0, 1.0, 25.35, 12.75)">
      <path d="M25.0 -4.6 L25.35 -0.45 25.2 -0.1 Q21.3 7.3 10.85 10.6 L10.65 11.6 0.4 12.8 0.25 12.75 Q2.9 5.15 1.95 -2.45 5.9 -2.65 9.55 -3.6 17.0 -5.6 23.55 -10.85 24.55 -7.8 25.0 -4.6 M-9.95 5.15 Q-9.35 4.55 -9.35 3.7 -9.35 2.85 -9.95 2.25 -10.55 1.65 -11.4 1.65 -12.25 1.65 -12.85 2.25 -13.45 2.85 -13.45 3.7 -13.45 4.55 -12.85 5.15 -12.25 5.75 -11.4 5.75 -10.55 5.75 -9.95 5.15 M-8.15 -4.05 L-4.5 -3.3 Q-3.75 4.5 -6.2 12.25 -12.6 11.8 -17.5 8.35 -17.55 -0.5 -14.95 -6.4 L-14.9 -6.35 Q-11.85 -4.75 -8.15 -4.05 M-24.9 -3.1 L-24.3 -6.4 Q-23.6 -9.65 -22.5 -12.75 -20.35 -10.0 -17.65 -8.05 -20.85 -1.9 -21.0 6.05 L-21.25 6.5 Q-24.85 5.05 -25.2 0.6 L-25.35 0.4 -24.9 -3.1 M-22.6 -2.15 Q-22.25 -2.55 -22.25 -3.05 -22.25 -3.55 -22.6 -3.95 -22.95 -4.3 -23.5 -4.3 L-24.4 -3.95 -24.75 -3.05 -24.4 -2.15 Q-24.0 -1.8 -23.5 -1.8 -22.95 -1.8 -22.6 -2.15" fill="#ff0000" fill-rule="evenodd" stroke="none"/>
    </g>
    <g id="sprite27" transform="matrix(1.0, 0.0, 0.0, 1.0, 11.6, 10.85)">
      <use ffdec:characterId="374" height="21.75" transform="matrix(1.0, 0.0, 0.0, 1.0, -11.6, -10.85)" width="23.2" xlink:href="#shape26"/>
    </g>
    <g id="shape26" transform="matrix(1.0, 0.0, 0.0, 1.0, 11.6, 10.85)">
      <path d="M4.9 -6.1 L1.25 -6.85 1.35 -7.45 Q8.6 -12.05 11.35 -5.25 12.3 2.35 9.65 9.95 L9.65 10.0 Q6.7 11.5 3.05 10.45 L3.2 9.45 Q5.65 1.7 4.9 -6.1 M-5.55 -9.2 Q-8.15 -3.3 -8.1 5.55 L-8.15 5.8 Q-10.25 5.15 -11.2 4.0 L-11.6 3.4 -11.6 3.25 Q-11.45 -4.7 -8.25 -10.85 -6.95 -9.95 -5.55 -9.2" fill="#333333" fill-rule="evenodd" stroke="none"/>
    </g>
    <g id="shape27" transform="matrix(1.0, 0.0, 0.0, 1.0, -0.8, 0.0)">
      <path d="M85.1 44.65 Q92.25 52.3 87.0 56.8 80.15 63.85 67.85 67.65 L67.45 67.85 Q43.15 76.15 17.3 64.45 8.15 60.95 3.75 54.35 L3.2 53.75 Q-0.65 49.3 5.45 41.8 L5.7 41.5 Q12.9 35.75 21.1 34.3 21.8 31.05 22.9 27.95 26.55 17.45 34.4 8.8 L34.75 8.4 34.95 8.3 Q39.05 1.65 48.1 0.9 L48.4 1.05 Q52.15 1.9 55.5 3.55 58.65 5.0 61.4 7.4 64.05 9.65 65.6 12.6 67.5 16.05 68.5 19.75 L68.95 22.35 Q69.1 24.6 67.35 25.9 L68.95 29.85 Q69.95 32.9 70.4 36.1 79.95 38.1 84.75 44.4 L85.1 44.65 M37.35 36.05 Q44.6 31.45 47.35 38.25 51.3 38.05 54.95 37.1 62.4 35.1 68.95 29.85 M67.35 25.9 Q65.8 27.1 62.65 27.5 L62.35 27.4 Q52.95 29.0 44.25 22.65 M54.95 37.1 Q59.85 42.6 56.25 51.3 66.7 48.0 70.6 40.6 L70.75 40.25 70.4 36.1 M21.1 34.3 L20.5 37.6 Q20.2 39.3 20.05 41.1 L20.2 41.3 Q20.55 45.75 24.15 47.2 L24.2 47.2 24.4 47.25 24.4 46.9 24.4 46.75 Q24.55 38.8 27.75 32.65 25.05 30.7 22.9 27.95 M30.45 34.3 Q27.85 40.2 27.9 49.05 32.8 52.5 39.2 52.95 41.65 45.2 40.9 37.4 L37.25 36.65 Q33.55 35.95 30.5 34.35 L30.45 34.3 27.75 32.65 M21.9 36.4 Q22.45 36.4 22.8 36.75 23.15 37.15 23.15 37.65 L22.8 38.55 Q22.45 38.9 21.9 38.9 21.4 38.9 21.0 38.55 20.65 38.15 20.65 37.65 20.65 37.15 21.0 36.75 21.4 36.4 21.9 36.4 M24.4 47.25 L24.8 47.5 24.4 46.9 M24.8 47.5 Q25.75 48.65 27.85 49.3 L27.9 49.05 M31.95 44.4 Q31.95 43.55 32.55 42.95 33.15 42.35 34.0 42.35 34.85 42.35 35.45 42.95 36.05 43.55 36.05 44.4 36.05 45.25 35.45 45.85 34.85 46.45 34.0 46.45 33.15 46.45 32.55 45.85 31.95 45.25 31.95 44.4 M39.2 52.95 L38.9 53.9 39.05 53.95 Q42.7 55.0 45.65 53.5 L45.65 53.45 Q48.3 45.85 47.35 38.25 M56.05 52.3 L45.8 53.5 45.65 53.55 45.65 53.5 45.8 53.5 M56.15 51.85 L56.25 51.3" fill="none" stroke="#000000" stroke-linecap="round" stroke-linejoin="round" stroke-width="1.8"/>
    </g>
    <g id="shape28" transform="matrix(1.0, 0.0, 0.0, 1.0, 0.0, -0.4)">
      <path d="M6.65 10.4 L5.15 10.45 4.6 8.95 1.8 8.8 Q0.05 7.75 1.25 6.95 L3.8 5.9 2.9 3.05 Q3.95 0.0 5.85 1.8 L7.45 3.55 10.2 2.3 Q12.4 1.9 11.7 4.3 L10.15 6.15 11.15 7.65 Q11.1 8.7 9.7 9.1 L9.35 9.1 8.0 9.1 6.95 10.25 6.65 10.4" fill="#ffcc00" fill-rule="evenodd" stroke="none"/>
      <path d="M9.35 9.1 L12.55 16.45 Q13.0 17.7 12.1 18.45 10.65 19.3 9.5 16.85 L6.65 10.4 6.95 10.25 8.0 9.1 9.35 9.1" fill="#9f8000" fill-rule="evenodd" stroke="none"/>
      <path d="M6.65 10.4 L5.15 10.45 4.6 8.95 1.8 8.8 Q0.05 7.75 1.25 6.95 L3.8 5.9 2.9 3.05 Q3.95 0.0 5.85 1.8 L7.45 3.55 10.2 2.3 Q12.4 1.9 11.7 4.3 L10.15 6.15 11.15 7.65 Q11.1 8.7 9.7 9.1 L9.35 9.1 12.55 16.45 Q13.0 17.7 12.1 18.45 10.65 19.3 9.5 16.85 L6.65 10.4 6.95 10.25 8.0 9.1 9.35 9.1" fill="none" stroke="#000000" stroke-linecap="round" stroke-linejoin="round" stroke-width="1.5"/>
    </g>
    <g id="shape29" transform="matrix(1.0, 0.0, 0.0, 1.0, 18.0, 36.15)">
      <path d="M11.9 -32.55 L8.65 -30.65 8.8 -30.3 M-2.75 -31.6 Q6.1 -36.7 8.65 -30.65" fill="none" stroke="#000000" stroke-linecap="round" stroke-linejoin="round" stroke-width="2.0"/>
      <path d="M-10.45 -31.1 Q-11.8 -34.15 -13.4 -34.9 -14.5 -35.4 -15.65 -34.9 L-16.8 -34.25 -17.0 -34.05" fill="none" stroke="#000000" stroke-linecap="round" stroke-linejoin="round" stroke-width="2.0"/>
    </g>
  </defs>
</svg>
