<?xml version="1.0" encoding="UTF-8" standalone="no"?>
<svg xmlns:ffdec="https://www.free-decompiler.com/flash" xmlns:xlink="http://www.w3.org/1999/xlink" ffdec:objectType="frame" height="52.7px" width="80.55px" xmlns="http://www.w3.org/2000/svg">
  <g transform="matrix(1.0, 0.0, 0.0, 1.0, 0.0, 0.0)">
    <use ffdec:characterId="279" height="52.7" transform="matrix(1.0, 0.0, 0.0, 1.0, 0.0, 0.0)" width="80.55" xlink:href="#shape0"/>
  </g>
  <defs>
    <g id="shape0" transform="matrix(1.0, 0.0, 0.0, 1.0, 0.0, 0.0)">
      <path d="M68.6 39.9 L68.65 40.0 Q70.6 45.55 74.45 50.15 67.15 48.6 60.9 44.2 L61.95 52.0 Q57.5 48.8 54.6 43.35 L40.85 52.05 40.7 51.8 44.1 41.05 Q32.55 65.4 0.0 38.75 7.25 39.3 13.9 37.4 L4.5 19.3 Q8.1 22.5 11.7 21.5 L11.95 21.4 12.15 21.25 Q21.35 -0.15 41.4 0.0 L42.4 0.1 Q62.9 3.15 70.9 26.25 75.7 28.9 80.55 27.8 76.7 34.25 68.6 39.85 L68.6 39.9" fill="#ff6600" fill-rule="evenodd" stroke="none"/>
    </g>
  </defs>
</svg>
