<?xml version="1.0" encoding="UTF-8" standalone="no"?>
<svg xmlns:ffdec="https://www.free-decompiler.com/flash" xmlns:xlink="http://www.w3.org/1999/xlink" ffdec:objectType="frame" height="12.4px" width="28.3px" xmlns="http://www.w3.org/2000/svg">
  <g transform="matrix(1.0, 0.0, 0.0, 1.0, 0.0, 0.0)">
    <use ffdec:characterId="275" height="12.4" transform="matrix(1.0, 0.0, 0.0, 1.0, 0.0, 0.0)" width="28.3" xlink:href="#shape0"/>
  </g>
  <defs>
    <g id="shape0" transform="matrix(1.0, 0.0, 0.0, 1.0, 0.0, 0.0)">
      <path d="M27.5 9.35 Q27.1 11.95 24.4 12.4 L17.3 12.1 17.0 11.65 17.55 0.7 27.95 1.3 28.3 1.55 27.5 9.35 M25.6 8.5 L26.1 3.2 19.6 2.65 19.1 10.45 23.95 10.55 Q25.1 10.3 25.6 8.5 M11.0 9.4 Q10.65 10.8 9.6 11.6 8.8 12.1 7.75 12.25 L0.3 11.95 0.0 11.5 0.6 0.0 11.0 0.6 11.0 9.4 M9.05 8.15 L9.55 2.6 2.75 2.05 2.2 10.2 7.3 10.3 Q8.5 10.05 9.05 8.15" fill="#999999" fill-rule="evenodd" stroke="none"/>
      <path d="M14.3 4.85 L14.0 8.85 13.55 8.8 11.15 8.8 11.55 4.8 13.9 4.8 14.3 4.85" fill="#666666" fill-rule="evenodd" stroke="none"/>
    </g>
  </defs>
</svg>
