<?xml version="1.0" encoding="UTF-8" standalone="no"?>
<svg xmlns:ffdec="https://www.free-decompiler.com/flash" xmlns:xlink="http://www.w3.org/1999/xlink" ffdec:objectType="frame" height="12.7px" width="42.95px" xmlns="http://www.w3.org/2000/svg">
  <g transform="matrix(1.0, 0.0, 0.0, 1.0, 0.0, 0.0)">
    <use ffdec:characterId="115" height="17.4" transform="matrix(0.859, 0.0, 0.0, 0.7299, 0.0, 0.0)" width="50.0" xlink:href="#shape0"/>
  </g>
  <defs>
    <g id="shape0" transform="matrix(1.0, 0.0, 0.0, 1.0, 0.0, 0.0)">
      <path d="M49.35 10.4 Q48.65 13.65 46.9 16.05 44.1 18.25 36.7 15.45 29.3 12.7 28.1 9.95 27.65 8.85 27.35 7.75 27.0 6.4 27.0 5.0 26.95 4.1 27.05 3.15 27.1 2.35 27.3 1.5 28.4 -0.3 30.1 0.05 29.6 0.95 29.45 2.15 L29.3 2.85 Q28.0 9.85 34.85 12.0 L41.75 14.65 Q45.95 15.7 46.95 10.9 48.0 6.05 48.2 1.35 L48.1 0.65 Q49.9 0.25 50.0 3.75 50.15 7.3 49.35 10.4 M22.95 3.15 L23.05 5.0 22.75 7.75 21.9 10.3 Q20.7 13.05 13.3 15.85 5.9 18.6 3.1 16.4 1.4 14.0 0.65 10.75 -0.15 7.65 0.0 4.15 0.1 0.6 1.9 1.05 L1.8 1.7 Q2.0 6.45 3.05 11.25 4.05 16.05 8.25 15.0 L15.15 12.35 Q22.0 10.2 20.7 3.25 L20.55 2.5 Q20.4 1.3 19.9 0.4 21.6 0.1 22.7 1.85 L22.95 3.15" fill="#333333" fill-rule="evenodd" stroke="none"/>
    </g>
  </defs>
</svg>
