<?xml version="1.0" encoding="UTF-8" standalone="no"?>
<svg xmlns:ffdec="https://www.free-decompiler.com/flash" xmlns:xlink="http://www.w3.org/1999/xlink" ffdec:objectType="frame" height="98.7px" width="75.6px" xmlns="http://www.w3.org/2000/svg">
  <g transform="matrix(1.0, 0.0, 0.0, 1.0, 39.25, 96.15)">
    <use ffdec:characterId="132" height="24.15" id="mc1000" transform="matrix(1.0, 0.0, 0.0, 1.0, -22.6, -32.2)" width="11.2" xlink:href="#sprite0"/>
    <use ffdec:characterId="133" height="24.15" id="mc900" transform="matrix(1.0, 0.0, 0.0, 1.0, 8.6, -32.2)" width="11.2" xlink:href="#sprite1"/>
    <use ffdec:characterId="135" height="25.9" id="mc800" transform="matrix(1.0, 0.0, 0.0, 1.0, -15.85, -38.1)" width="29.3" xlink:href="#sprite2"/>
    <use ffdec:characterId="137" height="16.2" id="mc700" transform="matrix(1.0, 0.0, 0.0, 1.0, -14.05, -13.65)" width="11.1" xlink:href="#sprite3"/>
    <use ffdec:characterId="139" height="16.2" id="mc600" transform="matrix(1.0, 0.0, 0.0, 1.0, 1.05, -13.65)" width="11.1" xlink:href="#sprite4"/>
    <use ffdec:characterId="141" height="11.8" id="mc500" transform="matrix(1.0, 0.0, 0.0, 1.0, -15.3, -14.9)" width="15.25" xlink:href="#sprite5"/>
    <use ffdec:characterId="143" height="11.8" id="mc400" transform="matrix(1.0, 0.0, 0.0, 1.0, -1.65, -14.9)" width="15.25" xlink:href="#sprite7"/>
    <use ffdec:characterId="226" height="28.25" id="hide_hat" transform="matrix(1.0, 0.0, 0.0, 1.0, -30.9, -96.15)" width="15.85" xlink:href="#sprite9"/>
    <use ffdec:characterId="228" height="28.0" id="hide_hat1" transform="matrix(1.0, 0.0, 0.0, 1.0, 11.25, -96.15)" width="16.75" xlink:href="#sprite10"/>
    <use ffdec:characterId="231" height="61.75" id="mc100" transform="matrix(1.0, 0.0, 0.0, 1.0, -39.25, -91.45)" width="75.6" xlink:href="#sprite11"/>
    <use ffdec:characterId="471" height="0.0" id="hat" transform="matrix(1.0, 0.0, 0.0, 1.0, 0.0, 0.0)" width="0.0" xlink:href="#sprite13"/>
  </g>
  <defs>
    <g id="sprite0" transform="matrix(1.0, 0.0, 0.0, 1.0, 0.75, 0.75)">
      <use ffdec:characterId="1" height="24.15" transform="matrix(1.0, 0.0, 0.0, 1.0, -0.75, -0.75)" width="11.2" xlink:href="#shape0"/>
    </g>
    <g id="shape0" transform="matrix(1.0, 0.0, 0.0, 1.0, 0.75, 0.75)">
      <path d="M0.6 18.55 L0.2 16.75 Q0.1 13.1 2.0 9.45 0.5 9.85 0.0 8.05 1.5 8.55 2.65 6.45 3.85 -0.15 6.7 0.1 10.6 -0.75 9.45 6.9 8.3 13.45 9.65 16.9 L8.3 15.5 Q7.9 19.25 6.05 20.35 L4.55 20.75 4.45 20.75 2.7 20.55 Q1.2 20.1 0.6 18.55" fill="#999999" fill-rule="evenodd" stroke="none"/>
      <path d="M6.05 20.35 L6.05 22.55 4.4 21.1 3.3 22.9 2.7 20.55 0.6 21.7 0.6 18.55 Q1.2 20.1 2.7 20.55 L4.45 20.75 4.55 20.75 6.05 20.35 M4.4 21.1 L4.55 20.75 4.4 21.1" fill="#ffffff" fill-rule="evenodd" stroke="none"/>
      <path d="M0.6 18.55 L0.2 16.75 Q0.1 13.1 2.0 9.45 0.5 9.85 0.0 8.05 1.5 8.55 2.65 6.45 3.85 -0.15 6.7 0.1 10.6 -0.75 9.45 6.9 8.3 13.45 9.65 16.9 L8.3 15.5 Q7.9 19.25 6.05 20.35 L4.55 20.75 4.4 21.1 M0.6 18.55 Q1.2 20.1 2.7 20.55 L4.45 20.75 4.55 20.75" fill="none" stroke="#000000" stroke-linecap="round" stroke-linejoin="round" stroke-width="1.5"/>
      <path d="M6.05 20.35 L6.05 22.55 4.4 21.1 3.3 22.9 2.7 20.55 0.6 21.7 0.6 18.55" fill="none" stroke="#000000" stroke-linecap="round" stroke-linejoin="round" stroke-width="1.0"/>
    </g>
    <g id="sprite1" transform="matrix(1.0, 0.0, 0.0, 1.0, 0.75, 0.75)">
      <use ffdec:characterId="3" height="24.15" transform="matrix(1.0, 0.0, 0.0, 1.0, -0.75, -0.75)" width="11.2" xlink:href="#shape1"/>
    </g>
    <g id="shape1" transform="matrix(1.0, 0.0, 0.0, 1.0, 0.75, 0.75)">
      <path d="M3.65 20.35 Q1.8 19.25 1.4 15.5 L0.05 16.9 Q1.4 13.45 0.25 6.9 -0.9 -0.75 3.0 0.1 5.85 -0.15 7.05 6.45 8.2 8.55 9.7 8.05 9.2 9.85 7.7 9.45 9.6 13.1 9.5 16.75 L9.1 18.55 Q8.5 20.1 7.0 20.55 L5.25 20.75 5.15 20.75 3.65 20.35" fill="#999999" fill-rule="evenodd" stroke="none"/>
      <path d="M3.65 20.35 L5.15 20.75 5.25 20.75 7.0 20.55 Q8.5 20.1 9.1 18.55 L9.1 21.7 7.0 20.55 6.4 22.9 5.3 21.1 3.65 22.55 3.65 20.35 M5.15 20.75 L5.3 21.1 5.15 20.75" fill="#ffffff" fill-rule="evenodd" stroke="none"/>
      <path d="M9.1 18.55 L9.5 16.75 Q9.6 13.1 7.7 9.45 9.2 9.85 9.7 8.05 8.2 8.55 7.05 6.45 5.85 -0.15 3.0 0.1 -0.9 -0.75 0.25 6.9 1.4 13.45 0.05 16.9 L1.4 15.5 Q1.8 19.25 3.65 20.35 L5.15 20.75 5.25 20.75 7.0 20.55 Q8.5 20.1 9.1 18.55 M5.3 21.1 L5.15 20.75" fill="none" stroke="#000000" stroke-linecap="round" stroke-linejoin="round" stroke-width="1.5"/>
      <path d="M9.1 18.55 L9.1 21.7 7.0 20.55 6.4 22.9 5.3 21.1 3.65 22.55 3.65 20.35" fill="none" stroke="#000000" stroke-linecap="round" stroke-linejoin="round" stroke-width="1.0"/>
    </g>
    <g id="sprite2" transform="matrix(1.0, 0.0, 0.0, 1.0, 0.75, 0.75)">
      <use ffdec:characterId="134" height="25.9" transform="matrix(1.0, 0.0, 0.0, 1.0, -0.75, -0.75)" width="29.3" xlink:href="#shape2"/>
    </g>
    <g id="shape2" transform="matrix(1.0, 0.0, 0.0, 1.0, 0.75, 0.75)">
      <path d="M21.7 1.1 L21.45 6.75 19.8 5.4 Q18.85 9.3 21.15 14.1 20.05 14.7 18.85 13.25 19.15 16.3 20.4 19.4 L18.65 17.85 16.2 24.4 11.75 24.4 10.65 21.85 9.15 22.4 Q10.65 20.55 9.45 18.3 8.4 16.0 8.55 13.95 L8.75 12.65 8.55 13.95 Q6.25 12.35 6.7 7.1 L5.5 7.8 Q6.25 4.4 5.5 1.0 13.45 -0.85 20.5 0.8 L21.7 1.1 M15.45 9.95 L14.4 11.9 13.3 10.35 12.15 11.95 Q11.0 11.3 10.8 8.7 11.0 11.3 12.15 11.95 L13.3 10.35 14.4 11.9 15.45 9.95 M7.5 5.7 Q7.4 6.5 6.7 7.1 7.4 6.5 7.5 5.7 M11.5 21.15 L10.65 21.85 11.5 21.15" fill="#dfdfdf" fill-rule="evenodd" stroke="none"/>
      <path d="M16.2 24.4 L18.65 17.85 20.4 19.4 Q19.15 16.3 18.85 13.25 20.05 14.7 21.15 14.1 18.85 9.3 19.8 5.4 L21.45 6.75 21.7 1.1 Q28.15 2.9 26.45 6.15 24.8 8.45 24.85 11.4 25.2 14.8 27.8 18.35 L25.75 17.6 26.9 24.4 16.2 24.4 M5.5 1.0 Q6.25 4.4 5.5 7.8 L6.7 7.1 Q6.25 12.35 8.55 13.95 8.4 16.0 9.45 18.3 10.65 20.55 9.15 22.4 L10.65 21.85 11.75 24.4 0.55 24.4 2.9 11.75 Q1.65 12.65 0.6 11.95 2.25 9.9 0.6 6.25 -1.45 2.9 3.8 1.4 L5.5 1.0 M4.55 9.85 L2.9 11.75 4.55 9.85" fill="#999999" fill-rule="evenodd" stroke="none"/>
      <path d="M16.2 24.4 L26.9 24.4 25.75 17.6 27.8 18.35 Q25.2 14.8 24.85 11.4 24.8 8.45 26.45 6.15 28.15 2.9 21.7 1.1 L20.5 0.8 Q13.45 -0.85 5.5 1.0 L3.8 1.4 Q-1.45 2.9 0.6 6.25 2.25 9.9 0.6 11.95 1.65 12.65 2.9 11.75 L4.55 9.85 M11.75 24.4 L0.55 24.4 2.9 11.75 M11.75 24.4 L16.2 24.4" fill="none" stroke="#000000" stroke-linecap="round" stroke-linejoin="round" stroke-width="1.5"/>
      <path d="M21.7 1.1 L21.45 6.75 19.8 5.4 Q18.85 9.3 21.15 14.1 20.05 14.7 18.85 13.25 19.15 16.3 20.4 19.4 L18.65 17.85 16.2 24.4 M5.5 1.0 Q6.25 4.4 5.5 7.8 L6.7 7.1 Q7.4 6.5 7.5 5.7 M10.8 8.7 Q11.0 11.3 12.15 11.95 L13.3 10.35 14.4 11.9 15.45 9.95 M8.55 13.95 Q8.4 16.0 9.45 18.3 10.65 20.55 9.15 22.4 L10.65 21.85 11.5 21.15 M8.55 13.95 L8.75 12.65 M10.65 21.85 L11.75 24.4 M6.7 7.1 Q6.25 12.35 8.55 13.95" fill="none" stroke="#000000" stroke-linecap="round" stroke-linejoin="round" stroke-width="1.0"/>
    </g>
    <g id="sprite3" transform="matrix(1.0, 0.0, 0.0, 1.0, 0.75, 0.75)">
      <use ffdec:characterId="136" height="16.2" transform="matrix(1.0, 0.0, 0.0, 1.0, -0.75, -0.75)" width="11.1" xlink:href="#shape3"/>
    </g>
    <g id="shape3" transform="matrix(1.0, 0.0, 0.0, 1.0, 0.75, 0.75)">
      <path d="M1.45 14.0 L0.95 13.45 Q-0.15 12.1 0.05 8.15 L0.85 0.75 Q3.8 -0.8 7.85 0.85 L8.45 7.8 Q8.6 10.2 9.6 10.7 L8.7 10.7 Q9.05 12.6 8.3 13.65 L8.15 13.4 7.55 13.15 Q7.2 13.15 6.95 13.4 6.7 13.65 6.7 14.0 L6.95 14.6 7.0 14.65 6.45 14.8 2.75 14.7 2.9 14.6 3.15 14.0 2.9 13.4 Q2.65 13.15 2.3 13.15 1.95 13.15 1.7 13.4 1.45 13.65 1.45 14.0 M5.5 13.4 L4.9 13.15 Q4.55 13.15 4.3 13.4 L4.05 14.0 4.3 14.6 4.9 14.85 5.5 14.6 5.75 14.0 5.5 13.4" fill="#999999" fill-rule="evenodd" stroke="none"/>
      <path d="M8.3 13.65 L8.4 14.0 8.15 14.6 7.55 14.85 7.0 14.65 6.95 14.6 6.7 14.0 Q6.7 13.65 6.95 13.4 7.2 13.15 7.55 13.15 L8.15 13.4 8.3 13.65 M2.75 14.7 L2.3 14.85 1.7 14.6 Q1.45 14.35 1.45 14.0 1.45 13.65 1.7 13.4 1.95 13.15 2.3 13.15 2.65 13.15 2.9 13.4 L3.15 14.0 2.9 14.6 2.75 14.7 M5.5 13.4 L5.75 14.0 5.5 14.6 4.9 14.85 4.3 14.6 4.05 14.0 4.3 13.4 Q4.55 13.15 4.9 13.15 L5.5 13.4" fill="#ffffff" fill-rule="evenodd" stroke="none"/>
      <path d="M1.45 14.0 L0.95 13.45 Q-0.15 12.1 0.05 8.15 L0.85 0.75 Q3.8 -0.8 7.85 0.85 L8.45 7.8 Q8.6 10.2 9.6 10.7 L8.7 10.7 Q9.05 12.6 8.3 13.65" fill="none" stroke="#000000" stroke-linecap="round" stroke-linejoin="round" stroke-width="1.5"/>
      <path d="M8.3 13.65 L8.4 14.0 8.15 14.6 7.55 14.85 7.0 14.65 6.45 14.8 2.75 14.7 2.3 14.85 1.7 14.6 Q1.45 14.35 1.45 14.0 1.45 13.65 1.7 13.4 1.95 13.15 2.3 13.15 2.65 13.15 2.9 13.4 L3.15 14.0 2.9 14.6 2.75 14.7 M8.3 13.65 L8.15 13.4 7.55 13.15 Q7.2 13.15 6.95 13.4 6.7 13.65 6.7 14.0 L6.95 14.6 7.0 14.65 M5.5 13.4 L4.9 13.15 Q4.55 13.15 4.3 13.4 L4.05 14.0 4.3 14.6 4.9 14.85 5.5 14.6 5.75 14.0 5.5 13.4 Z" fill="none" stroke="#000000" stroke-linecap="round" stroke-linejoin="round" stroke-width="1.0"/>
    </g>
    <g id="sprite4" transform="matrix(1.0, 0.0, 0.0, 1.0, 0.75, 0.75)">
      <use ffdec:characterId="138" height="16.2" transform="matrix(1.0, 0.0, 0.0, 1.0, -0.75, -0.75)" width="11.1" xlink:href="#shape4"/>
    </g>
    <g id="shape4" transform="matrix(1.0, 0.0, 0.0, 1.0, 0.75, 0.75)">
      <path d="M1.3 13.65 Q0.55 12.6 0.9 10.7 L0.0 10.7 Q1.0 10.2 1.15 7.8 L1.75 0.85 Q5.8 -0.8 8.75 0.75 L9.55 8.15 Q9.75 12.1 8.65 13.45 L8.15 14.0 7.9 13.4 7.3 13.15 Q6.95 13.15 6.7 13.4 6.45 13.65 6.45 14.0 L6.7 14.6 6.85 14.7 3.15 14.8 2.6 14.65 2.65 14.6 2.9 14.0 2.65 13.4 2.05 13.15 Q1.7 13.15 1.45 13.4 L1.3 13.65 M5.3 14.6 L5.55 14.0 5.3 13.4 Q5.05 13.15 4.7 13.15 4.35 13.15 4.1 13.4 3.85 13.65 3.85 14.0 3.85 14.35 4.1 14.6 L4.7 14.85 5.3 14.6" fill="#999999" fill-rule="evenodd" stroke="none"/>
      <path d="M1.3 13.65 L1.45 13.4 Q1.7 13.15 2.05 13.15 L2.65 13.4 2.9 14.0 2.65 14.6 2.6 14.65 2.05 14.85 1.45 14.6 1.2 14.0 1.3 13.65 M6.85 14.7 L6.7 14.6 6.45 14.0 Q6.45 13.65 6.7 13.4 6.95 13.15 7.3 13.15 L7.9 13.4 8.15 14.0 7.9 14.6 7.3 14.85 6.85 14.7 M5.3 14.6 L4.7 14.85 4.1 14.6 Q3.85 14.35 3.85 14.0 3.85 13.65 4.1 13.4 4.35 13.15 4.7 13.15 5.05 13.15 5.3 13.4 L5.55 14.0 5.3 14.6" fill="#ffffff" fill-rule="evenodd" stroke="none"/>
      <path d="M8.15 14.0 L8.65 13.45 Q9.75 12.1 9.55 8.15 L8.75 0.75 Q5.8 -0.8 1.75 0.85 L1.15 7.8 Q1.0 10.2 0.0 10.7 L0.9 10.7 Q0.55 12.6 1.3 13.65" fill="none" stroke="#000000" stroke-linecap="round" stroke-linejoin="round" stroke-width="1.5"/>
      <path d="M1.3 13.65 L1.45 13.4 Q1.7 13.15 2.05 13.15 L2.65 13.4 2.9 14.0 2.65 14.6 2.6 14.65 3.15 14.8 6.85 14.7 6.7 14.6 6.45 14.0 Q6.45 13.65 6.7 13.4 6.95 13.15 7.3 13.15 L7.9 13.4 8.15 14.0 7.9 14.6 7.3 14.85 6.85 14.7 M5.3 14.6 L4.7 14.85 4.1 14.6 Q3.85 14.35 3.85 14.0 3.85 13.65 4.1 13.4 4.35 13.15 4.7 13.15 5.05 13.15 5.3 13.4 L5.55 14.0 5.3 14.6 M1.3 13.65 L1.2 14.0 1.45 14.6 2.05 14.85 2.6 14.65" fill="none" stroke="#000000" stroke-linecap="round" stroke-linejoin="round" stroke-width="1.0"/>
    </g>
    <g id="sprite5" transform="matrix(1.0, 0.0, 0.0, 1.0, 0.75, 0.75)">
      <use ffdec:characterId="140" height="10.3" id="mc100" transform="matrix(1.0, 0.0, 0.0, 1.0, 0.0, 0.0)" width="13.75" xlink:href="#sprite6"/>
      <use ffdec:characterId="13" height="11.8" transform="matrix(1.0, 0.0, 0.0, 1.0, -0.75, -0.75)" width="15.25" xlink:href="#shape6"/>
    </g>
    <g id="sprite6" transform="matrix(1.0, 0.0, 0.0, 1.0, 0.0, 0.0)">
      <use ffdec:characterId="11" height="10.3" transform="matrix(1.0, 0.0, 0.0, 1.0, 0.0, 0.0)" width="13.75" xlink:href="#shape5"/>
    </g>
    <g id="shape5" transform="matrix(1.0, 0.0, 0.0, 1.0, 0.0, 0.0)">
      <path d="M0.6 0.15 L13.75 0.0 13.75 7.9 10.3 7.9 10.3 10.3 0.15 9.8 Q-0.3 4.75 0.6 0.15" fill="#5c1313" fill-rule="evenodd" stroke="none"/>
    </g>
    <g id="shape6" transform="matrix(1.0, 0.0, 0.0, 1.0, 0.75, 0.75)">
      <path d="M13.75 0.0 L0.6 0.15 Q-0.3 4.75 0.15 9.8 L10.3 10.3 10.3 7.9 13.75 7.9" fill="none" stroke="#000000" stroke-linecap="round" stroke-linejoin="round" stroke-width="1.5"/>
      <path d="M13.75 7.9 L13.75 0.0" fill="none" stroke="#000000" stroke-linecap="round" stroke-linejoin="round" stroke-width="1.0"/>
    </g>
    <g id="sprite7" transform="matrix(1.0, 0.0, 0.0, 1.0, 0.75, 0.75)">
      <use ffdec:characterId="142" height="10.3" id="mc100" transform="matrix(1.0, 0.0, 0.0, 1.0, 0.0, 0.0)" width="13.75" xlink:href="#sprite8"/>
      <use ffdec:characterId="17" height="11.8" transform="matrix(1.0, 0.0, 0.0, 1.0, -0.75, -0.75)" width="15.25" xlink:href="#shape8"/>
    </g>
    <g id="sprite8" transform="matrix(1.0, 0.0, 0.0, 1.0, 0.0, 0.0)">
      <use ffdec:characterId="15" height="10.3" transform="matrix(1.0, 0.0, 0.0, 1.0, 0.0, 0.0)" width="13.75" xlink:href="#shape7"/>
    </g>
    <g id="shape7" transform="matrix(1.0, 0.0, 0.0, 1.0, 0.0, 0.0)">
      <path d="M13.15 0.15 Q14.05 4.75 13.6 9.8 L3.45 10.3 3.45 7.9 0.0 7.9 0.0 0.0 13.15 0.15" fill="#5c1313" fill-rule="evenodd" stroke="none"/>
    </g>
    <g id="shape8" transform="matrix(1.0, 0.0, 0.0, 1.0, 0.75, 0.75)">
      <path d="M0.0 0.0 L13.15 0.15 Q14.05 4.75 13.6 9.8 L3.45 10.3 3.45 7.9 0.0 7.9" fill="none" stroke="#000000" stroke-linecap="round" stroke-linejoin="round" stroke-width="1.5"/>
      <path d="M0.0 7.9 L0.0 0.0" fill="none" stroke="#000000" stroke-linecap="round" stroke-linejoin="round" stroke-width="1.0"/>
    </g>
    <g id="sprite9" transform="matrix(1.0, 0.0, 0.0, 1.0, -7.6, 0.75)">
      <use ffdec:characterId="225" height="28.25" transform="matrix(1.0, 0.0, 0.0, 1.0, 7.6, -0.75)" width="15.85" xlink:href="#shape9"/>
    </g>
    <g id="shape9" transform="matrix(1.0, 0.0, 0.0, 1.0, -7.6, 0.75)">
      <path d="M10.85 0.0 Q14.7 9.25 15.7 17.05 L14.55 18.45 Q10.25 13.05 11.95 12.3 L10.85 0.0" fill="#bda6bb" fill-rule="evenodd" stroke="none"/>
      <path d="M16.45 24.5 L15.2 26.75 Q12.2 25.95 11.05 23.35 L11.05 23.3 Q5.8 11.5 10.85 0.0 L11.95 12.3 Q10.25 13.05 14.55 18.45 L15.7 17.05 16.4 24.5 16.45 24.5" fill="#dec5dc" fill-rule="evenodd" stroke="none"/>
      <path d="M10.85 0.0 Q17.85 3.5 21.5 11.8 23.65 15.7 22.1 19.05 L16.45 24.5 16.4 24.5 15.7 17.05 Q14.7 9.25 10.85 0.0" fill="#999999" fill-rule="evenodd" stroke="none"/>
      <path d="M22.1 19.05 Q23.5 15.95 21.5 11.8 17.85 3.5 10.85 0.0 14.7 9.25 15.7 17.05 L16.0 20.25 16.35 24.5 M15.2 26.75 Q12.5 25.95 11.05 23.3 5.8 11.5 10.85 0.0" fill="none" stroke="#000000" stroke-linecap="round" stroke-linejoin="round" stroke-width="1.5"/>
      <path d="M16.0 20.25 Q10.25 13.05 11.95 12.3" fill="none" stroke="#000000" stroke-linecap="round" stroke-linejoin="round" stroke-width="1.0"/>
    </g>
    <g id="sprite10" transform="matrix(1.0, 0.0, 0.0, 1.0, -49.75, 0.75)">
      <use ffdec:characterId="227" height="28.0" transform="matrix(1.0, 0.0, 0.0, 1.0, 49.75, -0.75)" width="16.75" xlink:href="#shape10"/>
    </g>
    <g id="shape10" transform="matrix(1.0, 0.0, 0.0, 1.0, -49.75, 0.75)">
      <path d="M63.25 0.0 L62.15 12.3 Q63.85 13.05 59.55 18.45 L58.4 17.05 Q59.4 9.25 63.25 0.0" fill="#bda6bb" fill-rule="evenodd" stroke="none"/>
      <path d="M58.4 17.05 L59.55 18.45 Q63.85 13.05 62.15 12.3 L63.25 0.0 63.3 0.1 Q68.3 11.55 63.05 23.3 L63.1 23.35 Q61.55 25.9 59.45 26.5 L56.7 24.9 56.7 24.85 58.4 17.05" fill="#dec5dc" fill-rule="evenodd" stroke="none"/>
      <path d="M58.4 17.05 L56.7 24.85 50.8 21.45 Q50.75 17.15 52.55 11.75 L52.6 11.8 52.85 11.25 Q56.5 3.4 63.25 0.0 59.4 9.25 58.4 17.05" fill="#999999" fill-rule="evenodd" stroke="none"/>
      <path d="M50.8 21.45 Q49.7 19.15 52.55 11.75 L52.6 11.8 Q56.25 3.5 63.25 0.0 68.3 11.5 63.05 23.3 L63.1 23.35 Q61.6 26.0 59.45 26.5 M56.55 24.8 L57.7 20.25 58.45 17.1 58.4 17.05 Q59.4 9.25 63.25 0.0" fill="none" stroke="#000000" stroke-linecap="round" stroke-linejoin="round" stroke-width="1.5"/>
      <path d="M57.7 20.25 Q63.85 13.05 62.15 12.3" fill="none" stroke="#000000" stroke-linecap="round" stroke-linejoin="round" stroke-width="1.0"/>
    </g>
    <g id="sprite11" transform="matrix(1.0, 0.0, 0.0, 1.0, 0.75, -3.95)">
      <use ffdec:characterId="229" height="60.25" transform="matrix(1.0, 0.0, 0.0, 1.0, 0.0, 4.7)" width="74.1" xlink:href="#shape11"/>
      <use ffdec:characterId="154" height="8.2" id="mc101" transform="matrix(1.0, 0.0, 0.0, 1.0, 18.15, 39.35)" width="37.45" xlink:href="#sprite12"/>
      <use ffdec:characterId="230" height="61.75" transform="matrix(1.0, 0.0, 0.0, 1.0, -0.75, 3.95)" width="75.6" xlink:href="#shape13"/>
    </g>
    <g id="shape11" transform="matrix(1.0, 0.0, 0.0, 1.0, 0.0, -4.7)">
      <path d="M6.6 46.75 Q4.85 43.95 0.0 43.5 4.75 42.4 7.0 34.2 8.6 27.05 11.05 23.3 L14.55 18.45 15.7 17.05 21.5 11.8 Q23.9 9.9 29.5 7.35 26.95 9.1 26.45 11.2 32.1 10.35 36.85 4.7 42.0 10.35 47.65 11.2 47.15 9.1 44.6 7.35 50.2 9.9 52.6 11.8 L58.4 17.05 59.55 18.45 Q61.1 20.35 63.05 23.3 65.5 27.05 67.1 34.2 69.35 42.4 74.1 43.5 70.1 43.85 68.2 45.85 61.75 45.85 57.4 38.1 L57.5 38.05 59.8 36.5 63.05 34.05 Q59.85 32.1 56.6 34.05 L58.65 28.85 Q53.2 30.5 49.5 33.7 35.75 42.0 24.3 33.8 20.5 30.55 14.95 28.85 L17.0 34.05 Q13.75 32.1 10.55 34.05 L13.8 36.5 16.1 38.05 16.55 38.35 Q12.1 45.2 6.6 46.75" fill="#999999" fill-rule="evenodd" stroke="none"/>
      <path d="M65.85 53.2 Q60.15 63.85 45.8 64.8 L36.95 64.95 28.3 64.8 Q13.95 63.85 7.95 53.2 7.55 51.2 11.25 48.85 15.0 47.25 18.3 47.2 L20.85 47.4 Q30.1 52.35 33.45 47.7 33.9 49.1 36.7 48.85 40.15 49.25 40.05 48.05 43.35 51.4 50.5 47.6 L52.55 47.45 52.85 47.4 55.3 47.2 Q58.65 47.2 62.55 48.85 66.25 51.2 65.85 53.2 M16.55 38.35 L16.1 38.05 13.8 36.5 10.55 34.05 Q13.75 32.1 17.0 34.05 L14.95 28.85 Q20.5 30.55 24.3 33.8 29.2 38.05 31.05 45.05 24.1 42.65 18.45 39.45 L17.75 39.05 16.55 38.35 M49.5 33.7 Q53.2 30.5 58.65 28.85 L56.6 34.05 Q59.85 32.1 63.05 34.05 L59.8 36.5 57.5 38.05 57.4 38.1 55.4 39.35 Q49.85 42.55 43.85 44.55 L42.6 44.95 Q44.45 37.95 49.5 33.7 M40.5 54.7 L38.5 54.0 36.55 53.0 34.9 53.9 Q33.5 54.55 32.1 54.8 30.0 55.2 28.0 54.75 L27.9 54.7 24.95 53.45 Q20.85 50.15 16.75 50.55 15.7 50.7 14.3 51.2 13.55 51.45 12.7 51.85 16.35 54.05 19.75 58.4 L19.85 58.55 21.55 60.2 22.0 60.45 Q24.65 61.95 29.75 62.45 L32.95 62.7 33.0 62.7 35.75 62.75 36.75 62.75 37.65 62.75 38.8 62.75 39.5 62.75 42.2 62.6 42.65 62.6 45.3 62.3 45.35 62.3 48.05 61.75 50.3 61.0 50.75 60.8 52.8 59.5 53.65 58.4 Q57.05 54.05 60.7 51.9 L58.8 51.1 56.55 50.55 56.15 50.55 53.55 50.75 Q52.2 51.05 50.85 51.8 49.6 52.45 48.35 53.45 46.75 54.4 45.1 54.75 43.1 55.2 41.0 54.8 L40.5 54.7 M62.3 52.65 L60.7 51.9 62.3 52.65 M11.0 52.65 Q11.9 52.2 12.7 51.85 11.9 52.2 11.0 52.65" fill="#dfdfdf" fill-rule="evenodd" stroke="none"/>
      <path d="M42.6 44.95 L43.25 45.4 45.4 46.7 Q46.85 47.35 48.7 47.55 L48.8 47.55 48.85 47.55 50.5 47.6 Q43.35 51.4 40.05 48.05 L39.25 46.7 Q36.85 44.0 33.45 47.7 30.1 52.35 20.85 47.4 L20.95 47.4 22.5 47.55 23.35 47.6 26.55 46.95 26.65 46.95 27.55 47.05 Q29.25 46.5 30.55 45.4 L31.05 45.05 Q33.35 43.5 35.9 43.3 L36.7 43.25 37.5 43.3 37.9 43.3 Q40.35 43.5 42.6 44.95" fill="#b8b8b8" fill-rule="evenodd" stroke="none"/>
      <path d="M55.4 39.35 L57.4 38.1 Q58.45 45.2 52.55 47.45 L50.5 47.6 48.85 47.55 52.6 45.6 52.95 45.4 Q56.4 42.6 55.4 39.4 L55.4 39.35 M26.55 46.95 L23.35 47.6 22.5 47.55 Q14.35 44.55 16.55 38.35 L17.75 39.05 18.45 39.45 Q17.25 42.0 20.85 44.8 22.95 46.15 26.55 46.95" fill="#56522c" fill-rule="evenodd" stroke="none"/>
      <path d="M68.2 45.85 Q67.0 47.1 66.65 49.0 L72.2 48.85 Q67.75 49.9 65.85 53.2 66.25 51.2 62.55 48.85 58.65 47.2 55.3 47.2 L52.85 47.4 52.55 47.45 Q58.45 45.2 57.4 38.1 61.75 45.85 68.2 45.85 M7.95 53.2 Q6.35 49.9 1.9 48.85 L7.45 49.0 Q7.2 47.75 6.6 46.75 12.1 45.2 16.55 38.35 14.35 44.55 22.5 47.55 L20.95 47.4 20.85 47.4 18.3 47.2 Q15.0 47.25 11.25 48.85 7.55 51.2 7.95 53.2 M24.3 33.8 Q35.75 42.0 49.5 33.7 44.45 37.95 42.6 44.95 40.35 43.5 37.9 43.3 L37.5 43.3 36.7 43.25 35.9 43.3 Q33.35 43.5 31.05 45.05 29.2 38.05 24.3 33.8" fill="#777777" fill-rule="evenodd" stroke="none"/>
      <path d="M33.45 47.7 Q36.85 44.0 39.25 46.7 L40.05 48.05 Q40.15 49.25 36.7 48.85 33.9 49.1 33.45 47.7" fill="#000000" fill-rule="evenodd" stroke="none"/>
      <path d="M28.0 54.75 Q30.0 55.2 32.1 54.8 33.5 54.55 34.9 53.9 L36.55 53.0 38.5 54.0 40.5 54.7 Q40.15 57.35 38.9 56.3 L38.5 54.0 37.3 55.85 36.3 54.8 36.55 53.0 36.3 54.8 Q34.8 56.5 34.75 54.35 L34.1 56.2 Q33.1 57.2 32.1 54.8 31.4 57.75 29.95 58.1 28.7 57.8 28.0 54.75 M41.0 54.8 Q43.1 55.2 45.1 54.75 46.75 54.4 48.35 53.45 49.6 52.45 50.85 51.8 52.2 51.05 53.55 50.75 L56.15 50.55 56.55 50.55 58.8 51.1 57.25 52.55 56.15 50.55 55.25 52.4 Q53.9 53.3 53.4 51.15 L53.55 50.75 53.4 51.15 52.6 52.85 Q51.95 54.1 50.85 51.8 L50.4 54.2 Q49.95 55.6 48.35 53.45 L47.45 55.65 Q46.6 56.95 45.1 54.75 44.4 57.8 43.15 58.1 41.7 57.75 41.0 54.8 M34.9 53.9 L34.75 54.35 34.9 53.9 M27.9 54.7 Q26.4 56.95 25.55 55.65 L24.65 53.45 Q23.05 55.6 22.6 54.2 L22.15 51.8 Q21.05 54.1 20.4 52.85 L19.6 51.15 Q19.1 53.3 17.75 52.4 L16.85 50.55 15.75 52.55 14.3 51.2 Q15.7 50.7 16.75 50.55 20.85 50.15 24.95 53.45 L27.9 54.7 M19.85 58.55 L20.85 57.45 Q22.05 57.85 21.55 60.2 L19.85 58.55 M22.0 60.45 L23.1 58.65 Q24.3 58.65 24.65 60.65 L25.95 59.15 27.05 62.05 27.95 60.0 Q29.1 59.75 29.95 61.9 30.8 59.25 32.1 58.95 33.1 59.65 32.95 62.7 L29.75 62.45 Q24.65 61.95 22.0 60.45 M33.0 62.7 Q33.65 60.95 35.1 61.25 L35.75 62.75 Q36.25 60.9 37.8 61.2 38.55 61.5 38.8 62.75 L37.65 62.75 36.75 62.75 35.75 62.75 33.0 62.7 M39.5 62.75 Q39.6 59.35 40.7 58.85 42.2 59.1 42.2 62.6 L39.5 62.75 M42.65 62.6 Q43.3 60.5 44.45 60.75 L45.3 62.3 46.45 59.9 47.75 61.4 Q48.1 59.4 49.3 59.4 L50.3 61.0 48.05 61.75 45.35 62.3 45.3 62.3 42.65 62.6 M50.75 60.8 Q50.35 58.6 51.55 58.2 L52.8 59.5 50.75 60.8 M29.95 61.9 L29.75 62.45 29.95 61.9 M47.75 61.4 L48.05 61.75 47.75 61.4" fill="#ffffff" fill-rule="evenodd" stroke="none"/>
      <path d="M40.5 54.7 L41.0 54.8 Q41.7 57.75 43.15 58.1 44.4 57.8 45.1 54.75 46.6 56.95 47.45 55.65 L48.35 53.45 Q49.95 55.6 50.4 54.2 L50.85 51.8 Q51.95 54.1 52.6 52.85 L53.4 51.15 Q53.9 53.3 55.25 52.4 L56.15 50.55 57.25 52.55 58.8 51.1 60.7 51.9 Q57.05 54.05 53.65 58.4 L52.8 59.5 51.55 58.2 Q50.35 58.6 50.75 60.8 L50.3 61.0 49.3 59.4 Q48.1 59.4 47.75 61.4 L46.45 59.9 45.3 62.3 44.45 60.75 Q43.3 60.5 42.65 62.6 L42.2 62.6 Q42.2 59.1 40.7 58.85 39.6 59.35 39.5 62.75 L38.8 62.75 Q38.55 61.5 37.8 61.2 36.25 60.9 35.75 62.75 L35.1 61.25 Q33.65 60.95 33.0 62.7 L32.95 62.7 Q33.1 59.65 32.1 58.95 30.8 59.25 29.95 61.9 29.1 59.75 27.95 60.0 L27.05 62.05 25.95 59.15 24.65 60.65 Q24.3 58.65 23.1 58.65 L22.0 60.45 21.55 60.2 Q22.05 57.85 20.85 57.45 L19.85 58.55 19.75 58.4 Q16.35 54.05 12.7 51.85 13.55 51.45 14.3 51.2 L15.75 52.55 16.85 50.55 17.75 52.4 Q19.1 53.3 19.6 51.15 L20.4 52.85 Q21.05 54.1 22.15 51.8 L22.6 54.2 Q23.05 55.6 24.65 53.45 L25.55 55.65 Q26.4 56.95 27.9 54.7 L28.0 54.75 Q28.7 57.8 29.95 58.1 31.4 57.75 32.1 54.8 33.1 57.2 34.1 56.2 L34.75 54.35 Q34.8 56.5 36.3 54.8 L37.3 55.85 38.5 54.0 38.9 56.3 Q40.15 57.35 40.5 54.7" fill="#503333" fill-rule="evenodd" stroke="none"/>
      <path d="M33.45 47.7 Q36.85 44.0 39.25 46.7 L40.05 48.05 Q40.15 49.25 36.7 48.85 33.9 49.1 33.45 47.7 M28.0 54.75 Q30.0 55.2 32.1 54.8 33.5 54.55 34.9 53.9 L36.55 53.0 38.5 54.0 40.5 54.7 41.0 54.8 Q43.1 55.2 45.1 54.75 46.75 54.4 48.35 53.45 49.6 52.45 50.85 51.8 52.2 51.05 53.55 50.75 L56.15 50.55 56.55 50.55 58.8 51.1 60.7 51.9 62.3 52.65 M36.55 53.0 L36.3 54.8 37.3 55.85 38.5 54.0 38.9 56.3 Q40.15 57.35 40.5 54.7 M34.75 54.35 L34.9 53.9 M36.3 54.8 Q34.8 56.5 34.75 54.35 L34.1 56.2 Q33.1 57.2 32.1 54.8 31.4 57.75 29.95 58.1 28.7 57.8 28.0 54.75 L27.9 54.7 Q26.4 56.95 25.55 55.65 L24.65 53.45 Q23.05 55.6 22.6 54.2 L22.15 51.8 Q21.05 54.1 20.4 52.85 L19.6 51.15 Q19.1 53.3 17.75 52.4 L16.85 50.55 15.75 52.55 14.3 51.2 Q13.55 51.45 12.7 51.85 16.35 54.05 19.75 58.4 L19.85 58.55 20.85 57.45 Q22.05 57.85 21.55 60.2 L22.0 60.45 23.1 58.65 Q24.3 58.65 24.65 60.65 L25.95 59.15 27.05 62.05 27.95 60.0 Q29.1 59.75 29.95 61.9 30.8 59.25 32.1 58.95 33.1 59.65 32.95 62.7 L33.0 62.7 Q33.65 60.95 35.1 61.25 L35.75 62.75 Q36.25 60.9 37.8 61.2 38.55 61.5 38.8 62.75 L39.5 62.75 Q39.6 59.35 40.7 58.85 42.2 59.1 42.2 62.6 L42.65 62.6 Q43.3 60.5 44.45 60.75 L45.3 62.3 46.45 59.9 47.75 61.4 Q48.1 59.4 49.3 59.4 L50.3 61.0 50.75 60.8 Q50.35 58.6 51.55 58.2 L52.8 59.5 53.65 58.4 Q57.05 54.05 60.7 51.9 M14.3 51.2 Q15.7 50.7 16.75 50.55 20.85 50.15 24.95 53.45 L27.9 54.7 M29.75 62.45 L29.95 61.9 M38.8 62.75 L37.65 62.75 36.75 62.75 35.75 62.75 33.0 62.7 M22.0 60.45 Q24.65 61.95 29.75 62.45 L32.95 62.7 M12.7 51.85 Q11.9 52.2 11.0 52.65 M21.55 60.2 L19.85 58.55 M56.15 50.55 L57.25 52.55 58.8 51.1 M53.55 50.75 L53.4 51.15 Q53.9 53.3 55.25 52.4 L56.15 50.55 M50.85 51.8 Q51.95 54.1 52.6 52.85 L53.4 51.15 M52.8 59.5 L50.75 60.8 M45.1 54.75 Q46.6 56.95 47.45 55.65 L48.35 53.45 Q49.95 55.6 50.4 54.2 L50.85 51.8 M48.05 61.75 L47.75 61.4 M50.3 61.0 L48.05 61.75 45.35 62.3 45.3 62.3 42.65 62.6 M41.0 54.8 Q41.7 57.75 43.15 58.1 44.4 57.8 45.1 54.75 M39.5 62.75 L42.2 62.6" fill="none" stroke="#000000" stroke-linecap="round" stroke-linejoin="round" stroke-width="1.0"/>
    </g>
    <g id="sprite12" transform="matrix(1.0, 0.0, 0.0, 1.0, 0.0, 0.0)">
      <use ffdec:characterId="153" height="8.2" transform="matrix(1.0, 0.0, 0.0, 1.0, 0.0, 0.0)" width="37.45" xlink:href="#shape12"/>
    </g>
    <g id="shape12" transform="matrix(1.0, 0.0, 0.0, 1.0, 0.0, 0.0)">
      <path d="M37.25 0.0 L37.25 0.05 Q38.25 3.25 34.8 6.05 L34.45 6.25 30.7 8.2 30.65 8.2 30.55 8.2 27.25 7.35 Q26.05 6.85 25.1 6.05 L24.45 5.6 25.7 5.2 Q31.7 3.2 37.25 0.0 M12.9 5.7 L12.4 6.05 Q11.1 7.15 9.4 7.7 L8.5 7.6 8.4 7.6 Q4.8 6.8 2.7 5.45 -0.9 2.65 0.3 0.1 5.95 3.3 12.9 5.7" fill="#fff478" fill-rule="evenodd" stroke="none"/>
    </g>
    <g id="shape13" transform="matrix(1.0, 0.0, 0.0, 1.0, 0.75, -3.95)">
      <path d="M21.5 11.8 Q23.9 9.9 29.5 7.35 26.95 9.1 26.45 11.2 32.1 10.35 36.85 4.7 42.0 10.35 47.65 11.2 47.15 9.1 44.6 7.35 50.2 9.9 52.6 11.8 M58.4 17.05 L59.55 18.45 Q61.1 20.35 63.05 23.3 65.5 27.05 67.1 34.2 69.35 42.4 74.1 43.5 70.1 43.85 68.2 45.85 67.0 47.1 66.65 49.0 L72.2 48.85 Q67.75 49.9 65.85 53.2 60.15 63.85 45.8 64.8 L36.95 64.95 28.3 64.8 Q13.95 63.85 7.95 53.2 6.35 49.9 1.9 48.85 L7.45 49.0 Q7.2 47.75 6.6 46.75 4.85 43.95 0.0 43.5 4.75 42.4 7.0 34.2 8.6 27.05 11.05 23.3 L14.55 18.45 15.7 17.05 M58.65 28.85 Q53.2 30.5 49.5 33.7 44.45 37.95 42.6 44.95 L43.85 44.55 Q49.85 42.55 55.4 39.4 L55.4 39.35 57.4 38.1 57.5 38.05 59.8 36.5 63.05 34.05 Q59.85 32.1 56.6 34.05 L58.65 28.85 M42.6 44.95 L43.25 45.4 45.4 46.7 Q46.85 47.35 48.7 47.55 L48.8 47.55 48.85 47.55 50.5 47.6 52.55 47.45 52.85 47.4 55.3 47.2 Q58.65 47.2 62.55 48.85 66.25 51.2 65.85 53.2 M17.0 34.05 Q13.75 32.1 10.55 34.05 L13.8 36.5 16.1 38.05 16.55 38.35 17.75 39.05 18.45 39.45 Q24.1 42.65 31.05 45.05 29.2 38.05 24.3 33.8 20.5 30.55 14.95 28.85 L17.0 34.05 M42.6 44.95 Q40.35 43.5 37.9 43.3 L37.5 43.3 36.7 43.25 35.9 43.3 Q33.35 43.5 31.05 45.05 L30.55 45.4 Q29.25 46.5 27.55 47.05 L26.65 46.95 26.55 46.95 23.35 47.6 22.5 47.55 20.95 47.4 20.85 47.4 18.3 47.2 Q15.0 47.25 11.25 48.85 7.55 51.2 7.95 53.2" fill="none" stroke="#000000" stroke-linecap="round" stroke-linejoin="round" stroke-width="1.5"/>
      <path d="M48.85 47.55 L52.6 45.6 Q56.05 43.1 55.4 39.4 M52.55 47.45 Q58.45 45.2 57.4 38.1 M16.55 38.35 Q14.35 44.55 22.5 47.55 M18.45 39.45 Q17.5 44.2 26.55 46.95" fill="none" stroke="#000000" stroke-linecap="round" stroke-linejoin="round" stroke-width="1.0"/>
    </g>
  </defs>
</svg>
