<?xml version="1.0" encoding="UTF-8" standalone="no"?>
<svg xmlns:ffdec="https://www.free-decompiler.com/flash" xmlns:xlink="http://www.w3.org/1999/xlink" ffdec:objectType="frame" height="26.2px" width="18.85px" xmlns="http://www.w3.org/2000/svg">
  <g transform="matrix(1.0, 0.0, 0.0, 1.0, 0.5, -1.4)">
    <use ffdec:characterId="163" height="35.55" id="mc1000" transform="matrix(-0.2726, 0.0, 0.0, 0.2726, 13.8072, 8.3908)" width="45.05" xlink:href="#sprite0"/>
    <use ffdec:characterId="167" height="42.1" id="hide_hat" transform="matrix(-0.2726, 0.0, 0.0, 0.2726, 16.3156, 1.4247)" width="61.65" xlink:href="#sprite2"/>
    <use ffdec:characterId="171" height="36.85" id="mc800" transform="matrix(-0.2726, 0.0, 0.0, 0.2726, 18.3255, 8.606)" width="42.35" xlink:href="#sprite4"/>
    <use ffdec:characterId="175" height="49.5" id="mc700" transform="matrix(-0.2726, 0.0, 0.0, 0.2726, 18.3252, 3.6201)" width="47.75" xlink:href="#sprite6"/>
    <use ffdec:characterId="181" height="6.75" id="mc600" transform="matrix(-0.2726, 0.0, 0.0, 0.2726, 17.6588, 15.4548)" width="5.95" xlink:href="#sprite8"/>
    <use ffdec:characterId="187" height="5.4" id="mc500" transform="matrix(-0.2726, 0.0, 0.0, 0.2726, 17.5907, 14.3639)" width="5.9" xlink:href="#sprite11"/>
    <use ffdec:characterId="189" height="16.9" id="mc400" transform="matrix(-0.142, 0.0, 0.0, 0.3017, 17.3496, 9.5007)" width="16.9" xlink:href="#sprite14"/>
    <use ffdec:characterId="190" height="3.45" id="mc300" transform="matrix(-0.2726, 0.0, 0.0, 0.2726, 17.1042, 11.8274)" width="8.05" xlink:href="#sprite16"/>
    <use ffdec:characterId="192" height="4.9" id="mc200" transform="matrix(-0.2726, 0.0, 0.0, 0.2726, 16.1132, 14.732)" width="9.95" xlink:href="#sprite17"/>
    <use ffdec:characterId="194" height="19.55" id="mc100" transform="matrix(-0.2726, 0.0, 0.0, 0.2726, 18.0086, 9.2781)" width="11.75" xlink:href="#sprite19"/>
    <use ffdec:characterId="219" height="0.0" id="hat" transform="matrix(-0.2726, 0.0, 0.0, 0.2726, 12.55, 27.6)" width="0.0" xlink:href="#sprite20"/>
  </g>
  <defs>
    <g id="sprite0" transform="matrix(1.0, 0.0, 0.0, 1.0, 22.4, -1.8)">
      <use ffdec:characterId="161" height="33.7" id="mc100" transform="matrix(1.0, 0.0, 0.0, 1.0, -21.45, 2.75)" width="42.9" xlink:href="#sprite1"/>
      <use ffdec:characterId="162" height="35.55" transform="matrix(1.0, 0.0, 0.0, 1.0, -22.4, 1.8)" width="45.05" xlink:href="#shape1"/>
    </g>
    <g id="sprite1" transform="matrix(1.0, 0.0, 0.0, 1.0, 20.7, 4.05)">
      <use ffdec:characterId="160" height="33.7" transform="matrix(1.0, 0.0, 0.0, 1.0, -20.7, -4.05)" width="42.9" xlink:href="#shape0"/>
    </g>
    <g id="shape0" transform="matrix(1.0, 0.0, 0.0, 1.0, 20.7, 4.05)">
      <path d="M20.65 18.55 Q19.05 19.8 17.35 19.2 L17.95 20.45 Q18.6 22.5 17.5 24.4 16.45 26.3 14.35 26.9 12.2 27.5 10.2 26.5 L8.35 25.0 Q8.2 25.95 7.7 26.9 6.65 28.8 4.5 29.45 2.35 30.0 0.35 29.0 -1.55 28.0 -2.25 26.1 L-2.3 25.95 -2.5 24.3 -20.7 -4.05 11.05 3.5 Q18.2 4.8 19.55 7.6 21.6 9.85 21.9 11.5 L22.2 15.2 Q22.25 17.25 20.65 18.55" fill="#cccccc" fill-rule="evenodd" stroke="none"/>
    </g>
    <g id="shape1" transform="matrix(1.0, 0.0, 0.0, 1.0, 22.4, -1.8)">
      <path d="M15.75 11.35 Q20.0 14.25 20.95 17.2 21.9 20.15 21.7 22.55 21.45 24.95 19.9 25.8 L16.6 26.0 17.2 27.25 Q17.85 29.3 16.75 31.2 15.7 33.1 13.6 33.7 11.45 34.3 9.45 33.3 L7.6 31.8 Q7.45 32.75 6.95 33.7 5.9 35.6 3.75 36.25 1.6 36.8 -0.4 35.8 -2.3 34.8 -3.0 32.9 L-3.05 32.75 -3.25 31.1 -21.5 2.7 M-3.25 31.1 L-2.5 32.25" fill="none" stroke="#000000" stroke-linecap="round" stroke-linejoin="round" stroke-width="1.8"/>
    </g>
    <g id="sprite2" transform="matrix(1.0, 0.0, 0.0, 1.0, 31.6, 23.75)">
      <use ffdec:characterId="165" height="41.2" id="mc100" transform="matrix(1.0, 0.0, 0.0, 1.0, -30.7, -22.85)" width="59.85" xlink:href="#sprite3"/>
      <use ffdec:characterId="166" height="41.35" transform="matrix(1.0, 0.0, 0.0, 1.0, -31.6, -23.75)" width="61.65" xlink:href="#shape3"/>
    </g>
    <g id="sprite3" transform="matrix(1.0, 0.0, 0.0, 1.0, 29.95, 29.65)">
      <use ffdec:characterId="164" height="41.2" transform="matrix(1.0, 0.0, 0.0, 1.0, -29.95, -29.65)" width="59.85" xlink:href="#shape2"/>
    </g>
    <g id="shape2" transform="matrix(1.0, 0.0, 0.0, 1.0, 29.95, 29.65)">
      <path d="M6.05 -28.5 Q8.1 -27.5 8.75 -25.45 L8.95 -24.55 Q9.6 -25.05 10.5 -25.3 12.65 -25.95 14.65 -24.9 16.65 -23.9 17.3 -21.85 17.9 -19.9 16.9 -18.0 L17.4 -18.2 Q19.5 -18.85 21.45 -17.8 23.5 -16.8 24.15 -14.75 24.8 -12.7 23.7 -10.8 L22.85 -9.65 22.9 -9.65 Q25.0 -10.3 27.0 -9.25 29.05 -8.25 29.7 -6.2 30.3 -4.2 29.25 -2.3 28.15 -0.35 26.05 0.25 L25.45 0.4 Q26.8 1.35 27.3 2.95 27.9 4.95 26.8 6.85 25.8 8.75 23.75 9.35 L23.75 9.45 23.75 9.55 Q-5.8 16.0 -16.95 1.8 L-27.1 -14.05 -27.15 -14.05 -27.75 -14.4 Q-29.15 -15.35 -29.65 -16.95 L-29.7 -17.05 Q-30.35 -19.1 -29.3 -21.0 -28.2 -22.9 -26.05 -23.55 -23.95 -24.15 -22.0 -23.15 -22.15 -24.65 -21.35 -26.05 -20.25 -27.95 -18.1 -28.55 -16.0 -29.15 -14.0 -28.15 -12.5 -27.35 -11.75 -26.0 L-11.35 -26.85 Q-10.25 -28.75 -8.1 -29.4 -6.0 -30.0 -4.0 -29.0 -2.1 -28.05 -1.4 -26.15 L-1.25 -26.4 Q-0.15 -28.3 2.0 -28.9 4.1 -29.55 6.05 -28.5" fill="#cccccc" fill-rule="evenodd" stroke="none"/>
    </g>
    <g id="shape3" transform="matrix(1.0, 0.0, 0.0, 1.0, 31.6, 23.75)">
      <path d="M-27.9 -7.25 L-28.5 -7.6 Q-29.65 -8.4 -30.55 -10.55 -31.05 -12.45 -30.05 -14.2 -28.95 -16.1 -26.8 -16.75 -24.7 -17.35 -22.75 -16.35 -22.9 -17.85 -22.1 -19.25 -21.0 -21.15 -18.85 -21.75 -16.75 -22.35 -14.75 -21.35 -13.25 -20.55 -12.5 -19.2 L-12.1 -20.05 Q-11.0 -21.95 -8.85 -22.6 -6.75 -23.2 -4.75 -22.2 -2.85 -21.25 -2.15 -19.35 L-2.0 -19.6 Q-0.9 -21.5 1.25 -22.1 3.35 -22.75 5.3 -21.7 7.35 -20.7 8.0 -18.65 L8.2 -17.75 9.75 -18.5 Q11.9 -19.15 13.9 -18.1 15.9 -17.1 16.55 -15.05 17.15 -13.1 16.15 -11.2 L16.65 -11.4 Q18.75 -12.05 20.7 -11.0 22.75 -10.0 23.4 -7.95 24.05 -5.9 22.95 -4.0 L22.1 -2.85 22.15 -2.85 Q24.25 -3.5 26.25 -2.45 28.3 -1.45 28.95 0.6 29.55 2.6 28.5 4.5 27.4 6.45 25.3 7.05 L24.7 7.2 Q26.05 8.15 26.55 9.75 27.15 11.75 26.05 13.65 25.05 15.55 20.75 16.7" fill="none" stroke="#000000" stroke-linecap="round" stroke-linejoin="round" stroke-width="1.8"/>
    </g>
    <g id="sprite4" transform="matrix(1.0, 0.0, 0.0, 1.0, 21.0, 17.95)">
      <use ffdec:characterId="169" height="37.8" id="mc100" transform="matrix(0.951, 0.0, 0.0, 0.951, -20.0759, -17.9724)" width="41.85" xlink:href="#sprite5"/>
      <use ffdec:characterId="170" height="34.5" transform="matrix(1.0, 0.0, 0.0, 1.0, -21.0, -15.6)" width="42.35" xlink:href="#shape5"/>
    </g>
    <g id="sprite5" transform="matrix(1.0, 0.0, 0.0, 1.0, 19.9, 18.95)">
      <use ffdec:characterId="168" height="37.8" transform="matrix(1.0, 0.0, 0.0, 1.0, -19.9, -18.95)" width="41.85" xlink:href="#shape4"/>
    </g>
    <g id="shape4" transform="matrix(1.0, 0.0, 0.0, 1.0, 19.9, 18.95)">
      <path d="M-19.2 -14.75 Q25.3 -29.95 21.7 9.85 L19.85 12.9 19.55 13.4 Q15.2 17.05 8.75 18.25 L-2.15 18.7 -3.6 18.6 -5.2 18.35 -7.95 17.85 Q-17.2 15.7 -18.05 9.8 -18.45 6.9 -16.8 3.05 -18.2 0.35 -18.95 -2.45 -20.55 -8.3 -19.45 -14.45 L-19.2 -14.75" fill="#f5b87a" fill-rule="evenodd" stroke="none"/>
    </g>
    <g id="shape5" transform="matrix(1.0, 0.0, 0.0, 1.0, 21.0, 15.6)">
      <path d="M20.45 10.55 L17.45 12.8 Q13.3 16.25 7.15 17.4 L-3.2 17.85 -4.55 17.7 -6.1 17.5 -8.7 17.0 Q-17.55 15.0 -18.3 9.35 -18.7 6.6 -17.15 2.95 -18.45 0.35 -19.15 -2.3 -20.65 -7.75 -19.8 -14.7" fill="none" stroke="#000000" stroke-linecap="round" stroke-linejoin="round" stroke-width="1.8"/>
    </g>
    <g id="sprite6" transform="matrix(1.0, 0.0, 0.0, 1.0, 24.85, 22.85)">
      <use ffdec:characterId="173" height="49.5" id="mc100" transform="matrix(0.9636, 0.0, 0.0, 0.9636, -23.9288, -21.9497)" width="47.7" xlink:href="#sprite7"/>
      <use ffdec:characterId="174" height="49.5" transform="matrix(1.0, 0.0, 0.0, 1.0, -24.85, -22.85)" width="47.75" xlink:href="#shape7"/>
    </g>
    <g id="sprite7" transform="matrix(1.0, 0.0, 0.0, 1.0, 23.95, 24.75)">
      <use ffdec:characterId="172" height="49.5" transform="matrix(1.0, 0.0, 0.0, 1.0, -23.95, -24.75)" width="47.7" xlink:href="#shape6"/>
    </g>
    <g id="shape6" transform="matrix(1.0, 0.0, 0.0, 1.0, 23.95, 24.75)">
      <path d="M-23.95 -3.15 Q-24.05 -14.55 -14.35 -19.4 L-14.8 -20.25 Q-15.3 -21.1 -14.9 -22.25 -14.5 -23.45 -13.6 -23.75 L-11.95 -24.25 -10.25 -24.65 -8.55 -24.75 -6.75 -24.5 Q-6.25 -24.4 -6.25 -23.55 -6.3 -22.75 6.7 -12.5 19.65 -2.25 21.7 6.3 L23.75 15.0 Q22.3 19.05 19.85 21.75 18.2 23.55 16.1 24.75 L15.25 24.55 Q4.65 -7.0 -23.15 -3.25 L-23.95 -3.15" fill="#0099cc" fill-rule="evenodd" stroke="none"/>
    </g>
    <g id="shape7" transform="matrix(1.0, 0.0, 0.0, 1.0, 24.85, 22.85)">
      <path d="M13.85 25.55 Q4.0 -3.75 -21.25 -1.45 L-23.15 -1.25 -23.95 -1.15 Q-24.0 -7.1 -21.25 -11.2 -18.95 -14.65 -14.7 -16.8 L-11.45 -18.15 M-15.1 -17.6 Q-15.6 -18.45 -15.2 -19.55 -14.8 -20.7 -13.95 -20.95 L-12.35 -21.5 -10.7 -21.85 -9.1 -21.95 -7.35 -21.7 Q-6.9 -21.6 -6.9 -20.85 -6.95 -20.05 5.25 -11.25 17.4 -2.45 19.75 6.9 L22.0 16.35 Q20.65 20.25 18.25 22.85 16.7 24.55 14.7 25.75" fill="none" stroke="#000000" stroke-linecap="round" stroke-linejoin="round" stroke-width="1.8"/>
    </g>
    <g id="sprite8" transform="matrix(1.0, 0.0, 0.0, 1.0, 3.15, 3.1)">
      <use ffdec:characterId="179" height="4.9" id="mc100" transform="matrix(1.0, 0.0, 0.0, 1.0, -2.4, -2.35)" width="4.45" xlink:href="#sprite9"/>
      <use ffdec:characterId="180" height="6.75" transform="matrix(1.0, 0.0, 0.0, 1.0, -3.15, -3.1)" width="5.95" xlink:href="#shape10"/>
    </g>
    <g id="sprite9" transform="matrix(1.0, 0.0, 0.0, 1.0, 2.25, 2.3)">
      <use ffdec:characterId="177" height="4.9" id="mc100" transform="matrix(1.0, 0.0, 0.0, 1.0, -2.25, -2.3)" width="4.45" xlink:href="#sprite10"/>
      <use ffdec:characterId="178" height="4.9" transform="matrix(1.0, 0.0, 0.0, 1.0, -2.25, -2.3)" width="4.45" xlink:href="#shape9"/>
    </g>
    <g id="sprite10" transform="matrix(1.0, 0.0, 0.0, 1.0, 2.2, 2.45)">
      <use ffdec:characterId="176" height="4.9" transform="matrix(1.0, 0.0, 0.0, 1.0, -2.2, -2.45)" width="4.45" xlink:href="#shape8"/>
    </g>
    <g id="shape8" transform="matrix(1.0, 0.0, 0.0, 1.0, 2.2, 2.45)">
      <path d="M-0.3 2.45 Q-2.25 0.45 -2.2 -2.45 L2.2 -2.45 Q2.6 -0.35 -0.3 2.45" fill="#ff3399" fill-rule="evenodd" stroke="none"/>
    </g>
    <g id="shape9" transform="matrix(1.0, 0.0, 0.0, 1.0, 2.25, 2.3)">
      <path d="M-0.35 2.6 Q-2.3 0.6 -2.25 -2.3 L2.15 -2.3 Q2.55 -0.2 -0.35 2.6" fill="#ffffff" fill-opacity="0.5019608" fill-rule="evenodd" stroke="none"/>
    </g>
    <g id="shape10" transform="matrix(1.0, 0.0, 0.0, 1.0, 3.15, 3.1)">
      <path d="M-2.4 -2.35 L2.0 -2.35 Q2.4 -0.25 -0.8 2.9" fill="none" stroke="#000000" stroke-linecap="round" stroke-linejoin="round" stroke-width="1.5"/>
    </g>
    <g id="sprite11" transform="matrix(1.0, 0.0, 0.0, 1.0, 2.9, 2.7)">
      <use ffdec:characterId="185" height="3.9" id="mc100" transform="matrix(1.0, 0.0, 0.0, 1.0, -2.25, -1.95)" width="4.5" xlink:href="#sprite12"/>
      <use ffdec:characterId="186" height="5.4" transform="matrix(1.0, 0.0, 0.0, 1.0, -2.9, -2.7)" width="5.9" xlink:href="#shape13"/>
    </g>
    <g id="sprite12" transform="matrix(1.0, 0.0, 0.0, 1.0, 2.25, 1.95)">
      <use ffdec:characterId="183" height="3.9" id="mc100" transform="matrix(1.0, 0.0, 0.0, 1.0, -2.25, -1.95)" width="4.5" xlink:href="#sprite13"/>
      <use ffdec:characterId="184" height="3.9" transform="matrix(1.0, 0.0, 0.0, 1.0, -2.25, -1.95)" width="4.5" xlink:href="#shape12"/>
    </g>
    <g id="sprite13" transform="matrix(1.0, 0.0, 0.0, 1.0, 2.25, 1.95)">
      <use ffdec:characterId="182" height="3.9" transform="matrix(1.0, 0.0, 0.0, 1.0, -2.25, -1.95)" width="4.5" xlink:href="#shape11"/>
    </g>
    <g id="shape11" transform="matrix(1.0, 0.0, 0.0, 1.0, 2.25, 1.95)">
      <path d="M-2.15 1.95 Q-2.4 0.15 -1.85 -1.95 1.8 -0.3 2.25 1.95 L-2.15 1.95" fill="#ff3399" fill-rule="evenodd" stroke="none"/>
    </g>
    <g id="shape12" transform="matrix(1.0, 0.0, 0.0, 1.0, 2.25, 1.95)">
      <path d="M-2.15 1.95 Q-2.4 0.15 -1.85 -1.95 1.8 -0.3 2.25 1.95 L-2.15 1.95" fill="#ffffff" fill-opacity="0.5019608" fill-rule="evenodd" stroke="none"/>
    </g>
    <g id="shape13" transform="matrix(1.0, 0.0, 0.0, 1.0, 2.9, 2.7)">
      <path d="M-1.85 -1.95 Q1.8 -0.3 2.25 1.95 L-2.15 1.95" fill="none" stroke="#000000" stroke-linecap="round" stroke-linejoin="round" stroke-width="1.5"/>
    </g>
    <g id="sprite14" transform="matrix(1.0, 0.0, 0.0, 1.0, 8.45, 8.45)">
      <use ffdec:characterId="188" height="16.9" id="mc000" transform="matrix(1.0, 0.0, 0.0, 1.0, -8.45, -8.45)" width="16.9" xlink:href="#sprite15"/>
    </g>
    <g id="sprite15" transform="matrix(1.0, 0.0, 0.0, 1.0, 8.45, 8.45)">
      <use ffdec:characterId="74" height="16.9" transform="matrix(1.0, 0.0, 0.0, 1.0, -8.45, -8.45)" width="16.9" xlink:href="#shape14"/>
    </g>
    <g id="shape14" transform="matrix(1.0, 0.0, 0.0, 1.0, 8.45, 8.45)">
      <path d="M5.95 -6.0 Q8.45 -3.5 8.45 0.0 8.45 3.5 5.95 5.95 3.5 8.45 0.0 8.45 -3.5 8.45 -6.0 5.95 -8.45 3.5 -8.45 0.0 -8.45 -3.5 -6.0 -6.0 -3.5 -8.45 0.0 -8.45 3.5 -8.45 5.95 -6.0" fill="#ff0066" fill-rule="evenodd" stroke="none"/>
    </g>
    <g id="sprite16" transform="matrix(1.0, 0.0, 0.0, 1.0, 4.05, 2.1)">
      <use ffdec:characterId="77" height="3.45" transform="matrix(1.0, 0.0, 0.0, 1.0, -4.05, -2.1)" width="8.05" xlink:href="#shape15"/>
    </g>
    <g id="shape15" transform="matrix(1.0, 0.0, 0.0, 1.0, 4.05, 2.1)">
      <path d="M-0.3 -0.85 Q0.05 -0.45 0.05 0.1 0.05 0.6 -0.3 0.95 -0.6 1.35 -1.0 1.35 -1.45 1.35 -1.8 0.95 L-2.1 0.1 -1.8 -0.85 -1.0 -1.2 Q-0.6 -1.2 -0.3 -0.85" fill="#000000" fill-opacity="0.5019608" fill-rule="evenodd" stroke="none"/>
      <path d="M-3.3 -0.65 Q-1.3 -1.8 3.25 -1.0" fill="none" stroke="#000000" stroke-linecap="round" stroke-linejoin="round" stroke-opacity="0.5019608" stroke-width="1.5"/>
    </g>
    <g id="sprite17" transform="matrix(1.0, 0.0, 0.0, 1.0, 5.0, 2.45)">
      <use ffdec:characterId="191" height="2.15" id="mc000" transform="matrix(-1.0, 0.0, 0.0, 1.0, -2.9, -2.45)" width="2.1" xlink:href="#sprite18"/>
      <use ffdec:characterId="191" height="2.15" id="mc001" transform="matrix(-1.0, 0.0, 0.0, 1.0, 1.15, -2.2)" width="2.1" xlink:href="#sprite18"/>
      <use ffdec:characterId="191" height="2.15" id="mc002" transform="matrix(-1.0, 0.0, 0.0, 1.0, 4.95, -2.35)" width="2.1" xlink:href="#sprite18"/>
      <use ffdec:characterId="191" height="2.15" id="mc003" transform="matrix(-1.0, 0.0, 0.0, 1.0, -0.35, 0.1)" width="2.1" xlink:href="#sprite18"/>
      <use ffdec:characterId="191" height="2.15" id="mc004" transform="matrix(-1.0, 0.0, 0.0, 1.0, 3.6, 0.3)" width="2.1" xlink:href="#sprite18"/>
    </g>
    <g id="sprite18" transform="matrix(1.0, 0.0, 0.0, 1.0, 1.05, 1.1)">
      <use ffdec:characterId="65" height="2.15" transform="matrix(1.0, 0.0, 0.0, 1.0, -1.05, -1.1)" width="2.1" xlink:href="#shape16"/>
    </g>
    <g id="shape16" transform="matrix(1.0, 0.0, 0.0, 1.0, 1.05, 1.1)">
      <path d="M0.75 -0.8 L1.05 -0.05 0.75 0.7 0.0 1.05 -0.75 0.7 -1.05 -0.05 -0.75 -0.8 0.0 -1.1 0.75 -0.8" fill="#000000" fill-opacity="0.5019608" fill-rule="evenodd" stroke="none"/>
    </g>
    <g id="sprite19" transform="matrix(1.0, 0.0, 0.0, 1.0, 5.9, 9.8)">
      <use ffdec:characterId="193" height="19.55" transform="matrix(1.0, 0.0, 0.0, 1.0, -5.9, -9.8)" width="11.75" xlink:href="#shape17"/>
    </g>
    <g id="shape17" transform="matrix(1.0, 0.0, 0.0, 1.0, 5.9, 9.8)">
      <path d="M-5.15 1.25 L-3.15 1.4 -2.75 1.25 -2.75 -0.05 Q-2.75 -3.8 -1.6 -6.45 -0.45 -9.05 1.15 -9.05 2.8 -9.05 3.95 -6.45 5.1 -3.8 5.1 -0.05 5.1 3.7 3.95 6.3 2.8 8.95 1.15 9.0 -0.45 8.95 -1.6 6.3 -2.55 4.2 -2.7 1.45 L-3.15 1.4" fill="none" stroke="#000000" stroke-linecap="round" stroke-linejoin="round" stroke-width="1.5"/>
    </g>
  </defs>
</svg>
