<?xml version="1.0" encoding="UTF-8" standalone="no"?>
<svg xmlns:ffdec="https://www.free-decompiler.com/flash" xmlns:xlink="http://www.w3.org/1999/xlink" ffdec:objectType="frame" height="174.2px" width="140.25px" xmlns="http://www.w3.org/2000/svg">
  <g transform="matrix(1.0, 0.0, 0.0, 1.0, 72.95, 146.55)">
    <use ffdec:characterId="135" height="25.9" id="mc20460" transform="matrix(0.9135, 0.0, 0.0, 1.0, -12.0351, -37.15)" width="29.3" xlink:href="#sprite0"/>
    <use ffdec:characterId="96" height="15.4" id="mc19460" transform="matrix(1.0, 0.0, 0.0, 1.0, -10.85, -14.15)" width="10.6" xlink:href="#sprite1"/>
    <use ffdec:characterId="98" height="16.2" id="mc18460" transform="matrix(1.0, 0.0, 0.0, 1.0, 3.65, -14.1)" width="11.1" xlink:href="#sprite2"/>
    <use ffdec:characterId="102" height="12.1" id="mc17460" transform="matrix(1.0, 0.0, 0.0, 1.0, -10.7, -15.8)" width="10.85" xlink:href="#sprite3"/>
    <use ffdec:characterId="106" height="11.75" id="mc16460" transform="matrix(0.88, 0.0, 0.0, 1.0, -3.728, -15.0)" width="21.2" xlink:href="#sprite5"/>
    <use ffdec:characterId="107" height="24.15" id="mc14460" transform="matrix(0.9659, -0.259, 0.259, 0.9659, 5.2313, -32.2301)" width="11.2" xlink:href="#sprite7"/>
    <use ffdec:characterId="233" height="14.85" id="hide_hat1" transform="matrix(0.9994, 0.0355, -0.0355, 0.9994, -31.5765, -75.1856)" width="15.45" xlink:href="#sprite8"/>
    <use ffdec:characterId="235" height="20.2" id="hide_hat" transform="matrix(0.9994, 0.0355, -0.0355, 0.9994, 9.0441, -83.4998)" width="19.75" xlink:href="#sprite9"/>
    <use ffdec:characterId="237" height="57.7" id="mc10460" transform="matrix(0.9994, 0.0355, -0.0355, 0.9994, -34.617, -89.6026)" width="78.65" xlink:href="#sprite10"/>
    <use ffdec:characterId="212" height="0.0" id="hat" transform="matrix(1.0, 0.0, 0.0, 1.0, 0.0, 0.0)" width="0.0" xlink:href="#sprite11"/>
    <use ffdec:characterId="92" height="24.15" id="mc7460" transform="matrix(0.6135, 0.7896, -0.7896, 0.6135, -11.7179, -36.3023)" width="11.2" xlink:href="#sprite12"/>
    <use ffdec:characterId="224" height="36.95" id="mc6460" transform="matrix(-0.9588, -0.234, -0.234, 0.9588, -11.8438, -29.504)" width="35.1" xlink:href="#sprite13"/>
    <use ffdec:characterId="224" height="36.95" id="mc5460" transform="matrix(-0.9588, -0.234, -0.234, 0.9588, -11.8438, -29.504)" width="35.1" xlink:href="#sprite13"/>
    <use ffdec:characterId="237" height="57.7" id="mc4460" transform="matrix(0.9994, 0.0355, -0.0355, 0.9994, -34.617, -89.6026)" width="78.65" xlink:href="#sprite10"/>
    <use ffdec:characterId="220" height="10.45" id="mc2460" transform="matrix(0.358, -0.9337, 0.9337, 0.358, 9.7167, -11.6894)" width="10.45" xlink:href="#sprite15"/>
  </g>
  <defs>
    <g id="sprite0" transform="matrix(1.0, 0.0, 0.0, 1.0, 0.75, 0.75)">
      <use ffdec:characterId="134" height="25.9" transform="matrix(1.0, 0.0, 0.0, 1.0, -0.75, -0.75)" width="29.3" xlink:href="#shape0"/>
    </g>
    <g id="shape0" transform="matrix(1.0, 0.0, 0.0, 1.0, 0.75, 0.75)">
      <path d="M21.7 1.1 L21.45 6.75 19.8 5.4 Q18.85 9.3 21.15 14.1 20.05 14.7 18.85 13.25 19.15 16.3 20.4 19.4 L18.65 17.85 16.2 24.4 11.75 24.4 10.65 21.85 9.15 22.4 Q10.65 20.55 9.45 18.3 8.4 16.0 8.55 13.95 L8.75 12.65 8.55 13.95 Q6.25 12.35 6.7 7.1 L5.5 7.8 Q6.25 4.4 5.5 1.0 13.45 -0.85 20.5 0.8 L21.7 1.1 M15.45 9.95 L14.4 11.9 13.3 10.35 12.15 11.95 Q11.0 11.3 10.8 8.7 11.0 11.3 12.15 11.95 L13.3 10.35 14.4 11.9 15.45 9.95 M7.5 5.7 Q7.4 6.5 6.7 7.1 7.4 6.5 7.5 5.7 M11.5 21.15 L10.65 21.85 11.5 21.15" fill="#dfdfdf" fill-rule="evenodd" stroke="none"/>
      <path d="M16.2 24.4 L18.65 17.85 20.4 19.4 Q19.15 16.3 18.85 13.25 20.05 14.7 21.15 14.1 18.85 9.3 19.8 5.4 L21.45 6.75 21.7 1.1 Q28.15 2.9 26.45 6.15 24.8 8.45 24.85 11.4 25.2 14.8 27.8 18.35 L25.75 17.6 26.9 24.4 16.2 24.4 M5.5 1.0 Q6.25 4.4 5.5 7.8 L6.7 7.1 Q6.25 12.35 8.55 13.95 8.4 16.0 9.45 18.3 10.65 20.55 9.15 22.4 L10.65 21.85 11.75 24.4 0.55 24.4 2.9 11.75 Q1.65 12.65 0.6 11.95 2.25 9.9 0.6 6.25 -1.45 2.9 3.8 1.4 L5.5 1.0 M4.55 9.85 L2.9 11.75 4.55 9.85" fill="#999999" fill-rule="evenodd" stroke="none"/>
      <path d="M16.2 24.4 L26.9 24.4 25.75 17.6 27.8 18.35 Q25.2 14.8 24.85 11.4 24.8 8.45 26.45 6.15 28.15 2.9 21.7 1.1 L20.5 0.8 Q13.45 -0.85 5.5 1.0 L3.8 1.4 Q-1.45 2.9 0.6 6.25 2.25 9.9 0.6 11.95 1.65 12.65 2.9 11.75 L4.55 9.85 M11.75 24.4 L0.55 24.4 2.9 11.75 M11.75 24.4 L16.2 24.4" fill="none" stroke="#000000" stroke-linecap="round" stroke-linejoin="round" stroke-width="1.5"/>
      <path d="M21.7 1.1 L21.45 6.75 19.8 5.4 Q18.85 9.3 21.15 14.1 20.05 14.7 18.85 13.25 19.15 16.3 20.4 19.4 L18.65 17.85 16.2 24.4 M5.5 1.0 Q6.25 4.4 5.5 7.8 L6.7 7.1 Q7.4 6.5 7.5 5.7 M10.8 8.7 Q11.0 11.3 12.15 11.95 L13.3 10.35 14.4 11.9 15.45 9.95 M8.55 13.95 Q8.4 16.0 9.45 18.3 10.65 20.55 9.15 22.4 L10.65 21.85 11.5 21.15 M8.55 13.95 L8.75 12.65 M10.65 21.85 L11.75 24.4 M6.7 7.1 Q6.25 12.35 8.55 13.95" fill="none" stroke="#000000" stroke-linecap="round" stroke-linejoin="round" stroke-width="1.0"/>
    </g>
    <g id="sprite1" transform="matrix(1.0, 0.0, 0.0, 1.0, 0.75, 0.75)">
      <use ffdec:characterId="95" height="15.4" transform="matrix(1.0, 0.0, 0.0, 1.0, -0.75, -0.75)" width="10.6" xlink:href="#shape1"/>
    </g>
    <g id="shape1" transform="matrix(1.0, 0.0, 0.0, 1.0, 0.75, 0.75)">
      <path d="M1.25 12.95 Q0.55 11.95 0.85 10.15 L0.0 10.15 Q0.95 9.65 1.1 7.4 L1.7 0.8 Q5.5 -0.75 8.3 0.7 L9.05 7.75 Q9.25 11.45 8.2 12.75 L6.35 13.85 3.0 14.05 2.5 13.9 2.55 13.85 2.75 13.25 2.55 12.7 Q2.3 12.45 1.95 12.45 1.65 12.45 1.4 12.7 L1.25 12.95 M3.9 13.85 L4.45 14.1 5.05 13.85 5.3 13.25 5.05 12.7 Q4.8 12.45 4.45 12.45 4.15 12.45 3.9 12.7 3.65 12.95 3.65 13.25 L3.9 13.85" fill="#999999" fill-rule="evenodd" stroke="none"/>
      <path d="M1.25 12.95 L1.4 12.7 Q1.65 12.45 1.95 12.45 2.3 12.45 2.55 12.7 L2.75 13.25 2.55 13.85 2.5 13.9 1.95 14.1 Q1.65 14.1 1.4 13.85 L1.15 13.25 1.25 12.95 M3.9 13.85 L3.65 13.25 Q3.65 12.95 3.9 12.7 4.15 12.45 4.45 12.45 4.8 12.45 5.05 12.7 L5.3 13.25 5.05 13.85 4.45 14.1 3.9 13.85" fill="#ffffff" fill-rule="evenodd" stroke="none"/>
      <path d="M6.35 13.85 L8.2 12.75 Q9.25 11.45 9.05 7.75 L8.3 0.7 Q5.5 -0.75 1.7 0.8 L1.1 7.4 Q0.95 9.65 0.0 10.15 L0.85 10.15 Q0.55 11.95 1.25 12.95" fill="none" stroke="#000000" stroke-linecap="round" stroke-linejoin="round" stroke-width="1.5"/>
      <path d="M1.25 12.95 L1.4 12.7 Q1.65 12.45 1.95 12.45 2.3 12.45 2.55 12.7 L2.75 13.25 2.55 13.85 2.5 13.9 3.0 14.05 6.35 13.85 M3.9 13.85 L3.65 13.25 Q3.65 12.95 3.9 12.7 4.15 12.45 4.45 12.45 4.8 12.45 5.05 12.7 L5.3 13.25 5.05 13.85 4.45 14.1 3.9 13.85 M1.25 12.95 L1.15 13.25 1.4 13.85 Q1.65 14.1 1.95 14.1 L2.5 13.9" fill="none" stroke="#000000" stroke-linecap="round" stroke-linejoin="round" stroke-width="1.0"/>
    </g>
    <g id="sprite2" transform="matrix(1.0, 0.0, 0.0, 1.0, 0.75, 0.75)">
      <use ffdec:characterId="97" height="16.2" transform="matrix(1.0, 0.0, 0.0, 1.0, -0.75, -0.75)" width="11.1" xlink:href="#shape2"/>
    </g>
    <g id="shape2" transform="matrix(1.0, 0.0, 0.0, 1.0, 0.75, 0.75)">
      <path d="M1.3 13.65 Q0.55 12.6 0.9 10.7 L0.0 10.7 Q1.0 10.2 1.15 7.8 L1.75 0.85 Q5.8 -0.8 8.75 0.75 L9.55 8.15 Q9.75 12.1 8.65 13.45 L6.7 14.6 3.15 14.8 2.6 14.65 2.65 14.6 2.9 14.0 2.65 13.4 2.05 13.15 Q1.7 13.15 1.45 13.4 L1.3 13.65 M5.3 14.6 L5.55 14.0 5.3 13.4 Q5.05 13.15 4.7 13.15 4.35 13.15 4.1 13.4 3.85 13.65 3.85 14.0 3.85 14.35 4.1 14.6 L4.7 14.85 5.3 14.6" fill="#999999" fill-rule="evenodd" stroke="none"/>
      <path d="M1.3 13.65 L1.45 13.4 Q1.7 13.15 2.05 13.15 L2.65 13.4 2.9 14.0 2.65 14.6 2.6 14.65 2.05 14.85 1.45 14.6 1.2 14.0 1.3 13.65 M5.3 14.6 L4.7 14.85 4.1 14.6 Q3.85 14.35 3.85 14.0 3.85 13.65 4.1 13.4 4.35 13.15 4.7 13.15 5.05 13.15 5.3 13.4 L5.55 14.0 5.3 14.6" fill="#ffffff" fill-rule="evenodd" stroke="none"/>
      <path d="M6.7 14.6 L8.65 13.45 Q9.75 12.1 9.55 8.15 L8.75 0.75 Q5.8 -0.8 1.75 0.85 L1.15 7.8 Q1.0 10.2 0.0 10.7 L0.9 10.7 Q0.55 12.6 1.3 13.65" fill="none" stroke="#000000" stroke-linecap="round" stroke-linejoin="round" stroke-width="1.5"/>
      <path d="M1.3 13.65 L1.45 13.4 Q1.7 13.15 2.05 13.15 L2.65 13.4 2.9 14.0 2.65 14.6 2.6 14.65 3.15 14.8 6.7 14.6 M5.3 14.6 L4.7 14.85 4.1 14.6 Q3.85 14.35 3.85 14.0 3.85 13.65 4.1 13.4 4.35 13.15 4.7 13.15 5.05 13.15 5.3 13.4 L5.55 14.0 5.3 14.6 M1.3 13.65 L1.2 14.0 1.45 14.6 2.05 14.85 2.6 14.65" fill="none" stroke="#000000" stroke-linecap="round" stroke-linejoin="round" stroke-width="1.0"/>
    </g>
    <g id="sprite3" transform="matrix(1.0, 0.0, 0.0, 1.0, 0.75, 0.75)">
      <use ffdec:characterId="100" height="10.6" id="mc100" transform="matrix(1.0, 0.0, 0.0, 1.0, 0.0, 0.0)" width="9.35" xlink:href="#sprite4"/>
      <use ffdec:characterId="101" height="12.1" transform="matrix(1.0, 0.0, 0.0, 1.0, -0.75, -0.75)" width="10.85" xlink:href="#shape4"/>
    </g>
    <g id="sprite4" transform="matrix(1.0, 0.0, 0.0, 1.0, 0.0, 0.0)">
      <use ffdec:characterId="99" height="10.6" transform="matrix(1.0, 0.0, 0.0, 1.0, 0.0, 0.0)" width="9.35" xlink:href="#shape3"/>
    </g>
    <g id="shape3" transform="matrix(1.0, 0.0, 0.0, 1.0, 0.0, 0.0)">
      <path d="M8.4 10.6 L7.8 10.6 Q3.65 10.6 0.0 9.55 L0.0 0.0 9.35 1.1 9.35 10.6 8.65 10.6 8.4 10.6" fill="#5c1313" fill-rule="evenodd" stroke="none"/>
    </g>
    <g id="shape4" transform="matrix(1.0, 0.0, 0.0, 1.0, 0.75, 0.75)">
      <path d="M8.4 10.6 L8.65 10.6 9.35 10.6 9.35 1.1 0.0 0.0 0.0 9.55 Q3.65 10.6 7.8 10.6 L8.4 10.6 Z" fill="none" stroke="#000000" stroke-linecap="round" stroke-linejoin="round" stroke-width="1.5"/>
    </g>
    <g id="sprite5" transform="matrix(1.0, 0.0, 0.0, 1.0, 0.6, 0.75)">
      <use ffdec:characterId="104" height="10.25" id="mc100" transform="matrix(1.0, 0.0, 0.0, 1.0, 0.0, 0.0)" width="19.85" xlink:href="#sprite6"/>
      <use ffdec:characterId="105" height="11.75" transform="matrix(1.0, 0.0, 0.0, 1.0, -0.6, -0.75)" width="21.2" xlink:href="#shape6"/>
    </g>
    <g id="sprite6" transform="matrix(1.0, 0.0, 0.0, 1.0, 0.0, 0.0)">
      <use ffdec:characterId="103" height="10.25" transform="matrix(1.0, 0.0, 0.0, 1.0, 0.0, 0.0)" width="19.85" xlink:href="#shape5"/>
    </g>
    <g id="shape5" transform="matrix(1.0, 0.0, 0.0, 1.0, 0.0, 0.0)">
      <path d="M6.2 0.3 Q10.65 0.5 19.5 0.0 L19.85 9.7 Q14.15 10.65 6.0 10.0 L6.0 7.4 0.15 7.4 Q-0.2 3.8 0.3 0.15 L6.2 0.3" fill="#5c1313" fill-rule="evenodd" stroke="none"/>
    </g>
    <g id="shape6" transform="matrix(1.0, 0.0, 0.0, 1.0, 0.6, 0.75)">
      <path d="M0.3 0.15 L6.2 0.3 Q10.65 0.5 19.5 0.0 L19.85 9.7 Q14.15 10.65 6.0 10.0 L6.0 7.4 0.15 7.4" fill="none" stroke="#000000" stroke-linecap="round" stroke-linejoin="round" stroke-width="1.5"/>
      <path d="M0.15 7.4 Q-0.2 3.8 0.3 0.15" fill="none" stroke="#000000" stroke-linecap="round" stroke-linejoin="round" stroke-width="1.0"/>
    </g>
    <g id="sprite7" transform="matrix(1.0, 0.0, 0.0, 1.0, 0.75, 0.75)">
      <use ffdec:characterId="3" height="24.15" transform="matrix(1.0, 0.0, 0.0, 1.0, -0.75, -0.75)" width="11.2" xlink:href="#shape7"/>
    </g>
    <g id="shape7" transform="matrix(1.0, 0.0, 0.0, 1.0, 0.75, 0.75)">
      <path d="M3.65 20.35 Q1.8 19.25 1.4 15.5 L0.05 16.9 Q1.4 13.45 0.25 6.9 -0.9 -0.75 3.0 0.1 5.85 -0.15 7.05 6.45 8.2 8.55 9.7 8.05 9.2 9.85 7.7 9.45 9.6 13.1 9.5 16.75 L9.1 18.55 Q8.5 20.1 7.0 20.55 L5.25 20.75 5.15 20.75 3.65 20.35" fill="#999999" fill-rule="evenodd" stroke="none"/>
      <path d="M3.65 20.35 L5.15 20.75 5.25 20.75 7.0 20.55 Q8.5 20.1 9.1 18.55 L9.1 21.7 7.0 20.55 6.4 22.9 5.3 21.1 3.65 22.55 3.65 20.35 M5.15 20.75 L5.3 21.1 5.15 20.75" fill="#ffffff" fill-rule="evenodd" stroke="none"/>
      <path d="M9.1 18.55 L9.5 16.75 Q9.6 13.1 7.7 9.45 9.2 9.85 9.7 8.05 8.2 8.55 7.05 6.45 5.85 -0.15 3.0 0.1 -0.9 -0.75 0.25 6.9 1.4 13.45 0.05 16.9 L1.4 15.5 Q1.8 19.25 3.65 20.35 L5.15 20.75 5.25 20.75 7.0 20.55 Q8.5 20.1 9.1 18.55 M5.3 21.1 L5.15 20.75" fill="none" stroke="#000000" stroke-linecap="round" stroke-linejoin="round" stroke-width="1.5"/>
      <path d="M9.1 18.55 L9.1 21.7 7.0 20.55 6.4 22.9 5.3 21.1 3.65 22.55 3.65 20.35" fill="none" stroke="#000000" stroke-linecap="round" stroke-linejoin="round" stroke-width="1.0"/>
    </g>
    <g id="sprite8" transform="matrix(1.0, 0.0, 0.0, 1.0, -2.2, -21.85)">
      <use ffdec:characterId="232" height="14.85" transform="matrix(1.0, 0.0, 0.0, 1.0, 2.2, 21.85)" width="15.45" xlink:href="#shape8"/>
    </g>
    <g id="shape8" transform="matrix(1.0, 0.0, 0.0, 1.0, -2.2, -21.85)">
      <path d="M2.95 23.95 Q7.65 22.8 11.65 28.55 11.45 30.2 14.75 32.9 L14.8 32.95 Q4.1 29.0 7.5 28.4 L2.95 23.95 M14.75 32.9 L14.8 32.95 14.75 32.9" fill="#bda6bb" fill-rule="evenodd" stroke="none"/>
      <path d="M14.8 32.95 L16.85 35.15 Q14.0 36.65 10.15 35.25 2.65 30.95 2.95 23.95 L7.5 28.4 Q4.1 29.0 14.8 32.95" fill="#dec5dc" fill-rule="evenodd" stroke="none"/>
      <path d="M12.15 22.95 L12.15 23.0 Q16.65 23.8 16.9 26.45 L14.75 32.9 11.65 28.55 Q7.65 22.8 2.95 23.95 3.95 23.1 6.85 22.75 L12.15 22.95" fill="#777777" fill-rule="evenodd" stroke="none"/>
      <path d="M12.15 22.95 L6.85 22.75 Q3.95 23.1 2.95 23.95 7.65 22.8 11.65 28.55 L14.75 32.9 16.9 26.45 Q16.65 23.8 12.15 23.0 M14.8 32.95 L16.85 35.15 Q14.0 36.65 10.15 35.25 2.65 30.95 2.95 23.95 M14.8 32.95 L14.75 32.9 14.8 32.95" fill="none" stroke="#000000" stroke-linecap="round" stroke-linejoin="round" stroke-width="1.5"/>
      <path d="M7.5 28.4 Q4.1 29.0 14.8 32.95" fill="none" stroke="#000000" stroke-linecap="round" stroke-linejoin="round" stroke-width="1.0"/>
    </g>
    <g id="sprite9" transform="matrix(1.0, 0.0, 0.0, 1.0, -42.5, -12.1)">
      <use ffdec:characterId="234" height="20.2" transform="matrix(1.0, 0.0, 0.0, 1.0, 42.5, 12.1)" width="19.75" xlink:href="#shape9"/>
    </g>
    <g id="shape9" transform="matrix(1.0, 0.0, 0.0, 1.0, -42.5, -12.1)">
      <path d="M61.3 12.95 L61.3 12.9 61.3 12.95 57.75 18.65 Q59.2 19.55 53.3 26.45 L50.75 25.0 52.2 22.15 Q55.1 13.2 61.3 12.9 L61.7 12.35 61.3 12.95" fill="#bda6bb" fill-rule="evenodd" stroke="none"/>
      <path d="M61.3 12.95 Q62.35 21.05 57.9 28.5 55.5 31.25 54.1 31.55 L53.3 26.45 Q59.2 19.55 57.75 18.65 L61.3 12.95" fill="#dec5dc" fill-rule="evenodd" stroke="none"/>
      <path d="M47.4 16.8 Q54.25 12.55 61.3 12.9 55.1 13.2 52.2 22.15 L50.75 25.0 43.25 21.3 Q43.45 20.05 45.15 18.6 L47.4 16.9 47.4 16.8" fill="#777777" fill-rule="evenodd" stroke="none"/>
      <path d="M61.3 12.9 L61.3 12.95 Q62.35 21.05 57.9 28.5 55.5 31.25 54.1 31.55 L53.3 26.45 50.75 25.0 52.2 22.15 Q55.1 13.2 61.3 12.9 54.25 12.55 47.4 16.8 M47.4 16.9 L45.15 18.6 Q43.45 20.05 43.25 21.3 L50.75 25.0" fill="none" stroke="#000000" stroke-linecap="round" stroke-linejoin="round" stroke-width="1.5"/>
      <path d="M57.75 18.65 Q59.2 19.55 53.3 26.45" fill="none" stroke="#000000" stroke-linecap="round" stroke-linejoin="round" stroke-width="1.0"/>
    </g>
    <g id="sprite10" transform="matrix(1.0, 0.0, 0.0, 1.0, 1.35, -7.55)">
      <use ffdec:characterId="236" height="57.7" transform="matrix(1.0, 0.0, 0.0, 1.0, -1.35, 7.55)" width="78.65" xlink:href="#shape10"/>
    </g>
    <g id="shape10" transform="matrix(1.0, 0.0, 0.0, 1.0, 1.35, -7.55)">
      <path d="M55.35 32.6 Q60.05 35.7 65.3 37.5 70.65 39.35 76.55 39.9 71.9 41.15 68.65 44.75 L74.9 46.0 Q70.85 47.7 67.35 51.8 64.8 52.25 63.2 46.5 62.95 43.55 61.6 40.7 59.65 36.6 55.35 32.6 M8.3 57.1 Q6.5 56.15 4.65 55.55 L0.65 54.05 Q3.0 51.85 6.0 52.45 L6.1 52.25 Q6.85 52.0 7.25 51.15 6.85 52.0 6.1 52.25 L3.15 50.15 Q0.45 48.7 -0.6 48.4 5.85 44.9 9.55 36.7 7.5 42.75 7.65 48.4 L7.7 48.4 Q7.7 50.15 7.25 51.15 6.3 55.0 8.3 57.1 M66.65 47.3 L68.65 44.75 66.65 47.3" fill="#999999" fill-rule="evenodd" stroke="none"/>
      <path d="M38.75 15.35 L41.1 18.2 Q47.4 27.3 55.35 32.6 59.65 36.6 61.6 40.7 52.95 37.8 44.45 29.15 L44.4 29.1 42.4 26.35 41.9 25.75 38.7 22.35 Q36.55 20.65 35.1 20.9 L32.9 22.3 32.5 22.5 32.4 22.55 Q30.85 23.15 29.45 22.95 L28.15 22.55 27.75 22.3 27.55 22.25 27.25 22.0 Q25.9 21.0 24.75 19.2 L24.2 18.3 23.65 19.7 23.6 20.0 22.75 21.7 22.15 22.35 22.05 22.4 Q20.65 23.5 18.55 23.35 L18.25 23.25 18.15 23.25 16.45 22.95 Q12.65 33.0 10.95 44.55 10.1 47.25 7.7 48.4 L7.65 48.4 Q7.5 42.75 9.55 36.7 L10.15 35.25 11.1 31.8 11.65 28.55 11.8 27.25 Q11.85 24.9 12.15 22.95 13.4 14.45 18.95 11.1 19.65 12.8 23.3 12.5 27.9 13.05 27.8 11.4 L27.05 10.05 Q33.9 10.55 38.55 15.1 L38.75 15.35" fill="#dfdfdf" fill-rule="evenodd" stroke="none"/>
      <path d="M67.35 51.8 L65.1 54.85 Q61.9 58.9 54.4 61.0 26.95 68.3 13.2 60.4 10.8 58.4 8.3 57.1 6.3 55.0 7.25 51.15 7.7 50.15 7.7 48.4 10.1 47.25 10.95 44.55 12.65 33.0 16.45 22.95 L18.15 23.25 17.15 27.25 Q14.95 37.2 17.2 49.0 L18.25 53.85 Q19.0 54.45 19.85 54.9 L21.8 56.1 24.85 57.5 29.6 58.75 29.75 58.8 33.9 59.2 38.1 58.9 43.15 57.8 47.0 56.4 50.55 54.8 51.15 54.5 53.85 53.0 56.95 51.05 53.7 44.9 Q48.45 35.0 44.45 29.15 52.95 37.8 61.6 40.7 62.95 43.55 63.2 46.5 64.8 52.25 67.35 51.8" fill="#b8b8b8" fill-rule="evenodd" stroke="none"/>
      <path d="M38.75 15.35 Q42.5 16.4 45.7 17.9 49.35 19.7 52.2 22.15 L54.65 24.5 55.85 25.95 57.9 28.5 65.3 37.5 Q60.05 35.7 55.35 32.6 47.4 27.3 41.1 18.2 L38.75 15.35" fill="#777777" fill-rule="evenodd" stroke="none"/>
      <path d="M18.95 11.1 L18.9 10.9 Q23.45 6.0 26.7 9.55 L27.05 10.05 27.8 11.4 Q27.9 13.05 23.3 12.5 19.65 12.8 18.95 11.1" fill="#000000" fill-rule="evenodd" stroke="none"/>
      <path d="M42.4 26.35 L44.4 29.1 44.4 29.15 Q42.8 33.7 42.4 26.35 M53.85 53.0 L51.15 54.5 Q49.6 49.5 51.65 50.5 53.65 51.8 53.85 53.0 M50.55 54.8 L47.0 56.4 43.15 57.8 38.1 58.9 33.9 59.2 29.75 58.8 Q31.8 54.3 33.7 58.7 35.95 53.15 38.1 58.9 38.3 48.55 40.45 51.15 42.6 53.7 43.15 57.8 44.0 51.8 47.0 56.4 47.0 49.85 50.55 54.8 M29.6 58.75 L24.85 57.5 21.8 56.1 19.85 54.9 Q19.0 54.45 18.25 53.85 L17.2 49.0 Q18.05 48.45 18.55 48.6 L18.8 48.7 Q19.25 49.2 19.25 50.85 20.35 49.25 20.95 51.95 L21.4 51.9 Q21.95 52.1 22.5 54.55 L23.1 53.05 Q24.55 52.5 24.95 56.7 25.4 50.8 27.8 51.65 28.75 52.9 29.6 58.75 M17.15 27.25 L18.15 23.25 18.25 23.25 18.55 23.35 Q20.65 23.5 22.05 22.4 L22.15 22.35 Q22.8 27.55 20.8 28.1 20.3 28.1 19.85 27.45 L19.8 27.4 Q18.8 31.3 17.15 27.25 M22.75 21.7 L23.6 20.0 23.65 19.7 24.2 18.3 24.75 19.2 Q25.9 21.0 27.25 22.0 L27.55 22.25 27.75 22.3 Q26.55 26.25 24.75 20.6 24.5 25.6 22.75 21.7 M28.15 22.55 L29.45 22.95 Q30.85 23.15 32.4 22.55 32.6 27.15 30.6 27.55 29.0 27.35 28.15 22.55 M32.5 22.5 L32.9 22.3 35.1 20.9 Q36.55 20.65 38.7 22.35 L41.9 25.75 Q40.25 30.25 38.5 23.55 37.65 27.7 35.1 20.95 34.75 28.55 32.5 22.5 M24.75 19.2 L24.75 20.6 24.75 19.2 M35.1 20.9 L35.1 20.95 35.1 20.9 M38.5 23.55 L38.7 22.35 38.5 23.55 M19.8 27.4 Q19.1 26.25 18.55 23.35 19.1 26.25 19.8 27.4 M33.7 58.7 L33.9 59.2 33.7 58.7 M18.4 52.25 L19.25 50.85 18.4 52.25 M21.8 56.1 L22.5 54.55 21.8 56.1 M24.95 56.7 L24.85 57.5 24.95 56.7 M19.85 54.9 Q20.4 52.5 20.95 51.95 20.4 52.5 19.85 54.9" fill="#ffffff" fill-rule="evenodd" stroke="none"/>
      <path d="M41.9 25.75 L42.4 26.35 Q42.8 33.7 44.4 29.15 L44.4 29.1 44.45 29.15 44.4 29.15 44.45 29.15 Q48.45 35.0 53.7 44.9 41.55 37.7 32.05 45.65 25.4 42.2 20.5 46.5 18.45 37.05 19.85 27.45 20.3 28.1 20.8 28.1 22.8 27.55 22.15 22.35 L22.75 21.7 Q24.5 25.6 24.75 20.6 26.55 26.25 27.75 22.3 L28.15 22.55 Q29.0 27.35 30.6 27.55 32.6 27.15 32.4 22.55 L32.5 22.5 Q34.75 28.55 35.1 20.95 37.65 27.7 38.5 23.55 40.25 30.25 41.9 25.75" fill="#503333" fill-rule="evenodd" stroke="none"/>
      <path d="M53.7 44.9 L56.95 51.05 53.85 53.0 Q53.65 51.8 51.65 50.5 49.6 49.5 51.15 54.5 L50.55 54.8 Q47.0 49.85 47.0 56.4 44.0 51.8 43.15 57.8 42.6 53.7 40.45 51.15 38.3 48.55 38.1 58.9 35.95 53.15 33.7 58.7 31.8 54.3 29.75 58.8 L29.6 58.75 Q28.75 52.9 27.8 51.65 25.4 50.8 24.95 56.7 24.55 52.5 23.1 53.05 L22.5 54.55 Q21.95 52.1 21.4 51.9 L20.95 51.95 Q20.35 49.25 19.25 50.85 19.25 49.2 18.8 48.7 18.8 48.1 20.5 46.6 L20.5 46.5 Q25.4 42.2 32.05 45.65 41.55 37.7 53.7 44.9" fill="#671d1d" fill-rule="evenodd" stroke="none"/>
      <path d="M17.2 49.0 Q14.95 37.2 17.15 27.25 18.8 31.3 19.8 27.4 L19.85 27.45 Q18.45 37.05 20.5 46.5 L20.5 46.6 Q18.8 48.1 18.8 48.7 L18.55 48.6 Q18.05 48.45 17.2 49.0" fill="#362626" fill-rule="evenodd" stroke="none"/>
      <path d="M65.3 37.5 L57.9 28.5 55.85 25.95 54.65 24.5 52.2 22.15 Q49.35 19.7 45.7 17.9 42.5 16.4 38.75 15.35 L41.1 18.2 Q47.4 27.3 55.35 32.6 60.05 35.7 65.3 37.5 70.65 39.35 76.55 39.9 71.9 41.15 68.65 44.75 L74.9 46.0 Q70.85 47.7 67.35 51.8 L65.1 54.85 Q61.9 58.9 54.4 61.0 26.95 68.3 13.2 60.4 10.8 58.4 8.3 57.1 6.5 56.15 4.65 55.55 L0.65 54.05 Q3.0 51.85 6.0 52.45 L6.1 52.25 3.15 50.15 Q0.45 48.7 -0.6 48.4 5.85 44.9 9.55 36.7 L10.15 35.25 11.1 31.8 11.65 28.55 11.8 27.25 Q11.85 24.9 12.15 22.95 13.4 14.45 18.95 11.1 L18.9 10.9 M26.7 9.55 L27.05 10.05 Q33.9 10.55 38.55 15.1 L38.75 15.35 M61.6 40.7 Q59.65 36.6 55.35 32.6 M7.7 48.4 Q7.7 50.15 7.25 51.15 6.3 55.0 8.3 57.1 M67.35 51.8 Q64.8 52.25 63.2 46.5 62.95 43.55 61.6 40.7 M68.65 44.75 L66.65 47.3 M7.65 48.4 Q7.5 42.75 9.55 36.7 M6.1 52.25 L6.0 52.45 M7.25 51.15 Q6.85 52.0 6.1 52.25" fill="none" stroke="#000000" stroke-linecap="round" stroke-linejoin="round" stroke-width="1.5"/>
      <path d="M18.9 10.9 Q23.45 6.0 26.7 9.55 M41.9 25.75 L42.4 26.35 44.4 29.1 44.45 29.15 Q48.45 35.0 53.7 44.9 L56.95 51.05 53.85 53.0 51.15 54.5 50.55 54.8 47.0 56.4 43.15 57.8 38.1 58.9 33.9 59.2 29.75 58.8 29.6 58.75 24.85 57.5 21.8 56.1 19.85 54.9 Q19.0 54.45 18.25 53.85 L17.2 49.0 Q14.95 37.2 17.15 27.25 L18.15 23.25 16.45 22.95 M44.4 29.1 L44.4 29.15 44.45 29.15 M42.4 26.35 Q42.8 33.7 44.4 29.15 M27.05 10.05 L27.8 11.4 Q27.9 13.05 23.3 12.5 19.65 12.8 18.95 11.1 M18.15 23.25 L18.25 23.25 18.55 23.35 Q20.65 23.5 22.05 22.4 L22.15 22.35 22.75 21.7 23.6 20.0 23.65 19.7 24.2 18.3 24.75 19.2 Q25.9 21.0 27.25 22.0 L27.55 22.25 27.75 22.3 28.15 22.55 29.45 22.95 Q30.85 23.15 32.4 22.55 L32.5 22.5 32.9 22.3 35.1 20.9 Q36.55 20.65 38.7 22.35 L41.9 25.75 Q40.25 30.25 38.5 23.55 37.65 27.7 35.1 20.95 34.75 28.55 32.5 22.5 M22.75 21.7 Q24.5 25.6 24.75 20.6 L24.75 19.2 M24.75 20.6 Q26.55 26.25 27.75 22.3 M38.7 22.35 L38.5 23.55 M35.1 20.95 L35.1 20.9 M19.85 27.45 L19.8 27.4 Q18.8 31.3 17.15 27.25 M17.2 49.0 Q18.05 48.45 18.55 48.6 L18.8 48.7 Q18.8 48.1 20.5 46.6 L20.5 46.5 Q18.45 37.05 19.85 27.45 20.3 28.1 20.8 28.1 22.8 27.55 22.15 22.35 M53.7 44.9 Q41.55 37.7 32.05 45.65 25.4 42.2 20.5 46.5 M18.55 23.35 Q19.1 26.25 19.8 27.4 M28.15 22.55 Q29.0 27.35 30.6 27.55 32.6 27.15 32.4 22.55 M33.9 59.2 L33.7 58.7 Q31.8 54.3 29.75 58.8 M33.7 58.7 Q35.95 53.15 38.1 58.9 38.3 48.55 40.45 51.15 42.6 53.7 43.15 57.8 44.0 51.8 47.0 56.4 47.0 49.85 50.55 54.8 M18.8 48.7 Q19.25 49.2 19.25 50.85 20.35 49.25 20.95 51.95 L21.4 51.9 Q21.95 52.1 22.5 54.55 L23.1 53.05 Q24.55 52.5 24.95 56.7 25.4 50.8 27.8 51.65 28.75 52.9 29.6 58.75 M24.85 57.5 L24.95 56.7 M22.5 54.55 L21.8 56.1 M19.25 50.85 L18.4 52.25 M20.95 51.95 Q20.4 52.5 19.85 54.9 M53.85 53.0 Q53.65 51.8 51.65 50.5 49.6 49.5 51.15 54.5" fill="none" stroke="#000000" stroke-linecap="round" stroke-linejoin="round" stroke-width="1.0"/>
    </g>
    <g id="sprite12" transform="matrix(1.0, 0.0, 0.0, 1.0, 0.75, 0.75)">
      <use ffdec:characterId="1" height="24.15" transform="matrix(1.0, 0.0, 0.0, 1.0, -0.75, -0.75)" width="11.2" xlink:href="#shape11"/>
    </g>
    <g id="shape11" transform="matrix(1.0, 0.0, 0.0, 1.0, 0.75, 0.75)">
      <path d="M0.6 18.55 L0.2 16.75 Q0.1 13.1 2.0 9.45 0.5 9.85 0.0 8.05 1.5 8.55 2.65 6.45 3.85 -0.15 6.7 0.1 10.6 -0.75 9.45 6.9 8.3 13.45 9.65 16.9 L8.3 15.5 Q7.9 19.25 6.05 20.35 L4.55 20.75 4.45 20.75 2.7 20.55 Q1.2 20.1 0.6 18.55" fill="#999999" fill-rule="evenodd" stroke="none"/>
      <path d="M6.05 20.35 L6.05 22.55 4.4 21.1 3.3 22.9 2.7 20.55 0.6 21.7 0.6 18.55 Q1.2 20.1 2.7 20.55 L4.45 20.75 4.55 20.75 6.05 20.35 M4.4 21.1 L4.55 20.75 4.4 21.1" fill="#ffffff" fill-rule="evenodd" stroke="none"/>
      <path d="M0.6 18.55 L0.2 16.75 Q0.1 13.1 2.0 9.45 0.5 9.85 0.0 8.05 1.5 8.55 2.65 6.45 3.85 -0.15 6.7 0.1 10.6 -0.75 9.45 6.9 8.3 13.45 9.65 16.9 L8.3 15.5 Q7.9 19.25 6.05 20.35 L4.55 20.75 4.4 21.1 M0.6 18.55 Q1.2 20.1 2.7 20.55 L4.45 20.75 4.55 20.75" fill="none" stroke="#000000" stroke-linecap="round" stroke-linejoin="round" stroke-width="1.5"/>
      <path d="M6.05 20.35 L6.05 22.55 4.4 21.1 3.3 22.9 2.7 20.55 0.6 21.7 0.6 18.55" fill="none" stroke="#000000" stroke-linecap="round" stroke-linejoin="round" stroke-width="1.0"/>
    </g>
    <g id="sprite13" transform="matrix(1.0, 0.0, 0.0, 1.0, 15.9, 18.85)">
      <use ffdec:characterId="222" height="35.3" id="mc100" transform="matrix(1.0, 0.0, 0.0, 1.0, -15.15, -18.1)" width="33.45" xlink:href="#sprite14"/>
      <use ffdec:characterId="223" height="36.95" transform="matrix(1.0, 0.0, 0.0, 1.0, -15.9, -18.85)" width="35.1" xlink:href="#shape13"/>
    </g>
    <g id="sprite14" transform="matrix(1.0, 0.0, 0.0, 1.0, 16.7, 17.65)">
      <use ffdec:characterId="221" height="35.3" transform="matrix(1.0, 0.0, 0.0, 1.0, -16.7, -17.65)" width="33.45" xlink:href="#shape12"/>
    </g>
    <g id="shape12" transform="matrix(1.0, 0.0, 0.0, 1.0, 16.7, 17.65)">
      <path d="M0.85 -15.4 Q7.4 -16.85 8.4 -11.0 18.5 -10.25 16.4 4.05 14.85 14.75 2.65 17.55 -4.8 18.7 -13.8 7.55 -15.25 2.7 -12.65 -2.55 -16.35 -2.75 -16.7 -6.45 -13.55 -12.75 -7.35 -17.65 -4.1 -17.05 -3.4 -13.55 -1.25 -15.05 0.85 -15.4" fill="#ff0000" fill-rule="evenodd" stroke="none"/>
    </g>
    <g id="shape13" transform="matrix(1.0, 0.0, 0.0, 1.0, 15.9, 18.85)">
      <path d="M-1.85 -14.0 Q-2.55 -17.5 -5.8 -18.1 -12.0 -13.2 -15.15 -6.9 -14.8 -3.2 -11.1 -3.0" fill="none" stroke="#000000" stroke-linecap="round" stroke-linejoin="round" stroke-width="1.5"/>
      <path d="M9.95 -11.45 Q8.95 -17.3 2.4 -15.85 0.3 -15.5 -1.85 -14.0 -5.05 -11.8 -8.5 -7.25 -10.15 -5.1 -11.1 -3.0 -13.7 2.25 -12.25 7.1 -3.25 18.25 4.2 17.1 16.4 14.3 17.95 3.6 20.05 -10.7 9.95 -11.45 L9.3 -11.45 Q0.3 -6.3 -4.8 5.8 -5.8 9.1 -2.55 10.4" fill="none" stroke="#000000" stroke-linecap="round" stroke-linejoin="round" stroke-width="1.8"/>
    </g>
    <g id="sprite15" transform="matrix(1.0, 0.0, 0.0, 1.0, 0.8, 0.8)">
      <use ffdec:characterId="219" height="10.45" transform="matrix(1.0, 0.0, 0.0, 1.0, -0.8, -0.8)" width="10.45" xlink:href="#shape14"/>
    </g>
    <g id="shape14" transform="matrix(1.0, 0.0, 0.0, 1.0, 0.8, 0.8)">
      <path d="M7.6 7.6 Q6.3 8.9 4.45 8.9 2.6 8.9 1.25 7.6 -0.05 6.3 -0.05 4.45 -0.05 2.6 1.25 1.25 2.6 -0.05 4.45 -0.05 6.3 -0.05 7.6 1.25 8.9 2.6 8.9 4.45 8.9 6.3 7.6 7.6" fill="#999999" fill-rule="evenodd" stroke="none"/>
      <path d="M7.6 7.6 Q6.3 8.9 4.45 8.9 2.6 8.9 1.25 7.6 -0.05 6.3 -0.05 4.45 -0.05 2.6 1.25 1.25 2.6 -0.05 4.45 -0.05 6.3 -0.05 7.6 1.25 8.9 2.6 8.9 4.45 8.9 6.3 7.6 7.6 Z" fill="none" stroke="#000000" stroke-linecap="round" stroke-linejoin="round" stroke-width="1.5"/>
    </g>
  </defs>
</svg>
