<?xml version="1.0" encoding="UTF-8" standalone="no"?>
<svg xmlns:ffdec="https://www.free-decompiler.com/flash" xmlns:xlink="http://www.w3.org/1999/xlink" ffdec:objectType="frame" height="125.05px" width="108.9px" xmlns="http://www.w3.org/2000/svg">
  <g transform="matrix(1.0, 0.0, 0.0, 1.0, 51.6, 123.65)">
    <use ffdec:characterId="637" height="18.85" id="mc1730" transform="matrix(0.901, 0.4212, -0.4212, 0.901, -10.3587, -31.344)" width="10.9" xlink:href="#sprite0"/>
    <use ffdec:characterId="638" height="22.1" transform="matrix(0.9904, 0.0694, -0.0694, 0.9904, -46.7907, -28.0949)" width="96.95" xlink:href="#shape2"/>
    <use ffdec:characterId="637" height="18.85" id="mc1530" transform="matrix(0.9377, 0.3327, -0.3327, 0.9377, -3.5806, -26.9547)" width="10.9" xlink:href="#sprite0"/>
    <use ffdec:characterId="640" height="21.6" id="mc1430" transform="matrix(0.9974, 0.0654, -0.0654, 0.9974, -2.8657, -32.8688)" width="21.3" xlink:href="#sprite2"/>
    <use ffdec:characterId="642" height="22.3" id="mc1330" transform="matrix(0.982, 0.1823, -0.1823, 0.982, -10.7198, -46.4979)" width="26.9" xlink:href="#sprite4"/>
    <use ffdec:characterId="644" height="27.0" id="mc1230" transform="matrix(0.9353, 0.3456, -0.3456, 0.9353, -41.8307, -61.0528)" width="23.95" xlink:href="#sprite6"/>
    <use ffdec:characterId="646" height="27.9" id="mc1130" transform="matrix(0.999, 0.014, -0.014, 0.999, -27.4365, -54.2618)" width="6.1" xlink:href="#sprite8"/>
    <use ffdec:characterId="649" height="14.2" id="mc1030" transform="matrix(0.9843, -0.1254, -0.1254, -0.9843, -20.823, -18.6513)" width="18.3" xlink:href="#sprite10"/>
    <use ffdec:characterId="651" height="32.5" id="mc930" transform="matrix(0.969, 0.2374, -0.2374, 0.969, -27.2085, -64.6358)" width="55.05" xlink:href="#sprite13"/>
    <use ffdec:characterId="649" height="14.2" id="mc830" transform="matrix(0.3324, -0.9349, 0.9349, 0.3324, -5.0406, -14.9577)" width="18.3" xlink:href="#sprite10"/>
    <use ffdec:characterId="386" height="8.3" transform="matrix(0.9974, 0.0654, -0.0654, 0.9974, -21.4392, -38.6967)" width="8.65" xlink:href="#shape16"/>
    <use ffdec:characterId="653" height="27.9" id="mc630" transform="matrix(-0.7272, 0.6747, 0.6747, 0.7272, 15.2972, -41.4117)" width="5.7" xlink:href="#sprite15"/>
    <use ffdec:characterId="655" height="40.1" id="mc530" transform="matrix(0.969, 0.2374, -0.2374, 0.969, -25.3538, -88.2714)" width="60.4" xlink:href="#sprite17"/>
    <use ffdec:characterId="660" height="63.7" id="hide_hat" transform="matrix(0.969, 0.2374, -0.2374, 0.969, -33.3466, -119.3342)" width="88.85" xlink:href="#sprite19"/>
    <use ffdec:characterId="662" height="9.6" id="mc330" transform="matrix(-0.9814, -0.182, -0.182, 0.9814, 10.3725, -43.0495)" width="22.35" xlink:href="#sprite23"/>
    <use ffdec:characterId="664" height="8.05" id="mc230" transform="matrix(0.9814, 0.182, -0.182, 0.9814, -27.4004, -50.2634)" width="10.0" xlink:href="#sprite25"/>
    <use ffdec:characterId="671" height="0.0" id="hat" transform="matrix(1.0, 0.0, 0.0, 1.0, -38.85, -109.0)" width="0.0" xlink:href="#sprite27"/>
    <use ffdec:characterId="669" height="29.05" id="mc030" transform="matrix(-0.7618, 0.6358, 0.6358, 0.7618, 31.2634, -56.5078)" width="23.95" xlink:href="#sprite28"/>
  </g>
  <defs>
    <g id="sprite0" transform="matrix(1.0, 0.0, 0.0, 1.0, 4.95, 9.5)">
      <use ffdec:characterId="635" height="3.3" id="mc100" transform="matrix(1.0, 0.0, 0.0, 1.0, -3.65, 3.05)" width="8.7" xlink:href="#sprite1"/>
      <use ffdec:characterId="636" height="18.85" transform="matrix(1.0, 0.0, 0.0, 1.0, -4.95, -9.5)" width="10.9" xlink:href="#shape1"/>
    </g>
    <g id="sprite1" transform="matrix(1.0, 0.0, 0.0, 1.0, 4.35, 1.65)">
      <use ffdec:characterId="634" height="3.3" transform="matrix(1.0, 0.0, 0.0, 1.0, -4.35, -1.65)" width="8.7" xlink:href="#shape0"/>
    </g>
    <g id="shape0" transform="matrix(1.0, 0.0, 0.0, 1.0, 4.35, 1.65)">
      <path d="M-4.35 -0.85 L4.0 -1.65 4.35 0.75 -4.2 1.65 -4.35 -0.85" fill="#ff0000" fill-rule="evenodd" stroke="none"/>
    </g>
    <g id="shape1" transform="matrix(1.0, 0.0, 0.0, 1.0, 4.95, 9.5)">
      <path d="M-3.65 3.85 L-4.05 -6.3 Q-4.1 -7.15 -3.15 -7.75 -2.1 -8.4 -0.55 -8.55 L2.1 -8.25 Q3.15 -7.75 3.3 -7.0 L3.35 -6.85 3.35 -6.65 4.7 3.05 -3.65 3.85 M5.05 5.55 L5.05 5.7 Q5.15 6.65 3.9 7.45 2.7 8.25 0.95 8.4 -0.8 8.55 -2.15 7.95 -3.45 7.45 -3.55 6.5 L-3.55 6.35 -3.5 6.35 4.7 5.5 5.05 5.55" fill="#000000" fill-rule="evenodd" stroke="none"/>
      <path d="M-3.65 3.85 L-4.05 -6.3 Q-4.1 -7.15 -3.15 -7.75 -2.1 -8.4 -0.55 -8.55 L2.1 -8.25 Q3.15 -7.75 3.3 -7.0 L3.35 -6.85 3.35 -6.65 4.7 3.05 5.05 5.45 5.05 5.55 5.05 5.7 Q5.15 6.65 3.9 7.45 2.7 8.25 0.95 8.4 -0.8 8.55 -2.15 7.95 -3.45 7.45 -3.55 6.5 L-3.55 6.35 -3.55 6.1 -3.65 3.85 4.7 3.05 M-3.55 6.35 L-3.5 6.35 4.7 5.5" fill="none" stroke="#000000" stroke-linecap="round" stroke-linejoin="round" stroke-width="1.8"/>
    </g>
    <g id="shape2" transform="matrix(1.0, 0.0, 0.0, 1.0, 0.75, 0.75)">
      <path d="M90.15 0.25 L90.5 0.1 90.55 0.1 90.15 0.25 90.55 0.1 Q91.35 0.35 93.0 2.55 93.25 3.2 92.8 4.4 92.3 5.6 92.5 6.15 L94.75 8.8 Q95.0 9.45 94.05 11.55 93.15 13.6 93.4 14.3 L93.5 15.5 93.25 16.85 93.1 18.2 93.05 18.2 90.15 19.45 86.65 20.55 83.5 20.05 83.1 19.95 79.05 18.5 75.3 16.95 Q73.4 16.15 72.8 15.25 L73.1 15.15 76.65 16.95 Q81.7 19.45 83.2 19.95 L83.5 20.05 83.2 19.95 Q81.7 19.45 76.65 16.95 L73.1 15.15 72.8 15.25 72.6 14.9 72.6 14.85 73.3 14.85 Q74.0 14.6 74.75 13.0 L74.9 12.65 Q75.45 11.25 75.4 10.15 L75.15 9.0 74.65 7.95 Q74.15 7.4 73.05 7.35 L73.0 7.35 73.6 6.9 Q74.15 6.55 75.25 6.15 L90.15 0.25 M73.6 6.9 Q75.65 7.45 75.7 10.1 L75.4 10.15 75.7 10.1 Q75.65 7.45 73.6 6.9 M82.6 8.7 L75.7 10.1 75.7 10.55 75.2 13.15 74.75 13.0 75.2 13.15 75.7 10.55 75.7 10.1 82.6 8.7 M81.65 15.1 L75.2 13.15 Q74.8 14.2 74.1 14.7 L73.1 15.15 72.6 14.9 73.1 15.15 74.1 14.7 Q74.8 14.2 75.2 13.15 L81.65 15.1" fill="#ff9900" fill-rule="evenodd" stroke="none"/>
      <path d="M70.0 13.45 L69.1 13.9 67.3 13.8 66.9 13.0 66.9 12.95 66.65 12.25 67.5 11.65 Q67.9 11.25 67.7 10.65 L67.05 10.05 66.9 10.0 66.9 9.9 67.0 9.5 67.25 8.15 67.2 7.3 Q67.4 6.9 68.4 6.45 69.6 6.0 70.75 7.15 L70.85 7.25 70.3 9.25 Q69.8 11.7 69.85 12.75 L70.0 13.45 69.85 12.75 Q69.8 11.7 70.3 9.25 L70.85 7.25 71.2 7.7 71.6 8.4 Q72.15 9.7 71.75 11.15 71.45 12.3 70.55 13.1 L70.0 13.45 M67.65 9.5 L67.0 9.5 67.65 9.5 M67.95 9.75 Q68.7 11.05 67.9 12.15 L66.95 12.95 66.9 12.95 66.95 12.95 67.9 12.15 Q68.7 11.05 67.95 9.75" fill="#ec8e02" fill-rule="evenodd" stroke="none"/>
      <path d="M71.25 7.35 Q71.25 7.1 71.4 6.95 71.7 6.8 72.15 6.95 L72.85 7.25 73.0 7.35 73.05 7.35 Q74.15 7.4 74.65 7.95 L75.15 9.0 75.4 10.15 Q75.45 11.25 74.9 12.65 L74.75 13.0 Q74.0 14.6 73.3 14.85 L72.6 14.85 72.2 14.6 72.05 14.65 71.75 14.65 71.2 14.5 70.7 13.5 71.1 13.0 Q73.4 9.55 71.25 7.35 73.4 9.55 71.1 13.0 L70.7 13.5 70.6 13.25 70.55 13.1 Q71.45 12.3 71.75 11.15 72.15 9.7 71.6 8.4 L71.2 7.7 71.25 7.35 M74.95 10.2 L75.4 10.15 74.95 10.2 M72.05 14.65 L71.9 14.55 72.85 7.25 71.9 14.55 72.05 14.65 M74.25 12.85 L74.75 13.0 74.25 12.85" fill="#543201" fill-rule="evenodd" stroke="none"/>
      <path d="M64.7 12.85 L60.8 12.8 60.7 12.75 59.05 12.65 64.7 12.85 59.05 12.65 58.9 12.6 58.25 12.45 56.7 12.35 54.8 12.45 47.55 12.6 39.95 12.3 31.75 11.85 23.1 11.6 15.6 11.1 12.8 10.7 25.2 11.25 54.8 12.45 25.2 11.25 12.8 10.7 10.6 10.25 8.15 10.25 7.0 10.1 6.8 10.2 6.45 10.3 3.85 10.2 2.85 10.0 6.45 10.3 2.85 10.0 2.15 9.65 Q0.9 9.65 0.7 9.05 0.4 8.4 0.95 7.85 L1.1 7.75 Q1.3 7.15 2.4 7.0 L4.0 6.95 5.3 7.1 2.4 7.0 5.3 7.1 5.5 7.15 5.8 7.15 7.85 7.0 8.4 7.25 5.8 7.15 8.4 7.25 10.15 7.9 13.4 7.45 13.45 7.4 15.95 7.55 13.4 7.45 15.95 7.55 16.5 7.65 20.0 8.25 27.75 8.45 32.2 8.65 33.05 8.5 34.85 8.25 38.1 8.4 38.6 8.75 38.95 8.65 39.95 8.45 44.15 8.15 48.4 8.45 63.8 9.35 Q65.85 9.65 66.0 10.0 L66.15 10.0 66.15 10.95 66.35 12.4 65.85 12.6 64.7 12.85 M66.9 10.0 L67.05 10.05 67.7 10.65 Q67.9 11.25 67.5 11.65 L66.65 12.25 66.35 12.4 66.15 10.95 66.15 10.0 66.9 10.0 M63.8 9.35 L39.95 8.45 63.8 9.35" fill="#996600" fill-rule="evenodd" stroke="none"/>
      <path d="M90.15 0.25 L90.55 0.1 90.8 0.0 92.4 1.1 Q93.85 2.55 93.45 3.75 92.75 5.15 92.75 5.55 92.6 5.95 93.35 6.4 94.45 7.05 95.1 8.3 95.8 9.65 95.05 10.35 94.35 11.0 94.0 12.05 L93.65 13.0 Q94.0 14.25 93.9 15.65 93.75 17.2 93.1 18.2 L93.05 18.2 Q92.45 19.0 91.45 19.45 88.95 20.5 86.95 20.6 L83.5 20.05 83.2 19.95 Q81.7 19.45 76.65 16.95 L73.1 15.15 72.8 15.25 72.2 15.3 Q71.55 15.3 70.75 14.6 L70.2 13.9 68.95 14.55 Q67.25 15.15 66.75 13.85 L66.5 12.95 64.7 12.85 59.05 12.65 54.8 12.45 25.2 11.25 12.8 10.7 6.45 10.3 2.85 10.0 Q0.15 9.65 0.1 9.35 -0.15 8.25 0.25 7.55 0.55 6.8 1.25 6.95 L2.4 7.0 5.3 7.1 5.8 7.15 8.4 7.25 13.4 7.45 15.95 7.55 34.85 8.25 38.1 8.4 39.95 8.45 63.8 9.35 66.15 9.45 67.0 7.15 Q68.2 5.1 70.35 6.6 L70.9 7.05 71.25 7.35 Q73.4 9.55 71.1 13.0 L70.7 13.5 70.2 13.9 70.0 13.45 69.85 12.75 Q69.8 11.7 70.3 9.25 L70.85 7.25 70.9 7.05 M72.85 7.25 L72.9 6.85 71.1 6.8 M72.6 14.9 L72.05 14.65 71.9 14.55 72.85 7.25 M66.9 12.95 L66.5 12.95 66.35 12.4 66.15 10.95 66.15 10.0 66.15 9.45 67.0 9.5 67.65 9.5 M90.15 0.25 L72.9 6.65 72.9 6.85 73.5 6.85 73.6 6.9 Q75.65 7.45 75.7 10.1 L82.6 8.7 M75.4 10.15 L75.7 10.1 75.7 10.55 75.2 13.15 81.65 15.1 M74.75 13.0 L75.2 13.15 Q74.8 14.2 74.1 14.7 L73.1 15.15 72.6 14.9 M75.4 10.15 L74.95 10.2 M74.75 13.0 L74.25 12.85 M66.9 12.95 L66.95 12.95 67.9 12.15 Q68.7 11.05 67.95 9.75" fill="none" stroke="#000000" stroke-linecap="round" stroke-linejoin="round" stroke-width="1.5"/>
    </g>
    <g id="sprite2" transform="matrix(1.0, 0.0, 0.0, 1.0, 10.65, 10.8)">
      <use ffdec:characterId="639" height="20.1" id="mc100" transform="matrix(1.0, 0.0, 0.0, 1.0, -9.9, -10.05)" width="19.8" xlink:href="#sprite3"/>
      <use ffdec:characterId="384" height="21.6" transform="matrix(1.0, 0.0, 0.0, 1.0, -10.65, -10.8)" width="21.3" xlink:href="#shape4"/>
    </g>
    <g id="sprite3" transform="matrix(1.0, 0.0, 0.0, 1.0, 9.9, 10.05)">
      <use ffdec:characterId="382" height="20.1" transform="matrix(1.0, 0.0, 0.0, 1.0, -9.9, -10.05)" width="19.8" xlink:href="#shape3"/>
    </g>
    <g id="shape3" transform="matrix(1.0, 0.0, 0.0, 1.0, 9.9, 10.05)">
      <path d="M7.9 -4.8 L8.6 -3.2 Q9.25 -1.3 9.25 0.15 9.25 1.4 9.6 3.35 L9.9 6.1 Q9.9 7.0 8.35 6.8 L5.3 6.75 Q4.7 6.95 2.9 8.8 1.4 10.25 -0.3 10.05 -1.9 9.85 -2.05 8.55 -2.2 7.15 -3.0 6.5 L-3.35 6.25 -9.9 3.15 -3.6 -5.45 3.3 -10.05 7.9 -4.8" fill="#996666" fill-rule="evenodd" stroke="none"/>
    </g>
    <g id="shape4" transform="matrix(1.0, 0.0, 0.0, 1.0, 10.65, 10.8)">
      <path d="M7.9 -4.8 L3.3 -10.05 -3.6 -5.45 -9.9 3.15 -3.35 6.25 -3.0 6.5 Q-2.2 7.15 -2.05 8.55 -1.9 9.85 -0.3 10.05 1.4 10.25 2.9 8.8 4.7 6.95 5.3 6.75 L8.35 6.8 Q9.9 7.0 9.9 6.1 L9.6 3.35 Q9.25 1.4 9.25 0.15 9.25 -1.3 8.6 -3.2 L7.9 -4.8 M4.75 0.9 L5.35 6.05" fill="none" stroke="#000000" stroke-linecap="round" stroke-linejoin="round" stroke-width="1.5"/>
    </g>
    <g id="sprite4" transform="matrix(1.0, 0.0, 0.0, 1.0, 0.9, 0.9)">
      <use ffdec:characterId="641" height="20.5" id="mc100" transform="matrix(1.0, 0.0, 0.0, 1.0, 0.0, 0.0)" width="25.1" xlink:href="#sprite5"/>
      <use ffdec:characterId="70" height="22.3" transform="matrix(1.0, 0.0, 0.0, 1.0, -0.9, -0.9)" width="26.9" xlink:href="#shape6"/>
    </g>
    <g id="sprite5" transform="matrix(1.0, 0.0, 0.0, 1.0, 12.55, 10.25)">
      <use ffdec:characterId="23" height="20.5" transform="matrix(1.0, 0.0, 0.0, 1.0, -12.55, -10.25)" width="25.1" xlink:href="#shape5"/>
    </g>
    <g id="shape5" transform="matrix(1.0, 0.0, 0.0, 1.0, 12.55, 10.25)">
      <path d="M3.3 -9.9 Q2.3 0.0 3.35 9.9 L0.0 10.25 -3.55 9.9 -3.2 -9.9 0.0 -10.25 3.3 -9.9 M9.75 6.5 Q8.6 0.05 9.65 -6.55 12.55 -3.75 12.55 0.0 12.55 3.7 9.75 6.5 M-8.7 -6.95 Q-9.65 0.35 -8.8 7.25 L-8.9 7.25 Q-12.55 4.25 -12.55 0.0 -12.55 -4.2 -8.95 -7.2 L-8.7 -6.95" fill="#00ffff" fill-rule="evenodd" stroke="none"/>
    </g>
    <g id="shape6" transform="matrix(1.0, 0.0, 0.0, 1.0, 0.9, 0.9)">
      <path d="M15.85 0.35 Q18.95 1.0 21.4 3.0 L21.95 3.5 22.2 3.7 Q21.15 10.3 22.3 16.75 L21.4 17.5 Q19.0 19.5 15.9 20.15 14.85 10.25 15.85 0.35 M9.0 20.15 Q6.05 19.45 3.75 17.55 L3.75 17.5 Q2.9 10.6 3.85 3.3 L3.65 3.0 Q6.15 1.0 9.35 0.35 L9.0 20.15" fill="#ffffff" fill-rule="evenodd" stroke="none"/>
      <path d="M15.85 0.35 Q18.95 1.0 21.4 3.0 L21.95 3.5 22.2 3.7 Q25.1 6.5 25.1 10.25 25.1 13.95 22.3 16.75 L21.4 17.5 Q19.0 19.5 15.9 20.15 L12.55 20.5 9.0 20.15 Q6.05 19.45 3.75 17.55 L3.65 17.5 Q0.0 14.5 0.0 10.25 0.0 6.05 3.6 3.05 L3.65 3.0 Q6.15 1.0 9.35 0.35 L12.55 0.0 15.85 0.35 Q14.85 10.25 15.9 20.15 M22.2 3.7 Q21.15 10.3 22.3 16.75 M3.75 17.55 L3.75 17.5 Q2.9 10.6 3.85 3.3 M9.35 0.35 L9.0 20.15" fill="none" stroke="#000000" stroke-linecap="round" stroke-linejoin="round" stroke-width="1.8"/>
    </g>
    <g id="sprite6" transform="matrix(1.0, 0.0, 0.0, 1.0, 0.9, 0.9)">
      <use ffdec:characterId="643" height="25.2" id="mc100" transform="matrix(1.0, 0.0, 0.0, 1.0, 0.0, 0.0)" width="22.15" xlink:href="#sprite7"/>
      <use ffdec:characterId="76" height="27.0" transform="matrix(1.0, 0.0, 0.0, 1.0, -0.9, -0.9)" width="23.95" xlink:href="#shape8"/>
    </g>
    <g id="sprite7" transform="matrix(1.0, 0.0, 0.0, 1.0, 11.05, 12.6)">
      <use ffdec:characterId="31" height="25.2" transform="matrix(1.0, 0.0, 0.0, 1.0, -11.05, -12.6)" width="22.15" xlink:href="#shape7"/>
    </g>
    <g id="shape7" transform="matrix(1.0, 0.0, 0.0, 1.0, 11.05, 12.6)">
      <path d="M11.1 -11.1 L11.05 -11.0 Q6.65 0.2 4.55 12.6 1.4 12.55 -1.2 11.5 -5.15 9.95 -7.95 6.3 -9.7 3.95 -11.0 0.75 L-11.05 0.6 Q-3.25 -11.3 8.75 -12.35 L8.95 -12.6 11.1 -11.1" fill="#993300" fill-rule="evenodd" stroke="none"/>
    </g>
    <g id="shape8" transform="matrix(1.0, 0.0, 0.0, 1.0, 0.9, 0.9)">
      <path d="M20.0 0.0 L22.15 1.5 22.1 1.6 Q17.7 12.8 15.6 25.2 12.45 25.15 9.85 24.1 5.9 22.55 3.1 18.9 1.35 16.55 0.05 13.35 L0.0 13.2 Q7.8 1.3 19.8 0.25 M3.1 18.9 Q7.85 8.9 15.9 3.05 M9.85 24.1 Q12.35 13.75 18.25 4.0" fill="none" stroke="#000000" stroke-linecap="round" stroke-linejoin="round" stroke-width="1.8"/>
    </g>
    <g id="sprite8" transform="matrix(1.0, 0.0, 0.0, 1.0, 0.9, 0.9)">
      <use ffdec:characterId="645" height="26.1" id="mc100" transform="matrix(1.0, 0.0, 0.0, 1.0, 0.0, 0.0)" width="4.3" xlink:href="#sprite9"/>
      <use ffdec:characterId="73" height="27.9" transform="matrix(1.0, 0.0, 0.0, 1.0, -0.9, -0.9)" width="6.1" xlink:href="#shape10"/>
    </g>
    <g id="sprite9" transform="matrix(1.0, 0.0, 0.0, 1.0, 2.15, 13.05)">
      <use ffdec:characterId="27" height="26.1" transform="matrix(1.0, 0.0, 0.0, 1.0, -2.15, -13.05)" width="4.3" xlink:href="#shape9"/>
    </g>
    <g id="shape9" transform="matrix(1.0, 0.0, 0.0, 1.0, 2.15, 13.05)">
      <path d="M1.95 -7.15 Q2.2 4.15 -2.15 13.05 L-1.85 -12.9 -1.6 -13.05 2.15 -7.45 1.95 -7.15" fill="#993300" fill-rule="evenodd" stroke="none"/>
    </g>
    <g id="shape10" transform="matrix(1.0, 0.0, 0.0, 1.0, 0.9, 0.9)">
      <path d="M4.1 5.9 Q4.35 17.2 0.0 26.1 L0.3 0.15 M0.55 0.0 L4.3 5.6" fill="none" stroke="#000000" stroke-linecap="round" stroke-linejoin="round" stroke-width="1.8"/>
    </g>
    <g id="sprite10" transform="matrix(1.0, 0.0, 0.0, 1.0, 0.9, 0.9)">
      <use ffdec:characterId="647" height="9.9" id="mc200" transform="matrix(1.0, 0.0, 0.0, 1.0, 0.0, 0.0)" width="9.35" xlink:href="#sprite11"/>
      <use ffdec:characterId="648" height="10.0" id="mc100" transform="matrix(1.0, 0.0, 0.0, 1.0, 3.3, 2.2)" width="13.2" xlink:href="#sprite12"/>
      <use ffdec:characterId="354" height="14.2" transform="matrix(1.0, 0.0, 0.0, 1.0, -0.9, -0.9)" width="18.3" xlink:href="#shape13"/>
    </g>
    <g id="sprite11" transform="matrix(1.0, 0.0, 0.0, 1.0, 4.65, 4.95)">
      <use ffdec:characterId="350" height="9.9" transform="matrix(1.0, 0.0, 0.0, 1.0, -4.65, -4.95)" width="9.35" xlink:href="#shape11"/>
    </g>
    <g id="shape11" transform="matrix(1.0, 0.0, 0.0, 1.0, 4.65, 4.95)">
      <path d="M4.7 -2.8 L4.45 -2.5 Q4.05 3.6 -1.35 4.95 -3.45 3.25 -4.6 0.6 -5.15 -4.1 -0.55 -4.95 2.25 -5.2 4.7 -2.8" fill="#ffcc66" fill-rule="evenodd" stroke="none"/>
    </g>
    <g id="sprite12" transform="matrix(1.0, 0.0, 0.0, 1.0, 6.6, 5.0)">
      <use ffdec:characterId="352" height="10.0" transform="matrix(1.0, 0.0, 0.0, 1.0, -6.6, -5.0)" width="13.2" xlink:href="#shape12"/>
    </g>
    <g id="shape12" transform="matrix(1.0, 0.0, 0.0, 1.0, 6.6, 5.0)">
      <path d="M1.55 -4.35 Q3.4 -5.15 5.0 -4.05 7.4 -1.7 6.15 1.45 4.9 4.3 2.3 5.0 3.65 1.15 1.7 -3.7 L1.65 -3.85 1.55 -4.35 M0.65 -3.75 L0.85 -3.45 0.55 -3.2 Q0.9 1.7 -2.45 3.7 L-3.65 4.3 Q-5.3 3.7 -6.6 2.7 -1.2 1.35 -0.8 -4.75 L-0.5 -5.0 0.65 -3.75" fill="#00ff00" fill-rule="evenodd" stroke="none"/>
    </g>
    <g id="shape13" transform="matrix(1.0, 0.0, 0.0, 1.0, 0.9, 0.9)">
      <path d="M11.6 3.5 Q13.55 8.35 12.2 12.2 L8.1 12.1 7.45 10.9 Q10.8 8.9 10.45 4.0 L10.75 3.75 11.6 3.5" fill="#ffffff" fill-rule="evenodd" stroke="none"/>
      <path d="M12.2 12.2 Q14.8 11.5 16.05 8.65 17.3 5.5 14.9 3.15 13.3 2.05 11.45 2.85 L10.95 3.1 M11.6 3.5 Q13.55 8.35 12.2 12.2 L8.1 12.1 6.25 11.5 Q4.6 10.9 3.3 9.9 1.2 8.2 0.05 5.55 -0.5 0.85 4.1 0.0 6.9 -0.25 9.35 2.15 L9.4 2.2 10.55 3.45 10.75 3.75 M3.3 9.9 Q8.7 8.55 9.1 2.45 M6.25 11.5 L7.45 10.9 Q10.8 8.9 10.45 4.0" fill="none" stroke="#000000" stroke-linecap="round" stroke-linejoin="round" stroke-width="1.8"/>
    </g>
    <g id="sprite13" transform="matrix(1.0, 0.0, 0.0, 1.0, 0.9, 0.9)">
      <use ffdec:characterId="650" height="30.7" id="mc100" transform="matrix(1.0, 0.0, 0.0, 1.0, 0.0, 0.0)" width="53.25" xlink:href="#sprite14"/>
      <use ffdec:characterId="239" height="32.5" transform="matrix(1.0, 0.0, 0.0, 1.0, -0.9, -0.9)" width="55.05" xlink:href="#shape15"/>
    </g>
    <g id="sprite14" transform="matrix(1.0, 0.0, 0.0, 1.0, 26.6, 15.35)">
      <use ffdec:characterId="237" height="30.7" transform="matrix(1.0, 0.0, 0.0, 1.0, -26.6, -15.35)" width="53.25" xlink:href="#shape14"/>
    </g>
    <g id="shape14" transform="matrix(1.0, 0.0, 0.0, 1.0, 26.6, 15.35)">
      <path d="M23.2 0.55 Q14.15 12.3 -0.05 14.75 L-0.4 14.95 Q-13.85 17.15 -23.1 7.6 -23.6 5.55 -22.55 3.5 -25.55 -5.25 -26.6 -15.35 L26.65 -14.8 23.7 0.1 23.2 0.55" fill="#ffcc66" fill-rule="evenodd" stroke="none"/>
    </g>
    <g id="shape15" transform="matrix(1.0, 0.0, 0.0, 1.0, 0.9, 0.9)">
      <path d="M49.8 15.9 Q40.75 27.65 26.55 30.1 L26.2 30.3 Q12.75 32.5 3.5 22.95 3.0 20.9 4.05 18.85 1.05 10.1 0.0 0.0 L53.25 0.55 50.3 15.45" fill="none" stroke="#000000" stroke-linecap="round" stroke-linejoin="round" stroke-width="1.8"/>
    </g>
    <g id="shape16" transform="matrix(1.0, 0.0, 0.0, 1.0, 0.75, 0.9)">
      <path d="M4.8 4.4 L4.2 5.15 Q2.4 7.2 0.9 6.45 -0.6 5.75 0.45 3.4 L1.75 1.25 5.1 2.75 4.8 4.4" fill="#ff0000" fill-rule="evenodd" stroke="none"/>
      <path d="M4.8 4.4 L4.2 5.15 Q2.4 7.2 0.9 6.45 -0.6 5.75 0.45 3.4 L1.75 1.25 5.1 2.75 5.7 2.95 4.8 4.4 Z" fill="none" stroke="#000000" stroke-linecap="round" stroke-linejoin="round" stroke-width="1.5"/>
      <path d="M2.6 4.6 L3.1 4.8 2.4 5.95 2.6 4.6" fill="#cc3399" fill-rule="evenodd" stroke="none"/>
      <path d="M1.45 0.0 L1.5 0.85 1.45 0.9 Q1.45 1.45 1.9 1.6 L3.1 1.5 3.55 1.1 3.8 1.75 Q4.3 2.85 5.45 3.25 L6.25 3.35 Q6.75 3.35 7.0 3.05" fill="none" stroke="#000000" stroke-linecap="round" stroke-linejoin="round" stroke-width="1.8"/>
    </g>
    <g id="sprite15" transform="matrix(1.0, 0.0, 0.0, 1.0, 0.9, 0.9)">
      <use ffdec:characterId="652" height="26.1" id="mc100" transform="matrix(1.0, 0.0, 0.0, 1.0, 0.0, 0.0)" width="3.95" xlink:href="#sprite16"/>
      <use ffdec:characterId="164" height="27.9" transform="matrix(1.0, 0.0, 0.0, 1.0, -0.9, -0.9)" width="5.7" xlink:href="#shape18"/>
    </g>
    <g id="sprite16" transform="matrix(1.0, 0.0, 0.0, 1.0, 1.95, 13.05)">
      <use ffdec:characterId="162" height="26.1" transform="matrix(1.0, 0.0, 0.0, 1.0, -1.95, -13.05)" width="3.95" xlink:href="#shape17"/>
    </g>
    <g id="shape17" transform="matrix(1.0, 0.0, 0.0, 1.0, 1.95, 13.05)">
      <path d="M1.95 -7.35 Q2.4 4.15 -1.95 13.05 L-1.65 -12.9 -1.4 -13.05 Q1.15 -12.0 1.9 -7.35 L1.95 -7.35" fill="#993300" fill-rule="evenodd" stroke="none"/>
    </g>
    <g id="shape18" transform="matrix(1.0, 0.0, 0.0, 1.0, 0.9, 0.9)">
      <path d="M0.55 0.0 Q3.1 1.05 3.85 5.7 4.35 17.2 0.0 26.1 L0.3 0.15" fill="none" stroke="#000000" stroke-linecap="round" stroke-linejoin="round" stroke-width="1.8"/>
    </g>
    <g id="sprite17" transform="matrix(1.0, 0.0, 0.0, 1.0, 1.05, 0.9)">
      <use ffdec:characterId="654" height="38.3" id="mc100" transform="matrix(1.0, 0.0, 0.0, 1.0, -0.15, 0.0)" width="58.6" xlink:href="#sprite18"/>
      <use ffdec:characterId="246" height="40.1" transform="matrix(1.0, 0.0, 0.0, 1.0, -1.05, -0.9)" width="60.4" xlink:href="#shape20"/>
    </g>
    <g id="sprite18" transform="matrix(1.0, 0.0, 0.0, 1.0, 29.3, 19.15)">
      <use ffdec:characterId="244" height="38.3" transform="matrix(1.0, 0.0, 0.0, 1.0, -29.3, -19.15)" width="58.6" xlink:href="#shape19"/>
    </g>
    <g id="shape19" transform="matrix(1.0, 0.0, 0.0, 1.0, 29.3, 19.15)">
      <path d="M0.6 -19.15 Q12.35 -18.95 20.7 -10.55 29.3 -1.95 29.3 10.25 29.3 12.55 27.2 16.75 17.65 18.55 8.5 19.0 L1.3 19.15 -4.6 18.9 -6.3 18.8 -9.1 18.55 -10.4 11.2 -10.85 11.2 -10.75 18.35 -13.2 18.0 -13.85 9.25 -14.3 9.2 -15.15 17.7 -22.15 16.35 -26.5 15.25 -29.3 14.4 -29.3 14.15 Q-29.15 12.6 -29.15 10.35 -29.15 -1.85 -20.55 -10.45 -12.2 -18.85 0.6 -19.15" fill="#993300" fill-rule="evenodd" stroke="none"/>
    </g>
    <g id="shape20" transform="matrix(1.0, 0.0, 0.0, 1.0, 1.05, 0.9)">
      <path d="M36.95 28.4 L37.65 38.15 Q46.8 37.7 56.35 35.9 58.45 31.7 58.45 29.4 58.45 17.2 49.85 8.6 41.5 0.2 29.75 0.0 16.95 0.3 8.6 8.7 0.0 17.3 0.0 29.5 0.0 31.75 -0.15 33.3 M3.65 25.1 L2.65 34.4 7.0 35.5 14.0 36.85 14.85 28.35 M7.05 35.2 L7.3 26.8 M15.3 28.4 L15.95 37.15 18.4 37.5 18.3 30.35 M18.75 30.35 L20.05 37.7 22.85 37.95 22.75 28.75 M30.55 29.1 L30.45 38.3 37.65 38.15 M24.95 29.35 L24.55 38.05 30.45 38.3 M22.85 37.95 L24.55 38.05 M-0.15 33.55 L2.65 34.4" fill="none" stroke="#000000" stroke-linecap="round" stroke-linejoin="round" stroke-width="1.8"/>
    </g>
    <g id="sprite19" transform="matrix(1.0, 0.0, 0.0, 1.0, 0.9, 0.95)">
      <use ffdec:characterId="656" height="61.9" id="mc400" transform="matrix(1.0, 0.0, 0.0, 1.0, 0.0, -0.05)" width="87.05" xlink:href="#sprite20"/>
      <use ffdec:characterId="657" height="20.8" id="mc300" transform="matrix(1.0, 0.0, 0.0, 1.0, 16.65, 26.55)" width="53.85" xlink:href="#sprite21"/>
      <use ffdec:characterId="659" height="25.5" id="mc200" transform="matrix(1.0, 0.0, 0.0, 1.0, 24.5, 23.7)" width="23.15" xlink:href="#sprite22"/>
      <use ffdec:characterId="258" height="63.7" transform="matrix(1.0, 0.0, 0.0, 1.0, -0.9, -0.95)" width="88.85" xlink:href="#shape24"/>
    </g>
    <g id="sprite20" transform="matrix(1.0, 0.0, 0.0, 1.0, 43.5, 30.95)">
      <use ffdec:characterId="252" height="61.9" transform="matrix(1.0, 0.0, 0.0, 1.0, -43.5, -30.95)" width="87.05" xlink:href="#shape21"/>
    </g>
    <g id="shape21" transform="matrix(1.0, 0.0, 0.0, 1.0, 43.5, 30.95)">
      <path d="M5.15 -30.5 Q17.1 -33.55 24.2 -14.75 L24.1 -14.65 Q22.85 -13.45 21.4 -12.6 23.4 -6.65 24.8 -0.35 13.65 -3.4 2.1 -3.95 L2.0 -4.2 Q0.2 -7.75 -3.8 -7.1 L-4.0 -7.2 Q-11.05 -6.75 -14.35 -4.15 L-14.8 -3.8 -14.75 -4.2 -14.7 -4.75 -18.0 -4.5 -18.0 -4.35 -23.05 -2.85 Q-15.6 -23.05 5.15 -30.5 M-13.45 15.7 Q-7.65 19.65 1.2 17.55 L2.9 16.0 Q16.55 17.5 26.8 13.9 L27.0 14.55 Q37.35 19.65 43.55 26.55 31.0 31.7 -1.75 30.8 -33.1 30.0 -43.5 24.0 -36.75 18.9 -27.3 14.65 L-27.15 14.6 -27.05 14.55 -26.9 14.5 -26.85 14.45 -17.0 16.05 -17.0 16.2 -16.9 16.45 -14.3 15.75 -13.45 15.7" fill="#1a0000" fill-rule="evenodd" stroke="none"/>
      <path d="M-3.5 5.5 Q-3.5 6.35 -4.1 6.95 -4.7 7.55 -5.55 7.55 -6.4 7.55 -7.0 6.95 -7.6 6.35 -7.6 5.5 -7.6 4.65 -7.0 4.05 -6.4 3.45 -5.55 3.45 -4.7 3.45 -4.1 4.05 -3.5 4.65 -3.5 5.5" fill="#000000" fill-rule="evenodd" stroke="none"/>
    </g>
    <g id="sprite21" transform="matrix(1.0, 0.0, 0.0, 1.0, 26.9, 10.4)">
      <use ffdec:characterId="254" height="20.8" transform="matrix(1.0, 0.0, 0.0, 1.0, -26.9, -10.4)" width="53.85" xlink:href="#shape22"/>
    </g>
    <g id="shape22" transform="matrix(1.0, 0.0, 0.0, 1.0, 26.9, 10.4)">
      <path d="M24.75 -6.4 Q26.2 0.5 26.95 7.75 L26.75 7.85 Q16.5 11.45 2.85 9.95 L2.55 9.95 2.45 9.95 2.2 9.95 1.85 9.95 Q5.85 1.3 2.7 -8.25 L2.05 -10.0 Q13.6 -9.45 24.75 -6.4 M-14.65 -9.2 L-14.5 -8.6 Q-10.9 -9.7 -8.4 -9.65 L-8.25 -9.65 -5.95 -9.25 Q-3.1 -8.55 -2.35 -5.25 -1.8 1.0 -3.2 8.05 L-13.65 8.8 -13.65 9.2 -14.3 9.3 -14.35 8.9 Q-15.4 0.6 -14.9 -8.5 L-14.85 -9.2 -14.65 -9.2 M-18.5 -8.35 Q-20.05 0.7 -17.15 9.8 L-17.05 10.0 -26.9 8.4 Q-26.0 -1.2 -23.1 -8.9 L-18.05 -10.4 -18.5 -8.35 M-5.6 -2.6 Q-6.45 -2.6 -7.05 -2.0 -7.65 -1.4 -7.65 -0.55 -7.65 0.3 -7.05 0.9 -6.45 1.5 -5.6 1.5 -4.75 1.5 -4.15 0.9 -3.55 0.3 -3.55 -0.55 -3.55 -1.4 -4.15 -2.0 -4.75 -2.6 -5.6 -2.6" fill="#ff0000" fill-rule="evenodd" stroke="none"/>
    </g>
    <g id="sprite22" transform="matrix(1.0, 0.0, 0.0, 1.0, 11.55, 12.75)">
      <use ffdec:characterId="658" height="25.5" transform="matrix(1.0, 0.0, 0.0, 1.0, -11.55, -12.75)" width="23.15" xlink:href="#shape23"/>
    </g>
    <g id="shape23" transform="matrix(1.0, 0.0, 0.0, 1.0, 11.55, 12.75)">
      <path d="M-11.0 -7.85 L-10.55 -9.9 -10.55 -10.05 -7.25 -10.3 -7.3 -9.75 -7.35 -9.35 -7.35 -8.7 -7.4 -8.0 Q-7.9 1.1 -6.85 9.4 L-6.8 9.8 -9.55 10.65 -9.55 10.5 -9.65 10.3 Q-12.55 1.2 -11.0 -7.85 M3.45 -12.75 L3.65 -12.65 Q7.65 -13.3 9.45 -9.75 L9.55 -9.5 10.2 -7.75 Q13.35 1.8 9.35 10.45 L8.85 11.4 8.65 12.0 Q-0.2 14.1 -6.0 10.15 L-6.15 10.05 -6.15 9.3 4.3 8.55 Q5.7 1.5 5.15 -4.75 4.4 -8.05 1.55 -8.75 L-0.75 -9.15 -0.9 -9.15 Q-3.4 -9.2 -7.0 -8.1 L-7.35 -9.35 -6.9 -9.7 Q-3.6 -12.3 3.45 -12.75" fill="#ff0000" fill-rule="evenodd" stroke="none"/>
    </g>
    <g id="shape24" transform="matrix(1.0, 0.0, 0.0, 1.0, 0.9, 0.95)">
      <path d="M45.6 26.65 L45.7 26.9 46.35 28.65 Q49.5 38.2 45.5 46.85 L45.0 47.8 44.8 48.4 Q35.95 50.5 30.15 46.55 L30.0 46.45 30.0 45.7 40.45 44.95 Q41.85 37.9 41.3 31.65 40.55 28.35 37.7 27.65 L35.4 27.25 35.25 27.25 Q32.75 27.2 29.15 28.3 L28.8 27.05 29.25 26.7 Q32.55 24.1 39.6 23.65 L39.8 23.75 Q43.8 23.1 45.6 26.65 M28.9 26.1 L28.85 26.65 28.8 27.05 28.8 27.7 28.75 28.4 Q28.25 37.5 29.3 45.8 L29.35 46.2 26.6 47.05 26.6 46.9 26.5 46.7 Q23.6 37.6 25.15 28.55 L25.6 26.5 25.6 26.35 28.9 26.1" fill="#000000" fill-opacity="0.4" fill-rule="evenodd" stroke="none"/>
      <path d="M44.9 47.85 L45.4 46.9 45.75 46.9 46.0 46.9 46.1 46.9 46.4 46.9 44.7 48.45 44.9 47.85" fill="#000000" fill-rule="evenodd" stroke="none"/>
      <path d="M30.05 46.6 L29.2 46.65 29.3 46.6 29.25 46.25 29.9 46.15 29.9 46.5 30.05 46.6" fill="#ff0000" fill-rule="evenodd" stroke="none"/>
      <path d="M29.2 46.65 L26.6 47.35 26.5 47.1 29.25 46.25 29.3 46.6 29.2 46.65" fill="#333333" fill-rule="evenodd" stroke="none"/>
      <path d="M43.05 15.95 Q57.2 22.6 64.9 18.3 L67.6 16.25 67.7 16.15 Q60.6 -2.65 48.65 0.4 27.9 7.85 20.45 28.05 L25.5 26.55 25.5 26.4 28.8 26.15 28.75 26.7 28.7 27.1 29.15 26.75 Q32.45 24.15 39.5 23.7 L39.7 23.8 Q43.7 23.15 45.5 26.7 L45.6 26.95 Q57.15 27.5 68.3 30.55 66.9 24.25 64.9 18.3 M45.6 26.95 L46.25 28.7 46.5 28.75 Q49.8 28.45 51.9 30.6 54.05 32.9 54.15 38.0 52.8 47.0 46.4 46.9 60.05 48.4 70.3 44.8 L70.5 44.7 Q69.75 37.45 68.3 30.55 M44.9 47.85 L45.4 46.9 Q49.4 38.25 46.25 28.7 M44.7 48.45 Q35.85 50.55 30.05 46.6 L29.2 46.65 M26.6 47.35 L26.5 47.1 26.5 46.95 16.65 45.35 16.6 45.4 16.45 45.45 16.35 45.5 16.2 45.55 Q6.75 49.8 0.0 54.9 10.4 60.9 41.75 61.7 74.5 62.6 87.05 57.45 80.85 50.55 70.5 45.45 M45.4 46.9 L45.75 46.9 46.0 46.9 46.1 46.9 46.4 46.9 M29.9 45.75 L40.35 45.0 Q41.75 37.95 41.2 31.7 40.45 28.4 37.6 27.7 L35.3 27.3 35.15 27.3 Q32.65 27.25 29.05 28.35 M37.95 34.35 Q38.8 34.35 39.4 34.95 40.0 35.55 40.0 36.4 40.0 37.25 39.4 37.85 38.8 38.45 37.95 38.45 37.1 38.45 36.5 37.85 35.9 37.25 35.9 36.4 35.9 35.55 36.5 34.95 37.1 34.35 37.95 34.35 M29.25 46.25 L29.2 45.85 Q28.15 37.55 28.65 28.45 L28.7 27.75 28.7 27.1 M26.5 46.95 L26.4 46.75 Q23.5 37.65 25.05 28.6 L25.5 26.55 M29.9 46.15 L29.25 46.25 29.3 46.6 M30.05 46.6 L29.9 46.5 M26.5 47.1 L29.25 46.25 M20.45 28.05 Q17.55 35.75 16.65 45.35" fill="none" stroke="#000000" stroke-linecap="round" stroke-linejoin="round" stroke-width="1.8"/>
    </g>
    <g id="sprite23" transform="matrix(1.0, 0.0, 0.0, 1.0, 0.75, 0.75)">
      <use ffdec:characterId="44" height="6.7" transform="matrix(1.0, 0.0, 0.0, 1.0, 6.5, 1.4)" width="13.6" xlink:href="#shape25"/>
      <use ffdec:characterId="661" height="4.3" id="mc300" transform="matrix(1.0, 0.0, 0.0, 1.0, 13.45, 3.2)" width="4.3" xlink:href="#sprite24"/>
      <use ffdec:characterId="388" height="9.6" transform="matrix(1.0, 0.0, 0.0, 1.0, -0.75, -0.75)" width="22.35" xlink:href="#shape27"/>
    </g>
    <g id="shape25" transform="matrix(1.0, 0.0, 0.0, 1.0, -6.5, -1.4)">
      <path d="M12.65 8.05 Q8.4 7.75 7.1 4.65 L6.5 3.15 Q12.8 0.4 16.45 2.0 17.3 2.35 18.05 2.95 L18.6 3.5 20.1 5.6 Q16.85 8.35 12.65 8.05" fill="#ffffff" fill-rule="evenodd" stroke="none"/>
    </g>
    <g id="sprite24" transform="matrix(1.0, 0.0, 0.0, 1.0, 2.15, 2.1)">
      <use ffdec:characterId="45" height="5.2" transform="matrix(0.8365, 0.0, 0.0, 0.8365, -2.175, -2.125)" width="5.2" xlink:href="#shape26"/>
    </g>
    <g id="shape26" transform="matrix(1.0, 0.0, 0.0, 1.0, 2.6, 2.6)">
      <path d="M1.85 -1.85 Q2.6 -1.1 2.6 0.0 2.6 1.1 1.85 1.85 1.1 2.6 0.0 2.6 -1.1 2.6 -1.85 1.85 -2.6 1.1 -2.6 0.0 -2.6 -1.1 -1.85 -1.85 -1.1 -2.6 0.0 -2.6 1.1 -2.6 1.85 -1.85" fill="#009999" fill-rule="evenodd" stroke="none"/>
    </g>
    <g id="shape27" transform="matrix(1.0, 0.0, 0.0, 1.0, 0.75, 0.75)">
      <path d="M15.45 6.9 Q15.1 6.55 15.1 6.05 15.1 5.5 15.45 5.2 15.8 4.85 16.3 4.85 16.8 4.85 17.15 5.2 17.5 5.5 17.5 6.05 17.5 6.55 17.15 6.9 16.8 7.25 16.3 7.25 15.8 7.25 15.45 6.9" fill="#000000" fill-rule="evenodd" stroke="none"/>
      <path d="M16.45 2.0 Q12.8 0.4 6.5 3.15 L7.1 4.65 6.75 4.8 0.0 1.3 Q5.0 1.75 7.2 0.6 9.5 -0.25 11.75 0.1 L12.15 0.15 Q14.9 0.5 16.95 1.75 L16.45 2.0" fill="#000000" fill-rule="evenodd" stroke="none"/>
      <path d="M7.1 4.65 Q8.4 7.75 12.65 8.05 16.85 8.35 20.1 5.6 L18.6 3.5 18.05 2.95 Q17.3 2.35 16.45 2.0 12.8 0.4 6.5 3.15 L7.1 4.65 M6.75 4.8 L0.0 1.3 Q5.0 1.75 7.2 0.6 9.5 -0.25 11.75 0.1 L12.15 0.15 Q14.9 0.5 16.95 1.75 M20.1 5.6 L20.85 6.7" fill="none" stroke="#000000" stroke-linecap="round" stroke-linejoin="round" stroke-width="1.5"/>
    </g>
    <g id="sprite25" transform="matrix(1.0, 0.0, 0.0, 1.0, 0.7, 0.75)">
      <use ffdec:characterId="262" height="7.0" transform="matrix(1.0, 0.0, 0.0, 1.0, 0.05, 0.0)" width="8.15" xlink:href="#shape28"/>
      <use ffdec:characterId="663" height="4.3" id="mc200" transform="matrix(1.0, 0.0, 0.0, 1.0, 1.05, 2.0)" width="4.3" xlink:href="#sprite26"/>
      <use ffdec:characterId="391" height="8.05" transform="matrix(1.0, 0.0, 0.0, 1.0, -0.7, -0.75)" width="10.0" xlink:href="#shape29"/>
    </g>
    <g id="shape28" transform="matrix(1.0, 0.0, 0.0, 1.0, -0.05, 0.0)">
      <path d="M0.8 0.15 Q2.9 0.55 4.4 1.15 8.7 2.9 8.15 6.05 4.25 7.95 0.65 5.95 -0.15 3.2 0.1 0.0 L0.8 0.15" fill="#ffffff" fill-rule="evenodd" stroke="none"/>
    </g>
    <g id="sprite26" transform="matrix(1.0, 0.0, 0.0, 1.0, 2.15, 2.1)">
      <use ffdec:characterId="45" height="5.2" transform="matrix(0.8365, 0.0, 0.0, 0.8365, -2.175, -2.125)" width="5.2" xlink:href="#shape26"/>
    </g>
    <g id="shape29" transform="matrix(1.0, 0.0, 0.0, 1.0, 0.7, 0.75)">
      <path d="M2.15 5.55 Q1.8 5.2 1.8 4.7 1.8 4.15 2.15 3.85 2.5 3.5 3.0 3.5 3.5 3.5 3.85 3.85 4.2 4.15 4.2 4.7 L3.85 5.55 3.0 5.9 Q2.5 5.9 2.15 5.55" fill="#000000" fill-rule="evenodd" stroke="none"/>
      <path d="M0.85 6.15 Q4.75 7.15 8.55 5.5 8.45 2.75 4.4 1.15 2.9 0.55 0.8 0.15 L0.1 0.0 Q-0.15 3.2 0.65 5.95" fill="none" stroke="#000000" stroke-linecap="round" stroke-linejoin="round" stroke-width="1.5"/>
    </g>
    <g id="sprite28" transform="matrix(1.0, 0.0, 0.0, 1.0, 0.9, 0.9)">
      <use ffdec:characterId="668" height="27.0" id="mc100" transform="matrix(1.0, 0.0, 0.0, 1.0, 0.0, 0.25)" width="22.15" xlink:href="#sprite29"/>
      <use ffdec:characterId="250" height="29.05" transform="matrix(1.0, 0.0, 0.0, 1.0, -0.9, -0.9)" width="23.95" xlink:href="#shape31"/>
    </g>
    <g id="sprite29" transform="matrix(1.0, 0.0, 0.0, 1.0, 11.05, 13.5)">
      <use ffdec:characterId="666" height="27.0" transform="matrix(1.0, 0.0, 0.0, 1.0, -11.05, -13.5)" width="22.15" xlink:href="#shape30"/>
    </g>
    <g id="shape30" transform="matrix(1.0, 0.0, 0.0, 1.0, 11.05, 13.5)">
      <path d="M8.75 -13.5 L9.6 -12.8 9.8 -13.15 9.85 -13.1 11.1 -12.25 11.05 -12.15 Q6.65 -0.95 7.5 12.95 L6.9 12.95 6.75 13.5 Q-4.75 11.8 -8.6 4.85 L-11.0 -0.4 -11.05 -0.55 -10.55 -1.3 -10.5 -1.35 -10.45 -1.4 Q-2.9 -12.35 8.45 -13.45 L8.75 -13.5" fill="#993300" fill-rule="evenodd" stroke="none"/>
    </g>
    <g id="shape31" transform="matrix(1.0, 0.0, 0.0, 1.0, 0.9, 0.9)">
      <path d="M18.55 26.7 Q17.7 12.8 22.1 1.6 L22.15 1.5 20.9 0.65 20.85 0.6 20.0 0.0 M19.8 0.25 L19.5 0.3 Q8.15 1.4 0.6 12.35 L0.55 12.4 0.5 12.45 0.0 13.2 0.05 13.35 2.45 18.6 Q6.3 25.55 17.8 27.25 M0.9 12.6 L3.65 14.3 Q8.35 17.4 12.55 21.2 14.6 10.75 20.15 1.75 L20.65 0.95 M3.8 14.0 Q9.3 3.85 19.75 1.5 M12.55 21.2 Q15.4 23.8 17.95 26.7" fill="none" stroke="#000000" stroke-linecap="round" stroke-linejoin="round" stroke-width="1.8"/>
    </g>
  </defs>
</svg>
