<?xml version="1.0" encoding="UTF-8" standalone="no"?>
<svg xmlns:ffdec="https://www.free-decompiler.com/flash" xmlns:xlink="http://www.w3.org/1999/xlink" ffdec:objectType="frame" height="142.3px" width="144.25px" xmlns="http://www.w3.org/2000/svg">
  <g transform="matrix(1.0, 0.0, 0.0, 1.0, 72.1, 112.0)">
    <use ffdec:characterId="272" height="18.85" id="mc22680" transform="matrix(0.9941, 0.1003, -0.1003, 0.9941, -9.5184, -18.1401)" width="10.9" xlink:href="#sprite0"/>
    <use ffdec:characterId="272" height="18.85" id="mc21680" transform="matrix(0.9941, 0.1003, -0.1003, 0.9941, 1.4316, -17.9401)" width="10.9" xlink:href="#sprite0"/>
    <use ffdec:characterId="279" height="11.25" id="mc18680" transform="matrix(1.0, 0.0, 0.0, 1.0, -19.1, -17.35)" width="37.6" xlink:href="#sprite2"/>
    <use ffdec:characterId="277" height="18.8" id="mc17680" transform="matrix(1.0, 0.0, 0.0, 1.0, -13.45, -32.25)" width="25.85" xlink:href="#sprite4"/>
    <use ffdec:characterId="324" height="20.95" id="mc16680" transform="matrix(1.0, 0.0, 0.0, 1.0, -14.85, -29.0)" width="10.0" xlink:href="#sprite6"/>
    <use ffdec:characterId="281" height="22.3" id="mc15680" transform="matrix(1.0, 0.0, 0.0, 1.0, -13.55, -43.55)" width="26.9" xlink:href="#sprite8"/>
    <use ffdec:characterId="287" height="27.9" id="mc14680" transform="matrix(-0.998, 0.0138, 0.0138, 0.998, 23.5358, -39.7107)" width="6.1" xlink:href="#sprite10"/>
    <use ffdec:characterId="289" height="27.0" id="mc13680" transform="matrix(-0.9204, 0.3824, 0.3824, 0.9204, 39.0843, -47.6725)" width="23.95" xlink:href="#sprite12"/>
    <use ffdec:characterId="289" height="27.0" id="mc12680" transform="matrix(0.9707, 0.2291, -0.2291, 0.9707, -41.1174, -46.0798)" width="23.95" xlink:href="#sprite12"/>
    <use ffdec:characterId="287" height="27.9" id="mc11680" transform="matrix(0.9869, 0.1393, -0.1393, 0.9869, -21.6628, -39.9636)" width="6.1" xlink:href="#sprite10"/>
    <use ffdec:characterId="419" height="36.55" id="mc10680" transform="matrix(1.0, 0.0, 0.0, 1.0, -25.15, -61.1)" width="50.2" xlink:href="#sprite14"/>
    <use ffdec:characterId="818" height="2.95" transform="matrix(1.0, 0.0, 0.0, 1.0, -3.3, -28.15)" width="6.5" xlink:href="#morphshape0"/>
    <use ffdec:characterId="422" height="37.5" id="mc7680" transform="matrix(1.0, 0.0, 0.0, 1.0, -30.5, -75.6)" width="60.25" xlink:href="#sprite16"/>
    <use ffdec:characterId="423" height="6.6" transform="matrix(1.0, 0.0, 0.0, 1.0, -20.05, -34.35)" width="17.85" xlink:href="#shape18"/>
    <use ffdec:characterId="423" height="6.6" transform="matrix(-1.0, 0.0, 0.0, 1.0, 19.5, -34.35)" width="17.85" xlink:href="#shape18"/>
    <use ffdec:characterId="413" height="67.1" id="hide_hat" transform="matrix(1.0, 0.0, 0.0, 1.0, -47.45, -98.95)" width="93.7" xlink:href="#sprite18"/>
    <use ffdec:characterId="355" height="14.2" id="mc3680" transform="matrix(0.9928, -0.1136, 0.1136, 0.9928, -2.5957, -29.6412)" width="18.3" xlink:href="#sprite22"/>
    <use ffdec:characterId="355" height="14.2" id="mc2680" transform="matrix(-0.9873, -0.1524, -0.1524, 0.9873, 0.3758, -29.3514)" width="18.3" xlink:href="#sprite22"/>
    <use ffdec:characterId="432" height="12.4" transform="matrix(-1.0495, 0.3274, 0.3274, 1.0494, 66.4835, -11.8368)" width="6.55" xlink:href="#shape26"/>
    <use ffdec:characterId="432" height="12.4" transform="matrix(-0.5182, 0.4648, 0.4648, 0.5182, 61.5782, -19.5969)" width="6.55" xlink:href="#shape26"/>
    <use ffdec:characterId="432" height="12.4" transform="matrix(-0.5166, 0.7216, 0.7216, 0.5166, 41.4308, -25.0345)" width="6.55" xlink:href="#shape26"/>
    <use ffdec:characterId="432" height="12.4" transform="matrix(1.0282, 0.3207, -0.3207, 1.0282, -66.5544, -12.2332)" width="6.55" xlink:href="#shape26"/>
    <use ffdec:characterId="432" height="12.4" transform="matrix(0.5077, 0.4554, -0.4554, 0.5077, -61.8019, -19.8506)" width="6.55" xlink:href="#shape26"/>
    <use ffdec:characterId="432" height="12.4" transform="matrix(0.5062, 0.707, -0.707, 0.5061, -41.9869, -25.1713)" width="6.55" xlink:href="#shape26"/>
    <use ffdec:characterId="432" height="12.4" transform="matrix(-0.8693, 0.2712, 0.2712, 0.8693, 67.3374, -2.7843)" width="6.55" xlink:href="#shape26"/>
    <use ffdec:characterId="432" height="12.4" transform="matrix(-0.4293, 0.385, 0.385, 0.4293, 63.2294, -9.232)" width="6.55" xlink:href="#shape26"/>
    <use ffdec:characterId="432" height="12.4" transform="matrix(-0.4279, 0.5978, 0.5977, 0.4279, 46.5062, -13.6758)" width="6.55" xlink:href="#shape26"/>
    <use ffdec:characterId="803" height="0.0" id="hat" transform="matrix(1.0, 0.0, 0.0, 1.0, -34.75, -102.8)" width="0.0" xlink:href="#sprite25"/>
  </g>
  <defs>
    <g id="sprite0" transform="matrix(1.0, 0.0, 0.0, 1.0, 4.95, 9.5)">
      <use ffdec:characterId="271" height="3.3" id="mc100" transform="matrix(1.0, 0.0, 0.0, 1.0, -3.65, 3.05)" width="8.7" xlink:href="#sprite1"/>
      <use ffdec:characterId="102" height="18.85" transform="matrix(1.0, 0.0, 0.0, 1.0, -4.95, -9.5)" width="10.9" xlink:href="#shape1"/>
    </g>
    <g id="sprite1" transform="matrix(1.0, 0.0, 0.0, 1.0, 4.35, 1.65)">
      <use ffdec:characterId="1" height="3.3" transform="matrix(1.0, 0.0, 0.0, 1.0, -4.35, -1.65)" width="8.7" xlink:href="#shape0"/>
    </g>
    <g id="shape0" transform="matrix(1.0, 0.0, 0.0, 1.0, 4.35, 1.65)">
      <path d="M-4.35 -0.85 L4.0 -1.65 4.35 0.75 -4.2 1.65 -4.35 -0.85" fill="#00ffff" fill-rule="evenodd" stroke="none"/>
    </g>
    <g id="shape1" transform="matrix(1.0, 0.0, 0.0, 1.0, 4.95, 9.5)">
      <path d="M-3.65 3.85 L-4.05 -6.3 Q-4.1 -7.15 -3.15 -7.75 -2.1 -8.4 -0.55 -8.55 L2.1 -8.25 Q3.15 -7.75 3.3 -7.0 L3.35 -6.85 3.35 -6.65 4.7 3.05 -3.65 3.85 M5.05 5.55 L5.05 5.7 Q5.15 6.65 3.9 7.45 2.7 8.25 0.95 8.4 -0.8 8.55 -2.15 7.95 -3.45 7.45 -3.55 6.5 L-3.55 6.35 -3.5 6.35 4.7 5.5 5.05 5.55" fill="#000000" fill-rule="evenodd" stroke="none"/>
      <path d="M-3.65 3.85 L-4.05 -6.3 Q-4.1 -7.15 -3.15 -7.75 -2.1 -8.4 -0.55 -8.55 L2.1 -8.25 Q3.15 -7.75 3.3 -7.0 L3.35 -6.85 3.35 -6.65 4.7 3.05 5.05 5.45 5.05 5.55 5.05 5.7 Q5.15 6.65 3.9 7.45 2.7 8.25 0.95 8.4 -0.8 8.55 -2.15 7.95 -3.45 7.45 -3.55 6.5 L-3.55 6.35 -3.55 6.1 -3.65 3.85 4.7 3.05 M-3.55 6.35 L-3.5 6.35 4.7 5.5" fill="none" stroke="#000000" stroke-linecap="round" stroke-linejoin="round" stroke-width="1.8"/>
    </g>
    <g id="sprite2" transform="matrix(1.0, 0.0, 0.0, 1.0, 0.75, 0.75)">
      <use ffdec:characterId="278" height="9.75" id="mc100" transform="matrix(1.0, 0.0, 0.0, 1.0, 0.0, 0.0)" width="36.1" xlink:href="#sprite3"/>
      <use ffdec:characterId="225" height="11.25" transform="matrix(1.0, 0.0, 0.0, 1.0, -0.75, -0.75)" width="37.6" xlink:href="#shape3"/>
    </g>
    <g id="sprite3" transform="matrix(1.0, 0.0, 0.0, 1.0, 18.05, 4.85)">
      <use ffdec:characterId="11" height="9.75" transform="matrix(1.0, 0.0, 0.0, 1.0, -18.05, -4.85)" width="36.1" xlink:href="#shape2"/>
    </g>
    <g id="shape2" transform="matrix(1.0, 0.0, 0.0, 1.0, 18.05, 4.85)">
      <path d="M11.55 -4.75 L18.05 0.55 14.55 4.7 11.45 1.8 8.7 4.65 6.2 1.5 3.35 4.45 -0.25 1.4 -4.05 4.9 -7.4 2.3 -9.95 4.8 -12.95 1.5 -15.7 4.25 -18.05 0.2 -11.2 -4.85 11.55 -4.75" fill="#996666" fill-rule="evenodd" stroke="none"/>
    </g>
    <g id="shape3" transform="matrix(1.0, 0.0, 0.0, 1.0, 0.75, 0.75)">
      <path d="M35.95 5.6 L32.6 9.55 29.5 6.65 26.75 9.5 24.25 6.35 21.4 9.3 21.05 9.0 17.8 6.25 14.0 9.75 10.65 7.15 8.1 9.65 5.1 6.35 2.35 9.1 0.0 5.05 6.85 0.0 29.6 0.1 36.1 5.4 M22.9 4.7 L24.25 6.35 M29.5 6.65 L26.9 4.2 M15.8 4.4 L14.0 9.75 M10.65 7.15 L12.75 5.05 M7.05 4.35 L5.1 6.35 M21.05 9.0 L20.05 5.0" fill="none" stroke="#000000" stroke-linecap="round" stroke-linejoin="round" stroke-width="1.5"/>
    </g>
    <g id="sprite4" transform="matrix(1.0, 0.0, 0.0, 1.0, 0.75, 0.75)">
      <use ffdec:characterId="276" height="14.75" id="mc100" transform="matrix(1.0, 0.0, 0.0, 1.0, 0.0, 2.55)" width="24.35" xlink:href="#sprite5"/>
      <use ffdec:characterId="67" height="18.8" transform="matrix(1.0, 0.0, 0.0, 1.0, -0.75, -0.75)" width="25.85" xlink:href="#shape5"/>
    </g>
    <g id="sprite5" transform="matrix(1.0, 0.0, 0.0, 1.0, 12.15, 7.35)">
      <use ffdec:characterId="15" height="14.75" transform="matrix(1.0, 0.0, 0.0, 1.0, -12.15, -7.35)" width="24.35" xlink:href="#shape4"/>
    </g>
    <g id="shape4" transform="matrix(1.0, 0.0, 0.0, 1.0, 12.15, 7.35)">
      <path d="M12.15 -5.15 L12.15 -4.6 -12.1 -4.6 -12.05 -5.15 -11.95 -7.35 12.05 -7.35 12.15 -5.15 M11.85 7.4 L-11.75 7.4 -11.95 4.65 12.05 4.65 11.85 7.4 M12.2 1.25 L-12.1 1.35 -12.15 -1.8 12.2 -1.85 12.2 1.25" fill="#00ff00" fill-rule="evenodd" stroke="none"/>
    </g>
    <g id="shape5" transform="matrix(1.0, 0.0, 0.0, 1.0, 0.75, 0.75)">
      <path d="M24.2 14.55 L0.2 14.55 0.05 11.25 24.35 11.15 24.2 14.55 M0.0 8.1 L0.05 5.3 24.3 5.3 24.35 8.05 0.0 8.1 M0.2 2.55 L0.4 0.0 24.0 0.0 24.2 2.55 0.2 2.55" fill="#ffffff" fill-rule="evenodd" stroke="none"/>
      <path d="M0.2 14.55 L0.4 17.3 24.0 17.3 24.2 14.55 0.2 14.55 0.05 11.25 0.0 8.1 0.05 5.3 0.1 4.75 0.2 2.55 0.4 0.0 24.0 0.0 24.2 2.55 24.3 4.75 24.3 5.3 24.35 8.05 24.35 11.15 24.2 14.55 M24.35 11.15 L0.05 11.25 M24.2 2.55 L0.2 2.55 M24.3 5.3 L0.05 5.3 M0.0 8.1 L24.35 8.05" fill="none" stroke="#000000" stroke-linecap="round" stroke-linejoin="round" stroke-width="1.5"/>
    </g>
    <g id="sprite6" transform="matrix(1.0, 0.0, 0.0, 1.0, 0.75, 0.75)">
      <use ffdec:characterId="323" height="19.45" id="mc100" transform="matrix(1.0, 0.0, 0.0, 1.0, 1.65, 0.0)" width="6.75" xlink:href="#sprite7"/>
      <use ffdec:characterId="116" height="20.95" transform="matrix(1.0, 0.0, 0.0, 1.0, -0.75, -0.75)" width="10.0" xlink:href="#shape7"/>
    </g>
    <g id="sprite7" transform="matrix(1.0, 0.0, 0.0, 1.0, 3.35, 9.7)">
      <use ffdec:characterId="19" height="19.45" transform="matrix(1.0, 0.0, 0.0, 1.0, -3.35, -9.7)" width="6.75" xlink:href="#shape6"/>
    </g>
    <g id="shape6" transform="matrix(1.0, 0.0, 0.0, 1.0, 3.35, 9.7)">
      <path d="M3.05 0.15 L2.9 4.95 0.45 4.7 0.95 9.15 0.95 9.75 0.9 9.75 -2.55 9.3 -1.9 4.45 -3.35 4.3 -3.2 -0.6 3.05 0.15 M3.35 -6.95 L3.25 -4.2 -3.05 -4.95 -2.9 -9.4 -2.75 -9.7 3.4 -7.2 3.35 -6.95" fill="#00ffff" fill-rule="evenodd" stroke="none"/>
    </g>
    <g id="shape7" transform="matrix(1.0, 0.0, 0.0, 1.0, 0.75, 0.75)">
      <path d="M1.95 4.75 L8.25 5.5 8.05 9.85 1.8 9.1 1.95 4.75 M7.9 14.65 L7.85 14.95 Q8.45 16.8 8.5 19.2 L6.0 19.45 5.95 19.45 5.95 18.85 5.45 14.4 7.4 14.6 7.9 14.65 M2.45 19.0 L0.0 18.3 Q0.15 16.25 1.6 14.4 L1.65 14.0 3.1 14.15 2.45 19.0" fill="#ffffff" fill-rule="evenodd" stroke="none"/>
      <path d="M2.1 0.3 L1.95 4.75 8.25 5.5 8.35 2.75 M8.4 2.5 L2.25 0.0 M1.95 4.75 L1.8 9.1 8.05 9.85 8.25 5.5 M5.95 19.45 L6.0 19.45 8.5 19.2 Q8.45 16.8 7.85 14.95 L7.9 14.65 8.05 9.85 M7.4 14.6 L5.45 14.4 5.95 18.85 M5.95 19.45 L5.9 19.45 2.45 19.0 0.0 18.3 Q0.15 16.25 1.6 14.4 L1.65 14.0 1.8 9.1 M2.45 19.0 L3.1 14.15 1.65 14.0 M5.45 14.4 L3.1 14.15" fill="none" stroke="#000000" stroke-linecap="round" stroke-linejoin="round" stroke-width="1.5"/>
    </g>
    <g id="sprite8" transform="matrix(1.0, 0.0, 0.0, 1.0, 0.9, 0.9)">
      <use ffdec:characterId="280" height="20.5" id="mc100" transform="matrix(1.0, 0.0, 0.0, 1.0, 0.0, 0.0)" width="25.1" xlink:href="#sprite9"/>
      <use ffdec:characterId="70" height="22.3" transform="matrix(1.0, 0.0, 0.0, 1.0, -0.9, -0.9)" width="26.9" xlink:href="#shape9"/>
    </g>
    <g id="sprite9" transform="matrix(1.0, 0.0, 0.0, 1.0, 12.55, 10.25)">
      <use ffdec:characterId="23" height="20.5" transform="matrix(1.0, 0.0, 0.0, 1.0, -12.55, -10.25)" width="25.1" xlink:href="#shape8"/>
    </g>
    <g id="shape8" transform="matrix(1.0, 0.0, 0.0, 1.0, 12.55, 10.25)">
      <path d="M3.3 -9.9 Q2.3 0.0 3.35 9.9 L0.0 10.25 -3.55 9.9 -3.2 -9.9 0.0 -10.25 3.3 -9.9 M9.75 6.5 Q8.6 0.05 9.65 -6.55 12.55 -3.75 12.55 0.0 12.55 3.7 9.75 6.5 M-8.7 -6.95 Q-9.65 0.35 -8.8 7.25 L-8.9 7.25 Q-12.55 4.25 -12.55 0.0 -12.55 -4.2 -8.95 -7.2 L-8.7 -6.95" fill="#00ffff" fill-rule="evenodd" stroke="none"/>
    </g>
    <g id="shape9" transform="matrix(1.0, 0.0, 0.0, 1.0, 0.9, 0.9)">
      <path d="M15.85 0.35 Q18.95 1.0 21.4 3.0 L21.95 3.5 22.2 3.7 Q21.15 10.3 22.3 16.75 L21.4 17.5 Q19.0 19.5 15.9 20.15 14.85 10.25 15.85 0.35 M9.0 20.15 Q6.05 19.45 3.75 17.55 L3.75 17.5 Q2.9 10.6 3.85 3.3 L3.65 3.0 Q6.15 1.0 9.35 0.35 L9.0 20.15" fill="#ffffff" fill-rule="evenodd" stroke="none"/>
      <path d="M15.85 0.35 Q18.95 1.0 21.4 3.0 L21.95 3.5 22.2 3.7 Q25.1 6.5 25.1 10.25 25.1 13.95 22.3 16.75 L21.4 17.5 Q19.0 19.5 15.9 20.15 L12.55 20.5 9.0 20.15 Q6.05 19.45 3.75 17.55 L3.65 17.5 Q0.0 14.5 0.0 10.25 0.0 6.05 3.6 3.05 L3.65 3.0 Q6.15 1.0 9.35 0.35 L12.55 0.0 15.85 0.35 Q14.85 10.25 15.9 20.15 M22.2 3.7 Q21.15 10.3 22.3 16.75 M3.75 17.55 L3.75 17.5 Q2.9 10.6 3.85 3.3 M9.35 0.35 L9.0 20.15" fill="none" stroke="#000000" stroke-linecap="round" stroke-linejoin="round" stroke-width="1.8"/>
    </g>
    <g id="sprite10" transform="matrix(1.0, 0.0, 0.0, 1.0, 0.9, 0.9)">
      <use ffdec:characterId="286" height="26.1" id="mc100" transform="matrix(1.0, 0.0, 0.0, 1.0, 0.0, 0.0)" width="4.3" xlink:href="#sprite11"/>
      <use ffdec:characterId="73" height="27.9" transform="matrix(1.0, 0.0, 0.0, 1.0, -0.9, -0.9)" width="6.1" xlink:href="#shape11"/>
    </g>
    <g id="sprite11" transform="matrix(1.0, 0.0, 0.0, 1.0, 2.15, 13.05)">
      <use ffdec:characterId="27" height="26.1" transform="matrix(1.0, 0.0, 0.0, 1.0, -2.15, -13.05)" width="4.3" xlink:href="#shape10"/>
    </g>
    <g id="shape10" transform="matrix(1.0, 0.0, 0.0, 1.0, 2.15, 13.05)">
      <path d="M1.95 -7.15 Q2.2 4.15 -2.15 13.05 L-1.85 -12.9 -1.6 -13.05 2.15 -7.45 1.95 -7.15" fill="#993300" fill-rule="evenodd" stroke="none"/>
    </g>
    <g id="shape11" transform="matrix(1.0, 0.0, 0.0, 1.0, 0.9, 0.9)">
      <path d="M4.1 5.9 Q4.35 17.2 0.0 26.1 L0.3 0.15 M0.55 0.0 L4.3 5.6" fill="none" stroke="#000000" stroke-linecap="round" stroke-linejoin="round" stroke-width="1.8"/>
    </g>
    <g id="sprite12" transform="matrix(1.0, 0.0, 0.0, 1.0, 0.9, 0.9)">
      <use ffdec:characterId="288" height="25.2" id="mc100" transform="matrix(1.0, 0.0, 0.0, 1.0, 0.0, 0.0)" width="22.15" xlink:href="#sprite13"/>
      <use ffdec:characterId="76" height="27.0" transform="matrix(1.0, 0.0, 0.0, 1.0, -0.9, -0.9)" width="23.95" xlink:href="#shape13"/>
    </g>
    <g id="sprite13" transform="matrix(1.0, 0.0, 0.0, 1.0, 11.05, 12.6)">
      <use ffdec:characterId="31" height="25.2" transform="matrix(1.0, 0.0, 0.0, 1.0, -11.05, -12.6)" width="22.15" xlink:href="#shape12"/>
    </g>
    <g id="shape12" transform="matrix(1.0, 0.0, 0.0, 1.0, 11.05, 12.6)">
      <path d="M11.1 -11.1 L11.05 -11.0 Q6.65 0.2 4.55 12.6 1.4 12.55 -1.2 11.5 -5.15 9.95 -7.95 6.3 -9.7 3.95 -11.0 0.75 L-11.05 0.6 Q-3.25 -11.3 8.75 -12.35 L8.95 -12.6 11.1 -11.1" fill="#993300" fill-rule="evenodd" stroke="none"/>
    </g>
    <g id="shape13" transform="matrix(1.0, 0.0, 0.0, 1.0, 0.9, 0.9)">
      <path d="M20.0 0.0 L22.15 1.5 22.1 1.6 Q17.7 12.8 15.6 25.2 12.45 25.15 9.85 24.1 5.9 22.55 3.1 18.9 1.35 16.55 0.05 13.35 L0.0 13.2 Q7.8 1.3 19.8 0.25 M3.1 18.9 Q7.85 8.9 15.9 3.05 M9.85 24.1 Q12.35 13.75 18.25 4.0" fill="none" stroke="#000000" stroke-linecap="round" stroke-linejoin="round" stroke-width="1.8"/>
    </g>
    <g id="sprite14" transform="matrix(1.0, 0.0, 0.0, 1.0, 0.9, 0.9)">
      <use ffdec:characterId="418" height="34.75" id="mc100" transform="matrix(1.0, 0.0, 0.0, 1.0, 0.0, 0.0)" width="48.4" xlink:href="#sprite15"/>
      <use ffdec:characterId="79" height="36.55" transform="matrix(1.0, 0.0, 0.0, 1.0, -0.9, -0.9)" width="50.2" xlink:href="#shape15"/>
    </g>
    <g id="sprite15" transform="matrix(1.0, 0.0, 0.0, 1.0, 24.2, 17.35)">
      <use ffdec:characterId="35" height="34.75" transform="matrix(1.0, 0.0, 0.0, 1.0, -24.2, -17.35)" width="48.4" xlink:href="#shape14"/>
    </g>
    <g id="shape14" transform="matrix(1.0, 0.0, 0.0, 1.0, 24.2, 17.35)">
      <path d="M21.85 -17.2 Q25.25 -9.15 23.75 1.05 20.25 12.6 3.55 17.0 L-2.85 17.3 Q-22.6 13.35 -24.2 -0.75 L-24.2 -1.05 -22.65 -17.15 21.8 -17.35 21.85 -17.2" fill="#ffcc66" fill-rule="evenodd" stroke="none"/>
    </g>
    <g id="shape15" transform="matrix(1.0, 0.0, 0.0, 1.0, 0.9, 0.9)">
      <path d="M46.05 0.15 Q49.45 8.2 47.95 18.4 44.45 29.95 27.75 34.35 L21.35 34.65 Q1.6 30.7 0.0 16.6 L0.0 16.3 1.55 0.2 46.0 0.0 46.05 0.15 Z" fill="none" stroke="#000000" stroke-linecap="round" stroke-linejoin="round" stroke-width="1.8"/>
    </g>
    <g id="morphshape0" transform="matrix(1.0, 0.0, 0.0, 1.0, 3.3, 28.15)">
      <path d="M-2.45 -26.35 L-1.65 -26.7 Q-0.1 -27.8 1.55 -26.7 L2.3 -26.4" fill="none" stroke="#000000" stroke-linecap="round" stroke-linejoin="round" stroke-width="1.5"/>
    </g>
    <g id="sprite16" transform="matrix(1.0, 0.0, 0.0, 1.0, 0.9, 0.9)">
      <use ffdec:characterId="421" height="35.7" id="mc100" transform="matrix(1.0, 0.0, 0.0, 1.0, 0.0, 0.0)" width="58.45" xlink:href="#sprite17"/>
      <use ffdec:characterId="83" height="37.5" transform="matrix(1.0, 0.0, 0.0, 1.0, -0.9, -0.9)" width="60.25" xlink:href="#shape17"/>
    </g>
    <g id="sprite17" transform="matrix(1.0, 0.0, 0.0, 1.0, 29.2, 17.85)">
      <use ffdec:characterId="40" height="35.7" transform="matrix(1.0, 0.0, 0.0, 1.0, -29.2, -17.85)" width="58.45" xlink:href="#shape16"/>
    </g>
    <g id="shape16" transform="matrix(1.0, 0.0, 0.0, 1.0, 29.2, 17.85)">
      <path d="M0.55 -17.85 Q12.3 -17.65 20.65 -9.25 29.25 -0.65 29.25 11.55 29.25 14.7 26.95 17.2 L26.95 17.85 5.05 17.0 4.95 16.7 4.75 5.6 4.4 5.55 3.3 16.05 0.8 16.05 0.7 6.75 -1.0 16.05 -3.45 16.05 -3.75 3.5 -4.15 4.25 -5.1 16.8 -12.3 16.45 -13.65 16.45 -17.8 16.55 -24.15 17.0 -26.9 17.3 Q-29.2 14.8 -29.2 11.65 -29.2 -0.55 -20.6 -9.15 -12.25 -17.55 0.55 -17.85" fill="#993300" fill-rule="evenodd" stroke="none"/>
    </g>
    <g id="shape17" transform="matrix(1.0, 0.0, 0.0, 1.0, 0.9, 0.9)">
      <path d="M56.15 35.05 Q58.45 32.55 58.45 29.4 58.45 17.2 49.85 8.6 41.5 0.2 29.75 0.0 16.95 0.3 8.6 8.7 0.0 17.3 0.0 29.5 0.0 32.65 2.3 35.15 L5.05 34.85 11.4 34.4 15.55 34.3 16.9 34.3 24.1 34.65 25.25 19.0 M40.95 22.45 Q41.85 28.6 41.2 35.15 L42.7 35.2 Q44.45 28.4 43.9 21.6 M42.7 35.2 L47.45 35.35 Q48.95 28.6 48.45 22.15 M47.45 35.35 L56.15 35.7 M53.2 35.05 Q55.5 30.05 55.35 24.7 M4.95 34.45 Q3.8 30.4 4.75 25.95 M25.45 21.35 L25.75 33.9 28.2 33.9 29.9 24.6 30.0 33.9 32.5 33.9 33.6 23.4 M11.35 33.95 Q10.15 26.6 10.95 18.9 M15.5 34.05 Q14.7 26.75 15.3 18.8 M33.95 23.45 L34.15 34.55 M16.85 34.05 L18.5 17.9 M34.25 34.85 L41.2 35.15" fill="none" stroke="#000000" stroke-linecap="round" stroke-linejoin="round" stroke-width="1.8"/>
    </g>
    <g id="shape18" transform="matrix(1.0, 0.0, 0.0, 1.0, 0.0, 0.0)">
      <path d="M9.0 6.45 Q7.95 6.75 7.0 6.1 5.75 6.8 4.8 6.5 5.65 5.8 5.55 5.15 3.5 5.9 1.3 4.75 3.05 4.75 3.25 3.1 1.45 3.9 0.0 2.75 2.45 2.05 3.3 0.0 4.6 6.85 17.85 1.85 15.2 4.75 9.0 6.45" fill="#000000" fill-rule="evenodd" stroke="none"/>
    </g>
    <g id="sprite18" transform="matrix(1.0, 0.0, 0.0, 1.0, 0.9, 0.9)">
      <use ffdec:characterId="407" height="65.3" id="mc300" transform="matrix(1.0, 0.0, 0.0, 1.0, 0.0, 0.0)" width="91.9" xlink:href="#sprite19"/>
      <use ffdec:characterId="409" height="23.1" id="mc200" transform="matrix(1.0, 0.0, 0.0, 1.0, 16.6, 30.1)" width="55.5" xlink:href="#sprite20"/>
      <use ffdec:characterId="411" height="18.95" id="mc100" transform="matrix(1.0, 0.0, 0.0, 1.0, 34.8, 34.6)" width="21.0" xlink:href="#sprite21"/>
      <use ffdec:characterId="412" height="67.1" transform="matrix(1.0, 0.0, 0.0, 1.0, -0.9, -0.9)" width="93.7" xlink:href="#shape22"/>
    </g>
    <g id="sprite19" transform="matrix(1.0, 0.0, 0.0, 1.0, 45.95, 32.65)">
      <use ffdec:characterId="406" height="65.3" transform="matrix(1.0, 0.0, 0.0, 1.0, -45.95, -32.65)" width="91.9" xlink:href="#shape19"/>
    </g>
    <g id="shape19" transform="matrix(1.0, 0.0, 0.0, 1.0, 45.95, 32.65)">
      <path d="M22.2 -4.1 L22.8 -2.55 Q18.05 0.95 12.4 2.75 L8.65 3.95 Q7.65 2.65 5.8 2.15 2.3 1.55 -2.1 2.7 L-3.8 4.35 -6.9 4.4 Q-8.35 2.85 -10.35 3.6 L-10.45 4.15 Q-18.9 3.55 -27.2 -1.5 -25.75 -6.5 -23.65 -10.95 -19.05 -20.95 -10.75 -28.0 -4.4 -34.65 5.45 -31.8 L5.85 -31.6 Q17.2 -27.4 25.05 -20.25 L25.3 -19.85 Q30.6 -15.65 31.55 -8.75 L31.5 -8.4 Q30.9 -4.4 22.2 -4.1 M44.95 15.75 Q37.45 24.35 26.3 28.05 L26.05 28.2 Q6.4 34.75 -11.45 31.65 L-11.95 31.7 Q-29.5 29.4 -41.3 19.65 L-41.75 19.45 Q-50.8 12.55 -40.4 7.5 L-28.75 2.25 -28.2 2.3 -29.35 7.7 -29.25 7.75 Q-22.25 16.5 -11.1 19.5 L-10.45 19.6 Q-8.55 21.8 -7.0 20.25 L-6.9 20.35 1.55 20.55 2.3 20.35 Q7.25 21.25 9.3 20.4 L9.45 18.85 Q13.1 17.4 16.25 15.45 22.1 11.75 26.15 6.3 L23.7 -0.05 Q33.5 2.8 42.15 8.1 L42.45 8.25 Q47.8 11.65 44.95 15.75 M1.75 13.45 Q1.75 14.3 1.15 14.9 0.55 15.5 -0.3 15.5 -1.15 15.5 -1.75 14.9 -2.35 14.3 -2.35 13.45 -2.35 12.6 -1.75 12.0 -1.15 11.4 -0.3 11.4 0.55 11.4 1.15 12.0 1.75 12.6 1.75 13.45 M-18.45 9.2 Q-17.85 8.6 -17.0 8.6 -16.15 8.6 -15.55 9.2 -14.95 9.8 -14.95 10.65 -14.95 11.5 -15.55 12.1 -16.15 12.7 -17.0 12.7 -17.85 12.7 -18.45 12.1 -19.05 11.5 -19.05 10.65 -19.05 9.8 -18.45 9.2" fill="#1a0000" fill-rule="evenodd" stroke="none"/>
    </g>
    <g id="sprite20" transform="matrix(1.0, 0.0, 0.0, 1.0, 27.75, 11.55)">
      <use ffdec:characterId="408" height="23.1" transform="matrix(1.0, 0.0, 0.0, 1.0, -27.75, -11.55)" width="55.5" xlink:href="#shape20"/>
    </g>
    <g id="shape20" transform="matrix(1.0, 0.0, 0.0, 1.0, 27.75, 11.55)">
      <path d="M5.2 -1.2 L5.3 9.6 Q5.65 10.75 3.9 11.35 L2.85 11.55 -5.3 11.35 -5.3 11.15 Q-6.45 3.65 -5.3 -4.6 L1.85 -4.7 Q5.5 -4.7 5.2 -1.2 M2.75 5.9 Q3.35 5.3 3.35 4.45 3.35 3.6 2.75 3.0 2.15 2.4 1.3 2.4 0.45 2.4 -0.15 3.0 -0.75 3.6 -0.75 4.45 -0.75 5.3 -0.15 5.9 0.45 6.5 1.3 6.5 2.15 6.5 2.75 5.9 M14.0 -6.25 Q19.65 -8.05 24.4 -11.55 L27.75 -2.7 Q23.7 2.75 17.85 6.45 14.7 8.4 11.05 9.85 11.75 3.3 11.15 -2.8 10.9 -4.15 10.25 -5.05 L14.0 -6.25 M-8.85 -4.85 Q-10.2 2.85 -8.85 10.45 L-9.5 10.5 Q-20.65 7.5 -27.65 -1.25 L-27.75 -1.3 -26.6 -6.7 -25.6 -10.5 Q-17.3 -5.45 -8.85 -4.85 M-16.85 0.2 Q-17.45 0.8 -17.45 1.65 -17.45 2.5 -16.85 3.1 -16.25 3.7 -15.4 3.7 -14.55 3.7 -13.95 3.1 -13.35 2.5 -13.35 1.65 -13.35 0.8 -13.95 0.2 -14.55 -0.4 -15.4 -0.4 -16.25 -0.4 -16.85 0.2" fill="#ff0000" fill-rule="evenodd" stroke="none"/>
    </g>
    <g id="sprite21" transform="matrix(1.0, 0.0, 0.0, 1.0, 10.5, 9.45)">
      <use ffdec:characterId="410" height="18.95" transform="matrix(1.0, 0.0, 0.0, 1.0, -10.5, -9.45)" width="21.0" xlink:href="#shape21"/>
    </g>
    <g id="shape21" transform="matrix(1.0, 0.0, 0.0, 1.0, 10.5, 9.45)">
      <path d="M9.3 -7.45 Q9.95 -6.55 10.2 -5.2 10.8 0.9 10.1 7.45 L9.95 9.0 Q7.9 9.85 2.95 8.95 4.7 8.35 4.35 7.2 L4.25 -3.6 Q4.55 -7.1 0.9 -7.1 L-3.15 -7.05 -1.45 -8.7 Q2.95 -9.85 6.45 -9.25 8.3 -8.75 9.3 -7.45 M-6.25 -7.0 Q-7.4 1.25 -6.25 8.75 L-6.35 8.85 Q-7.9 10.4 -9.8 8.2 L-9.8 8.05 Q-11.15 0.45 -9.8 -7.25 L-9.7 -7.8 Q-7.7 -8.55 -6.25 -7.0" fill="#333333" fill-rule="evenodd" stroke="none"/>
    </g>
    <g id="shape22" transform="matrix(1.0, 0.0, 0.0, 1.0, 0.9, 0.9)">
      <path d="M34.85 52.15 Q23.7 49.15 16.7 40.4 L16.6 40.35 Q17.1 37.6 17.75 34.95 L18.75 31.15 Q20.2 26.15 22.3 21.7 26.9 11.7 35.2 4.65 41.55 -2.0 51.4 0.85 L51.8 1.05 Q63.15 5.25 71.0 12.4 L71.25 12.8 Q76.55 17.0 77.5 23.9 L77.45 24.25 Q76.85 28.25 68.15 28.55 L68.75 30.1 69.65 32.6 Q79.45 35.45 88.1 40.75 L88.4 40.9 Q93.75 44.3 90.9 48.4 83.4 57.0 72.25 60.7 L72.0 60.85 Q52.35 67.4 34.5 64.3 L34.0 64.35 Q16.45 62.05 4.65 52.3 L4.2 52.1 Q-4.85 45.2 5.55 40.15 L17.2 34.9 M18.75 31.15 Q27.05 36.2 35.5 36.8 L35.6 36.25 Q37.6 35.5 39.05 37.05 L42.15 37.0 43.85 35.35 Q48.25 34.2 51.75 34.8 53.6 35.3 54.6 36.6 L58.35 35.4 Q64.0 33.6 68.75 30.1 M39.05 37.05 Q37.9 45.3 39.05 52.8 L39.05 53.0 47.2 53.2 48.25 53.0 Q50.0 52.4 49.65 51.25 L49.55 40.45 Q49.85 36.95 46.2 36.95 L42.15 37.0 M44.2 47.55 Q43.6 46.95 43.6 46.1 43.6 45.25 44.2 44.65 44.8 44.05 45.65 44.05 46.5 44.05 47.1 44.65 47.7 45.25 47.7 46.1 47.7 46.95 47.1 47.55 46.5 48.15 45.65 48.15 44.8 48.15 44.2 47.55 M54.6 36.6 Q55.25 37.5 55.5 38.85 56.1 44.95 55.4 51.5 59.05 50.05 62.2 48.1 64.65 44.45 63.85 40.9 L62.9 37.6 Q61.8 34.95 58.35 35.4 M62.2 48.1 Q68.05 44.4 72.1 38.95 L69.65 32.6 M68.15 28.55 L66.3 28.55 Q56.55 29.2 49.65 24.9 M27.5 41.85 Q28.1 41.25 28.95 41.25 29.8 41.25 30.4 41.85 31.0 42.45 31.0 43.3 31.0 44.15 30.4 44.75 29.8 45.35 28.95 45.35 28.1 45.35 27.5 44.75 26.9 44.15 26.9 43.3 26.9 42.45 27.5 41.85 M35.5 36.8 Q34.15 44.5 35.5 52.1 L35.5 52.25 Q37.4 54.45 38.95 52.9 L39.05 52.8 M48.25 53.0 Q53.2 53.9 55.25 53.05 L55.4 51.5 M47.2 53.2 L47.5 53.2 48.25 53.0" fill="none" stroke="#000000" stroke-linecap="round" stroke-linejoin="round" stroke-width="1.8"/>
    </g>
    <g id="sprite22" transform="matrix(1.0, 0.0, 0.0, 1.0, 0.9, 0.9)">
      <use ffdec:characterId="351" height="9.9" id="mc200" transform="matrix(1.0, 0.0, 0.0, 1.0, 0.0, 0.0)" width="9.35" xlink:href="#sprite23"/>
      <use ffdec:characterId="353" height="10.0" id="mc100" transform="matrix(1.0, 0.0, 0.0, 1.0, 3.3, 2.2)" width="13.2" xlink:href="#sprite24"/>
      <use ffdec:characterId="354" height="14.2" transform="matrix(1.0, 0.0, 0.0, 1.0, -0.9, -0.9)" width="18.3" xlink:href="#shape25"/>
    </g>
    <g id="sprite23" transform="matrix(1.0, 0.0, 0.0, 1.0, 4.65, 4.95)">
      <use ffdec:characterId="350" height="9.9" transform="matrix(1.0, 0.0, 0.0, 1.0, -4.65, -4.95)" width="9.35" xlink:href="#shape23"/>
    </g>
    <g id="shape23" transform="matrix(1.0, 0.0, 0.0, 1.0, 4.65, 4.95)">
      <path d="M4.7 -2.8 L4.45 -2.5 Q4.05 3.6 -1.35 4.95 -3.45 3.25 -4.6 0.6 -5.15 -4.1 -0.55 -4.95 2.25 -5.2 4.7 -2.8" fill="#ffcc66" fill-rule="evenodd" stroke="none"/>
    </g>
    <g id="sprite24" transform="matrix(1.0, 0.0, 0.0, 1.0, 6.6, 5.0)">
      <use ffdec:characterId="352" height="10.0" transform="matrix(1.0, 0.0, 0.0, 1.0, -6.6, -5.0)" width="13.2" xlink:href="#shape24"/>
    </g>
    <g id="shape24" transform="matrix(1.0, 0.0, 0.0, 1.0, 6.6, 5.0)">
      <path d="M1.55 -4.35 Q3.4 -5.15 5.0 -4.05 7.4 -1.7 6.15 1.45 4.9 4.3 2.3 5.0 3.65 1.15 1.7 -3.7 L1.65 -3.85 1.55 -4.35 M0.65 -3.75 L0.85 -3.45 0.55 -3.2 Q0.9 1.7 -2.45 3.7 L-3.65 4.3 Q-5.3 3.7 -6.6 2.7 -1.2 1.35 -0.8 -4.75 L-0.5 -5.0 0.65 -3.75" fill="#00ff00" fill-rule="evenodd" stroke="none"/>
    </g>
    <g id="shape25" transform="matrix(1.0, 0.0, 0.0, 1.0, 0.9, 0.9)">
      <path d="M11.6 3.5 Q13.55 8.35 12.2 12.2 L8.1 12.1 7.45 10.9 Q10.8 8.9 10.45 4.0 L10.75 3.75 11.6 3.5" fill="#ffffff" fill-rule="evenodd" stroke="none"/>
      <path d="M12.2 12.2 Q14.8 11.5 16.05 8.65 17.3 5.5 14.9 3.15 13.3 2.05 11.45 2.85 L10.95 3.1 M11.6 3.5 Q13.55 8.35 12.2 12.2 L8.1 12.1 6.25 11.5 Q4.6 10.9 3.3 9.9 1.2 8.2 0.05 5.55 -0.5 0.85 4.1 0.0 6.9 -0.25 9.35 2.15 L9.4 2.2 10.55 3.45 10.75 3.75 M3.3 9.9 Q8.7 8.55 9.1 2.45 M6.25 11.5 L7.45 10.9 Q10.8 8.9 10.45 4.0" fill="none" stroke="#000000" stroke-linecap="round" stroke-linejoin="round" stroke-width="1.8"/>
    </g>
    <g id="shape26" transform="matrix(1.0, 0.0, 0.0, 1.0, 3.3, 6.2)">
      <path d="M0.05 -6.1 Q2.9 -2.1 3.25 3.0 L3.25 2.95 Q3.2 4.3 2.3 5.25 1.35 6.2 0.05 6.2 L-0.05 6.2 Q-1.4 6.2 -2.35 5.25 -3.3 4.3 -3.3 3.0 L-3.3 2.95 Q-2.85 -1.95 0.0 -6.2 L0.05 -6.1" fill="#33ccff" fill-rule="evenodd" stroke="none"/>
    </g>
  </defs>
</svg>
