<?xml version="1.0" encoding="UTF-8" standalone="no"?>
<svg xmlns:ffdec="https://www.free-decompiler.com/flash" xmlns:xlink="http://www.w3.org/1999/xlink" ffdec:objectType="frame" height="106.25px" width="99.6px" xmlns="http://www.w3.org/2000/svg">
  <g transform="matrix(1.0, 0.0, 0.0, 1.0, 39.5, 104.85)">
    <use ffdec:characterId="293" height="18.55" id="mc1100" transform="matrix(-0.7954, -0.6054, -0.6054, 0.7954, 20.8713, -25.9474)" width="15.75" xlink:href="#sprite0"/>
    <use ffdec:characterId="287" height="18.85" id="mc1000" transform="matrix(-0.9946, 0.101, 0.101, 0.9946, 7.0634, -20.0483)" width="10.9" xlink:href="#sprite3"/>
    <use ffdec:characterId="287" height="18.85" id="mc900" transform="matrix(-0.9946, 0.101, 0.101, 0.9946, -0.8866, -18.4483)" width="10.9" xlink:href="#sprite3"/>
    <use ffdec:characterId="322" height="15.5" id="hide_hat8" transform="matrix(0.9951, 0.0919, -0.0919, 0.9951, -27.1129, -97.4283)" width="15.5" xlink:href="#sprite4"/>
    <use ffdec:characterId="326" height="20.1" id="mc700" transform="matrix(-1.0, 0.0, 0.0, 1.0, 11.2, -39.9)" width="21.95" xlink:href="#sprite6"/>
    <use ffdec:characterId="330" height="19.75" id="mc620" transform="matrix(1.0, 0.0, 0.0, 1.0, -12.2, -22.05)" width="23.2" xlink:href="#sprite8"/>
    <use ffdec:characterId="293" height="18.55" id="mc520" transform="matrix(-0.7936, -0.6051, -0.6051, 0.7936, 2.4049, -25.8836)" width="15.75" xlink:href="#sprite0"/>
    <use ffdec:characterId="334" height="41.0" id="mc420" transform="matrix(-0.9951, -0.0919, -0.0919, 0.9951, 15.9283, -71.5629)" width="41.45" xlink:href="#sprite10"/>
    <use ffdec:characterId="337" height="13.0" id="mc320" transform="matrix(-0.9912, -0.1263, -0.1263, 0.9912, -1.8708, -36.8514)" width="15.0" xlink:href="#sprite12"/>
    <use ffdec:characterId="341" height="69.3" id="mc220" transform="matrix(-0.9951, -0.0919, -0.0919, 0.9951, 39.7783, -97.2129)" width="69.4" xlink:href="#sprite15"/>
    <use ffdec:characterId="352" height="0.0" id="hat" transform="matrix(1.0, 0.0, 0.0, 1.0, -0.05, 0.0)" width="0.0" xlink:href="#sprite17"/>
    <use ffdec:characterId="350" height="71.85" id="mc020" transform="matrix(0.9053, -0.4184, 0.4184, 0.9053, -39.0082, -69.2456)" width="75.9" xlink:href="#sprite18"/>
  </g>
  <defs>
    <g id="sprite0" transform="matrix(1.0, 0.0, 0.0, 1.0, 7.85, 8.8)">
      <use ffdec:characterId="288" height="6.5" id="mc300" transform="matrix(1.0, 0.0, 0.0, 1.0, -5.35, 2.35)" width="7.55" xlink:href="#sprite1"/>
      <use ffdec:characterId="289" height="9.9" transform="matrix(1.0, 0.0, 0.0, 1.0, -5.75, -2.7)" width="10.5" xlink:href="#shape1"/>
      <use ffdec:characterId="291" height="15.5" id="mc100" transform="matrix(1.0, 0.0, 0.0, 1.0, -6.95, -7.9)" width="13.95" xlink:href="#sprite2"/>
      <use ffdec:characterId="292" height="18.55" transform="matrix(1.0, 0.0, 0.0, 1.0, -7.85, -8.8)" width="15.75" xlink:href="#shape3"/>
    </g>
    <g id="sprite1" transform="matrix(1.0, 0.0, 0.0, 1.0, 3.8, 3.25)">
      <use ffdec:characterId="12" height="6.5" transform="matrix(1.0, 0.0, 0.0, 1.0, -3.8, -3.25)" width="7.55" xlink:href="#shape0"/>
    </g>
    <g id="shape0" transform="matrix(1.0, 0.0, 0.0, 1.0, 0.0, 0.0)">
      <path d="M6.45 2.8 L7.55 2.7 7.1 3.95 Q6.5 5.65 5.2 6.2 3.75 6.8 2.3 6.2 0.8 5.55 0.2 4.15 -0.3 2.8 0.5 1.2 L1.1 0.0 Q2.7 2.0 4.75 2.55 L6.3 2.9 6.45 2.8" fill="#b59155" fill-rule="evenodd" stroke="none"/>
    </g>
    <g id="shape1" transform="matrix(1.0, 0.0, 0.0, 1.0, 5.75, 2.7)">
      <path d="M-2.55 -1.8 L-2.7 -1.55 M-4.1 1.95 L-4.25 2.35 Q-2.65 4.35 -0.6 4.9 M-4.25 2.35 L-4.85 3.55 M1.75 6.3 L2.2 5.05 1.1 5.15 M2.2 5.05 L3.85 2.5" fill="none" stroke="#000000" stroke-linecap="round" stroke-linejoin="round" stroke-width="1.8"/>
    </g>
    <g id="sprite2" transform="matrix(1.0, 0.0, 0.0, 1.0, 6.95, 7.75)">
      <use ffdec:characterId="290" height="15.5" transform="matrix(1.0, 0.0, 0.0, 1.0, -6.95, -7.75)" width="13.95" xlink:href="#shape2"/>
    </g>
    <g id="shape2" transform="matrix(1.0, 0.0, 0.0, 1.0, 6.95, 7.75)">
      <path d="M4.3 -7.6 Q5.5 -8.0 6.3 -7.35 7.15 -6.7 7.0 -5.5 6.95 -4.3 3.45 2.8 L3.75 3.0 1.85 7.75 1.8 7.75 1.55 7.65 0.25 5.3 -2.9 6.65 -3.0 6.4 -3.4 3.1 -3.6 2.8 -6.95 2.8 -2.65 -1.7 -2.55 -1.6 -1.9 -2.5 Q3.1 -7.3 4.3 -7.6" fill="#ffffff" fill-rule="evenodd" stroke="none"/>
    </g>
    <g id="shape3" transform="matrix(1.0, 0.0, 0.0, 1.0, 7.85, 8.8)">
      <path d="M-2.45 -1.7 L3.45 2.65 Q6.95 -4.45 7.0 -5.65 7.15 -6.85 6.3 -7.5 5.5 -8.15 4.3 -7.75 3.1 -7.45 -1.9 -2.65 M-2.65 -1.85 L-6.95 2.65 -3.4 2.65 -3.0 6.25 M-4.85 3.55 Q-5.65 5.15 -5.15 6.5 -4.55 7.9 -3.05 8.55 -1.6 9.15 -0.15 8.55 0.8 8.15 1.35 7.15 L0.25 5.15 -2.9 6.5 M3.15 3.2 L3.45 2.65 M1.85 7.6 L3.75 2.85 M1.75 6.3 L1.35 7.15 1.55 7.5" fill="none" stroke="#000000" stroke-linecap="round" stroke-linejoin="round" stroke-width="1.8"/>
    </g>
    <g id="sprite3" transform="matrix(1.0, 0.0, 0.0, 1.0, 4.95, 9.5)">
      <use ffdec:characterId="286" height="18.85" transform="matrix(1.0, 0.0, 0.0, 1.0, -4.95, -9.5)" width="10.9" xlink:href="#shape4"/>
    </g>
    <g id="shape4" transform="matrix(1.0, 0.0, 0.0, 1.0, 4.95, 9.5)">
      <path d="M5.05 5.55 L5.05 5.7 Q5.15 6.65 3.9 7.45 2.7 8.25 0.95 8.4 -0.8 8.55 -2.15 7.95 -3.45 7.45 -3.55 6.5 L-3.55 6.35 -3.5 6.35 4.7 5.5 5.05 5.55" fill="#000000" fill-rule="evenodd" stroke="none"/>
      <path d="M-3.55 6.1 L-3.65 3.85 -4.05 -6.3 Q-4.1 -7.15 -3.15 -7.75 -2.1 -8.4 -0.55 -8.55 L2.1 -8.25 Q3.15 -7.75 3.3 -7.0 L3.35 -6.85 3.35 -6.65 4.7 3.05 5.05 5.45 4.7 5.5 -3.5 6.35 -3.55 6.1 M4.7 3.05 L-3.65 3.85 4.7 3.05" fill="#ffffff" fill-rule="evenodd" stroke="none"/>
      <path d="M-3.55 6.1 L-3.65 3.85 -4.05 -6.3 Q-4.1 -7.15 -3.15 -7.75 -2.1 -8.4 -0.55 -8.55 L2.1 -8.25 Q3.15 -7.75 3.3 -7.0 L3.35 -6.85 3.35 -6.65 4.7 3.05 5.05 5.45 5.05 5.55 5.05 5.7 Q5.15 6.65 3.9 7.45 2.7 8.25 0.95 8.4 -0.8 8.55 -2.15 7.95 -3.45 7.45 -3.55 6.5 L-3.55 6.35 -3.55 6.1 M-3.5 6.35 L4.7 5.5 M-3.55 6.35 L-3.5 6.35 M-3.65 3.85 L4.7 3.05" fill="none" stroke="#000000" stroke-linecap="round" stroke-linejoin="round" stroke-width="1.8"/>
    </g>
    <g id="sprite4" transform="matrix(1.0, 0.0, 0.0, 1.0, 0.9, 0.9)">
      <use ffdec:characterId="320" height="13.7" id="mc100" transform="matrix(1.0, 0.0, 0.0, 1.0, 0.0, 0.0)" width="13.7" xlink:href="#sprite5"/>
      <use ffdec:characterId="321" height="15.5" transform="matrix(1.0, 0.0, 0.0, 1.0, -0.9, -0.9)" width="15.5" xlink:href="#shape6"/>
    </g>
    <g id="sprite5" transform="matrix(1.0, 0.0, 0.0, 1.0, 6.85, 6.85)">
      <use ffdec:characterId="319" height="13.7" transform="matrix(1.0, 0.0, 0.0, 1.0, -6.85, -6.85)" width="13.7" xlink:href="#shape5"/>
    </g>
    <g id="shape5" transform="matrix(1.0, 0.0, 0.0, 1.0, 6.85, 6.85)">
      <path d="M4.65 -6.85 L6.85 -3.7 -3.95 6.85 Q-6.25 5.05 -6.85 2.9 -3.65 -3.1 4.65 -6.85" fill="#333333" fill-rule="evenodd" stroke="none"/>
    </g>
    <g id="shape6" transform="matrix(1.0, 0.0, 0.0, 1.0, 0.9, 0.9)">
      <path d="M13.7 3.15 L11.5 0.0 Q3.2 3.75 0.0 9.75 0.6 11.9 2.9 13.7 L13.7 3.15 Z" fill="none" stroke="#000000" stroke-linecap="round" stroke-linejoin="round" stroke-width="1.8"/>
    </g>
    <g id="sprite6" transform="matrix(1.0, 0.0, 0.0, 1.0, 1.95, 5.0)">
      <use ffdec:characterId="324" height="18.3" id="mc100" transform="matrix(1.0, 0.0, 0.0, 1.0, -1.05, -4.1)" width="20.15" xlink:href="#sprite7"/>
      <use ffdec:characterId="325" height="20.1" transform="matrix(1.0, 0.0, 0.0, 1.0, -1.95, -5.0)" width="21.95" xlink:href="#shape8"/>
    </g>
    <g id="sprite7" transform="matrix(1.0, 0.0, 0.0, 1.0, 10.05, 9.15)">
      <use ffdec:characterId="323" height="18.3" transform="matrix(1.0, 0.0, 0.0, 1.0, -10.05, -9.15)" width="20.15" xlink:href="#shape7"/>
    </g>
    <g id="shape7" transform="matrix(1.0, 0.0, 0.0, 1.0, 10.05, 9.15)">
      <path d="M9.15 -9.15 L10.1 9.15 Q-0.25 9.2 -10.05 8.85 L-7.75 -9.15 9.15 -9.15" fill="#ffffff" fill-rule="evenodd" stroke="none"/>
    </g>
    <g id="shape8" transform="matrix(1.0, 0.0, 0.0, 1.0, 1.95, 5.0)">
      <path d="M19.1 14.2 Q8.75 14.25 -1.05 13.9 L1.25 -4.1 18.15 -4.1 19.1 13.55" fill="none" stroke="#000000" stroke-linecap="round" stroke-linejoin="round" stroke-width="1.8"/>
    </g>
    <g id="sprite8" transform="matrix(1.0, 0.0, 0.0, 1.0, -2.25, 1.65)">
      <use ffdec:characterId="328" height="17.95" id="mc100" transform="matrix(1.0, 0.0, 0.0, 1.0, 3.15, -0.75)" width="21.4" xlink:href="#sprite9"/>
      <use ffdec:characterId="329" height="19.75" transform="matrix(1.0, 0.0, 0.0, 1.0, 2.25, -1.65)" width="23.2" xlink:href="#shape10"/>
    </g>
    <g id="sprite9" transform="matrix(1.0, 0.0, 0.0, 1.0, 10.7, 8.95)">
      <use ffdec:characterId="327" height="17.95" transform="matrix(1.0, 0.0, 0.0, 1.0, -10.7, -8.95)" width="21.4" xlink:href="#shape9"/>
    </g>
    <g id="shape9" transform="matrix(1.0, 0.0, 0.0, 1.0, 10.7, 8.95)">
      <path d="M-8.7 -8.75 Q0.45 -8.2 9.95 -8.95 L10.7 3.4 4.5 9.0 4.5 3.5 Q-3.5 5.05 -10.7 2.05 L-8.7 -8.75" fill="#ffcc00" fill-rule="evenodd" stroke="none"/>
    </g>
    <g id="shape10" transform="matrix(1.0, 0.0, 0.0, 1.0, -2.25, 1.65)">
      <path d="M5.15 -0.55 L4.7 1.7 Q14.15 2.6 23.95 1.7 L23.8 -0.75 Q14.3 0.0 5.15 -0.55 M23.95 1.7 L24.1 4.45 24.55 11.6 18.35 17.2 18.35 11.7 Q10.35 13.25 3.15 10.25 L4.7 1.7 M18.35 11.7 L18.35 4.5 Q10.95 4.75 4.95 3.35 M18.35 4.5 L24.1 4.45" fill="none" stroke="#000000" stroke-linecap="round" stroke-linejoin="round" stroke-width="1.8"/>
    </g>
    <g id="sprite10" transform="matrix(1.0, 0.0, 0.0, 1.0, 0.9, 0.9)">
      <use ffdec:characterId="332" height="39.2" id="mc100" transform="matrix(1.0, 0.0, 0.0, 1.0, 0.0, 0.0)" width="39.65" xlink:href="#sprite11"/>
      <use ffdec:characterId="333" height="41.0" transform="matrix(1.0, 0.0, 0.0, 1.0, -0.9, -0.9)" width="41.45" xlink:href="#shape12"/>
    </g>
    <g id="sprite11" transform="matrix(1.0, 0.0, 0.0, 1.0, 19.8, 19.6)">
      <use ffdec:characterId="331" height="39.2" transform="matrix(1.0, 0.0, 0.0, 1.0, -19.8, -19.6)" width="39.65" xlink:href="#shape11"/>
    </g>
    <g id="shape11" transform="matrix(1.0, 0.0, 0.0, 1.0, 19.8, 19.6)">
      <path d="M17.2 -19.6 Q19.95 -16.2 19.75 -12.05 20.35 -2.85 17.95 4.85 19.8 13.75 15.8 17.35 8.85 20.4 2.45 19.35 L-19.8 -0.95 -5.5 -19.2 17.2 -19.6" fill="#c0a149" fill-rule="evenodd" stroke="none"/>
    </g>
    <g id="shape12" transform="matrix(1.0, 0.0, 0.0, 1.0, 0.9, 0.9)">
      <path d="M39.55 7.55 Q40.15 16.75 37.75 24.45 39.6 33.35 35.6 36.95 28.65 40.0 22.25 38.95 L0.0 18.65 14.3 0.4 37.0 0.0 Q39.75 3.4 39.55 7.55 Z" fill="none" stroke="#000000" stroke-linecap="round" stroke-linejoin="round" stroke-width="1.8"/>
    </g>
    <g id="sprite12" transform="matrix(1.0, 0.0, 0.0, 1.0, 1.1, 1.1)">
      <use ffdec:characterId="336" height="10.05" id="mc000" transform="matrix(-0.9659, -0.2588, -0.2588, 0.9659, 13.9023, 2.2136)" width="12.85" xlink:href="#sprite13"/>
    </g>
    <g id="sprite13" transform="matrix(1.0, 0.0, 0.0, 1.0, 0.9, 0.9)">
      <use ffdec:characterId="335" height="8.25" id="mc100" transform="matrix(1.0, 0.0, 0.0, 1.0, 0.0, 0.0)" width="11.05" xlink:href="#sprite14"/>
      <use ffdec:characterId="36" height="10.05" transform="matrix(1.0, 0.0, 0.0, 1.0, -0.9, -0.9)" width="12.85" xlink:href="#shape14"/>
    </g>
    <g id="sprite14" transform="matrix(1.0, 0.0, 0.0, 1.0, 5.5, 4.1)">
      <use ffdec:characterId="34" height="8.25" transform="matrix(1.0, 0.0, 0.0, 1.0, -5.5, -4.1)" width="11.05" xlink:href="#shape13"/>
    </g>
    <g id="shape13" transform="matrix(1.0, 0.0, 0.0, 1.0, 0.0, 0.0)">
      <path d="M7.5 5.75 L3.6 8.25 3.2 4.7 0.0 4.7 3.35 0.0 10.1 1.1 11.05 8.25 7.5 5.75" fill="#ffffff" fill-rule="evenodd" stroke="none"/>
    </g>
    <g id="shape14" transform="matrix(1.0, 0.0, 0.0, 1.0, 0.9, 0.9)">
      <path d="M10.1 1.1 L11.05 8.25 7.5 5.75 3.6 8.25 3.2 4.7 0.0 4.7 3.35 0.0 10.1 1.1 Z" fill="none" stroke="#000000" stroke-linecap="round" stroke-linejoin="round" stroke-width="1.8"/>
    </g>
    <g id="sprite15" transform="matrix(1.0, 0.0, 0.0, 1.0, 0.9, 0.9)">
      <use ffdec:characterId="339" height="65.85" id="mc100" transform="matrix(1.0, 0.0, 0.0, 1.0, 0.0, 1.65)" width="67.6" xlink:href="#sprite16"/>
      <use ffdec:characterId="340" height="69.3" transform="matrix(1.0, 0.0, 0.0, 1.0, -0.9, -0.9)" width="69.4" xlink:href="#shape16"/>
    </g>
    <g id="sprite16" transform="matrix(1.0, 0.0, 0.0, 1.0, 33.8, 32.9)">
      <use ffdec:characterId="338" height="65.85" transform="matrix(1.0, 0.0, 0.0, 1.0, -33.8, -32.9)" width="67.6" xlink:href="#shape15"/>
    </g>
    <g id="shape15" transform="matrix(1.0, 0.0, 0.0, 1.0, 33.8, 32.9)">
      <path d="M22.05 -0.45 L17.35 30.15 18.55 32.25 Q-5.95 35.7 -26.05 22.1 L-20.5 21.7 -33.8 8.55 -27.05 9.35 Q-29.75 -4.4 -26.85 -19.85 -19.2 -25.0 -10.95 -27.6 L-8.2 -32.9 -7.55 -32.55 -5.95 -29.8 3.0 -32.5 2.8 -29.6 Q16.6 -26.7 25.65 -19.25 32.5 -9.7 33.8 3.0 L28.8 -0.2 31.0 10.15 22.05 -0.45" fill="#ff6600" fill-rule="evenodd" stroke="none"/>
    </g>
    <g id="shape16" transform="matrix(1.0, 0.0, 0.0, 1.0, 0.9, 0.9)">
      <path d="M26.25 2.0 L27.85 4.75 36.8 2.05 36.6 4.95 Q50.4 7.85 59.45 15.3 66.3 24.85 67.6 37.55 L62.6 34.35 64.8 44.7 55.85 34.1 51.15 64.7 52.35 66.8 Q27.85 70.25 7.75 56.65 L13.3 56.25 0.0 43.1 6.75 43.9 Q4.05 30.15 6.95 14.7 14.6 9.55 22.85 6.95 L26.45 0.0 M55.85 34.1 L55.9 33.5 M43.8 49.45 L43.1 50.6 51.15 64.7 M39.2 37.05 L39.2 56.9 43.1 50.6" fill="none" stroke="#000000" stroke-linecap="round" stroke-linejoin="round" stroke-width="1.8"/>
    </g>
    <g id="sprite18" transform="matrix(1.0, 0.0, 0.0, 1.0, -2.0, -1.15)">
      <use ffdec:characterId="345" height="57.65" id="mc200" transform="matrix(1.0, 0.0, 0.0, 1.0, 10.1, 13.25)" width="61.6" xlink:href="#sprite19"/>
      <use ffdec:characterId="348" height="48.6" id="mc100" transform="matrix(1.0, 0.0, 0.0, 1.0, 17.15, 20.05)" width="49.95" xlink:href="#sprite21"/>
      <use ffdec:characterId="349" height="71.85" transform="matrix(1.0, 0.0, 0.0, 1.0, 2.0, 1.15)" width="75.9" xlink:href="#shape19"/>
    </g>
    <g id="sprite19" transform="matrix(1.0, 0.0, 0.0, 1.0, 30.8, 28.8)">
      <use ffdec:characterId="344" height="57.65" id="mc000" transform="matrix(1.0, 0.0, 0.0, 1.0, -30.8, -28.8)" width="61.6" xlink:href="#sprite20"/>
    </g>
    <g id="sprite20" transform="matrix(1.0, 0.0, 0.0, 1.0, 30.8, 28.8)">
      <use ffdec:characterId="343" height="57.65" transform="matrix(1.0, 0.0, 0.0, 1.0, -30.8, -28.8)" width="61.6" xlink:href="#shape17"/>
    </g>
    <g id="shape17" transform="matrix(1.0, 0.0, 0.0, 1.0, 30.8, 28.8)">
      <path d="M20.95 -21.65 L20.35 -22.0 24.75 -28.8 25.65 -28.2 27.9 -27.25 28.55 -27.2 30.8 -17.35 26.2 -10.45 23.85 -20.65 23.2 -20.7 20.95 -21.65 M-23.15 14.15 L-19.45 16.3 -19.65 16.6 -23.75 26.6 -30.8 28.85 -26.75 18.6 -26.8 18.05 -30.05 16.15 -23.15 14.15" fill="#00cc99" fill-rule="evenodd" stroke="none"/>
    </g>
    <g id="sprite21" transform="matrix(1.0, 0.0, 0.0, 1.0, 24.95, 24.3)">
      <use ffdec:characterId="347" height="48.6" id="mc000" transform="matrix(1.0, 0.0, 0.0, 1.0, -24.95, -24.3)" width="49.95" xlink:href="#sprite22"/>
    </g>
    <g id="sprite22" transform="matrix(1.0, 0.0, 0.0, 1.0, 24.95, 24.3)">
      <use ffdec:characterId="346" height="48.6" transform="matrix(1.0, 0.0, 0.0, 1.0, -24.95, -24.3)" width="49.95" xlink:href="#shape18"/>
    </g>
    <g id="shape18" transform="matrix(1.0, 0.0, 0.0, 1.0, 24.95, 24.3)">
      <path d="M19.15 -24.3 L19.75 -23.95 22.0 -23.0 22.65 -22.95 25.0 -12.75 24.9 -12.6 6.7 14.5 -24.95 24.3 -20.85 14.3 -20.65 14.0 -24.35 11.85 0.4 4.6 19.15 -24.3" fill="#006666" fill-rule="evenodd" stroke="none"/>
    </g>
    <g id="shape19" transform="matrix(1.0, 0.0, 0.0, 1.0, -2.0, -1.15)">
      <path d="M72.9 2.05 L73.05 2.4 73.6 2.15 74.95 2.7 75.5 2.95 77.0 16.05 71.7 24.7 69.45 14.85 68.8 14.8 66.55 13.85 65.65 13.25 72.9 2.05 M10.1 70.9 L3.75 72.1 2.9 70.4 7.4 59.55 10.85 58.2 14.1 60.1 14.15 60.65 10.1 70.9" fill="#ffffff" fill-rule="evenodd" stroke="none"/>
      <path d="M73.6 2.15 L74.95 2.7 M75.5 2.95 L77.0 16.05 71.7 24.7 67.1 31.6 67.0 31.75 48.8 58.85 17.15 68.65 10.1 70.9 3.75 72.1 2.9 70.4 7.4 59.55 10.85 58.2 17.75 56.2 42.5 48.95 65.65 13.25 72.9 2.05 M68.8 14.8 L66.55 13.85 M64.1 21.35 L61.85 20.4 M71.7 24.7 L69.45 14.85 M64.75 21.4 L67.1 31.6 M14.15 60.65 L10.1 70.9 M10.85 58.2 L14.1 60.1 M21.45 58.35 L17.75 56.2 M17.15 68.65 L21.25 58.65" fill="none" stroke="#000000" stroke-linecap="round" stroke-linejoin="round" stroke-width="1.8"/>
    </g>
  </defs>
</svg>
