<?xml version="1.0" encoding="UTF-8" standalone="no"?>
<svg xmlns:ffdec="https://www.free-decompiler.com/flash" xmlns:xlink="http://www.w3.org/1999/xlink" ffdec:objectType="frame" height="103.05px" width="79.9px" xmlns="http://www.w3.org/2000/svg">
  <g transform="matrix(1.0, 0.0, 0.0, 1.0, 38.9, 66.6)">
    <use ffdec:characterId="127" height="44.0" id="mc900" transform="matrix(1.0, 0.0, 0.0, 1.0, -23.3, -37.55)" width="53.0" xlink:href="#sprite0"/>
    <use ffdec:characterId="128" height="28.1" transform="matrix(1.0, 0.0, 0.0, 1.0, -17.6, -24.6)" width="42.2" xlink:href="#shape2"/>
    <use ffdec:characterId="129" height="10.65" transform="matrix(-1.0, 0.0, 0.0, 1.0, 21.6, -18.3)" width="15.75" xlink:href="#shape3"/>
    <use ffdec:characterId="129" height="10.65" transform="matrix(1.0, 0.0, 0.0, 1.0, -16.6, -17.6)" width="15.75" xlink:href="#shape3"/>
    <use ffdec:characterId="133" height="42.05" id="mc300" transform="matrix(1.0, 0.0, 0.0, 1.0, -31.05, -41.75)" width="64.8" xlink:href="#sprite2"/>
    <use ffdec:characterId="137" height="46.1" id="hide_hat" transform="matrix(1.0, 0.0, 0.0, 1.0, -38.9, -66.6)" width="79.9" xlink:href="#sprite4"/>
    <use ffdec:characterId="142" height="22.15" id="hide_hat8" transform="matrix(1.0, 0.0, 0.0, 1.0, -23.05, -49.05)" width="51.0" xlink:href="#sprite6"/>
    <use ffdec:characterId="143" height="0.0" id="hat" transform="matrix(1.0, 0.0, 0.0, 1.0, 0.5, 36.45)" width="0.0" xlink:href="#sprite10"/>
  </g>
  <defs>
    <g id="sprite0" transform="matrix(1.0, 0.0, 0.0, 1.0, 0.9, 0.9)">
      <use ffdec:characterId="125" height="42.2" id="mc100" transform="matrix(1.0, 0.0, 0.0, 1.0, 0.0, 0.0)" width="51.2" xlink:href="#sprite1"/>
      <use ffdec:characterId="126" height="44.0" transform="matrix(1.0, 0.0, 0.0, 1.0, -0.9, -0.9)" width="53.0" xlink:href="#shape1"/>
    </g>
    <g id="sprite1" transform="matrix(1.0, 0.0, 0.0, 1.0, 0.0, 0.0)">
      <use ffdec:characterId="97" height="42.2" transform="matrix(1.0, 0.0, 0.0, 1.0, 0.0, 0.0)" width="51.2" xlink:href="#shape0"/>
    </g>
    <g id="shape0" transform="matrix(1.0, 0.0, 0.0, 1.0, 0.0, 0.0)">
      <path d="M51.2 0.0 L47.4 29.4 Q41.5 35.55 32.8 39.6 23.6 44.8 14.35 39.6 4.9 35.15 1.5 26.95 L0.0 0.0 51.2 0.0" fill="#c4a44a" fill-rule="evenodd" stroke="none"/>
    </g>
    <g id="shape1" transform="matrix(1.0, 0.0, 0.0, 1.0, 0.9, 0.9)">
      <path d="M51.2 0.0 L0.0 0.0 1.5 26.95 Q4.9 35.15 14.35 39.6 23.6 44.8 32.8 39.6 41.5 35.55 47.4 29.4 L51.2 0.0 Z" fill="none" stroke="#000000" stroke-linecap="round" stroke-linejoin="round" stroke-width="1.8"/>
    </g>
    <g id="shape2" transform="matrix(1.0, 0.0, 0.0, 1.0, 17.6, 24.6)">
      <path d="M23.7 -19.9 Q17.35 -27.5 9.5 -19.8" fill="none" stroke="#000000" stroke-linecap="round" stroke-linejoin="round" stroke-width="1.8"/>
      <path d="M-2.5 -19.65 Q-10.9 -27.25 -16.7 -19.55" fill="none" stroke="#000000" stroke-linecap="round" stroke-linejoin="round" stroke-width="1.8"/>
      <path d="M8.55 -0.9 Q7.1 2.4 2.4 2.75 -2.7 2.45 -3.2 -0.8" fill="none" stroke="#000000" stroke-linecap="round" stroke-linejoin="round" stroke-width="1.5"/>
    </g>
    <g id="shape3" transform="matrix(1.0, 0.0, 0.0, 1.0, 0.9, 0.95)">
      <path d="M13.95 6.5 Q10.05 8.8 4.6 8.8 0.8 5.55 0.0 0.5 4.9 -0.55 9.3 0.5 12.8 2.05 13.95 6.5" fill="#ffffff" fill-rule="evenodd" stroke="none"/>
      <path d="M9.55 4.65 Q8.8 5.45 7.7 5.45 6.6 5.45 5.8 4.65 5.1 3.9 5.1 2.85 5.1 1.75 5.8 1.0 6.6 0.25 7.7 0.25 8.8 0.25 9.55 1.0 10.35 1.75 10.35 2.85 10.35 3.9 9.55 4.65" fill="#000000" fill-rule="evenodd" stroke="none"/>
      <path d="M13.95 6.5 Q10.05 8.8 4.6 8.8 0.8 5.55 0.0 0.5 4.9 -0.55 9.3 0.5 12.8 2.05 13.95 6.5 Z" fill="none" stroke="#000000" stroke-linecap="round" stroke-linejoin="round" stroke-width="1.8"/>
    </g>
    <g id="sprite2" transform="matrix(1.0, 0.0, 0.0, 1.0, -6.95, -23.95)">
      <use ffdec:characterId="131" height="41.15" id="mc100" transform="matrix(1.0, 0.0, 0.0, 1.0, 7.85, 23.95)" width="63.0" xlink:href="#sprite3"/>
      <use ffdec:characterId="132" height="39.9" transform="matrix(1.0, 0.0, 0.0, 1.0, 6.95, 26.1)" width="64.8" xlink:href="#shape5"/>
    </g>
    <g id="sprite3" transform="matrix(1.0, 0.0, 0.0, 1.0, -7.85, -23.95)">
      <use ffdec:characterId="130" height="41.15" transform="matrix(1.0, 0.0, 0.0, 1.0, 7.85, 23.95)" width="63.0" xlink:href="#shape4"/>
    </g>
    <g id="shape4" transform="matrix(1.0, 0.0, 0.0, 1.0, -7.85, -23.95)">
      <path d="M36.05 36.7 L36.5 46.45 30.3 38.35 25.65 46.45 22.1 39.85 19.95 61.5 Q14.9 57.8 13.35 50.6 L7.85 56.0 10.85 37.75 Q12.85 28.45 38.35 24.8 63.8 21.1 70.85 33.7 69.65 50.25 62.4 65.1 56.2 50.4 46.65 37.3 L49.65 51.35 36.05 36.7" fill="#ff6600" fill-rule="evenodd" stroke="none"/>
    </g>
    <g id="shape5" transform="matrix(1.0, 0.0, 0.0, 1.0, -6.95, -26.1)">
      <path d="M13.15 49.6 L13.35 50.6 Q14.9 57.8 19.95 61.5 L22.1 39.85 25.65 46.45 30.3 38.35 36.5 46.45 36.05 36.7 49.65 51.35 46.65 37.3 Q56.2 50.4 62.4 65.1 69.65 50.25 70.85 33.7 70.65 29.45 64.3 27.0 M15.95 30.25 Q12.4 32.25 10.85 37.75 L7.85 56.0 13.35 50.6" fill="none" stroke="#000000" stroke-linecap="round" stroke-linejoin="round" stroke-width="1.8"/>
    </g>
    <g id="sprite4" transform="matrix(1.0, 0.0, 0.0, 1.0, 0.9, 0.9)">
      <use ffdec:characterId="135" height="44.3" id="mc100" transform="matrix(1.0, 0.0, 0.0, 1.0, 0.0, 0.0)" width="78.1" xlink:href="#sprite5"/>
      <use ffdec:characterId="136" height="46.1" transform="matrix(1.0, 0.0, 0.0, 1.0, -0.9, -0.9)" width="79.9" xlink:href="#shape7"/>
    </g>
    <g id="sprite5" transform="matrix(1.0, 0.0, 0.0, 1.0, 0.0, 0.0)">
      <use ffdec:characterId="134" height="44.3" transform="matrix(1.0, 0.0, 0.0, 1.0, 0.0, 0.0)" width="78.1" xlink:href="#shape6"/>
    </g>
    <g id="shape6" transform="matrix(1.0, 0.0, 0.0, 1.0, 0.0, 0.0)">
      <path d="M70.85 33.7 Q52.3 34.0 42.1 26.95 L10.85 37.75 Q5.8 43.7 0.0 44.3 7.55 27.35 17.85 12.5 L25.0 9.55 22.5 6.55 Q29.1 4.15 34.15 6.55 33.75 3.3 30.95 0.0 38.15 0.95 41.6 6.35 54.3 6.6 64.1 12.05 L78.1 35.4 Q74.9 35.9 70.85 33.7" fill="#ff6600" fill-rule="evenodd" stroke="none"/>
    </g>
    <g id="shape7" transform="matrix(1.0, 0.0, 0.0, 1.0, 0.9, 0.9)">
      <path d="M70.85 33.7 Q74.9 35.9 78.1 35.4 L64.1 12.05 Q54.3 6.6 41.6 6.35 38.15 0.95 30.95 0.0 33.75 3.3 34.15 6.55 29.1 4.15 22.5 6.55 L25.0 9.55 17.85 12.5 Q7.55 27.35 0.0 44.3 5.8 43.7 10.85 37.75" fill="none" stroke="#000000" stroke-linecap="round" stroke-linejoin="round" stroke-width="1.8"/>
    </g>
    <g id="sprite6" transform="matrix(1.0, 0.0, 0.0, 1.0, 0.5, 0.9)">
      <use ffdec:characterId="112" height="11.7" transform="matrix(1.0, 0.0, 0.0, 1.0, 5.45, 3.1)" width="39.1" xlink:href="#shape8"/>
      <use ffdec:characterId="138" height="18.55" id="mc101" transform="matrix(1.0, 0.0, 0.0, 1.0, 1.8, 0.0)" width="46.4" xlink:href="#sprite7"/>
      <use ffdec:characterId="139" height="17.4" id="mc102" transform="matrix(1.0, 0.0, 0.0, 1.0, 0.0, 3.35)" width="50.0" xlink:href="#sprite8"/>
      <use ffdec:characterId="140" height="4.6" id="mc103" transform="matrix(1.0, 0.0, 0.0, 1.0, 22.75, 6.5)" width="4.6" xlink:href="#sprite9"/>
      <use ffdec:characterId="141" height="22.15" transform="matrix(1.0, 0.0, 0.0, 1.0, -0.5, -0.9)" width="51.0" xlink:href="#shape12"/>
    </g>
    <g id="shape8" transform="matrix(1.0, 0.0, 0.0, 1.0, -5.45, -3.1)">
      <path d="M43.25 14.4 Q38.1 13.75 33.25 11.5 32.1 7.6 34.1 3.65 39.25 2.4 44.3 4.1 45.15 8.6 43.25 14.4 M15.9 4.0 Q17.9 7.95 16.75 11.9 11.95 14.1 6.75 14.8 4.85 8.95 5.7 4.5 10.8 2.75 15.9 4.0" fill="#ccffff" fill-rule="evenodd" stroke="none"/>
    </g>
    <g id="sprite7" transform="matrix(1.0, 0.0, 0.0, 1.0, 0.0, 0.0)">
      <use ffdec:characterId="113" height="18.55" transform="matrix(1.0, 0.0, 0.0, 1.0, 0.0, 0.0)" width="46.4" xlink:href="#shape9"/>
    </g>
    <g id="shape9" transform="matrix(1.0, 0.0, 0.0, 1.0, 0.0, 0.0)">
      <path d="M41.45 14.4 Q43.35 8.6 42.5 4.1 37.45 2.4 32.3 3.65 30.3 7.6 31.45 11.5 36.3 13.75 41.45 14.4 M46.4 4.7 Q46.2 9.4 45.15 14.25 44.15 19.05 39.95 18.0 L33.05 15.35 Q26.2 13.2 27.5 6.2 L27.65 5.5 Q27.8 4.3 28.3 3.4 29.65 1.05 33.35 0.45 38.0 -0.45 43.0 0.4 45.85 1.3 46.3 4.0 L46.4 4.7 M14.1 4.0 Q9.0 2.75 3.9 4.5 3.05 8.95 4.95 14.8 10.15 14.1 14.95 11.9 16.1 7.95 14.1 4.0 M13.05 0.8 Q16.75 1.45 18.1 3.75 18.6 4.65 18.75 5.85 L18.9 6.6 Q20.2 13.55 13.35 15.7 L6.45 18.35 Q2.25 19.4 1.25 14.6 0.2 9.8 0.0 5.05 L0.1 4.4 Q0.6 1.65 3.4 0.75 8.4 -0.1 13.05 0.8" fill="#999999" fill-rule="evenodd" stroke="none"/>
    </g>
    <g id="sprite8" transform="matrix(1.0, 0.0, 0.0, 1.0, 0.0, 0.0)">
      <use ffdec:characterId="115" height="17.4" transform="matrix(1.0, 0.0, 0.0, 1.0, 0.0, 0.0)" width="50.0" xlink:href="#shape10"/>
    </g>
    <g id="shape10" transform="matrix(1.0, 0.0, 0.0, 1.0, 0.0, 0.0)">
      <path d="M49.35 10.4 Q48.65 13.65 46.9 16.05 44.1 18.25 36.7 15.45 29.3 12.7 28.1 9.95 27.65 8.85 27.35 7.75 27.0 6.4 27.0 5.0 26.95 4.1 27.05 3.15 27.1 2.35 27.3 1.5 28.4 -0.3 30.1 0.05 29.6 0.95 29.45 2.15 L29.3 2.85 Q28.0 9.85 34.85 12.0 L41.75 14.65 Q45.95 15.7 46.95 10.9 48.0 6.05 48.2 1.35 L48.1 0.65 Q49.9 0.25 50.0 3.75 50.15 7.3 49.35 10.4 M22.95 3.15 L23.05 5.0 22.75 7.75 21.9 10.3 Q20.7 13.05 13.3 15.85 5.9 18.6 3.1 16.4 1.4 14.0 0.65 10.75 -0.15 7.65 0.0 4.15 0.1 0.6 1.9 1.05 L1.8 1.7 Q2.0 6.45 3.05 11.25 4.05 16.05 8.25 15.0 L15.15 12.35 Q22.0 10.2 20.7 3.25 L20.55 2.5 Q20.4 1.3 19.9 0.4 21.6 0.1 22.7 1.85 L22.95 3.15" fill="#333333" fill-rule="evenodd" stroke="none"/>
    </g>
    <g id="sprite9" transform="matrix(1.0, 0.0, 0.0, 1.0, 0.0, 0.0)">
      <use ffdec:characterId="117" height="4.6" transform="matrix(1.0, 0.0, 0.0, 1.0, 0.0, 0.0)" width="4.6" xlink:href="#shape11"/>
    </g>
    <g id="shape11" transform="matrix(1.0, 0.0, 0.0, 1.0, 0.0, 0.0)">
      <path d="M0.3 1.85 L0.2 0.0 4.3 0.0 Q4.2 0.95 4.25 1.85 4.25 3.25 4.6 4.6 L0.0 4.6 0.3 1.85" fill="#999999" fill-rule="evenodd" stroke="none"/>
    </g>
    <g id="shape12" transform="matrix(1.0, 0.0, 0.0, 1.0, 0.5, 0.9)">
      <path d="M43.25 14.4 Q38.1 13.75 33.25 11.5 32.1 7.6 34.1 3.65 39.25 2.4 44.3 4.1 45.15 8.6 43.25 14.4 M48.1 4.0 L48.2 4.7 Q48.0 9.4 46.95 14.25 45.95 19.05 41.75 18.0 L34.85 15.35 Q28.0 13.2 29.3 6.2 L29.45 5.5 Q29.6 4.3 30.1 3.4 31.45 1.05 35.15 0.45 39.8 -0.45 44.8 0.4 47.65 1.3 48.1 4.0 M19.9 3.75 Q20.4 4.65 20.55 5.85 L20.7 6.6 Q22.0 13.55 15.15 15.7 L8.25 18.35 Q4.05 19.4 3.05 14.6 2.0 9.8 1.8 5.05 L1.9 4.4 Q2.4 1.65 5.2 0.75 10.2 -0.1 14.85 0.8 18.55 1.45 19.9 3.75 M15.9 4.0 Q10.8 2.75 5.7 4.5 4.85 8.95 6.75 14.8 11.95 14.1 16.75 11.9 17.9 7.95 15.9 4.0" fill="none" stroke="#000000" stroke-linecap="round" stroke-linejoin="round" stroke-width="1.8"/>
      <path d="M30.1 3.4 Q28.4 3.05 27.3 4.85 27.1 5.7 27.05 6.5 26.95 7.45 27.0 8.35 27.0 9.75 27.35 11.1 27.65 12.2 28.1 13.3 29.3 16.05 36.7 18.8 44.1 21.6 46.9 19.4 48.65 17.0 49.35 13.75 50.15 10.65 50.0 7.1 49.9 3.6 48.1 4.0 M1.9 4.4 Q0.1 3.95 0.0 7.5 -0.15 11.0 0.65 14.1 1.4 17.35 3.1 19.75 5.9 21.95 13.3 19.2 20.7 16.4 21.9 13.65 L22.75 11.1 23.05 8.35 22.95 6.5 22.7 5.2 Q21.6 3.45 19.9 3.75 M23.05 8.35 L27.0 8.35 M22.95 6.5 L27.05 6.5 M27.35 11.1 L22.75 11.1" fill="none" stroke="#000000" stroke-linecap="round" stroke-linejoin="round" stroke-width="1.0"/>
    </g>
  </defs>
</svg>
