<?xml version="1.0" encoding="UTF-8" standalone="no"?>
<svg xmlns:ffdec="https://www.free-decompiler.com/flash" xmlns:xlink="http://www.w3.org/1999/xlink" ffdec:objectType="frame" height="102.35px" width="75.6px" xmlns="http://www.w3.org/2000/svg">
  <g transform="matrix(1.0, 0.0, 0.0, 1.0, 37.0, 97.05)">
    <use ffdec:characterId="2" height="24.15" id="mc1030" transform="matrix(0.9993, -0.0352, 0.0352, 0.9993, -20.0759, -32.873)" width="11.2" xlink:href="#sprite0"/>
    <use ffdec:characterId="4" height="24.15" id="mc930" transform="matrix(0.9962, -0.0839, 0.0839, 0.9962, 10.4899, -32.5842)" width="11.2" xlink:href="#sprite1"/>
    <use ffdec:characterId="6" height="25.9" id="mc830" transform="matrix(1.0, 0.0, 0.0, 1.0, -13.6, -39.0)" width="29.3" xlink:href="#sprite2"/>
    <use ffdec:characterId="8" height="16.45" id="mc730" transform="matrix(1.0, 0.0, 0.0, 1.0, -11.55, -13.4)" width="11.1" xlink:href="#sprite3"/>
    <use ffdec:characterId="10" height="16.45" id="mc630" transform="matrix(1.0, 0.0, 0.0, 0.9262, 3.5, -14.5946)" width="11.1" xlink:href="#sprite4"/>
    <use ffdec:characterId="14" height="11.8" id="mc530" transform="matrix(1.0, 0.0, 0.0, 1.0324, -13.05, -15.8243)" width="15.25" xlink:href="#sprite5"/>
    <use ffdec:characterId="18" height="11.8" id="mc430" transform="matrix(1.0, 0.0, 0.0, 0.9632, 0.6, -15.7724)" width="15.25" xlink:href="#sprite7"/>
    <use ffdec:characterId="20" height="27.7" id="hide_hat1" transform="matrix(1.0, 0.0, 0.0, 1.0, 13.5, -96.85)" width="16.7" xlink:href="#sprite9"/>
    <use ffdec:characterId="22" height="28.0" id="hide_hat" transform="matrix(1.0, 0.0, 0.0, 1.0, -28.65, -96.85)" width="16.45" xlink:href="#sprite10"/>
    <use ffdec:characterId="24" height="61.75" id="mc130" transform="matrix(1.0, 0.0, 0.0, 1.0, -37.0, -92.15)" width="75.6" xlink:href="#sprite11"/>
    <use ffdec:characterId="25" height="0.0" id="hat" transform="matrix(1.0, 0.0, 0.0, 1.0, 0.0, 0.0)" width="0.0" xlink:href="#sprite12"/>
  </g>
  <defs>
    <g id="sprite0" transform="matrix(1.0, 0.0, 0.0, 1.0, 0.75, 0.75)">
      <use ffdec:characterId="1" height="24.15" transform="matrix(1.0, 0.0, 0.0, 1.0, -0.75, -0.75)" width="11.2" xlink:href="#shape0"/>
    </g>
    <g id="shape0" transform="matrix(1.0, 0.0, 0.0, 1.0, 0.75, 0.75)">
      <path d="M0.6 18.55 L0.2 16.75 Q0.1 13.1 2.0 9.45 0.5 9.85 0.0 8.05 1.5 8.55 2.65 6.45 3.85 -0.15 6.7 0.1 10.6 -0.75 9.45 6.9 8.3 13.45 9.65 16.9 L8.3 15.5 Q7.9 19.25 6.05 20.35 L4.55 20.75 4.45 20.75 2.7 20.55 Q1.2 20.1 0.6 18.55" fill="#999999" fill-rule="evenodd" stroke="none"/>
      <path d="M6.05 20.35 L6.05 22.55 4.4 21.1 3.3 22.9 2.7 20.55 0.6 21.7 0.6 18.55 Q1.2 20.1 2.7 20.55 L4.45 20.75 4.55 20.75 6.05 20.35 M4.4 21.1 L4.55 20.75 4.4 21.1" fill="#ffffff" fill-rule="evenodd" stroke="none"/>
      <path d="M0.6 18.55 L0.2 16.75 Q0.1 13.1 2.0 9.45 0.5 9.85 0.0 8.05 1.5 8.55 2.65 6.45 3.85 -0.15 6.7 0.1 10.6 -0.75 9.45 6.9 8.3 13.45 9.65 16.9 L8.3 15.5 Q7.9 19.25 6.05 20.35 L4.55 20.75 4.4 21.1 M0.6 18.55 Q1.2 20.1 2.7 20.55 L4.45 20.75 4.55 20.75" fill="none" stroke="#000000" stroke-linecap="round" stroke-linejoin="round" stroke-width="1.5"/>
      <path d="M6.05 20.35 L6.05 22.55 4.4 21.1 3.3 22.9 2.7 20.55 0.6 21.7 0.6 18.55" fill="none" stroke="#000000" stroke-linecap="round" stroke-linejoin="round" stroke-width="1.0"/>
    </g>
    <g id="sprite1" transform="matrix(1.0, 0.0, 0.0, 1.0, 0.75, 0.75)">
      <use ffdec:characterId="3" height="24.15" transform="matrix(1.0, 0.0, 0.0, 1.0, -0.75, -0.75)" width="11.2" xlink:href="#shape1"/>
    </g>
    <g id="shape1" transform="matrix(1.0, 0.0, 0.0, 1.0, 0.75, 0.75)">
      <path d="M3.65 20.35 Q1.8 19.25 1.4 15.5 L0.05 16.9 Q1.4 13.45 0.25 6.9 -0.9 -0.75 3.0 0.1 5.85 -0.15 7.05 6.45 8.2 8.55 9.7 8.05 9.2 9.85 7.7 9.45 9.6 13.1 9.5 16.75 L9.1 18.55 Q8.5 20.1 7.0 20.55 L5.25 20.75 5.15 20.75 3.65 20.35" fill="#999999" fill-rule="evenodd" stroke="none"/>
      <path d="M3.65 20.35 L5.15 20.75 5.25 20.75 7.0 20.55 Q8.5 20.1 9.1 18.55 L9.1 21.7 7.0 20.55 6.4 22.9 5.3 21.1 3.65 22.55 3.65 20.35 M5.15 20.75 L5.3 21.1 5.15 20.75" fill="#ffffff" fill-rule="evenodd" stroke="none"/>
      <path d="M9.1 18.55 L9.5 16.75 Q9.6 13.1 7.7 9.45 9.2 9.85 9.7 8.05 8.2 8.55 7.05 6.45 5.85 -0.15 3.0 0.1 -0.9 -0.75 0.25 6.9 1.4 13.45 0.05 16.9 L1.4 15.5 Q1.8 19.25 3.65 20.35 L5.15 20.75 5.25 20.75 7.0 20.55 Q8.5 20.1 9.1 18.55 M5.3 21.1 L5.15 20.75" fill="none" stroke="#000000" stroke-linecap="round" stroke-linejoin="round" stroke-width="1.5"/>
      <path d="M9.1 18.55 L9.1 21.7 7.0 20.55 6.4 22.9 5.3 21.1 3.65 22.55 3.65 20.35" fill="none" stroke="#000000" stroke-linecap="round" stroke-linejoin="round" stroke-width="1.0"/>
    </g>
    <g id="sprite2" transform="matrix(1.0, 0.0, 0.0, 1.0, 0.75, 0.75)">
      <use ffdec:characterId="5" height="25.9" transform="matrix(1.0, 0.0, 0.0, 1.0, -0.75, -0.75)" width="29.3" xlink:href="#shape2"/>
    </g>
    <g id="shape2" transform="matrix(1.0, 0.0, 0.0, 1.0, 0.75, 0.75)">
      <path d="M2.9 11.75 Q1.65 12.65 0.6 11.95 2.25 9.9 0.6 6.25 -1.45 2.9 3.8 1.4 L5.5 1.0 Q13.45 -0.85 20.5 0.8 L21.7 1.1 Q28.15 2.9 26.45 6.15 24.8 8.45 24.85 11.4 25.2 14.8 27.8 18.35 L25.75 17.6 26.9 24.4 0.55 24.4 2.9 11.75 4.55 9.85 2.9 11.75" fill="#999999" fill-rule="evenodd" stroke="none"/>
      <path d="M2.9 11.75 L0.55 24.4 26.9 24.4 25.75 17.6 27.8 18.35 Q25.2 14.8 24.85 11.4 24.8 8.45 26.45 6.15 28.15 2.9 21.7 1.1 L20.5 0.8 Q13.45 -0.85 5.5 1.0 L3.8 1.4 Q-1.45 2.9 0.6 6.25 2.25 9.9 0.6 11.95 1.65 12.65 2.9 11.75 L4.55 9.85" fill="none" stroke="#000000" stroke-linecap="round" stroke-linejoin="round" stroke-width="1.5"/>
    </g>
    <g id="sprite3" transform="matrix(1.0, 0.0, 0.0, 1.0, 0.75, 0.75)">
      <use ffdec:characterId="7" height="16.45" transform="matrix(1.0, 0.0, 0.0, 1.0, -0.75, -0.75)" width="11.1" xlink:href="#shape3"/>
    </g>
    <g id="shape3" transform="matrix(1.0, 0.0, 0.0, 1.0, 0.75, 0.75)">
      <path d="M1.45 14.0 L0.95 13.45 Q-0.15 12.1 0.05 8.15 L0.85 0.75 Q3.8 -0.8 7.85 0.85 L8.45 7.8 Q8.6 10.2 9.6 10.7 L8.7 10.7 Q9.05 12.6 8.3 13.65 7.95 14.35 7.0 14.65 L6.45 14.8 2.75 14.7 1.45 14.0" fill="#999999" fill-rule="evenodd" stroke="none"/>
      <path d="M8.3 13.65 L8.4 14.0 8.15 14.6 7.55 14.85 7.0 14.65 Q7.95 14.35 8.3 13.65 M2.75 14.7 L2.3 14.85 1.7 14.6 Q1.45 14.35 1.45 14.0 L2.75 14.7" fill="#ffffff" fill-rule="evenodd" stroke="none"/>
      <path d="M1.45 14.0 L0.95 13.45 Q-0.15 12.1 0.05 8.15 L0.85 0.75 Q3.8 -0.8 7.85 0.85 L8.45 7.8 Q8.6 10.2 9.6 10.7 L8.7 10.7 Q9.05 12.6 8.3 13.65 7.95 14.35 7.0 14.65 L6.45 14.8 2.75 14.7 1.45 14.0 Z" fill="none" stroke="#000000" stroke-linecap="round" stroke-linejoin="round" stroke-width="1.5"/>
    </g>
    <g id="sprite4" transform="matrix(1.0, 0.0, 0.0, 1.0, 0.75, 0.75)">
      <use ffdec:characterId="9" height="16.45" transform="matrix(1.0, 0.0, 0.0, 1.0, -0.75, -0.75)" width="11.1" xlink:href="#shape4"/>
    </g>
    <g id="shape4" transform="matrix(1.0, 0.0, 0.0, 1.0, 0.75, 0.75)">
      <path d="M0.0 10.7 Q1.0 10.2 1.15 7.8 L1.75 0.85 Q5.8 -0.8 8.75 0.75 L9.55 8.15 Q9.75 12.1 8.65 13.45 L8.15 14.0 6.85 14.7 3.15 14.8 2.6 14.65 Q1.65 14.35 1.3 13.65 0.55 12.6 0.9 10.7 L0.0 10.7" fill="#999999" fill-rule="evenodd" stroke="none"/>
      <path d="M0.0 10.7 L0.9 10.7 Q0.55 12.6 1.3 13.65 1.65 14.35 2.6 14.65 L3.15 14.8 6.85 14.7 8.15 14.0 8.65 13.45 Q9.75 12.1 9.55 8.15 L8.75 0.75 Q5.8 -0.8 1.75 0.85 L1.15 7.8 Q1.0 10.2 0.0 10.7 Z" fill="none" stroke="#000000" stroke-linecap="round" stroke-linejoin="round" stroke-width="1.5"/>
    </g>
    <g id="sprite5" transform="matrix(1.0, 0.0, 0.0, 1.0, 0.75, 0.75)">
      <use ffdec:characterId="12" height="10.3" id="mc100" transform="matrix(1.0, 0.0, 0.0, 1.0, 0.0, 0.0)" width="13.75" xlink:href="#sprite6"/>
      <use ffdec:characterId="13" height="11.8" transform="matrix(1.0, 0.0, 0.0, 1.0, -0.75, -0.75)" width="15.25" xlink:href="#shape6"/>
    </g>
    <g id="sprite6" transform="matrix(1.0, 0.0, 0.0, 1.0, 0.0, 0.0)">
      <use ffdec:characterId="11" height="10.3" transform="matrix(1.0, 0.0, 0.0, 1.0, 0.0, 0.0)" width="13.75" xlink:href="#shape5"/>
    </g>
    <g id="shape5" transform="matrix(1.0, 0.0, 0.0, 1.0, 0.0, 0.0)">
      <path d="M0.6 0.15 L13.75 0.0 13.75 7.9 10.3 7.9 10.3 10.3 0.15 9.8 Q-0.3 4.75 0.6 0.15" fill="#5c1313" fill-rule="evenodd" stroke="none"/>
    </g>
    <g id="shape6" transform="matrix(1.0, 0.0, 0.0, 1.0, 0.75, 0.75)">
      <path d="M13.75 0.0 L0.6 0.15 Q-0.3 4.75 0.15 9.8 L10.3 10.3 10.3 7.9 13.75 7.9" fill="none" stroke="#000000" stroke-linecap="round" stroke-linejoin="round" stroke-width="1.5"/>
      <path d="M13.75 7.9 L13.75 0.0" fill="none" stroke="#000000" stroke-linecap="round" stroke-linejoin="round" stroke-width="1.0"/>
    </g>
    <g id="sprite7" transform="matrix(1.0, 0.0, 0.0, 1.0, 0.75, 0.75)">
      <use ffdec:characterId="16" height="10.3" id="mc100" transform="matrix(1.0, 0.0, 0.0, 1.0, 0.0, 0.0)" width="13.75" xlink:href="#sprite8"/>
      <use ffdec:characterId="17" height="11.8" transform="matrix(1.0, 0.0, 0.0, 1.0, -0.75, -0.75)" width="15.25" xlink:href="#shape8"/>
    </g>
    <g id="sprite8" transform="matrix(1.0, 0.0, 0.0, 1.0, 0.0, 0.0)">
      <use ffdec:characterId="15" height="10.3" transform="matrix(1.0, 0.0, 0.0, 1.0, 0.0, 0.0)" width="13.75" xlink:href="#shape7"/>
    </g>
    <g id="shape7" transform="matrix(1.0, 0.0, 0.0, 1.0, 0.0, 0.0)">
      <path d="M13.15 0.15 Q14.05 4.75 13.6 9.8 L3.45 10.3 3.45 7.9 0.0 7.9 0.0 0.0 13.15 0.15" fill="#5c1313" fill-rule="evenodd" stroke="none"/>
    </g>
    <g id="shape8" transform="matrix(1.0, 0.0, 0.0, 1.0, 0.75, 0.75)">
      <path d="M0.0 0.0 L13.15 0.15 Q14.05 4.75 13.6 9.8 L3.45 10.3 3.45 7.9 0.0 7.9" fill="none" stroke="#000000" stroke-linecap="round" stroke-linejoin="round" stroke-width="1.5"/>
      <path d="M0.0 7.9 L0.0 0.0" fill="none" stroke="#000000" stroke-linecap="round" stroke-linejoin="round" stroke-width="1.0"/>
    </g>
    <g id="sprite9" transform="matrix(1.0, 0.0, 0.0, 1.0, -49.75, 0.75)">
      <use ffdec:characterId="19" height="27.7" transform="matrix(1.0, 0.0, 0.0, 1.0, 49.75, -0.75)" width="16.7" xlink:href="#shape9"/>
    </g>
    <g id="shape9" transform="matrix(1.0, 0.0, 0.0, 1.0, -49.75, 0.75)">
      <path d="M64.4 3.05 L60.85 20.1 Q60.15 22.9 59.25 25.0 L50.5 19.1 Q51.1 15.85 52.6 11.8 56.25 3.5 63.25 0.0 L64.4 3.05" fill="#999999" fill-rule="evenodd" stroke="none"/>
      <path d="M59.25 25.0 Q60.15 22.9 60.85 20.1 L64.4 3.05 Q67.6 13.05 63.05 23.3 L61.05 26.2 59.25 25.0" fill="#777777" fill-rule="evenodd" stroke="none"/>
      <path d="M64.4 3.05 L63.25 0.0 Q56.25 3.5 52.6 11.8 51.1 15.85 50.5 19.1 M61.05 26.2 L63.05 23.3 Q67.6 13.05 64.4 3.05" fill="none" stroke="#000000" stroke-linecap="round" stroke-linejoin="round" stroke-width="1.5"/>
    </g>
    <g id="sprite10" transform="matrix(1.0, 0.0, 0.0, 1.0, -7.6, 0.75)">
      <use ffdec:characterId="21" height="28.0" transform="matrix(1.0, 0.0, 0.0, 1.0, 7.6, -0.75)" width="16.45" xlink:href="#shape10"/>
    </g>
    <g id="shape10" transform="matrix(1.0, 0.0, 0.0, 1.0, -7.6, 0.75)">
      <path d="M22.9 21.3 L14.95 25.7 Q13.5 23.4 12.85 20.7 10.7 12.55 10.85 0.0 17.85 3.5 21.5 11.8 24.15 17.55 22.9 21.3" fill="#999999" fill-rule="evenodd" stroke="none"/>
      <path d="M14.95 25.7 L13.4 26.5 Q12.2 25.25 11.05 23.3 5.8 11.5 10.85 0.0 10.7 12.55 12.85 20.7 13.5 23.4 14.95 25.7" fill="#777777" fill-rule="evenodd" stroke="none"/>
      <path d="M13.4 26.5 Q12.2 25.25 11.05 23.3 5.8 11.5 10.85 0.0 17.85 3.5 21.5 11.8 24.15 17.55 22.9 21.3" fill="none" stroke="#000000" stroke-linecap="round" stroke-linejoin="round" stroke-width="1.5"/>
    </g>
    <g id="sprite11" transform="matrix(1.0, 0.0, 0.0, 1.0, 0.75, -3.95)">
      <use ffdec:characterId="23" height="61.75" transform="matrix(1.0, 0.0, 0.0, 1.0, -0.75, 3.95)" width="75.6" xlink:href="#shape11"/>
    </g>
    <g id="shape11" transform="matrix(1.0, 0.0, 0.0, 1.0, 0.75, -3.95)">
      <path d="M60.85 20.1 L61.45 20.95 63.05 23.3 Q65.5 27.05 67.1 34.2 69.35 42.4 74.1 43.5 70.1 43.85 68.2 45.85 67.0 47.1 66.65 49.0 58.45 45.65 45.9 50.15 33.25 54.6 24.2 49.15 15.1 43.65 5.35 45.35 3.45 43.8 0.0 43.5 4.75 42.4 7.0 34.2 8.6 27.05 11.05 23.3 L12.6 21.0 12.85 20.7 21.5 11.8 Q23.9 9.9 29.5 7.35 26.95 9.1 26.45 11.2 32.1 10.35 36.85 4.7 42.0 10.35 47.65 11.2 47.15 9.1 44.6 7.35 50.2 9.9 52.6 11.8 L60.85 20.1" fill="#999999" fill-rule="evenodd" stroke="none"/>
      <path d="M5.35 45.35 Q15.1 43.65 24.2 49.15 33.25 54.6 45.9 50.15 58.45 45.65 66.65 49.0 L72.2 48.85 Q67.75 49.9 65.85 53.2 60.15 63.85 45.8 64.8 L36.95 64.95 28.3 64.8 Q13.95 63.85 7.95 53.2 6.35 49.9 1.9 48.85 L7.45 49.0 Q7.2 47.75 6.6 46.75 L5.35 45.35" fill="#777777" fill-rule="evenodd" stroke="none"/>
      <path d="M66.65 49.0 Q67.0 47.1 68.2 45.85 70.1 43.85 74.1 43.5 69.35 42.4 67.1 34.2 65.5 27.05 63.05 23.3 L61.45 20.95 60.85 20.1 M52.6 11.8 Q50.2 9.9 44.6 7.35 47.15 9.1 47.65 11.2 42.0 10.35 36.85 4.7 32.1 10.35 26.45 11.2 26.95 9.1 29.5 7.35 23.9 9.9 21.5 11.8 M12.85 20.7 L12.6 21.0 11.05 23.3 Q8.6 27.05 7.0 34.2 4.75 42.4 0.0 43.5 3.45 43.8 5.35 45.35 L6.6 46.75 Q7.2 47.75 7.45 49.0 L1.9 48.85 Q6.35 49.9 7.95 53.2 13.95 63.85 28.3 64.8 L36.95 64.95 45.8 64.8 Q60.15 63.85 65.85 53.2 67.75 49.9 72.2 48.85 L66.65 49.0" fill="none" stroke="#000000" stroke-linecap="round" stroke-linejoin="round" stroke-width="1.5"/>
    </g>
  </defs>
</svg>
