<?xml version="1.0" encoding="UTF-8" standalone="no"?>
<svg xmlns:ffdec="https://www.free-decompiler.com/flash" xmlns:xlink="http://www.w3.org/1999/xlink" ffdec:objectType="frame" height="22.7px" width="16.45px" xmlns="http://www.w3.org/2000/svg">
  <g transform="matrix(1.0, 0.0, 0.0, 1.0, -1.85, 2.25)">
    <use ffdec:characterId="54" height="33.8" id="mc800" transform="matrix(-0.2478, 0.0, 0.0, 0.2478, 17.4788, 7.4857)" width="31.65" xlink:href="#sprite0"/>
    <use ffdec:characterId="260" height="42.9" id="mc700" transform="matrix(-0.2478, 0.0, 0.0, 0.2478, 15.1547, 9.1336)" width="53.75" xlink:href="#sprite2"/>
    <use ffdec:characterId="134" height="18.85" id="hide_hat" transform="matrix(-0.2478, 0.0, 0.0, 0.2478, 17.0749, 2.5207)" width="46.65" xlink:href="#sprite6"/>
    <use ffdec:characterId="264" height="21.6" id="mc500" transform="matrix(-0.2478, 0.0, 0.0, 0.2478, 17.4719, 5.5989)" width="48.35" xlink:href="#sprite10"/>
    <use ffdec:characterId="50" height="15.4" id="mc400" transform="matrix(-0.2478, 0.0, 0.0, 0.2478, 16.2747, 9.9916)" width="11.9" xlink:href="#sprite12"/>
    <use ffdec:characterId="145" height="10.85" id="mc300" transform="matrix(0.2462, 0.0227, -0.0227, 0.2462, 12.0981, 8.8922)" width="20.25" xlink:href="#sprite13"/>
    <use ffdec:characterId="315" height="30.8" id="mc200" transform="matrix(-0.2478, 0.0, 0.0, 0.2478, 18.3037, 12.8331)" width="19.75" xlink:href="#sprite15"/>
    <use ffdec:characterId="141" height="17.9" id="mc100" transform="matrix(0.2478, 0.0, 0.0, 0.2478, 9.9049, 4.6818)" width="27.85" xlink:href="#sprite17"/>
    <use ffdec:characterId="999" height="0.0" id="hat" transform="matrix(-0.2478, 0.0, 0.0, 0.2478, 18.05, -2.25)" width="0.0" xlink:href="#sprite21"/>
  </g>
  <defs>
    <g id="sprite0" transform="matrix(1.0, 0.0, 0.0, 1.0, 15.65, 16.6)">
      <use ffdec:characterId="52" height="31.7" id="mc100" transform="matrix(1.0, 0.0, 0.0, 1.0, -15.05, -15.55)" width="30.15" xlink:href="#sprite1"/>
      <use ffdec:characterId="53" height="33.8" transform="matrix(1.0, 0.0, 0.0, 1.0, -15.65, -16.6)" width="31.65" xlink:href="#shape1"/>
    </g>
    <g id="sprite1" transform="matrix(1.0, 0.0, 0.0, 1.0, 15.05, 15.55)">
      <use ffdec:characterId="51" height="31.7" transform="matrix(1.0, 0.0, 0.0, 1.0, -15.05, -15.55)" width="30.15" xlink:href="#shape0"/>
    </g>
    <g id="shape0" transform="matrix(1.0, 0.0, 0.0, 1.0, 15.05, 15.55)">
      <path d="M-12.05 -15.55 L15.1 -11.9 13.65 5.3 Q8.05 17.7 -5.85 15.9 -12.45 14.9 -12.05 6.25 -11.45 3.1 -13.3 0.45 -14.95 -1.55 -15.05 -5.75 -15.15 -10.75 -12.05 -15.55" fill="#e1b45a" fill-rule="evenodd" stroke="none"/>
    </g>
    <g id="shape1" transform="matrix(1.0, 0.0, 0.0, 1.0, 15.65, 16.6)">
      <path d="M-11.75 -15.7 L15.1 -11.9 13.65 5.3 Q8.75 18.4 -5.85 15.9 -13.15 14.85 -12.05 6.25 -11.45 3.1 -13.3 0.45 -14.8 -1.55 -14.75 -6.15 -14.7 -10.75 -11.75 -15.7 Z" fill="none" stroke="#000000" stroke-linecap="round" stroke-linejoin="round" stroke-width="1.8"/>
    </g>
    <g id="sprite2" transform="matrix(1.0, 0.0, 0.0, 1.0, 26.85, 21.45)">
      <use ffdec:characterId="258" height="41.1" id="mc100" transform="matrix(1.0, 0.0, 0.0, 1.0, -25.95, -20.55)" width="51.95" xlink:href="#sprite3"/>
      <use ffdec:characterId="259" height="42.9" transform="matrix(1.0, 0.0, 0.0, 1.0, -26.85, -21.45)" width="53.75" xlink:href="#shape4"/>
    </g>
    <g id="sprite3" transform="matrix(1.0, 0.0, 0.0, 1.0, 25.95, 20.55)">
      <use ffdec:characterId="255" height="41.1" id="mc100" transform="matrix(1.0, 0.0, 0.0, 1.0, -25.95, -20.55)" width="51.95" xlink:href="#sprite4"/>
      <use ffdec:characterId="257" height="41.1" id="mc000" transform="matrix(1.0, 0.0, 0.0, 1.0, -25.95, -20.55)" width="51.95" xlink:href="#sprite5"/>
    </g>
    <g id="sprite4" transform="matrix(1.0, 0.0, 0.0, 1.0, 25.95, 20.55)">
      <use ffdec:characterId="254" height="41.1" transform="matrix(1.0, 0.0, 0.0, 1.0, -25.95, -20.55)" width="51.95" xlink:href="#shape2"/>
    </g>
    <g id="shape2" transform="matrix(1.0, 0.0, 0.0, 1.0, 25.95, 20.55)">
      <path d="M19.7 -3.8 Q20.7 6.2 26.0 5.1 22.7 14.85 7.6 9.05 8.1 13.0 13.25 14.3 8.7 23.2 -2.05 19.4 -9.2 16.9 -10.45 8.7 L-23.55 10.3 -25.95 1.1 -13.3 -6.0 -13.3 -20.55 11.3 -16.3 Q18.65 -13.8 19.7 -3.8" fill="#ffffff" fill-rule="evenodd" stroke="none"/>
    </g>
    <g id="sprite5" transform="matrix(1.0, 0.0, 0.0, 1.0, 25.95, 20.55)">
      <use ffdec:characterId="256" height="41.1" transform="matrix(1.0, 0.0, 0.0, 1.0, -25.95, -20.55)" width="51.95" xlink:href="#shape3"/>
    </g>
    <g id="shape3" transform="matrix(1.0, 0.0, 0.0, 1.0, 25.95, 20.55)">
      <path d="M19.7 -3.8 Q20.7 6.2 26.0 5.1 22.7 14.85 7.6 9.05 8.1 13.0 13.25 14.3 8.7 23.2 -2.05 19.4 -9.2 16.9 -10.45 8.7 L-23.55 10.3 -25.95 1.1 -13.3 -6.0 -13.3 -20.55 11.3 -16.3 Q18.65 -13.8 19.7 -3.8" fill="#000000" fill-opacity="0.2" fill-rule="evenodd" stroke="none"/>
    </g>
    <g id="shape4" transform="matrix(1.0, 0.0, 0.0, 1.0, 26.85, 21.45)">
      <path d="M19.7 -3.8 Q20.7 6.2 26.0 5.1 22.7 14.85 7.6 9.05 8.1 13.0 13.25 14.3 8.7 23.2 -2.05 19.4 -9.2 16.9 -10.45 8.7 L-23.55 10.3 -25.95 1.1 -13.3 -6.0 -13.3 -20.55 11.3 -16.3 Q18.65 -13.8 19.7 -3.8 M-10.7 4.05 Q-10.75 6.55 -10.45 8.7" fill="none" stroke="#000000" stroke-linecap="round" stroke-linejoin="round" stroke-width="1.8"/>
    </g>
    <g id="sprite6" transform="matrix(1.0, 0.0, 0.0, 1.0, 23.3, 9.6)">
      <use ffdec:characterId="132" height="16.65" id="mc100" transform="matrix(1.0, 0.0, 0.0, 1.0, -22.4, -8.3)" width="44.85" xlink:href="#sprite7"/>
      <use ffdec:characterId="133" height="18.85" transform="matrix(1.0, 0.0, 0.0, 1.0, -23.3, -9.6)" width="46.65" xlink:href="#shape7"/>
    </g>
    <g id="sprite7" transform="matrix(1.0, 0.0, 0.0, 1.0, 22.4, 8.3)">
      <use ffdec:characterId="129" height="16.65" id="mc100" transform="matrix(1.0, 0.0, 0.0, 1.0, -22.4, -8.3)" width="44.85" xlink:href="#sprite8"/>
      <use ffdec:characterId="131" height="16.65" id="mc000" transform="matrix(1.0, 0.0, 0.0, 1.0, -22.4, -8.3)" width="44.85" xlink:href="#sprite9"/>
    </g>
    <g id="sprite8" transform="matrix(1.0, 0.0, 0.0, 1.0, 22.4, 8.3)">
      <use ffdec:characterId="128" height="16.65" transform="matrix(1.0, 0.0, 0.0, 1.0, -22.4, -8.3)" width="44.85" xlink:href="#shape5"/>
    </g>
    <g id="shape5" transform="matrix(1.0, 0.0, 0.0, 1.0, 22.4, 8.3)">
      <path d="M17.35 -3.6 Q23.05 1.5 22.4 8.35 L-22.4 8.35 Q-22.55 2.5 -16.1 -2.6 -9.65 -7.75 1.0 -8.25 11.6 -8.75 17.35 -3.6" fill="#ffffff" fill-rule="evenodd" stroke="none"/>
    </g>
    <g id="sprite9" transform="matrix(1.0, 0.0, 0.0, 1.0, 22.4, 8.3)">
      <use ffdec:characterId="130" height="16.65" transform="matrix(1.0, 0.0, 0.0, 1.0, -22.4, -8.3)" width="44.85" xlink:href="#shape6"/>
    </g>
    <g id="shape6" transform="matrix(1.0, 0.0, 0.0, 1.0, 22.4, 8.3)">
      <path d="M17.35 -3.6 Q23.05 1.5 22.4 8.35 L-22.4 8.35 Q-22.55 2.5 -16.1 -2.6 -9.65 -7.75 1.0 -8.25 11.6 -8.75 17.35 -3.6" fill="#000000" fill-opacity="0.2" fill-rule="evenodd" stroke="none"/>
    </g>
    <g id="shape7" transform="matrix(1.0, 0.0, 0.0, 1.0, 23.3, 9.6)">
      <path d="M17.2 -3.8 Q23.05 1.5 22.4 8.35 L-22.4 8.35 Q-22.55 2.5 -16.3 -2.85 -10.15 -8.25 0.6 -8.65 11.3 -9.1 17.2 -3.8 Z" fill="none" stroke="#000000" stroke-linecap="round" stroke-linejoin="round" stroke-width="1.8"/>
    </g>
    <g id="sprite10" transform="matrix(1.0, 0.0, 0.0, 1.0, 24.7, 11.1)">
      <use ffdec:characterId="262" height="19.8" id="mc100" transform="matrix(1.0, 0.0, 0.0, 1.0, -23.8, -10.2)" width="46.55" xlink:href="#sprite11"/>
      <use ffdec:characterId="263" height="21.6" transform="matrix(1.0, 0.0, 0.0, 1.0, -24.7, -11.1)" width="48.35" xlink:href="#shape9"/>
    </g>
    <g id="sprite11" transform="matrix(1.0, 0.0, 0.0, 1.0, 23.3, 9.9)">
      <use ffdec:characterId="261" height="19.8" transform="matrix(1.0, 0.0, 0.0, 1.0, -23.3, -9.9)" width="46.55" xlink:href="#shape8"/>
    </g>
    <g id="shape8" transform="matrix(1.0, 0.0, 0.0, 1.0, 23.3, 9.9)">
      <path d="M23.25 9.2 Q-0.4 10.6 -23.3 9.2 L-21.6 -8.95 Q0.85 -10.75 23.25 -9.15 L23.25 9.2" fill="#ff0000" fill-rule="evenodd" stroke="none"/>
    </g>
    <g id="shape9" transform="matrix(1.0, 0.0, 0.0, 1.0, 24.7, 11.1)">
      <path d="M-23.8 8.9 L-22.1 -9.25 Q0.35 -11.05 22.75 -9.45 L22.75 8.9 Q-0.9 10.3 -23.8 8.9 Z" fill="none" stroke="#000000" stroke-linecap="round" stroke-linejoin="round" stroke-width="1.8"/>
    </g>
    <g id="sprite12" transform="matrix(1.0, 0.0, 0.0, 1.0, 5.95, 7.7)">
      <use ffdec:characterId="49" height="15.4" transform="matrix(1.0, 0.0, 0.0, 1.0, -5.95, -7.7)" width="11.9" xlink:href="#shape10"/>
    </g>
    <g id="shape10" transform="matrix(1.0, 0.0, 0.0, 1.0, 5.95, 7.7)">
      <path d="M3.55 -4.8 Q5.05 -2.8 5.05 0.0 5.05 2.8 3.55 4.8 2.1 6.8 0.0 6.8 -2.1 6.8 -3.6 4.8 -5.05 2.8 -5.05 0.0 -5.05 -2.8 -3.6 -4.8 -2.1 -6.8 0.0 -6.8 2.1 -6.8 3.55 -4.8" fill="#000000" fill-rule="evenodd" stroke="none"/>
      <path d="M3.55 -4.8 Q5.05 -2.8 5.05 0.0 5.05 2.8 3.55 4.8 2.1 6.8 0.0 6.8 -2.1 6.8 -3.6 4.8 -5.05 2.8 -5.05 0.0 -5.05 -2.8 -3.6 -4.8 -2.1 -6.8 0.0 -6.8 2.1 -6.8 3.55 -4.8 Z" fill="none" stroke="#000000" stroke-linecap="round" stroke-linejoin="round" stroke-width="1.8"/>
      <path d="M1.0 4.95 Q2.75 2.8 1.25 0.7 L1.3 0.7 Q1.8 1.1 2.5 1.1 L3.7 0.7 Q3.95 3.5 2.7 4.95 L1.0 4.95 M1.0 -2.1 Q1.5 -2.5 2.25 -2.5 2.95 -2.5 3.45 -2.1 3.95 -1.7 3.95 -1.1 3.95 -0.5 3.45 -0.05 2.95 0.35 2.25 0.35 1.5 0.35 1.0 -0.05 0.5 -0.5 0.5 -1.1 0.5 -1.7 1.0 -2.1" fill="#ffffff" fill-rule="evenodd" stroke="none"/>
    </g>
    <g id="sprite13" transform="matrix(1.0, 0.0, 0.0, 1.0, 10.05, 5.4)">
      <use ffdec:characterId="143" height="9.05" id="mc100" transform="matrix(1.0, 0.0, 0.0, 1.0, -9.15, -4.5)" width="18.45" xlink:href="#sprite14"/>
      <use ffdec:characterId="144" height="10.85" transform="matrix(1.0, 0.0, 0.0, 1.0, -10.05, -5.4)" width="20.25" xlink:href="#shape12"/>
    </g>
    <g id="sprite14" transform="matrix(1.0, 0.0, 0.0, 1.0, 9.2, 4.5)">
      <use ffdec:characterId="142" height="9.05" transform="matrix(1.0, 0.0, 0.0, 1.0, -9.2, -4.5)" width="18.45" xlink:href="#shape11"/>
    </g>
    <g id="shape11" transform="matrix(1.0, 0.0, 0.0, 1.0, 9.2, 4.5)">
      <path d="M2.1 -4.2 Q5.9 -3.35 7.9 -0.45 9.55 1.95 9.15 4.55 L-9.2 0.45 Q-8.05 -2.0 -5.15 -3.35 -1.7 -5.05 2.1 -4.2" fill="#ffffff" fill-rule="evenodd" stroke="none"/>
    </g>
    <g id="shape12" transform="matrix(1.0, 0.0, 0.0, 1.0, 10.05, 5.4)">
      <path d="M2.15 -4.2 Q-1.65 -5.05 -5.1 -3.35 -8.0 -2.0 -9.15 0.45 L9.2 4.55 Q9.6 1.95 7.95 -0.45 5.95 -3.35 2.15 -4.2 Z" fill="none" stroke="#000000" stroke-linecap="round" stroke-linejoin="round" stroke-width="1.8"/>
    </g>
    <g id="sprite15" transform="matrix(1.0, 0.0, 0.0, 1.0, 9.9, 15.4)">
      <use ffdec:characterId="313" height="29.0" id="mc100" transform="matrix(1.0, 0.0, 0.0, 1.0, -9.0, -14.5)" width="18.0" xlink:href="#sprite16"/>
      <use ffdec:characterId="314" height="30.8" transform="matrix(1.0, 0.0, 0.0, 1.0, -9.9, -15.4)" width="19.75" xlink:href="#shape14"/>
    </g>
    <g id="sprite16" transform="matrix(1.0, 0.0, 0.0, 1.0, 9.0, 14.5)">
      <use ffdec:characterId="312" height="29.0" transform="matrix(1.0, 0.0, 0.0, 1.0, -9.0, -14.5)" width="18.0" xlink:href="#shape13"/>
    </g>
    <g id="shape13" transform="matrix(1.0, 0.0, 0.0, 1.0, 9.0, 14.5)">
      <path d="M6.9 -4.2 L8.95 0.8 9.0 0.95 8.95 1.15 Q4.8 11.75 -2.3 14.5 -8.45 7.1 -6.35 -2.9 L-7.1 -3.55 Q-9.0 -5.45 -9.0 -8.15 -9.0 -10.85 -7.1 -12.75 -5.35 -14.5 -2.6 -14.5 3.25 -11.95 5.85 -6.85 L6.6 -5.1 6.9 -4.2" fill="#ffffff" fill-rule="evenodd" stroke="none"/>
    </g>
    <g id="shape14" transform="matrix(1.0, 0.0, 0.0, 1.0, 9.9, 15.4)">
      <path d="M-4.55 -1.95 L-6.35 -2.9 Q-8.45 7.1 -2.3 14.5 4.8 11.75 8.95 1.15 M-6.35 -2.9 L-7.1 -3.55 Q-9.0 -5.45 -9.0 -8.15 -9.0 -10.85 -7.1 -12.75 -5.35 -14.5 -2.6 -14.5 3.25 -11.95 5.85 -6.85 L6.6 -5.1 6.9 -4.2" fill="none" stroke="#000000" stroke-linecap="round" stroke-linejoin="round" stroke-width="1.8"/>
    </g>
    <g id="sprite17" transform="matrix(1.0, 0.0, 0.0, 1.0, 13.9, 8.95)">
      <use ffdec:characterId="139" height="16.1" id="mc100" transform="matrix(1.0, 0.0, 0.0, 1.0, -13.0, -8.05)" width="26.05" xlink:href="#sprite18"/>
      <use ffdec:characterId="140" height="17.9" transform="matrix(1.0, 0.0, 0.0, 1.0, -13.9, -8.95)" width="27.85" xlink:href="#shape17"/>
    </g>
    <g id="sprite18" transform="matrix(1.0, 0.0, 0.0, 1.0, 13.0, 8.05)">
      <use ffdec:characterId="136" height="16.1" id="mc100" transform="matrix(1.0, 0.0, 0.0, 1.0, -13.0, -8.05)" width="26.05" xlink:href="#sprite19"/>
      <use ffdec:characterId="138" height="16.1" id="mc000" transform="matrix(1.0, 0.0, 0.0, 1.0, -13.0, -8.05)" width="26.05" xlink:href="#sprite20"/>
    </g>
    <g id="sprite19" transform="matrix(1.0, 0.0, 0.0, 1.0, 13.0, 8.05)">
      <use ffdec:characterId="135" height="16.1" transform="matrix(1.0, 0.0, 0.0, 1.0, -13.0, -8.05)" width="26.05" xlink:href="#shape15"/>
    </g>
    <g id="shape15" transform="matrix(1.0, 0.0, 0.0, 1.0, 13.0, 8.05)">
      <path d="M13.05 -4.65 Q8.5 -0.25 10.0 8.05 5.05 5.4 4.65 -1.2 2.55 3.0 3.1 7.8 -10.35 5.85 -13.0 -8.05 L12.8 -4.85 13.05 -4.65" fill="#ffffff" fill-rule="evenodd" stroke="none"/>
    </g>
    <g id="sprite20" transform="matrix(1.0, 0.0, 0.0, 1.0, 13.0, 8.05)">
      <use ffdec:characterId="137" height="16.1" transform="matrix(1.0, 0.0, 0.0, 1.0, -13.0, -8.05)" width="26.05" xlink:href="#shape16"/>
    </g>
    <g id="shape16" transform="matrix(1.0, 0.0, 0.0, 1.0, 13.0, 8.05)">
      <path d="M13.05 -4.65 Q8.5 -0.25 10.0 8.05 5.05 5.4 4.65 -1.2 2.55 3.0 3.1 7.8 -10.35 5.85 -13.0 -8.05 L12.8 -4.85 13.05 -4.65" fill="#000000" fill-opacity="0.2" fill-rule="evenodd" stroke="none"/>
    </g>
    <g id="shape17" transform="matrix(1.0, 0.0, 0.0, 1.0, 13.9, 8.95)">
      <path d="M13.05 -4.65 Q8.5 -0.25 10.0 8.05 5.05 5.4 4.65 -1.2 2.55 3.0 3.1 7.8 -10.35 5.85 -13.0 -8.05" fill="none" stroke="#000000" stroke-linecap="round" stroke-linejoin="round" stroke-width="1.8"/>
    </g>
  </defs>
</svg>
