<svg xmlns:ffdec="https://www.free-decompiler.com/flash" xmlns:xlink="http://www.w3.org/1999/xlink" xmlns="http://www.w3.org/2000/svg" ffdec:objectType="frame" viewBox="0 0.27569837918143336 25.5 24.70055672864978" width="25.5" height="24.70055672864978">
  <g transform="matrix(1.0, 0.0, 0.0, 1.0, -0.45, -2.65)">
    <use ffdec:characterId="70" height="21.05" id="hide_hat1" transform="matrix(-0.3555, 0.0, 0.0, 0.3555, 24.4204, 3.4687)" width="14.8" xlink:href="#sprite0"/>
    <use ffdec:characterId="75" height="64.1" id="mc200" transform="matrix(-0.3555, 0.0, 0.0, 0.3555, 25.9666, 3.1844)" width="71.8" xlink:href="#sprite1"/>
    <use ffdec:characterId="77" height="21.75" id="hide_hat" transform="matrix(-0.3555, 0.0, 0.0, 0.3555, 10.6999, 2.6334)" width="18.95" xlink:href="#sprite3"/>
    <use ffdec:characterId="346" height="0.0" id="hat" transform="matrix(-0.3555, 0.0, 0.0, 0.3555, 16.0, 37.0)" width="0.0" xlink:href="#sprite4"/>
  </g>
  <defs>
    <g id="sprite0" transform="matrix(1.0, 0.0, 0.0, 1.0, -3.6, -1.6)">
      <use ffdec:characterId="69" height="21.05" transform="matrix(1.0, 0.0, 0.0, 1.0, 3.6, 1.6)" width="14.8" xlink:href="#shape0"/>
    </g>
    <g id="shape0" transform="matrix(1.0, 0.0, 0.0, 1.0, -3.6, -1.6)">
      <path d="M4.5 2.35 Q7.75 8.3 9.1 17.05 8.3 18.05 7.65 19.15 3.7 12.25 4.5 2.35" fill="#bda6bb" fill-rule="evenodd" stroke="none"/>
      <path d="M4.5 2.35 Q12.1 4.75 15.5 9.15 L9.1 17.05 Q7.75 8.3 4.5 2.35" fill="#777777" fill-rule="evenodd" stroke="none"/>
      <path d="M4.5 2.35 Q12.1 4.75 15.5 9.15 18.6 13.4 17.25 16.45 L14.35 22.6 Q11.65 22.8 9.75 21.5 L9.1 17.0 Q7.75 8.3 4.5 2.35" fill="#777777" fill-rule="evenodd" stroke="none"/>
      <path d="M4.5 2.35 Q7.75 8.3 9.1 17.0 L9.75 21.5 Q8.55 20.6 7.65 19.15 3.7 12.25 4.5 2.35" fill="#bda6bb" fill-rule="evenodd" stroke="none"/>
      <path d="M17.25 16.45 Q18.6 13.4 15.5 9.15 12.1 4.75 4.5 2.35 7.75 8.3 9.1 17.0 L9.75 21.5 Q8.55 20.6 7.65 19.15 3.7 12.25 4.5 2.35" fill="none" stroke="#000000" stroke-linecap="round" stroke-linejoin="round" stroke-width="1.5"/>
    </g>
    <g id="sprite1" transform="matrix(1.0, 0.0, 0.0, 1.0, 0.75, -0.8)">
      <use ffdec:characterId="71" height="62.6" transform="matrix(1.0, 0.0, 0.0, 1.0, 0.0, 1.55)" width="70.3" xlink:href="#shape1"/>
      <use ffdec:characterId="73" height="7.55" id="mc101" transform="matrix(1.0, 0.0, 0.0, 1.0, 6.25, 41.0)" width="27.35" xlink:href="#sprite2"/>
      <use ffdec:characterId="74" height="64.1" transform="matrix(1.0, 0.0, 0.0, 1.0, -0.75, 0.8)" width="71.8" xlink:href="#shape3"/>
    </g>
    <g id="shape1" transform="matrix(1.0, 0.0, 0.0, 1.0, 0.0, -1.55)">
      <path d="M3.75 32.35 Q3.95 26.3 6.45 21.35 L7.65 19.15 Q8.3 18.05 9.1 17.05 L15.5 9.15 Q18.2 6.0 22.25 3.05 19.65 5.5 21.7 6.1 25.25 2.95 30.25 1.55 32.6 7.0 37.6 8.35 38.6 7.05 35.0 3.6 39.75 5.5 43.5 7.65 L52.0 14.05 56.05 19.6 56.3 19.85 56.75 20.25 Q59.95 23.15 61.75 30.0 62.2 31.8 63.05 33.65 65.3 38.8 70.3 44.3 61.65 45.45 60.85 48.55 62.4 48.8 66.2 50.25 62.65 51.0 60.55 52.6 54.9 53.1 52.15 46.45 48.95 38.75 39.4 37.7 L43.45 34.95 Q40.15 34.05 36.7 35.75 L40.85 30.85 Q31.8 31.2 25.65 37.55 15.9 42.8 9.4 38.35 7.65 34.4 3.75 32.35 M4.65 48.8 Q2.35 46.5 1.15 45.95 L4.75 45.95 Q4.1 42.8 0.0 42.55 4.45 40.85 4.0 37.15 4.7 41.7 7.5 46.05 5.55 47.3 4.65 48.8" fill="#999999" fill-rule="evenodd" stroke="none"/>
      <path d="M60.55 52.6 Q58.4 54.2 56.5 56.35 51.0 61.4 42.9 61.8 L43.95 60.8 Q47.75 55.9 52.2 55.0 47.6 52.45 46.55 53.85 48.75 50.7 53.7 51.4 46.65 42.1 38.0 46.45 35.05 47.9 32.55 48.4 38.05 44.6 35.4 40.0 L39.4 37.7 Q48.95 38.75 52.15 46.45 54.9 53.1 60.55 52.6 M9.4 38.35 Q15.9 42.8 25.65 37.55 22.95 40.35 20.8 44.3 17.1 42.6 13.05 43.5 L10.85 44.35 Q10.55 40.95 9.4 38.35" fill="#777777" fill-rule="evenodd" stroke="none"/>
      <path d="M42.9 61.8 Q38.95 64.5 26.05 64.1 L17.45 64.1 Q6.35 64.05 8.45 60.15 10.2 60.4 10.75 60.7 L10.8 60.7 10.95 60.8 11.55 61.05 13.25 61.6 14.15 61.85 16.4 61.85 17.2 61.85 19.0 62.05 21.3 62.2 24.3 62.2 27.65 61.85 27.7 61.85 30.2 61.15 30.25 61.15 32.85 59.75 Q38.1 52.55 42.95 49.9 L38.9 49.5 35.65 49.85 33.5 50.45 Q32.5 50.8 31.55 51.3 L31.45 51.35 29.35 52.4 27.05 53.35 24.6 54.1 21.95 54.75 21.05 54.9 19.75 55.05 Q17.25 55.25 15.25 54.45 L13.3 53.4 11.6 51.7 10.9 52.3 9.65 53.25 Q8.3 54.1 6.55 54.45 5.0 54.9 4.15 53.1 3.4 50.75 4.65 48.8 5.55 47.3 7.5 46.05 L9.85 47.05 Q9.95 48.85 14.4 47.8 18.55 45.3 25.0 47.1 26.6 48.2 28.55 48.55 L32.55 48.4 Q35.05 47.9 38.0 46.45 46.65 42.1 53.7 51.4 48.75 50.7 46.55 53.85 47.6 52.45 52.2 55.0 47.75 55.9 43.95 60.8 L42.9 61.8 M4.0 37.15 L3.95 36.85 3.75 34.45 3.75 32.35 Q7.65 34.4 9.4 38.35 10.55 40.95 10.85 44.35 8.7 43.25 6.8 41.05 5.35 39.4 4.0 37.15 M25.65 37.55 Q31.8 31.2 40.85 30.85 L36.7 35.75 Q40.15 34.05 43.45 34.95 L39.4 37.7 35.4 40.0 33.3 41.0 Q28.0 43.3 20.8 44.3 22.95 40.35 25.65 37.55" fill="#dfdfdf" fill-rule="evenodd" stroke="none"/>
      <path d="M9.85 47.05 L7.5 46.05 7.7 45.9 Q9.0 45.05 10.85 44.35 L13.05 43.5 Q17.1 42.6 20.8 44.3 23.45 45.85 24.3 46.55 L25.0 47.1 Q18.55 45.3 14.4 47.8 16.0 46.1 12.65 44.4 11.5 44.75 10.85 45.45 10.1 46.1 9.85 47.05" fill="#b8b8b8" fill-rule="evenodd" stroke="none"/>
      <path d="M7.5 46.05 Q4.7 41.7 4.0 37.15 5.35 39.4 6.8 41.05 5.45 42.45 7.5 46.05 M28.55 48.55 Q34.85 46.75 33.3 41.0 L35.4 40.0 Q38.05 44.6 32.55 48.4 L28.55 48.55" fill="#56522c" fill-rule="evenodd" stroke="none"/>
      <path d="M9.85 47.05 Q10.1 46.1 10.85 45.45 11.5 44.75 12.65 44.4 16.0 46.1 14.4 47.8 9.95 48.85 9.85 47.05" fill="#000000" fill-rule="evenodd" stroke="none"/>
      <path d="M8.45 60.15 L9.2 56.7 Q9.9 57.2 10.45 58.75 12.25 57.7 12.05 59.5 L12.75 59.35 13.5 59.65 Q13.3 60.45 13.25 61.6 13.3 60.45 13.5 59.65 13.95 57.9 15.0 57.9 16.1 58.6 16.4 61.85 18.0 59.0 19.0 62.05 20.35 58.7 21.3 62.2 22.65 58.0 24.3 62.2 L21.3 62.2 19.0 62.05 17.2 61.85 16.4 61.85 14.15 61.85 13.25 61.6 11.55 61.05 10.95 60.8 10.8 60.7 10.75 60.7 Q10.2 60.4 8.45 60.15 M12.4 55.15 Q11.8 55.3 11.6 51.7 L13.3 53.4 15.25 54.45 Q17.25 55.25 19.75 55.05 L21.05 54.9 21.95 54.75 24.6 54.1 27.05 53.35 29.35 52.4 31.45 51.35 31.55 51.3 Q32.5 50.8 33.5 50.45 33.25 55.15 31.45 51.35 30.9 55.9 29.35 52.4 28.75 56.75 27.05 53.35 26.35 57.65 24.6 54.1 24.75 56.5 23.4 56.3 L21.95 54.75 Q21.8 58.8 19.75 55.05 18.25 58.45 17.1 58.4 15.55 57.05 15.25 54.5 13.7 58.05 13.3 53.4 12.75 55.05 12.4 55.15 M10.9 52.3 Q11.25 57.8 9.65 53.25 9.7 55.65 9.05 56.65 L8.45 57.2 Q6.85 56.35 6.55 54.45 8.3 54.1 9.65 53.25 L10.9 52.3 M38.9 49.5 Q38.1 53.75 35.65 49.85 35.4 53.2 33.5 50.45 L35.65 49.85 38.9 49.5 M27.7 61.85 Q27.5 59.2 28.95 59.2 L30.2 61.15 27.7 61.85 M30.25 61.15 Q30.95 56.6 32.85 59.75 L30.25 61.15 M27.65 61.85 L24.3 62.2 Q25.1 58.85 27.65 61.85 M11.55 61.05 L12.05 59.5 11.55 61.05 M10.45 58.75 L10.75 60.7 10.45 58.75" fill="#ffffff" fill-rule="evenodd" stroke="none"/>
      <path d="M12.75 59.35 Q13.55 56.65 12.4 55.15 12.75 55.05 13.3 53.4 13.7 58.05 15.25 54.5 15.55 57.05 17.1 58.4 18.25 58.45 19.75 55.05 21.8 58.8 21.95 54.75 L23.4 56.3 Q24.75 56.5 24.6 54.1 26.35 57.65 27.05 53.35 28.75 56.75 29.35 52.4 30.9 55.9 31.45 51.35 33.25 55.15 33.5 50.45 35.4 53.2 35.65 49.85 38.1 53.75 38.9 49.5 L42.95 49.9 Q38.1 52.55 32.85 59.75 30.95 56.6 30.25 61.15 L30.2 61.15 28.95 59.2 Q27.5 59.2 27.7 61.85 L27.65 61.85 Q25.1 58.85 24.3 62.2 22.65 58.0 21.3 62.2 20.35 58.7 19.0 62.05 18.0 59.0 16.4 61.85 16.1 58.6 15.0 57.9 13.95 57.9 13.5 59.65 L12.75 59.35" fill="#503333" fill-rule="evenodd" stroke="none"/>
      <path d="M8.45 60.15 L9.2 56.7 Q9.9 57.2 10.45 58.75 12.25 57.7 12.05 59.5 L12.75 59.35 Q13.55 56.65 12.4 55.15 11.8 55.3 11.6 51.7 M10.9 52.3 Q11.25 57.8 9.65 53.25 9.7 55.65 9.05 56.65 L8.45 57.2 Q6.85 56.35 6.55 54.45 M9.85 47.05 Q10.1 46.1 10.85 45.45 11.5 44.75 12.65 44.4 16.0 46.1 14.4 47.8 9.95 48.85 9.85 47.05 M38.9 49.5 Q38.1 53.75 35.65 49.85 35.4 53.2 33.5 50.45 33.25 55.15 31.45 51.35 30.9 55.9 29.35 52.4 28.75 56.75 27.05 53.35 26.35 57.65 24.6 54.1 24.75 56.5 23.4 56.3 L21.95 54.75 Q21.8 58.8 19.75 55.05 18.25 58.45 17.1 58.4 15.55 57.05 15.25 54.5 13.7 58.05 13.3 53.4 12.75 55.05 12.4 55.15 M27.7 61.85 Q27.5 59.2 28.95 59.2 L30.2 61.15 M30.25 61.15 Q30.95 56.6 32.85 59.75 M24.3 62.2 Q22.65 58.0 21.3 62.2 20.35 58.7 19.0 62.05 18.0 59.0 16.4 61.85 16.1 58.6 15.0 57.9 13.95 57.9 13.5 59.65 L12.75 59.35 M27.65 61.85 Q25.1 58.85 24.3 62.2 M12.05 59.5 L11.55 61.05 M13.25 61.6 Q13.3 60.45 13.5 59.65 M10.75 60.7 L10.45 58.75" fill="none" stroke="#000000" stroke-linecap="round" stroke-linejoin="round" stroke-width="1.0"/>
    </g>
    <g id="sprite2" transform="matrix(1.0, 0.0, 0.0, 1.0, 0.0, 0.0)">
      <use ffdec:characterId="72" height="7.55" transform="matrix(1.0, 0.0, 0.0, 1.0, 0.0, 0.0)" width="27.35" xlink:href="#shape2"/>
    </g>
    <g id="shape2" transform="matrix(1.0, 0.0, 0.0, 1.0, 0.0, 0.0)">
      <path d="M22.3 7.55 Q20.35 7.2 18.75 6.1 L18.05 5.55 14.55 3.3 Q21.75 2.3 27.05 0.0 28.6 5.75 22.3 7.55 M0.55 0.05 Q2.45 2.25 4.6 3.35 2.75 4.05 1.45 4.9 L1.25 5.05 Q-0.8 1.45 0.55 0.05" fill="#fff478" fill-rule="evenodd" stroke="none"/>
    </g>
    <g id="shape3" transform="matrix(1.0, 0.0, 0.0, 1.0, 0.75, -0.8)">
      <path d="M60.85 48.55 Q62.4 48.8 66.2 50.25 62.65 51.0 60.55 52.6 58.4 54.2 56.5 56.35 51.0 61.4 42.9 61.8 38.95 64.5 26.05 64.1 L17.45 64.1 Q6.35 64.05 8.45 60.15 10.2 60.4 10.75 60.7 L10.8 60.7 10.95 60.8 11.55 61.05 13.25 61.6 14.15 61.85 17.2 61.85 19.0 62.05 21.3 62.2 24.3 62.2 27.65 61.85 27.7 61.85 30.2 61.15 30.25 61.15 32.85 59.75 Q38.1 52.55 42.95 49.9 L38.9 49.5 35.65 49.85 33.5 50.45 Q32.5 50.8 31.55 51.3 L31.45 51.35 29.35 52.4 27.05 53.35 24.6 54.1 21.95 54.75 21.05 54.9 19.75 55.05 Q17.25 55.25 15.25 54.45 L13.3 53.4 11.6 51.7 10.9 52.3 9.65 53.25 Q8.3 54.1 6.55 54.45 5.0 54.9 4.15 53.1 3.4 50.75 4.65 48.8 2.35 46.5 1.15 45.95 L4.75 45.95 Q4.1 42.8 0.0 42.55 4.45 40.85 4.0 37.15 L3.95 36.85 3.75 34.45 3.75 32.35 Q3.95 26.3 6.45 21.35 L7.65 19.15 Q8.3 18.05 9.1 17.05 L15.5 9.15 Q18.2 6.0 22.25 3.05 19.65 5.5 21.7 6.1 25.25 2.95 30.25 1.55 32.6 7.0 37.6 8.35 38.6 7.05 35.0 3.6 41.25 6.1 45.85 9.05 51.8 13.15 56.75 20.25 59.95 23.15 61.75 30.0 62.2 31.8 63.05 33.65 65.3 38.8 70.3 44.3 61.65 45.45 60.85 48.55 M42.9 61.8 L43.95 60.8 Q47.75 55.9 52.2 55.0 47.6 52.45 46.55 53.85 48.75 50.7 53.7 51.4 46.65 42.1 38.0 46.45 35.05 47.9 32.55 48.4 L28.55 48.55 Q26.6 48.2 25.0 47.1 L24.3 46.55 Q23.45 45.85 20.8 44.3 17.1 42.6 13.05 43.5 L10.85 44.35 Q9.0 45.05 7.7 45.9 L7.5 46.05 Q5.55 47.3 4.65 48.8 M4.0 37.15 Q5.35 39.4 6.8 41.05 8.7 43.25 10.85 44.35 10.55 40.95 9.4 38.35 7.65 34.4 3.75 32.35 M20.8 44.3 Q22.95 40.35 25.65 37.55 31.8 31.2 40.85 30.85 L36.7 35.75 Q40.15 34.05 43.45 34.95 L39.4 37.7 35.4 40.0 33.3 41.0 Q28.0 43.3 20.8 44.3 M46.15 50.7 L42.95 49.9" fill="none" stroke="#000000" stroke-linecap="round" stroke-linejoin="round" stroke-width="1.5"/>
      <path d="M7.5 46.05 Q4.7 41.7 4.0 37.15 M7.5 46.05 Q5.45 42.45 6.8 41.05 M35.4 40.0 Q38.05 44.6 32.55 48.4 M33.3 41.0 Q34.85 46.75 28.55 48.55" fill="none" stroke="#000000" stroke-linecap="round" stroke-linejoin="round" stroke-width="1.0"/>
    </g>
    <g id="sprite3" transform="matrix(1.0, 0.0, 0.0, 1.0, -42.2, 0.75)">
      <use ffdec:characterId="76" height="21.75" transform="matrix(1.0, 0.0, 0.0, 1.0, 42.2, -0.75)" width="18.95" xlink:href="#shape4"/>
    </g>
    <g id="shape4" transform="matrix(1.0, 0.0, 0.0, 1.0, -42.2, 0.75)">
      <path d="M58.85 0.0 Q58.25 4.35 55.75 7.8 52.4 9.0 52.0 16.8 49.1 15.3 45.8 14.8 46.85 12.65 48.2 10.65 52.2 4.75 58.85 0.0" fill="#bda6bb" fill-rule="evenodd" stroke="none"/>
      <path d="M55.75 7.8 Q58.25 4.35 58.85 0.0 62.75 9.65 56.75 20.25 54.55 18.1 52.0 16.8 52.4 9.0 55.75 7.8" fill="#dec5dc" fill-rule="evenodd" stroke="none"/>
      <path d="M55.75 7.8 Q52.4 9.0 52.0 16.8" fill="none" stroke="#000000" stroke-linecap="round" stroke-linejoin="round" stroke-width="1.0"/>
      <path d="M42.95 14.2 Q43.95 11.45 45.85 9.05 50.1 3.7 58.85 0.0 52.2 4.75 48.2 10.65 46.85 12.65 45.8 14.8 L42.95 14.2" fill="#999999" fill-rule="evenodd" stroke="none"/>
      <path d="M42.95 14.2 Q43.95 11.45 45.85 9.05 50.1 3.7 58.85 0.0 62.75 9.65 56.75 20.25 54.55 18.1 52.0 16.8 49.1 15.3 45.8 14.8 46.85 12.65 48.2 10.65 52.2 4.75 58.85 0.0" fill="none" stroke="#000000" stroke-linecap="round" stroke-linejoin="round" stroke-width="1.5"/>
    </g>
  </defs>
</svg>