<?xml version="1.0" encoding="UTF-8" standalone="no"?>
<svg xmlns:ffdec="https://www.free-decompiler.com/flash" xmlns:xlink="http://www.w3.org/1999/xlink" ffdec:objectType="frame" height="161.45px" width="127.25px" xmlns="http://www.w3.org/2000/svg">
  <g transform="matrix(1.0, 0.0, 0.0, 1.0, 57.85, 150.25)">
    <use ffdec:characterId="178" height="18.55" id="mc311410" transform="matrix(-0.2547, 0.9476, 0.9476, 0.2547, 15.9108, -55.4295)" width="15.75" xlink:href="#sprite0"/>
    <use ffdec:characterId="816" height="28.9" id="mc291410" transform="matrix(0.6079, 0.7825, -0.7825, 0.6079, 36.4303, -72.9726)" width="31.2" xlink:href="#sprite3"/>
    <use ffdec:characterId="172" height="79.3" id="mc271410" transform="matrix(-0.9297, -0.3486, -0.3486, 0.9297, 44.3004, -86.223)" width="74.0" xlink:href="#sprite6"/>
    <use ffdec:characterId="173" height="18.85" id="mc261410" transform="matrix(-0.9872, -0.078, -0.078, 0.9872, 12.4274, -26.3922)" width="10.9" xlink:href="#sprite12"/>
    <use ffdec:characterId="173" height="18.85" id="mc251410" transform="matrix(-0.9745, -0.177, -0.177, 0.9745, 7.2048, -26.0317)" width="10.9" xlink:href="#sprite12"/>
    <use ffdec:characterId="405" height="23.3" id="mc231410" transform="matrix(0.9977, -0.0132, 0.0132, 0.9977, -0.8036, -52.4197)" width="18.25" xlink:href="#sprite13"/>
    <use ffdec:characterId="408" height="19.75" id="mc211410" transform="matrix(0.994, 0.0871, -0.0871, 0.994, -2.4898, -33.4875)" width="21.2" xlink:href="#sprite15"/>
    <use ffdec:characterId="817" height="15.25" transform="matrix(1.0, 0.0, 0.0, 1.0, -13.1, -73.55)" width="32.2" xlink:href="#shape14"/>
    <use ffdec:characterId="811" height="15.85" id="mc191410" transform="matrix(0.9993, -0.0314, 0.0314, 0.9993, -5.6252, -46.3611)" width="22.2" xlink:href="#sprite17"/>
    <use ffdec:characterId="33" height="21.35" transform="matrix(-0.9788, -0.1776, -0.1776, 0.9788, 20.5, -47.65)" width="23.6" xlink:href="#shape17"/>
    <use ffdec:characterId="412" height="13.0" id="mc161410" transform="matrix(0.9993, -0.0314, 0.0314, 0.9993, -3.8838, -48.2647)" width="15.0" xlink:href="#sprite19"/>
    <use ffdec:characterId="515" height="10.9" id="mc151410" transform="matrix(0.9993, -0.0314, 0.0314, 0.9993, 10.6223, -48.2711)" width="8.25" xlink:href="#sprite22"/>
    <use ffdec:characterId="821" height="44.25" id="mc131410" transform="matrix(-0.9879, 0.1487, 0.1487, 0.9879, 25.6294, -89.8525)" width="51.3" xlink:href="#sprite25"/>
    <use ffdec:characterId="822" height="6.0" transform="matrix(1.0, 0.0, 0.0, 1.0, 7.4, -51.25)" width="3.35" xlink:href="#shape24"/>
    <use ffdec:characterId="823" height="37.1" transform="matrix(1.0, 0.0, 0.0, 1.0, -14.0, -87.6)" width="16.2" xlink:href="#morphshape0"/>
    <use ffdec:characterId="824" height="46.7" transform="matrix(1.0, 0.0, 0.0, 1.0, 8.05, -100.75)" width="10.15" xlink:href="#morphshape1"/>
    <use ffdec:characterId="825" height="11.75" transform="matrix(-0.9879, 0.1487, 0.1487, 0.9879, 22.73, -67.845)" width="37.2" xlink:href="#shape25"/>
    <use ffdec:characterId="178" height="18.55" id="mc71410" transform="matrix(0.492, 0.8485, -0.8485, 0.492, -5.8454, -54.7899)" width="15.75" xlink:href="#sprite0"/>
    <use ffdec:characterId="830" height="50.1" id="hide_hat" transform="matrix(-0.9879, 0.1487, 0.1487, 0.9879, 33.6294, -122.9025)" width="82.05" xlink:href="#sprite27"/>
    <use ffdec:characterId="834" height="46.1" id="mc31410" transform="matrix(-0.9879, 0.1487, 0.1487, 0.9879, 30.4212, -99.5872)" width="64.05" xlink:href="#sprite29"/>
    <use ffdec:characterId="539" height="9.9" id="mc21410" transform="matrix(-0.9216, 0.3497, -0.3497, -0.9216, -8.2559, -40.8853)" width="9.9" xlink:href="#sprite31"/>
    <use ffdec:characterId="142" height="22.15" id="hide_hat8" transform="matrix(0.9021, -0.4214, 0.4214, 0.9021, -32.1303, -81.4511)" width="51.0" xlink:href="#sprite33"/>
    <use ffdec:characterId="715" height="0.0" id="hat" transform="matrix(1.0, 0.0, 0.0, 1.0, 0.0, 0.0)" width="0.0" xlink:href="#sprite37"/>
  </g>
  <defs>
    <g id="sprite0" transform="matrix(1.0, 0.0, 0.0, 1.0, 7.85, 8.8)">
      <use ffdec:characterId="174" height="6.5" id="mc400" transform="matrix(1.0, 0.0, 0.0, 1.0, -5.35, 2.35)" width="7.55" xlink:href="#sprite1"/>
      <use ffdec:characterId="175" height="16.1" transform="matrix(1.0, 0.0, 0.0, 1.0, -6.25, -6.35)" width="14.15" xlink:href="#shape1"/>
      <use ffdec:characterId="176" height="15.5" id="mc200" transform="matrix(1.0, 0.0, 0.0, 1.0, -6.95, -7.9)" width="13.95" xlink:href="#sprite2"/>
      <use ffdec:characterId="177" height="17.3" transform="matrix(1.0, 0.0, 0.0, 1.0, -7.85, -8.8)" width="15.75" xlink:href="#shape3"/>
    </g>
    <g id="sprite1" transform="matrix(1.0, 0.0, 0.0, 1.0, 0.0, 0.0)">
      <use ffdec:characterId="12" height="6.5" transform="matrix(1.0, 0.0, 0.0, 1.0, 0.0, 0.0)" width="7.55" xlink:href="#shape0"/>
    </g>
    <g id="shape0" transform="matrix(1.0, 0.0, 0.0, 1.0, 0.0, 0.0)">
      <path d="M6.45 2.8 L7.55 2.7 7.1 3.95 Q6.5 5.65 5.2 6.2 3.75 6.8 2.3 6.2 0.8 5.55 0.2 4.15 -0.3 2.8 0.5 1.2 L1.1 0.0 Q2.7 2.0 4.75 2.55 L6.3 2.9 6.45 2.8" fill="#b59155" fill-rule="evenodd" stroke="none"/>
    </g>
    <g id="shape1" transform="matrix(1.0, 0.0, 0.0, 1.0, 6.25, 6.35)">
      <path d="M6.8 -4.7 L6.7 -4.4 7.0 -5.45 6.8 -4.7" fill="#ffffff" fill-rule="evenodd" stroke="none"/>
      <path d="M6.8 -4.7 L7.0 -5.45 6.7 -4.4 6.8 -4.7 3.75 2.45 2.2 5.05 1.75 6.3 Q1.15 8.0 -0.15 8.55 -1.6 9.15 -3.05 8.55 -4.55 7.9 -5.15 6.5 -5.65 5.15 -4.85 3.55 L-4.25 2.35 -4.1 1.95 M2.2 5.05 L1.1 5.15 M-2.55 -1.8 L-2.7 -1.55 M-0.6 4.9 Q-2.65 4.35 -4.25 2.35" fill="none" stroke="#000000" stroke-linecap="round" stroke-linejoin="round" stroke-width="1.8"/>
    </g>
    <g id="sprite2" transform="matrix(1.0, 0.0, 0.0, 1.0, 0.0, 0.0)">
      <use ffdec:characterId="14" height="15.5" transform="matrix(1.0, 0.0, 0.0, 1.0, 0.0, 0.0)" width="13.95" xlink:href="#shape2"/>
    </g>
    <g id="shape2" transform="matrix(1.0, 0.0, 0.0, 1.0, 0.0, 0.0)">
      <path d="M10.4 10.55 L10.7 10.75 8.8 15.5 8.75 15.5 8.5 15.4 7.2 13.05 4.05 14.4 3.95 14.15 3.6 10.9 3.35 10.55 0.0 10.55 4.3 6.05 4.4 6.15 5.05 5.25 Q10.05 0.45 11.25 0.15 12.45 -0.25 13.25 0.4 14.1 1.05 13.95 2.25 L13.95 2.45 13.65 3.5 10.4 10.55" fill="#ffffff" fill-rule="evenodd" stroke="none"/>
    </g>
    <g id="shape3" transform="matrix(1.0, 0.0, 0.0, 1.0, 7.85, 8.8)">
      <path d="M-2.65 -1.85 L-6.95 2.65 -3.4 2.65 -3.0 6.25 M1.85 7.6 L3.75 2.85 M-2.9 6.5 L0.25 5.15 1.55 7.5 M3.35 2.6 L-2.45 -1.7" fill="none" stroke="#000000" stroke-linecap="round" stroke-linejoin="round" stroke-width="1.8"/>
      <path d="M7.0 -5.65 Q7.15 -6.85 6.3 -7.5 5.5 -8.15 4.3 -7.75 3.1 -7.45 -1.9 -2.65 M6.7 -4.4 L3.5 2.9" fill="none" stroke="#000000" stroke-linecap="round" stroke-linejoin="round" stroke-width="1.8"/>
    </g>
    <g id="sprite3" transform="matrix(1.0, 0.0, 0.0, 1.0, 22.15, 15.2)">
      <use ffdec:characterId="815" height="28.9" id="mc000" transform="matrix(1.0, 0.0, 0.0, 1.0, -22.15, -15.2)" width="31.2" xlink:href="#sprite4"/>
    </g>
    <g id="sprite4" transform="matrix(1.0, 0.0, 0.0, 1.0, 15.6, 14.45)">
      <use ffdec:characterId="813" height="27.4" id="mc100" transform="matrix(1.0, 0.0, 0.0, 1.0, -14.85, -13.7)" width="29.7" xlink:href="#sprite5"/>
      <use ffdec:characterId="814" height="28.9" transform="matrix(1.0, 0.0, 0.0, 1.0, -15.6, -14.45)" width="31.2" xlink:href="#shape5"/>
    </g>
    <g id="sprite5" transform="matrix(1.0, 0.0, 0.0, 1.0, 14.85, 13.7)">
      <use ffdec:characterId="812" height="27.4" transform="matrix(1.0, 0.0, 0.0, 1.0, -14.85, -13.7)" width="29.7" xlink:href="#shape4"/>
    </g>
    <g id="shape4" transform="matrix(1.0, 0.0, 0.0, 1.0, 14.85, 13.7)">
      <path d="M-2.8 -13.6 L-2.45 -13.65 Q5.0 -14.25 8.6 -6.95 15.3 -6.9 14.8 0.45 11.7 13.7 -0.85 13.7 L-0.9 13.6 Q-10.25 14.0 -13.55 5.9 -15.3 1.1 -14.65 -3.7 -12.0 -12.75 -2.8 -13.6" fill="#11051c" fill-rule="evenodd" stroke="none"/>
    </g>
    <g id="shape5" transform="matrix(1.0, 0.0, 0.0, 1.0, 15.6, 14.45)">
      <path d="M8.6 -6.95 Q5.0 -14.25 -2.45 -13.65 L-2.8 -13.6 Q-12.0 -12.75 -14.65 -3.7 -15.3 1.1 -13.55 5.9 -10.25 14.0 -0.9 13.6 L-0.95 13.7 -0.85 13.7 Q11.7 13.7 14.8 0.45 15.3 -6.9 8.6 -6.95 L10.25 -2.4" fill="none" stroke="#000000" stroke-linecap="round" stroke-linejoin="round" stroke-width="1.5"/>
    </g>
    <g id="sprite6" transform="matrix(1.0, 0.0, 0.0, 1.0, 0.9, 0.9)">
      <use ffdec:characterId="169" height="66.3" id="mc200" transform="matrix(1.0, 0.0, 0.0, 1.0, 6.8, 9.25)" width="63.0" xlink:href="#sprite7"/>
      <use ffdec:characterId="171" height="53.85" id="mc100" transform="matrix(1.0, 0.0, 0.0, 1.0, 16.75, 18.6)" width="50.35" xlink:href="#sprite10"/>
      <use ffdec:characterId="9" height="79.3" transform="matrix(1.0, 0.0, 0.0, 1.0, -0.9, -0.9)" width="74.0" xlink:href="#shape8"/>
    </g>
    <g id="sprite7" transform="matrix(1.0, 0.0, 0.0, 1.0, 0.0, 0.0)">
      <use ffdec:characterId="168" height="66.3" id="mc000" transform="matrix(1.0, 0.0, 0.0, 1.0, 0.0, 0.0)" width="63.0" xlink:href="#sprite8"/>
    </g>
    <g id="sprite8" transform="matrix(1.0, 0.0, 0.0, 1.0, 0.0, 0.0)">
      <use ffdec:characterId="167" height="66.3" id="mc000" transform="matrix(1.0, 0.0, 0.0, 1.0, 0.0, 0.0)" width="63.0" xlink:href="#sprite9"/>
    </g>
    <g id="sprite9" transform="matrix(1.0, 0.0, 0.0, 1.0, 0.0, 0.0)">
      <use ffdec:characterId="1" height="66.3" transform="matrix(1.0, 0.0, 0.0, 1.0, 0.0, 0.0)" width="63.0" xlink:href="#shape6"/>
    </g>
    <g id="shape6" transform="matrix(1.0, 0.0, 0.0, 1.0, 0.0, 0.0)">
      <path d="M60.3 9.35 L48.15 9.55 51.45 0.8 63.0 0.0 60.3 9.35 M11.2 50.8 L9.95 63.2 0.0 66.3 2.35 55.3 11.2 50.8" fill="#00cc99" fill-rule="evenodd" stroke="none"/>
    </g>
    <g id="sprite10" transform="matrix(1.0, 0.0, 0.0, 1.0, 0.0, 0.0)">
      <use ffdec:characterId="170" height="53.85" id="mc000" transform="matrix(1.0, 0.0, 0.0, 1.0, 0.0, 0.0)" width="50.35" xlink:href="#sprite11"/>
    </g>
    <g id="sprite11" transform="matrix(1.0, 0.0, 0.0, 1.0, 0.0, 0.0)">
      <use ffdec:characterId="6" height="53.85" transform="matrix(1.0, 0.0, 0.0, 1.0, 0.0, 0.0)" width="50.35" xlink:href="#shape7"/>
    </g>
    <g id="shape7" transform="matrix(1.0, 0.0, 0.0, 1.0, 0.0, 0.0)">
      <path d="M38.2 0.2 L50.35 0.0 Q44.35 19.8 36.1 40.2 18.3 47.9 0.0 53.85 L1.25 41.45 Q12.7 35.7 24.15 29.9 32.25 15.3 38.2 0.2" fill="#006666" fill-rule="evenodd" stroke="none"/>
    </g>
    <g id="shape8" transform="matrix(1.0, 0.0, 0.0, 1.0, 0.9, 0.9)">
      <path d="M58.25 10.05 L59.4 6.6 Q63.9 -0.95 72.2 0.15 L69.8 9.25 58.25 10.05 M9.15 64.55 L6.8 75.55 0.0 77.5 5.15 66.55 9.15 64.55" fill="#fafff5" fill-rule="evenodd" stroke="none"/>
      <path d="M54.95 18.8 Q49.0 33.9 40.9 48.5 L18.0 60.05 16.75 72.45 Q35.05 66.5 52.85 58.8 61.1 38.4 67.1 18.6 L54.95 18.8 58.25 10.05 59.4 6.6 Q63.9 -0.95 72.2 0.15 L69.8 9.25 67.1 18.6 M58.25 10.05 L69.8 9.25 M9.15 64.55 L6.8 75.55 16.75 72.45 M6.8 75.55 L0.0 77.5 5.15 66.55 9.15 64.55 18.0 60.05" fill="none" stroke="#000000" stroke-linecap="round" stroke-linejoin="round" stroke-width="1.8"/>
    </g>
    <g id="sprite12" transform="matrix(1.0, 0.0, 0.0, 1.0, 4.95, 9.5)">
      <use ffdec:characterId="18" height="18.85" transform="matrix(1.0, 0.0, 0.0, 1.0, -4.95, -9.5)" width="10.9" xlink:href="#shape9"/>
    </g>
    <g id="shape9" transform="matrix(1.0, 0.0, 0.0, 1.0, 4.95, 9.5)">
      <path d="M5.05 5.55 L5.05 5.7 Q5.15 6.65 3.9 7.45 2.7 8.25 0.95 8.4 -0.8 8.55 -2.15 7.95 -3.45 7.45 -3.55 6.5 L-3.55 6.35 -3.5 6.35 4.7 5.5 5.05 5.55" fill="#000000" fill-rule="evenodd" stroke="none"/>
      <path d="M-3.55 6.1 L-3.65 3.85 -4.05 -6.3 Q-4.1 -7.15 -3.15 -7.75 -2.1 -8.4 -0.55 -8.55 L2.1 -8.25 Q3.15 -7.75 3.3 -7.0 L3.35 -6.85 3.35 -6.65 4.7 3.05 5.05 5.45 4.7 5.5 -3.5 6.35 -3.55 6.1 M4.7 3.05 L-3.65 3.85 4.7 3.05" fill="#ffffff" fill-rule="evenodd" stroke="none"/>
      <path d="M-3.55 6.1 L-3.65 3.85 -4.05 -6.3 Q-4.1 -7.15 -3.15 -7.75 -2.1 -8.4 -0.55 -8.55 L2.1 -8.25 Q3.15 -7.75 3.3 -7.0 L3.35 -6.85 3.35 -6.65 4.7 3.05 5.05 5.45 5.05 5.55 5.05 5.7 Q5.15 6.65 3.9 7.45 2.7 8.25 0.95 8.4 -0.8 8.55 -2.15 7.95 -3.45 7.45 -3.55 6.5 L-3.55 6.35 -3.55 6.1 M-3.5 6.35 L4.7 5.5 M-3.55 6.35 L-3.5 6.35 M-3.65 3.85 L4.7 3.05" fill="none" stroke="#000000" stroke-linecap="round" stroke-linejoin="round" stroke-width="1.8"/>
    </g>
    <g id="sprite13" transform="matrix(1.0, 0.0, 0.0, 1.0, 0.9, 8.0)">
      <use ffdec:characterId="404" height="21.5" id="mc100" transform="matrix(1.0, 0.0, 0.0, 1.0, 0.0, -7.1)" width="16.45" xlink:href="#sprite14"/>
      <use ffdec:characterId="22" height="23.3" transform="matrix(1.0, 0.0, 0.0, 1.0, -0.9, -8.0)" width="18.25" xlink:href="#shape11"/>
    </g>
    <g id="sprite14" transform="matrix(1.0, 0.0, 0.0, 1.0, 0.0, 0.0)">
      <use ffdec:characterId="20" height="21.5" transform="matrix(1.0, 0.0, 0.0, 1.0, 0.0, 0.0)" width="16.45" xlink:href="#shape10"/>
    </g>
    <g id="shape10" transform="matrix(1.0, 0.0, 0.0, 1.0, 0.0, 0.0)">
      <path d="M16.4 20.85 L11.3 21.3 6.6 21.5 0.0 21.25 0.75 5.1 12.45 0.0 Q16.8 9.45 16.4 20.85" fill="#c4a44a" fill-rule="evenodd" stroke="none"/>
    </g>
    <g id="shape11" transform="matrix(1.0, 0.0, 0.0, 1.0, 0.9, 8.0)">
      <path d="M12.45 -7.1 Q16.8 2.35 16.4 13.75 L11.3 14.2 6.6 14.4 0.0 14.15 0.75 -2.0 12.45 -7.1 Z" fill="none" stroke="#000000" stroke-linecap="round" stroke-linejoin="round" stroke-width="1.8"/>
    </g>
    <g id="sprite15" transform="matrix(1.0, 0.0, 0.0, 1.0, -0.55, 2.45)">
      <use ffdec:characterId="406" height="17.95" id="mc100" transform="matrix(1.0, 0.0, 0.0, 1.0, 1.45, -1.55)" width="19.4" xlink:href="#sprite16"/>
      <use ffdec:characterId="407" height="19.75" transform="matrix(1.0, 0.0, 0.0, 1.0, 0.55, -2.45)" width="21.2" xlink:href="#shape13"/>
    </g>
    <g id="sprite16" transform="matrix(1.0, 0.0, 0.0, 1.0, 0.0, 0.0)">
      <use ffdec:characterId="327" height="17.95" transform="matrix(0.9065, 0.0, 0.0, 1.0, 0.0, 0.0)" width="21.4" xlink:href="#shape12"/>
    </g>
    <g id="shape12" transform="matrix(1.0, 0.0, 0.0, 1.0, 10.7, 8.95)">
      <path d="M-8.7 -8.75 Q0.45 -8.2 9.95 -8.95 L10.7 3.4 4.5 9.0 4.5 3.5 Q-3.5 5.05 -10.7 2.05 L-8.7 -8.75" fill="#ffcc00" fill-rule="evenodd" stroke="none"/>
    </g>
    <g id="shape13" transform="matrix(1.0, 0.0, 0.0, 1.0, -0.55, 2.45)">
      <path d="M3.25 -1.35 L2.85 0.9 Q11.4 1.8 20.3 0.9 L20.15 -1.55 Q11.55 -0.8 3.25 -1.35 M20.3 0.9 L20.45 3.65 20.85 10.8 15.2 16.4 15.2 10.9 Q7.95 12.45 1.45 9.45 L2.85 0.9 M15.2 10.9 L15.2 3.7 Q8.5 3.95 3.1 2.55 M15.2 3.7 L20.45 3.65" fill="none" stroke="#000000" stroke-linecap="round" stroke-linejoin="round" stroke-width="1.8"/>
    </g>
    <g id="shape14" transform="matrix(1.0, 0.0, 0.0, 1.0, 16.1, 7.65)">
      <path d="M-1.7 6.7 Q-8.4 3.2 -15.2 2.35 M6.85 3.15 Q10.45 -2.4 15.2 -6.75" fill="none" stroke="#000000" stroke-linecap="round" stroke-linejoin="round" stroke-width="1.8"/>
    </g>
    <g id="sprite17" transform="matrix(1.0, 0.0, 0.0, 1.0, 4.4, 0.9)">
      <use ffdec:characterId="809" height="14.05" id="mc100" transform="matrix(1.0, 0.0, 0.0, 1.0, -3.5, 0.0)" width="20.4" xlink:href="#sprite18"/>
      <use ffdec:characterId="810" height="15.85" transform="matrix(1.0, 0.0, 0.0, 1.0, -4.4, -0.9)" width="22.2" xlink:href="#shape16"/>
    </g>
    <g id="sprite18" transform="matrix(1.0, 0.0, 0.0, 1.0, 0.0, 0.0)">
      <use ffdec:characterId="28" height="14.45" transform="matrix(1.0251, 0.0, 0.0, 0.9723, 0.0, 0.0)" width="19.9" xlink:href="#shape15"/>
    </g>
    <g id="shape15" transform="matrix(1.0, 0.0, 0.0, 1.0, 0.0, 0.0)">
      <path d="M19.5 0.0 L19.9 14.05 17.55 14.05 16.7 0.2 19.5 0.0 M0.0 14.25 L1.3 0.45 10.95 0.45 11.5 14.45 0.0 14.25" fill="#ffffff" fill-rule="evenodd" stroke="none"/>
    </g>
    <g id="shape16" transform="matrix(1.0, 0.0, 0.0, 1.0, 4.4, 0.9)">
      <path d="M14.55 14.05 L16.9 14.05 14.55 14.3 14.55 14.05" fill="#ffffff" fill-rule="evenodd" stroke="none"/>
      <path d="M8.1 14.05 L-3.5 13.85 -2.2 0.05 7.55 0.05 8.1 13.55 M14.55 14.05 L16.9 14.05 16.5 0.0 13.7 0.2 14.55 14.05 Z" fill="none" stroke="#000000" stroke-linecap="round" stroke-linejoin="round" stroke-width="1.8"/>
    </g>
    <g id="shape17" transform="matrix(1.0, 0.0, 0.0, 1.0, 0.0, 0.0)">
      <path d="M22.2 0.0 L23.6 1.6 23.3 2.05 Q11.6 13.1 0.3 21.35 L0.0 21.3 0.7 18.35 22.2 0.0" fill="#000000" fill-rule="evenodd" stroke="none"/>
    </g>
    <g id="sprite19" transform="matrix(1.0, 0.0, 0.0, 1.0, 1.1, 1.1)">
      <use ffdec:characterId="188" height="10.05" id="mc000" transform="matrix(-0.9659, -0.2588, -0.2588, 0.9659, 13.9023, 2.2136)" width="12.85" xlink:href="#sprite20"/>
    </g>
    <g id="sprite20" transform="matrix(1.0, 0.0, 0.0, 1.0, 0.9, 0.9)">
      <use ffdec:characterId="187" height="8.25" id="mc100" transform="matrix(1.0, 0.0, 0.0, 1.0, 0.0, 0.0)" width="11.05" xlink:href="#sprite21"/>
      <use ffdec:characterId="36" height="10.05" transform="matrix(1.0, 0.0, 0.0, 1.0, -0.9, -0.9)" width="12.85" xlink:href="#shape19"/>
    </g>
    <g id="sprite21" transform="matrix(1.0, 0.0, 0.0, 1.0, 0.0, 0.0)">
      <use ffdec:characterId="34" height="8.25" transform="matrix(1.0, 0.0, 0.0, 1.0, 0.0, 0.0)" width="11.05" xlink:href="#shape18"/>
    </g>
    <g id="shape18" transform="matrix(1.0, 0.0, 0.0, 1.0, 0.0, 0.0)">
      <path d="M7.5 5.75 L3.6 8.25 3.2 4.7 0.0 4.7 3.35 0.0 10.1 1.1 11.05 8.25 7.5 5.75" fill="#ffffff" fill-rule="evenodd" stroke="none"/>
    </g>
    <g id="shape19" transform="matrix(1.0, 0.0, 0.0, 1.0, 0.9, 0.9)">
      <path d="M10.1 1.1 L11.05 8.25 7.5 5.75 3.6 8.25 3.2 4.7 0.0 4.7 3.35 0.0 10.1 1.1 Z" fill="none" stroke="#000000" stroke-linecap="round" stroke-linejoin="round" stroke-width="1.8"/>
    </g>
    <g id="sprite22" transform="matrix(1.0, 0.0, 0.0, 1.0, 0.9, 0.9)">
      <use ffdec:characterId="514" height="10.9" id="mc000" transform="matrix(-1.0, 0.0, 0.0, 1.0, 7.35, -0.9)" width="8.25" xlink:href="#sprite23"/>
    </g>
    <g id="sprite23" transform="matrix(1.0, 0.0, 0.0, 1.0, -3.8, 1.05)">
      <use ffdec:characterId="513" height="9.1" id="mc100" transform="matrix(1.0, 0.0, 0.0, 1.0, 4.7, -0.15)" width="6.45" xlink:href="#sprite24"/>
      <use ffdec:characterId="41" height="10.9" transform="matrix(1.0, 0.0, 0.0, 1.0, 3.8, -1.05)" width="8.25" xlink:href="#shape21"/>
    </g>
    <g id="sprite24" transform="matrix(1.0, 0.0, 0.0, 1.0, 0.0, 0.0)">
      <use ffdec:characterId="39" height="9.1" transform="matrix(1.0, 0.0, 0.0, 1.0, 0.0, 0.0)" width="6.45" xlink:href="#shape20"/>
    </g>
    <g id="shape20" transform="matrix(1.0, 0.0, 0.0, 1.0, 0.0, 0.0)">
      <path d="M3.05 0.0 L6.45 2.05 5.15 9.1 3.05 6.85 1.05 8.0 1.05 5.2 0.0 4.05 3.05 0.0" fill="#ffffff" fill-rule="evenodd" stroke="none"/>
    </g>
    <g id="shape21" transform="matrix(1.0, 0.0, 0.0, 1.0, -3.8, 1.05)">
      <path d="M4.7 3.9 L7.75 -0.15 11.15 1.9 9.85 8.95 7.75 6.7 5.75 7.85 5.75 5.05 4.7 3.9 Z" fill="none" stroke="#000000" stroke-linecap="round" stroke-linejoin="round" stroke-width="1.8"/>
    </g>
    <g id="sprite25" transform="matrix(1.0, 0.0, 0.0, 1.0, 0.75, 0.75)">
      <use ffdec:characterId="819" height="42.75" id="mc100" transform="matrix(1.0, 0.0, 0.0, 1.0, 0.0, 0.0)" width="49.8" xlink:href="#sprite26"/>
      <use ffdec:characterId="820" height="44.25" transform="matrix(1.0, 0.0, 0.0, 1.0, -0.75, -0.75)" width="51.3" xlink:href="#shape23"/>
    </g>
    <g id="sprite26" transform="matrix(1.0, 0.0, 0.0, 1.0, 0.0, 0.0)">
      <use ffdec:characterId="818" height="42.75" transform="matrix(1.0, 0.0, 0.0, 1.0, 0.0, 0.0)" width="49.8" xlink:href="#shape22"/>
    </g>
    <g id="shape22" transform="matrix(1.0, 0.0, 0.0, 1.0, 0.0, 0.0)">
      <path d="M21.95 42.75 Q5.55 38.3 1.65 25.2 L0.0 5.5 37.4 0.0 49.8 20.15 Q46.35 29.8 39.85 36.7 39.2 37.3 34.95 39.45 30.7 41.55 21.95 42.75" fill="#c4a44a" fill-rule="evenodd" stroke="none"/>
    </g>
    <g id="shape23" transform="matrix(1.0, 0.0, 0.0, 1.0, 0.75, 0.75)">
      <path d="M34.95 39.45 Q30.7 41.55 21.95 42.75 5.55 38.3 1.65 25.2 L0.0 5.5 37.4 0.0 49.8 20.15 Q46.35 29.8 39.85 36.7 39.2 37.3 34.95 39.45 Z" fill="none" stroke="#000000" stroke-linecap="round" stroke-linejoin="round" stroke-width="1.5"/>
    </g>
    <g id="shape24" transform="matrix(1.0, 0.0, 0.0, 1.0, 1.7, 3.0)">
      <path d="M-0.8 -3.0 Q-0.2 -3.15 0.45 -2.4 1.15 -1.6 1.45 -0.35 1.8 0.85 1.55 1.8 L1.1 2.75 0.7 3.0 -0.15 2.75 -0.5 2.35 Q-1.15 1.65 -1.5 0.4 L-1.65 -1.85 Q-1.45 -2.85 -0.8 -3.0" fill="#000000" fill-rule="evenodd" stroke="none"/>
    </g>
    <g id="morphshape0" transform="matrix(1.0, 0.0, 0.0, 1.0, 14.0, 87.6)">
      <path d="M-13.0 -63.5 Q-6.2 -62.9 0.6 -59.65" fill="none" stroke="#000000" stroke-linecap="round" stroke-linejoin="round" stroke-width="1.8"/>
    </g>
    <g id="morphshape1" transform="matrix(1.0, 0.0, 0.0, 1.0, -8.05, 100.75)">
      <path d="M9.05 -63.45 Q12.45 -69.1 17.05 -73.6" fill="none" stroke="#000000" stroke-linecap="round" stroke-linejoin="round" stroke-width="1.8"/>
    </g>
    <g id="shape25" transform="matrix(1.0, 0.0, 0.0, 1.0, 0.7, 0.75)">
      <path d="M2.9 7.05 Q-0.1 4.8 0.05 0.7 7.95 -2.15 12.9 6.6 L2.9 7.05 M35.75 5.35 Q34.7 8.5 31.7 10.1 L31.45 10.25 Q25.55 9.9 22.2 7.45 29.0 3.45 35.75 5.35" fill="#ffffff" fill-rule="evenodd" stroke="none"/>
      <path d="M30.05 4.8 L30.05 5.15 Q30.05 6.45 29.15 7.35 28.25 8.25 26.95 8.25 25.65 8.25 24.75 7.35 L24.15 6.45 Q27.1 5.05 30.05 4.8 M7.1 1.15 Q7.1 2.25 6.3 3.05 5.5 3.85 4.4 3.85 3.3 3.85 2.5 3.05 1.7 2.25 1.7 1.15 L1.9 0.2 Q4.65 -0.35 7.05 0.7 L7.1 1.15" fill="#000000" fill-rule="evenodd" stroke="none"/>
      <path d="M35.75 5.35 Q34.7 8.5 31.7 10.1 L31.45 10.25 Q25.55 9.9 22.2 7.45 29.0 3.45 35.75 5.35 M2.9 7.05 Q-0.1 4.8 0.05 0.7 7.95 -2.15 12.9 6.6 L2.9 7.05 Z" fill="none" stroke="#000000" stroke-linecap="round" stroke-linejoin="round" stroke-width="1.5"/>
    </g>
    <g id="sprite27" transform="matrix(1.0, 0.0, 0.0, 1.0, 0.75, 0.75)">
      <use ffdec:characterId="828" height="48.6" id="mc100" transform="matrix(1.0, 0.0, 0.0, 1.0, 0.0, 0.0)" width="80.55" xlink:href="#sprite28"/>
      <use ffdec:characterId="829" height="50.1" transform="matrix(1.0, 0.0, 0.0, 1.0, -0.75, -0.75)" width="82.05" xlink:href="#shape27"/>
    </g>
    <g id="sprite28" transform="matrix(1.0, 0.0, 0.0, 1.0, 0.0, 0.0)">
      <use ffdec:characterId="827" height="48.6" transform="matrix(1.0, 0.0, 0.0, 1.0, 0.0, 0.0)" width="80.55" xlink:href="#shape26"/>
    </g>
    <g id="shape26" transform="matrix(1.0, 0.0, 0.0, 1.0, 0.0, 0.0)">
      <path d="M55.15 36.15 L27.3 33.9 Q15.95 34.9 6.7 40.45 L6.7 40.4 Q2.75 43.4 0.0 48.6 3.7 25.5 19.45 10.75 L28.55 7.15 35.15 0.0 35.7 0.15 35.4 5.8 Q42.4 1.95 50.3 2.2 47.1 4.8 44.8 8.3 57.9 9.85 67.45 16.85 70.75 30.1 80.55 37.6 74.65 40.85 69.1 40.05 61.15 39.65 55.15 36.15" fill="#ff6600" fill-rule="evenodd" stroke="none"/>
    </g>
    <g id="shape27" transform="matrix(1.0, 0.0, 0.0, 1.0, 0.75, 0.75)">
      <path d="M69.1 40.05 Q74.65 40.85 80.55 37.6 70.75 30.1 67.45 16.85 57.9 9.85 44.8 8.3 47.1 4.8 50.3 2.2 42.4 1.95 35.4 5.8 L35.7 0.15 M35.15 0.0 L28.55 7.15 19.45 10.75 Q3.7 25.5 0.0 48.6 2.75 43.4 6.7 40.45" fill="none" stroke="#000000" stroke-linecap="round" stroke-linejoin="round" stroke-width="1.5"/>
      <path d="M69.1 40.05 Q62.85 39.85 61.0 38.25 M6.7 40.45 Q11.6 37.95 17.15 37.25" fill="none" stroke="#000000" stroke-linecap="round" stroke-linejoin="round" stroke-width="1.8"/>
    </g>
    <g id="sprite29" transform="matrix(1.0, 0.0, 0.0, 1.0, -5.9, -21.85)">
      <use ffdec:characterId="832" height="45.35" id="mc100" transform="matrix(1.0, 0.0, 0.0, 1.0, 6.65, 21.85)" width="62.85" xlink:href="#sprite30"/>
      <use ffdec:characterId="833" height="34.8" transform="matrix(1.0, 0.0, 0.0, 1.0, 5.9, 33.15)" width="64.05" xlink:href="#shape29"/>
    </g>
    <g id="sprite30" transform="matrix(1.0, 0.0, 0.0, 1.0, -6.65, -21.85)">
      <use ffdec:characterId="831" height="45.35" transform="matrix(1.0, 0.0, 0.0, 1.0, 6.65, 21.85)" width="62.85" xlink:href="#shape28"/>
    </g>
    <g id="shape28" transform="matrix(1.0, 0.0, 0.0, 1.0, -6.65, -21.85)">
      <path d="M50.55 23.4 Q68.05 27.4 69.5 40.1 L69.2 64.35 Q56.35 57.6 46.8 42.4 L50.55 54.35 37.4 41.7 40.2 52.4 30.35 39.25 32.2 48.6 19.6 40.1 Q19.65 55.4 26.05 67.2 18.5 64.35 11.3 55.35 L8.6 62.65 Q6.3 52.3 6.7 40.45 L6.7 40.4 Q6.2 25.3 19.1 23.4 35.1 20.35 50.55 23.4" fill="#ff6600" fill-rule="evenodd" stroke="none"/>
    </g>
    <g id="shape29" transform="matrix(1.0, 0.0, 0.0, 1.0, -5.9, -33.15)">
      <path d="M46.25 41.55 L46.8 42.4 Q56.35 57.6 69.2 64.35 L69.1 40.05 M19.25 39.9 L19.6 40.1 32.2 48.6 30.35 39.25 29.75 38.45 M36.6 40.9 L37.4 41.7 37.1 40.5 M19.6 40.1 Q19.65 55.4 26.05 67.2 18.5 64.35 11.3 55.35 L8.6 62.65 Q6.3 52.3 6.7 40.4 L6.7 40.1 Q6.8 37.05 7.05 33.9 M46.8 42.4 L50.55 54.35 37.4 41.7 40.2 52.4 30.35 39.25" fill="none" stroke="#000000" stroke-linecap="round" stroke-linejoin="round" stroke-width="1.5"/>
    </g>
    <g id="sprite31" transform="matrix(1.0, 0.0, 0.0, 1.0, 0.9, 0.9)">
      <use ffdec:characterId="537" height="8.1" id="mc100" transform="matrix(1.0, 0.0, 0.0, 1.0, 0.0, 0.0)" width="8.1" xlink:href="#sprite32"/>
      <use ffdec:characterId="538" height="9.9" transform="matrix(1.0, 0.0, 0.0, 1.0, -0.9, -0.9)" width="9.9" xlink:href="#shape31"/>
    </g>
    <g id="sprite32" transform="matrix(1.0, 0.0, 0.0, 1.0, 0.0, 0.0)">
      <use ffdec:characterId="536" height="8.1" transform="matrix(1.0, 0.0, 0.0, 1.0, 0.0, 0.0)" width="8.1" xlink:href="#shape30"/>
    </g>
    <g id="shape30" transform="matrix(1.0, 0.0, 0.0, 1.0, 0.0, 0.0)">
      <path d="M1.15 6.9 Q0.0 5.75 0.0 4.05 0.0 2.35 1.15 1.15 2.35 0.0 4.05 0.0 5.75 0.0 6.9 1.15 8.1 2.35 8.1 4.05 8.1 5.75 6.9 6.9 5.75 8.1 4.05 8.1 2.35 8.1 1.15 6.9" fill="#c4a44a" fill-rule="evenodd" stroke="none"/>
    </g>
    <g id="shape31" transform="matrix(1.0, 0.0, 0.0, 1.0, 0.9, 0.9)">
      <path d="M1.15 6.9 Q0.0 5.75 0.0 4.05 0.0 2.35 1.15 1.15 2.35 0.0 4.05 0.0 5.75 0.0 6.9 1.15 8.1 2.35 8.1 4.05 8.1 5.75 6.9 6.9 5.75 8.1 4.05 8.1 2.35 8.1 1.15 6.9 Z" fill="none" stroke="#000000" stroke-linecap="round" stroke-linejoin="round" stroke-width="1.8"/>
    </g>
    <g id="sprite33" transform="matrix(1.0, 0.0, 0.0, 1.0, 0.5, 0.9)">
      <use ffdec:characterId="112" height="11.7" transform="matrix(1.0, 0.0, 0.0, 1.0, 5.45, 3.1)" width="39.1" xlink:href="#shape32"/>
      <use ffdec:characterId="138" height="18.55" id="mc101" transform="matrix(1.0, 0.0, 0.0, 1.0, 1.8, 0.0)" width="46.4" xlink:href="#sprite34"/>
      <use ffdec:characterId="139" height="17.4" id="mc102" transform="matrix(1.0, 0.0, 0.0, 1.0, 0.0, 3.35)" width="50.0" xlink:href="#sprite35"/>
      <use ffdec:characterId="140" height="4.6" id="mc103" transform="matrix(1.0, 0.0, 0.0, 1.0, 22.75, 6.5)" width="4.6" xlink:href="#sprite36"/>
      <use ffdec:characterId="141" height="22.15" transform="matrix(1.0, 0.0, 0.0, 1.0, -0.5, -0.9)" width="51.0" xlink:href="#shape36"/>
    </g>
    <g id="shape32" transform="matrix(1.0, 0.0, 0.0, 1.0, -5.45, -3.1)">
      <path d="M43.25 14.4 Q38.1 13.75 33.25 11.5 32.1 7.6 34.1 3.65 39.25 2.4 44.3 4.1 45.15 8.6 43.25 14.4 M15.9 4.0 Q17.9 7.95 16.75 11.9 11.95 14.1 6.75 14.8 4.85 8.95 5.7 4.5 10.8 2.75 15.9 4.0" fill="#ccffff" fill-rule="evenodd" stroke="none"/>
    </g>
    <g id="sprite34" transform="matrix(1.0, 0.0, 0.0, 1.0, 0.0, 0.0)">
      <use ffdec:characterId="113" height="18.55" transform="matrix(1.0, 0.0, 0.0, 1.0, 0.0, 0.0)" width="46.4" xlink:href="#shape33"/>
    </g>
    <g id="shape33" transform="matrix(1.0, 0.0, 0.0, 1.0, 0.0, 0.0)">
      <path d="M41.45 14.4 Q43.35 8.6 42.5 4.1 37.45 2.4 32.3 3.65 30.3 7.6 31.45 11.5 36.3 13.75 41.45 14.4 M46.4 4.7 Q46.2 9.4 45.15 14.25 44.15 19.05 39.95 18.0 L33.05 15.35 Q26.2 13.2 27.5 6.2 L27.65 5.5 Q27.8 4.3 28.3 3.4 29.65 1.05 33.35 0.45 38.0 -0.45 43.0 0.4 45.85 1.3 46.3 4.0 L46.4 4.7 M14.1 4.0 Q9.0 2.75 3.9 4.5 3.05 8.95 4.95 14.8 10.15 14.1 14.95 11.9 16.1 7.95 14.1 4.0 M13.05 0.8 Q16.75 1.45 18.1 3.75 18.6 4.65 18.75 5.85 L18.9 6.6 Q20.2 13.55 13.35 15.7 L6.45 18.35 Q2.25 19.4 1.25 14.6 0.2 9.8 0.0 5.05 L0.1 4.4 Q0.6 1.65 3.4 0.75 8.4 -0.1 13.05 0.8" fill="#999999" fill-rule="evenodd" stroke="none"/>
    </g>
    <g id="sprite35" transform="matrix(1.0, 0.0, 0.0, 1.0, 0.0, 0.0)">
      <use ffdec:characterId="115" height="17.4" transform="matrix(1.0, 0.0, 0.0, 1.0, 0.0, 0.0)" width="50.0" xlink:href="#shape34"/>
    </g>
    <g id="shape34" transform="matrix(1.0, 0.0, 0.0, 1.0, 0.0, 0.0)">
      <path d="M49.35 10.4 Q48.65 13.65 46.9 16.05 44.1 18.25 36.7 15.45 29.3 12.7 28.1 9.95 27.65 8.85 27.35 7.75 27.0 6.4 27.0 5.0 26.95 4.1 27.05 3.15 27.1 2.35 27.3 1.5 28.4 -0.3 30.1 0.05 29.6 0.95 29.45 2.15 L29.3 2.85 Q28.0 9.85 34.85 12.0 L41.75 14.65 Q45.95 15.7 46.95 10.9 48.0 6.05 48.2 1.35 L48.1 0.65 Q49.9 0.25 50.0 3.75 50.15 7.3 49.35 10.4 M22.95 3.15 L23.05 5.0 22.75 7.75 21.9 10.3 Q20.7 13.05 13.3 15.85 5.9 18.6 3.1 16.4 1.4 14.0 0.65 10.75 -0.15 7.65 0.0 4.15 0.1 0.6 1.9 1.05 L1.8 1.7 Q2.0 6.45 3.05 11.25 4.05 16.05 8.25 15.0 L15.15 12.35 Q22.0 10.2 20.7 3.25 L20.55 2.5 Q20.4 1.3 19.9 0.4 21.6 0.1 22.7 1.85 L22.95 3.15" fill="#333333" fill-rule="evenodd" stroke="none"/>
    </g>
    <g id="sprite36" transform="matrix(1.0, 0.0, 0.0, 1.0, 0.0, 0.0)">
      <use ffdec:characterId="117" height="4.6" transform="matrix(1.0, 0.0, 0.0, 1.0, 0.0, 0.0)" width="4.6" xlink:href="#shape35"/>
    </g>
    <g id="shape35" transform="matrix(1.0, 0.0, 0.0, 1.0, 0.0, 0.0)">
      <path d="M0.3 1.85 L0.2 0.0 4.3 0.0 Q4.2 0.95 4.25 1.85 4.25 3.25 4.6 4.6 L0.0 4.6 0.3 1.85" fill="#999999" fill-rule="evenodd" stroke="none"/>
    </g>
    <g id="shape36" transform="matrix(1.0, 0.0, 0.0, 1.0, 0.5, 0.9)">
      <path d="M43.25 14.4 Q38.1 13.75 33.25 11.5 32.1 7.6 34.1 3.65 39.25 2.4 44.3 4.1 45.15 8.6 43.25 14.4 M48.1 4.0 L48.2 4.7 Q48.0 9.4 46.95 14.25 45.95 19.05 41.75 18.0 L34.85 15.35 Q28.0 13.2 29.3 6.2 L29.45 5.5 Q29.6 4.3 30.1 3.4 31.45 1.05 35.15 0.45 39.8 -0.45 44.8 0.4 47.65 1.3 48.1 4.0 M19.9 3.75 Q20.4 4.65 20.55 5.85 L20.7 6.6 Q22.0 13.55 15.15 15.7 L8.25 18.35 Q4.05 19.4 3.05 14.6 2.0 9.8 1.8 5.05 L1.9 4.4 Q2.4 1.65 5.2 0.75 10.2 -0.1 14.85 0.8 18.55 1.45 19.9 3.75 M15.9 4.0 Q10.8 2.75 5.7 4.5 4.85 8.95 6.75 14.8 11.95 14.1 16.75 11.9 17.9 7.95 15.9 4.0" fill="none" stroke="#000000" stroke-linecap="round" stroke-linejoin="round" stroke-width="1.8"/>
      <path d="M30.1 3.4 Q28.4 3.05 27.3 4.85 27.1 5.7 27.05 6.5 26.95 7.45 27.0 8.35 27.0 9.75 27.35 11.1 27.65 12.2 28.1 13.3 29.3 16.05 36.7 18.8 44.1 21.6 46.9 19.4 48.65 17.0 49.35 13.75 50.15 10.65 50.0 7.1 49.9 3.6 48.1 4.0 M1.9 4.4 Q0.1 3.95 0.0 7.5 -0.15 11.0 0.65 14.1 1.4 17.35 3.1 19.75 5.9 21.95 13.3 19.2 20.7 16.4 21.9 13.65 L22.75 11.1 23.05 8.35 22.95 6.5 22.7 5.2 Q21.6 3.45 19.9 3.75 M23.05 8.35 L27.0 8.35 M22.95 6.5 L27.05 6.5 M27.35 11.1 L22.75 11.1" fill="none" stroke="#000000" stroke-linecap="round" stroke-linejoin="round" stroke-width="1.0"/>
    </g>
  </defs>
</svg>
