<?xml version="1.0" encoding="UTF-8" standalone="no"?>
<svg xmlns:ffdec="https://www.free-decompiler.com/flash" xmlns:xlink="http://www.w3.org/1999/xlink" ffdec:objectType="frame" height="161.45px" width="127.25px" xmlns="http://www.w3.org/2000/svg">
  <g transform="matrix(1.0, 0.0, 0.0, 1.0, 57.85, 150.25)">
    <use ffdec:characterId="172" height="79.3" id="mc33900" transform="matrix(-0.9344, -0.3545, -0.3545, 0.9344, 48.66, -75.472)" width="74.0" xlink:href="#sprite0"/>
    <use ffdec:characterId="178" height="18.55" id="mc32900" transform="matrix(0.8848, -0.4476, 0.4476, 0.8848, -19.4848, -25.1728)" width="15.75" xlink:href="#sprite6"/>
    <use ffdec:characterId="173" height="18.85" id="mc25900" transform="matrix(-0.9946, 0.101, 0.101, 0.9946, 2.1134, -19.3483)" width="10.9" xlink:href="#sprite9"/>
    <use ffdec:characterId="173" height="18.85" id="mc24900" transform="matrix(-0.9982, 0.0139, 0.0139, 0.9982, 10.309, -18.2517)" width="10.9" xlink:href="#sprite9"/>
    <use ffdec:characterId="405" height="23.3" id="mc23900" transform="matrix(-0.995, 0.0923, 0.0923, 0.995, 12.157, -42.7434)" width="18.25" xlink:href="#sprite10"/>
    <use ffdec:characterId="509" height="19.7" id="mc21900" transform="matrix(-0.997, -0.0137, -0.0137, 0.997, 19.0597, -22.4849)" width="25.95" xlink:href="#sprite12"/>
    <use ffdec:characterId="512" height="16.25" id="mc19900" transform="matrix(-0.9963, 0.0704, 0.0704, 0.9963, 15.8724, -37.2211)" width="21.7" xlink:href="#sprite14"/>
    <use ffdec:characterId="33" height="21.35" transform="matrix(-0.995, 0.0923, 0.0923, 0.995, 18.45, -38.55)" width="23.6" xlink:href="#shape14"/>
    <use ffdec:characterId="178" height="18.55" id="mc17900" transform="matrix(-0.9253, -0.353, -0.353, 0.9253, 28.6694, -29.7715)" width="15.75" xlink:href="#sprite6"/>
    <use ffdec:characterId="412" height="13.0" id="mc16900" transform="matrix(-0.9873, 0.1533, 0.1533, 0.9873, 16.3674, -38.9547)" width="15.0" xlink:href="#sprite17"/>
    <use ffdec:characterId="515" height="10.9" id="mc15900" transform="matrix(-0.9873, 0.1533, 0.1533, 0.9873, 1.3506, -35.9265)" width="8.25" xlink:href="#sprite20"/>
    <use ffdec:characterId="776" height="45.9" id="mc14900" transform="matrix(-0.9961, 0.0698, 0.0698, 0.9961, 29.5061, -79.5685)" width="40.9" xlink:href="#sprite23"/>
    <use ffdec:characterId="790" height="8.05" transform="matrix(1.0, 0.0, 0.0, 1.0, -1.15, -65.8)" width="15.4" xlink:href="#morphshape0"/>
    <use ffdec:characterId="791" height="9.65" transform="matrix(1.0, 0.0, 0.0, 1.0, 18.25, -67.75)" width="10.65" xlink:href="#morphshape1"/>
    <use ffdec:characterId="779" height="26.8" transform="matrix(-0.9961, 0.0698, 0.0698, 0.9961, 27.9546, -70.7104)" width="26.4" xlink:href="#shape21"/>
    <use ffdec:characterId="735" height="32.4" id="mc5900" transform="matrix(0.4964, 0.8467, 0.8467, -0.4964, -12.8268, -21.9365)" width="31.2" xlink:href="#sprite25"/>
    <use ffdec:characterId="781" height="68.35" id="mc3900" transform="matrix(0.9261, -0.3701, 0.3701, 0.9261, -50.2166, -83.7504)" width="69.15" xlink:href="#sprite28"/>
    <use ffdec:characterId="539" height="9.9" id="mc2900" transform="matrix(0.5097, 0.8547, -0.8547, 0.5097, -6.0395, -21.478)" width="9.9" xlink:href="#sprite30"/>
    <use ffdec:characterId="211" height="20.15" id="hide_hat8" transform="matrix(0.9637, -0.2581, 0.2581, 0.9637, -12.5663, -81.2292)" width="38.05" xlink:href="#sprite32"/>
    <use ffdec:characterId="715" height="0.0" id="hat" transform="matrix(1.0, 0.0, 0.0, 1.0, 0.0, 0.0)" width="0.0" xlink:href="#sprite36"/>
  </g>
  <defs>
    <g id="sprite0" transform="matrix(1.0, 0.0, 0.0, 1.0, 0.9, 0.9)">
      <use ffdec:characterId="169" height="66.3" id="mc200" transform="matrix(1.0, 0.0, 0.0, 1.0, 6.8, 9.25)" width="63.0" xlink:href="#sprite1"/>
      <use ffdec:characterId="171" height="53.85" id="mc100" transform="matrix(1.0, 0.0, 0.0, 1.0, 16.75, 18.6)" width="50.35" xlink:href="#sprite4"/>
      <use ffdec:characterId="9" height="79.3" transform="matrix(1.0, 0.0, 0.0, 1.0, -0.9, -0.9)" width="74.0" xlink:href="#shape2"/>
    </g>
    <g id="sprite1" transform="matrix(1.0, 0.0, 0.0, 1.0, 0.0, 0.0)">
      <use ffdec:characterId="168" height="66.3" id="mc000" transform="matrix(1.0, 0.0, 0.0, 1.0, 0.0, 0.0)" width="63.0" xlink:href="#sprite2"/>
    </g>
    <g id="sprite2" transform="matrix(1.0, 0.0, 0.0, 1.0, 0.0, 0.0)">
      <use ffdec:characterId="167" height="66.3" id="mc000" transform="matrix(1.0, 0.0, 0.0, 1.0, 0.0, 0.0)" width="63.0" xlink:href="#sprite3"/>
    </g>
    <g id="sprite3" transform="matrix(1.0, 0.0, 0.0, 1.0, 0.0, 0.0)">
      <use ffdec:characterId="1" height="66.3" transform="matrix(1.0, 0.0, 0.0, 1.0, 0.0, 0.0)" width="63.0" xlink:href="#shape0"/>
    </g>
    <g id="shape0" transform="matrix(1.0, 0.0, 0.0, 1.0, 0.0, 0.0)">
      <path d="M60.3 9.35 L48.15 9.55 51.45 0.8 63.0 0.0 60.3 9.35 M11.2 50.8 L9.95 63.2 0.0 66.3 2.35 55.3 11.2 50.8" fill="#00cc99" fill-rule="evenodd" stroke="none"/>
    </g>
    <g id="sprite4" transform="matrix(1.0, 0.0, 0.0, 1.0, 0.0, 0.0)">
      <use ffdec:characterId="170" height="53.85" id="mc000" transform="matrix(1.0, 0.0, 0.0, 1.0, 0.0, 0.0)" width="50.35" xlink:href="#sprite5"/>
    </g>
    <g id="sprite5" transform="matrix(1.0, 0.0, 0.0, 1.0, 0.0, 0.0)">
      <use ffdec:characterId="6" height="53.85" transform="matrix(1.0, 0.0, 0.0, 1.0, 0.0, 0.0)" width="50.35" xlink:href="#shape1"/>
    </g>
    <g id="shape1" transform="matrix(1.0, 0.0, 0.0, 1.0, 0.0, 0.0)">
      <path d="M38.2 0.2 L50.35 0.0 Q44.35 19.8 36.1 40.2 18.3 47.9 0.0 53.85 L1.25 41.45 Q12.7 35.7 24.15 29.9 32.25 15.3 38.2 0.2" fill="#006666" fill-rule="evenodd" stroke="none"/>
    </g>
    <g id="shape2" transform="matrix(1.0, 0.0, 0.0, 1.0, 0.9, 0.9)">
      <path d="M58.25 10.05 L59.4 6.6 Q63.9 -0.95 72.2 0.15 L69.8 9.25 58.25 10.05 M9.15 64.55 L6.8 75.55 0.0 77.5 5.15 66.55 9.15 64.55" fill="#fafff5" fill-rule="evenodd" stroke="none"/>
      <path d="M54.95 18.8 Q49.0 33.9 40.9 48.5 L18.0 60.05 16.75 72.45 Q35.05 66.5 52.85 58.8 61.1 38.4 67.1 18.6 L54.95 18.8 58.25 10.05 59.4 6.6 Q63.9 -0.95 72.2 0.15 L69.8 9.25 67.1 18.6 M58.25 10.05 L69.8 9.25 M9.15 64.55 L6.8 75.55 16.75 72.45 M6.8 75.55 L0.0 77.5 5.15 66.55 9.15 64.55 18.0 60.05" fill="none" stroke="#000000" stroke-linecap="round" stroke-linejoin="round" stroke-width="1.8"/>
    </g>
    <g id="sprite6" transform="matrix(1.0, 0.0, 0.0, 1.0, 7.85, 8.8)">
      <use ffdec:characterId="174" height="6.5" id="mc400" transform="matrix(1.0, 0.0, 0.0, 1.0, -5.35, 2.35)" width="7.55" xlink:href="#sprite7"/>
      <use ffdec:characterId="175" height="16.1" transform="matrix(1.0, 0.0, 0.0, 1.0, -6.25, -6.35)" width="14.15" xlink:href="#shape4"/>
      <use ffdec:characterId="176" height="15.5" id="mc200" transform="matrix(1.0, 0.0, 0.0, 1.0, -6.95, -7.9)" width="13.95" xlink:href="#sprite8"/>
      <use ffdec:characterId="177" height="17.3" transform="matrix(1.0, 0.0, 0.0, 1.0, -7.85, -8.8)" width="15.75" xlink:href="#shape6"/>
    </g>
    <g id="sprite7" transform="matrix(1.0, 0.0, 0.0, 1.0, 0.0, 0.0)">
      <use ffdec:characterId="12" height="6.5" transform="matrix(1.0, 0.0, 0.0, 1.0, 0.0, 0.0)" width="7.55" xlink:href="#shape3"/>
    </g>
    <g id="shape3" transform="matrix(1.0, 0.0, 0.0, 1.0, 0.0, 0.0)">
      <path d="M6.45 2.8 L7.55 2.7 7.1 3.95 Q6.5 5.65 5.2 6.2 3.75 6.8 2.3 6.2 0.8 5.55 0.2 4.15 -0.3 2.8 0.5 1.2 L1.1 0.0 Q2.7 2.0 4.75 2.55 L6.3 2.9 6.45 2.8" fill="#b59155" fill-rule="evenodd" stroke="none"/>
    </g>
    <g id="shape4" transform="matrix(1.0, 0.0, 0.0, 1.0, 6.25, 6.35)">
      <path d="M6.8 -4.7 L6.7 -4.4 7.0 -5.45 6.8 -4.7" fill="#ffffff" fill-rule="evenodd" stroke="none"/>
      <path d="M6.8 -4.7 L7.0 -5.45 6.7 -4.4 6.8 -4.7 3.75 2.45 2.2 5.05 1.75 6.3 Q1.15 8.0 -0.15 8.55 -1.6 9.15 -3.05 8.55 -4.55 7.9 -5.15 6.5 -5.65 5.15 -4.85 3.55 L-4.25 2.35 -4.1 1.95 M2.2 5.05 L1.1 5.15 M-2.55 -1.8 L-2.7 -1.55 M-0.6 4.9 Q-2.65 4.35 -4.25 2.35" fill="none" stroke="#000000" stroke-linecap="round" stroke-linejoin="round" stroke-width="1.8"/>
    </g>
    <g id="sprite8" transform="matrix(1.0, 0.0, 0.0, 1.0, 0.0, 0.0)">
      <use ffdec:characterId="14" height="15.5" transform="matrix(1.0, 0.0, 0.0, 1.0, 0.0, 0.0)" width="13.95" xlink:href="#shape5"/>
    </g>
    <g id="shape5" transform="matrix(1.0, 0.0, 0.0, 1.0, 0.0, 0.0)">
      <path d="M10.4 10.55 L10.7 10.75 8.8 15.5 8.75 15.5 8.5 15.4 7.2 13.05 4.05 14.4 3.95 14.15 3.6 10.9 3.35 10.55 0.0 10.55 4.3 6.05 4.4 6.15 5.05 5.25 Q10.05 0.45 11.25 0.15 12.45 -0.25 13.25 0.4 14.1 1.05 13.95 2.25 L13.95 2.45 13.65 3.5 10.4 10.55" fill="#ffffff" fill-rule="evenodd" stroke="none"/>
    </g>
    <g id="shape6" transform="matrix(1.0, 0.0, 0.0, 1.0, 7.85, 8.8)">
      <path d="M-2.65 -1.85 L-6.95 2.65 -3.4 2.65 -3.0 6.25 M1.85 7.6 L3.75 2.85 M-2.9 6.5 L0.25 5.15 1.55 7.5 M3.35 2.6 L-2.45 -1.7" fill="none" stroke="#000000" stroke-linecap="round" stroke-linejoin="round" stroke-width="1.8"/>
      <path d="M7.0 -5.65 Q7.15 -6.85 6.3 -7.5 5.5 -8.15 4.3 -7.75 3.1 -7.45 -1.9 -2.65 M6.7 -4.4 L3.5 2.9" fill="none" stroke="#000000" stroke-linecap="round" stroke-linejoin="round" stroke-width="1.8"/>
    </g>
    <g id="sprite9" transform="matrix(1.0, 0.0, 0.0, 1.0, 4.95, 9.5)">
      <use ffdec:characterId="18" height="18.85" transform="matrix(1.0, 0.0, 0.0, 1.0, -4.95, -9.5)" width="10.9" xlink:href="#shape7"/>
    </g>
    <g id="shape7" transform="matrix(1.0, 0.0, 0.0, 1.0, 4.95, 9.5)">
      <path d="M5.05 5.55 L5.05 5.7 Q5.15 6.65 3.9 7.45 2.7 8.25 0.95 8.4 -0.8 8.55 -2.15 7.95 -3.45 7.45 -3.55 6.5 L-3.55 6.35 -3.5 6.35 4.7 5.5 5.05 5.55" fill="#000000" fill-rule="evenodd" stroke="none"/>
      <path d="M-3.55 6.1 L-3.65 3.85 -4.05 -6.3 Q-4.1 -7.15 -3.15 -7.75 -2.1 -8.4 -0.55 -8.55 L2.1 -8.25 Q3.15 -7.75 3.3 -7.0 L3.35 -6.85 3.35 -6.65 4.7 3.05 5.05 5.45 4.7 5.5 -3.5 6.35 -3.55 6.1 M4.7 3.05 L-3.65 3.85 4.7 3.05" fill="#ffffff" fill-rule="evenodd" stroke="none"/>
      <path d="M-3.55 6.1 L-3.65 3.85 -4.05 -6.3 Q-4.1 -7.15 -3.15 -7.75 -2.1 -8.4 -0.55 -8.55 L2.1 -8.25 Q3.15 -7.75 3.3 -7.0 L3.35 -6.85 3.35 -6.65 4.7 3.05 5.05 5.45 5.05 5.55 5.05 5.7 Q5.15 6.65 3.9 7.45 2.7 8.25 0.95 8.4 -0.8 8.55 -2.15 7.95 -3.45 7.45 -3.55 6.5 L-3.55 6.35 -3.55 6.1 M-3.5 6.35 L4.7 5.5 M-3.55 6.35 L-3.5 6.35 M-3.65 3.85 L4.7 3.05" fill="none" stroke="#000000" stroke-linecap="round" stroke-linejoin="round" stroke-width="1.8"/>
    </g>
    <g id="sprite10" transform="matrix(1.0, 0.0, 0.0, 1.0, 0.9, 8.0)">
      <use ffdec:characterId="404" height="21.5" id="mc100" transform="matrix(1.0, 0.0, 0.0, 1.0, 0.0, -7.1)" width="16.45" xlink:href="#sprite11"/>
      <use ffdec:characterId="22" height="23.3" transform="matrix(1.0, 0.0, 0.0, 1.0, -0.9, -8.0)" width="18.25" xlink:href="#shape9"/>
    </g>
    <g id="sprite11" transform="matrix(1.0, 0.0, 0.0, 1.0, 0.0, 0.0)">
      <use ffdec:characterId="20" height="21.5" transform="matrix(1.0, 0.0, 0.0, 1.0, 0.0, 0.0)" width="16.45" xlink:href="#shape8"/>
    </g>
    <g id="shape8" transform="matrix(1.0, 0.0, 0.0, 1.0, 0.0, 0.0)">
      <path d="M16.4 20.85 L11.3 21.3 6.6 21.5 0.0 21.25 0.75 5.1 12.45 0.0 Q16.8 9.45 16.4 20.85" fill="#c4a44a" fill-rule="evenodd" stroke="none"/>
    </g>
    <g id="shape9" transform="matrix(1.0, 0.0, 0.0, 1.0, 0.9, 8.0)">
      <path d="M12.45 -7.1 Q16.8 2.35 16.4 13.75 L11.3 14.2 6.6 14.4 0.0 14.15 0.75 -2.0 12.45 -7.1 Z" fill="none" stroke="#000000" stroke-linecap="round" stroke-linejoin="round" stroke-width="1.8"/>
    </g>
    <g id="sprite12" transform="matrix(1.0, 0.0, 0.0, 1.0, 0.9, 0.9)">
      <use ffdec:characterId="508" height="17.9" id="mc100" transform="matrix(1.0, 0.0, 0.0, 1.0, 0.0, 0.0)" width="24.15" xlink:href="#sprite13"/>
      <use ffdec:characterId="26" height="19.7" transform="matrix(1.0, 0.0, 0.0, 1.0, -0.9, -0.9)" width="25.95" xlink:href="#shape11"/>
    </g>
    <g id="sprite13" transform="matrix(1.0, 0.0, 0.0, 1.0, 0.0, 0.0)">
      <use ffdec:characterId="24" height="17.9" transform="matrix(1.0, 0.0, 0.0, 1.0, 0.0, 0.0)" width="24.15" xlink:href="#shape10"/>
    </g>
    <g id="shape10" transform="matrix(1.0, 0.0, 0.0, 1.0, 0.0, 0.0)">
      <path d="M2.2 0.0 Q12.55 0.65 23.25 0.0 L23.65 5.2 23.65 5.25 24.15 12.4 17.1 17.9 17.1 12.4 Q8.1 13.85 0.0 10.8 L2.2 0.0" fill="#ffcc00" fill-rule="evenodd" stroke="none"/>
    </g>
    <g id="shape11" transform="matrix(1.0, 0.0, 0.0, 1.0, 0.9, 0.9)">
      <path d="M23.45 2.45 L23.65 5.2 23.65 5.25 24.15 12.4 17.1 17.9 17.1 12.4 Q8.1 13.85 0.0 10.8 L1.75 2.25 2.2 0.0 Q12.55 0.65 23.25 0.0 L23.45 2.45 Q12.4 3.25 1.75 2.25 M2.05 3.9 Q8.75 5.35 17.1 5.2 L23.65 5.2 M17.1 5.2 L17.1 12.4" fill="none" stroke="#000000" stroke-linecap="round" stroke-linejoin="round" stroke-width="1.8"/>
    </g>
    <g id="sprite14" transform="matrix(1.0, 0.0, 0.0, 1.0, 3.9, 0.9)">
      <use ffdec:characterId="511" height="16.25" id="mc000" transform="matrix(1.0, 0.0, 0.0, 1.0, -3.9, -0.9)" width="21.7" xlink:href="#sprite15"/>
    </g>
    <g id="sprite15" transform="matrix(1.0, 0.0, 0.0, 1.0, 3.9, 0.95)">
      <use ffdec:characterId="510" height="14.45" id="mc100" transform="matrix(1.0, 0.0, 0.0, 1.0, -3.0, -0.05)" width="19.9" xlink:href="#sprite16"/>
      <use ffdec:characterId="30" height="16.25" transform="matrix(1.0, 0.0, 0.0, 1.0, -3.9, -0.95)" width="21.7" xlink:href="#shape13"/>
    </g>
    <g id="sprite16" transform="matrix(1.0, 0.0, 0.0, 1.0, 0.0, 0.0)">
      <use ffdec:characterId="28" height="14.45" transform="matrix(1.0, 0.0, 0.0, 1.0, 0.0, 0.0)" width="19.9" xlink:href="#shape12"/>
    </g>
    <g id="shape12" transform="matrix(1.0, 0.0, 0.0, 1.0, 0.0, 0.0)">
      <path d="M19.5 0.0 L19.9 14.05 17.55 14.05 16.7 0.2 19.5 0.0 M0.0 14.25 L1.3 0.45 10.95 0.45 11.5 14.45 0.0 14.25" fill="#ffffff" fill-rule="evenodd" stroke="none"/>
    </g>
    <g id="shape13" transform="matrix(1.0, 0.0, 0.0, 1.0, 3.9, 0.95)">
      <path d="M14.55 14.0 L16.9 14.0 14.55 14.25 14.55 14.0" fill="#ffffff" fill-rule="evenodd" stroke="none"/>
      <path d="M14.55 14.0 L16.9 14.0 16.5 -0.05 13.7 0.15 14.55 14.0 M8.5 14.4 L-3.0 14.2 -1.7 0.4 7.95 0.4 8.5 13.9" fill="none" stroke="#000000" stroke-linecap="round" stroke-linejoin="round" stroke-width="1.8"/>
    </g>
    <g id="shape14" transform="matrix(1.0, 0.0, 0.0, 1.0, 0.0, 0.0)">
      <path d="M22.2 0.0 L23.6 1.6 23.3 2.05 Q11.6 13.1 0.3 21.35 L0.0 21.3 0.7 18.35 22.2 0.0" fill="#000000" fill-rule="evenodd" stroke="none"/>
    </g>
    <g id="sprite17" transform="matrix(1.0, 0.0, 0.0, 1.0, 1.1, 1.1)">
      <use ffdec:characterId="188" height="10.05" id="mc000" transform="matrix(-0.9659, -0.2588, -0.2588, 0.9659, 13.9023, 2.2136)" width="12.85" xlink:href="#sprite18"/>
    </g>
    <g id="sprite18" transform="matrix(1.0, 0.0, 0.0, 1.0, 0.9, 0.9)">
      <use ffdec:characterId="187" height="8.25" id="mc100" transform="matrix(1.0, 0.0, 0.0, 1.0, 0.0, 0.0)" width="11.05" xlink:href="#sprite19"/>
      <use ffdec:characterId="36" height="10.05" transform="matrix(1.0, 0.0, 0.0, 1.0, -0.9, -0.9)" width="12.85" xlink:href="#shape16"/>
    </g>
    <g id="sprite19" transform="matrix(1.0, 0.0, 0.0, 1.0, 0.0, 0.0)">
      <use ffdec:characterId="34" height="8.25" transform="matrix(1.0, 0.0, 0.0, 1.0, 0.0, 0.0)" width="11.05" xlink:href="#shape15"/>
    </g>
    <g id="shape15" transform="matrix(1.0, 0.0, 0.0, 1.0, 0.0, 0.0)">
      <path d="M7.5 5.75 L3.6 8.25 3.2 4.7 0.0 4.7 3.35 0.0 10.1 1.1 11.05 8.25 7.5 5.75" fill="#ffffff" fill-rule="evenodd" stroke="none"/>
    </g>
    <g id="shape16" transform="matrix(1.0, 0.0, 0.0, 1.0, 0.9, 0.9)">
      <path d="M10.1 1.1 L11.05 8.25 7.5 5.75 3.6 8.25 3.2 4.7 0.0 4.7 3.35 0.0 10.1 1.1 Z" fill="none" stroke="#000000" stroke-linecap="round" stroke-linejoin="round" stroke-width="1.8"/>
    </g>
    <g id="sprite20" transform="matrix(1.0, 0.0, 0.0, 1.0, 0.9, 0.9)">
      <use ffdec:characterId="514" height="10.9" id="mc000" transform="matrix(-1.0, 0.0, 0.0, 1.0, 7.35, -0.9)" width="8.25" xlink:href="#sprite21"/>
    </g>
    <g id="sprite21" transform="matrix(1.0, 0.0, 0.0, 1.0, -3.8, 1.05)">
      <use ffdec:characterId="513" height="9.1" id="mc100" transform="matrix(1.0, 0.0, 0.0, 1.0, 4.7, -0.15)" width="6.45" xlink:href="#sprite22"/>
      <use ffdec:characterId="41" height="10.9" transform="matrix(1.0, 0.0, 0.0, 1.0, 3.8, -1.05)" width="8.25" xlink:href="#shape18"/>
    </g>
    <g id="sprite22" transform="matrix(1.0, 0.0, 0.0, 1.0, 0.0, 0.0)">
      <use ffdec:characterId="39" height="9.1" transform="matrix(1.0, 0.0, 0.0, 1.0, 0.0, 0.0)" width="6.45" xlink:href="#shape17"/>
    </g>
    <g id="shape17" transform="matrix(1.0, 0.0, 0.0, 1.0, 0.0, 0.0)">
      <path d="M3.05 0.0 L6.45 2.05 5.15 9.1 3.05 6.85 1.05 8.0 1.05 5.2 0.0 4.05 3.05 0.0" fill="#ffffff" fill-rule="evenodd" stroke="none"/>
    </g>
    <g id="shape18" transform="matrix(1.0, 0.0, 0.0, 1.0, -3.8, 1.05)">
      <path d="M4.7 3.9 L7.75 -0.15 11.15 1.9 9.85 8.95 7.75 6.7 5.75 7.85 5.75 5.05 4.7 3.9 Z" fill="none" stroke="#000000" stroke-linecap="round" stroke-linejoin="round" stroke-width="1.8"/>
    </g>
    <g id="sprite23" transform="matrix(1.0, 0.0, 0.0, 1.0, -1.25, -1.45)">
      <use ffdec:characterId="774" height="44.0" id="mc100" transform="matrix(1.0, 0.0, 0.0, 1.0, 2.15, 2.35)" width="39.1" xlink:href="#sprite24"/>
      <use ffdec:characterId="775" height="45.9" transform="matrix(1.0, 0.0, 0.0, 1.0, 1.25, 1.45)" width="40.9" xlink:href="#shape20"/>
    </g>
    <g id="sprite24" transform="matrix(1.0, 0.0, 0.0, 1.0, 0.0, 0.0)">
      <use ffdec:characterId="773" height="44.0" transform="matrix(1.0, 0.0, 0.0, 1.0, 0.0, 0.0)" width="39.1" xlink:href="#shape19"/>
    </g>
    <g id="shape19" transform="matrix(1.0, 0.0, 0.0, 1.0, 0.0, 0.0)">
      <path d="M36.95 9.5 L39.1 29.15 33.35 42.75 Q23.95 44.6 15.85 43.75 L15.75 43.95 Q0.35 38.4 0.0 28.35 L0.0 27.9 3.2 20.6 3.2 20.05 4.25 7.1 4.4 6.55 10.4 0.0 25.95 1.0 36.95 9.5" fill="#c4a44a" fill-rule="evenodd" stroke="none"/>
    </g>
    <g id="shape20" transform="matrix(1.0, 0.0, 0.0, 1.0, -1.25, -1.45)">
      <path d="M6.55 8.9 L12.55 2.35 28.1 3.35 39.1 11.85 41.25 31.5 35.5 45.1 Q26.1 46.95 17.9 46.3 2.5 40.75 2.15 30.7 L2.15 30.25 5.35 22.95 M5.35 22.4 L6.4 9.45" fill="none" stroke="#000000" stroke-linecap="round" stroke-linejoin="round" stroke-width="1.8"/>
    </g>
    <g id="morphshape0" transform="matrix(1.0, 0.0, 0.0, 1.0, 1.15, 65.8)">
      <path d="M-0.4 -63.45 Q6.55 -62.75 13.5 -62.0" fill="none" stroke="#000000" stroke-linecap="round" stroke-linejoin="round" stroke-width="1.5"/>
    </g>
    <g id="morphshape1" transform="matrix(1.0, 0.0, 0.0, 1.0, -18.25, 67.75)">
      <path d="M19.0 -62.55 Q25.0 -66.3 27.6 -67.0" fill="none" stroke="#000000" stroke-linecap="round" stroke-linejoin="round" stroke-width="1.5"/>
    </g>
    <g id="shape21" transform="matrix(1.0, 0.0, 0.0, 1.0, 0.9, 0.6)">
      <path d="M1.95 10.45 Q2.35 10.0 3.0 10.0 3.6 10.0 4.0 10.45 L4.45 11.25 4.45 11.5 4.0 12.5 Q3.6 12.95 3.0 12.95 2.35 12.95 1.95 12.5 1.5 12.1 1.5 11.5 L1.55 11.25 Q1.6 10.75 1.95 10.45 M15.1 11.3 L15.15 11.25 Q15.55 10.85 16.15 10.85 16.7 10.85 17.1 11.25 L17.15 11.3 Q17.6 11.7 17.6 12.35 17.6 12.95 17.15 13.35 16.75 13.8 16.15 13.8 15.5 13.8 15.1 13.35 14.65 12.95 14.65 12.35 14.65 11.7 15.1 11.3" fill="#000000" fill-rule="evenodd" stroke="none"/>
      <path d="M6.95 2.7 Q4.9 -2.85 1.85 2.95 M14.1 3.75 Q19.6 -0.75 24.9 5.7" fill="none" stroke="#000000" stroke-linecap="round" stroke-linejoin="round" stroke-width="1.2000000000000002"/>
      <path d="M12.05 24.1 L12.05 22.55 12.05 24.1 M15.8 25.3 Q11.5 25.35 7.6 23.35 12.0 21.6 16.2 21.4 19.65 22.25 18.1 25.1 L15.8 25.3 15.8 21.95 15.8 25.3" fill="#ffffff" fill-rule="evenodd" stroke="none"/>
      <path d="M13.45 11.4 Q18.45 10.95 22.7 12.45 M6.4 10.85 Q3.8 10.4 1.15 10.85 M12.05 22.55 L12.05 24.1 M15.8 25.3 L15.8 21.95" fill="none" stroke="#000000" stroke-linecap="round" stroke-linejoin="round" stroke-width="1.2000000000000002"/>
      <path d="M7.6 23.35 Q5.55 22.3 3.6 20.65 0.05 18.0 0.0 25.05 M15.8 25.3 L18.1 25.1 Q19.65 22.25 16.2 21.4 12.0 21.6 7.6 23.35 11.5 25.35 15.8 25.3 Z" fill="none" stroke="#000000" stroke-linecap="round" stroke-linejoin="round" stroke-width="1.8"/>
    </g>
    <g id="sprite25" transform="matrix(1.0, 0.0, 0.0, 1.0, 20.35, 15.5)">
      <use ffdec:characterId="734" height="32.4" id="mc000" transform="matrix(1.0, 0.0, 0.0, 1.0, -20.35, -15.5)" width="31.2" xlink:href="#sprite26"/>
    </g>
    <g id="sprite26" transform="matrix(1.0, 0.0, 0.0, 1.0, 15.6, 16.1)">
      <use ffdec:characterId="732" height="30.75" id="mc100" transform="matrix(1.0, 0.0, 0.0, 1.0, -14.85, -15.35)" width="29.7" xlink:href="#sprite27"/>
      <use ffdec:characterId="733" height="32.4" transform="matrix(1.0, 0.0, 0.0, 1.0, -15.6, -16.1)" width="31.2" xlink:href="#shape23"/>
    </g>
    <g id="sprite27" transform="matrix(1.0, 0.0, 0.0, 1.0, 14.85, 15.35)">
      <use ffdec:characterId="731" height="30.75" transform="matrix(1.0, 0.0, 0.0, 1.0, -14.85, -15.35)" width="29.7" xlink:href="#shape22"/>
    </g>
    <g id="shape22" transform="matrix(1.0, 0.0, 0.0, 1.0, 14.85, 15.35)">
      <path d="M14.65 -5.35 Q15.3 -0.55 13.55 4.25 10.95 10.65 4.55 11.75 L4.6 12.0 Q5.1 13.7 2.4 15.1 -1.35 15.95 -4.8 14.25 -7.25 12.35 -6.55 10.85 L-6.2 10.7 -6.4 10.6 Q-12.75 7.65 -14.8 -1.2 -15.3 -8.55 -8.6 -8.6 -5.0 -15.9 2.45 -15.3 L2.8 -15.25 Q12.0 -14.4 14.65 -5.35" fill="#11051c" fill-rule="evenodd" stroke="none"/>
    </g>
    <g id="shape23" transform="matrix(1.0, 0.0, 0.0, 1.0, 15.6, 16.1)">
      <path d="M14.65 -5.35 Q15.3 -0.55 13.55 4.25 10.95 10.65 4.55 11.75 L2.4 11.95 0.95 11.95 Q-3.5 11.9 -6.2 10.7 L-6.4 10.6 Q-12.75 7.65 -14.8 -1.2 -15.3 -8.55 -8.6 -8.6 -5.0 -15.9 2.45 -15.3 L2.8 -15.25 Q12.0 -14.4 14.65 -5.35 M-10.25 -4.05 L-8.6 -8.6" fill="none" stroke="#000000" stroke-linecap="round" stroke-linejoin="round" stroke-width="1.5"/>
      <path d="M4.6 12.0 Q5.1 13.7 2.4 15.1 -1.35 15.95 -4.8 14.25 -7.25 12.35 -6.55 10.85" fill="none" stroke="#000000" stroke-linecap="round" stroke-linejoin="round" stroke-width="1.8"/>
    </g>
    <g id="sprite28" transform="matrix(1.0, 0.0, 0.0, 1.0, 0.9, 0.9)">
      <use ffdec:characterId="780" height="66.55" id="mc100" transform="matrix(1.0, 0.0, 0.0, 1.0, 0.0, 0.0)" width="67.35" xlink:href="#sprite29"/>
      <use ffdec:characterId="54" height="68.35" transform="matrix(1.0, 0.0, 0.0, 1.0, -0.9, -0.9)" width="69.15" xlink:href="#shape25"/>
    </g>
    <g id="sprite29" transform="matrix(1.0, 0.0, 0.0, 1.0, 0.0, 0.0)">
      <use ffdec:characterId="52" height="66.55" transform="matrix(1.0, 0.0, 0.0, 1.0, 0.0, 0.0)" width="67.35" xlink:href="#shape24"/>
    </g>
    <g id="shape24" transform="matrix(1.0, 0.0, 0.0, 1.0, 0.0, 0.0)">
      <path d="M59.8 48.15 L54.75 34.9 47.5 46.95 47.5 36.25 41.05 45.45 37.5 39.1 33.55 66.55 33.0 66.45 Q18.1 65.9 9.6 55.1 L13.95 54.5 Q5.55 48.75 0.0 41.25 L6.65 41.8 Q4.75 25.45 9.3 12.25 L9.4 11.9 Q15.2 7.15 22.25 7.05 25.05 2.2 29.05 0.0 L29.6 5.35 Q32.25 1.9 36.4 1.45 35.55 4.0 37.3 5.55 49.7 5.75 58.9 11.65 66.15 18.85 66.85 30.75 68.5 50.15 64.7 65.9 64.4 50.75 60.8 36.1 60.95 41.95 59.8 48.15" fill="#ff6600" fill-rule="evenodd" stroke="none"/>
    </g>
    <g id="shape25" transform="matrix(1.0, 0.0, 0.0, 1.0, 0.9, 0.9)">
      <path d="M20.7 40.0 L18.6 54.0 25.1 47.5 33.0 66.45 Q18.1 65.9 9.6 55.1 L13.95 54.5 Q5.55 48.75 0.0 41.25 L6.65 41.8 Q4.75 25.45 9.3 12.25 L9.4 11.9 Q15.2 7.15 22.25 7.05 25.05 2.2 29.05 0.0 L29.6 5.35 Q32.25 1.9 36.4 1.45 35.55 4.0 37.3 5.55 49.7 5.75 58.9 11.65 66.15 18.85 66.85 30.75 68.5 50.15 64.7 65.9 64.4 50.75 60.8 36.1 60.95 41.95 59.8 48.15 L54.75 34.9 47.5 46.95 47.5 36.25 41.05 45.45 37.5 39.1 33.55 66.55" fill="none" stroke="#000000" stroke-linecap="round" stroke-linejoin="round" stroke-width="1.8"/>
    </g>
    <g id="sprite30" transform="matrix(1.0, 0.0, 0.0, 1.0, 0.9, 0.9)">
      <use ffdec:characterId="537" height="8.1" id="mc100" transform="matrix(1.0, 0.0, 0.0, 1.0, 0.0, 0.0)" width="8.1" xlink:href="#sprite31"/>
      <use ffdec:characterId="538" height="9.9" transform="matrix(1.0, 0.0, 0.0, 1.0, -0.9, -0.9)" width="9.9" xlink:href="#shape27"/>
    </g>
    <g id="sprite31" transform="matrix(1.0, 0.0, 0.0, 1.0, 0.0, 0.0)">
      <use ffdec:characterId="536" height="8.1" transform="matrix(1.0, 0.0, 0.0, 1.0, 0.0, 0.0)" width="8.1" xlink:href="#shape26"/>
    </g>
    <g id="shape26" transform="matrix(1.0, 0.0, 0.0, 1.0, 0.0, 0.0)">
      <path d="M1.15 6.9 Q0.0 5.75 0.0 4.05 0.0 2.35 1.15 1.15 2.35 0.0 4.05 0.0 5.75 0.0 6.9 1.15 8.1 2.35 8.1 4.05 8.1 5.75 6.9 6.9 5.75 8.1 4.05 8.1 2.35 8.1 1.15 6.9" fill="#c4a44a" fill-rule="evenodd" stroke="none"/>
    </g>
    <g id="shape27" transform="matrix(1.0, 0.0, 0.0, 1.0, 0.9, 0.9)">
      <path d="M1.15 6.9 Q0.0 5.75 0.0 4.05 0.0 2.35 1.15 1.15 2.35 0.0 4.05 0.0 5.75 0.0 6.9 1.15 8.1 2.35 8.1 4.05 8.1 5.75 6.9 6.9 5.75 8.1 4.05 8.1 2.35 8.1 1.15 6.9 Z" fill="none" stroke="#000000" stroke-linecap="round" stroke-linejoin="round" stroke-width="1.8"/>
    </g>
    <g id="sprite32" transform="matrix(1.0, 0.0, 0.0, 1.0, 0.75, 0.75)">
      <use ffdec:characterId="56" height="10.4" transform="matrix(1.0, 0.0, 0.0, 1.0, 8.5, 2.8)" width="26.2" xlink:href="#shape28"/>
      <use ffdec:characterId="207" height="16.75" id="mc201" transform="matrix(1.0, 0.0, 0.0, 1.0, 5.65, 0.15)" width="30.75" xlink:href="#sprite33"/>
      <use ffdec:characterId="208" height="16.35" id="mc202" transform="matrix(1.0, 0.0, 0.0, 1.0, 2.5, 0.0)" width="25.3" xlink:href="#sprite34"/>
      <use ffdec:characterId="209" height="16.0" id="mc203" transform="matrix(1.0, 0.0, 0.0, 1.0, 0.0, 2.65)" width="34.45" xlink:href="#sprite35"/>
      <use ffdec:characterId="210" height="20.15" transform="matrix(1.0, 0.0, 0.0, 1.0, -0.75, -0.75)" width="38.05" xlink:href="#shape32"/>
    </g>
    <g id="shape28" transform="matrix(1.0, 0.0, 0.0, 1.0, -8.5, -2.8)">
      <path d="M33.45 4.55 Q34.35 4.7 34.6 5.35 L34.7 5.8 34.7 9.5 Q34.45 10.6 33.25 10.95 L30.1 11.45 Q28.9 11.6 28.7 10.35 L28.75 3.65 33.45 4.55 M15.05 4.05 Q16.4 4.35 16.45 5.7 L16.45 10.6 Q16.15 12.05 14.55 12.55 L10.35 13.2 Q8.75 13.4 8.5 11.75 L8.55 2.8 14.8 4.0 15.05 4.05" fill="#ccffff" fill-rule="evenodd" stroke="none"/>
    </g>
    <g id="sprite33" transform="matrix(1.0, 0.0, 0.0, 1.0, 0.0, 0.0)">
      <use ffdec:characterId="57" height="16.75" transform="matrix(1.0, 0.0, 0.0, 1.0, 0.0, 0.0)" width="30.75" xlink:href="#shape29"/>
    </g>
    <g id="shape29" transform="matrix(1.0, 0.0, 0.0, 1.0, 0.0, 0.0)">
      <path d="M30.55 10.45 Q30.5 11.6 29.5 12.2 L29.3 12.25 24.25 13.9 Q22.2 14.35 21.5 13.6 21.05 13.1 21.1 12.15 L21.1 11.9 20.95 3.45 Q20.8 2.0 22.15 1.6 L22.2 1.6 22.3 1.6 Q23.15 1.4 24.5 1.6 30.95 2.35 30.75 5.35 L30.55 10.15 30.55 10.45 M10.8 10.45 L10.8 5.55 Q10.75 4.2 9.4 3.9 L9.15 3.85 2.9 2.65 2.85 11.6 Q3.1 13.25 4.7 13.05 L8.9 12.4 Q10.5 11.9 10.8 10.45 M12.95 3.9 L13.1 5.15 13.0 7.75 13.05 6.9 16.8 6.9 16.95 10.6 13.25 11.35 12.8 11.35 12.8 11.55 12.8 11.9 Q12.75 13.45 11.4 14.25 L11.15 14.35 4.4 16.5 Q1.7 17.15 0.75 16.1 0.15 15.45 0.25 14.2 L0.25 13.85 0.0 2.6 Q-0.2 0.65 1.6 0.15 L1.85 0.1 4.75 0.15 Q11.95 0.95 12.95 3.9 M29.05 5.65 L28.95 5.2 Q28.7 4.55 27.8 4.4 L23.1 3.5 23.05 10.2 Q23.25 11.45 24.45 11.3 L27.6 10.8 Q28.8 10.45 29.05 9.35 L29.05 5.65" fill="#999999" fill-rule="evenodd" stroke="none"/>
    </g>
    <g id="sprite34" transform="matrix(1.0, 0.0, 0.0, 1.0, 0.0, 0.0)">
      <use ffdec:characterId="59" height="16.35" transform="matrix(1.0, 0.0, 0.0, 1.0, 0.0, 0.0)" width="25.3" xlink:href="#shape30"/>
    </g>
    <g id="shape30" transform="matrix(1.0, 0.0, 0.0, 1.0, 0.0, 0.0)">
      <path d="M23.65 1.55 L24.45 1.6 25.3 1.75 Q23.95 2.15 24.1 3.6 L24.25 12.05 24.25 12.3 Q24.2 13.25 24.65 13.75 22.45 14.1 21.9 12.55 L21.75 3.7 21.75 3.55 Q21.55 1.75 23.2 1.55 L23.65 1.55 M3.15 2.75 L3.4 14.0 3.4 14.35 Q3.3 15.6 3.9 16.25 1.0 16.75 0.25 14.7 L0.05 2.85 0.05 2.65 Q-0.35 -0.9 4.75 0.3 2.95 0.8 3.15 2.75" fill="#666666" fill-rule="evenodd" stroke="none"/>
    </g>
    <g id="sprite35" transform="matrix(1.0, 0.0, 0.0, 1.0, 0.0, 0.0)">
      <use ffdec:characterId="61" height="16.0" transform="matrix(1.0, 0.0, 0.0, 1.0, 0.0, 0.0)" width="34.45" xlink:href="#shape31"/>
    </g>
    <g id="shape31" transform="matrix(1.0, 0.0, 0.0, 1.0, 0.0, 0.0)">
      <path d="M34.45 10.2 Q34.35 12.45 29.35 13.1 24.8 13.75 22.95 11.2 L22.7 10.8 22.35 2.35 23.9 0.9 24.25 0.9 24.25 1.05 24.4 9.9 Q24.95 11.45 27.15 11.1 27.85 11.85 29.9 11.4 L34.4 9.95 34.45 10.2 M0.0 1.95 L2.05 0.0 2.55 0.0 2.55 0.2 2.75 12.05 Q3.5 14.1 6.4 13.6 7.35 14.65 10.05 14.0 L16.05 12.1 16.15 12.4 Q16.0 15.0 11.2 16.0 L3.95 16.0 Q1.95 15.35 0.8 13.75 L0.5 13.25 0.0 1.95" fill="#333333" fill-rule="evenodd" stroke="none"/>
    </g>
    <g id="shape32" transform="matrix(1.0, 0.0, 0.0, 1.0, 0.75, 0.75)">
      <path d="M23.9 3.55 L24.25 3.55 M34.4 12.6 L34.45 12.85 M2.05 2.65 L2.55 2.65 M16.8 14.5 L16.05 14.75 16.15 15.05" fill="none" stroke="#000000" stroke-linecap="round" stroke-linejoin="round" stroke-width="1.5"/>
      <path d="M25.7 1.55 L26.15 1.55" fill="none" stroke="#000000" stroke-linecap="round" stroke-linejoin="round" stroke-width="1.8"/>
      <path d="M26.15 1.55 L26.95 1.6 27.85 1.75 27.95 1.75 Q28.8 1.55 30.15 1.75 36.6 2.5 36.4 5.5 L36.2 10.3 36.2 10.6 Q36.15 11.75 35.15 12.35 L34.95 12.4 34.4 12.6 M24.25 3.55 Q24.05 1.75 25.7 1.55 M33.25 10.95 L30.1 11.45 Q28.9 11.6 28.7 10.35 L28.75 3.65 33.45 4.55 Q34.35 4.7 34.6 5.35 L34.7 5.8 34.7 9.5 Q34.45 10.6 33.25 10.95 M27.15 13.75 Q26.7 13.25 26.75 12.3 L26.75 12.05 26.6 3.6 Q26.45 2.15 27.8 1.75 L27.85 1.75 M22.6 10.8 L19.05 11.5 M15.05 4.05 Q16.4 4.35 16.45 5.7 L16.45 10.6 Q16.15 12.05 14.55 12.55 L10.35 13.2 Q8.75 13.4 8.5 11.75 L8.55 2.8 14.8 4.0 15.05 4.05 M18.7 7.05 L21.7 7.05 M22.25 8.9 L19.25 9.25" fill="none" stroke="#000000" stroke-linecap="round" stroke-linejoin="round" stroke-width="1.8"/>
      <path d="M34.4 12.6 L29.9 14.05 Q27.85 14.5 27.15 13.75 24.95 14.1 24.4 12.55 L24.25 3.55 M22.6 10.8 L22.35 5.0 23.9 3.55 M34.45 12.85 Q34.35 15.1 29.35 15.75 24.8 16.4 22.95 13.85 L22.7 13.45 22.6 10.8 M16.05 14.75 L10.05 16.65 Q7.35 17.3 6.4 16.25 3.5 16.75 2.75 14.7 L2.55 2.85 Q2.15 -0.9 7.25 0.3 L7.5 0.25 10.4 0.3 Q17.6 1.1 18.6 4.05 L18.75 5.3 18.7 7.05 18.45 11.7 18.45 12.05 Q18.4 13.6 17.05 14.4 L16.8 14.5 M6.4 16.25 Q5.8 15.6 5.9 14.35 L5.9 14.0 5.65 2.75 Q5.45 0.8 7.25 0.3 M16.15 15.05 Q16.0 17.65 11.2 18.65 L3.95 18.65 Q1.95 18.0 0.8 16.4 L0.5 15.9 0.0 4.6 2.05 2.65" fill="none" stroke="#000000" stroke-linecap="round" stroke-linejoin="round" stroke-width="1.5"/>
    </g>
  </defs>
</svg>
