<?xml version="1.0" encoding="UTF-8" standalone="no"?>
<svg xmlns:ffdec="https://www.free-decompiler.com/flash" xmlns:xlink="http://www.w3.org/1999/xlink" ffdec:objectType="frame" height="56.05px" width="79.3px" xmlns="http://www.w3.org/2000/svg">
  <g transform="matrix(1.0, 0.0, 0.0, 1.0, 0.0, 0.0)">
    <use ffdec:characterId="588" height="56.05" transform="matrix(1.0, 0.0, 0.0, 1.0, 0.0, 0.0)" width="79.3" xlink:href="#shape0"/>
  </g>
  <defs>
    <g id="shape0" transform="matrix(1.0, 0.0, 0.0, 1.0, 0.0, 0.0)">
      <path d="M50.2 1.3 Q69.4 9.55 68.05 25.05 72.65 30.6 79.3 31.9 73.0 37.85 66.7 38.9 69.75 47.85 76.95 55.8 L76.95 56.05 76.9 56.05 Q63.85 55.05 50.8 44.6 L54.25 53.5 39.6 41.45 44.2 49.75 35.75 42.95 22.95 50.9 26.0 46.15 Q17.45 50.95 12.45 50.1 L17.2 42.6 Q12.05 43.05 7.7 40.85 L13.75 38.65 0.0 28.25 Q9.0 28.95 13.95 17.35 26.1 0.95 43.15 0.05 46.45 -0.2 50.2 1.3" fill="#ff6600" fill-rule="evenodd" stroke="none"/>
    </g>
  </defs>
</svg>
