<?xml version="1.0" encoding="UTF-8" standalone="no"?>
<svg xmlns:ffdec="https://www.free-decompiler.com/flash" xmlns:xlink="http://www.w3.org/1999/xlink" ffdec:objectType="frame" height="105.9px" width="109.8px" xmlns="http://www.w3.org/2000/svg">
  <g transform="matrix(1.0, 0.0, 0.0, 1.0, 45.05, 103.05)">
    <use ffdec:characterId="172" height="79.3" id="mc21160" transform="matrix(1.0, 0.0, 0.0, 1.0, -30.3, -90.3)" width="74.0" xlink:href="#sprite0"/>
    <use ffdec:characterId="173" height="18.85" id="mc20160" transform="matrix(0.9946, 0.101, -0.101, 0.9946, -11.5134, -18.0983)" width="10.9" xlink:href="#sprite6"/>
    <use ffdec:characterId="173" height="18.85" id="mc19160" transform="matrix(0.9946, 0.101, -0.101, 0.9946, 3.8866, -18.0483)" width="10.9" xlink:href="#sprite6"/>
    <use ffdec:characterId="178" height="18.55" id="mc18160" transform="matrix(0.0659, 0.994, -0.994, 0.0659, -9.4204, -40.1324)" width="15.75" xlink:href="#sprite7"/>
    <use ffdec:characterId="178" height="18.55" id="mc17160" transform="matrix(-0.2326, 0.9695, 0.9695, 0.2326, 9.5445, -43.9579)" width="15.75" xlink:href="#sprite7"/>
    <use ffdec:characterId="181" height="20.65" id="mc16160" transform="matrix(1.0, 0.0, 0.0, 1.0, -10.1, -39.3)" width="21.15" xlink:href="#sprite10"/>
    <use ffdec:characterId="185" height="22.9" id="mc15160" transform="matrix(0.9897, -0.1402, 0.1402, 0.9897, -14.1564, -40.6952)" width="23.0" xlink:href="#sprite13"/>
    <use ffdec:characterId="186" height="21.35" id="mc14160" transform="matrix(1.0, 0.0, 0.0, 1.0, -11.45, -32.3)" width="23.6" xlink:href="#sprite16"/>
    <use ffdec:characterId="189" height="10.05" id="mc13160" transform="matrix(0.9897, -0.1402, 0.1402, 0.9897, -15.4169, -33.5145)" width="12.85" xlink:href="#sprite17"/>
    <use ffdec:characterId="190" height="10.05" id="mc12160" transform="matrix(0.9897, -0.1402, 0.1402, 0.9897, -0.5669, -36.0145)" width="12.85" xlink:href="#sprite20"/>
    <use ffdec:characterId="656" height="16.4" id="hide_hat8" transform="matrix(1.0, 0.0, 0.0, 1.0, -28.85, -97.1)" width="51.7" xlink:href="#sprite21"/>
    <use ffdec:characterId="646" height="60.3" id="mc10160" transform="matrix(1.0, 0.0, 0.0, 1.0, -30.2, -89.95)" width="54.4" xlink:href="#sprite26"/>
    <use ffdec:characterId="1004" height="18.9" transform="matrix(1.0, 0.0, 0.0, 1.0, -26.4, -71.6)" width="36.8" xlink:href="#shape20"/>
    <use ffdec:characterId="992" height="6.0" transform="matrix(-1.0, 0.0, 0.0, 1.0, 10.05, -68.05)" width="14.7" xlink:href="#shape21"/>
    <use ffdec:characterId="992" height="6.0" transform="matrix(1.0, 0.0, 0.0, 1.0, -25.55, -67.95)" width="14.7" xlink:href="#shape21"/>
    <use ffdec:characterId="996" height="22.05" id="hide_hat" transform="matrix(0.9949, -0.0869, 0.0869, 0.9949, -45.0253, -79.759)" width="74.25" xlink:href="#sprite28"/>
    <use ffdec:characterId="1000" height="53.4" id="mc3160" transform="matrix(0.9949, -0.0869, 0.0869, 0.9949, -42.4448, -89.8093)" width="70.6" xlink:href="#sprite30"/>
    <use ffdec:characterId="206" height="18.5" id="mc2160" transform="matrix(0.9897, -0.1402, 0.1402, 0.9897, -14.4576, -20.4383)" width="27.7" xlink:href="#sprite32"/>
    <use ffdec:characterId="984" height="0.0" id="hat" transform="matrix(1.0, 0.0, 0.0, 1.0, 0.0, 0.0)" width="0.0" xlink:href="#sprite35"/>
  </g>
  <defs>
    <g id="sprite0" transform="matrix(1.0, 0.0, 0.0, 1.0, 0.9, 0.9)">
      <use ffdec:characterId="169" height="66.3" id="mc200" transform="matrix(1.0, 0.0, 0.0, 1.0, 6.8, 9.25)" width="63.0" xlink:href="#sprite1"/>
      <use ffdec:characterId="171" height="53.85" id="mc100" transform="matrix(1.0, 0.0, 0.0, 1.0, 16.75, 18.6)" width="50.35" xlink:href="#sprite4"/>
      <use ffdec:characterId="9" height="79.3" transform="matrix(1.0, 0.0, 0.0, 1.0, -0.9, -0.9)" width="74.0" xlink:href="#shape2"/>
    </g>
    <g id="sprite1" transform="matrix(1.0, 0.0, 0.0, 1.0, 0.0, 0.0)">
      <use ffdec:characterId="168" height="66.3" id="mc000" transform="matrix(1.0, 0.0, 0.0, 1.0, 0.0, 0.0)" width="63.0" xlink:href="#sprite2"/>
    </g>
    <g id="sprite2" transform="matrix(1.0, 0.0, 0.0, 1.0, 0.0, 0.0)">
      <use ffdec:characterId="167" height="66.3" id="mc000" transform="matrix(1.0, 0.0, 0.0, 1.0, 0.0, 0.0)" width="63.0" xlink:href="#sprite3"/>
    </g>
    <g id="sprite3" transform="matrix(1.0, 0.0, 0.0, 1.0, 0.0, 0.0)">
      <use ffdec:characterId="1" height="66.3" transform="matrix(1.0, 0.0, 0.0, 1.0, 0.0, 0.0)" width="63.0" xlink:href="#shape0"/>
    </g>
    <g id="shape0" transform="matrix(1.0, 0.0, 0.0, 1.0, 0.0, 0.0)">
      <path d="M60.3 9.35 L48.15 9.55 51.45 0.8 63.0 0.0 60.3 9.35 M11.2 50.8 L9.95 63.2 0.0 66.3 2.35 55.3 11.2 50.8" fill="#00cc99" fill-rule="evenodd" stroke="none"/>
    </g>
    <g id="sprite4" transform="matrix(1.0, 0.0, 0.0, 1.0, 0.0, 0.0)">
      <use ffdec:characterId="170" height="53.85" id="mc000" transform="matrix(1.0, 0.0, 0.0, 1.0, 0.0, 0.0)" width="50.35" xlink:href="#sprite5"/>
    </g>
    <g id="sprite5" transform="matrix(1.0, 0.0, 0.0, 1.0, 0.0, 0.0)">
      <use ffdec:characterId="6" height="53.85" transform="matrix(1.0, 0.0, 0.0, 1.0, 0.0, 0.0)" width="50.35" xlink:href="#shape1"/>
    </g>
    <g id="shape1" transform="matrix(1.0, 0.0, 0.0, 1.0, 0.0, 0.0)">
      <path d="M38.2 0.2 L50.35 0.0 Q44.35 19.8 36.1 40.2 18.3 47.9 0.0 53.85 L1.25 41.45 Q12.7 35.7 24.15 29.9 32.25 15.3 38.2 0.2" fill="#006666" fill-rule="evenodd" stroke="none"/>
    </g>
    <g id="shape2" transform="matrix(1.0, 0.0, 0.0, 1.0, 0.9, 0.9)">
      <path d="M58.25 10.05 L59.4 6.6 Q63.9 -0.95 72.2 0.15 L69.8 9.25 58.25 10.05 M9.15 64.55 L6.8 75.55 0.0 77.5 5.15 66.55 9.15 64.55" fill="#fafff5" fill-rule="evenodd" stroke="none"/>
      <path d="M54.95 18.8 Q49.0 33.9 40.9 48.5 L18.0 60.05 16.75 72.45 Q35.05 66.5 52.85 58.8 61.1 38.4 67.1 18.6 L54.95 18.8 58.25 10.05 59.4 6.6 Q63.9 -0.95 72.2 0.15 L69.8 9.25 67.1 18.6 M58.25 10.05 L69.8 9.25 M9.15 64.55 L6.8 75.55 16.75 72.45 M6.8 75.55 L0.0 77.5 5.15 66.55 9.15 64.55 18.0 60.05" fill="none" stroke="#000000" stroke-linecap="round" stroke-linejoin="round" stroke-width="1.8"/>
    </g>
    <g id="sprite6" transform="matrix(1.0, 0.0, 0.0, 1.0, 4.95, 9.5)">
      <use ffdec:characterId="18" height="18.85" transform="matrix(1.0, 0.0, 0.0, 1.0, -4.95, -9.5)" width="10.9" xlink:href="#shape3"/>
    </g>
    <g id="shape3" transform="matrix(1.0, 0.0, 0.0, 1.0, 4.95, 9.5)">
      <path d="M5.05 5.55 L5.05 5.7 Q5.15 6.65 3.9 7.45 2.7 8.25 0.95 8.4 -0.8 8.55 -2.15 7.95 -3.45 7.45 -3.55 6.5 L-3.55 6.35 -3.5 6.35 4.7 5.5 5.05 5.55" fill="#000000" fill-rule="evenodd" stroke="none"/>
      <path d="M-3.55 6.1 L-3.65 3.85 -4.05 -6.3 Q-4.1 -7.15 -3.15 -7.75 -2.1 -8.4 -0.55 -8.55 L2.1 -8.25 Q3.15 -7.75 3.3 -7.0 L3.35 -6.85 3.35 -6.65 4.7 3.05 5.05 5.45 4.7 5.5 -3.5 6.35 -3.55 6.1 M4.7 3.05 L-3.65 3.85 4.7 3.05" fill="#ffffff" fill-rule="evenodd" stroke="none"/>
      <path d="M-3.55 6.1 L-3.65 3.85 -4.05 -6.3 Q-4.1 -7.15 -3.15 -7.75 -2.1 -8.4 -0.55 -8.55 L2.1 -8.25 Q3.15 -7.75 3.3 -7.0 L3.35 -6.85 3.35 -6.65 4.7 3.05 5.05 5.45 5.05 5.55 5.05 5.7 Q5.15 6.65 3.9 7.45 2.7 8.25 0.95 8.4 -0.8 8.55 -2.15 7.95 -3.45 7.45 -3.55 6.5 L-3.55 6.35 -3.55 6.1 M-3.5 6.35 L4.7 5.5 M-3.55 6.35 L-3.5 6.35 M-3.65 3.85 L4.7 3.05" fill="none" stroke="#000000" stroke-linecap="round" stroke-linejoin="round" stroke-width="1.8"/>
    </g>
    <g id="sprite7" transform="matrix(1.0, 0.0, 0.0, 1.0, 7.85, 8.8)">
      <use ffdec:characterId="174" height="6.5" id="mc400" transform="matrix(1.0, 0.0, 0.0, 1.0, -5.35, 2.35)" width="7.55" xlink:href="#sprite8"/>
      <use ffdec:characterId="175" height="16.1" transform="matrix(1.0, 0.0, 0.0, 1.0, -6.25, -6.35)" width="14.15" xlink:href="#shape5"/>
      <use ffdec:characterId="176" height="15.5" id="mc200" transform="matrix(1.0, 0.0, 0.0, 1.0, -6.95, -7.9)" width="13.95" xlink:href="#sprite9"/>
      <use ffdec:characterId="177" height="17.3" transform="matrix(1.0, 0.0, 0.0, 1.0, -7.85, -8.8)" width="15.75" xlink:href="#shape7"/>
    </g>
    <g id="sprite8" transform="matrix(1.0, 0.0, 0.0, 1.0, 0.0, 0.0)">
      <use ffdec:characterId="12" height="6.5" transform="matrix(1.0, 0.0, 0.0, 1.0, 0.0, 0.0)" width="7.55" xlink:href="#shape4"/>
    </g>
    <g id="shape4" transform="matrix(1.0, 0.0, 0.0, 1.0, 0.0, 0.0)">
      <path d="M6.45 2.8 L7.55 2.7 7.1 3.95 Q6.5 5.65 5.2 6.2 3.75 6.8 2.3 6.2 0.8 5.55 0.2 4.15 -0.3 2.8 0.5 1.2 L1.1 0.0 Q2.7 2.0 4.75 2.55 L6.3 2.9 6.45 2.8" fill="#b59155" fill-rule="evenodd" stroke="none"/>
    </g>
    <g id="shape5" transform="matrix(1.0, 0.0, 0.0, 1.0, 6.25, 6.35)">
      <path d="M6.8 -4.7 L6.7 -4.4 7.0 -5.45 6.8 -4.7" fill="#ffffff" fill-rule="evenodd" stroke="none"/>
      <path d="M6.8 -4.7 L7.0 -5.45 6.7 -4.4 6.8 -4.7 3.75 2.45 2.2 5.05 1.75 6.3 Q1.15 8.0 -0.15 8.55 -1.6 9.15 -3.05 8.55 -4.55 7.9 -5.15 6.5 -5.65 5.15 -4.85 3.55 L-4.25 2.35 -4.1 1.95 M2.2 5.05 L1.1 5.15 M-2.55 -1.8 L-2.7 -1.55 M-0.6 4.9 Q-2.65 4.35 -4.25 2.35" fill="none" stroke="#000000" stroke-linecap="round" stroke-linejoin="round" stroke-width="1.8"/>
    </g>
    <g id="sprite9" transform="matrix(1.0, 0.0, 0.0, 1.0, 0.0, 0.0)">
      <use ffdec:characterId="14" height="15.5" transform="matrix(1.0, 0.0, 0.0, 1.0, 0.0, 0.0)" width="13.95" xlink:href="#shape6"/>
    </g>
    <g id="shape6" transform="matrix(1.0, 0.0, 0.0, 1.0, 0.0, 0.0)">
      <path d="M10.4 10.55 L10.7 10.75 8.8 15.5 8.75 15.5 8.5 15.4 7.2 13.05 4.05 14.4 3.95 14.15 3.6 10.9 3.35 10.55 0.0 10.55 4.3 6.05 4.4 6.15 5.05 5.25 Q10.05 0.45 11.25 0.15 12.45 -0.25 13.25 0.4 14.1 1.05 13.95 2.25 L13.95 2.45 13.65 3.5 10.4 10.55" fill="#ffffff" fill-rule="evenodd" stroke="none"/>
    </g>
    <g id="shape7" transform="matrix(1.0, 0.0, 0.0, 1.0, 7.85, 8.8)">
      <path d="M-2.65 -1.85 L-6.95 2.65 -3.4 2.65 -3.0 6.25 M1.85 7.6 L3.75 2.85 M-2.9 6.5 L0.25 5.15 1.55 7.5 M3.35 2.6 L-2.45 -1.7" fill="none" stroke="#000000" stroke-linecap="round" stroke-linejoin="round" stroke-width="1.8"/>
      <path d="M7.0 -5.65 Q7.15 -6.85 6.3 -7.5 5.5 -8.15 4.3 -7.75 3.1 -7.45 -1.9 -2.65 M6.7 -4.4 L3.5 2.9" fill="none" stroke="#000000" stroke-linecap="round" stroke-linejoin="round" stroke-width="1.8"/>
    </g>
    <g id="sprite10" transform="matrix(1.0, 0.0, 0.0, 1.0, 0.05, 5.35)">
      <use ffdec:characterId="81" height="20.65" transform="matrix(1.0, 0.0, 0.0, 1.0, -0.05, -5.35)" width="21.15" xlink:href="#shape8"/>
      <use ffdec:characterId="180" height="18.85" id="mc001" transform="matrix(1.0, 0.0, 0.0, 1.0, 0.85, -4.45)" width="19.35" xlink:href="#sprite11"/>
    </g>
    <g id="shape8" transform="matrix(1.0, 0.0, 0.0, 1.0, 0.05, 5.35)">
      <path d="M18.55 -4.45 L20.2 13.7 14.15 14.2 8.6 14.4 0.85 14.15 1.7 -3.95 18.55 -4.45 Z" fill="none" stroke="#000000" stroke-linecap="round" stroke-linejoin="round" stroke-width="1.8"/>
    </g>
    <g id="sprite11" transform="matrix(1.0, 0.0, 0.0, 1.0, 0.0, 0.0)">
      <use ffdec:characterId="179" height="18.85" id="mc000" transform="matrix(1.0, 0.0, 0.0, 1.0, 0.0, 0.0)" width="19.35" xlink:href="#sprite12"/>
    </g>
    <g id="sprite12" transform="matrix(1.0, 0.0, 0.0, 1.0, 0.0, 0.0)">
      <use ffdec:characterId="82" height="18.85" transform="matrix(1.0, 0.0, 0.0, 1.0, 0.0, 0.0)" width="19.35" xlink:href="#shape9"/>
    </g>
    <g id="shape9" transform="matrix(1.0, 0.0, 0.0, 1.0, 0.0, 0.0)">
      <path d="M19.35 18.15 L13.3 18.65 7.75 18.85 0.0 18.6 0.85 0.5 17.7 0.0 19.35 18.15" fill="#b59155" fill-rule="evenodd" stroke="none"/>
    </g>
    <g id="sprite13" transform="matrix(1.0, 0.0, 0.0, 1.0, 0.9, 7.6)">
      <use ffdec:characterId="183" height="21.1" id="mc100" transform="matrix(1.0, 0.0, 0.0, 1.0, 0.0, -6.7)" width="21.2" xlink:href="#sprite14"/>
      <use ffdec:characterId="184" height="22.9" transform="matrix(1.0, 0.0, 0.0, 1.0, -0.9, -7.6)" width="23.0" xlink:href="#shape11"/>
    </g>
    <g id="sprite14" transform="matrix(1.0, 0.0, 0.0, 1.0, 0.0, 0.0)">
      <use ffdec:characterId="182" height="21.1" id="mc000" transform="matrix(1.0, 0.0, 0.0, 1.0, 0.0, 0.0)" width="21.2" xlink:href="#sprite15"/>
    </g>
    <g id="sprite15" transform="matrix(1.0, 0.0, 0.0, 1.0, 0.0, 0.0)">
      <use ffdec:characterId="86" height="21.1" transform="matrix(1.0, 0.0, 0.0, 1.0, 0.0, 0.0)" width="21.2" xlink:href="#shape10"/>
    </g>
    <g id="shape10" transform="matrix(1.0, 0.0, 0.0, 1.0, 0.0, 0.0)">
      <path d="M21.2 20.3 L14.55 20.9 13.7 0.2 19.35 0.0 21.2 20.3 M8.5 21.1 L0.0 20.8 0.95 0.6 8.1 0.6 8.5 21.1" fill="#ffffff" fill-rule="evenodd" stroke="none"/>
    </g>
    <g id="shape11" transform="matrix(1.0, 0.0, 0.0, 1.0, 0.9, 7.6)">
      <path d="M19.35 -6.7 L21.2 13.6 14.55 14.2 13.7 -6.5 19.35 -6.7 M8.5 14.4 L0.0 14.1 0.95 -6.1 8.1 -6.1 8.5 13.65" fill="none" stroke="#000000" stroke-linecap="round" stroke-linejoin="round" stroke-width="1.8"/>
    </g>
    <g id="sprite16" transform="matrix(1.0, 0.0, 0.0, 1.0, 0.0, 0.0)">
      <use ffdec:characterId="33" height="21.35" transform="matrix(1.0, 0.0, 0.0, 1.0, 0.0, 0.0)" width="23.6" xlink:href="#shape12"/>
    </g>
    <g id="shape12" transform="matrix(1.0, 0.0, 0.0, 1.0, 0.0, 0.0)">
      <path d="M22.2 0.0 L23.6 1.6 23.3 2.05 Q11.6 13.1 0.3 21.35 L0.0 21.3 0.7 18.35 22.2 0.0" fill="#000000" fill-rule="evenodd" stroke="none"/>
    </g>
    <g id="sprite17" transform="matrix(1.0, 0.0, 0.0, 1.0, 0.9, 0.9)">
      <use ffdec:characterId="188" height="10.05" id="mc000" transform="matrix(1.0, 0.0, 0.0, 1.0, -0.9, -0.9)" width="12.85" xlink:href="#sprite18"/>
    </g>
    <g id="sprite18" transform="matrix(1.0, 0.0, 0.0, 1.0, 0.9, 0.9)">
      <use ffdec:characterId="187" height="8.25" id="mc100" transform="matrix(1.0, 0.0, 0.0, 1.0, 0.0, 0.0)" width="11.05" xlink:href="#sprite19"/>
      <use ffdec:characterId="36" height="10.05" transform="matrix(1.0, 0.0, 0.0, 1.0, -0.9, -0.9)" width="12.85" xlink:href="#shape14"/>
    </g>
    <g id="sprite19" transform="matrix(1.0, 0.0, 0.0, 1.0, 0.0, 0.0)">
      <use ffdec:characterId="34" height="8.25" transform="matrix(1.0, 0.0, 0.0, 1.0, 0.0, 0.0)" width="11.05" xlink:href="#shape13"/>
    </g>
    <g id="shape13" transform="matrix(1.0, 0.0, 0.0, 1.0, 0.0, 0.0)">
      <path d="M7.5 5.75 L3.6 8.25 3.2 4.7 0.0 4.7 3.35 0.0 10.1 1.1 11.05 8.25 7.5 5.75" fill="#ffffff" fill-rule="evenodd" stroke="none"/>
    </g>
    <g id="shape14" transform="matrix(1.0, 0.0, 0.0, 1.0, 0.9, 0.9)">
      <path d="M10.1 1.1 L11.05 8.25 7.5 5.75 3.6 8.25 3.2 4.7 0.0 4.7 3.35 0.0 10.1 1.1 Z" fill="none" stroke="#000000" stroke-linecap="round" stroke-linejoin="round" stroke-width="1.8"/>
    </g>
    <g id="sprite20" transform="matrix(1.0, 0.0, 0.0, 1.0, 0.9, 0.9)">
      <use ffdec:characterId="188" height="10.05" id="mc000" transform="matrix(-1.0, 0.0, 0.0, 1.0, 11.95, -0.9)" width="12.85" xlink:href="#sprite18"/>
    </g>
    <g id="sprite21" transform="matrix(1.0, 0.0, 0.0, 1.0, 0.9, 0.4)">
      <use ffdec:characterId="651" height="12.95" id="mc100" transform="matrix(1.0, 0.0, 0.0, 1.0, 0.0, 2.15)" width="49.9" xlink:href="#sprite22"/>
      <use ffdec:characterId="654" height="9.25" id="mc101" transform="matrix(1.0, 0.0, 0.0, 1.0, 0.75, 0.5)" width="48.4" xlink:href="#sprite24"/>
      <use ffdec:characterId="655" height="16.4" transform="matrix(1.0, 0.0, 0.0, 1.0, -0.9, -0.4)" width="51.7" xlink:href="#shape17"/>
    </g>
    <g id="sprite22" transform="matrix(1.0, 0.0, 0.0, 1.0, 0.0, 0.0)">
      <use ffdec:characterId="650" height="12.95" id="mc000" transform="matrix(1.0, 0.0, 0.0, 1.0, 0.0, 0.0)" width="49.9" xlink:href="#sprite23"/>
    </g>
    <g id="sprite23" transform="matrix(1.0, 0.0, 0.0, 1.0, 0.0, 0.0)">
      <use ffdec:characterId="649" height="12.95" transform="matrix(1.0, 0.0, 0.0, 1.0, 0.0, 0.0)" width="49.9" xlink:href="#shape15"/>
    </g>
    <g id="shape15" transform="matrix(1.0, 0.0, 0.0, 1.0, 0.0, 0.0)">
      <path d="M48.25 12.65 L27.7 3.65 28.1 0.0 32.4 1.05 34.6 1.65 Q41.85 3.85 47.95 7.3 L49.9 8.45 48.25 12.65 M22.2 3.95 L1.65 12.95 0.0 8.75 Q1.0 8.1 1.95 7.6 8.05 4.15 15.3 1.95 L17.5 1.35 21.8 0.3 22.2 3.95" fill="#666666" fill-rule="evenodd" stroke="none"/>
    </g>
    <g id="sprite24" transform="matrix(1.0, 0.0, 0.0, 1.0, 0.0, 0.0)">
      <use ffdec:characterId="653" height="9.25" id="mc000" transform="matrix(1.0, 0.0, 0.0, 1.0, 0.0, 0.0)" width="48.4" xlink:href="#sprite25"/>
    </g>
    <g id="sprite25" transform="matrix(1.0, 0.0, 0.0, 1.0, 0.0, 0.0)">
      <use ffdec:characterId="652" height="9.25" transform="matrix(1.0, 0.0, 0.0, 1.0, 0.0, 0.0)" width="48.4" xlink:href="#shape16"/>
    </g>
    <g id="shape16" transform="matrix(1.0, 0.0, 0.0, 1.0, 0.0, 0.0)">
      <path d="M47.2 8.95 Q41.1 5.5 33.85 3.3 L31.65 2.7 33.0 0.0 33.85 0.25 Q41.7 2.6 48.4 6.45 L47.2 8.95 M14.55 0.55 L15.4 0.3 16.75 3.0 14.55 3.6 Q7.3 5.8 1.2 9.25 L0.0 6.75 Q6.7 2.9 14.55 0.55" fill="#999999" fill-rule="evenodd" stroke="none"/>
    </g>
    <g id="shape17" transform="matrix(1.0, 0.0, 0.0, 1.0, 0.9, 0.4)">
      <path d="M47.95 9.45 L49.9 10.6 48.25 14.8 27.7 5.8 28.1 2.15 32.4 3.2 33.75 0.5 34.6 0.75 Q42.45 3.1 49.15 6.95 L47.95 9.45 Q41.85 6.0 34.6 3.8 L32.4 3.2 M22.2 6.1 L1.65 15.1 0.0 10.9 Q1.0 10.25 1.95 9.75 L0.75 7.25 Q7.45 3.4 15.3 1.05 L16.15 0.8 17.5 3.5 21.8 2.45 22.2 6.1 M1.95 9.75 Q8.05 6.3 15.3 4.1 L17.5 3.5" fill="none" stroke="#000000" stroke-linecap="round" stroke-linejoin="round" stroke-width="1.8"/>
    </g>
    <g id="sprite26" transform="matrix(1.0, 0.0, 0.0, 1.0, 2.3, 17.2)">
      <use ffdec:characterId="644" height="58.5" id="mc100" transform="matrix(1.0, 0.0, 0.0, 1.0, -1.4, -16.3)" width="52.6" xlink:href="#sprite27"/>
      <use ffdec:characterId="645" height="60.3" transform="matrix(1.0, 0.0, 0.0, 1.0, -2.3, -17.2)" width="54.4" xlink:href="#shape19"/>
    </g>
    <g id="sprite27" transform="matrix(1.0, 0.0, 0.0, 1.0, 0.0, 0.05)">
      <use ffdec:characterId="643" height="58.5" transform="matrix(1.0, 0.0, 0.0, 1.0, 0.0, -0.05)" width="52.6" xlink:href="#shape18"/>
    </g>
    <g id="shape18" transform="matrix(1.0, 0.0, 0.0, 1.0, 0.0, 0.05)">
      <path d="M52.6 16.25 Q52.65 31.35 48.8 45.65 42.9 51.8 34.2 55.85 25.0 61.05 15.75 55.85 6.3 51.4 2.9 43.2 -2.05 29.4 1.4 16.25 27.8 -16.3 52.6 16.25" fill="#c4a44a" fill-rule="evenodd" stroke="none"/>
    </g>
    <g id="shape19" transform="matrix(1.0, 0.0, 0.0, 1.0, 2.3, 17.2)">
      <path d="M51.2 0.0 Q26.4 -32.55 0.0 0.0 -3.45 13.15 1.5 26.95 4.9 35.15 14.35 39.6 23.6 44.8 32.8 39.6 41.5 35.55 47.4 29.4 51.25 15.1 51.2 0.0 Z" fill="none" stroke="#000000" stroke-linecap="round" stroke-linejoin="round" stroke-width="1.8"/>
    </g>
    <g id="shape20" transform="matrix(1.0, 0.0, 0.0, 1.0, 26.4, 71.6)">
      <path d="M-2.9 -69.45 Q4.35 -71.25 9.5 -68.85" fill="none" stroke="#000000" stroke-linecap="round" stroke-linejoin="round" stroke-width="1.8"/>
      <path d="M-13.3 -69.65 Q-18.7 -71.55 -25.5 -70.05" fill="none" stroke="#000000" stroke-linecap="round" stroke-linejoin="round" stroke-width="1.8"/>
      <path d="M-12.7 -53.45 Q-13.2 -56.0 -15.05 -56.3 -16.95 -56.05 -17.2 -53.5" fill="none" stroke="#000000" stroke-linecap="round" stroke-linejoin="round" stroke-width="1.5"/>
    </g>
    <g id="shape21" transform="matrix(1.0, 0.0, 0.0, 1.0, 0.6, 0.6)">
      <path d="M0.0 4.8 Q2.2 1.45 4.75 0.45 6.95 -0.45 9.45 0.45 11.45 1.2 13.5 3.5 6.25 1.15 0.0 4.8" fill="#ffffff" fill-rule="evenodd" stroke="none"/>
      <path d="M4.3 0.45 L9.4 0.45 9.4 0.5 Q9.4 1.55 8.65 2.3 7.9 3.05 6.85 3.05 5.8 3.05 5.05 2.3 4.3 1.55 4.3 0.5 L4.3 0.45" fill="#000000" fill-rule="evenodd" stroke="none"/>
      <path d="M9.45 0.45 Q6.95 -0.45 4.75 0.45 2.2 1.45 0.0 4.8 6.25 1.15 13.5 3.5 11.45 1.2 9.45 0.45 Z" fill="none" stroke="#000000" stroke-linecap="round" stroke-linejoin="round" stroke-width="1.2000000000000002"/>
    </g>
    <g id="sprite28" transform="matrix(1.0, 0.0, 0.0, 1.0, -1.95, -17.65)">
      <use ffdec:characterId="994" height="20.55" id="mc100" transform="matrix(1.0, 0.0, 0.0, 1.0, 2.85, 18.25)" width="72.45" xlink:href="#sprite29"/>
      <use ffdec:characterId="995" height="22.05" transform="matrix(1.0, 0.0, 0.0, 1.0, 1.95, 17.65)" width="74.25" xlink:href="#shape23"/>
    </g>
    <g id="sprite29" transform="matrix(1.0, 0.0, 0.0, 1.0, 0.0, -9.5)">
      <use ffdec:characterId="993" height="20.55" transform="matrix(1.0, 0.0, 0.0, 1.0, 0.0, 9.5)" width="72.45" xlink:href="#shape22"/>
    </g>
    <g id="shape22" transform="matrix(1.0, 0.0, 0.0, 1.0, 0.0, -9.5)">
      <path d="M62.6 11.2 L62.8 11.4 62.85 11.4 63.05 11.2 Q67.0 15.2 72.45 17.7 L67.25 19.25 Q56.5 19.1 53.55 10.4 56.65 8.3 62.6 11.2 M16.95 18.6 Q12.95 24.3 5.85 28.8 1.95 30.8 0.0 29.6 L11.15 16.35 Q17.2 13.25 16.95 18.6" fill="#ff6600" fill-rule="evenodd" stroke="none"/>
    </g>
    <g id="shape23" transform="matrix(1.0, 0.0, 0.0, 1.0, -1.95, -17.65)">
      <path d="M64.6 18.55 L65.9 19.95 Q69.85 23.95 75.3 26.45 L70.1 28.0 Q60.85 28.85 56.4 21.35 M14.0 25.1 L2.85 38.35 Q4.8 39.55 8.7 37.55 15.45 34.9 20.2 26.95" fill="none" stroke="#000000" stroke-linecap="round" stroke-linejoin="round" stroke-width="1.8"/>
    </g>
    <g id="sprite30" transform="matrix(1.0, 0.0, 0.0, 1.0, -5.4, -7.85)">
      <use ffdec:characterId="998" height="51.6" id="mc100" transform="matrix(1.0, 0.0, 0.0, 1.0, 6.35, 8.75)" width="68.75" xlink:href="#sprite31"/>
      <use ffdec:characterId="999" height="53.4" transform="matrix(1.0, 0.0, 0.0, 1.0, 5.4, 7.85)" width="70.6" xlink:href="#shape25"/>
    </g>
    <g id="sprite31" transform="matrix(1.0, 0.0, 0.0, 1.0, -3.5, 0.0)">
      <use ffdec:characterId="997" height="51.6" transform="matrix(1.0, 0.0, 0.0, 1.0, 3.5, 0.0)" width="68.75" xlink:href="#shape24"/>
    </g>
    <g id="shape24" transform="matrix(1.0, 0.0, 0.0, 1.0, -3.5, 0.0)">
      <path d="M61.65 10.1 L67.25 19.25 Q70.9 27.8 72.25 39.9 L71.65 40.1 66.8 36.85 66.35 36.75 Q64.4 44.6 61.15 50.8 59.1 28.3 48.45 10.0 L48.15 10.05 Q49.6 16.6 49.05 23.15 L48.75 23.45 37.55 11.45 37.15 18.65 32.1 11.9 25.8 18.75 23.15 13.2 Q17.8 25.1 15.8 38.75 L15.35 38.65 11.75 24.5 13.75 48.15 13.45 48.35 11.1 44.55 7.45 51.6 9.3 39.9 9.1 39.75 3.8 45.6 3.5 45.35 Q4.2 36.25 6.4 29.0 L11.15 16.35 Q13.6 11.25 17.25 7.5 27.2 -1.1 40.95 0.15 53.4 1.6 61.55 10.0 L61.65 10.1" fill="#ff6600" fill-rule="evenodd" stroke="none"/>
    </g>
    <g id="shape25" transform="matrix(1.0, 0.0, 0.0, 1.0, -5.4, -7.85)">
      <path d="M51.9 31.9 Q52.45 25.35 51.0 18.8 M51.3 18.75 Q61.95 37.05 64.0 59.55 67.25 53.35 69.2 45.5 L70.25 40.55 M69.65 45.6 L74.5 48.85 M75.1 48.65 Q73.75 36.55 70.1 28.0 68.2 23.6 65.7 20.15 L65.65 20.15 64.4 18.75 Q56.25 10.35 43.8 8.9 30.05 7.65 20.1 16.25 16.45 20.0 14.0 25.1 12.2 28.65 11.05 32.95 L10.75 33.5 9.25 37.75 Q7.05 45.0 6.35 54.1 L14.65 34.1 14.6 33.25 18.2 47.4 M18.65 47.5 Q20.65 33.85 26.0 21.95 L28.65 27.5 34.95 20.65 40.0 27.4 40.4 20.2 51.6 32.2 M6.35 54.1 L6.3 54.7 11.95 48.5 M16.3 57.1 L13.95 53.3 10.3 60.35 12.15 48.65 M16.6 56.9 L14.65 34.1" fill="none" stroke="#000000" stroke-linecap="round" stroke-linejoin="round" stroke-width="1.8"/>
    </g>
    <g id="sprite32" transform="matrix(1.0, 0.0, 0.0, 1.0, 1.8, 0.9)">
      <use ffdec:characterId="205" height="18.5" id="mc000" transform="matrix(1.0, 0.0, 0.0, 1.0, -1.8, -0.9)" width="27.7" xlink:href="#sprite33"/>
    </g>
    <g id="sprite33" transform="matrix(1.0, 0.0, 0.0, 1.0, 1.8, 0.9)">
      <use ffdec:characterId="203" height="16.7" id="mc100" transform="matrix(1.0, 0.0, 0.0, 1.0, -0.9, 0.0)" width="25.9" xlink:href="#sprite34"/>
      <use ffdec:characterId="204" height="18.5" transform="matrix(1.0, 0.0, 0.0, 1.0, -1.8, -0.9)" width="27.7" xlink:href="#shape27"/>
    </g>
    <g id="sprite34" transform="matrix(1.0, 0.0, 0.0, 1.0, 0.0, 0.0)">
      <use ffdec:characterId="107" height="16.7" transform="matrix(1.0, 0.0, 0.0, 1.0, 0.0, 0.0)" width="25.9" xlink:href="#shape26"/>
    </g>
    <g id="shape26" transform="matrix(1.0, 0.0, 0.0, 1.0, 0.0, 0.0)">
      <path d="M24.65 6.0 L25.9 9.9 Q20.35 14.65 13.2 16.7 L13.05 12.65 10.1 12.65 9.75 14.7 Q3.7 14.5 0.0 9.25 L1.7 6.0 2.3 0.0 Q13.05 1.35 23.8 0.5 L24.65 6.0" fill="#ffcc00" fill-rule="evenodd" stroke="none"/>
    </g>
    <g id="shape27" transform="matrix(1.0, 0.0, 0.0, 1.0, 1.8, 0.9)">
      <path d="M23.3 3.25 L23.75 6.0 25.0 9.9 Q19.45 14.65 12.3 16.7 L12.15 12.65 9.2 12.65 8.85 14.7 Q2.8 14.5 -0.9 9.25 L0.8 6.0 1.1 3.0 1.4 0.0 Q12.15 1.35 22.9 0.5 L23.3 3.25 Q12.0 3.6 1.1 3.0 M12.15 12.65 L12.15 6.0 0.8 6.0 M23.75 6.0 L12.15 6.0" fill="none" stroke="#000000" stroke-linecap="round" stroke-linejoin="round" stroke-width="1.8"/>
    </g>
  </defs>
</svg>
