<?xml version="1.0" encoding="UTF-8" standalone="no"?>
<svg xmlns:ffdec="https://www.free-decompiler.com/flash" xmlns:xlink="http://www.w3.org/1999/xlink" ffdec:objectType="frame" height="105.9px" width="109.8px" xmlns="http://www.w3.org/2000/svg">
  <g transform="matrix(1.0, 0.0, 0.0, 1.0, 45.05, 103.05)">
    <use ffdec:characterId="172" height="79.3" id="mc21290" transform="matrix(0.9808, 0.1917, -0.1917, 0.9808, -15.9102, -96.8053)" width="74.0" xlink:href="#sprite0"/>
    <use ffdec:characterId="173" height="18.85" id="mc20290" transform="matrix(0.7626, 0.6435, -0.6435, 0.7626, -5.2113, -23.4799)" width="10.9" xlink:href="#sprite6"/>
    <use ffdec:characterId="173" height="18.85" id="mc19290" transform="matrix(0.9946, 0.101, -0.101, 0.9946, 3.8866, -18.0483)" width="10.9" xlink:href="#sprite6"/>
    <use ffdec:characterId="178" height="18.55" id="mc18290" transform="matrix(0.0093, 0.9959, -0.9959, 0.0093, 2.3908, -45.2499)" width="15.75" xlink:href="#sprite7"/>
    <use ffdec:characterId="178" height="18.55" id="mc17290" transform="matrix(-0.2873, 0.9546, 0.9546, 0.2873, 13.805, -45.9213)" width="15.75" xlink:href="#sprite7"/>
    <use ffdec:characterId="181" height="20.65" id="mc16290" transform="matrix(0.9174, 0.3949, -0.3949, 0.9174, 6.0168, -44.5276)" width="21.15" xlink:href="#sprite10"/>
    <use ffdec:characterId="185" height="22.9" id="mc15290" transform="matrix(0.9582, 0.2798, -0.2798, 0.9582, 2.414, -47.1844)" width="23.0" xlink:href="#sprite13"/>
    <use ffdec:characterId="186" height="21.35" id="mc14290" transform="matrix(0.9982, 0.0568, -0.0568, 0.9982, -7.85, -35.5)" width="23.6" xlink:href="#sprite16"/>
    <use ffdec:characterId="189" height="10.05" id="mc13290" transform="matrix(0.9582, 0.2798, -0.2798, 0.9582, -1.7106, -41.1642)" width="12.85" xlink:href="#sprite17"/>
    <use ffdec:characterId="190" height="10.05" id="mc12290" transform="matrix(0.9582, 0.2798, -0.2798, 0.9582, 12.8394, -37.3142)" width="12.85" xlink:href="#sprite20"/>
    <use ffdec:characterId="1035" height="15.2" transform="matrix(1.0, 0.0, 0.0, 1.0, 52.55, -14.05)" width="9.55" xlink:href="#morphshape0"/>
    <use ffdec:characterId="1008" height="48.9" id="mc10290" transform="matrix(0.9905, -0.1311, 0.1311, 0.9905, 9.4405, -69.9735)" width="43.5" xlink:href="#sprite21"/>
    <use ffdec:characterId="1036" height="11.1" transform="matrix(1.0, 0.0, 0.0, 1.0, 36.85, -45.7)" width="14.05" xlink:href="#morphshape1"/>
    <use ffdec:characterId="1037" height="6.85" transform="matrix(1.0, 0.0, 0.0, 1.0, 21.4, -39.55)" width="18.25" xlink:href="#morphshape2"/>
    <use ffdec:characterId="1014" height="12.5" id="mc7290" transform="matrix(0.9905, -0.1311, 0.1311, 0.9905, 37.8799, -30.9264)" width="14.55" xlink:href="#sprite23"/>
    <use ffdec:characterId="1038" height="6.85" transform="matrix(1.0, 0.0, 0.0, 1.0, 36.85, -38.15)" width="12.5" xlink:href="#morphshape3"/>
    <use ffdec:characterId="1039" height="4.1" transform="matrix(1.0, 0.0, 0.0, 1.0, 21.8, -34.85)" width="17.35" xlink:href="#morphshape4"/>
    <use ffdec:characterId="1020" height="69.2" id="mc3290" transform="matrix(0.9905, -0.1311, 0.1311, 0.9905, -13.7095, -88.9235)" width="66.9" xlink:href="#sprite25"/>
    <use ffdec:characterId="206" height="18.5" id="mc2290" transform="matrix(0.9582, 0.2798, -0.2798, 0.9582, -6.223, -28.916)" width="27.7" xlink:href="#sprite27"/>
    <use ffdec:characterId="1027" height="17.75" id="hide_hat8" transform="matrix(0.9905, -0.1311, 0.1311, 0.9905, 26.9807, -70.5901)" width="35.8" xlink:href="#sprite30"/>
    <use ffdec:characterId="984" height="0.0" id="hat" transform="matrix(1.0, 0.0, 0.0, 1.0, 0.0, 0.0)" width="0.0" xlink:href="#sprite34"/>
  </g>
  <defs>
    <g id="sprite0" transform="matrix(1.0, 0.0, 0.0, 1.0, 0.9, 0.9)">
      <use ffdec:characterId="169" height="66.3" id="mc200" transform="matrix(1.0, 0.0, 0.0, 1.0, 6.8, 9.25)" width="63.0" xlink:href="#sprite1"/>
      <use ffdec:characterId="171" height="53.85" id="mc100" transform="matrix(1.0, 0.0, 0.0, 1.0, 16.75, 18.6)" width="50.35" xlink:href="#sprite4"/>
      <use ffdec:characterId="9" height="79.3" transform="matrix(1.0, 0.0, 0.0, 1.0, -0.9, -0.9)" width="74.0" xlink:href="#shape2"/>
    </g>
    <g id="sprite1" transform="matrix(1.0, 0.0, 0.0, 1.0, 0.0, 0.0)">
      <use ffdec:characterId="168" height="66.3" id="mc000" transform="matrix(1.0, 0.0, 0.0, 1.0, 0.0, 0.0)" width="63.0" xlink:href="#sprite2"/>
    </g>
    <g id="sprite2" transform="matrix(1.0, 0.0, 0.0, 1.0, 0.0, 0.0)">
      <use ffdec:characterId="167" height="66.3" id="mc000" transform="matrix(1.0, 0.0, 0.0, 1.0, 0.0, 0.0)" width="63.0" xlink:href="#sprite3"/>
    </g>
    <g id="sprite3" transform="matrix(1.0, 0.0, 0.0, 1.0, 0.0, 0.0)">
      <use ffdec:characterId="1" height="66.3" transform="matrix(1.0, 0.0, 0.0, 1.0, 0.0, 0.0)" width="63.0" xlink:href="#shape0"/>
    </g>
    <g id="shape0" transform="matrix(1.0, 0.0, 0.0, 1.0, 0.0, 0.0)">
      <path d="M60.3 9.35 L48.15 9.55 51.45 0.8 63.0 0.0 60.3 9.35 M11.2 50.8 L9.95 63.2 0.0 66.3 2.35 55.3 11.2 50.8" fill="#00cc99" fill-rule="evenodd" stroke="none"/>
    </g>
    <g id="sprite4" transform="matrix(1.0, 0.0, 0.0, 1.0, 0.0, 0.0)">
      <use ffdec:characterId="170" height="53.85" id="mc000" transform="matrix(1.0, 0.0, 0.0, 1.0, 0.0, 0.0)" width="50.35" xlink:href="#sprite5"/>
    </g>
    <g id="sprite5" transform="matrix(1.0, 0.0, 0.0, 1.0, 0.0, 0.0)">
      <use ffdec:characterId="6" height="53.85" transform="matrix(1.0, 0.0, 0.0, 1.0, 0.0, 0.0)" width="50.35" xlink:href="#shape1"/>
    </g>
    <g id="shape1" transform="matrix(1.0, 0.0, 0.0, 1.0, 0.0, 0.0)">
      <path d="M38.2 0.2 L50.35 0.0 Q44.35 19.8 36.1 40.2 18.3 47.9 0.0 53.85 L1.25 41.45 Q12.7 35.7 24.15 29.9 32.25 15.3 38.2 0.2" fill="#006666" fill-rule="evenodd" stroke="none"/>
    </g>
    <g id="shape2" transform="matrix(1.0, 0.0, 0.0, 1.0, 0.9, 0.9)">
      <path d="M58.25 10.05 L59.4 6.6 Q63.9 -0.95 72.2 0.15 L69.8 9.25 58.25 10.05 M9.15 64.55 L6.8 75.55 0.0 77.5 5.15 66.55 9.15 64.55" fill="#fafff5" fill-rule="evenodd" stroke="none"/>
      <path d="M54.95 18.8 Q49.0 33.9 40.9 48.5 L18.0 60.05 16.75 72.45 Q35.05 66.5 52.85 58.8 61.1 38.4 67.1 18.6 L54.95 18.8 58.25 10.05 59.4 6.6 Q63.9 -0.95 72.2 0.15 L69.8 9.25 67.1 18.6 M58.25 10.05 L69.8 9.25 M9.15 64.55 L6.8 75.55 16.75 72.45 M6.8 75.55 L0.0 77.5 5.15 66.55 9.15 64.55 18.0 60.05" fill="none" stroke="#000000" stroke-linecap="round" stroke-linejoin="round" stroke-width="1.8"/>
    </g>
    <g id="sprite6" transform="matrix(1.0, 0.0, 0.0, 1.0, 4.95, 9.5)">
      <use ffdec:characterId="18" height="18.85" transform="matrix(1.0, 0.0, 0.0, 1.0, -4.95, -9.5)" width="10.9" xlink:href="#shape3"/>
    </g>
    <g id="shape3" transform="matrix(1.0, 0.0, 0.0, 1.0, 4.95, 9.5)">
      <path d="M5.05 5.55 L5.05 5.7 Q5.15 6.65 3.9 7.45 2.7 8.25 0.95 8.4 -0.8 8.55 -2.15 7.95 -3.45 7.45 -3.55 6.5 L-3.55 6.35 -3.5 6.35 4.7 5.5 5.05 5.55" fill="#000000" fill-rule="evenodd" stroke="none"/>
      <path d="M-3.55 6.1 L-3.65 3.85 -4.05 -6.3 Q-4.1 -7.15 -3.15 -7.75 -2.1 -8.4 -0.55 -8.55 L2.1 -8.25 Q3.15 -7.75 3.3 -7.0 L3.35 -6.85 3.35 -6.65 4.7 3.05 5.05 5.45 4.7 5.5 -3.5 6.35 -3.55 6.1 M4.7 3.05 L-3.65 3.85 4.7 3.05" fill="#ffffff" fill-rule="evenodd" stroke="none"/>
      <path d="M-3.55 6.1 L-3.65 3.85 -4.05 -6.3 Q-4.1 -7.15 -3.15 -7.75 -2.1 -8.4 -0.55 -8.55 L2.1 -8.25 Q3.15 -7.75 3.3 -7.0 L3.35 -6.85 3.35 -6.65 4.7 3.05 5.05 5.45 5.05 5.55 5.05 5.7 Q5.15 6.65 3.9 7.45 2.7 8.25 0.95 8.4 -0.8 8.55 -2.15 7.95 -3.45 7.45 -3.55 6.5 L-3.55 6.35 -3.55 6.1 M-3.5 6.35 L4.7 5.5 M-3.55 6.35 L-3.5 6.35 M-3.65 3.85 L4.7 3.05" fill="none" stroke="#000000" stroke-linecap="round" stroke-linejoin="round" stroke-width="1.8"/>
    </g>
    <g id="sprite7" transform="matrix(1.0, 0.0, 0.0, 1.0, 7.85, 8.8)">
      <use ffdec:characterId="174" height="6.5" id="mc400" transform="matrix(1.0, 0.0, 0.0, 1.0, -5.35, 2.35)" width="7.55" xlink:href="#sprite8"/>
      <use ffdec:characterId="175" height="16.1" transform="matrix(1.0, 0.0, 0.0, 1.0, -6.25, -6.35)" width="14.15" xlink:href="#shape5"/>
      <use ffdec:characterId="176" height="15.5" id="mc200" transform="matrix(1.0, 0.0, 0.0, 1.0, -6.95, -7.9)" width="13.95" xlink:href="#sprite9"/>
      <use ffdec:characterId="177" height="17.3" transform="matrix(1.0, 0.0, 0.0, 1.0, -7.85, -8.8)" width="15.75" xlink:href="#shape7"/>
    </g>
    <g id="sprite8" transform="matrix(1.0, 0.0, 0.0, 1.0, 0.0, 0.0)">
      <use ffdec:characterId="12" height="6.5" transform="matrix(1.0, 0.0, 0.0, 1.0, 0.0, 0.0)" width="7.55" xlink:href="#shape4"/>
    </g>
    <g id="shape4" transform="matrix(1.0, 0.0, 0.0, 1.0, 0.0, 0.0)">
      <path d="M6.45 2.8 L7.55 2.7 7.1 3.95 Q6.5 5.65 5.2 6.2 3.75 6.8 2.3 6.2 0.8 5.55 0.2 4.15 -0.3 2.8 0.5 1.2 L1.1 0.0 Q2.7 2.0 4.75 2.55 L6.3 2.9 6.45 2.8" fill="#b59155" fill-rule="evenodd" stroke="none"/>
    </g>
    <g id="shape5" transform="matrix(1.0, 0.0, 0.0, 1.0, 6.25, 6.35)">
      <path d="M6.8 -4.7 L6.7 -4.4 7.0 -5.45 6.8 -4.7" fill="#ffffff" fill-rule="evenodd" stroke="none"/>
      <path d="M6.8 -4.7 L7.0 -5.45 6.7 -4.4 6.8 -4.7 3.75 2.45 2.2 5.05 1.75 6.3 Q1.15 8.0 -0.15 8.55 -1.6 9.15 -3.05 8.55 -4.55 7.9 -5.15 6.5 -5.65 5.15 -4.85 3.55 L-4.25 2.35 -4.1 1.95 M2.2 5.05 L1.1 5.15 M-2.55 -1.8 L-2.7 -1.55 M-0.6 4.9 Q-2.65 4.35 -4.25 2.35" fill="none" stroke="#000000" stroke-linecap="round" stroke-linejoin="round" stroke-width="1.8"/>
    </g>
    <g id="sprite9" transform="matrix(1.0, 0.0, 0.0, 1.0, 0.0, 0.0)">
      <use ffdec:characterId="14" height="15.5" transform="matrix(1.0, 0.0, 0.0, 1.0, 0.0, 0.0)" width="13.95" xlink:href="#shape6"/>
    </g>
    <g id="shape6" transform="matrix(1.0, 0.0, 0.0, 1.0, 0.0, 0.0)">
      <path d="M10.4 10.55 L10.7 10.75 8.8 15.5 8.75 15.5 8.5 15.4 7.2 13.05 4.05 14.4 3.95 14.15 3.6 10.9 3.35 10.55 0.0 10.55 4.3 6.05 4.4 6.15 5.05 5.25 Q10.05 0.45 11.25 0.15 12.45 -0.25 13.25 0.4 14.1 1.05 13.95 2.25 L13.95 2.45 13.65 3.5 10.4 10.55" fill="#ffffff" fill-rule="evenodd" stroke="none"/>
    </g>
    <g id="shape7" transform="matrix(1.0, 0.0, 0.0, 1.0, 7.85, 8.8)">
      <path d="M-2.65 -1.85 L-6.95 2.65 -3.4 2.65 -3.0 6.25 M1.85 7.6 L3.75 2.85 M-2.9 6.5 L0.25 5.15 1.55 7.5 M3.35 2.6 L-2.45 -1.7" fill="none" stroke="#000000" stroke-linecap="round" stroke-linejoin="round" stroke-width="1.8"/>
      <path d="M7.0 -5.65 Q7.15 -6.85 6.3 -7.5 5.5 -8.15 4.3 -7.75 3.1 -7.45 -1.9 -2.65 M6.7 -4.4 L3.5 2.9" fill="none" stroke="#000000" stroke-linecap="round" stroke-linejoin="round" stroke-width="1.8"/>
    </g>
    <g id="sprite10" transform="matrix(1.0, 0.0, 0.0, 1.0, 0.05, 5.35)">
      <use ffdec:characterId="81" height="20.65" transform="matrix(1.0, 0.0, 0.0, 1.0, -0.05, -5.35)" width="21.15" xlink:href="#shape8"/>
      <use ffdec:characterId="180" height="18.85" id="mc001" transform="matrix(1.0, 0.0, 0.0, 1.0, 0.85, -4.45)" width="19.35" xlink:href="#sprite11"/>
    </g>
    <g id="shape8" transform="matrix(1.0, 0.0, 0.0, 1.0, 0.05, 5.35)">
      <path d="M18.55 -4.45 L20.2 13.7 14.15 14.2 8.6 14.4 0.85 14.15 1.7 -3.95 18.55 -4.45 Z" fill="none" stroke="#000000" stroke-linecap="round" stroke-linejoin="round" stroke-width="1.8"/>
    </g>
    <g id="sprite11" transform="matrix(1.0, 0.0, 0.0, 1.0, 0.0, 0.0)">
      <use ffdec:characterId="179" height="18.85" id="mc000" transform="matrix(1.0, 0.0, 0.0, 1.0, 0.0, 0.0)" width="19.35" xlink:href="#sprite12"/>
    </g>
    <g id="sprite12" transform="matrix(1.0, 0.0, 0.0, 1.0, 0.0, 0.0)">
      <use ffdec:characterId="82" height="18.85" transform="matrix(1.0, 0.0, 0.0, 1.0, 0.0, 0.0)" width="19.35" xlink:href="#shape9"/>
    </g>
    <g id="shape9" transform="matrix(1.0, 0.0, 0.0, 1.0, 0.0, 0.0)">
      <path d="M19.35 18.15 L13.3 18.65 7.75 18.85 0.0 18.6 0.85 0.5 17.7 0.0 19.35 18.15" fill="#b59155" fill-rule="evenodd" stroke="none"/>
    </g>
    <g id="sprite13" transform="matrix(1.0, 0.0, 0.0, 1.0, 0.9, 7.6)">
      <use ffdec:characterId="183" height="21.1" id="mc100" transform="matrix(1.0, 0.0, 0.0, 1.0, 0.0, -6.7)" width="21.2" xlink:href="#sprite14"/>
      <use ffdec:characterId="184" height="22.9" transform="matrix(1.0, 0.0, 0.0, 1.0, -0.9, -7.6)" width="23.0" xlink:href="#shape11"/>
    </g>
    <g id="sprite14" transform="matrix(1.0, 0.0, 0.0, 1.0, 0.0, 0.0)">
      <use ffdec:characterId="182" height="21.1" id="mc000" transform="matrix(1.0, 0.0, 0.0, 1.0, 0.0, 0.0)" width="21.2" xlink:href="#sprite15"/>
    </g>
    <g id="sprite15" transform="matrix(1.0, 0.0, 0.0, 1.0, 0.0, 0.0)">
      <use ffdec:characterId="86" height="21.1" transform="matrix(1.0, 0.0, 0.0, 1.0, 0.0, 0.0)" width="21.2" xlink:href="#shape10"/>
    </g>
    <g id="shape10" transform="matrix(1.0, 0.0, 0.0, 1.0, 0.0, 0.0)">
      <path d="M21.2 20.3 L14.55 20.9 13.7 0.2 19.35 0.0 21.2 20.3 M8.5 21.1 L0.0 20.8 0.95 0.6 8.1 0.6 8.5 21.1" fill="#ffffff" fill-rule="evenodd" stroke="none"/>
    </g>
    <g id="shape11" transform="matrix(1.0, 0.0, 0.0, 1.0, 0.9, 7.6)">
      <path d="M19.35 -6.7 L21.2 13.6 14.55 14.2 13.7 -6.5 19.35 -6.7 M8.5 14.4 L0.0 14.1 0.95 -6.1 8.1 -6.1 8.5 13.65" fill="none" stroke="#000000" stroke-linecap="round" stroke-linejoin="round" stroke-width="1.8"/>
    </g>
    <g id="sprite16" transform="matrix(1.0, 0.0, 0.0, 1.0, 0.0, 0.0)">
      <use ffdec:characterId="33" height="21.35" transform="matrix(1.0, 0.0, 0.0, 1.0, 0.0, 0.0)" width="23.6" xlink:href="#shape12"/>
    </g>
    <g id="shape12" transform="matrix(1.0, 0.0, 0.0, 1.0, 0.0, 0.0)">
      <path d="M22.2 0.0 L23.6 1.6 23.3 2.05 Q11.6 13.1 0.3 21.35 L0.0 21.3 0.7 18.35 22.2 0.0" fill="#000000" fill-rule="evenodd" stroke="none"/>
    </g>
    <g id="sprite17" transform="matrix(1.0, 0.0, 0.0, 1.0, 0.9, 0.9)">
      <use ffdec:characterId="188" height="10.05" id="mc000" transform="matrix(1.0, 0.0, 0.0, 1.0, -0.9, -0.9)" width="12.85" xlink:href="#sprite18"/>
    </g>
    <g id="sprite18" transform="matrix(1.0, 0.0, 0.0, 1.0, 0.9, 0.9)">
      <use ffdec:characterId="187" height="8.25" id="mc100" transform="matrix(1.0, 0.0, 0.0, 1.0, 0.0, 0.0)" width="11.05" xlink:href="#sprite19"/>
      <use ffdec:characterId="36" height="10.05" transform="matrix(1.0, 0.0, 0.0, 1.0, -0.9, -0.9)" width="12.85" xlink:href="#shape14"/>
    </g>
    <g id="sprite19" transform="matrix(1.0, 0.0, 0.0, 1.0, 0.0, 0.0)">
      <use ffdec:characterId="34" height="8.25" transform="matrix(1.0, 0.0, 0.0, 1.0, 0.0, 0.0)" width="11.05" xlink:href="#shape13"/>
    </g>
    <g id="shape13" transform="matrix(1.0, 0.0, 0.0, 1.0, 0.0, 0.0)">
      <path d="M7.5 5.75 L3.6 8.25 3.2 4.7 0.0 4.7 3.35 0.0 10.1 1.1 11.05 8.25 7.5 5.75" fill="#ffffff" fill-rule="evenodd" stroke="none"/>
    </g>
    <g id="shape14" transform="matrix(1.0, 0.0, 0.0, 1.0, 0.9, 0.9)">
      <path d="M10.1 1.1 L11.05 8.25 7.5 5.75 3.6 8.25 3.2 4.7 0.0 4.7 3.35 0.0 10.1 1.1 Z" fill="none" stroke="#000000" stroke-linecap="round" stroke-linejoin="round" stroke-width="1.8"/>
    </g>
    <g id="sprite20" transform="matrix(1.0, 0.0, 0.0, 1.0, 0.9, 0.9)">
      <use ffdec:characterId="188" height="10.05" id="mc000" transform="matrix(-1.0, 0.0, 0.0, 1.0, 11.95, -0.9)" width="12.85" xlink:href="#sprite18"/>
    </g>
    <g id="morphshape0" transform="matrix(1.0, 0.0, 0.0, 1.0, -52.55, 14.05)">
      <path d="M53.85 -5.75 L53.85 -5.7 53.85 -5.65 53.85 -5.55 53.85 -5.45 53.9 -5.35 54.65 -5.1 56.75 -4.8 58.45 -4.85 58.65 -4.85 58.65 -4.85 59.6 -5.0 Q60.05 -5.1 60.4 -5.25 L61.25 -5.65 61.55 -5.85 61.55 -5.85 61.8 -6.05 61.8 -6.05 61.85 -6.15 61.85 -6.85 61.8 -7.0 61.75 -7.0 61.6 -7.1 61.45 -7.2 60.8 -7.55 60.5 -7.65 60.45 -7.65 60.45 -7.65 59.9 -7.8 59.45 -7.9 59.2 -7.95 59.1 -7.95 59.0 -7.95 58.85 -7.95 58.7 -7.95 58.5 -8.0 58.5 -8.0 57.5 -8.25 57.4 -8.25 57.25 -8.25 56.45 -7.85 55.95 -7.65 55.8 -7.55 55.5 -7.4 55.05 -7.15 54.9 -7.05 54.9 -7.05 54.85 -6.95 54.85 -6.95 54.5 -6.75 54.5 -6.65 54.65 -6.45 54.65 -6.45 54.5 -6.3 53.95 -5.75" fill="#666600" fill-rule="evenodd" stroke="none"/>
      <path d="M53.95 -5.75 L54.5 -6.3 54.65 -6.45 54.65 -6.45 54.5 -6.65 54.5 -6.75 54.85 -6.95 54.85 -6.95 54.9 -7.05 54.9 -7.05 55.05 -7.15 55.5 -7.4 55.8 -7.55 55.95 -7.65 56.45 -7.85 57.25 -8.25 57.4 -8.25 57.5 -8.25 58.5 -8.0 58.5 -8.0 58.7 -7.95 58.85 -7.95 59.0 -7.95 59.1 -7.95 59.2 -7.95 59.45 -7.9 59.9 -7.8 60.45 -7.65 60.45 -7.65 60.5 -7.65 60.8 -7.55 61.45 -7.2 61.6 -7.1 61.75 -7.0 61.8 -7.0 61.85 -6.85 61.85 -6.15 61.8 -6.05 61.8 -6.05 61.55 -5.85 61.55 -5.85 61.25 -5.65 60.4 -5.25 Q60.05 -5.1 59.6 -5.0 L58.65 -4.85 58.65 -4.85 58.45 -4.85 56.75 -4.8 54.65 -5.1 53.9 -5.35 53.85 -5.45 53.85 -5.55 53.85 -5.65 53.85 -5.7 53.85 -5.75" fill="none" stroke="#000000" stroke-linecap="round" stroke-linejoin="round" stroke-opacity="0.0" stroke-width="0.0"/>
    </g>
    <g id="sprite21" transform="matrix(1.0, 0.0, 0.0, 1.0, 0.9, 0.9)">
      <use ffdec:characterId="1006" height="47.1" id="mc100" transform="matrix(1.0, 0.0, 0.0, 1.0, 0.0, 0.0)" width="41.7" xlink:href="#sprite22"/>
      <use ffdec:characterId="1007" height="48.9" transform="matrix(1.0, 0.0, 0.0, 1.0, -0.9, -0.9)" width="43.5" xlink:href="#shape16"/>
    </g>
    <g id="sprite22" transform="matrix(1.0, 0.0, 0.0, 1.0, 0.0, 0.0)">
      <use ffdec:characterId="1005" height="47.1" transform="matrix(1.0, 0.0, 0.0, 1.0, 0.0, 0.0)" width="41.7" xlink:href="#shape15"/>
    </g>
    <g id="shape15" transform="matrix(1.0, 0.0, 0.0, 1.0, 0.0, 0.0)">
      <path d="M12.6 0.0 L33.75 4.15 41.7 18.55 Q39.6 29.45 33.65 37.2 L33.05 37.7 Q32.1 48.4 22.4 46.9 12.15 46.6 4.85 41.2 L0.0 16.85 12.6 0.0" fill="#c4a44a" fill-rule="evenodd" stroke="none"/>
    </g>
    <g id="shape16" transform="matrix(1.0, 0.0, 0.0, 1.0, 0.9, 0.9)">
      <path d="M12.6 0.0 L0.0 16.85 4.85 41.2 Q12.15 46.6 22.4 46.9 32.1 48.4 33.05 37.7 L33.65 37.2 Q39.6 29.45 41.7 18.55 L33.75 4.15 12.6 0.0 Z" fill="none" stroke="#000000" stroke-linecap="round" stroke-linejoin="round" stroke-width="1.8"/>
    </g>
    <g id="morphshape1" transform="matrix(1.0, 0.0, 0.0, 1.0, -36.85, 45.7)">
      <path d="M44.6 -38.4 L50.3 -45.1" fill="none" stroke="#000000" stroke-linecap="round" stroke-linejoin="round" stroke-width="1.2000000000000002"/>
    </g>
    <g id="morphshape2" transform="matrix(1.0, 0.0, 0.0, 1.0, -21.4, 39.55)">
      <path d="M28.95 -38.95 Q34.55 -38.8 39.05 -35.75" fill="none" stroke="#000000" stroke-linecap="round" stroke-linejoin="round" stroke-width="1.2000000000000002"/>
    </g>
    <g id="sprite23" transform="matrix(1.0, 0.0, 0.0, 1.0, 0.9, 0.6)">
      <use ffdec:characterId="1012" height="9.85" id="mc100" transform="matrix(1.0, 0.0, 0.0, 1.0, 0.0, 0.0)" width="12.75" xlink:href="#sprite24"/>
      <use ffdec:characterId="1013" height="12.5" transform="matrix(1.0, 0.0, 0.0, 1.0, -0.9, -0.6)" width="14.55" xlink:href="#shape18"/>
    </g>
    <g id="sprite24" transform="matrix(1.0, 0.0, 0.0, 1.0, 0.0, 0.0)">
      <use ffdec:characterId="1011" height="9.85" transform="matrix(1.0, 0.0, 0.0, 1.0, 0.0, 0.0)" width="12.75" xlink:href="#shape17"/>
    </g>
    <g id="shape17" transform="matrix(1.0, 0.0, 0.0, 1.0, 0.0, 0.0)">
      <path d="M10.85 6.85 L10.8 6.85 8.15 6.9 8.0 6.9 7.8 6.85 Q7.6 8.6 6.35 9.25 5.45 9.7 3.7 9.75 L3.35 9.85 0.0 4.2 0.0 3.75 8.85 0.0 8.95 0.3 12.75 4.45 Q12.75 6.4 10.85 6.85" fill="#c4a44a" fill-rule="evenodd" stroke="none"/>
    </g>
    <g id="shape18" transform="matrix(1.0, 0.0, 0.0, 1.0, 0.9, 0.6)">
      <path d="M8.15 6.9 L10.8 6.85 Q12.75 8.9 10.75 10.6 8.85 11.8 6.35 9.25 7.6 8.6 7.8 6.85 L8.0 6.9 8.15 6.9 9.05 8.65 8.15 6.9" fill="#cc6666" fill-rule="evenodd" stroke="none"/>
      <path d="M8.15 6.9 L8.0 6.9 7.8 6.85 Q7.6 8.6 6.35 9.25 8.85 11.8 10.75 10.6 12.75 8.9 10.8 6.85 L8.15 6.9 9.05 8.65 M10.8 6.85 L10.85 6.85 Q12.75 6.4 12.75 4.45 L8.95 0.3 M6.35 9.25 Q5.45 9.7 3.7 9.75 L3.35 9.85 0.0 4.2" fill="none" stroke="#000000" stroke-linecap="round" stroke-linejoin="round" stroke-width="1.8"/>
    </g>
    <g id="morphshape3" transform="matrix(1.0, 0.0, 0.0, 1.0, -36.85, 38.15)">
      <path d="M45.05 -35.15 Q47.25 -35.6 48.75 -37.55" fill="none" stroke="#000000" stroke-linecap="round" stroke-linejoin="round" stroke-width="1.2000000000000002"/>
    </g>
    <g id="morphshape4" transform="matrix(1.0, 0.0, 0.0, 1.0, -21.8, 34.85)">
      <path d="M29.95 -34.25 Q34.35 -33.05 38.55 -33.75" fill="none" stroke="#000000" stroke-linecap="round" stroke-linejoin="round" stroke-width="1.2000000000000002"/>
    </g>
    <g id="sprite25" transform="matrix(1.0, 0.0, 0.0, 1.0, 0.9, 0.9)">
      <use ffdec:characterId="1018" height="67.4" id="mc100" transform="matrix(1.0, 0.0, 0.0, 1.0, 0.0, 0.0)" width="65.1" xlink:href="#sprite26"/>
      <use ffdec:characterId="1019" height="69.2" transform="matrix(1.0, 0.0, 0.0, 1.0, -0.9, -0.9)" width="66.9" xlink:href="#shape20"/>
    </g>
    <g id="sprite26" transform="matrix(1.0, 0.0, 0.0, 1.0, 0.0, 0.0)">
      <use ffdec:characterId="1017" height="67.4" transform="matrix(1.0, 0.0, 0.0, 1.0, 0.0, 0.0)" width="65.1" xlink:href="#shape19"/>
    </g>
    <g id="shape19" transform="matrix(1.0, 0.0, 0.0, 1.0, 0.0, 0.0)">
      <path d="M64.85 26.8 L64.85 27.5 Q64.85 39.2 60.7 51.4 L56.65 40.05 Q54.7 47.0 50.55 51.65 L49.1 39.6 42.25 51.5 37.6 41.4 33.7 67.4 33.05 67.3 30.4 63.9 30.15 63.6 Q19.7 61.6 10.9 56.85 L13.65 55.6 0.0 41.65 4.8 41.95 4.85 41.25 Q4.35 22.55 10.75 9.85 10.85 9.7 11.0 9.65 30.3 -4.65 47.75 2.2 L47.9 2.4 Q62.9 10.8 65.1 26.75 L64.85 26.8" fill="#ff6600" fill-rule="evenodd" stroke="none"/>
    </g>
    <g id="shape20" transform="matrix(1.0, 0.0, 0.0, 1.0, 0.9, 0.9)">
      <path d="M37.7 40.8 L37.6 41.4 42.25 51.5 49.1 39.6 50.55 51.65 Q54.7 47.0 56.65 40.05 L60.7 51.4 Q64.85 39.2 64.85 27.5 L64.85 26.8 M65.1 26.75 Q62.9 10.8 47.9 2.4 L47.75 2.2 Q30.3 -4.65 11.0 9.65 10.85 9.7 10.75 9.85 4.35 22.55 4.85 41.25 M10.8 29.95 Q8.15 37.1 8.35 44.2 L15.45 37.05 Q20.75 51.15 30.15 63.6 L30.4 63.9 33.05 67.3 M4.8 41.95 L0.0 41.65 13.65 55.6 14.1 55.35 M30.15 63.6 Q19.7 61.6 10.9 56.85 L13.65 55.6 M33.7 67.4 L37.6 41.4" fill="none" stroke="#000000" stroke-linecap="round" stroke-linejoin="round" stroke-width="1.8"/>
    </g>
    <g id="sprite27" transform="matrix(1.0, 0.0, 0.0, 1.0, 1.8, 0.9)">
      <use ffdec:characterId="205" height="18.5" id="mc000" transform="matrix(1.0, 0.0, 0.0, 1.0, -1.8, -0.9)" width="27.7" xlink:href="#sprite28"/>
    </g>
    <g id="sprite28" transform="matrix(1.0, 0.0, 0.0, 1.0, 1.8, 0.9)">
      <use ffdec:characterId="203" height="16.7" id="mc100" transform="matrix(1.0, 0.0, 0.0, 1.0, -0.9, 0.0)" width="25.9" xlink:href="#sprite29"/>
      <use ffdec:characterId="204" height="18.5" transform="matrix(1.0, 0.0, 0.0, 1.0, -1.8, -0.9)" width="27.7" xlink:href="#shape22"/>
    </g>
    <g id="sprite29" transform="matrix(1.0, 0.0, 0.0, 1.0, 0.0, 0.0)">
      <use ffdec:characterId="107" height="16.7" transform="matrix(1.0, 0.0, 0.0, 1.0, 0.0, 0.0)" width="25.9" xlink:href="#shape21"/>
    </g>
    <g id="shape21" transform="matrix(1.0, 0.0, 0.0, 1.0, 0.0, 0.0)">
      <path d="M24.65 6.0 L25.9 9.9 Q20.35 14.65 13.2 16.7 L13.05 12.65 10.1 12.65 9.75 14.7 Q3.7 14.5 0.0 9.25 L1.7 6.0 2.3 0.0 Q13.05 1.35 23.8 0.5 L24.65 6.0" fill="#ffcc00" fill-rule="evenodd" stroke="none"/>
    </g>
    <g id="shape22" transform="matrix(1.0, 0.0, 0.0, 1.0, 1.8, 0.9)">
      <path d="M23.3 3.25 L23.75 6.0 25.0 9.9 Q19.45 14.65 12.3 16.7 L12.15 12.65 9.2 12.65 8.85 14.7 Q2.8 14.5 -0.9 9.25 L0.8 6.0 1.1 3.0 1.4 0.0 Q12.15 1.35 22.9 0.5 L23.3 3.25 Q12.0 3.6 1.1 3.0 M12.15 12.65 L12.15 6.0 0.8 6.0 M23.75 6.0 L12.15 6.0" fill="none" stroke="#000000" stroke-linecap="round" stroke-linejoin="round" stroke-width="1.8"/>
    </g>
    <g id="sprite30" transform="matrix(1.0, 0.0, 0.0, 1.0, 1.5, 1.4)">
      <use ffdec:characterId="1021" height="8.7" transform="matrix(1.0, 0.0, 0.0, 1.0, 7.6, 3.1)" width="23.9" xlink:href="#shape23"/>
      <use ffdec:characterId="1023" height="12.4" id="mc201" transform="matrix(1.0, 0.0, 0.0, 1.0, 5.4, 1.25)" width="28.3" xlink:href="#sprite31"/>
      <use ffdec:characterId="1024" height="13.7" id="mc202" transform="matrix(1.0, 0.0, 0.0, 1.0, 2.2, -0.8)" width="31.15" xlink:href="#sprite32"/>
      <use ffdec:characterId="1025" height="15.75" id="mc203" transform="matrix(1.0, 0.0, 0.0, 1.0, -0.9, 0.0)" width="26.35" xlink:href="#sprite33"/>
      <use ffdec:characterId="1026" height="17.75" transform="matrix(1.0, 0.0, 0.0, 1.0, -1.5, -1.4)" width="35.8" xlink:href="#shape27"/>
    </g>
    <g id="shape23" transform="matrix(1.0, 0.0, 0.0, 1.0, -7.6, -3.1)">
      <path d="M16.45 3.35 L16.95 3.35 17.3 3.6 16.5 11.4 16.45 11.7 16.45 3.35" fill="#999999" fill-rule="evenodd" stroke="none"/>
      <path d="M25.0 3.9 L31.5 4.45 31.0 9.75 Q30.5 11.55 29.35 11.8 L24.5 11.7 25.0 3.9 M14.45 9.4 Q13.9 11.3 12.7 11.55 L7.6 11.45 8.15 3.3 14.95 3.85 14.45 9.4" fill="#ccffff" fill-rule="evenodd" stroke="none"/>
      <path d="M16.95 3.35 L16.45 3.35 16.45 3.1 16.95 3.35" fill="#666666" fill-rule="evenodd" stroke="none"/>
    </g>
    <g id="sprite31" transform="matrix(1.0, 0.0, 0.0, 1.0, 0.0, 0.0)">
      <use ffdec:characterId="1022" height="12.4" transform="matrix(1.0, 0.0, 0.0, 1.0, 0.0, 0.0)" width="28.3" xlink:href="#shape24"/>
    </g>
    <g id="shape24" transform="matrix(1.0, 0.0, 0.0, 1.0, 0.0, 0.0)">
      <path d="M28.3 1.55 L27.5 9.35 Q27.1 11.95 24.4 12.4 L17.3 12.1 17.0 11.65 17.55 0.7 27.95 1.3 28.3 1.55 M25.6 8.5 L26.1 3.2 19.6 2.65 19.1 10.45 23.95 10.55 Q25.1 10.3 25.6 8.5 M11.0 9.4 Q10.65 10.8 9.6 11.6 8.8 12.1 7.75 12.25 L0.3 11.95 0.0 11.5 0.6 0.0 11.0 0.6 11.0 9.4 M9.05 8.15 L9.55 2.6 2.75 2.05 2.2 10.2 7.3 10.3 Q8.5 10.05 9.05 8.15" fill="#999999" fill-rule="evenodd" stroke="none"/>
    </g>
    <g id="sprite32" transform="matrix(1.0, 0.0, 0.0, 1.0, 0.0, 0.0)">
      <use ffdec:characterId="374" height="13.7" transform="matrix(1.0, 0.0, 0.0, 1.0, 0.0, 0.0)" width="31.15" xlink:href="#shape25"/>
    </g>
    <g id="shape25" transform="matrix(1.0, 0.0, 0.0, 1.0, 0.0, 0.0)">
      <path d="M26.7 1.2 L31.15 3.35 20.75 2.75 20.2 13.7 17.15 12.9 17.3 10.9 16.85 10.85 14.45 10.85 14.85 6.85 17.2 6.85 17.6 6.9 17.95 1.35 18.3 1.0 18.35 0.8 26.7 1.2 M14.2 2.65 L3.8 2.05 3.2 13.55 0.0 12.7 0.85 0.9 0.85 0.55 1.2 0.2 1.25 0.0 10.05 0.4 14.2 2.4 14.2 2.65" fill="#666666" fill-rule="evenodd" stroke="none"/>
    </g>
    <g id="sprite33" transform="matrix(1.0, 0.0, 0.0, 1.0, 0.05, 0.0)">
      <use ffdec:characterId="376" height="15.75" transform="matrix(1.0, 0.0, 0.0, 1.0, -0.05, 0.0)" width="26.35" xlink:href="#shape26"/>
    </g>
    <g id="shape26" transform="matrix(1.0, 0.0, 0.0, 1.0, 0.05, 0.0)">
      <path d="M26.3 13.5 Q24.35 15.8 21.55 15.65 19.4 15.35 18.85 13.05 L18.7 10.05 19.9 10.05 20.35 10.1 20.2 12.1 23.25 12.9 23.55 13.35 26.3 13.5 M20.25 6.05 L18.85 6.05 Q19.05 2.5 20.95 1.2 L20.65 6.1 20.25 6.05 M0.45 2.75 Q1.85 -0.45 3.9 0.1 L3.05 11.9 6.25 12.75 6.55 13.2 14.0 13.5 Q15.05 13.35 15.85 12.85 14.45 15.05 11.8 15.55 L11.05 15.65 Q7.7 16.1 4.8 14.55 2.3 13.6 0.6 11.15 L0.45 10.95 Q-0.5 7.25 0.45 2.75" fill="#333333" fill-rule="evenodd" stroke="none"/>
    </g>
    <g id="shape27" transform="matrix(1.0, 0.0, 0.0, 1.0, 1.5, 1.4)">
      <path d="M10.95 15.55 L10.2 15.65 M20.15 0.55 L20.1 1.2 M3.05 0.1 L3.05 -0.25" fill="none" stroke="#000000" stroke-linecap="round" stroke-linejoin="round" stroke-width="1.2000000000000002"/>
      <path d="M-0.4 10.95 Q-1.35 7.25 -0.4 2.75 1.0 -0.45 3.05 0.1 L2.2 11.9 5.4 12.75 6.0 1.25 6.0 0.75 3.45 -0.8 12.25 -0.4 16.4 1.6 M33.7 2.8 L32.9 10.6 Q32.5 13.2 29.8 13.65 L25.45 13.5 Q23.5 15.8 20.7 15.65 18.55 15.35 18.0 13.05 L17.85 10.05 16.4 10.05 16.4 10.3 M31.5 4.45 L25.0 3.9 24.5 11.7 29.35 11.8 Q30.5 11.55 31.0 9.75 L31.5 4.45 M22.95 1.95 L33.35 2.55 28.9 0.4 20.55 0.0 22.95 1.5 22.95 1.95 22.4 12.9 19.35 12.1 19.65 7.9 16.9 7.9 M25.45 13.5 L22.7 13.35 M17.05 6.05 L18.0 6.05 Q18.2 2.5 20.1 1.2 L19.65 7.9 M19.4 6.05 L18.0 6.05 M14.45 9.4 L14.95 3.85 8.15 3.3 7.6 11.45 12.7 11.55 Q13.9 11.3 14.45 9.4 M17.85 10.05 L19.05 10.05 M16.75 2.0 L16.4 10.05 M10.95 15.55 Q13.6 15.05 15.0 12.85 14.2 13.35 13.15 13.5 L5.7 13.2 M16.4 1.85 L6.0 1.25 M16.4 10.65 Q16.05 12.05 15.0 12.85 M10.2 15.65 Q6.85 16.1 3.95 14.55 1.45 13.6 -0.25 11.15" fill="none" stroke="#000000" stroke-linecap="round" stroke-linejoin="round" stroke-width="1.2000000000000002"/>
    </g>
  </defs>
</svg>
