<?xml version="1.0" encoding="UTF-8" standalone="no"?>
<svg xmlns:ffdec="https://www.free-decompiler.com/flash" xmlns:xlink="http://www.w3.org/1999/xlink" ffdec:objectType="frame" height="99.3px" width="73.55px" xmlns="http://www.w3.org/2000/svg">
  <g transform="matrix(1.0, 0.0, 0.0, 1.0, 42.5, 93.05)">
    <use ffdec:characterId="31" height="24.15" id="mc1080" transform="matrix(0.9848, -0.1704, 0.1704, 0.9848, 2.2336, -31.8608)" width="11.2" xlink:href="#sprite0"/>
    <use ffdec:characterId="33" height="28.75" id="mc980" transform="matrix(1.0, 0.0, 0.0, 1.0, -12.6, -37.15)" width="25.7" xlink:href="#sprite1"/>
    <use ffdec:characterId="35" height="15.65" id="mc880" transform="matrix(0.9848, 0.1704, -0.1704, 0.9848, 1.6892, -14.7164)" width="10.6" xlink:href="#sprite2"/>
    <use ffdec:characterId="37" height="16.45" id="mc780" transform="matrix(0.9962, 0.0839, -0.0753, 0.8937, -10.8407, -13.3832)" width="11.1" xlink:href="#sprite3"/>
    <use ffdec:characterId="41" height="12.25" id="mc680" transform="matrix(1.0076, 0.0139, -0.0839, 0.9962, 1.4061, -16.0596)" width="11.0" xlink:href="#sprite4"/>
    <use ffdec:characterId="45" height="11.75" id="mc580" transform="matrix(0.9606, -0.0045, 0.0094, 0.9999, -13.6775, -15.6965)" width="21.2" xlink:href="#sprite6"/>
    <use ffdec:characterId="46" height="24.15" id="mc480" transform="matrix(0.9725, 0.2297, -0.2297, 0.9725, -17.7071, -34.0516)" width="11.2" xlink:href="#sprite8"/>
    <use ffdec:characterId="48" height="17.8" id="hide_hat1" transform="matrix(0.9998, 0.0185, -0.0185, 0.9998, 10.4998, -91.6681)" width="11.45" xlink:href="#sprite9"/>
    <use ffdec:characterId="50" height="61.1" id="mc280" transform="matrix(0.9998, 0.0185, -0.0185, 0.9998, -40.5572, -91.564)" width="69.7" xlink:href="#sprite10"/>
    <use ffdec:characterId="52" height="24.65" id="hide_hat" transform="matrix(0.9998, 0.0185, -0.0185, 0.9998, -26.8893, -92.4609)" width="20.2" xlink:href="#sprite11"/>
    <use ffdec:characterId="53" height="0.0" id="hat" transform="matrix(1.0, 0.0, 0.0, 1.0, 0.0, 0.0)" width="0.0" xlink:href="#sprite12"/>
  </g>
  <defs>
    <g id="sprite0" transform="matrix(1.0, 0.0, 0.0, 1.0, 0.75, 0.75)">
      <use ffdec:characterId="3" height="24.15" transform="matrix(1.0, 0.0, 0.0, 1.0, -0.75, -0.75)" width="11.2" xlink:href="#shape0"/>
    </g>
    <g id="shape0" transform="matrix(1.0, 0.0, 0.0, 1.0, 0.75, 0.75)">
      <path d="M3.65 20.35 Q1.8 19.25 1.4 15.5 L0.05 16.9 Q1.4 13.45 0.25 6.9 -0.9 -0.75 3.0 0.1 5.85 -0.15 7.05 6.45 8.2 8.55 9.7 8.05 9.2 9.85 7.7 9.45 9.6 13.1 9.5 16.75 L9.1 18.55 Q8.5 20.1 7.0 20.55 L5.25 20.75 5.15 20.75 3.65 20.35" fill="#999999" fill-rule="evenodd" stroke="none"/>
      <path d="M3.65 20.35 L5.15 20.75 5.25 20.75 7.0 20.55 Q8.5 20.1 9.1 18.55 L9.1 21.7 7.0 20.55 6.4 22.9 5.3 21.1 3.65 22.55 3.65 20.35 M5.15 20.75 L5.3 21.1 5.15 20.75" fill="#ffffff" fill-rule="evenodd" stroke="none"/>
      <path d="M9.1 18.55 L9.5 16.75 Q9.6 13.1 7.7 9.45 9.2 9.85 9.7 8.05 8.2 8.55 7.05 6.45 5.85 -0.15 3.0 0.1 -0.9 -0.75 0.25 6.9 1.4 13.45 0.05 16.9 L1.4 15.5 Q1.8 19.25 3.65 20.35 L5.15 20.75 5.25 20.75 7.0 20.55 Q8.5 20.1 9.1 18.55 M5.3 21.1 L5.15 20.75" fill="none" stroke="#000000" stroke-linecap="round" stroke-linejoin="round" stroke-width="1.5"/>
      <path d="M9.1 18.55 L9.1 21.7 7.0 20.55 6.4 22.9 5.3 21.1 3.65 22.55 3.65 20.35" fill="none" stroke="#000000" stroke-linecap="round" stroke-linejoin="round" stroke-width="1.0"/>
    </g>
    <g id="sprite1" transform="matrix(1.0, 0.0, 0.0, 1.0, 0.75, 0.75)">
      <use ffdec:characterId="32" height="28.75" transform="matrix(1.0, 0.0, 0.0, 1.0, -0.75, -0.75)" width="25.7" xlink:href="#shape1"/>
    </g>
    <g id="shape1" transform="matrix(1.0, 0.0, 0.0, 1.0, 0.75, 0.75)">
      <path d="M18.7 0.65 Q20.7 1.75 21.4 4.6 21.45 8.05 24.2 9.55 22.9 11.1 21.4 9.75 L23.25 18.5 Q24.2 22.8 22.85 25.05 22.45 25.45 21.05 25.9 L17.1 26.85 14.55 27.15 Q8.0 27.7 0.0 25.65 L1.9 3.8 Q2.6 0.25 11.35 0.15 7.85 0.4 8.95 4.7 7.85 0.4 11.35 0.15 L13.85 0.2 Q16.85 -0.35 18.7 0.65 19.45 2.25 19.15 4.6 19.45 2.25 18.7 0.65" fill="#999999" fill-rule="evenodd" stroke="none"/>
      <path d="M11.35 0.15 Q7.85 0.4 8.95 4.7" fill="none" stroke="#000000" stroke-linecap="round" stroke-linejoin="round" stroke-width="1.0"/>
      <path d="M11.35 0.15 Q2.6 0.25 1.9 3.8 L0.0 25.65 Q8.0 27.7 14.55 27.15 L17.1 26.85 21.05 25.9 Q22.45 25.45 22.85 25.05 24.2 22.8 23.25 18.5 L21.4 9.75 Q22.9 11.1 24.2 9.55 21.45 8.05 21.4 4.6 20.7 1.75 18.7 0.65 19.45 2.25 19.15 4.6 M18.7 0.65 Q16.85 -0.35 13.85 0.2 L11.35 0.15" fill="none" stroke="#000000" stroke-linecap="round" stroke-linejoin="round" stroke-width="1.5"/>
    </g>
    <g id="sprite2" transform="matrix(1.0, 0.0, 0.0, 1.0, 0.75, 0.75)">
      <use ffdec:characterId="34" height="15.65" transform="matrix(1.0, 0.0, 0.0, 1.0, -0.75, -0.75)" width="10.6" xlink:href="#shape2"/>
    </g>
    <g id="shape2" transform="matrix(1.0, 0.0, 0.0, 1.0, 0.75, 0.75)">
      <path d="M6.6 13.9 L6.1 14.05 2.75 13.85 Q1.05 13.05 0.9 12.75 -0.15 11.45 0.05 7.75 L0.8 0.7 Q3.6 -0.75 7.4 0.8 L8.0 7.4 Q8.15 9.65 9.1 10.15 L8.25 10.15 Q8.55 11.95 7.85 12.95 L7.95 13.25 7.7 13.85 7.15 14.1 6.6 13.9 7.85 12.95 6.6 13.9" fill="#999999" fill-rule="evenodd" stroke="none"/>
      <path d="M6.6 13.9 L6.1 14.05 2.75 13.85 Q1.05 13.05 0.9 12.75 -0.15 11.45 0.05 7.75 L0.8 0.7 Q3.6 -0.75 7.4 0.8 L8.0 7.4 Q8.15 9.65 9.1 10.15 L8.25 10.15 Q8.55 11.95 7.85 12.95 L6.6 13.9 Z" fill="none" stroke="#000000" stroke-linecap="round" stroke-linejoin="round" stroke-width="1.5"/>
    </g>
    <g id="sprite3" transform="matrix(1.0, 0.0, 0.0, 1.0, 0.75, 0.75)">
      <use ffdec:characterId="36" height="16.45" transform="matrix(1.0, 0.0, 0.0, 1.0, -0.75, -0.75)" width="11.1" xlink:href="#shape3"/>
    </g>
    <g id="shape3" transform="matrix(1.0, 0.0, 0.0, 1.0, 0.75, 0.75)">
      <path d="M7.0 14.65 L6.45 14.8 2.9 14.6 Q1.15 13.75 0.95 13.45 -0.15 12.1 0.05 8.15 L0.85 0.75 Q3.8 -0.8 7.85 0.85 L8.45 7.8 Q8.6 10.2 9.6 10.7 L8.7 10.7 Q9.05 12.6 8.3 13.65 L6.95 14.6 7.0 14.65" fill="#999999" fill-rule="evenodd" stroke="none"/>
      <path d="M8.3 13.65 L8.4 14.0 8.15 14.6 7.55 14.85 7.0 14.65 6.95 14.6 8.3 13.65" fill="#ffffff" fill-rule="evenodd" stroke="none"/>
      <path d="M7.0 14.65 L6.45 14.8 2.9 14.6 Q1.15 13.75 0.95 13.45 -0.15 12.1 0.05 8.15 L0.85 0.75 Q3.8 -0.8 7.85 0.85 L8.45 7.8 Q8.6 10.2 9.6 10.7 L8.7 10.7 Q9.05 12.6 8.3 13.65 L6.95 14.6" fill="none" stroke="#000000" stroke-linecap="round" stroke-linejoin="round" stroke-width="1.5"/>
      <path d="M7.0 14.65 L6.95 14.6" fill="none" stroke="#000000" stroke-linecap="round" stroke-linejoin="round" stroke-width="1.0"/>
    </g>
    <g id="sprite4" transform="matrix(1.0, 0.0, 0.0, 1.0, 0.9, 0.75)">
      <use ffdec:characterId="39" height="10.6" id="mc100" transform="matrix(1.0, 0.0, 0.0, 1.0, 0.0, 0.0)" width="9.35" xlink:href="#sprite5"/>
      <use ffdec:characterId="40" height="12.25" transform="matrix(1.0, 0.0, 0.0, 1.0, -0.9, -0.75)" width="11.0" xlink:href="#shape5"/>
    </g>
    <g id="sprite5" transform="matrix(1.0, 0.0, 0.0, 1.0, 0.0, 0.0)">
      <use ffdec:characterId="38" height="10.6" transform="matrix(1.0, 0.0, 0.0, 1.0, 0.0, 0.0)" width="9.35" xlink:href="#shape4"/>
    </g>
    <g id="shape4" transform="matrix(1.0, 0.0, 0.0, 1.0, 0.0, 0.0)">
      <path d="M9.35 9.55 Q5.7 10.6 1.55 10.6 L0.95 10.6 0.7 10.6 0.0 10.6 0.0 1.1 9.35 0.0 9.35 9.55" fill="#5c1313" fill-rule="evenodd" stroke="none"/>
    </g>
    <g id="shape5" transform="matrix(1.0, 0.0, 0.0, 1.0, 0.9, 0.75)">
      <path d="M0.0 10.6 L0.0 5.9" fill="none" stroke="#000000" stroke-linecap="round" stroke-linejoin="round" stroke-width="1.8"/>
      <path d="M0.0 1.1 L9.35 0.0 9.35 9.55 Q5.7 10.6 1.55 10.6 L0.95 10.6 0.7 10.6 0.0 10.6" fill="none" stroke="#000000" stroke-linecap="round" stroke-linejoin="round" stroke-width="1.5"/>
    </g>
    <g id="sprite6" transform="matrix(1.0, 0.0, 0.0, 1.0, 0.75, 0.75)">
      <use ffdec:characterId="43" height="10.25" id="mc100" transform="matrix(1.0, 0.0, 0.0, 1.0, 0.0, 0.0)" width="19.85" xlink:href="#sprite7"/>
      <use ffdec:characterId="44" height="11.75" transform="matrix(1.0, 0.0, 0.0, 1.0, -0.75, -0.75)" width="21.2" xlink:href="#shape7"/>
    </g>
    <g id="sprite7" transform="matrix(1.0, 0.0, 0.0, 1.0, 0.0, 0.0)">
      <use ffdec:characterId="42" height="10.25" transform="matrix(1.0, 0.0, 0.0, 1.0, 0.0, 0.0)" width="19.85" xlink:href="#shape6"/>
    </g>
    <g id="shape6" transform="matrix(1.0, 0.0, 0.0, 1.0, 0.0, 0.0)">
      <path d="M13.65 0.3 L19.55 0.15 Q20.05 3.8 19.7 7.4 L13.85 7.4 13.85 10.0 Q5.7 10.65 0.0 9.7 L0.35 0.0 Q9.2 0.5 13.65 0.3" fill="#5c1313" fill-rule="evenodd" stroke="none"/>
    </g>
    <g id="shape7" transform="matrix(1.0, 0.0, 0.0, 1.0, 0.75, 0.75)">
      <path d="M19.55 0.15 L13.65 0.3 Q9.2 0.5 0.35 0.0 L0.0 9.7 Q5.7 10.65 13.85 10.0 L13.85 7.4 19.7 7.4" fill="none" stroke="#000000" stroke-linecap="round" stroke-linejoin="round" stroke-width="1.5"/>
    </g>
    <g id="sprite8" transform="matrix(1.0, 0.0, 0.0, 1.0, 0.75, 0.75)">
      <use ffdec:characterId="1" height="24.15" transform="matrix(1.0, 0.0, 0.0, 1.0, -0.75, -0.75)" width="11.2" xlink:href="#shape8"/>
    </g>
    <g id="shape8" transform="matrix(1.0, 0.0, 0.0, 1.0, 0.75, 0.75)">
      <path d="M0.6 18.55 L0.2 16.75 Q0.1 13.1 2.0 9.45 0.5 9.85 0.0 8.05 1.5 8.55 2.65 6.45 3.85 -0.15 6.7 0.1 10.6 -0.75 9.45 6.9 8.3 13.45 9.65 16.9 L8.3 15.5 Q7.9 19.25 6.05 20.35 L4.55 20.75 4.45 20.75 2.7 20.55 Q1.2 20.1 0.6 18.55" fill="#999999" fill-rule="evenodd" stroke="none"/>
      <path d="M6.05 20.35 L6.05 22.55 4.4 21.1 3.3 22.9 2.7 20.55 0.6 21.7 0.6 18.55 Q1.2 20.1 2.7 20.55 L4.45 20.75 4.55 20.75 6.05 20.35 M4.4 21.1 L4.55 20.75 4.4 21.1" fill="#ffffff" fill-rule="evenodd" stroke="none"/>
      <path d="M0.6 18.55 L0.2 16.75 Q0.1 13.1 2.0 9.45 0.5 9.85 0.0 8.05 1.5 8.55 2.65 6.45 3.85 -0.15 6.7 0.1 10.6 -0.75 9.45 6.9 8.3 13.45 9.65 16.9 L8.3 15.5 Q7.9 19.25 6.05 20.35 L4.55 20.75 4.4 21.1 M0.6 18.55 Q1.2 20.1 2.7 20.55 L4.45 20.75 4.55 20.75" fill="none" stroke="#000000" stroke-linecap="round" stroke-linejoin="round" stroke-width="1.5"/>
      <path d="M6.05 20.35 L6.05 22.55 4.4 21.1 3.3 22.9 2.7 20.55 0.6 21.7 0.6 18.55" fill="none" stroke="#000000" stroke-linecap="round" stroke-linejoin="round" stroke-width="1.0"/>
    </g>
    <g id="sprite9" transform="matrix(1.0, 0.0, 0.0, 1.0, -50.3, 0.65)">
      <use ffdec:characterId="47" height="17.8" transform="matrix(1.0, 0.0, 0.0, 1.0, 50.3, -0.65)" width="11.45" xlink:href="#shape9"/>
    </g>
    <g id="shape9" transform="matrix(1.0, 0.0, 0.0, 1.0, -50.3, 0.65)">
      <path d="M51.05 10.35 Q53.1 2.95 58.7 0.1 61.75 6.45 60.75 16.4 55.0 14.55 51.05 10.35" fill="#777777" fill-rule="evenodd" stroke="none"/>
      <path d="M51.05 10.35 Q53.1 2.95 58.7 0.1 61.75 6.45 60.75 16.4" fill="none" stroke="#000000" stroke-linecap="round" stroke-linejoin="round" stroke-width="1.5"/>
    </g>
    <g id="sprite10" transform="matrix(1.0, 0.0, 0.0, 1.0, 0.75, -0.4)">
      <use ffdec:characterId="49" height="61.1" transform="matrix(1.0, 0.0, 0.0, 1.0, -0.75, 0.4)" width="69.7" xlink:href="#shape10"/>
    </g>
    <g id="shape10" transform="matrix(1.0, 0.0, 0.0, 1.0, 0.75, -0.4)">
      <path d="M52.05 8.0 Q57.35 9.9 60.9 14.05 63.65 17.2 65.35 21.65 69.45 33.15 67.7 44.6 58.95 54.4 32.35 51.45 22.65 51.1 13.9 43.65 11.9 42.2 8.65 41.25 L4.75 42.75 Q2.9 41.95 0.0 42.0 5.3 38.45 7.3 31.0 10.25 21.55 13.9 16.45 20.0 9.15 24.45 7.95 L30.3 6.25 30.7 6.1 Q34.15 4.35 35.45 2.8 L35.25 5.9 Q38.6 3.9 39.65 1.15 41.6 4.1 44.6 5.8 47.75 7.55 52.05 8.0 M12.85 29.3 Q13.05 37.95 4.55 40.3 6.8 40.7 8.65 41.25 6.8 40.7 4.55 40.3 13.05 37.95 12.85 29.3" fill="#999999" fill-rule="evenodd" stroke="none"/>
      <path d="M67.7 44.6 L67.0 48.2 Q62.0 58.65 50.2 60.25 37.35 61.3 26.55 60.05 14.2 59.3 10.15 50.9 8.6 47.8 5.0 48.4 5.9 46.95 7.7 45.9 7.0 43.7 4.75 42.75 L8.65 41.25 Q11.9 42.2 13.9 43.65 22.65 51.1 32.35 51.45 58.95 54.4 67.7 44.6 M44.6 5.8 Q45.55 3.7 45.15 3.3 L52.05 8.0 Q47.75 7.55 44.6 5.8 M7.7 45.9 Q10.05 44.45 13.9 43.65 10.05 44.45 7.7 45.9" fill="#777777" fill-rule="evenodd" stroke="none"/>
      <path d="M52.05 8.0 Q57.35 9.9 60.9 14.05 63.65 17.2 65.35 21.65 69.45 33.15 67.7 44.6 L67.0 48.2 Q62.0 58.65 50.2 60.25 37.35 61.3 26.55 60.05 14.2 59.3 10.15 50.9 8.6 47.8 5.0 48.4 5.9 46.95 7.7 45.9 7.0 43.7 4.75 42.75 2.9 41.95 0.0 42.0 5.3 38.45 7.3 31.0 10.25 21.55 13.9 16.45 20.0 9.15 24.45 7.95 L30.3 6.25 30.7 6.1 Q34.15 4.35 35.45 2.8 L35.25 5.9 Q38.6 3.9 39.65 1.15 41.6 4.1 44.6 5.8 45.55 3.7 45.15 3.3 L52.05 8.0 Q47.75 7.55 44.6 5.8 M8.65 41.25 Q6.8 40.7 4.55 40.3 13.05 37.95 12.85 29.3 M13.9 43.65 Q10.05 44.45 7.7 45.9 M8.65 41.25 Q11.9 42.2 13.9 43.65" fill="none" stroke="#000000" stroke-linecap="round" stroke-linejoin="round" stroke-width="1.5"/>
    </g>
    <g id="sprite11" transform="matrix(1.0, 0.0, 0.0, 1.0, -12.9, 0.75)">
      <use ffdec:characterId="51" height="24.65" transform="matrix(1.0, 0.0, 0.0, 1.0, 12.9, -0.75)" width="20.2" xlink:href="#shape11"/>
    </g>
    <g id="shape11" transform="matrix(1.0, 0.0, 0.0, 1.0, -12.9, 0.75)">
      <path d="M15.55 23.15 Q14.25 19.85 13.9 16.45 L13.85 16.1 Q12.95 8.5 16.15 0.0 22.0 0.3 27.6 7.3 L28.3 8.25 Q30.35 11.05 32.35 14.75 26.95 21.45 15.55 23.15" fill="#999999" fill-rule="evenodd" stroke="none"/>
      <path d="M15.55 23.15 Q14.25 19.85 13.9 16.45 L13.85 16.1 Q12.95 8.5 16.15 0.0 22.0 0.3 27.6 7.3 L28.3 8.25 Q30.35 11.05 32.35 14.75" fill="none" stroke="#000000" stroke-linecap="round" stroke-linejoin="round" stroke-width="1.5"/>
    </g>
  </defs>
</svg>
