<?xml version="1.0" encoding="UTF-8" standalone="no"?>
<svg xmlns:ffdec="https://www.free-decompiler.com/flash" xmlns:xlink="http://www.w3.org/1999/xlink" ffdec:objectType="frame" height="38.3px" width="27.3px" xmlns="http://www.w3.org/2000/svg">
  <g transform="matrix(1.0, 0.0, 0.0, 1.0, 0.25, 8.3)">
    <use ffdec:characterId="301" height="26.5" id="mc100" transform="matrix(0.9995, 0.0, 0.0, 0.9997, -0.2502, 3.4999)" width="26.5" xlink:href="#sprite0"/>
    <use ffdec:characterId="302" height="0.0" id="hat" transform="matrix(-0.4612, 0.0, 0.0, 0.4612, 27.05, -8.3)" width="0.0" xlink:href="#sprite3"/>
  </g>
  <defs>
    <g id="sprite0" transform="matrix(1.0, 0.0, 0.0, 1.0, -0.35, -0.35)">
      <use ffdec:characterId="298" height="26.5" transform="matrix(1.0, 0.0, 0.0, 1.0, 0.35, 0.35)" width="26.5" xlink:href="#shape0"/>
      <use ffdec:characterId="300" height="12.85" id="mc001" transform="matrix(0.5184, 0.0, 0.0, 0.5258, 11.2, 11.4)" width="28.15" xlink:href="#sprite1"/>
    </g>
    <g id="shape0" transform="matrix(1.0, 0.0, 0.0, 1.0, -0.35, -0.35)">
      <path d="M20.8 1.7 Q24.65 3.85 25.55 7.35 26.45 10.85 26.35 11.65 L26.1 12.65 26.1 12.7 Q26.0 14.3 26.45 15.85 L26.5 15.9 Q27.0 18.85 24.2 20.65 24.5 21.25 23.95 21.5 L22.25 21.85 20.55 22.1 18.6 22.2 16.55 22.2 16.25 22.15 Q14.6 22.0 14.25 21.55 14.0 20.8 12.35 20.65 L12.2 20.65 11.4 20.6 10.95 20.5 10.65 20.45 10.05 20.25 8.25 20.0 7.3 19.75 8.25 20.0 10.05 20.25 10.65 20.45 10.95 20.5 11.4 20.6 12.2 20.65 Q12.2 22.75 14.35 22.9 L14.4 23.35 16.5 23.95 18.35 24.25 Q21.75 24.55 23.85 23.7 L23.95 23.65 Q24.4 23.85 23.95 24.45 L24.15 25.2 Q24.4 25.9 22.95 26.25 L15.85 26.0 10.8 24.65 Q8.25 24.25 7.9 23.1 L7.4 20.65 7.3 19.75 7.2 19.75 7.4 20.65 Q6.8 20.65 6.2 20.05 5.0 20.45 3.95 19.55 0.7 16.35 0.6 12.1 0.5 9.0 2.3 6.4 3.7 4.3 5.65 3.1 6.05 5.1 11.8 4.85 19.05 4.35 20.8 1.7 M5.75 18.55 Q6.8 18.3 7.2 19.75 6.8 18.3 5.75 18.55 M24.95 11.6 L24.35 11.4 23.6 11.5 Q22.75 11.75 22.15 12.9 L22.0 13.45 22.05 14.3 22.35 15.4 Q22.65 15.45 22.9 15.8 L23.25 16.5 23.75 16.65 24.95 16.5 Q25.9 16.25 25.7 14.1 L25.75 13.0 25.75 12.7 25.75 12.45 Q25.65 11.85 25.3 11.75 L24.95 11.6 M20.95 18.25 L20.75 18.7 20.45 19.25 20.35 19.55 Q20.1 20.25 20.8 20.4 L21.05 20.45 21.4 20.4 22.3 19.95 Q23.2 20.5 23.05 19.4 22.45 16.35 22.0 16.9 L21.25 17.95 20.95 18.25 M14.85 12.3 Q13.7 12.65 12.85 13.15 11.65 13.85 11.25 14.95 11.15 15.5 11.2 16.0 11.3 16.55 11.7 17.0 L12.55 17.85 13.05 18.0 13.45 18.1 15.75 17.95 16.55 17.55 Q18.2 16.6 18.1 14.85 L18.0 14.25 Q17.65 12.5 16.4 12.2 L15.85 12.15 15.35 12.2 15.25 12.25 14.85 12.3 M13.5 20.4 L13.45 20.45 13.55 20.4 13.5 20.4" fill="#e2e1dc" fill-rule="evenodd" stroke="none"/>
      <path d="M20.95 18.25 L21.25 17.95 22.0 16.9 Q22.45 16.35 23.05 19.4 23.2 20.5 22.3 19.95 L21.4 20.4 21.05 20.45 20.8 20.4 Q20.1 20.25 20.35 19.55 L20.45 19.25 20.75 18.7 20.95 18.25" fill="#25211d" fill-rule="evenodd" stroke="none"/>
      <path d="M20.8 1.7 Q19.05 4.35 11.8 4.85 6.05 5.1 5.65 3.1 8.35 1.4 11.7 0.85 17.1 0.05 20.8 1.7 M24.05 22.55 L23.8 22.6 23.15 22.75 22.8 22.8 22.5 22.85 21.6 23.0 20.15 23.15 18.7 23.15 16.35 22.9 14.35 22.4 16.35 22.9 18.7 23.15 20.15 23.15 21.6 23.0 22.5 22.85 22.8 22.8 23.15 22.75 23.8 22.6 24.05 22.55 23.95 23.65 23.85 23.7 Q21.75 24.55 18.35 24.25 L16.5 23.95 14.4 23.35 14.35 22.9 14.35 22.4 14.25 21.55 Q14.6 22.0 16.25 22.15 L16.55 22.2 18.6 22.2 20.55 22.1 22.25 21.85 23.95 21.5 24.05 22.55" fill="#f3f3f3" fill-rule="evenodd" stroke="none"/>
      <path d="M24.95 11.6 L25.3 11.75 Q25.65 11.85 25.75 12.45 L25.75 12.7 25.75 13.0 25.7 14.1 Q25.9 16.25 24.95 16.5 L23.75 16.65 23.25 16.5 22.9 15.8 Q22.65 15.45 22.35 15.4 L22.05 14.3 22.0 13.45 22.15 12.9 Q22.75 11.75 23.6 11.5 L24.35 11.4 24.95 11.6 M14.85 12.3 Q13.7 12.65 12.85 13.15 11.65 13.85 11.25 14.95 11.15 15.5 11.2 16.0 11.3 16.55 11.7 17.0 L12.55 17.85 13.05 18.0 13.45 18.1 15.75 17.95 16.55 17.55 Q18.2 16.6 18.1 14.85 L18.0 14.25 Q17.65 12.5 16.4 12.2 L15.85 12.15 15.35 12.2 15.25 12.25 14.85 12.3" fill="none" stroke="#000000" stroke-linecap="round" stroke-linejoin="round" stroke-width="1.0"/>
      <path d="M23.95 21.5 Q24.5 21.25 24.2 20.65 27.0 18.85 26.5 15.9 L26.45 15.85 Q26.0 14.3 26.1 12.7 L26.1 12.65 26.35 11.65 Q26.45 10.85 25.55 7.35 24.65 3.85 20.8 1.7 17.1 0.05 11.7 0.85 8.35 1.4 5.65 3.1 3.7 4.3 2.3 6.4 0.5 9.0 0.6 12.1 0.7 16.35 3.95 19.55 5.0 20.45 6.2 20.05 6.8 20.65 7.4 20.65 L7.2 19.75 Q6.8 18.3 5.75 18.55 M20.95 18.25 L20.75 18.7 20.45 19.25 20.35 19.55 Q20.1 20.25 20.8 20.4 L21.05 20.45 21.4 20.4 22.3 19.95 Q23.2 20.5 23.05 19.4 22.45 16.35 22.0 16.9 L21.25 17.95 20.95 18.25 M14.35 22.4 L16.35 22.9 18.7 23.15 20.15 23.15 21.6 23.0 22.5 22.85 22.8 22.8 23.15 22.75 23.8 22.6 24.05 22.55 23.95 21.5 22.25 21.85 20.55 22.1 18.6 22.2 16.55 22.2 16.25 22.15 Q14.6 22.0 14.25 21.55 L14.35 22.4 14.35 22.9 14.4 23.35 16.5 23.95 18.35 24.25 Q21.75 24.55 23.85 23.7 L23.95 23.65 24.05 22.55 M7.3 19.75 L7.4 20.65 7.9 23.1 Q8.25 24.25 10.8 24.65 L15.85 26.0 22.95 26.25 Q24.4 25.9 24.15 25.2 L23.95 24.45 Q24.4 23.85 23.95 23.65 M7.3 19.75 L8.25 20.0 10.05 20.25 10.65 20.45 10.95 20.5 11.4 20.6 12.2 20.65 12.35 20.65 Q14.0 20.8 14.25 21.55 M7.2 19.75 L7.3 19.75 M12.2 20.65 Q12.2 22.75 14.35 22.9" fill="none" stroke="#000000" stroke-linecap="round" stroke-linejoin="round" stroke-width="0.5"/>
    </g>
    <g id="sprite1" transform="matrix(1.0, 0.0, 0.0, 1.0, 0.0, 0.0)">
      <use ffdec:characterId="299" height="12.85" id="mc100" transform="matrix(1.0, 0.0, 0.0, 1.0, 0.0, 0.0)" width="28.15" xlink:href="#sprite2"/>
      <use ffdec:characterId="58" height="12.45" transform="matrix(1.0, 0.0, 0.0, 1.0, 0.95, 0.4)" width="27.2" xlink:href="#shape2"/>
    </g>
    <g id="sprite2" transform="matrix(1.0, 0.0, 0.0, 1.0, 0.0, 0.0)">
      <use ffdec:characterId="56" height="12.85" transform="matrix(1.0, 0.0, 0.0, 1.0, 0.0, 0.0)" width="28.15" xlink:href="#shape1"/>
    </g>
    <g id="shape1" transform="matrix(1.0, 0.0, 0.0, 1.0, 0.0, 0.0)">
      <path d="M27.25 0.65 Q27.9 0.9 28.1 2.0 L28.15 2.45 28.15 3.05 28.0 5.1 Q28.4 9.2 26.6 9.7 L24.25 9.95 23.25 9.65 22.65 8.35 22.6 8.35 Q22.1 7.65 21.6 7.6 21.1 6.5 20.95 5.5 L20.9 3.9 Q20.95 3.35 21.15 2.85 22.3 0.7 23.95 0.2 L25.4 0.05 26.55 0.4 27.25 0.65 M13.35 6.5 Q13.6 9.85 10.4 11.65 L8.8 12.4 4.35 12.7 3.55 12.5 2.65 12.2 0.95 10.65 Q0.25 9.8 0.05 8.75 -0.1 7.8 0.15 6.7 0.85 4.6 3.25 3.35 4.85 2.35 7.15 1.75 L7.85 1.6 8.1 1.55 9.0 1.45 10.1 1.55 Q12.5 2.1 13.2 5.35 L13.35 6.5" fill="#ff0000" fill-rule="evenodd" stroke="none"/>
    </g>
    <g id="shape2" transform="matrix(1.0, 0.0, 0.0, 1.0, -0.95, -0.4)">
      <path d="M27.25 0.65 Q27.9 0.9 28.1 2.0 L28.15 2.45 28.15 3.05 28.0 5.1 Q28.4 9.2 26.6 9.7 L24.25 9.95 23.25 9.65 22.65 8.35 Q28.2 10.75 26.55 0.45 L26.55 0.4 27.25 0.65 M13.35 6.5 Q13.6 9.85 10.4 11.65 L8.8 12.4 4.35 12.7 3.55 12.5 2.65 12.2 0.95 10.65 Q4.9 12.15 9.4 10.25 13.95 8.35 9.0 1.45 L10.1 1.55 Q12.5 2.1 13.2 5.35 L13.35 6.5" fill="#000000" fill-opacity="0.2" fill-rule="evenodd" stroke="none"/>
    </g>
  </defs>
</svg>
