<?xml version="1.0" encoding="UTF-8" standalone="no"?>
<svg xmlns:ffdec="https://www.free-decompiler.com/flash" xmlns:xlink="http://www.w3.org/1999/xlink" ffdec:objectType="frame" height="106.25px" width="90.65px" xmlns="http://www.w3.org/2000/svg">
  <g transform="matrix(1.0, 0.0, 0.0, 1.0, -0.1, 15.4)">
    <clipPath id="clipPath0" transform="matrix(1.0, 0.0, 0.0, 1.0, 0.0, 0.0)">
      <path d="M77.5 13.45 Q90.75 26.75 90.75 45.55 90.75 64.35 77.5 77.6 64.2 90.85 45.4 90.85 26.6 90.85 13.35 77.6 0.1 64.35 0.1 45.55 0.1 26.75 13.35 13.45 26.6 0.2 45.4 0.2 64.2 0.2 77.5 13.45" fill="#ff0000" fill-rule="evenodd" stroke="none"/>
    </clipPath>
    <g clip-path="url(#clipPath0)">
      <use ffdec:characterId="305" height="22.9" transform="matrix(1.0, 0.0, 0.0, 1.0, 25.85, 65.0)" width="39.25" xlink:href="#shape1"/>
      <use ffdec:characterId="256" height="52.45" id="mc200" transform="matrix(1.15, 0.0, 0.0, 1.15, 16.215, 8.8875)" width="52.2" xlink:href="#sprite0"/>
      <use ffdec:characterId="306" height="0.0" id="hat" transform="matrix(1.0, 0.0, 0.0, 1.0, 12.55, -15.4)" width="0.0" xlink:href="#sprite5"/>
    </g>
  </g>
  <defs>
    <g id="shape1" transform="matrix(1.0, 0.0, 0.0, 1.0, -25.85, -65.0)">
      <path d="M38.3 68.3 L38.95 67.35 Q39.25 67.0 39.7 66.75 L40.6 66.25 42.75 65.8 Q42.75 65.4 44.5 65.5 L45.9 65.5 46.0 65.5 46.1 65.5 47.5 65.5 Q49.25 65.4 49.25 65.8 L51.4 66.25 52.3 66.75 53.05 67.35 53.7 68.3 53.8 68.55 53.9 68.8 Q54.7 69.75 55.0 71.45 L55.2 72.65 55.5 74.9 55.2 77.25 54.35 78.25 Q53.45 79.1 52.65 77.85 L51.55 76.85 49.2 74.65 46.95 72.65 46.9 72.6 47.15 71.9 47.35 71.2 47.4 70.7 47.3 70.25 47.25 69.15 47.25 68.55 47.35 67.85 47.4 67.55 48.0 67.05 48.05 66.75 49.25 66.0 49.25 65.85 49.25 65.8 49.25 65.85 49.25 66.0 48.05 66.75 48.0 67.05 47.4 67.55 47.35 67.85 47.25 68.55 47.25 69.15 47.3 70.25 47.4 70.7 47.35 71.2 47.15 71.9 46.9 72.6 46.9 72.65 Q46.5 73.5 46.1 73.65 L47.2 73.65 Q47.6 73.95 47.25 74.2 L47.2 76.0 47.1 77.25 Q46.9 80.5 47.65 81.45 49.15 81.35 50.2 80.35 51.2 79.3 53.4 79.95 55.6 80.55 54.1 82.45 L51.7 84.9 53.95 84.9 Q56.05 85.2 55.65 86.25 L51.9 86.35 50.35 85.6 Q50.8 86.7 49.6 87.15 47.7 87.9 46.45 86.5 L45.55 86.5 Q44.3 87.9 42.4 87.15 41.2 86.7 41.65 85.6 L40.1 86.35 36.35 86.25 Q35.95 85.2 38.05 84.9 L40.3 84.9 37.9 82.45 Q36.4 80.55 38.6 79.95 40.8 79.3 41.8 80.35 42.85 81.35 44.35 81.45 45.1 80.5 44.9 77.25 L44.8 76.0 44.75 74.2 Q44.4 73.95 44.8 73.65 L45.9 73.65 Q45.5 73.5 45.15 72.65 L45.1 72.6 45.05 72.65 42.8 74.65 40.45 76.85 39.35 77.85 Q38.55 79.1 37.65 78.25 L36.8 77.25 36.5 74.9 36.8 72.65 37.0 71.45 Q37.3 69.75 38.1 68.8 L38.2 68.55 38.3 68.3 M43.0 71.8 L41.5 72.65 Q39.7 73.8 38.6 75.6 39.7 73.8 41.5 72.65 L43.0 71.8 M45.1 72.6 L44.85 71.9 44.65 71.2 44.6 70.7 44.7 70.25 44.75 69.15 44.75 68.55 44.65 67.85 44.6 67.55 44.0 67.05 43.95 66.75 42.75 66.0 42.75 65.85 42.75 65.8 42.75 65.85 42.75 66.0 43.95 66.75 44.0 67.05 44.6 67.55 44.65 67.85 44.75 68.55 44.75 69.15 44.7 70.25 44.6 70.7 44.65 71.2 44.85 71.9 45.1 72.6 M40.3 84.9 Q40.9 85.3 41.65 85.6 40.9 85.3 40.3 84.9 M43.0 68.65 Q40.15 69.95 38.45 71.95 40.15 69.95 43.0 68.65 M50.35 85.6 L51.7 84.9 50.35 85.6 M48.1 85.15 L47.95 85.1 47.8 85.15 47.75 85.3 47.8 85.45 47.95 85.5 48.1 85.45 48.15 85.3 48.1 85.15 48.15 85.3 48.1 85.45 47.95 85.5 47.8 85.45 47.75 85.3 47.8 85.15 47.95 85.1 48.1 85.15 M44.2 85.15 L44.25 85.3 44.2 85.45 44.05 85.5 43.9 85.45 43.85 85.3 43.9 85.15 44.05 85.1 44.2 85.15 44.05 85.1 43.9 85.15 43.85 85.3 43.9 85.45 44.05 85.5 44.2 85.45 44.25 85.3 44.2 85.15 M49.0 68.65 Q51.85 69.95 53.55 71.95 51.85 69.95 49.0 68.65 M49.0 71.8 L50.55 72.65 Q52.3 73.8 53.4 75.6 52.3 73.8 50.55 72.65 L49.0 71.8" fill="#e2e1dc" fill-rule="evenodd" stroke="none"/>
      <path d="M52.65 77.85 Q49.8 76.65 47.1 77.25 L47.2 76.0 47.25 74.2 Q47.6 73.95 47.2 73.65 L46.1 73.65 Q46.5 73.5 46.9 72.65 L46.9 72.6 46.95 72.65 49.2 74.65 51.55 76.85 52.65 77.85 M44.9 77.25 Q42.2 76.65 39.35 77.85 L40.45 76.85 42.8 74.65 45.05 72.65 45.1 72.6 45.15 72.65 Q45.5 73.5 45.9 73.65 L44.8 73.65 Q44.4 73.95 44.75 74.2 L44.8 76.0 44.9 77.25" fill="#9d9d9d" fill-rule="evenodd" stroke="none"/>
      <path d="M38.3 68.3 L38.95 67.35 Q39.25 67.0 39.7 66.75 L40.6 66.25 42.75 65.8 Q42.75 65.4 44.5 65.5 L45.9 65.5 46.0 65.5 46.1 65.5 47.5 65.5 Q49.25 65.4 49.25 65.8 L51.4 66.25 52.3 66.75 53.05 67.35 53.7 68.3 M53.8 68.55 L53.9 68.8 Q54.7 69.75 55.0 71.45 L55.2 72.65 55.5 74.9 55.2 77.25 54.35 78.25 Q53.45 79.1 52.65 77.85 49.8 76.65 47.1 77.25 46.9 80.5 47.65 81.45 49.15 81.35 50.2 80.35 51.2 79.3 53.4 79.95 55.6 80.55 54.1 82.45 L51.7 84.9 53.95 84.9 Q56.05 85.2 55.65 86.25 L51.9 86.35 50.35 85.6 Q50.8 86.7 49.6 87.15 47.7 87.9 46.45 86.5 L45.55 86.5 Q44.3 87.9 42.4 87.15 41.2 86.7 41.65 85.6 L40.1 86.35 36.35 86.25 Q35.95 85.2 38.05 84.9 L40.3 84.9 37.9 82.45 Q36.4 80.55 38.6 79.95 40.8 79.3 41.8 80.35 42.85 81.35 44.35 81.45 45.1 80.5 44.9 77.25 42.2 76.65 39.35 77.85 38.55 79.1 37.65 78.25 L36.8 77.25 36.5 74.9 36.8 72.65 37.0 71.45 Q37.3 69.75 38.1 68.8 L38.2 68.55 M44.9 77.25 L44.8 76.0 44.75 74.2 Q44.4 73.95 44.8 73.65 L45.9 73.65 Q45.5 73.5 45.15 72.65 L45.1 72.6 45.05 72.65 42.8 74.65 40.45 76.85 39.35 77.85 M49.25 65.8 L49.25 65.85 49.25 66.0 48.05 66.75 48.0 67.05 47.4 67.55 47.35 67.85 47.25 68.55 47.25 69.15 47.3 70.25 47.4 70.7 47.35 71.2 47.15 71.9 46.9 72.6 46.95 72.65 49.2 74.65 51.55 76.85 52.65 77.85 M42.75 65.8 L42.75 65.85 42.75 66.0 43.95 66.75 44.0 67.05 44.6 67.55 44.65 67.85 44.75 68.55 44.75 69.15 44.7 70.25 44.6 70.7 44.65 71.2 44.85 71.9 45.1 72.6 M38.6 75.6 Q39.7 73.8 41.5 72.65 L43.0 71.8 M46.9 72.6 L46.9 72.65 Q46.5 73.5 46.1 73.65 L47.2 73.65 Q47.6 73.95 47.25 74.2 L47.2 76.0 47.1 77.25 M53.4 75.6 Q52.3 73.8 50.55 72.65 L49.0 71.8 M53.55 71.95 Q51.85 69.95 49.0 68.65 M44.2 85.15 L44.05 85.1 43.9 85.15 43.85 85.3 43.9 85.45 44.05 85.5 44.2 85.45 44.25 85.3 44.2 85.15 M48.1 85.15 L48.15 85.3 48.1 85.45 47.95 85.5 47.8 85.45 47.75 85.3 47.8 85.15 47.95 85.1 48.1 85.15 M51.7 84.9 L50.35 85.6 M38.45 71.95 Q40.15 69.95 43.0 68.65 M41.65 85.6 Q40.9 85.3 40.3 84.9" fill="none" stroke="#000000" stroke-linecap="round" stroke-linejoin="round" stroke-width="1.0"/>
      <path d="M33.85 68.0 Q34.05 66.4 36.4 66.6 38.7 67.05 38.5 68.0 L38.45 68.05 38.45 68.1 38.3 68.4 38.25 68.5 38.2 68.55 37.05 68.55 33.85 68.0 37.05 68.55 38.2 68.55 36.55 71.7 36.05 72.65 34.8 75.45 Q33.0 79.95 31.75 83.85 30.65 86.7 29.3 86.6 27.95 86.5 27.05 85.4 26.1 84.25 27.1 82.15 L33.85 68.0 M27.1 82.15 L31.75 83.85 27.1 82.15" fill="#e2e1dc" fill-rule="evenodd" stroke="none"/>
      <path d="M38.2 68.55 L38.25 68.5 38.3 68.4 38.45 68.1 38.45 68.05 38.5 68.0 Q38.7 67.05 36.4 66.6 34.05 66.4 33.85 68.0 L37.05 68.55 38.2 68.55 M31.75 83.85 L27.1 82.15" fill="none" stroke="#000000" stroke-linecap="round" stroke-linejoin="round" stroke-width="1.0"/>
      <path d="M38.2 68.55 L36.55 71.7 36.05 72.65 34.8 75.45 Q33.0 79.95 31.75 83.85 30.65 86.7 29.3 86.6 27.95 86.5 27.05 85.4 26.1 84.25 27.1 82.15 L33.85 68.0" fill="none" stroke="#000000" stroke-linecap="round" stroke-linejoin="round" stroke-width="1.5"/>
      <path d="M52.7 68.4 L52.5 68.1 52.5 68.0 Q52.25 67.05 54.55 66.6 56.9 66.4 57.1 68.0 L53.9 68.55 52.75 68.55 53.9 68.55 57.1 68.0 63.85 82.15 Q64.85 84.25 63.9 85.4 63.0 86.5 61.65 86.6 60.3 86.7 59.2 83.85 L56.15 75.45 54.9 72.65 54.4 71.7 52.75 68.55 52.75 68.5 52.7 68.5 52.7 68.4 52.75 68.5 52.7 68.4 M52.45 67.9 L52.5 68.0 52.45 67.95 52.45 67.9 M63.85 82.15 L59.2 83.85 63.85 82.15" fill="#e2e1dc" fill-rule="evenodd" stroke="none"/>
      <path d="M57.1 68.0 Q56.9 66.4 54.55 66.6 52.25 67.05 52.5 68.0 L52.5 68.1 52.7 68.4 52.75 68.5 52.75 68.55 53.9 68.55 57.1 68.0 M52.45 67.9 L52.45 67.95 52.5 68.0 52.45 67.9 M52.7 68.4 L52.7 68.5 52.75 68.5 M59.2 83.85 L63.85 82.15" fill="none" stroke="#000000" stroke-linecap="round" stroke-linejoin="round" stroke-width="1.0"/>
      <path d="M57.1 68.0 L63.85 82.15 Q64.85 84.25 63.9 85.4 63.0 86.5 61.65 86.6 60.3 86.7 59.2 83.85 L56.15 75.45 54.9 72.65 54.4 71.7 52.75 68.55" fill="none" stroke="#000000" stroke-linecap="round" stroke-linejoin="round" stroke-width="1.5"/>
    </g>
    <g id="sprite0" transform="matrix(1.0, 0.0, 0.0, 1.0, 0.9, 0.75)">
      <use ffdec:characterId="99" height="18.9" id="mc100" transform="matrix(1.0, 0.0, 0.0, 1.0, 5.35, 32.8)" width="40.35" xlink:href="#sprite1"/>
      <use ffdec:characterId="255" height="45.8" id="mc000" transform="matrix(1.0, 0.0, 0.0, 1.0, -0.9, -0.75)" width="52.2" xlink:href="#sprite2"/>
    </g>
    <g id="sprite1" transform="matrix(1.0, 0.0, 0.0, 1.0, 1.0, 4.6)">
      <use ffdec:characterId="98" height="18.9" transform="matrix(1.0, 0.0, 0.0, 1.0, -1.0, -4.6)" width="40.35" xlink:href="#shape2"/>
    </g>
    <g id="shape2" transform="matrix(1.0, 0.0, 0.0, 1.0, 1.0, 4.6)">
      <path d="M0.0 -3.65 L0.05 -3.6 Q0.05 -3.2 0.95 -3.1 L1.05 -3.1 1.1 -3.05 2.3 -2.5 5.85 -0.85 4.65 0.95 Q3.5 2.85 6.85 5.35 L8.45 6.4 Q8.95 7.7 10.45 8.2 19.7 10.05 26.65 8.2 29.65 7.65 29.45 6.0 L31.6 4.9 Q33.85 3.25 34.35 0.6 L34.35 0.55 Q34.35 -0.95 33.65 -1.95 L34.3 -2.2 36.75 -3.1 38.55 -3.8 38.6 -3.85 Q38.45 -2.2 37.5 0.0 36.85 1.65 37.05 3.55 37.3 4.55 36.35 5.85 L33.65 8.3 Q27.45 12.7 23.7 13.55 L16.2 13.55 Q12.6 13.35 6.25 9.45 0.75 6.65 0.6 4.65 0.75 2.25 0.0 0.05 -0.5 -2.35 0.0 -3.65" fill="#e2e1dc" fill-rule="evenodd" stroke="none"/>
      <path d="M29.45 6.0 Q29.65 7.65 26.65 8.2 19.7 10.05 10.45 8.2 8.95 7.7 8.45 6.4 21.55 8.1 29.45 6.0" fill="#f3f3f3" fill-rule="evenodd" stroke="none"/>
      <path d="M31.6 4.9 L29.45 6.0 Q21.55 8.1 8.45 6.4 L6.85 5.35 6.7 -0.1 7.0 -0.75 6.7 -0.1 6.7 -0.55 7.0 -0.75 7.05 -1.1 7.05 -1.2 7.1 -1.2 8.2 -1.35 8.45 -1.8 8.1 -2.35 7.6 -2.6 7.6 -2.65 7.55 -2.85 7.55 -2.95 27.0 -3.2 27.0 -3.15 27.0 -3.05 Q27.05 -2.55 27.6 -2.55 L27.85 -2.6 30.75 -2.6 30.8 -2.25 Q31.0 -1.95 31.8 -1.95 L32.0 -1.95 31.6 4.9 M7.05 -1.1 L7.1 -1.2 7.05 -1.1" fill="#4f4f4f" fill-rule="evenodd" stroke="none"/>
      <path d="M0.0 -3.65 Q-0.5 -2.35 0.0 0.05 0.75 2.25 0.6 4.65 0.75 6.65 6.25 9.45 12.6 13.35 16.2 13.55 L23.7 13.55 Q27.45 12.7 33.65 8.3 L36.35 5.85 Q37.3 4.55 37.05 3.55 36.85 1.65 37.5 0.0 38.45 -2.2 38.6 -3.85 L33.9 -2.45 M33.65 -1.95 Q34.35 -0.95 34.35 0.55 L34.35 0.6 Q33.85 3.25 31.6 4.9 L29.45 6.0 M8.45 6.4 L6.85 5.35 Q3.5 2.85 4.65 0.95 L5.85 -0.85 M0.5 -3.65 L6.1 -1.05" fill="none" stroke="#000000" stroke-linecap="round" stroke-linejoin="round" stroke-width="1.5"/>
      <path d="M29.45 6.0 Q29.65 7.65 26.65 8.2 19.7 10.05 10.45 8.2 8.95 7.7 8.45 6.4 21.55 8.1 29.45 6.0 M7.1 -1.2 L7.05 -1.1 7.0 -0.75 6.7 -0.1 6.85 5.35 M6.7 -0.55 L6.7 -0.1 M7.6 -2.65 L7.1 -1.2 M27.0 -3.2 L7.55 -2.95 M27.0 -3.15 L31.85 -3.15 32.0 -1.95 31.6 4.9" fill="none" stroke="#000000" stroke-linecap="round" stroke-linejoin="round" stroke-width="1.0"/>
    </g>
    <g id="sprite2" transform="matrix(1.0, 0.0, 0.0, 1.0, 0.9, 0.75)">
      <use ffdec:characterId="253" height="10.7" id="mc100" transform="matrix(1.0, 0.0, 0.0, 1.0, 7.7, 23.9)" width="35.05" xlink:href="#sprite3"/>
      <use ffdec:characterId="254" height="45.8" transform="matrix(1.0, 0.0, 0.0, 1.0, -0.9, -0.75)" width="52.2" xlink:href="#shape5"/>
    </g>
    <g id="sprite3" transform="matrix(1.0, 0.0, 0.0, 1.0, 0.0, 0.0)">
      <use ffdec:characterId="251" height="10.7" id="mc100" transform="matrix(1.0, 0.0, 0.0, 1.0, 0.0, 0.0)" width="35.05" xlink:href="#sprite4"/>
      <use ffdec:characterId="252" height="10.35" transform="matrix(1.0, 0.0, 0.0, 1.0, 0.0, 0.35)" width="34.7" xlink:href="#shape4"/>
    </g>
    <g id="sprite4" transform="matrix(1.0, 0.0, 0.0, 1.0, 0.0, 0.0)">
      <use ffdec:characterId="250" height="10.7" transform="matrix(1.0, 0.0, 0.0, 1.0, 0.0, 0.0)" width="35.05" xlink:href="#shape3"/>
    </g>
    <g id="shape3" transform="matrix(1.0, 0.0, 0.0, 1.0, 0.0, 0.0)">
      <path d="M35.05 5.95 L35.05 6.15 34.7 7.8 Q33.7 10.7 29.65 10.7 24.4 10.9 22.8 8.5 21.95 7.1 21.8 5.55 21.7 4.25 22.0 2.85 22.45 1.0 25.0 0.35 L30.1 0.05 Q34.8 1.0 35.05 4.95 L35.05 5.95 M13.4 5.65 Q13.25 7.15 12.4 8.5 10.7 10.9 5.45 10.7 0.3 10.7 0.05 6.05 L0.05 5.95 0.05 5.75 Q-0.15 1.1 5.1 0.05 10.0 -0.15 12.0 1.25 12.9 1.85 13.2 2.9 13.55 4.3 13.4 5.65" fill="#ff0000" fill-opacity="0.99607843" fill-rule="evenodd" stroke="none"/>
    </g>
    <g id="shape4" transform="matrix(1.0, 0.0, 0.0, 1.0, 0.0, -0.35)">
      <path d="M29.65 10.7 Q24.4 10.9 22.8 8.5 21.95 7.1 21.8 5.55 21.7 4.25 22.0 2.85 22.45 1.0 25.0 0.35 L24.6 1.8 Q23.2 10.05 34.7 7.8 33.7 10.7 29.65 10.7 M12.4 8.5 Q10.7 10.9 5.45 10.7 0.3 10.7 0.05 6.05 L0.05 5.95 0.05 5.75 0.1 5.8 Q3.2 9.45 8.3 7.9 12.45 6.5 12.2 2.75 L12.0 1.25 Q12.9 1.85 13.2 2.9 13.55 4.3 13.4 5.65 13.25 7.15 12.4 8.5" fill="#000000" fill-opacity="0.4" fill-rule="evenodd" stroke="none"/>
    </g>
    <g id="shape5" transform="matrix(1.0, 0.0, 0.0, 1.0, 0.9, 0.75)">
      <path d="M45.6 9.25 L47.8 12.35 Q48.95 14.15 49.5 15.8 L49.75 16.5 50.4 18.85 Q51.0 26.4 48.85 29.2 50.3 30.1 49.25 33.35 L48.9 33.85 47.8 35.2 Q46.5 36.6 45.6 36.85 44.25 37.2 43.85 37.4 L42.7 37.65 40.7 37.95 Q37.1 38.0 35.8 41.7 25.75 42.95 14.6 41.7 14.25 39.5 11.0 38.35 L8.4 37.55 6.35 37.45 5.3 37.3 Q1.8 36.7 0.9 34.5 L0.35 33.15 0.15 32.05 Q0.65 29.0 0.95 28.3 -0.8 25.4 0.2 17.05 L0.75 15.2 0.9 14.7 Q1.35 13.2 2.15 11.6 3.55 8.6 6.1 6.45 8.8 10.75 20.5 11.45 39.75 12.1 42.7 8.6 43.35 7.8 45.6 9.25 M42.7 29.8 L42.7 28.8 Q42.45 24.85 37.75 23.9 L32.65 24.2 Q30.1 24.85 29.65 26.7 29.35 28.1 29.45 29.4 29.6 30.95 30.45 32.35 32.05 34.75 37.3 34.55 41.35 34.55 42.35 31.65 L42.7 30.0 42.7 29.8 M13.1 34.55 Q18.35 34.75 20.05 32.35 20.9 31.0 21.05 29.5 21.2 28.15 20.85 26.75 20.55 25.7 19.65 25.1 17.65 23.7 12.75 23.9 7.5 24.95 7.7 29.6 L7.7 29.8 7.7 29.9 Q7.95 34.55 13.1 34.55 M26.8 35.3 Q25.55 32.8 24.05 33.7 21.0 38.25 22.15 39.4 23.2 40.6 24.75 39.2 26.95 40.5 27.5 39.2 28.0 37.9 26.8 35.3" fill="#e2e1dc" fill-rule="evenodd" stroke="none"/>
      <path d="M45.6 9.25 Q43.35 7.8 42.7 8.6 39.75 12.1 20.5 11.45 8.8 10.75 6.1 6.45 13.6 -0.5 26.1 0.05 38.6 0.55 45.6 9.25 M14.6 41.7 Q25.75 42.95 35.8 41.7 36.05 43.45 35.6 43.7 25.2 45.35 14.8 43.8 14.5 42.95 14.6 41.7" fill="#f3f3f3" fill-rule="evenodd" stroke="none"/>
      <path d="M26.8 35.3 Q28.0 37.9 27.5 39.2 26.95 40.5 24.75 39.2 23.2 40.6 22.15 39.4 21.0 38.25 24.05 33.7 25.55 32.8 26.8 35.3" fill="#25211d" fill-rule="evenodd" stroke="none"/>
      <path d="M35.8 41.7 Q37.1 38.0 40.7 37.95 L42.7 37.65 43.85 37.4 Q44.25 37.2 45.6 36.85 46.5 36.6 47.8 35.2 L48.9 33.85 49.25 33.35 Q50.3 30.1 48.85 29.2 51.0 26.4 50.4 18.85 L49.75 16.5 49.5 15.8 Q48.95 14.15 47.8 12.35 L45.6 9.25 Q38.6 0.55 26.1 0.05 13.6 -0.5 6.1 6.45 3.55 8.6 2.15 11.6 1.35 13.2 0.9 14.7 L0.75 15.2 0.2 17.05 Q-0.8 25.4 0.95 28.3 0.65 29.0 0.15 32.05 L0.35 33.15 0.9 34.5 Q1.8 36.7 5.3 37.3 L6.35 37.45 8.4 37.55 11.0 38.35 Q14.25 39.5 14.6 41.7 25.75 42.95 35.8 41.7 36.05 43.45 35.6 43.7 M14.8 43.8 Q14.5 42.95 14.6 41.7 M42.7 29.8 L42.7 28.8 Q42.45 24.85 37.75 23.9 L32.65 24.2 Q30.1 24.85 29.65 26.7 29.35 28.1 29.45 29.4 29.6 30.95 30.45 32.35 32.05 34.75 37.3 34.55 41.35 34.55 42.35 31.65 L42.7 30.0 42.7 29.8 M13.1 34.55 Q7.95 34.55 7.7 29.9 L7.7 29.8 7.7 29.6 Q7.5 24.95 12.75 23.9 17.65 23.7 19.65 25.1 20.55 25.7 20.85 26.75 21.2 28.15 21.05 29.5 20.9 31.0 20.05 32.35 18.35 34.75 13.1 34.55" fill="none" stroke="#000000" stroke-linecap="round" stroke-linejoin="round" stroke-width="1.5"/>
      <path d="M35.6 43.7 Q25.2 45.35 14.8 43.8 M26.8 35.3 Q28.0 37.9 27.5 39.2 26.95 40.5 24.75 39.2 23.2 40.6 22.15 39.4 21.0 38.25 24.05 33.7 25.55 32.8 26.8 35.3 Z" fill="none" stroke="#000000" stroke-linecap="round" stroke-linejoin="round" stroke-width="1.0"/>
    </g>
  </defs>
</svg>
