<?xml version="1.0" encoding="UTF-8" standalone="no"?>
<svg xmlns:ffdec="https://www.free-decompiler.com/flash" xmlns:xlink="http://www.w3.org/1999/xlink" ffdec:objectType="frame" height="26.0px" width="19.1px" xmlns="http://www.w3.org/2000/svg">
  <g transform="matrix(1.0, 0.0, 0.0, 1.0, 0.0, 5.85)">
    <use ffdec:characterId="145" height="40.4" id="mc600" transform="matrix(-0.2904, 0.0, 0.0, 0.2904, 18.8759, 8.2386)" width="48.95" xlink:href="#sprite0"/>
    <use ffdec:characterId="149" height="6.35" id="mc500" transform="matrix(-0.2904, 0.0, 0.0, 0.2904, 16.8678, 12.3822)" width="10.4" xlink:href="#sprite2"/>
    <use ffdec:characterId="153" height="11.9" id="mc400" transform="matrix(-0.2904, 0.0, 0.0, 0.2904, 7.1114, 16.4386)" width="16.7" xlink:href="#sprite4"/>
    <use ffdec:characterId="158" height="10.7" id="mc300" transform="matrix(-0.2904, 0.0, 0.0, 0.2904, 16.4678, 14.2322)" width="6.75" xlink:href="#sprite6"/>
    <use ffdec:characterId="162" height="67.85" id="mc200" transform="matrix(-0.2904, 0.0, 0.0, 0.2904, 19.1114, 0.4533)" width="65.85" xlink:href="#sprite8"/>
    <use ffdec:characterId="166" height="57.05" id="mc100" transform="matrix(-0.2904, 0.0, 0.0, 0.2904, 10.9114, 1.4386)" width="33.4" xlink:href="#sprite10"/>
    <use ffdec:characterId="197" height="0.0" id="hat" transform="matrix(-0.2904, 0.0, 0.0, 0.2904, 18.8, -5.85)" width="0.0" xlink:href="#sprite12"/>
  </g>
  <defs>
    <g id="sprite0" transform="matrix(1.0, 0.0, 0.0, 1.0, 0.95, 0.9)">
      <use ffdec:characterId="143" height="38.6" id="mc100" transform="matrix(1.0, 0.0, 0.0, 1.0, -0.05, 0.0)" width="47.15" xlink:href="#sprite1"/>
      <use ffdec:characterId="144" height="40.4" transform="matrix(1.0, 0.0, 0.0, 1.0, -0.95, -0.9)" width="48.95" xlink:href="#shape1"/>
    </g>
    <g id="sprite1" transform="matrix(1.0, 0.0, 0.0, 1.0, 0.0, 0.0)">
      <use ffdec:characterId="142" height="38.6" transform="matrix(1.0, 0.0, 0.0, 1.0, 0.0, 0.0)" width="47.15" xlink:href="#shape0"/>
    </g>
    <g id="shape0" transform="matrix(1.0, 0.0, 0.0, 1.0, 0.0, 0.0)">
      <path d="M40.55 14.35 L47.15 32.15 Q26.8 43.2 7.25 35.3 4.5 34.9 2.85 33.25 L3.8 30.3 Q-2.1 18.0 1.2 0.0 L17.0 0.55 40.55 14.35" fill="#996633" fill-rule="evenodd" stroke="none"/>
    </g>
    <g id="shape1" transform="matrix(1.0, 0.0, 0.0, 1.0, 0.95, 0.9)">
      <path d="M40.5 14.35 L16.95 0.55 1.15 0.0 Q-2.15 18.0 3.75 30.3 L2.8 33.25 Q4.45 34.9 7.2 35.3 26.75 43.2 47.1 32.15 L40.5 14.35 Z" fill="none" stroke="#000000" stroke-linecap="round" stroke-linejoin="round" stroke-width="1.8"/>
    </g>
    <g id="sprite2" transform="matrix(1.0, 0.0, 0.0, 1.0, 0.75, 0.75)">
      <use ffdec:characterId="147" height="4.85" id="mc100" transform="matrix(1.0, 0.0, 0.0, 1.0, 0.0, 0.0)" width="8.9" xlink:href="#sprite3"/>
      <use ffdec:characterId="148" height="6.35" transform="matrix(1.0, 0.0, 0.0, 1.0, -0.75, -0.75)" width="10.4" xlink:href="#shape3"/>
    </g>
    <g id="sprite3" transform="matrix(1.0, 0.0, 0.0, 1.0, 0.0, 0.0)">
      <use ffdec:characterId="146" height="4.85" transform="matrix(1.0, 0.0, 0.0, 1.0, 0.0, 0.0)" width="8.9" xlink:href="#shape2"/>
    </g>
    <g id="shape2" transform="matrix(1.0, 0.0, 0.0, 1.0, 0.0, 0.0)">
      <path d="M0.6 4.85 L0.0 0.2 Q6.45 -1.05 8.9 4.85 L0.6 4.85" fill="#663300" fill-rule="evenodd" stroke="none"/>
    </g>
    <g id="shape3" transform="matrix(1.0, 0.0, 0.0, 1.0, 0.75, 0.75)">
      <path d="M0.6 4.85 L8.9 4.85 Q6.45 -1.05 0.0 0.2 L0.6 4.85 Z" fill="none" stroke="#000000" stroke-linecap="round" stroke-linejoin="round" stroke-width="1.5"/>
    </g>
    <g id="sprite4" transform="matrix(1.0, 0.0, 0.0, 1.0, 0.9, 0.9)">
      <use ffdec:characterId="151" height="10.1" id="mc100" transform="matrix(1.0, 0.0, 0.0, 1.0, 0.0, 0.0)" width="14.9" xlink:href="#sprite5"/>
      <use ffdec:characterId="152" height="11.9" transform="matrix(1.0, 0.0, 0.0, 1.0, -0.9, -0.9)" width="16.7" xlink:href="#shape5"/>
    </g>
    <g id="sprite5" transform="matrix(1.0, 0.0, 0.0, 1.0, 0.0, 0.0)">
      <use ffdec:characterId="150" height="10.1" transform="matrix(1.0, 0.0, 0.0, 1.0, 0.0, 0.0)" width="14.9" xlink:href="#shape4"/>
    </g>
    <g id="shape4" transform="matrix(1.0, 0.0, 0.0, 1.0, 0.0, 0.0)">
      <path d="M0.0 6.8 L10.15 0.0 14.9 8.5 8.65 6.95 6.25 10.1 0.0 6.8" fill="#663300" fill-rule="evenodd" stroke="none"/>
    </g>
    <g id="shape5" transform="matrix(1.0, 0.0, 0.0, 1.0, 0.9, 0.9)">
      <path d="M0.0 6.8 L10.15 0.0 14.9 8.5 8.65 6.95 6.25 10.1 0.0 6.8 Z" fill="none" stroke="#000000" stroke-linecap="round" stroke-linejoin="round" stroke-width="1.8"/>
    </g>
    <g id="sprite6" transform="matrix(1.0, 0.0, 0.0, 1.0, 0.75, 0.75)">
      <use ffdec:characterId="154" height="9.2" transform="matrix(1.0, 0.0, 0.0, 1.0, 0.0, 0.0)" width="5.25" xlink:href="#shape6"/>
      <use ffdec:characterId="156" height="6.25" id="mc100" transform="matrix(1.0, 0.0, 0.0, 1.0, -0.35, -0.65)" width="3.3" xlink:href="#sprite7"/>
      <use ffdec:characterId="157" height="10.7" transform="matrix(1.0, 0.0, 0.0, 1.0, -0.75, -0.75)" width="6.75" xlink:href="#shape8"/>
    </g>
    <g id="shape6" transform="matrix(1.0, 0.0, 0.0, 1.0, 0.0, 0.0)">
      <path d="M4.85 0.2 Q6.0 6.05 3.9 9.2 0.15 8.05 0.0 0.0 L4.85 0.2" fill="#ffffff" fill-rule="evenodd" stroke="none"/>
    </g>
    <g id="sprite7" transform="matrix(1.0, 0.0, 0.0, 1.0, 0.0, 0.0)">
      <use ffdec:characterId="155" height="3.4" transform="matrix(1.2222, 0.0, 0.0, 1.8382, 0.0, 0.0)" width="2.7" xlink:href="#shape7"/>
    </g>
    <g id="shape7" transform="matrix(1.0, 0.0, 0.0, 1.0, 0.0, 0.0)">
      <path d="M2.7 1.7 Q2.7 2.4 2.3 2.9 1.9 3.4 1.35 3.4 0.8 3.4 0.4 2.9 0.0 2.4 0.0 1.7 0.0 1.0 0.4 0.5 0.8 0.0 1.35 0.0 1.9 0.0 2.3 0.5 2.7 1.0 2.7 1.7" fill="#009933" fill-rule="evenodd" stroke="none"/>
    </g>
    <g id="shape8" transform="matrix(1.0, 0.0, 0.0, 1.0, 0.75, 0.75)">
      <path d="M4.85 0.2 Q6.0 6.05 3.9 9.2 0.15 8.05 0.0 0.0 L4.85 0.2 Z" fill="none" stroke="#000000" stroke-linecap="round" stroke-linejoin="round" stroke-width="1.5"/>
    </g>
    <g id="sprite8" transform="matrix(1.0, 0.0, 0.0, 1.0, 0.9, -0.7)">
      <use ffdec:characterId="160" height="66.15" id="mc100" transform="matrix(1.0, 0.0, 0.0, 1.0, 0.0, 1.5)" width="64.05" xlink:href="#sprite9"/>
      <use ffdec:characterId="161" height="67.85" transform="matrix(1.0, 0.0, 0.0, 1.0, -0.9, 0.7)" width="65.85" xlink:href="#shape10"/>
    </g>
    <g id="sprite9" transform="matrix(1.0, 0.0, 0.0, 1.0, 0.0, -1.5)">
      <use ffdec:characterId="159" height="66.15" transform="matrix(1.0, 0.0, 0.0, 1.0, 0.0, 1.5)" width="64.05" xlink:href="#shape9"/>
    </g>
    <g id="shape9" transform="matrix(1.0, 0.0, 0.0, 1.0, 0.0, -1.5)">
      <path d="M41.75 6.05 L40.5 1.5 45.95 5.85 47.15 1.75 Q49.5 3.55 49.45 8.25 65.05 18.9 64.0 36.2 63.5 61.8 25.0 67.65 L23.7 56.95 Q32.65 59.25 40.8 53.65 L33.45 53.65 Q32.3 49.05 36.05 44.45 28.95 49.3 21.15 50.9 23.15 45.5 23.55 39.3 21.1 44.2 16.55 47.6 14.85 41.25 16.55 35.45 13.2 38.35 11.95 43.35 8.2 41.0 5.9 35.1 L3.85 45.75 0.0 41.15 Q1.7 6.0 35.85 5.1 L41.75 6.05" fill="#663300" fill-rule="evenodd" stroke="none"/>
    </g>
    <g id="shape10" transform="matrix(1.0, 0.0, 0.0, 1.0, 0.9, -0.7)">
      <path d="M45.95 5.85 L40.3 1.6 41.75 6.05 35.85 5.1 Q1.7 6.0 0.0 41.15 L3.85 45.75 5.9 35.1 Q8.2 41.0 11.95 43.35 13.2 38.35 16.55 35.45 14.85 41.25 16.55 47.6 21.1 44.2 23.55 39.3 23.15 45.5 21.15 50.9 28.95 49.3 36.05 44.45 32.3 49.05 33.45 53.65 L40.8 53.65 Q32.65 59.25 23.7 56.95 L25.0 67.65 Q63.5 61.8 64.0 36.2 65.05 18.9 49.45 8.25 49.5 3.55 47.25 1.85 L45.95 5.85 Z" fill="none" stroke="#000000" stroke-linecap="round" stroke-linejoin="round" stroke-width="1.8"/>
    </g>
    <g id="sprite10" transform="matrix(1.0, 0.0, 0.0, 1.0, 0.9, 0.9)">
      <use ffdec:characterId="164" height="51.8" id="mc100" transform="matrix(1.0, 0.0, 0.0, 1.0, 4.1, 0.0)" width="23.45" xlink:href="#sprite11"/>
      <use ffdec:characterId="165" height="57.05" transform="matrix(1.0, 0.0, 0.0, 1.0, -0.9, -0.9)" width="33.4" xlink:href="#shape12"/>
    </g>
    <g id="sprite11" transform="matrix(1.0, 0.0, 0.0, 1.0, 0.0, 0.0)">
      <use ffdec:characterId="163" height="51.8" transform="matrix(1.0, 0.0, 0.0, 1.0, 0.0, 0.0)" width="23.45" xlink:href="#shape11"/>
    </g>
    <g id="shape11" transform="matrix(1.0, 0.0, 0.0, 1.0, 0.0, 0.0)">
      <path d="M9.15 0.1 Q13.2 9.3 14.65 18.7 L6.8 18.7 Q5.95 9.35 3.1 0.0 L9.15 0.1 M17.35 34.4 Q15.05 32.1 11.75 32.1 8.5 32.1 6.15 34.4 3.85 36.7 3.85 40.0 3.85 43.25 6.15 45.55 8.5 47.9 11.75 47.9 15.05 47.9 17.35 45.55 19.65 43.25 19.65 40.0 19.65 36.7 17.35 34.4 M7.25 24.25 L7.05 23.5 6.95 21.0 14.95 21.0 15.2 24.0 12.05 23.65 11.9 23.65 11.7 23.65 7.25 24.25 M20.0 31.8 Q23.45 35.25 23.45 40.1 23.45 44.95 20.0 48.35 16.6 51.8 11.75 51.8 6.9 51.8 3.45 48.35 0.0 44.95 0.0 40.1 0.0 35.25 3.45 31.8 6.9 28.35 11.75 28.35 16.6 28.35 20.0 31.8" fill="#003333" fill-rule="evenodd" stroke="none"/>
    </g>
    <g id="shape12" transform="matrix(1.0, 0.0, 0.0, 1.0, 0.9, 0.9)">
      <path d="M11.05 21.0 L10.9 18.7 18.75 18.7 19.05 21.0 11.05 21.0 M19.3 24.0 Q23.65 24.95 26.95 28.25 31.6 32.9 31.6 39.45 31.6 46.0 26.95 50.6 22.35 55.25 15.8 55.25 9.25 55.25 4.6 50.6 0.0 46.0 0.0 39.45 0.0 32.9 4.6 28.25 7.6 25.3 11.35 24.25 13.45 23.65 15.8 23.65 L16.0 23.65 16.15 23.65 19.3 24.0 M4.1 40.1 Q4.1 44.95 7.55 48.35 11.0 51.8 15.85 51.8 20.7 51.8 24.1 48.35 27.55 44.95 27.55 40.1 27.55 35.25 24.1 31.8 20.7 28.35 15.85 28.35 11.0 28.35 7.55 31.8 4.1 35.25 4.1 40.1" fill="#333333" fill-rule="evenodd" stroke="none"/>
      <path d="M15.85 32.1 Q19.15 32.1 21.45 34.4 23.75 36.7 23.75 40.0 23.75 43.25 21.45 45.55 19.15 47.9 15.85 47.9 12.6 47.9 10.25 45.55 7.95 43.25 7.95 40.0 7.95 36.7 10.25 34.4 12.6 32.1 15.85 32.1" fill="#000000" fill-rule="evenodd" stroke="none"/>
      <path d="M11.05 21.0 L11.15 23.5 M11.05 21.0 L19.05 21.0 18.75 18.7 10.9 18.7 11.05 21.0 M19.3 24.0 Q23.65 24.95 26.95 28.25 31.6 32.9 31.6 39.45 31.6 46.0 26.95 50.6 22.35 55.25 15.8 55.25 9.25 55.25 4.6 50.6 0.0 46.0 0.0 39.45 0.0 32.9 4.6 28.25 7.6 25.3 11.35 24.25 13.45 23.65 15.8 23.65 L16.0 23.65 16.15 23.65 19.3 24.0 19.05 21.0 M18.75 18.7 Q17.3 9.3 13.25 0.1 L7.2 0.0 Q10.05 9.35 10.9 18.7 M4.1 40.1 Q4.1 35.25 7.55 31.8 11.0 28.35 15.85 28.35 20.7 28.35 24.1 31.8 27.55 35.25 27.55 40.1 27.55 44.95 24.1 48.35 20.7 51.8 15.85 51.8 11.0 51.8 7.55 48.35 4.1 44.95 4.1 40.1 M15.85 32.1 Q19.15 32.1 21.45 34.4 23.75 36.7 23.75 40.0 23.75 43.25 21.45 45.55 19.15 47.9 15.85 47.9 12.6 47.9 10.25 45.55 7.95 43.25 7.95 40.0 7.95 36.7 10.25 34.4 12.6 32.1 15.85 32.1 Z" fill="none" stroke="#000000" stroke-linecap="round" stroke-linejoin="round" stroke-width="1.8"/>
    </g>
  </defs>
</svg>
